solid ldr_photoresistor
  facet normal 0.000000 1.000000 0.000000
    outer loop
      vertex -1.270000 -11.500000 0.000000
      vertex -0.990000 -11.500000 0.000000
      vertex -1.017729 -11.500000 -0.121487
    endloop
  endfacet
  facet normal 0.000000 -1.000000 0.000000
    outer loop
      vertex -1.270000 -1.000000 -0.000000
      vertex -1.017729 -1.000000 -0.121487
      vertex -0.990000 -1.000000 -0.000000
    endloop
  endfacet
  facet normal -0.974928 0.000000 0.222521
    outer loop
      vertex -0.990000 -1.000000 -0.000000
      vertex -1.017729 -1.000000 -0.121487
      vertex -1.017729 -11.500000 -0.121487
    endloop
  endfacet
  facet normal -0.974928 0.000000 0.222521
    outer loop
      vertex -0.990000 -1.000000 -0.000000
      vertex -1.017729 -11.500000 -0.121487
      vertex -0.990000 -11.500000 0.000000
    endloop
  endfacet
  facet normal 0.000000 1.000000 0.000000
    outer loop
      vertex -1.270000 -11.500000 0.000000
      vertex -1.017729 -11.500000 -0.121487
      vertex -1.095423 -11.500000 -0.218913
    endloop
  endfacet
  facet normal 0.000000 -1.000000 0.000000
    outer loop
      vertex -1.270000 -1.000000 -0.000000
      vertex -1.095423 -1.000000 -0.218913
      vertex -1.017729 -1.000000 -0.121487
    endloop
  endfacet
  facet normal -0.781831 0.000000 0.623490
    outer loop
      vertex -1.017729 -1.000000 -0.121487
      vertex -1.095423 -1.000000 -0.218913
      vertex -1.095423 -11.500000 -0.218913
    endloop
  endfacet
  facet normal -0.781831 0.000000 0.623490
    outer loop
      vertex -1.017729 -1.000000 -0.121487
      vertex -1.095423 -11.500000 -0.218913
      vertex -1.017729 -11.500000 -0.121487
    endloop
  endfacet
  facet normal 0.000000 1.000000 0.000000
    outer loop
      vertex -1.270000 -11.500000 0.000000
      vertex -1.095423 -11.500000 -0.218913
      vertex -1.207694 -11.500000 -0.272980
    endloop
  endfacet
  facet normal 0.000000 -1.000000 0.000000
    outer loop
      vertex -1.270000 -1.000000 -0.000000
      vertex -1.207694 -1.000000 -0.272980
      vertex -1.095423 -1.000000 -0.218913
    endloop
  endfacet
  facet normal -0.433884 0.000000 0.900969
    outer loop
      vertex -1.095423 -1.000000 -0.218913
      vertex -1.207694 -1.000000 -0.272980
      vertex -1.207694 -11.500000 -0.272980
    endloop
  endfacet
  facet normal -0.433884 0.000000 0.900969
    outer loop
      vertex -1.095423 -1.000000 -0.218913
      vertex -1.207694 -11.500000 -0.272980
      vertex -1.095423 -11.500000 -0.218913
    endloop
  endfacet
  facet normal 0.000000 1.000000 0.000000
    outer loop
      vertex -1.270000 -11.500000 0.000000
      vertex -1.207694 -11.500000 -0.272980
      vertex -1.332306 -11.500000 -0.272980
    endloop
  endfacet
  facet normal 0.000000 -1.000000 0.000000
    outer loop
      vertex -1.270000 -1.000000 -0.000000
      vertex -1.332306 -1.000000 -0.272980
      vertex -1.207694 -1.000000 -0.272980
    endloop
  endfacet
  facet normal 0.000000 0.000000 1.000000
    outer loop
      vertex -1.207694 -1.000000 -0.272980
      vertex -1.332306 -1.000000 -0.272980
      vertex -1.332306 -11.500000 -0.272980
    endloop
  endfacet
  facet normal 0.000000 0.000000 1.000000
    outer loop
      vertex -1.207694 -1.000000 -0.272980
      vertex -1.332306 -11.500000 -0.272980
      vertex -1.207694 -11.500000 -0.272980
    endloop
  endfacet
  facet normal 0.000000 1.000000 0.000000
    outer loop
      vertex -1.270000 -11.500000 0.000000
      vertex -1.332306 -11.500000 -0.272980
      vertex -1.444577 -11.500000 -0.218913
    endloop
  endfacet
  facet normal 0.000000 -1.000000 0.000000
    outer loop
      vertex -1.270000 -1.000000 -0.000000
      vertex -1.444577 -1.000000 -0.218913
      vertex -1.332306 -1.000000 -0.272980
    endloop
  endfacet
  facet normal 0.433884 0.000000 0.900969
    outer loop
      vertex -1.332306 -1.000000 -0.272980
      vertex -1.444577 -1.000000 -0.218913
      vertex -1.444577 -11.500000 -0.218913
    endloop
  endfacet
  facet normal 0.433884 0.000000 0.900969
    outer loop
      vertex -1.332306 -1.000000 -0.272980
      vertex -1.444577 -11.500000 -0.218913
      vertex -1.332306 -11.500000 -0.272980
    endloop
  endfacet
  facet normal 0.000000 1.000000 0.000000
    outer loop
      vertex -1.270000 -11.500000 0.000000
      vertex -1.444577 -11.500000 -0.218913
      vertex -1.522271 -11.500000 -0.121487
    endloop
  endfacet
  facet normal 0.000000 -1.000000 0.000000
    outer loop
      vertex -1.270000 -1.000000 -0.000000
      vertex -1.522271 -1.000000 -0.121487
      vertex -1.444577 -1.000000 -0.218913
    endloop
  endfacet
  facet normal 0.781831 0.000000 0.623490
    outer loop
      vertex -1.444577 -1.000000 -0.218913
      vertex -1.522271 -1.000000 -0.121487
      vertex -1.522271 -11.500000 -0.121487
    endloop
  endfacet
  facet normal 0.781831 0.000000 0.623490
    outer loop
      vertex -1.444577 -1.000000 -0.218913
      vertex -1.522271 -11.500000 -0.121487
      vertex -1.444577 -11.500000 -0.218913
    endloop
  endfacet
  facet normal 0.000000 1.000000 0.000000
    outer loop
      vertex -1.270000 -11.500000 0.000000
      vertex -1.522271 -11.500000 -0.121487
      vertex -1.550000 -11.500000 0.000000
    endloop
  endfacet
  facet normal 0.000000 -1.000000 0.000000
    outer loop
      vertex -1.270000 -1.000000 -0.000000
      vertex -1.550000 -1.000000 -0.000000
      vertex -1.522271 -1.000000 -0.121487
    endloop
  endfacet
  facet normal 0.974928 0.000000 0.222521
    outer loop
      vertex -1.522271 -1.000000 -0.121487
      vertex -1.550000 -1.000000 -0.000000
      vertex -1.550000 -11.500000 0.000000
    endloop
  endfacet
  facet normal 0.974928 0.000000 0.222521
    outer loop
      vertex -1.522271 -1.000000 -0.121487
      vertex -1.550000 -11.500000 0.000000
      vertex -1.522271 -11.500000 -0.121487
    endloop
  endfacet
  facet normal 0.000000 1.000000 0.000000
    outer loop
      vertex -1.270000 -11.500000 0.000000
      vertex -1.550000 -11.500000 0.000000
      vertex -1.522271 -11.500000 0.121487
    endloop
  endfacet
  facet normal 0.000000 -1.000000 0.000000
    outer loop
      vertex -1.270000 -1.000000 -0.000000
      vertex -1.522271 -1.000000 0.121487
      vertex -1.550000 -1.000000 -0.000000
    endloop
  endfacet
  facet normal 0.974928 -0.000000 -0.222521
    outer loop
      vertex -1.550000 -1.000000 -0.000000
      vertex -1.522271 -1.000000 0.121487
      vertex -1.522271 -11.500000 0.121487
    endloop
  endfacet
  facet normal 0.974928 -0.000000 -0.222521
    outer loop
      vertex -1.550000 -1.000000 -0.000000
      vertex -1.522271 -11.500000 0.121487
      vertex -1.550000 -11.500000 0.000000
    endloop
  endfacet
  facet normal 0.000000 1.000000 0.000000
    outer loop
      vertex -1.270000 -11.500000 0.000000
      vertex -1.522271 -11.500000 0.121487
      vertex -1.444577 -11.500000 0.218913
    endloop
  endfacet
  facet normal 0.000000 -1.000000 0.000000
    outer loop
      vertex -1.270000 -1.000000 -0.000000
      vertex -1.444577 -1.000000 0.218913
      vertex -1.522271 -1.000000 0.121487
    endloop
  endfacet
  facet normal 0.781831 -0.000000 -0.623490
    outer loop
      vertex -1.522271 -1.000000 0.121487
      vertex -1.444577 -1.000000 0.218913
      vertex -1.444577 -11.500000 0.218913
    endloop
  endfacet
  facet normal 0.781831 -0.000000 -0.623490
    outer loop
      vertex -1.522271 -1.000000 0.121487
      vertex -1.444577 -11.500000 0.218913
      vertex -1.522271 -11.500000 0.121487
    endloop
  endfacet
  facet normal 0.000000 1.000000 0.000000
    outer loop
      vertex -1.270000 -11.500000 0.000000
      vertex -1.444577 -11.500000 0.218913
      vertex -1.332306 -11.500000 0.272980
    endloop
  endfacet
  facet normal 0.000000 -1.000000 0.000000
    outer loop
      vertex -1.270000 -1.000000 -0.000000
      vertex -1.332306 -1.000000 0.272980
      vertex -1.444577 -1.000000 0.218913
    endloop
  endfacet
  facet normal 0.433884 -0.000000 -0.900969
    outer loop
      vertex -1.444577 -1.000000 0.218913
      vertex -1.332306 -1.000000 0.272980
      vertex -1.332306 -11.500000 0.272980
    endloop
  endfacet
  facet normal 0.433884 -0.000000 -0.900969
    outer loop
      vertex -1.444577 -1.000000 0.218913
      vertex -1.332306 -11.500000 0.272980
      vertex -1.444577 -11.500000 0.218913
    endloop
  endfacet
  facet normal 0.000000 1.000000 0.000000
    outer loop
      vertex -1.270000 -11.500000 0.000000
      vertex -1.332306 -11.500000 0.272980
      vertex -1.207694 -11.500000 0.272980
    endloop
  endfacet
  facet normal 0.000000 -1.000000 0.000000
    outer loop
      vertex -1.270000 -1.000000 -0.000000
      vertex -1.207694 -1.000000 0.272980
      vertex -1.332306 -1.000000 0.272980
    endloop
  endfacet
  facet normal 0.000000 -0.000000 -1.000000
    outer loop
      vertex -1.332306 -1.000000 0.272980
      vertex -1.207694 -1.000000 0.272980
      vertex -1.207694 -11.500000 0.272980
    endloop
  endfacet
  facet normal 0.000000 -0.000000 -1.000000
    outer loop
      vertex -1.332306 -1.000000 0.272980
      vertex -1.207694 -11.500000 0.272980
      vertex -1.332306 -11.500000 0.272980
    endloop
  endfacet
  facet normal 0.000000 1.000000 0.000000
    outer loop
      vertex -1.270000 -11.500000 0.000000
      vertex -1.207694 -11.500000 0.272980
      vertex -1.095423 -11.500000 0.218913
    endloop
  endfacet
  facet normal 0.000000 -1.000000 0.000000
    outer loop
      vertex -1.270000 -1.000000 -0.000000
      vertex -1.095423 -1.000000 0.218913
      vertex -1.207694 -1.000000 0.272980
    endloop
  endfacet
  facet normal -0.433884 -0.000000 -0.900969
    outer loop
      vertex -1.207694 -1.000000 0.272980
      vertex -1.095423 -1.000000 0.218913
      vertex -1.095423 -11.500000 0.218913
    endloop
  endfacet
  facet normal -0.433884 -0.000000 -0.900969
    outer loop
      vertex -1.207694 -1.000000 0.272980
      vertex -1.095423 -11.500000 0.218913
      vertex -1.207694 -11.500000 0.272980
    endloop
  endfacet
  facet normal 0.000000 1.000000 0.000000
    outer loop
      vertex -1.270000 -11.500000 0.000000
      vertex -1.095423 -11.500000 0.218913
      vertex -1.017729 -11.500000 0.121487
    endloop
  endfacet
  facet normal 0.000000 -1.000000 0.000000
    outer loop
      vertex -1.270000 -1.000000 -0.000000
      vertex -1.017729 -1.000000 0.121487
      vertex -1.095423 -1.000000 0.218913
    endloop
  endfacet
  facet normal -0.781831 -0.000000 -0.623490
    outer loop
      vertex -1.095423 -1.000000 0.218913
      vertex -1.017729 -1.000000 0.121487
      vertex -1.017729 -11.500000 0.121487
    endloop
  endfacet
  facet normal -0.781831 -0.000000 -0.623490
    outer loop
      vertex -1.095423 -1.000000 0.218913
      vertex -1.017729 -11.500000 0.121487
      vertex -1.095423 -11.500000 0.218913
    endloop
  endfacet
  facet normal 0.000000 1.000000 0.000000
    outer loop
      vertex -1.270000 -11.500000 0.000000
      vertex -1.017729 -11.500000 0.121487
      vertex -0.990000 -11.500000 0.000000
    endloop
  endfacet
  facet normal 0.000000 -1.000000 0.000000
    outer loop
      vertex -1.270000 -1.000000 -0.000000
      vertex -0.990000 -1.000000 -0.000000
      vertex -1.017729 -1.000000 0.121487
    endloop
  endfacet
  facet normal -0.974928 -0.000000 -0.222521
    outer loop
      vertex -1.017729 -1.000000 0.121487
      vertex -0.990000 -1.000000 -0.000000
      vertex -0.990000 -11.500000 0.000000
    endloop
  endfacet
  facet normal -0.974928 -0.000000 -0.222521
    outer loop
      vertex -1.017729 -1.000000 0.121487
      vertex -0.990000 -11.500000 0.000000
      vertex -1.017729 -11.500000 0.121487
    endloop
  endfacet
  facet normal 0.000000 1.000000 0.000000
    outer loop
      vertex 1.270000 -11.500000 0.000000
      vertex 1.550000 -11.500000 0.000000
      vertex 1.522271 -11.500000 -0.121487
    endloop
  endfacet
  facet normal 0.000000 -1.000000 0.000000
    outer loop
      vertex 1.270000 -1.000000 -0.000000
      vertex 1.522271 -1.000000 -0.121487
      vertex 1.550000 -1.000000 -0.000000
    endloop
  endfacet
  facet normal -0.974928 0.000000 0.222521
    outer loop
      vertex 1.550000 -1.000000 -0.000000
      vertex 1.522271 -1.000000 -0.121487
      vertex 1.522271 -11.500000 -0.121487
    endloop
  endfacet
  facet normal -0.974928 0.000000 0.222521
    outer loop
      vertex 1.550000 -1.000000 -0.000000
      vertex 1.522271 -11.500000 -0.121487
      vertex 1.550000 -11.500000 0.000000
    endloop
  endfacet
  facet normal 0.000000 1.000000 0.000000
    outer loop
      vertex 1.270000 -11.500000 0.000000
      vertex 1.522271 -11.500000 -0.121487
      vertex 1.444577 -11.500000 -0.218913
    endloop
  endfacet
  facet normal 0.000000 -1.000000 0.000000
    outer loop
      vertex 1.270000 -1.000000 -0.000000
      vertex 1.444577 -1.000000 -0.218913
      vertex 1.522271 -1.000000 -0.121487
    endloop
  endfacet
  facet normal -0.781831 0.000000 0.623490
    outer loop
      vertex 1.522271 -1.000000 -0.121487
      vertex 1.444577 -1.000000 -0.218913
      vertex 1.444577 -11.500000 -0.218913
    endloop
  endfacet
  facet normal -0.781831 0.000000 0.623490
    outer loop
      vertex 1.522271 -1.000000 -0.121487
      vertex 1.444577 -11.500000 -0.218913
      vertex 1.522271 -11.500000 -0.121487
    endloop
  endfacet
  facet normal 0.000000 1.000000 0.000000
    outer loop
      vertex 1.270000 -11.500000 0.000000
      vertex 1.444577 -11.500000 -0.218913
      vertex 1.332306 -11.500000 -0.272980
    endloop
  endfacet
  facet normal 0.000000 -1.000000 0.000000
    outer loop
      vertex 1.270000 -1.000000 -0.000000
      vertex 1.332306 -1.000000 -0.272980
      vertex 1.444577 -1.000000 -0.218913
    endloop
  endfacet
  facet normal -0.433884 0.000000 0.900969
    outer loop
      vertex 1.444577 -1.000000 -0.218913
      vertex 1.332306 -1.000000 -0.272980
      vertex 1.332306 -11.500000 -0.272980
    endloop
  endfacet
  facet normal -0.433884 0.000000 0.900969
    outer loop
      vertex 1.444577 -1.000000 -0.218913
      vertex 1.332306 -11.500000 -0.272980
      vertex 1.444577 -11.500000 -0.218913
    endloop
  endfacet
  facet normal 0.000000 1.000000 0.000000
    outer loop
      vertex 1.270000 -11.500000 0.000000
      vertex 1.332306 -11.500000 -0.272980
      vertex 1.207694 -11.500000 -0.272980
    endloop
  endfacet
  facet normal 0.000000 -1.000000 0.000000
    outer loop
      vertex 1.270000 -1.000000 -0.000000
      vertex 1.207694 -1.000000 -0.272980
      vertex 1.332306 -1.000000 -0.272980
    endloop
  endfacet
  facet normal 0.000000 0.000000 1.000000
    outer loop
      vertex 1.332306 -1.000000 -0.272980
      vertex 1.207694 -1.000000 -0.272980
      vertex 1.207694 -11.500000 -0.272980
    endloop
  endfacet
  facet normal 0.000000 0.000000 1.000000
    outer loop
      vertex 1.332306 -1.000000 -0.272980
      vertex 1.207694 -11.500000 -0.272980
      vertex 1.332306 -11.500000 -0.272980
    endloop
  endfacet
  facet normal 0.000000 1.000000 0.000000
    outer loop
      vertex 1.270000 -11.500000 0.000000
      vertex 1.207694 -11.500000 -0.272980
      vertex 1.095423 -11.500000 -0.218913
    endloop
  endfacet
  facet normal 0.000000 -1.000000 0.000000
    outer loop
      vertex 1.270000 -1.000000 -0.000000
      vertex 1.095423 -1.000000 -0.218913
      vertex 1.207694 -1.000000 -0.272980
    endloop
  endfacet
  facet normal 0.433884 0.000000 0.900969
    outer loop
      vertex 1.207694 -1.000000 -0.272980
      vertex 1.095423 -1.000000 -0.218913
      vertex 1.095423 -11.500000 -0.218913
    endloop
  endfacet
  facet normal 0.433884 0.000000 0.900969
    outer loop
      vertex 1.207694 -1.000000 -0.272980
      vertex 1.095423 -11.500000 -0.218913
      vertex 1.207694 -11.500000 -0.272980
    endloop
  endfacet
  facet normal 0.000000 1.000000 0.000000
    outer loop
      vertex 1.270000 -11.500000 0.000000
      vertex 1.095423 -11.500000 -0.218913
      vertex 1.017729 -11.500000 -0.121487
    endloop
  endfacet
  facet normal 0.000000 -1.000000 0.000000
    outer loop
      vertex 1.270000 -1.000000 -0.000000
      vertex 1.017729 -1.000000 -0.121487
      vertex 1.095423 -1.000000 -0.218913
    endloop
  endfacet
  facet normal 0.781831 0.000000 0.623490
    outer loop
      vertex 1.095423 -1.000000 -0.218913
      vertex 1.017729 -1.000000 -0.121487
      vertex 1.017729 -11.500000 -0.121487
    endloop
  endfacet
  facet normal 0.781831 0.000000 0.623490
    outer loop
      vertex 1.095423 -1.000000 -0.218913
      vertex 1.017729 -11.500000 -0.121487
      vertex 1.095423 -11.500000 -0.218913
    endloop
  endfacet
  facet normal 0.000000 1.000000 0.000000
    outer loop
      vertex 1.270000 -11.500000 0.000000
      vertex 1.017729 -11.500000 -0.121487
      vertex 0.990000 -11.500000 0.000000
    endloop
  endfacet
  facet normal 0.000000 -1.000000 0.000000
    outer loop
      vertex 1.270000 -1.000000 -0.000000
      vertex 0.990000 -1.000000 -0.000000
      vertex 1.017729 -1.000000 -0.121487
    endloop
  endfacet
  facet normal 0.974928 0.000000 0.222521
    outer loop
      vertex 1.017729 -1.000000 -0.121487
      vertex 0.990000 -1.000000 -0.000000
      vertex 0.990000 -11.500000 0.000000
    endloop
  endfacet
  facet normal 0.974928 0.000000 0.222521
    outer loop
      vertex 1.017729 -1.000000 -0.121487
      vertex 0.990000 -11.500000 0.000000
      vertex 1.017729 -11.500000 -0.121487
    endloop
  endfacet
  facet normal 0.000000 1.000000 0.000000
    outer loop
      vertex 1.270000 -11.500000 0.000000
      vertex 0.990000 -11.500000 0.000000
      vertex 1.017729 -11.500000 0.121487
    endloop
  endfacet
  facet normal 0.000000 -1.000000 0.000000
    outer loop
      vertex 1.270000 -1.000000 -0.000000
      vertex 1.017729 -1.000000 0.121487
      vertex 0.990000 -1.000000 -0.000000
    endloop
  endfacet
  facet normal 0.974928 -0.000000 -0.222521
    outer loop
      vertex 0.990000 -1.000000 -0.000000
      vertex 1.017729 -1.000000 0.121487
      vertex 1.017729 -11.500000 0.121487
    endloop
  endfacet
  facet normal 0.974928 -0.000000 -0.222521
    outer loop
      vertex 0.990000 -1.000000 -0.000000
      vertex 1.017729 -11.500000 0.121487
      vertex 0.990000 -11.500000 0.000000
    endloop
  endfacet
  facet normal 0.000000 1.000000 0.000000
    outer loop
      vertex 1.270000 -11.500000 0.000000
      vertex 1.017729 -11.500000 0.121487
      vertex 1.095423 -11.500000 0.218913
    endloop
  endfacet
  facet normal 0.000000 -1.000000 0.000000
    outer loop
      vertex 1.270000 -1.000000 -0.000000
      vertex 1.095423 -1.000000 0.218913
      vertex 1.017729 -1.000000 0.121487
    endloop
  endfacet
  facet normal 0.781831 -0.000000 -0.623490
    outer loop
      vertex 1.017729 -1.000000 0.121487
      vertex 1.095423 -1.000000 0.218913
      vertex 1.095423 -11.500000 0.218913
    endloop
  endfacet
  facet normal 0.781831 -0.000000 -0.623490
    outer loop
      vertex 1.017729 -1.000000 0.121487
      vertex 1.095423 -11.500000 0.218913
      vertex 1.017729 -11.500000 0.121487
    endloop
  endfacet
  facet normal 0.000000 1.000000 0.000000
    outer loop
      vertex 1.270000 -11.500000 0.000000
      vertex 1.095423 -11.500000 0.218913
      vertex 1.207694 -11.500000 0.272980
    endloop
  endfacet
  facet normal 0.000000 -1.000000 0.000000
    outer loop
      vertex 1.270000 -1.000000 -0.000000
      vertex 1.207694 -1.000000 0.272980
      vertex 1.095423 -1.000000 0.218913
    endloop
  endfacet
  facet normal 0.433884 -0.000000 -0.900969
    outer loop
      vertex 1.095423 -1.000000 0.218913
      vertex 1.207694 -1.000000 0.272980
      vertex 1.207694 -11.500000 0.272980
    endloop
  endfacet
  facet normal 0.433884 -0.000000 -0.900969
    outer loop
      vertex 1.095423 -1.000000 0.218913
      vertex 1.207694 -11.500000 0.272980
      vertex 1.095423 -11.500000 0.218913
    endloop
  endfacet
  facet normal 0.000000 1.000000 0.000000
    outer loop
      vertex 1.270000 -11.500000 0.000000
      vertex 1.207694 -11.500000 0.272980
      vertex 1.332306 -11.500000 0.272980
    endloop
  endfacet
  facet normal 0.000000 -1.000000 0.000000
    outer loop
      vertex 1.270000 -1.000000 -0.000000
      vertex 1.332306 -1.000000 0.272980
      vertex 1.207694 -1.000000 0.272980
    endloop
  endfacet
  facet normal 0.000000 -0.000000 -1.000000
    outer loop
      vertex 1.207694 -1.000000 0.272980
      vertex 1.332306 -1.000000 0.272980
      vertex 1.332306 -11.500000 0.272980
    endloop
  endfacet
  facet normal 0.000000 -0.000000 -1.000000
    outer loop
      vertex 1.207694 -1.000000 0.272980
      vertex 1.332306 -11.500000 0.272980
      vertex 1.207694 -11.500000 0.272980
    endloop
  endfacet
  facet normal 0.000000 1.000000 0.000000
    outer loop
      vertex 1.270000 -11.500000 0.000000
      vertex 1.332306 -11.500000 0.272980
      vertex 1.444577 -11.500000 0.218913
    endloop
  endfacet
  facet normal 0.000000 -1.000000 0.000000
    outer loop
      vertex 1.270000 -1.000000 -0.000000
      vertex 1.444577 -1.000000 0.218913
      vertex 1.332306 -1.000000 0.272980
    endloop
  endfacet
  facet normal -0.433884 -0.000000 -0.900969
    outer loop
      vertex 1.332306 -1.000000 0.272980
      vertex 1.444577 -1.000000 0.218913
      vertex 1.444577 -11.500000 0.218913
    endloop
  endfacet
  facet normal -0.433884 -0.000000 -0.900969
    outer loop
      vertex 1.332306 -1.000000 0.272980
      vertex 1.444577 -11.500000 0.218913
      vertex 1.332306 -11.500000 0.272980
    endloop
  endfacet
  facet normal 0.000000 1.000000 0.000000
    outer loop
      vertex 1.270000 -11.500000 0.000000
      vertex 1.444577 -11.500000 0.218913
      vertex 1.522271 -11.500000 0.121487
    endloop
  endfacet
  facet normal 0.000000 -1.000000 0.000000
    outer loop
      vertex 1.270000 -1.000000 -0.000000
      vertex 1.522271 -1.000000 0.121487
      vertex 1.444577 -1.000000 0.218913
    endloop
  endfacet
  facet normal -0.781831 -0.000000 -0.623490
    outer loop
      vertex 1.444577 -1.000000 0.218913
      vertex 1.522271 -1.000000 0.121487
      vertex 1.522271 -11.500000 0.121487
    endloop
  endfacet
  facet normal -0.781831 -0.000000 -0.623490
    outer loop
      vertex 1.444577 -1.000000 0.218913
      vertex 1.522271 -11.500000 0.121487
      vertex 1.444577 -11.500000 0.218913
    endloop
  endfacet
  facet normal 0.000000 1.000000 0.000000
    outer loop
      vertex 1.270000 -11.500000 0.000000
      vertex 1.522271 -11.500000 0.121487
      vertex 1.550000 -11.500000 0.000000
    endloop
  endfacet
  facet normal 0.000000 -1.000000 0.000000
    outer loop
      vertex 1.270000 -1.000000 -0.000000
      vertex 1.550000 -1.000000 -0.000000
      vertex 1.522271 -1.000000 0.121487
    endloop
  endfacet
  facet normal -0.974928 -0.000000 -0.222521
    outer loop
      vertex 1.522271 -1.000000 0.121487
      vertex 1.550000 -1.000000 -0.000000
      vertex 1.550000 -11.500000 0.000000
    endloop
  endfacet
  facet normal -0.974928 -0.000000 -0.222521
    outer loop
      vertex 1.522271 -1.000000 0.121487
      vertex 1.550000 -11.500000 0.000000
      vertex 1.522271 -11.500000 0.121487
    endloop
  endfacet
  facet normal 0.000000 -1.000000 0.000000
    outer loop
      vertex 0.000000 0.800000 0.000000
      vertex 2.500000 0.800000 0.000000
      vertex 2.414815 0.800000 0.647048
    endloop
  endfacet
  facet normal 0.000000 1.000000 0.000000
    outer loop
      vertex 0.000000 -0.800000 0.000000
      vertex 2.414815 -0.800000 0.647048
      vertex 2.500000 -0.800000 0.000000
    endloop
  endfacet
  facet normal -0.991445 0.000000 -0.130526
    outer loop
      vertex 2.500000 -0.800000 0.000000
      vertex 2.414815 -0.800000 0.647048
      vertex 2.414815 0.800000 0.647048
    endloop
  endfacet
  facet normal -0.991445 0.000000 -0.130526
    outer loop
      vertex 2.500000 -0.800000 0.000000
      vertex 2.414815 0.800000 0.647048
      vertex 2.500000 0.800000 0.000000
    endloop
  endfacet
  facet normal 0.000000 -1.000000 0.000000
    outer loop
      vertex 0.000000 0.800000 0.000000
      vertex 2.414815 0.800000 0.647048
      vertex 2.165064 0.800000 1.250000
    endloop
  endfacet
  facet normal 0.000000 1.000000 0.000000
    outer loop
      vertex 0.000000 -0.800000 0.000000
      vertex 2.165064 -0.800000 1.250000
      vertex 2.414815 -0.800000 0.647048
    endloop
  endfacet
  facet normal -0.923880 0.000000 -0.382683
    outer loop
      vertex 2.414815 -0.800000 0.647048
      vertex 2.165064 -0.800000 1.250000
      vertex 2.165064 0.800000 1.250000
    endloop
  endfacet
  facet normal -0.923880 0.000000 -0.382683
    outer loop
      vertex 2.414815 -0.800000 0.647048
      vertex 2.165064 0.800000 1.250000
      vertex 2.414815 0.800000 0.647048
    endloop
  endfacet
  facet normal 0.000000 -1.000000 0.000000
    outer loop
      vertex 0.000000 0.800000 0.000000
      vertex 2.165064 0.800000 1.250000
      vertex 1.767767 0.800000 1.767767
    endloop
  endfacet
  facet normal 0.000000 1.000000 0.000000
    outer loop
      vertex 0.000000 -0.800000 0.000000
      vertex 1.767767 -0.800000 1.767767
      vertex 2.165064 -0.800000 1.250000
    endloop
  endfacet
  facet normal -0.793353 0.000000 -0.608761
    outer loop
      vertex 2.165064 -0.800000 1.250000
      vertex 1.767767 -0.800000 1.767767
      vertex 1.767767 0.800000 1.767767
    endloop
  endfacet
  facet normal -0.793353 0.000000 -0.608761
    outer loop
      vertex 2.165064 -0.800000 1.250000
      vertex 1.767767 0.800000 1.767767
      vertex 2.165064 0.800000 1.250000
    endloop
  endfacet
  facet normal 0.000000 -1.000000 0.000000
    outer loop
      vertex 0.000000 0.800000 0.000000
      vertex 1.767767 0.800000 1.767767
      vertex 1.250000 0.800000 2.165064
    endloop
  endfacet
  facet normal 0.000000 1.000000 0.000000
    outer loop
      vertex 0.000000 -0.800000 0.000000
      vertex 1.250000 -0.800000 2.165064
      vertex 1.767767 -0.800000 1.767767
    endloop
  endfacet
  facet normal -0.608761 0.000000 -0.793353
    outer loop
      vertex 1.767767 -0.800000 1.767767
      vertex 1.250000 -0.800000 2.165064
      vertex 1.250000 0.800000 2.165064
    endloop
  endfacet
  facet normal -0.608761 0.000000 -0.793353
    outer loop
      vertex 1.767767 -0.800000 1.767767
      vertex 1.250000 0.800000 2.165064
      vertex 1.767767 0.800000 1.767767
    endloop
  endfacet
  facet normal 0.000000 -1.000000 0.000000
    outer loop
      vertex 0.000000 0.800000 0.000000
      vertex 1.250000 0.800000 2.165064
      vertex 0.647048 0.800000 2.414815
    endloop
  endfacet
  facet normal 0.000000 1.000000 0.000000
    outer loop
      vertex 0.000000 -0.800000 0.000000
      vertex 0.647048 -0.800000 2.414815
      vertex 1.250000 -0.800000 2.165064
    endloop
  endfacet
  facet normal -0.382683 0.000000 -0.923880
    outer loop
      vertex 1.250000 -0.800000 2.165064
      vertex 0.647048 -0.800000 2.414815
      vertex 0.647048 0.800000 2.414815
    endloop
  endfacet
  facet normal -0.382683 0.000000 -0.923880
    outer loop
      vertex 1.250000 -0.800000 2.165064
      vertex 0.647048 0.800000 2.414815
      vertex 1.250000 0.800000 2.165064
    endloop
  endfacet
  facet normal 0.000000 -1.000000 0.000000
    outer loop
      vertex 0.000000 0.800000 0.000000
      vertex 0.647048 0.800000 2.414815
      vertex 0.000000 0.800000 2.500000
    endloop
  endfacet
  facet normal 0.000000 1.000000 0.000000
    outer loop
      vertex 0.000000 -0.800000 0.000000
      vertex 0.000000 -0.800000 2.500000
      vertex 0.647048 -0.800000 2.414815
    endloop
  endfacet
  facet normal -0.130526 0.000000 -0.991445
    outer loop
      vertex 0.647048 -0.800000 2.414815
      vertex 0.000000 -0.800000 2.500000
      vertex 0.000000 0.800000 2.500000
    endloop
  endfacet
  facet normal -0.130526 0.000000 -0.991445
    outer loop
      vertex 0.647048 -0.800000 2.414815
      vertex 0.000000 0.800000 2.500000
      vertex 0.647048 0.800000 2.414815
    endloop
  endfacet
  facet normal 0.000000 -1.000000 0.000000
    outer loop
      vertex 0.000000 0.800000 0.000000
      vertex 0.000000 0.800000 2.500000
      vertex -0.647048 0.800000 2.414815
    endloop
  endfacet
  facet normal 0.000000 1.000000 0.000000
    outer loop
      vertex 0.000000 -0.800000 0.000000
      vertex -0.647048 -0.800000 2.414815
      vertex 0.000000 -0.800000 2.500000
    endloop
  endfacet
  facet normal 0.130526 0.000000 -0.991445
    outer loop
      vertex 0.000000 -0.800000 2.500000
      vertex -0.647048 -0.800000 2.414815
      vertex -0.647048 0.800000 2.414815
    endloop
  endfacet
  facet normal 0.130526 0.000000 -0.991445
    outer loop
      vertex 0.000000 -0.800000 2.500000
      vertex -0.647048 0.800000 2.414815
      vertex 0.000000 0.800000 2.500000
    endloop
  endfacet
  facet normal 0.000000 -1.000000 0.000000
    outer loop
      vertex 0.000000 0.800000 0.000000
      vertex -0.647048 0.800000 2.414815
      vertex -1.250000 0.800000 2.165064
    endloop
  endfacet
  facet normal 0.000000 1.000000 0.000000
    outer loop
      vertex 0.000000 -0.800000 0.000000
      vertex -1.250000 -0.800000 2.165064
      vertex -0.647048 -0.800000 2.414815
    endloop
  endfacet
  facet normal 0.382683 0.000000 -0.923880
    outer loop
      vertex -0.647048 -0.800000 2.414815
      vertex -1.250000 -0.800000 2.165064
      vertex -1.250000 0.800000 2.165064
    endloop
  endfacet
  facet normal 0.382683 0.000000 -0.923880
    outer loop
      vertex -0.647048 -0.800000 2.414815
      vertex -1.250000 0.800000 2.165064
      vertex -0.647048 0.800000 2.414815
    endloop
  endfacet
  facet normal 0.000000 -1.000000 0.000000
    outer loop
      vertex 0.000000 0.800000 0.000000
      vertex -1.250000 0.800000 2.165064
      vertex -1.767767 0.800000 1.767767
    endloop
  endfacet
  facet normal 0.000000 1.000000 0.000000
    outer loop
      vertex 0.000000 -0.800000 0.000000
      vertex -1.767767 -0.800000 1.767767
      vertex -1.250000 -0.800000 2.165064
    endloop
  endfacet
  facet normal 0.608761 0.000000 -0.793353
    outer loop
      vertex -1.250000 -0.800000 2.165064
      vertex -1.767767 -0.800000 1.767767
      vertex -1.767767 0.800000 1.767767
    endloop
  endfacet
  facet normal 0.608761 0.000000 -0.793353
    outer loop
      vertex -1.250000 -0.800000 2.165064
      vertex -1.767767 0.800000 1.767767
      vertex -1.250000 0.800000 2.165064
    endloop
  endfacet
  facet normal 0.000000 -1.000000 0.000000
    outer loop
      vertex 0.000000 0.800000 0.000000
      vertex -1.767767 0.800000 1.767767
      vertex -2.165064 0.800000 1.250000
    endloop
  endfacet
  facet normal 0.000000 1.000000 0.000000
    outer loop
      vertex 0.000000 -0.800000 0.000000
      vertex -2.165064 -0.800000 1.250000
      vertex -1.767767 -0.800000 1.767767
    endloop
  endfacet
  facet normal 0.793353 0.000000 -0.608761
    outer loop
      vertex -1.767767 -0.800000 1.767767
      vertex -2.165064 -0.800000 1.250000
      vertex -2.165064 0.800000 1.250000
    endloop
  endfacet
  facet normal 0.793353 0.000000 -0.608761
    outer loop
      vertex -1.767767 -0.800000 1.767767
      vertex -2.165064 0.800000 1.250000
      vertex -1.767767 0.800000 1.767767
    endloop
  endfacet
  facet normal 0.000000 -1.000000 0.000000
    outer loop
      vertex 0.000000 0.800000 0.000000
      vertex -2.165064 0.800000 1.250000
      vertex -2.414815 0.800000 0.647048
    endloop
  endfacet
  facet normal 0.000000 1.000000 0.000000
    outer loop
      vertex 0.000000 -0.800000 0.000000
      vertex -2.414815 -0.800000 0.647048
      vertex -2.165064 -0.800000 1.250000
    endloop
  endfacet
  facet normal 0.923880 0.000000 -0.382683
    outer loop
      vertex -2.165064 -0.800000 1.250000
      vertex -2.414815 -0.800000 0.647048
      vertex -2.414815 0.800000 0.647048
    endloop
  endfacet
  facet normal 0.923880 0.000000 -0.382683
    outer loop
      vertex -2.165064 -0.800000 1.250000
      vertex -2.414815 0.800000 0.647048
      vertex -2.165064 0.800000 1.250000
    endloop
  endfacet
  facet normal 0.000000 -1.000000 0.000000
    outer loop
      vertex 0.000000 0.800000 0.000000
      vertex -2.414815 0.800000 0.647048
      vertex -2.500000 0.800000 0.000000
    endloop
  endfacet
  facet normal 0.000000 1.000000 0.000000
    outer loop
      vertex 0.000000 -0.800000 0.000000
      vertex -2.500000 -0.800000 0.000000
      vertex -2.414815 -0.800000 0.647048
    endloop
  endfacet
  facet normal 0.991445 0.000000 -0.130526
    outer loop
      vertex -2.414815 -0.800000 0.647048
      vertex -2.500000 -0.800000 0.000000
      vertex -2.500000 0.800000 0.000000
    endloop
  endfacet
  facet normal 0.991445 0.000000 -0.130526
    outer loop
      vertex -2.414815 -0.800000 0.647048
      vertex -2.500000 0.800000 0.000000
      vertex -2.414815 0.800000 0.647048
    endloop
  endfacet
  facet normal 0.000000 -1.000000 0.000000
    outer loop
      vertex 0.000000 0.800000 0.000000
      vertex -2.500000 0.800000 0.000000
      vertex -2.414815 0.800000 -0.647048
    endloop
  endfacet
  facet normal 0.000000 1.000000 0.000000
    outer loop
      vertex 0.000000 -0.800000 0.000000
      vertex -2.414815 -0.800000 -0.647048
      vertex -2.500000 -0.800000 0.000000
    endloop
  endfacet
  facet normal 0.991445 0.000000 0.130526
    outer loop
      vertex -2.500000 -0.800000 0.000000
      vertex -2.414815 -0.800000 -0.647048
      vertex -2.414815 0.800000 -0.647048
    endloop
  endfacet
  facet normal 0.991445 0.000000 0.130526
    outer loop
      vertex -2.500000 -0.800000 0.000000
      vertex -2.414815 0.800000 -0.647048
      vertex -2.500000 0.800000 0.000000
    endloop
  endfacet
  facet normal 0.000000 -1.000000 0.000000
    outer loop
      vertex 0.000000 0.800000 0.000000
      vertex -2.414815 0.800000 -0.647048
      vertex -2.165064 0.800000 -1.250000
    endloop
  endfacet
  facet normal 0.000000 1.000000 0.000000
    outer loop
      vertex 0.000000 -0.800000 0.000000
      vertex -2.165064 -0.800000 -1.250000
      vertex -2.414815 -0.800000 -0.647048
    endloop
  endfacet
  facet normal 0.923880 0.000000 0.382683
    outer loop
      vertex -2.414815 -0.800000 -0.647048
      vertex -2.165064 -0.800000 -1.250000
      vertex -2.165064 0.800000 -1.250000
    endloop
  endfacet
  facet normal 0.923880 0.000000 0.382683
    outer loop
      vertex -2.414815 -0.800000 -0.647048
      vertex -2.165064 0.800000 -1.250000
      vertex -2.414815 0.800000 -0.647048
    endloop
  endfacet
  facet normal 0.000000 -1.000000 0.000000
    outer loop
      vertex 0.000000 0.800000 0.000000
      vertex -2.165064 0.800000 -1.250000
      vertex -1.767767 0.800000 -1.767767
    endloop
  endfacet
  facet normal 0.000000 1.000000 0.000000
    outer loop
      vertex 0.000000 -0.800000 0.000000
      vertex -1.767767 -0.800000 -1.767767
      vertex -2.165064 -0.800000 -1.250000
    endloop
  endfacet
  facet normal 0.793353 0.000000 0.608761
    outer loop
      vertex -2.165064 -0.800000 -1.250000
      vertex -1.767767 -0.800000 -1.767767
      vertex -1.767767 0.800000 -1.767767
    endloop
  endfacet
  facet normal 0.793353 0.000000 0.608761
    outer loop
      vertex -2.165064 -0.800000 -1.250000
      vertex -1.767767 0.800000 -1.767767
      vertex -2.165064 0.800000 -1.250000
    endloop
  endfacet
  facet normal 0.000000 -1.000000 0.000000
    outer loop
      vertex 0.000000 0.800000 0.000000
      vertex -1.767767 0.800000 -1.767767
      vertex -1.250000 0.800000 -2.165064
    endloop
  endfacet
  facet normal 0.000000 1.000000 0.000000
    outer loop
      vertex 0.000000 -0.800000 0.000000
      vertex -1.250000 -0.800000 -2.165064
      vertex -1.767767 -0.800000 -1.767767
    endloop
  endfacet
  facet normal 0.608761 0.000000 0.793353
    outer loop
      vertex -1.767767 -0.800000 -1.767767
      vertex -1.250000 -0.800000 -2.165064
      vertex -1.250000 0.800000 -2.165064
    endloop
  endfacet
  facet normal 0.608761 0.000000 0.793353
    outer loop
      vertex -1.767767 -0.800000 -1.767767
      vertex -1.250000 0.800000 -2.165064
      vertex -1.767767 0.800000 -1.767767
    endloop
  endfacet
  facet normal 0.000000 -1.000000 0.000000
    outer loop
      vertex 0.000000 0.800000 0.000000
      vertex -1.250000 0.800000 -2.165064
      vertex -0.647048 0.800000 -2.414815
    endloop
  endfacet
  facet normal 0.000000 1.000000 0.000000
    outer loop
      vertex 0.000000 -0.800000 0.000000
      vertex -0.647048 -0.800000 -2.414815
      vertex -1.250000 -0.800000 -2.165064
    endloop
  endfacet
  facet normal 0.382683 0.000000 0.923880
    outer loop
      vertex -1.250000 -0.800000 -2.165064
      vertex -0.647048 -0.800000 -2.414815
      vertex -0.647048 0.800000 -2.414815
    endloop
  endfacet
  facet normal 0.382683 0.000000 0.923880
    outer loop
      vertex -1.250000 -0.800000 -2.165064
      vertex -0.647048 0.800000 -2.414815
      vertex -1.250000 0.800000 -2.165064
    endloop
  endfacet
  facet normal 0.000000 -1.000000 0.000000
    outer loop
      vertex 0.000000 0.800000 0.000000
      vertex -0.647048 0.800000 -2.414815
      vertex -0.000000 0.800000 -2.500000
    endloop
  endfacet
  facet normal 0.000000 1.000000 0.000000
    outer loop
      vertex 0.000000 -0.800000 0.000000
      vertex -0.000000 -0.800000 -2.500000
      vertex -0.647048 -0.800000 -2.414815
    endloop
  endfacet
  facet normal 0.130526 0.000000 0.991445
    outer loop
      vertex -0.647048 -0.800000 -2.414815
      vertex -0.000000 -0.800000 -2.500000
      vertex -0.000000 0.800000 -2.500000
    endloop
  endfacet
  facet normal 0.130526 0.000000 0.991445
    outer loop
      vertex -0.647048 -0.800000 -2.414815
      vertex -0.000000 0.800000 -2.500000
      vertex -0.647048 0.800000 -2.414815
    endloop
  endfacet
  facet normal 0.000000 -1.000000 0.000000
    outer loop
      vertex 0.000000 0.800000 0.000000
      vertex -0.000000 0.800000 -2.500000
      vertex 0.647048 0.800000 -2.414815
    endloop
  endfacet
  facet normal 0.000000 1.000000 0.000000
    outer loop
      vertex 0.000000 -0.800000 0.000000
      vertex 0.647048 -0.800000 -2.414815
      vertex -0.000000 -0.800000 -2.500000
    endloop
  endfacet
  facet normal -0.130526 0.000000 0.991445
    outer loop
      vertex -0.000000 -0.800000 -2.500000
      vertex 0.647048 -0.800000 -2.414815
      vertex 0.647048 0.800000 -2.414815
    endloop
  endfacet
  facet normal -0.130526 0.000000 0.991445
    outer loop
      vertex -0.000000 -0.800000 -2.500000
      vertex 0.647048 0.800000 -2.414815
      vertex -0.000000 0.800000 -2.500000
    endloop
  endfacet
  facet normal 0.000000 -1.000000 0.000000
    outer loop
      vertex 0.000000 0.800000 0.000000
      vertex 0.647048 0.800000 -2.414815
      vertex 1.250000 0.800000 -2.165064
    endloop
  endfacet
  facet normal 0.000000 1.000000 0.000000
    outer loop
      vertex 0.000000 -0.800000 0.000000
      vertex 1.250000 -0.800000 -2.165064
      vertex 0.647048 -0.800000 -2.414815
    endloop
  endfacet
  facet normal -0.382683 0.000000 0.923880
    outer loop
      vertex 0.647048 -0.800000 -2.414815
      vertex 1.250000 -0.800000 -2.165064
      vertex 1.250000 0.800000 -2.165064
    endloop
  endfacet
  facet normal -0.382683 0.000000 0.923880
    outer loop
      vertex 0.647048 -0.800000 -2.414815
      vertex 1.250000 0.800000 -2.165064
      vertex 0.647048 0.800000 -2.414815
    endloop
  endfacet
  facet normal 0.000000 -1.000000 0.000000
    outer loop
      vertex 0.000000 0.800000 0.000000
      vertex 1.250000 0.800000 -2.165064
      vertex 1.767767 0.800000 -1.767767
    endloop
  endfacet
  facet normal 0.000000 1.000000 0.000000
    outer loop
      vertex 0.000000 -0.800000 0.000000
      vertex 1.767767 -0.800000 -1.767767
      vertex 1.250000 -0.800000 -2.165064
    endloop
  endfacet
  facet normal -0.608761 0.000000 0.793353
    outer loop
      vertex 1.250000 -0.800000 -2.165064
      vertex 1.767767 -0.800000 -1.767767
      vertex 1.767767 0.800000 -1.767767
    endloop
  endfacet
  facet normal -0.608761 0.000000 0.793353
    outer loop
      vertex 1.250000 -0.800000 -2.165064
      vertex 1.767767 0.800000 -1.767767
      vertex 1.250000 0.800000 -2.165064
    endloop
  endfacet
  facet normal 0.000000 -1.000000 0.000000
    outer loop
      vertex 0.000000 0.800000 0.000000
      vertex 1.767767 0.800000 -1.767767
      vertex 2.165064 0.800000 -1.250000
    endloop
  endfacet
  facet normal 0.000000 1.000000 0.000000
    outer loop
      vertex 0.000000 -0.800000 0.000000
      vertex 2.165064 -0.800000 -1.250000
      vertex 1.767767 -0.800000 -1.767767
    endloop
  endfacet
  facet normal -0.793353 0.000000 0.608761
    outer loop
      vertex 1.767767 -0.800000 -1.767767
      vertex 2.165064 -0.800000 -1.250000
      vertex 2.165064 0.800000 -1.250000
    endloop
  endfacet
  facet normal -0.793353 0.000000 0.608761
    outer loop
      vertex 1.767767 -0.800000 -1.767767
      vertex 2.165064 0.800000 -1.250000
      vertex 1.767767 0.800000 -1.767767
    endloop
  endfacet
  facet normal 0.000000 -1.000000 0.000000
    outer loop
      vertex 0.000000 0.800000 0.000000
      vertex 2.165064 0.800000 -1.250000
      vertex 2.414815 0.800000 -0.647048
    endloop
  endfacet
  facet normal 0.000000 1.000000 0.000000
    outer loop
      vertex 0.000000 -0.800000 0.000000
      vertex 2.414815 -0.800000 -0.647048
      vertex 2.165064 -0.800000 -1.250000
    endloop
  endfacet
  facet normal -0.923880 0.000000 0.382683
    outer loop
      vertex 2.165064 -0.800000 -1.250000
      vertex 2.414815 -0.800000 -0.647048
      vertex 2.414815 0.800000 -0.647048
    endloop
  endfacet
  facet normal -0.923880 0.000000 0.382683
    outer loop
      vertex 2.165064 -0.800000 -1.250000
      vertex 2.414815 0.800000 -0.647048
      vertex 2.165064 0.800000 -1.250000
    endloop
  endfacet
  facet normal 0.000000 -1.000000 0.000000
    outer loop
      vertex 0.000000 0.800000 0.000000
      vertex 2.414815 0.800000 -0.647048
      vertex 2.500000 0.800000 0.000000
    endloop
  endfacet
  facet normal 0.000000 1.000000 0.000000
    outer loop
      vertex 0.000000 -0.800000 0.000000
      vertex 2.500000 -0.800000 0.000000
      vertex 2.414815 -0.800000 -0.647048
    endloop
  endfacet
  facet normal -0.991445 0.000000 0.130526
    outer loop
      vertex 2.414815 -0.800000 -0.647048
      vertex 2.500000 -0.800000 0.000000
      vertex 2.500000 0.800000 0.000000
    endloop
  endfacet
  facet normal -0.991445 0.000000 0.130526
    outer loop
      vertex 2.414815 -0.800000 -0.647048
      vertex 2.500000 0.800000 0.000000
      vertex 2.414815 0.800000 -0.647048
    endloop
  endfacet
  facet normal 0.000000 -1.000000 0.000000
    outer loop
      vertex -1.600000 0.950000 -0.275000
      vertex 1.600000 0.950000 -0.275000
      vertex 1.600000 0.950000 0.275000
    endloop
  endfacet
  facet normal 0.000000 -1.000000 0.000000
    outer loop
      vertex -1.600000 0.950000 -0.275000
      vertex 1.600000 0.950000 0.275000
      vertex -1.600000 0.950000 0.275000
    endloop
  endfacet
  facet normal 0.000000 1.000000 0.000000
    outer loop
      vertex -1.600000 0.770000 0.275000
      vertex 1.600000 0.770000 0.275000
      vertex 1.600000 0.770000 -0.275000
    endloop
  endfacet
  facet normal 0.000000 1.000000 0.000000
    outer loop
      vertex -1.600000 0.770000 0.275000
      vertex 1.600000 0.770000 -0.275000
      vertex -1.600000 0.770000 -0.275000
    endloop
  endfacet
  facet normal 0.000000 0.000000 -1.000000
    outer loop
      vertex -1.600000 0.950000 0.275000
      vertex 1.600000 0.950000 0.275000
      vertex 1.600000 0.770000 0.275000
    endloop
  endfacet
  facet normal 0.000000 0.000000 -1.000000
    outer loop
      vertex -1.600000 0.950000 0.275000
      vertex 1.600000 0.770000 0.275000
      vertex -1.600000 0.770000 0.275000
    endloop
  endfacet
  facet normal 0.000000 0.000000 1.000000
    outer loop
      vertex 1.600000 0.770000 -0.275000
      vertex 1.600000 0.950000 -0.275000
      vertex -1.600000 0.950000 -0.275000
    endloop
  endfacet
  facet normal 0.000000 0.000000 1.000000
    outer loop
      vertex 1.600000 0.770000 -0.275000
      vertex -1.600000 0.950000 -0.275000
      vertex -1.600000 0.770000 -0.275000
    endloop
  endfacet
  facet normal -1.000000 0.000000 0.000000
    outer loop
      vertex 1.600000 0.770000 0.275000
      vertex 1.600000 0.950000 0.275000
      vertex 1.600000 0.950000 -0.275000
    endloop
  endfacet
  facet normal -1.000000 0.000000 0.000000
    outer loop
      vertex 1.600000 0.770000 0.275000
      vertex 1.600000 0.950000 -0.275000
      vertex 1.600000 0.770000 -0.275000
    endloop
  endfacet
  facet normal 1.000000 0.000000 0.000000
    outer loop
      vertex -1.600000 0.770000 -0.275000
      vertex -1.600000 0.950000 -0.275000
      vertex -1.600000 0.950000 0.275000
    endloop
  endfacet
  facet normal 1.000000 0.000000 0.000000
    outer loop
      vertex -1.600000 0.770000 -0.275000
      vertex -1.600000 0.950000 0.275000
      vertex -1.600000 0.770000 0.275000
    endloop
  endfacet
endsolid ldr_photoresistor