solid bh1750_light_sensor
  facet normal 0.000000 -1.000000 0.000000
    outer loop
      vertex -10.500000 1.600000 -8.000000
      vertex 10.500000 1.600000 -8.000000
      vertex 10.500000 1.600000 8.000000
    endloop
  endfacet
  facet normal 0.000000 -1.000000 0.000000
    outer loop
      vertex -10.500000 1.600000 -8.000000
      vertex 10.500000 1.600000 8.000000
      vertex -10.500000 1.600000 8.000000
    endloop
  endfacet
  facet normal 0.000000 1.000000 0.000000
    outer loop
      vertex -10.500000 0.000000 8.000000
      vertex 10.500000 0.000000 8.000000
      vertex 10.500000 0.000000 -8.000000
    endloop
  endfacet
  facet normal 0.000000 1.000000 0.000000
    outer loop
      vertex -10.500000 0.000000 8.000000
      vertex 10.500000 0.000000 -8.000000
      vertex -10.500000 0.000000 -8.000000
    endloop
  endfacet
  facet normal 0.000000 0.000000 -1.000000
    outer loop
      vertex -10.500000 1.600000 8.000000
      vertex 10.500000 1.600000 8.000000
      vertex 10.500000 0.000000 8.000000
    endloop
  endfacet
  facet normal 0.000000 0.000000 -1.000000
    outer loop
      vertex -10.500000 1.600000 8.000000
      vertex 10.500000 0.000000 8.000000
      vertex -10.500000 0.000000 8.000000
    endloop
  endfacet
  facet normal 0.000000 0.000000 1.000000
    outer loop
      vertex 10.500000 0.000000 -8.000000
      vertex 10.500000 1.600000 -8.000000
      vertex -10.500000 1.600000 -8.000000
    endloop
  endfacet
  facet normal 0.000000 0.000000 1.000000
    outer loop
      vertex 10.500000 0.000000 -8.000000
      vertex -10.500000 1.600000 -8.000000
      vertex -10.500000 0.000000 -8.000000
    endloop
  endfacet
  facet normal -1.000000 0.000000 0.000000
    outer loop
      vertex 10.500000 0.000000 8.000000
      vertex 10.500000 1.600000 8.000000
      vertex 10.500000 1.600000 -8.000000
    endloop
  endfacet
  facet normal -1.000000 0.000000 0.000000
    outer loop
      vertex 10.500000 0.000000 8.000000
      vertex 10.500000 1.600000 -8.000000
      vertex 10.500000 0.000000 -8.000000
    endloop
  endfacet
  facet normal 1.000000 0.000000 0.000000
    outer loop
      vertex -10.500000 0.000000 -8.000000
      vertex -10.500000 1.600000 -8.000000
      vertex -10.500000 1.600000 8.000000
    endloop
  endfacet
  facet normal 1.000000 0.000000 0.000000
    outer loop
      vertex -10.500000 0.000000 -8.000000
      vertex -10.500000 1.600000 8.000000
      vertex -10.500000 0.000000 8.000000
    endloop
  endfacet
  facet normal 0.000000 -1.000000 0.000000
    outer loop
      vertex -6.180000 7.225000 -6.560000
      vertex -3.980000 7.225000 -6.560000
      vertex -3.980000 7.225000 -4.360000
    endloop
  endfacet
  facet normal 0.000000 -1.000000 0.000000
    outer loop
      vertex -6.180000 7.225000 -6.560000
      vertex -3.980000 7.225000 -4.360000
      vertex -6.180000 7.225000 -4.360000
    endloop
  endfacet
  facet normal 0.000000 1.000000 0.000000
    outer loop
      vertex -6.180000 5.675000 -4.360000
      vertex -3.980000 5.675000 -4.360000
      vertex -3.980000 5.675000 -6.560000
    endloop
  endfacet
  facet normal 0.000000 1.000000 0.000000
    outer loop
      vertex -6.180000 5.675000 -4.360000
      vertex -3.980000 5.675000 -6.560000
      vertex -6.180000 5.675000 -6.560000
    endloop
  endfacet
  facet normal 0.000000 0.000000 -1.000000
    outer loop
      vertex -6.180000 7.225000 -4.360000
      vertex -3.980000 7.225000 -4.360000
      vertex -3.980000 5.675000 -4.360000
    endloop
  endfacet
  facet normal 0.000000 0.000000 -1.000000
    outer loop
      vertex -6.180000 7.225000 -4.360000
      vertex -3.980000 5.675000 -4.360000
      vertex -6.180000 5.675000 -4.360000
    endloop
  endfacet
  facet normal 0.000000 0.000000 1.000000
    outer loop
      vertex -3.980000 5.675000 -6.560000
      vertex -3.980000 7.225000 -6.560000
      vertex -6.180000 7.225000 -6.560000
    endloop
  endfacet
  facet normal 0.000000 0.000000 1.000000
    outer loop
      vertex -3.980000 5.675000 -6.560000
      vertex -6.180000 7.225000 -6.560000
      vertex -6.180000 5.675000 -6.560000
    endloop
  endfacet
  facet normal -1.000000 0.000000 0.000000
    outer loop
      vertex -3.980000 5.675000 -4.360000
      vertex -3.980000 7.225000 -4.360000
      vertex -3.980000 7.225000 -6.560000
    endloop
  endfacet
  facet normal -1.000000 0.000000 0.000000
    outer loop
      vertex -3.980000 5.675000 -4.360000
      vertex -3.980000 7.225000 -6.560000
      vertex -3.980000 5.675000 -6.560000
    endloop
  endfacet
  facet normal 1.000000 0.000000 0.000000
    outer loop
      vertex -6.180000 5.675000 -6.560000
      vertex -6.180000 7.225000 -6.560000
      vertex -6.180000 7.225000 -4.360000
    endloop
  endfacet
  facet normal 1.000000 0.000000 0.000000
    outer loop
      vertex -6.180000 5.675000 -6.560000
      vertex -6.180000 7.225000 -4.360000
      vertex -6.180000 5.675000 -4.360000
    endloop
  endfacet
  facet normal 0.000000 -1.000000 0.000000
    outer loop
      vertex -5.410000 11.200000 -5.790000
      vertex -4.750000 11.200000 -5.790000
      vertex -4.750000 11.200000 -5.130000
    endloop
  endfacet
  facet normal 0.000000 -1.000000 0.000000
    outer loop
      vertex -5.410000 11.200000 -5.790000
      vertex -4.750000 11.200000 -5.130000
      vertex -5.410000 11.200000 -5.130000
    endloop
  endfacet
  facet normal 0.000000 1.000000 0.000000
    outer loop
      vertex -5.410000 6.000000 -5.130000
      vertex -4.750000 6.000000 -5.130000
      vertex -4.750000 6.000000 -5.790000
    endloop
  endfacet
  facet normal 0.000000 1.000000 0.000000
    outer loop
      vertex -5.410000 6.000000 -5.130000
      vertex -4.750000 6.000000 -5.790000
      vertex -5.410000 6.000000 -5.790000
    endloop
  endfacet
  facet normal 0.000000 0.000000 -1.000000
    outer loop
      vertex -5.410000 11.200000 -5.130000
      vertex -4.750000 11.200000 -5.130000
      vertex -4.750000 6.000000 -5.130000
    endloop
  endfacet
  facet normal 0.000000 0.000000 -1.000000
    outer loop
      vertex -5.410000 11.200000 -5.130000
      vertex -4.750000 6.000000 -5.130000
      vertex -5.410000 6.000000 -5.130000
    endloop
  endfacet
  facet normal 0.000000 0.000000 1.000000
    outer loop
      vertex -4.750000 6.000000 -5.790000
      vertex -4.750000 11.200000 -5.790000
      vertex -5.410000 11.200000 -5.790000
    endloop
  endfacet
  facet normal 0.000000 0.000000 1.000000
    outer loop
      vertex -4.750000 6.000000 -5.790000
      vertex -5.410000 11.200000 -5.790000
      vertex -5.410000 6.000000 -5.790000
    endloop
  endfacet
  facet normal -1.000000 0.000000 0.000000
    outer loop
      vertex -4.750000 6.000000 -5.130000
      vertex -4.750000 11.200000 -5.130000
      vertex -4.750000 11.200000 -5.790000
    endloop
  endfacet
  facet normal -1.000000 0.000000 0.000000
    outer loop
      vertex -4.750000 6.000000 -5.130000
      vertex -4.750000 11.200000 -5.790000
      vertex -4.750000 6.000000 -5.790000
    endloop
  endfacet
  facet normal 1.000000 0.000000 0.000000
    outer loop
      vertex -5.410000 6.000000 -5.790000
      vertex -5.410000 11.200000 -5.790000
      vertex -5.410000 11.200000 -5.130000
    endloop
  endfacet
  facet normal 1.000000 0.000000 0.000000
    outer loop
      vertex -5.410000 6.000000 -5.790000
      vertex -5.410000 11.200000 -5.130000
      vertex -5.410000 6.000000 -5.130000
    endloop
  endfacet
  facet normal 0.000000 -1.000000 0.000000
    outer loop
      vertex -3.640000 7.225000 -6.560000
      vertex -1.440000 7.225000 -6.560000
      vertex -1.440000 7.225000 -4.360000
    endloop
  endfacet
  facet normal 0.000000 -1.000000 0.000000
    outer loop
      vertex -3.640000 7.225000 -6.560000
      vertex -1.440000 7.225000 -4.360000
      vertex -3.640000 7.225000 -4.360000
    endloop
  endfacet
  facet normal 0.000000 1.000000 0.000000
    outer loop
      vertex -3.640000 5.675000 -4.360000
      vertex -1.440000 5.675000 -4.360000
      vertex -1.440000 5.675000 -6.560000
    endloop
  endfacet
  facet normal 0.000000 1.000000 0.000000
    outer loop
      vertex -3.640000 5.675000 -4.360000
      vertex -1.440000 5.675000 -6.560000
      vertex -3.640000 5.675000 -6.560000
    endloop
  endfacet
  facet normal 0.000000 0.000000 -1.000000
    outer loop
      vertex -3.640000 7.225000 -4.360000
      vertex -1.440000 7.225000 -4.360000
      vertex -1.440000 5.675000 -4.360000
    endloop
  endfacet
  facet normal 0.000000 0.000000 -1.000000
    outer loop
      vertex -3.640000 7.225000 -4.360000
      vertex -1.440000 5.675000 -4.360000
      vertex -3.640000 5.675000 -4.360000
    endloop
  endfacet
  facet normal 0.000000 0.000000 1.000000
    outer loop
      vertex -1.440000 5.675000 -6.560000
      vertex -1.440000 7.225000 -6.560000
      vertex -3.640000 7.225000 -6.560000
    endloop
  endfacet
  facet normal 0.000000 0.000000 1.000000
    outer loop
      vertex -1.440000 5.675000 -6.560000
      vertex -3.640000 7.225000 -6.560000
      vertex -3.640000 5.675000 -6.560000
    endloop
  endfacet
  facet normal -1.000000 0.000000 0.000000
    outer loop
      vertex -1.440000 5.675000 -4.360000
      vertex -1.440000 7.225000 -4.360000
      vertex -1.440000 7.225000 -6.560000
    endloop
  endfacet
  facet normal -1.000000 0.000000 0.000000
    outer loop
      vertex -1.440000 5.675000 -4.360000
      vertex -1.440000 7.225000 -6.560000
      vertex -1.440000 5.675000 -6.560000
    endloop
  endfacet
  facet normal 1.000000 0.000000 0.000000
    outer loop
      vertex -3.640000 5.675000 -6.560000
      vertex -3.640000 7.225000 -6.560000
      vertex -3.640000 7.225000 -4.360000
    endloop
  endfacet
  facet normal 1.000000 0.000000 0.000000
    outer loop
      vertex -3.640000 5.675000 -6.560000
      vertex -3.640000 7.225000 -4.360000
      vertex -3.640000 5.675000 -4.360000
    endloop
  endfacet
  facet normal 0.000000 -1.000000 0.000000
    outer loop
      vertex -2.870000 11.200000 -5.790000
      vertex -2.210000 11.200000 -5.790000
      vertex -2.210000 11.200000 -5.130000
    endloop
  endfacet
  facet normal 0.000000 -1.000000 0.000000
    outer loop
      vertex -2.870000 11.200000 -5.790000
      vertex -2.210000 11.200000 -5.130000
      vertex -2.870000 11.200000 -5.130000
    endloop
  endfacet
  facet normal 0.000000 1.000000 0.000000
    outer loop
      vertex -2.870000 6.000000 -5.130000
      vertex -2.210000 6.000000 -5.130000
      vertex -2.210000 6.000000 -5.790000
    endloop
  endfacet
  facet normal 0.000000 1.000000 0.000000
    outer loop
      vertex -2.870000 6.000000 -5.130000
      vertex -2.210000 6.000000 -5.790000
      vertex -2.870000 6.000000 -5.790000
    endloop
  endfacet
  facet normal 0.000000 0.000000 -1.000000
    outer loop
      vertex -2.870000 11.200000 -5.130000
      vertex -2.210000 11.200000 -5.130000
      vertex -2.210000 6.000000 -5.130000
    endloop
  endfacet
  facet normal 0.000000 0.000000 -1.000000
    outer loop
      vertex -2.870000 11.200000 -5.130000
      vertex -2.210000 6.000000 -5.130000
      vertex -2.870000 6.000000 -5.130000
    endloop
  endfacet
  facet normal 0.000000 0.000000 1.000000
    outer loop
      vertex -2.210000 6.000000 -5.790000
      vertex -2.210000 11.200000 -5.790000
      vertex -2.870000 11.200000 -5.790000
    endloop
  endfacet
  facet normal 0.000000 0.000000 1.000000
    outer loop
      vertex -2.210000 6.000000 -5.790000
      vertex -2.870000 11.200000 -5.790000
      vertex -2.870000 6.000000 -5.790000
    endloop
  endfacet
  facet normal -1.000000 0.000000 0.000000
    outer loop
      vertex -2.210000 6.000000 -5.130000
      vertex -2.210000 11.200000 -5.130000
      vertex -2.210000 11.200000 -5.790000
    endloop
  endfacet
  facet normal -1.000000 0.000000 0.000000
    outer loop
      vertex -2.210000 6.000000 -5.130000
      vertex -2.210000 11.200000 -5.790000
      vertex -2.210000 6.000000 -5.790000
    endloop
  endfacet
  facet normal 1.000000 0.000000 0.000000
    outer loop
      vertex -2.870000 6.000000 -5.790000
      vertex -2.870000 11.200000 -5.790000
      vertex -2.870000 11.200000 -5.130000
    endloop
  endfacet
  facet normal 1.000000 0.000000 0.000000
    outer loop
      vertex -2.870000 6.000000 -5.790000
      vertex -2.870000 11.200000 -5.130000
      vertex -2.870000 6.000000 -5.130000
    endloop
  endfacet
  facet normal 0.000000 -1.000000 0.000000
    outer loop
      vertex -1.100000 7.225000 -6.560000
      vertex 1.100000 7.225000 -6.560000
      vertex 1.100000 7.225000 -4.360000
    endloop
  endfacet
  facet normal 0.000000 -1.000000 0.000000
    outer loop
      vertex -1.100000 7.225000 -6.560000
      vertex 1.100000 7.225000 -4.360000
      vertex -1.100000 7.225000 -4.360000
    endloop
  endfacet
  facet normal 0.000000 1.000000 0.000000
    outer loop
      vertex -1.100000 5.675000 -4.360000
      vertex 1.100000 5.675000 -4.360000
      vertex 1.100000 5.675000 -6.560000
    endloop
  endfacet
  facet normal 0.000000 1.000000 0.000000
    outer loop
      vertex -1.100000 5.675000 -4.360000
      vertex 1.100000 5.675000 -6.560000
      vertex -1.100000 5.675000 -6.560000
    endloop
  endfacet
  facet normal 0.000000 0.000000 -1.000000
    outer loop
      vertex -1.100000 7.225000 -4.360000
      vertex 1.100000 7.225000 -4.360000
      vertex 1.100000 5.675000 -4.360000
    endloop
  endfacet
  facet normal 0.000000 0.000000 -1.000000
    outer loop
      vertex -1.100000 7.225000 -4.360000
      vertex 1.100000 5.675000 -4.360000
      vertex -1.100000 5.675000 -4.360000
    endloop
  endfacet
  facet normal 0.000000 0.000000 1.000000
    outer loop
      vertex 1.100000 5.675000 -6.560000
      vertex 1.100000 7.225000 -6.560000
      vertex -1.100000 7.225000 -6.560000
    endloop
  endfacet
  facet normal 0.000000 0.000000 1.000000
    outer loop
      vertex 1.100000 5.675000 -6.560000
      vertex -1.100000 7.225000 -6.560000
      vertex -1.100000 5.675000 -6.560000
    endloop
  endfacet
  facet normal -1.000000 0.000000 0.000000
    outer loop
      vertex 1.100000 5.675000 -4.360000
      vertex 1.100000 7.225000 -4.360000
      vertex 1.100000 7.225000 -6.560000
    endloop
  endfacet
  facet normal -1.000000 0.000000 0.000000
    outer loop
      vertex 1.100000 5.675000 -4.360000
      vertex 1.100000 7.225000 -6.560000
      vertex 1.100000 5.675000 -6.560000
    endloop
  endfacet
  facet normal 1.000000 0.000000 0.000000
    outer loop
      vertex -1.100000 5.675000 -6.560000
      vertex -1.100000 7.225000 -6.560000
      vertex -1.100000 7.225000 -4.360000
    endloop
  endfacet
  facet normal 1.000000 0.000000 0.000000
    outer loop
      vertex -1.100000 5.675000 -6.560000
      vertex -1.100000 7.225000 -4.360000
      vertex -1.100000 5.675000 -4.360000
    endloop
  endfacet
  facet normal 0.000000 -1.000000 0.000000
    outer loop
      vertex -0.330000 11.200000 -5.790000
      vertex 0.330000 11.200000 -5.790000
      vertex 0.330000 11.200000 -5.130000
    endloop
  endfacet
  facet normal 0.000000 -1.000000 0.000000
    outer loop
      vertex -0.330000 11.200000 -5.790000
      vertex 0.330000 11.200000 -5.130000
      vertex -0.330000 11.200000 -5.130000
    endloop
  endfacet
  facet normal 0.000000 1.000000 0.000000
    outer loop
      vertex -0.330000 6.000000 -5.130000
      vertex 0.330000 6.000000 -5.130000
      vertex 0.330000 6.000000 -5.790000
    endloop
  endfacet
  facet normal 0.000000 1.000000 0.000000
    outer loop
      vertex -0.330000 6.000000 -5.130000
      vertex 0.330000 6.000000 -5.790000
      vertex -0.330000 6.000000 -5.790000
    endloop
  endfacet
  facet normal 0.000000 0.000000 -1.000000
    outer loop
      vertex -0.330000 11.200000 -5.130000
      vertex 0.330000 11.200000 -5.130000
      vertex 0.330000 6.000000 -5.130000
    endloop
  endfacet
  facet normal 0.000000 0.000000 -1.000000
    outer loop
      vertex -0.330000 11.200000 -5.130000
      vertex 0.330000 6.000000 -5.130000
      vertex -0.330000 6.000000 -5.130000
    endloop
  endfacet
  facet normal 0.000000 0.000000 1.000000
    outer loop
      vertex 0.330000 6.000000 -5.790000
      vertex 0.330000 11.200000 -5.790000
      vertex -0.330000 11.200000 -5.790000
    endloop
  endfacet
  facet normal 0.000000 0.000000 1.000000
    outer loop
      vertex 0.330000 6.000000 -5.790000
      vertex -0.330000 11.200000 -5.790000
      vertex -0.330000 6.000000 -5.790000
    endloop
  endfacet
  facet normal -1.000000 0.000000 0.000000
    outer loop
      vertex 0.330000 6.000000 -5.130000
      vertex 0.330000 11.200000 -5.130000
      vertex 0.330000 11.200000 -5.790000
    endloop
  endfacet
  facet normal -1.000000 0.000000 0.000000
    outer loop
      vertex 0.330000 6.000000 -5.130000
      vertex 0.330000 11.200000 -5.790000
      vertex 0.330000 6.000000 -5.790000
    endloop
  endfacet
  facet normal 1.000000 0.000000 0.000000
    outer loop
      vertex -0.330000 6.000000 -5.790000
      vertex -0.330000 11.200000 -5.790000
      vertex -0.330000 11.200000 -5.130000
    endloop
  endfacet
  facet normal 1.000000 0.000000 0.000000
    outer loop
      vertex -0.330000 6.000000 -5.790000
      vertex -0.330000 11.200000 -5.130000
      vertex -0.330000 6.000000 -5.130000
    endloop
  endfacet
  facet normal 0.000000 -1.000000 0.000000
    outer loop
      vertex 1.440000 7.225000 -6.560000
      vertex 3.640000 7.225000 -6.560000
      vertex 3.640000 7.225000 -4.360000
    endloop
  endfacet
  facet normal 0.000000 -1.000000 0.000000
    outer loop
      vertex 1.440000 7.225000 -6.560000
      vertex 3.640000 7.225000 -4.360000
      vertex 1.440000 7.225000 -4.360000
    endloop
  endfacet
  facet normal 0.000000 1.000000 0.000000
    outer loop
      vertex 1.440000 5.675000 -4.360000
      vertex 3.640000 5.675000 -4.360000
      vertex 3.640000 5.675000 -6.560000
    endloop
  endfacet
  facet normal 0.000000 1.000000 0.000000
    outer loop
      vertex 1.440000 5.675000 -4.360000
      vertex 3.640000 5.675000 -6.560000
      vertex 1.440000 5.675000 -6.560000
    endloop
  endfacet
  facet normal 0.000000 0.000000 -1.000000
    outer loop
      vertex 1.440000 7.225000 -4.360000
      vertex 3.640000 7.225000 -4.360000
      vertex 3.640000 5.675000 -4.360000
    endloop
  endfacet
  facet normal 0.000000 0.000000 -1.000000
    outer loop
      vertex 1.440000 7.225000 -4.360000
      vertex 3.640000 5.675000 -4.360000
      vertex 1.440000 5.675000 -4.360000
    endloop
  endfacet
  facet normal 0.000000 0.000000 1.000000
    outer loop
      vertex 3.640000 5.675000 -6.560000
      vertex 3.640000 7.225000 -6.560000
      vertex 1.440000 7.225000 -6.560000
    endloop
  endfacet
  facet normal 0.000000 0.000000 1.000000
    outer loop
      vertex 3.640000 5.675000 -6.560000
      vertex 1.440000 7.225000 -6.560000
      vertex 1.440000 5.675000 -6.560000
    endloop
  endfacet
  facet normal -1.000000 0.000000 0.000000
    outer loop
      vertex 3.640000 5.675000 -4.360000
      vertex 3.640000 7.225000 -4.360000
      vertex 3.640000 7.225000 -6.560000
    endloop
  endfacet
  facet normal -1.000000 0.000000 0.000000
    outer loop
      vertex 3.640000 5.675000 -4.360000
      vertex 3.640000 7.225000 -6.560000
      vertex 3.640000 5.675000 -6.560000
    endloop
  endfacet
  facet normal 1.000000 0.000000 0.000000
    outer loop
      vertex 1.440000 5.675000 -6.560000
      vertex 1.440000 7.225000 -6.560000
      vertex 1.440000 7.225000 -4.360000
    endloop
  endfacet
  facet normal 1.000000 0.000000 0.000000
    outer loop
      vertex 1.440000 5.675000 -6.560000
      vertex 1.440000 7.225000 -4.360000
      vertex 1.440000 5.675000 -4.360000
    endloop
  endfacet
  facet normal 0.000000 -1.000000 0.000000
    outer loop
      vertex 2.210000 11.200000 -5.790000
      vertex 2.870000 11.200000 -5.790000
      vertex 2.870000 11.200000 -5.130000
    endloop
  endfacet
  facet normal 0.000000 -1.000000 0.000000
    outer loop
      vertex 2.210000 11.200000 -5.790000
      vertex 2.870000 11.200000 -5.130000
      vertex 2.210000 11.200000 -5.130000
    endloop
  endfacet
  facet normal 0.000000 1.000000 0.000000
    outer loop
      vertex 2.210000 6.000000 -5.130000
      vertex 2.870000 6.000000 -5.130000
      vertex 2.870000 6.000000 -5.790000
    endloop
  endfacet
  facet normal 0.000000 1.000000 0.000000
    outer loop
      vertex 2.210000 6.000000 -5.130000
      vertex 2.870000 6.000000 -5.790000
      vertex 2.210000 6.000000 -5.790000
    endloop
  endfacet
  facet normal 0.000000 0.000000 -1.000000
    outer loop
      vertex 2.210000 11.200000 -5.130000
      vertex 2.870000 11.200000 -5.130000
      vertex 2.870000 6.000000 -5.130000
    endloop
  endfacet
  facet normal 0.000000 0.000000 -1.000000
    outer loop
      vertex 2.210000 11.200000 -5.130000
      vertex 2.870000 6.000000 -5.130000
      vertex 2.210000 6.000000 -5.130000
    endloop
  endfacet
  facet normal 0.000000 0.000000 1.000000
    outer loop
      vertex 2.870000 6.000000 -5.790000
      vertex 2.870000 11.200000 -5.790000
      vertex 2.210000 11.200000 -5.790000
    endloop
  endfacet
  facet normal 0.000000 0.000000 1.000000
    outer loop
      vertex 2.870000 6.000000 -5.790000
      vertex 2.210000 11.200000 -5.790000
      vertex 2.210000 6.000000 -5.790000
    endloop
  endfacet
  facet normal -1.000000 0.000000 0.000000
    outer loop
      vertex 2.870000 6.000000 -5.130000
      vertex 2.870000 11.200000 -5.130000
      vertex 2.870000 11.200000 -5.790000
    endloop
  endfacet
  facet normal -1.000000 0.000000 0.000000
    outer loop
      vertex 2.870000 6.000000 -5.130000
      vertex 2.870000 11.200000 -5.790000
      vertex 2.870000 6.000000 -5.790000
    endloop
  endfacet
  facet normal 1.000000 0.000000 0.000000
    outer loop
      vertex 2.210000 6.000000 -5.790000
      vertex 2.210000 11.200000 -5.790000
      vertex 2.210000 11.200000 -5.130000
    endloop
  endfacet
  facet normal 1.000000 0.000000 0.000000
    outer loop
      vertex 2.210000 6.000000 -5.790000
      vertex 2.210000 11.200000 -5.130000
      vertex 2.210000 6.000000 -5.130000
    endloop
  endfacet
  facet normal 0.000000 -1.000000 0.000000
    outer loop
      vertex 3.980000 7.225000 -6.560000
      vertex 6.180000 7.225000 -6.560000
      vertex 6.180000 7.225000 -4.360000
    endloop
  endfacet
  facet normal 0.000000 -1.000000 0.000000
    outer loop
      vertex 3.980000 7.225000 -6.560000
      vertex 6.180000 7.225000 -4.360000
      vertex 3.980000 7.225000 -4.360000
    endloop
  endfacet
  facet normal 0.000000 1.000000 0.000000
    outer loop
      vertex 3.980000 5.675000 -4.360000
      vertex 6.180000 5.675000 -4.360000
      vertex 6.180000 5.675000 -6.560000
    endloop
  endfacet
  facet normal 0.000000 1.000000 0.000000
    outer loop
      vertex 3.980000 5.675000 -4.360000
      vertex 6.180000 5.675000 -6.560000
      vertex 3.980000 5.675000 -6.560000
    endloop
  endfacet
  facet normal 0.000000 0.000000 -1.000000
    outer loop
      vertex 3.980000 7.225000 -4.360000
      vertex 6.180000 7.225000 -4.360000
      vertex 6.180000 5.675000 -4.360000
    endloop
  endfacet
  facet normal 0.000000 0.000000 -1.000000
    outer loop
      vertex 3.980000 7.225000 -4.360000
      vertex 6.180000 5.675000 -4.360000
      vertex 3.980000 5.675000 -4.360000
    endloop
  endfacet
  facet normal 0.000000 0.000000 1.000000
    outer loop
      vertex 6.180000 5.675000 -6.560000
      vertex 6.180000 7.225000 -6.560000
      vertex 3.980000 7.225000 -6.560000
    endloop
  endfacet
  facet normal 0.000000 0.000000 1.000000
    outer loop
      vertex 6.180000 5.675000 -6.560000
      vertex 3.980000 7.225000 -6.560000
      vertex 3.980000 5.675000 -6.560000
    endloop
  endfacet
  facet normal -1.000000 0.000000 0.000000
    outer loop
      vertex 6.180000 5.675000 -4.360000
      vertex 6.180000 7.225000 -4.360000
      vertex 6.180000 7.225000 -6.560000
    endloop
  endfacet
  facet normal -1.000000 0.000000 0.000000
    outer loop
      vertex 6.180000 5.675000 -4.360000
      vertex 6.180000 7.225000 -6.560000
      vertex 6.180000 5.675000 -6.560000
    endloop
  endfacet
  facet normal 1.000000 0.000000 0.000000
    outer loop
      vertex 3.980000 5.675000 -6.560000
      vertex 3.980000 7.225000 -6.560000
      vertex 3.980000 7.225000 -4.360000
    endloop
  endfacet
  facet normal 1.000000 0.000000 0.000000
    outer loop
      vertex 3.980000 5.675000 -6.560000
      vertex 3.980000 7.225000 -4.360000
      vertex 3.980000 5.675000 -4.360000
    endloop
  endfacet
  facet normal 0.000000 -1.000000 0.000000
    outer loop
      vertex 4.750000 11.200000 -5.790000
      vertex 5.410000 11.200000 -5.790000
      vertex 5.410000 11.200000 -5.130000
    endloop
  endfacet
  facet normal 0.000000 -1.000000 0.000000
    outer loop
      vertex 4.750000 11.200000 -5.790000
      vertex 5.410000 11.200000 -5.130000
      vertex 4.750000 11.200000 -5.130000
    endloop
  endfacet
  facet normal 0.000000 1.000000 0.000000
    outer loop
      vertex 4.750000 6.000000 -5.130000
      vertex 5.410000 6.000000 -5.130000
      vertex 5.410000 6.000000 -5.790000
    endloop
  endfacet
  facet normal 0.000000 1.000000 0.000000
    outer loop
      vertex 4.750000 6.000000 -5.130000
      vertex 5.410000 6.000000 -5.790000
      vertex 4.750000 6.000000 -5.790000
    endloop
  endfacet
  facet normal 0.000000 0.000000 -1.000000
    outer loop
      vertex 4.750000 11.200000 -5.130000
      vertex 5.410000 11.200000 -5.130000
      vertex 5.410000 6.000000 -5.130000
    endloop
  endfacet
  facet normal 0.000000 0.000000 -1.000000
    outer loop
      vertex 4.750000 11.200000 -5.130000
      vertex 5.410000 6.000000 -5.130000
      vertex 4.750000 6.000000 -5.130000
    endloop
  endfacet
  facet normal 0.000000 0.000000 1.000000
    outer loop
      vertex 5.410000 6.000000 -5.790000
      vertex 5.410000 11.200000 -5.790000
      vertex 4.750000 11.200000 -5.790000
    endloop
  endfacet
  facet normal 0.000000 0.000000 1.000000
    outer loop
      vertex 5.410000 6.000000 -5.790000
      vertex 4.750000 11.200000 -5.790000
      vertex 4.750000 6.000000 -5.790000
    endloop
  endfacet
  facet normal -1.000000 0.000000 0.000000
    outer loop
      vertex 5.410000 6.000000 -5.130000
      vertex 5.410000 11.200000 -5.130000
      vertex 5.410000 11.200000 -5.790000
    endloop
  endfacet
  facet normal -1.000000 0.000000 0.000000
    outer loop
      vertex 5.410000 6.000000 -5.130000
      vertex 5.410000 11.200000 -5.790000
      vertex 5.410000 6.000000 -5.790000
    endloop
  endfacet
  facet normal 1.000000 0.000000 0.000000
    outer loop
      vertex 4.750000 6.000000 -5.790000
      vertex 4.750000 11.200000 -5.790000
      vertex 4.750000 11.200000 -5.130000
    endloop
  endfacet
  facet normal 1.000000 0.000000 0.000000
    outer loop
      vertex 4.750000 6.000000 -5.790000
      vertex 4.750000 11.200000 -5.130000
      vertex 4.750000 6.000000 -5.130000
    endloop
  endfacet
  facet normal 0.000000 -1.000000 0.000000
    outer loop
      vertex -1.600000 3.250000 -0.100000
      vertex 1.600000 3.250000 -0.100000
      vertex 1.600000 3.250000 3.100000
    endloop
  endfacet
  facet normal 0.000000 -1.000000 0.000000
    outer loop
      vertex -1.600000 3.250000 -0.100000
      vertex 1.600000 3.250000 3.100000
      vertex -1.600000 3.250000 3.100000
    endloop
  endfacet
  facet normal 0.000000 1.000000 0.000000
    outer loop
      vertex -1.600000 2.150000 3.100000
      vertex 1.600000 2.150000 3.100000
      vertex 1.600000 2.150000 -0.100000
    endloop
  endfacet
  facet normal 0.000000 1.000000 0.000000
    outer loop
      vertex -1.600000 2.150000 3.100000
      vertex 1.600000 2.150000 -0.100000
      vertex -1.600000 2.150000 -0.100000
    endloop
  endfacet
  facet normal 0.000000 0.000000 -1.000000
    outer loop
      vertex -1.600000 3.250000 3.100000
      vertex 1.600000 3.250000 3.100000
      vertex 1.600000 2.150000 3.100000
    endloop
  endfacet
  facet normal 0.000000 0.000000 -1.000000
    outer loop
      vertex -1.600000 3.250000 3.100000
      vertex 1.600000 2.150000 3.100000
      vertex -1.600000 2.150000 3.100000
    endloop
  endfacet
  facet normal 0.000000 0.000000 1.000000
    outer loop
      vertex 1.600000 2.150000 -0.100000
      vertex 1.600000 3.250000 -0.100000
      vertex -1.600000 3.250000 -0.100000
    endloop
  endfacet
  facet normal 0.000000 0.000000 1.000000
    outer loop
      vertex 1.600000 2.150000 -0.100000
      vertex -1.600000 3.250000 -0.100000
      vertex -1.600000 2.150000 -0.100000
    endloop
  endfacet
  facet normal -1.000000 0.000000 0.000000
    outer loop
      vertex 1.600000 2.150000 3.100000
      vertex 1.600000 3.250000 3.100000
      vertex 1.600000 3.250000 -0.100000
    endloop
  endfacet
  facet normal -1.000000 0.000000 0.000000
    outer loop
      vertex 1.600000 2.150000 3.100000
      vertex 1.600000 3.250000 -0.100000
      vertex 1.600000 2.150000 -0.100000
    endloop
  endfacet
  facet normal 1.000000 0.000000 0.000000
    outer loop
      vertex -1.600000 2.150000 -0.100000
      vertex -1.600000 3.250000 -0.100000
      vertex -1.600000 3.250000 3.100000
    endloop
  endfacet
  facet normal 1.000000 0.000000 0.000000
    outer loop
      vertex -1.600000 2.150000 -0.100000
      vertex -1.600000 3.250000 3.100000
      vertex -1.600000 2.150000 3.100000
    endloop
  endfacet
  facet normal 0.000000 -1.000000 0.000000
    outer loop
      vertex -6.350000 4.050000 -6.710000
      vertex 6.350000 4.050000 -6.710000
      vertex 6.350000 4.050000 -4.210000
    endloop
  endfacet
  facet normal 0.000000 -1.000000 0.000000
    outer loop
      vertex -6.350000 4.050000 -6.710000
      vertex 6.350000 4.050000 -4.210000
      vertex -6.350000 4.050000 -4.210000
    endloop
  endfacet
  facet normal 0.000000 1.000000 0.000000
    outer loop
      vertex -6.350000 1.550000 -4.210000
      vertex 6.350000 1.550000 -4.210000
      vertex 6.350000 1.550000 -6.710000
    endloop
  endfacet
  facet normal 0.000000 1.000000 0.000000
    outer loop
      vertex -6.350000 1.550000 -4.210000
      vertex 6.350000 1.550000 -6.710000
      vertex -6.350000 1.550000 -6.710000
    endloop
  endfacet
  facet normal 0.000000 0.000000 -1.000000
    outer loop
      vertex -6.350000 4.050000 -4.210000
      vertex 6.350000 4.050000 -4.210000
      vertex 6.350000 1.550000 -4.210000
    endloop
  endfacet
  facet normal 0.000000 0.000000 -1.000000
    outer loop
      vertex -6.350000 4.050000 -4.210000
      vertex 6.350000 1.550000 -4.210000
      vertex -6.350000 1.550000 -4.210000
    endloop
  endfacet
  facet normal 0.000000 0.000000 1.000000
    outer loop
      vertex 6.350000 1.550000 -6.710000
      vertex 6.350000 4.050000 -6.710000
      vertex -6.350000 4.050000 -6.710000
    endloop
  endfacet
  facet normal 0.000000 0.000000 1.000000
    outer loop
      vertex 6.350000 1.550000 -6.710000
      vertex -6.350000 4.050000 -6.710000
      vertex -6.350000 1.550000 -6.710000
    endloop
  endfacet
  facet normal -1.000000 0.000000 0.000000
    outer loop
      vertex 6.350000 1.550000 -4.210000
      vertex 6.350000 4.050000 -4.210000
      vertex 6.350000 4.050000 -6.710000
    endloop
  endfacet
  facet normal -1.000000 0.000000 0.000000
    outer loop
      vertex 6.350000 1.550000 -4.210000
      vertex 6.350000 4.050000 -6.710000
      vertex 6.350000 1.550000 -6.710000
    endloop
  endfacet
  facet normal 1.000000 0.000000 0.000000
    outer loop
      vertex -6.350000 1.550000 -6.710000
      vertex -6.350000 4.050000 -6.710000
      vertex -6.350000 4.050000 -4.210000
    endloop
  endfacet
  facet normal 1.000000 0.000000 0.000000
    outer loop
      vertex -6.350000 1.550000 -6.710000
      vertex -6.350000 4.050000 -4.210000
      vertex -6.350000 1.550000 -4.210000
    endloop
  endfacet
endsolid bh1750_light_sensor