solid esc_30a_bldc
  facet normal 0.000000 -1.000000 0.000000
    outer loop
      vertex -12.500000 11.000000 -26.000000
      vertex 12.500000 11.000000 -26.000000
      vertex 12.500000 11.000000 26.000000
    endloop
  endfacet
  facet normal 0.000000 -1.000000 0.000000
    outer loop
      vertex -12.500000 11.000000 -26.000000
      vertex 12.500000 11.000000 26.000000
      vertex -12.500000 11.000000 26.000000
    endloop
  endfacet
  facet normal 0.000000 1.000000 0.000000
    outer loop
      vertex -12.500000 0.000000 26.000000
      vertex 12.500000 0.000000 26.000000
      vertex 12.500000 0.000000 -26.000000
    endloop
  endfacet
  facet normal 0.000000 1.000000 0.000000
    outer loop
      vertex -12.500000 0.000000 26.000000
      vertex 12.500000 0.000000 -26.000000
      vertex -12.500000 0.000000 -26.000000
    endloop
  endfacet
  facet normal 0.000000 0.000000 -1.000000
    outer loop
      vertex -12.500000 11.000000 26.000000
      vertex 12.500000 11.000000 26.000000
      vertex 12.500000 0.000000 26.000000
    endloop
  endfacet
  facet normal 0.000000 0.000000 -1.000000
    outer loop
      vertex -12.500000 11.000000 26.000000
      vertex 12.500000 0.000000 26.000000
      vertex -12.500000 0.000000 26.000000
    endloop
  endfacet
  facet normal 0.000000 0.000000 1.000000
    outer loop
      vertex 12.500000 0.000000 -26.000000
      vertex 12.500000 11.000000 -26.000000
      vertex -12.500000 11.000000 -26.000000
    endloop
  endfacet
  facet normal 0.000000 0.000000 1.000000
    outer loop
      vertex 12.500000 0.000000 -26.000000
      vertex -12.500000 11.000000 -26.000000
      vertex -12.500000 0.000000 -26.000000
    endloop
  endfacet
  facet normal -1.000000 0.000000 0.000000
    outer loop
      vertex 12.500000 0.000000 26.000000
      vertex 12.500000 11.000000 26.000000
      vertex 12.500000 11.000000 -26.000000
    endloop
  endfacet
  facet normal -1.000000 0.000000 0.000000
    outer loop
      vertex 12.500000 0.000000 26.000000
      vertex 12.500000 11.000000 -26.000000
      vertex 12.500000 0.000000 -26.000000
    endloop
  endfacet
  facet normal 1.000000 0.000000 0.000000
    outer loop
      vertex -12.500000 0.000000 -26.000000
      vertex -12.500000 11.000000 -26.000000
      vertex -12.500000 11.000000 26.000000
    endloop
  endfacet
  facet normal 1.000000 0.000000 0.000000
    outer loop
      vertex -12.500000 0.000000 -26.000000
      vertex -12.500000 11.000000 26.000000
      vertex -12.500000 0.000000 26.000000
    endloop
  endfacet
  facet normal 0.000000 0.000000 -1.000000
    outer loop
      vertex -13.600000 6.600000 29.225000
      vertex -11.400000 6.600000 29.225000
      vertex -11.400000 4.400000 29.225000
    endloop
  endfacet
  facet normal 0.000000 0.000000 -1.000000
    outer loop
      vertex -13.600000 6.600000 29.225000
      vertex -11.400000 4.400000 29.225000
      vertex -13.600000 4.400000 29.225000
    endloop
  endfacet
  facet normal 0.000000 0.000000 1.000000
    outer loop
      vertex -13.600000 4.400000 27.675000
      vertex -11.400000 4.400000 27.675000
      vertex -11.400000 6.600000 27.675000
    endloop
  endfacet
  facet normal 0.000000 0.000000 1.000000
    outer loop
      vertex -13.600000 4.400000 27.675000
      vertex -11.400000 6.600000 27.675000
      vertex -13.600000 6.600000 27.675000
    endloop
  endfacet
  facet normal 0.000000 1.000000 0.000000
    outer loop
      vertex -13.600000 4.400000 29.225000
      vertex -11.400000 4.400000 29.225000
      vertex -11.400000 4.400000 27.675000
    endloop
  endfacet
  facet normal 0.000000 1.000000 0.000000
    outer loop
      vertex -13.600000 4.400000 29.225000
      vertex -11.400000 4.400000 27.675000
      vertex -13.600000 4.400000 27.675000
    endloop
  endfacet
  facet normal 0.000000 -1.000000 0.000000
    outer loop
      vertex -11.400000 6.600000 27.675000
      vertex -11.400000 6.600000 29.225000
      vertex -13.600000 6.600000 29.225000
    endloop
  endfacet
  facet normal 0.000000 -1.000000 0.000000
    outer loop
      vertex -11.400000 6.600000 27.675000
      vertex -13.600000 6.600000 29.225000
      vertex -13.600000 6.600000 27.675000
    endloop
  endfacet
  facet normal -1.000000 0.000000 0.000000
    outer loop
      vertex -11.400000 4.400000 27.675000
      vertex -11.400000 4.400000 29.225000
      vertex -11.400000 6.600000 29.225000
    endloop
  endfacet
  facet normal -1.000000 0.000000 0.000000
    outer loop
      vertex -11.400000 4.400000 27.675000
      vertex -11.400000 6.600000 29.225000
      vertex -11.400000 6.600000 27.675000
    endloop
  endfacet
  facet normal 1.000000 0.000000 0.000000
    outer loop
      vertex -13.600000 6.600000 27.675000
      vertex -13.600000 6.600000 29.225000
      vertex -13.600000 4.400000 29.225000
    endloop
  endfacet
  facet normal 1.000000 0.000000 0.000000
    outer loop
      vertex -13.600000 6.600000 27.675000
      vertex -13.600000 4.400000 29.225000
      vertex -13.600000 4.400000 27.675000
    endloop
  endfacet
  facet normal 0.000000 0.000000 -1.000000
    outer loop
      vertex -12.830000 5.830000 33.200000
      vertex -12.170000 5.830000 33.200000
      vertex -12.170000 5.170000 33.200000
    endloop
  endfacet
  facet normal 0.000000 0.000000 -1.000000
    outer loop
      vertex -12.830000 5.830000 33.200000
      vertex -12.170000 5.170000 33.200000
      vertex -12.830000 5.170000 33.200000
    endloop
  endfacet
  facet normal 0.000000 0.000000 1.000000
    outer loop
      vertex -12.830000 5.170000 28.000000
      vertex -12.170000 5.170000 28.000000
      vertex -12.170000 5.830000 28.000000
    endloop
  endfacet
  facet normal 0.000000 0.000000 1.000000
    outer loop
      vertex -12.830000 5.170000 28.000000
      vertex -12.170000 5.830000 28.000000
      vertex -12.830000 5.830000 28.000000
    endloop
  endfacet
  facet normal 0.000000 1.000000 0.000000
    outer loop
      vertex -12.830000 5.170000 33.200000
      vertex -12.170000 5.170000 33.200000
      vertex -12.170000 5.170000 28.000000
    endloop
  endfacet
  facet normal 0.000000 1.000000 0.000000
    outer loop
      vertex -12.830000 5.170000 33.200000
      vertex -12.170000 5.170000 28.000000
      vertex -12.830000 5.170000 28.000000
    endloop
  endfacet
  facet normal 0.000000 -1.000000 0.000000
    outer loop
      vertex -12.170000 5.830000 28.000000
      vertex -12.170000 5.830000 33.200000
      vertex -12.830000 5.830000 33.200000
    endloop
  endfacet
  facet normal 0.000000 -1.000000 0.000000
    outer loop
      vertex -12.170000 5.830000 28.000000
      vertex -12.830000 5.830000 33.200000
      vertex -12.830000 5.830000 28.000000
    endloop
  endfacet
  facet normal -1.000000 0.000000 0.000000
    outer loop
      vertex -12.170000 5.170000 28.000000
      vertex -12.170000 5.170000 33.200000
      vertex -12.170000 5.830000 33.200000
    endloop
  endfacet
  facet normal -1.000000 0.000000 0.000000
    outer loop
      vertex -12.170000 5.170000 28.000000
      vertex -12.170000 5.830000 33.200000
      vertex -12.170000 5.830000 28.000000
    endloop
  endfacet
  facet normal 1.000000 0.000000 0.000000
    outer loop
      vertex -12.830000 5.830000 28.000000
      vertex -12.830000 5.830000 33.200000
      vertex -12.830000 5.170000 33.200000
    endloop
  endfacet
  facet normal 1.000000 0.000000 0.000000
    outer loop
      vertex -12.830000 5.830000 28.000000
      vertex -12.830000 5.170000 33.200000
      vertex -12.830000 5.170000 28.000000
    endloop
  endfacet
  facet normal 0.000000 0.000000 -1.000000
    outer loop
      vertex -11.100000 6.600000 29.225000
      vertex -8.900000 6.600000 29.225000
      vertex -8.900000 4.400000 29.225000
    endloop
  endfacet
  facet normal 0.000000 0.000000 -1.000000
    outer loop
      vertex -11.100000 6.600000 29.225000
      vertex -8.900000 4.400000 29.225000
      vertex -11.100000 4.400000 29.225000
    endloop
  endfacet
  facet normal 0.000000 0.000000 1.000000
    outer loop
      vertex -11.100000 4.400000 27.675000
      vertex -8.900000 4.400000 27.675000
      vertex -8.900000 6.600000 27.675000
    endloop
  endfacet
  facet normal 0.000000 0.000000 1.000000
    outer loop
      vertex -11.100000 4.400000 27.675000
      vertex -8.900000 6.600000 27.675000
      vertex -11.100000 6.600000 27.675000
    endloop
  endfacet
  facet normal 0.000000 1.000000 0.000000
    outer loop
      vertex -11.100000 4.400000 29.225000
      vertex -8.900000 4.400000 29.225000
      vertex -8.900000 4.400000 27.675000
    endloop
  endfacet
  facet normal 0.000000 1.000000 0.000000
    outer loop
      vertex -11.100000 4.400000 29.225000
      vertex -8.900000 4.400000 27.675000
      vertex -11.100000 4.400000 27.675000
    endloop
  endfacet
  facet normal 0.000000 -1.000000 0.000000
    outer loop
      vertex -8.900000 6.600000 27.675000
      vertex -8.900000 6.600000 29.225000
      vertex -11.100000 6.600000 29.225000
    endloop
  endfacet
  facet normal 0.000000 -1.000000 0.000000
    outer loop
      vertex -8.900000 6.600000 27.675000
      vertex -11.100000 6.600000 29.225000
      vertex -11.100000 6.600000 27.675000
    endloop
  endfacet
  facet normal -1.000000 0.000000 0.000000
    outer loop
      vertex -8.900000 4.400000 27.675000
      vertex -8.900000 4.400000 29.225000
      vertex -8.900000 6.600000 29.225000
    endloop
  endfacet
  facet normal -1.000000 0.000000 0.000000
    outer loop
      vertex -8.900000 4.400000 27.675000
      vertex -8.900000 6.600000 29.225000
      vertex -8.900000 6.600000 27.675000
    endloop
  endfacet
  facet normal 1.000000 0.000000 0.000000
    outer loop
      vertex -11.100000 6.600000 27.675000
      vertex -11.100000 6.600000 29.225000
      vertex -11.100000 4.400000 29.225000
    endloop
  endfacet
  facet normal 1.000000 0.000000 0.000000
    outer loop
      vertex -11.100000 6.600000 27.675000
      vertex -11.100000 4.400000 29.225000
      vertex -11.100000 4.400000 27.675000
    endloop
  endfacet
  facet normal 0.000000 0.000000 -1.000000
    outer loop
      vertex -10.330000 5.830000 33.200000
      vertex -9.670000 5.830000 33.200000
      vertex -9.670000 5.170000 33.200000
    endloop
  endfacet
  facet normal 0.000000 0.000000 -1.000000
    outer loop
      vertex -10.330000 5.830000 33.200000
      vertex -9.670000 5.170000 33.200000
      vertex -10.330000 5.170000 33.200000
    endloop
  endfacet
  facet normal 0.000000 0.000000 1.000000
    outer loop
      vertex -10.330000 5.170000 28.000000
      vertex -9.670000 5.170000 28.000000
      vertex -9.670000 5.830000 28.000000
    endloop
  endfacet
  facet normal 0.000000 0.000000 1.000000
    outer loop
      vertex -10.330000 5.170000 28.000000
      vertex -9.670000 5.830000 28.000000
      vertex -10.330000 5.830000 28.000000
    endloop
  endfacet
  facet normal 0.000000 1.000000 0.000000
    outer loop
      vertex -10.330000 5.170000 33.200000
      vertex -9.670000 5.170000 33.200000
      vertex -9.670000 5.170000 28.000000
    endloop
  endfacet
  facet normal 0.000000 1.000000 0.000000
    outer loop
      vertex -10.330000 5.170000 33.200000
      vertex -9.670000 5.170000 28.000000
      vertex -10.330000 5.170000 28.000000
    endloop
  endfacet
  facet normal 0.000000 -1.000000 0.000000
    outer loop
      vertex -9.670000 5.830000 28.000000
      vertex -9.670000 5.830000 33.200000
      vertex -10.330000 5.830000 33.200000
    endloop
  endfacet
  facet normal 0.000000 -1.000000 0.000000
    outer loop
      vertex -9.670000 5.830000 28.000000
      vertex -10.330000 5.830000 33.200000
      vertex -10.330000 5.830000 28.000000
    endloop
  endfacet
  facet normal -1.000000 0.000000 0.000000
    outer loop
      vertex -9.670000 5.170000 28.000000
      vertex -9.670000 5.170000 33.200000
      vertex -9.670000 5.830000 33.200000
    endloop
  endfacet
  facet normal -1.000000 0.000000 0.000000
    outer loop
      vertex -9.670000 5.170000 28.000000
      vertex -9.670000 5.830000 33.200000
      vertex -9.670000 5.830000 28.000000
    endloop
  endfacet
  facet normal 1.000000 0.000000 0.000000
    outer loop
      vertex -10.330000 5.830000 28.000000
      vertex -10.330000 5.830000 33.200000
      vertex -10.330000 5.170000 33.200000
    endloop
  endfacet
  facet normal 1.000000 0.000000 0.000000
    outer loop
      vertex -10.330000 5.830000 28.000000
      vertex -10.330000 5.170000 33.200000
      vertex -10.330000 5.170000 28.000000
    endloop
  endfacet
  facet normal 0.000000 0.000000 -1.000000
    outer loop
      vertex -8.600000 6.600000 29.225000
      vertex -6.400000 6.600000 29.225000
      vertex -6.400000 4.400000 29.225000
    endloop
  endfacet
  facet normal 0.000000 0.000000 -1.000000
    outer loop
      vertex -8.600000 6.600000 29.225000
      vertex -6.400000 4.400000 29.225000
      vertex -8.600000 4.400000 29.225000
    endloop
  endfacet
  facet normal 0.000000 0.000000 1.000000
    outer loop
      vertex -8.600000 4.400000 27.675000
      vertex -6.400000 4.400000 27.675000
      vertex -6.400000 6.600000 27.675000
    endloop
  endfacet
  facet normal 0.000000 0.000000 1.000000
    outer loop
      vertex -8.600000 4.400000 27.675000
      vertex -6.400000 6.600000 27.675000
      vertex -8.600000 6.600000 27.675000
    endloop
  endfacet
  facet normal 0.000000 1.000000 0.000000
    outer loop
      vertex -8.600000 4.400000 29.225000
      vertex -6.400000 4.400000 29.225000
      vertex -6.400000 4.400000 27.675000
    endloop
  endfacet
  facet normal 0.000000 1.000000 0.000000
    outer loop
      vertex -8.600000 4.400000 29.225000
      vertex -6.400000 4.400000 27.675000
      vertex -8.600000 4.400000 27.675000
    endloop
  endfacet
  facet normal 0.000000 -1.000000 0.000000
    outer loop
      vertex -6.400000 6.600000 27.675000
      vertex -6.400000 6.600000 29.225000
      vertex -8.600000 6.600000 29.225000
    endloop
  endfacet
  facet normal 0.000000 -1.000000 0.000000
    outer loop
      vertex -6.400000 6.600000 27.675000
      vertex -8.600000 6.600000 29.225000
      vertex -8.600000 6.600000 27.675000
    endloop
  endfacet
  facet normal -1.000000 0.000000 0.000000
    outer loop
      vertex -6.400000 4.400000 27.675000
      vertex -6.400000 4.400000 29.225000
      vertex -6.400000 6.600000 29.225000
    endloop
  endfacet
  facet normal -1.000000 0.000000 0.000000
    outer loop
      vertex -6.400000 4.400000 27.675000
      vertex -6.400000 6.600000 29.225000
      vertex -6.400000 6.600000 27.675000
    endloop
  endfacet
  facet normal 1.000000 0.000000 0.000000
    outer loop
      vertex -8.600000 6.600000 27.675000
      vertex -8.600000 6.600000 29.225000
      vertex -8.600000 4.400000 29.225000
    endloop
  endfacet
  facet normal 1.000000 0.000000 0.000000
    outer loop
      vertex -8.600000 6.600000 27.675000
      vertex -8.600000 4.400000 29.225000
      vertex -8.600000 4.400000 27.675000
    endloop
  endfacet
  facet normal 0.000000 0.000000 -1.000000
    outer loop
      vertex -7.830000 5.830000 33.200000
      vertex -7.170000 5.830000 33.200000
      vertex -7.170000 5.170000 33.200000
    endloop
  endfacet
  facet normal 0.000000 0.000000 -1.000000
    outer loop
      vertex -7.830000 5.830000 33.200000
      vertex -7.170000 5.170000 33.200000
      vertex -7.830000 5.170000 33.200000
    endloop
  endfacet
  facet normal 0.000000 0.000000 1.000000
    outer loop
      vertex -7.830000 5.170000 28.000000
      vertex -7.170000 5.170000 28.000000
      vertex -7.170000 5.830000 28.000000
    endloop
  endfacet
  facet normal 0.000000 0.000000 1.000000
    outer loop
      vertex -7.830000 5.170000 28.000000
      vertex -7.170000 5.830000 28.000000
      vertex -7.830000 5.830000 28.000000
    endloop
  endfacet
  facet normal 0.000000 1.000000 0.000000
    outer loop
      vertex -7.830000 5.170000 33.200000
      vertex -7.170000 5.170000 33.200000
      vertex -7.170000 5.170000 28.000000
    endloop
  endfacet
  facet normal 0.000000 1.000000 0.000000
    outer loop
      vertex -7.830000 5.170000 33.200000
      vertex -7.170000 5.170000 28.000000
      vertex -7.830000 5.170000 28.000000
    endloop
  endfacet
  facet normal 0.000000 -1.000000 0.000000
    outer loop
      vertex -7.170000 5.830000 28.000000
      vertex -7.170000 5.830000 33.200000
      vertex -7.830000 5.830000 33.200000
    endloop
  endfacet
  facet normal 0.000000 -1.000000 0.000000
    outer loop
      vertex -7.170000 5.830000 28.000000
      vertex -7.830000 5.830000 33.200000
      vertex -7.830000 5.830000 28.000000
    endloop
  endfacet
  facet normal -1.000000 0.000000 0.000000
    outer loop
      vertex -7.170000 5.170000 28.000000
      vertex -7.170000 5.170000 33.200000
      vertex -7.170000 5.830000 33.200000
    endloop
  endfacet
  facet normal -1.000000 0.000000 0.000000
    outer loop
      vertex -7.170000 5.170000 28.000000
      vertex -7.170000 5.830000 33.200000
      vertex -7.170000 5.830000 28.000000
    endloop
  endfacet
  facet normal 1.000000 0.000000 0.000000
    outer loop
      vertex -7.830000 5.830000 28.000000
      vertex -7.830000 5.830000 33.200000
      vertex -7.830000 5.170000 33.200000
    endloop
  endfacet
  facet normal 1.000000 0.000000 0.000000
    outer loop
      vertex -7.830000 5.830000 28.000000
      vertex -7.830000 5.170000 33.200000
      vertex -7.830000 5.170000 28.000000
    endloop
  endfacet
  facet normal 0.000000 0.000000 1.000000
    outer loop
      vertex -7.100000 4.400000 -29.225000
      vertex -4.900000 4.400000 -29.225000
      vertex -4.900000 6.600000 -29.225000
    endloop
  endfacet
  facet normal 0.000000 0.000000 1.000000
    outer loop
      vertex -7.100000 4.400000 -29.225000
      vertex -4.900000 6.600000 -29.225000
      vertex -7.100000 6.600000 -29.225000
    endloop
  endfacet
  facet normal 0.000000 0.000000 -1.000000
    outer loop
      vertex -7.100000 6.600000 -27.675000
      vertex -4.900000 6.600000 -27.675000
      vertex -4.900000 4.400000 -27.675000
    endloop
  endfacet
  facet normal 0.000000 0.000000 -1.000000
    outer loop
      vertex -7.100000 6.600000 -27.675000
      vertex -4.900000 4.400000 -27.675000
      vertex -7.100000 4.400000 -27.675000
    endloop
  endfacet
  facet normal 0.000000 -1.000000 0.000000
    outer loop
      vertex -7.100000 6.600000 -29.225000
      vertex -4.900000 6.600000 -29.225000
      vertex -4.900000 6.600000 -27.675000
    endloop
  endfacet
  facet normal 0.000000 -1.000000 0.000000
    outer loop
      vertex -7.100000 6.600000 -29.225000
      vertex -4.900000 6.600000 -27.675000
      vertex -7.100000 6.600000 -27.675000
    endloop
  endfacet
  facet normal 0.000000 1.000000 0.000000
    outer loop
      vertex -4.900000 4.400000 -27.675000
      vertex -4.900000 4.400000 -29.225000
      vertex -7.100000 4.400000 -29.225000
    endloop
  endfacet
  facet normal 0.000000 1.000000 0.000000
    outer loop
      vertex -4.900000 4.400000 -27.675000
      vertex -7.100000 4.400000 -29.225000
      vertex -7.100000 4.400000 -27.675000
    endloop
  endfacet
  facet normal -1.000000 0.000000 0.000000
    outer loop
      vertex -4.900000 6.600000 -27.675000
      vertex -4.900000 6.600000 -29.225000
      vertex -4.900000 4.400000 -29.225000
    endloop
  endfacet
  facet normal -1.000000 0.000000 0.000000
    outer loop
      vertex -4.900000 6.600000 -27.675000
      vertex -4.900000 4.400000 -29.225000
      vertex -4.900000 4.400000 -27.675000
    endloop
  endfacet
  facet normal 1.000000 0.000000 0.000000
    outer loop
      vertex -7.100000 4.400000 -27.675000
      vertex -7.100000 4.400000 -29.225000
      vertex -7.100000 6.600000 -29.225000
    endloop
  endfacet
  facet normal 1.000000 0.000000 0.000000
    outer loop
      vertex -7.100000 4.400000 -27.675000
      vertex -7.100000 6.600000 -29.225000
      vertex -7.100000 6.600000 -27.675000
    endloop
  endfacet
  facet normal 0.000000 0.000000 1.000000
    outer loop
      vertex -6.330000 5.170000 -33.200000
      vertex -5.670000 5.170000 -33.200000
      vertex -5.670000 5.830000 -33.200000
    endloop
  endfacet
  facet normal 0.000000 0.000000 1.000000
    outer loop
      vertex -6.330000 5.170000 -33.200000
      vertex -5.670000 5.830000 -33.200000
      vertex -6.330000 5.830000 -33.200000
    endloop
  endfacet
  facet normal 0.000000 0.000000 -1.000000
    outer loop
      vertex -6.330000 5.830000 -28.000000
      vertex -5.670000 5.830000 -28.000000
      vertex -5.670000 5.170000 -28.000000
    endloop
  endfacet
  facet normal 0.000000 0.000000 -1.000000
    outer loop
      vertex -6.330000 5.830000 -28.000000
      vertex -5.670000 5.170000 -28.000000
      vertex -6.330000 5.170000 -28.000000
    endloop
  endfacet
  facet normal 0.000000 -1.000000 0.000000
    outer loop
      vertex -6.330000 5.830000 -33.200000
      vertex -5.670000 5.830000 -33.200000
      vertex -5.670000 5.830000 -28.000000
    endloop
  endfacet
  facet normal 0.000000 -1.000000 0.000000
    outer loop
      vertex -6.330000 5.830000 -33.200000
      vertex -5.670000 5.830000 -28.000000
      vertex -6.330000 5.830000 -28.000000
    endloop
  endfacet
  facet normal 0.000000 1.000000 0.000000
    outer loop
      vertex -5.670000 5.170000 -28.000000
      vertex -5.670000 5.170000 -33.200000
      vertex -6.330000 5.170000 -33.200000
    endloop
  endfacet
  facet normal 0.000000 1.000000 0.000000
    outer loop
      vertex -5.670000 5.170000 -28.000000
      vertex -6.330000 5.170000 -33.200000
      vertex -6.330000 5.170000 -28.000000
    endloop
  endfacet
  facet normal -1.000000 0.000000 0.000000
    outer loop
      vertex -5.670000 5.830000 -28.000000
      vertex -5.670000 5.830000 -33.200000
      vertex -5.670000 5.170000 -33.200000
    endloop
  endfacet
  facet normal -1.000000 0.000000 0.000000
    outer loop
      vertex -5.670000 5.830000 -28.000000
      vertex -5.670000 5.170000 -33.200000
      vertex -5.670000 5.170000 -28.000000
    endloop
  endfacet
  facet normal 1.000000 0.000000 0.000000
    outer loop
      vertex -6.330000 5.170000 -28.000000
      vertex -6.330000 5.170000 -33.200000
      vertex -6.330000 5.830000 -33.200000
    endloop
  endfacet
  facet normal 1.000000 0.000000 0.000000
    outer loop
      vertex -6.330000 5.170000 -28.000000
      vertex -6.330000 5.830000 -33.200000
      vertex -6.330000 5.830000 -28.000000
    endloop
  endfacet
  facet normal 0.000000 0.000000 1.000000
    outer loop
      vertex 4.900000 4.400000 -29.225000
      vertex 7.100000 4.400000 -29.225000
      vertex 7.100000 6.600000 -29.225000
    endloop
  endfacet
  facet normal 0.000000 0.000000 1.000000
    outer loop
      vertex 4.900000 4.400000 -29.225000
      vertex 7.100000 6.600000 -29.225000
      vertex 4.900000 6.600000 -29.225000
    endloop
  endfacet
  facet normal 0.000000 0.000000 -1.000000
    outer loop
      vertex 4.900000 6.600000 -27.675000
      vertex 7.100000 6.600000 -27.675000
      vertex 7.100000 4.400000 -27.675000
    endloop
  endfacet
  facet normal 0.000000 0.000000 -1.000000
    outer loop
      vertex 4.900000 6.600000 -27.675000
      vertex 7.100000 4.400000 -27.675000
      vertex 4.900000 4.400000 -27.675000
    endloop
  endfacet
  facet normal 0.000000 -1.000000 0.000000
    outer loop
      vertex 4.900000 6.600000 -29.225000
      vertex 7.100000 6.600000 -29.225000
      vertex 7.100000 6.600000 -27.675000
    endloop
  endfacet
  facet normal 0.000000 -1.000000 0.000000
    outer loop
      vertex 4.900000 6.600000 -29.225000
      vertex 7.100000 6.600000 -27.675000
      vertex 4.900000 6.600000 -27.675000
    endloop
  endfacet
  facet normal 0.000000 1.000000 0.000000
    outer loop
      vertex 7.100000 4.400000 -27.675000
      vertex 7.100000 4.400000 -29.225000
      vertex 4.900000 4.400000 -29.225000
    endloop
  endfacet
  facet normal 0.000000 1.000000 0.000000
    outer loop
      vertex 7.100000 4.400000 -27.675000
      vertex 4.900000 4.400000 -29.225000
      vertex 4.900000 4.400000 -27.675000
    endloop
  endfacet
  facet normal -1.000000 0.000000 0.000000
    outer loop
      vertex 7.100000 6.600000 -27.675000
      vertex 7.100000 6.600000 -29.225000
      vertex 7.100000 4.400000 -29.225000
    endloop
  endfacet
  facet normal -1.000000 0.000000 0.000000
    outer loop
      vertex 7.100000 6.600000 -27.675000
      vertex 7.100000 4.400000 -29.225000
      vertex 7.100000 4.400000 -27.675000
    endloop
  endfacet
  facet normal 1.000000 0.000000 0.000000
    outer loop
      vertex 4.900000 4.400000 -27.675000
      vertex 4.900000 4.400000 -29.225000
      vertex 4.900000 6.600000 -29.225000
    endloop
  endfacet
  facet normal 1.000000 0.000000 0.000000
    outer loop
      vertex 4.900000 4.400000 -27.675000
      vertex 4.900000 6.600000 -29.225000
      vertex 4.900000 6.600000 -27.675000
    endloop
  endfacet
  facet normal 0.000000 0.000000 1.000000
    outer loop
      vertex 5.670000 5.170000 -33.200000
      vertex 6.330000 5.170000 -33.200000
      vertex 6.330000 5.830000 -33.200000
    endloop
  endfacet
  facet normal 0.000000 0.000000 1.000000
    outer loop
      vertex 5.670000 5.170000 -33.200000
      vertex 6.330000 5.830000 -33.200000
      vertex 5.670000 5.830000 -33.200000
    endloop
  endfacet
  facet normal 0.000000 0.000000 -1.000000
    outer loop
      vertex 5.670000 5.830000 -28.000000
      vertex 6.330000 5.830000 -28.000000
      vertex 6.330000 5.170000 -28.000000
    endloop
  endfacet
  facet normal 0.000000 0.000000 -1.000000
    outer loop
      vertex 5.670000 5.830000 -28.000000
      vertex 6.330000 5.170000 -28.000000
      vertex 5.670000 5.170000 -28.000000
    endloop
  endfacet
  facet normal 0.000000 -1.000000 0.000000
    outer loop
      vertex 5.670000 5.830000 -33.200000
      vertex 6.330000 5.830000 -33.200000
      vertex 6.330000 5.830000 -28.000000
    endloop
  endfacet
  facet normal 0.000000 -1.000000 0.000000
    outer loop
      vertex 5.670000 5.830000 -33.200000
      vertex 6.330000 5.830000 -28.000000
      vertex 5.670000 5.830000 -28.000000
    endloop
  endfacet
  facet normal 0.000000 1.000000 0.000000
    outer loop
      vertex 6.330000 5.170000 -28.000000
      vertex 6.330000 5.170000 -33.200000
      vertex 5.670000 5.170000 -33.200000
    endloop
  endfacet
  facet normal 0.000000 1.000000 0.000000
    outer loop
      vertex 6.330000 5.170000 -28.000000
      vertex 5.670000 5.170000 -33.200000
      vertex 5.670000 5.170000 -28.000000
    endloop
  endfacet
  facet normal -1.000000 0.000000 0.000000
    outer loop
      vertex 6.330000 5.830000 -28.000000
      vertex 6.330000 5.830000 -33.200000
      vertex 6.330000 5.170000 -33.200000
    endloop
  endfacet
  facet normal -1.000000 0.000000 0.000000
    outer loop
      vertex 6.330000 5.830000 -28.000000
      vertex 6.330000 5.170000 -33.200000
      vertex 6.330000 5.170000 -28.000000
    endloop
  endfacet
  facet normal 1.000000 0.000000 0.000000
    outer loop
      vertex 5.670000 5.170000 -28.000000
      vertex 5.670000 5.170000 -33.200000
      vertex 5.670000 5.830000 -33.200000
    endloop
  endfacet
  facet normal 1.000000 0.000000 0.000000
    outer loop
      vertex 5.670000 5.170000 -28.000000
      vertex 5.670000 5.830000 -33.200000
      vertex 5.670000 5.830000 -28.000000
    endloop
  endfacet
  facet normal 0.000000 0.000000 -1.000000
    outer loop
      vertex -9.100000 6.600000 29.225000
      vertex -6.900000 6.600000 29.225000
      vertex -6.900000 4.400000 29.225000
    endloop
  endfacet
  facet normal 0.000000 0.000000 -1.000000
    outer loop
      vertex -9.100000 6.600000 29.225000
      vertex -6.900000 4.400000 29.225000
      vertex -9.100000 4.400000 29.225000
    endloop
  endfacet
  facet normal 0.000000 0.000000 1.000000
    outer loop
      vertex -9.100000 4.400000 27.675000
      vertex -6.900000 4.400000 27.675000
      vertex -6.900000 6.600000 27.675000
    endloop
  endfacet
  facet normal 0.000000 0.000000 1.000000
    outer loop
      vertex -9.100000 4.400000 27.675000
      vertex -6.900000 6.600000 27.675000
      vertex -9.100000 6.600000 27.675000
    endloop
  endfacet
  facet normal 0.000000 1.000000 0.000000
    outer loop
      vertex -9.100000 4.400000 29.225000
      vertex -6.900000 4.400000 29.225000
      vertex -6.900000 4.400000 27.675000
    endloop
  endfacet
  facet normal 0.000000 1.000000 0.000000
    outer loop
      vertex -9.100000 4.400000 29.225000
      vertex -6.900000 4.400000 27.675000
      vertex -9.100000 4.400000 27.675000
    endloop
  endfacet
  facet normal 0.000000 -1.000000 0.000000
    outer loop
      vertex -6.900000 6.600000 27.675000
      vertex -6.900000 6.600000 29.225000
      vertex -9.100000 6.600000 29.225000
    endloop
  endfacet
  facet normal 0.000000 -1.000000 0.000000
    outer loop
      vertex -6.900000 6.600000 27.675000
      vertex -9.100000 6.600000 29.225000
      vertex -9.100000 6.600000 27.675000
    endloop
  endfacet
  facet normal -1.000000 0.000000 0.000000
    outer loop
      vertex -6.900000 4.400000 27.675000
      vertex -6.900000 4.400000 29.225000
      vertex -6.900000 6.600000 29.225000
    endloop
  endfacet
  facet normal -1.000000 0.000000 0.000000
    outer loop
      vertex -6.900000 4.400000 27.675000
      vertex -6.900000 6.600000 29.225000
      vertex -6.900000 6.600000 27.675000
    endloop
  endfacet
  facet normal 1.000000 0.000000 0.000000
    outer loop
      vertex -9.100000 6.600000 27.675000
      vertex -9.100000 6.600000 29.225000
      vertex -9.100000 4.400000 29.225000
    endloop
  endfacet
  facet normal 1.000000 0.000000 0.000000
    outer loop
      vertex -9.100000 6.600000 27.675000
      vertex -9.100000 4.400000 29.225000
      vertex -9.100000 4.400000 27.675000
    endloop
  endfacet
  facet normal 0.000000 0.000000 -1.000000
    outer loop
      vertex -8.330000 5.830000 33.200000
      vertex -7.670000 5.830000 33.200000
      vertex -7.670000 5.170000 33.200000
    endloop
  endfacet
  facet normal 0.000000 0.000000 -1.000000
    outer loop
      vertex -8.330000 5.830000 33.200000
      vertex -7.670000 5.170000 33.200000
      vertex -8.330000 5.170000 33.200000
    endloop
  endfacet
  facet normal 0.000000 0.000000 1.000000
    outer loop
      vertex -8.330000 5.170000 28.000000
      vertex -7.670000 5.170000 28.000000
      vertex -7.670000 5.830000 28.000000
    endloop
  endfacet
  facet normal 0.000000 0.000000 1.000000
    outer loop
      vertex -8.330000 5.170000 28.000000
      vertex -7.670000 5.830000 28.000000
      vertex -8.330000 5.830000 28.000000
    endloop
  endfacet
  facet normal 0.000000 1.000000 0.000000
    outer loop
      vertex -8.330000 5.170000 33.200000
      vertex -7.670000 5.170000 33.200000
      vertex -7.670000 5.170000 28.000000
    endloop
  endfacet
  facet normal 0.000000 1.000000 0.000000
    outer loop
      vertex -8.330000 5.170000 33.200000
      vertex -7.670000 5.170000 28.000000
      vertex -8.330000 5.170000 28.000000
    endloop
  endfacet
  facet normal 0.000000 -1.000000 0.000000
    outer loop
      vertex -7.670000 5.830000 28.000000
      vertex -7.670000 5.830000 33.200000
      vertex -8.330000 5.830000 33.200000
    endloop
  endfacet
  facet normal 0.000000 -1.000000 0.000000
    outer loop
      vertex -7.670000 5.830000 28.000000
      vertex -8.330000 5.830000 33.200000
      vertex -8.330000 5.830000 28.000000
    endloop
  endfacet
  facet normal -1.000000 0.000000 0.000000
    outer loop
      vertex -7.670000 5.170000 28.000000
      vertex -7.670000 5.170000 33.200000
      vertex -7.670000 5.830000 33.200000
    endloop
  endfacet
  facet normal -1.000000 0.000000 0.000000
    outer loop
      vertex -7.670000 5.170000 28.000000
      vertex -7.670000 5.830000 33.200000
      vertex -7.670000 5.830000 28.000000
    endloop
  endfacet
  facet normal 1.000000 0.000000 0.000000
    outer loop
      vertex -8.330000 5.830000 28.000000
      vertex -8.330000 5.830000 33.200000
      vertex -8.330000 5.170000 33.200000
    endloop
  endfacet
  facet normal 1.000000 0.000000 0.000000
    outer loop
      vertex -8.330000 5.830000 28.000000
      vertex -8.330000 5.170000 33.200000
      vertex -8.330000 5.170000 28.000000
    endloop
  endfacet
  facet normal 0.000000 0.000000 -1.000000
    outer loop
      vertex -1.100000 6.600000 29.225000
      vertex 1.100000 6.600000 29.225000
      vertex 1.100000 4.400000 29.225000
    endloop
  endfacet
  facet normal 0.000000 0.000000 -1.000000
    outer loop
      vertex -1.100000 6.600000 29.225000
      vertex 1.100000 4.400000 29.225000
      vertex -1.100000 4.400000 29.225000
    endloop
  endfacet
  facet normal 0.000000 0.000000 1.000000
    outer loop
      vertex -1.100000 4.400000 27.675000
      vertex 1.100000 4.400000 27.675000
      vertex 1.100000 6.600000 27.675000
    endloop
  endfacet
  facet normal 0.000000 0.000000 1.000000
    outer loop
      vertex -1.100000 4.400000 27.675000
      vertex 1.100000 6.600000 27.675000
      vertex -1.100000 6.600000 27.675000
    endloop
  endfacet
  facet normal 0.000000 1.000000 0.000000
    outer loop
      vertex -1.100000 4.400000 29.225000
      vertex 1.100000 4.400000 29.225000
      vertex 1.100000 4.400000 27.675000
    endloop
  endfacet
  facet normal 0.000000 1.000000 0.000000
    outer loop
      vertex -1.100000 4.400000 29.225000
      vertex 1.100000 4.400000 27.675000
      vertex -1.100000 4.400000 27.675000
    endloop
  endfacet
  facet normal 0.000000 -1.000000 0.000000
    outer loop
      vertex 1.100000 6.600000 27.675000
      vertex 1.100000 6.600000 29.225000
      vertex -1.100000 6.600000 29.225000
    endloop
  endfacet
  facet normal 0.000000 -1.000000 0.000000
    outer loop
      vertex 1.100000 6.600000 27.675000
      vertex -1.100000 6.600000 29.225000
      vertex -1.100000 6.600000 27.675000
    endloop
  endfacet
  facet normal -1.000000 0.000000 0.000000
    outer loop
      vertex 1.100000 4.400000 27.675000
      vertex 1.100000 4.400000 29.225000
      vertex 1.100000 6.600000 29.225000
    endloop
  endfacet
  facet normal -1.000000 0.000000 0.000000
    outer loop
      vertex 1.100000 4.400000 27.675000
      vertex 1.100000 6.600000 29.225000
      vertex 1.100000 6.600000 27.675000
    endloop
  endfacet
  facet normal 1.000000 0.000000 0.000000
    outer loop
      vertex -1.100000 6.600000 27.675000
      vertex -1.100000 6.600000 29.225000
      vertex -1.100000 4.400000 29.225000
    endloop
  endfacet
  facet normal 1.000000 0.000000 0.000000
    outer loop
      vertex -1.100000 6.600000 27.675000
      vertex -1.100000 4.400000 29.225000
      vertex -1.100000 4.400000 27.675000
    endloop
  endfacet
  facet normal 0.000000 0.000000 -1.000000
    outer loop
      vertex -0.330000 5.830000 33.200000
      vertex 0.330000 5.830000 33.200000
      vertex 0.330000 5.170000 33.200000
    endloop
  endfacet
  facet normal 0.000000 0.000000 -1.000000
    outer loop
      vertex -0.330000 5.830000 33.200000
      vertex 0.330000 5.170000 33.200000
      vertex -0.330000 5.170000 33.200000
    endloop
  endfacet
  facet normal 0.000000 0.000000 1.000000
    outer loop
      vertex -0.330000 5.170000 28.000000
      vertex 0.330000 5.170000 28.000000
      vertex 0.330000 5.830000 28.000000
    endloop
  endfacet
  facet normal 0.000000 0.000000 1.000000
    outer loop
      vertex -0.330000 5.170000 28.000000
      vertex 0.330000 5.830000 28.000000
      vertex -0.330000 5.830000 28.000000
    endloop
  endfacet
  facet normal 0.000000 1.000000 0.000000
    outer loop
      vertex -0.330000 5.170000 33.200000
      vertex 0.330000 5.170000 33.200000
      vertex 0.330000 5.170000 28.000000
    endloop
  endfacet
  facet normal 0.000000 1.000000 0.000000
    outer loop
      vertex -0.330000 5.170000 33.200000
      vertex 0.330000 5.170000 28.000000
      vertex -0.330000 5.170000 28.000000
    endloop
  endfacet
  facet normal 0.000000 -1.000000 0.000000
    outer loop
      vertex 0.330000 5.830000 28.000000
      vertex 0.330000 5.830000 33.200000
      vertex -0.330000 5.830000 33.200000
    endloop
  endfacet
  facet normal 0.000000 -1.000000 0.000000
    outer loop
      vertex 0.330000 5.830000 28.000000
      vertex -0.330000 5.830000 33.200000
      vertex -0.330000 5.830000 28.000000
    endloop
  endfacet
  facet normal -1.000000 0.000000 0.000000
    outer loop
      vertex 0.330000 5.170000 28.000000
      vertex 0.330000 5.170000 33.200000
      vertex 0.330000 5.830000 33.200000
    endloop
  endfacet
  facet normal -1.000000 0.000000 0.000000
    outer loop
      vertex 0.330000 5.170000 28.000000
      vertex 0.330000 5.830000 33.200000
      vertex 0.330000 5.830000 28.000000
    endloop
  endfacet
  facet normal 1.000000 0.000000 0.000000
    outer loop
      vertex -0.330000 5.830000 28.000000
      vertex -0.330000 5.830000 33.200000
      vertex -0.330000 5.170000 33.200000
    endloop
  endfacet
  facet normal 1.000000 0.000000 0.000000
    outer loop
      vertex -0.330000 5.830000 28.000000
      vertex -0.330000 5.170000 33.200000
      vertex -0.330000 5.170000 28.000000
    endloop
  endfacet
  facet normal 0.000000 0.000000 -1.000000
    outer loop
      vertex 6.900000 6.600000 29.225000
      vertex 9.100000 6.600000 29.225000
      vertex 9.100000 4.400000 29.225000
    endloop
  endfacet
  facet normal 0.000000 0.000000 -1.000000
    outer loop
      vertex 6.900000 6.600000 29.225000
      vertex 9.100000 4.400000 29.225000
      vertex 6.900000 4.400000 29.225000
    endloop
  endfacet
  facet normal 0.000000 0.000000 1.000000
    outer loop
      vertex 6.900000 4.400000 27.675000
      vertex 9.100000 4.400000 27.675000
      vertex 9.100000 6.600000 27.675000
    endloop
  endfacet
  facet normal 0.000000 0.000000 1.000000
    outer loop
      vertex 6.900000 4.400000 27.675000
      vertex 9.100000 6.600000 27.675000
      vertex 6.900000 6.600000 27.675000
    endloop
  endfacet
  facet normal 0.000000 1.000000 0.000000
    outer loop
      vertex 6.900000 4.400000 29.225000
      vertex 9.100000 4.400000 29.225000
      vertex 9.100000 4.400000 27.675000
    endloop
  endfacet
  facet normal 0.000000 1.000000 0.000000
    outer loop
      vertex 6.900000 4.400000 29.225000
      vertex 9.100000 4.400000 27.675000
      vertex 6.900000 4.400000 27.675000
    endloop
  endfacet
  facet normal 0.000000 -1.000000 0.000000
    outer loop
      vertex 9.100000 6.600000 27.675000
      vertex 9.100000 6.600000 29.225000
      vertex 6.900000 6.600000 29.225000
    endloop
  endfacet
  facet normal 0.000000 -1.000000 0.000000
    outer loop
      vertex 9.100000 6.600000 27.675000
      vertex 6.900000 6.600000 29.225000
      vertex 6.900000 6.600000 27.675000
    endloop
  endfacet
  facet normal -1.000000 0.000000 0.000000
    outer loop
      vertex 9.100000 4.400000 27.675000
      vertex 9.100000 4.400000 29.225000
      vertex 9.100000 6.600000 29.225000
    endloop
  endfacet
  facet normal -1.000000 0.000000 0.000000
    outer loop
      vertex 9.100000 4.400000 27.675000
      vertex 9.100000 6.600000 29.225000
      vertex 9.100000 6.600000 27.675000
    endloop
  endfacet
  facet normal 1.000000 0.000000 0.000000
    outer loop
      vertex 6.900000 6.600000 27.675000
      vertex 6.900000 6.600000 29.225000
      vertex 6.900000 4.400000 29.225000
    endloop
  endfacet
  facet normal 1.000000 0.000000 0.000000
    outer loop
      vertex 6.900000 6.600000 27.675000
      vertex 6.900000 4.400000 29.225000
      vertex 6.900000 4.400000 27.675000
    endloop
  endfacet
  facet normal 0.000000 0.000000 -1.000000
    outer loop
      vertex 7.670000 5.830000 33.200000
      vertex 8.330000 5.830000 33.200000
      vertex 8.330000 5.170000 33.200000
    endloop
  endfacet
  facet normal 0.000000 0.000000 -1.000000
    outer loop
      vertex 7.670000 5.830000 33.200000
      vertex 8.330000 5.170000 33.200000
      vertex 7.670000 5.170000 33.200000
    endloop
  endfacet
  facet normal 0.000000 0.000000 1.000000
    outer loop
      vertex 7.670000 5.170000 28.000000
      vertex 8.330000 5.170000 28.000000
      vertex 8.330000 5.830000 28.000000
    endloop
  endfacet
  facet normal 0.000000 0.000000 1.000000
    outer loop
      vertex 7.670000 5.170000 28.000000
      vertex 8.330000 5.830000 28.000000
      vertex 7.670000 5.830000 28.000000
    endloop
  endfacet
  facet normal 0.000000 1.000000 0.000000
    outer loop
      vertex 7.670000 5.170000 33.200000
      vertex 8.330000 5.170000 33.200000
      vertex 8.330000 5.170000 28.000000
    endloop
  endfacet
  facet normal 0.000000 1.000000 0.000000
    outer loop
      vertex 7.670000 5.170000 33.200000
      vertex 8.330000 5.170000 28.000000
      vertex 7.670000 5.170000 28.000000
    endloop
  endfacet
  facet normal 0.000000 -1.000000 0.000000
    outer loop
      vertex 8.330000 5.830000 28.000000
      vertex 8.330000 5.830000 33.200000
      vertex 7.670000 5.830000 33.200000
    endloop
  endfacet
  facet normal 0.000000 -1.000000 0.000000
    outer loop
      vertex 8.330000 5.830000 28.000000
      vertex 7.670000 5.830000 33.200000
      vertex 7.670000 5.830000 28.000000
    endloop
  endfacet
  facet normal -1.000000 0.000000 0.000000
    outer loop
      vertex 8.330000 5.170000 28.000000
      vertex 8.330000 5.170000 33.200000
      vertex 8.330000 5.830000 33.200000
    endloop
  endfacet
  facet normal -1.000000 0.000000 0.000000
    outer loop
      vertex 8.330000 5.170000 28.000000
      vertex 8.330000 5.830000 33.200000
      vertex 8.330000 5.830000 28.000000
    endloop
  endfacet
  facet normal 1.000000 0.000000 0.000000
    outer loop
      vertex 7.670000 5.830000 28.000000
      vertex 7.670000 5.830000 33.200000
      vertex 7.670000 5.170000 33.200000
    endloop
  endfacet
  facet normal 1.000000 0.000000 0.000000
    outer loop
      vertex 7.670000 5.830000 28.000000
      vertex 7.670000 5.170000 33.200000
      vertex 7.670000 5.170000 28.000000
    endloop
  endfacet
  facet normal 0.000000 -1.000000 0.000000
    outer loop
      vertex -12.500000 3.000000 -26.000000
      vertex 12.500000 3.000000 -26.000000
      vertex 12.500000 3.000000 26.000000
    endloop
  endfacet
  facet normal 0.000000 -1.000000 0.000000
    outer loop
      vertex -12.500000 3.000000 -26.000000
      vertex 12.500000 3.000000 26.000000
      vertex -12.500000 3.000000 26.000000
    endloop
  endfacet
  facet normal 0.000000 1.000000 0.000000
    outer loop
      vertex -12.500000 0.000000 26.000000
      vertex 12.500000 0.000000 26.000000
      vertex 12.500000 0.000000 -26.000000
    endloop
  endfacet
  facet normal 0.000000 1.000000 0.000000
    outer loop
      vertex -12.500000 0.000000 26.000000
      vertex 12.500000 0.000000 -26.000000
      vertex -12.500000 0.000000 -26.000000
    endloop
  endfacet
  facet normal 0.000000 0.000000 -1.000000
    outer loop
      vertex -12.500000 3.000000 26.000000
      vertex 12.500000 3.000000 26.000000
      vertex 12.500000 0.000000 26.000000
    endloop
  endfacet
  facet normal 0.000000 0.000000 -1.000000
    outer loop
      vertex -12.500000 3.000000 26.000000
      vertex 12.500000 0.000000 26.000000
      vertex -12.500000 0.000000 26.000000
    endloop
  endfacet
  facet normal 0.000000 0.000000 1.000000
    outer loop
      vertex 12.500000 0.000000 -26.000000
      vertex 12.500000 3.000000 -26.000000
      vertex -12.500000 3.000000 -26.000000
    endloop
  endfacet
  facet normal 0.000000 0.000000 1.000000
    outer loop
      vertex 12.500000 0.000000 -26.000000
      vertex -12.500000 3.000000 -26.000000
      vertex -12.500000 0.000000 -26.000000
    endloop
  endfacet
  facet normal -1.000000 0.000000 0.000000
    outer loop
      vertex 12.500000 0.000000 26.000000
      vertex 12.500000 3.000000 26.000000
      vertex 12.500000 3.000000 -26.000000
    endloop
  endfacet
  facet normal -1.000000 0.000000 0.000000
    outer loop
      vertex 12.500000 0.000000 26.000000
      vertex 12.500000 3.000000 -26.000000
      vertex 12.500000 0.000000 -26.000000
    endloop
  endfacet
  facet normal 1.000000 0.000000 0.000000
    outer loop
      vertex -12.500000 0.000000 -26.000000
      vertex -12.500000 3.000000 -26.000000
      vertex -12.500000 3.000000 26.000000
    endloop
  endfacet
  facet normal 1.000000 0.000000 0.000000
    outer loop
      vertex -12.500000 0.000000 -26.000000
      vertex -12.500000 3.000000 26.000000
      vertex -12.500000 0.000000 26.000000
    endloop
  endfacet
  facet normal 0.000000 -1.000000 0.000000
    outer loop
      vertex -11.000000 6.000000 6.000000
      vertex 11.000000 6.000000 6.000000
      vertex 11.000000 6.000000 14.000000
    endloop
  endfacet
  facet normal 0.000000 -1.000000 0.000000
    outer loop
      vertex -11.000000 6.000000 6.000000
      vertex 11.000000 6.000000 14.000000
      vertex -11.000000 6.000000 14.000000
    endloop
  endfacet
  facet normal 0.000000 1.000000 0.000000
    outer loop
      vertex -11.000000 3.000000 14.000000
      vertex 11.000000 3.000000 14.000000
      vertex 11.000000 3.000000 6.000000
    endloop
  endfacet
  facet normal 0.000000 1.000000 0.000000
    outer loop
      vertex -11.000000 3.000000 14.000000
      vertex 11.000000 3.000000 6.000000
      vertex -11.000000 3.000000 6.000000
    endloop
  endfacet
  facet normal 0.000000 0.000000 -1.000000
    outer loop
      vertex -11.000000 6.000000 14.000000
      vertex 11.000000 6.000000 14.000000
      vertex 11.000000 3.000000 14.000000
    endloop
  endfacet
  facet normal 0.000000 0.000000 -1.000000
    outer loop
      vertex -11.000000 6.000000 14.000000
      vertex 11.000000 3.000000 14.000000
      vertex -11.000000 3.000000 14.000000
    endloop
  endfacet
  facet normal 0.000000 0.000000 1.000000
    outer loop
      vertex 11.000000 3.000000 6.000000
      vertex 11.000000 6.000000 6.000000
      vertex -11.000000 6.000000 6.000000
    endloop
  endfacet
  facet normal 0.000000 0.000000 1.000000
    outer loop
      vertex 11.000000 3.000000 6.000000
      vertex -11.000000 6.000000 6.000000
      vertex -11.000000 3.000000 6.000000
    endloop
  endfacet
  facet normal -1.000000 0.000000 0.000000
    outer loop
      vertex 11.000000 3.000000 14.000000
      vertex 11.000000 6.000000 14.000000
      vertex 11.000000 6.000000 6.000000
    endloop
  endfacet
  facet normal -1.000000 0.000000 0.000000
    outer loop
      vertex 11.000000 3.000000 14.000000
      vertex 11.000000 6.000000 6.000000
      vertex 11.000000 3.000000 6.000000
    endloop
  endfacet
  facet normal 1.000000 0.000000 0.000000
    outer loop
      vertex -11.000000 3.000000 6.000000
      vertex -11.000000 6.000000 6.000000
      vertex -11.000000 6.000000 14.000000
    endloop
  endfacet
  facet normal 1.000000 0.000000 0.000000
    outer loop
      vertex -11.000000 3.000000 6.000000
      vertex -11.000000 6.000000 14.000000
      vertex -11.000000 3.000000 14.000000
    endloop
  endfacet
  facet normal 0.000000 -1.000000 0.000000
    outer loop
      vertex -11.000000 6.000000 -10.000000
      vertex 11.000000 6.000000 -10.000000
      vertex 11.000000 6.000000 -2.000000
    endloop
  endfacet
  facet normal 0.000000 -1.000000 0.000000
    outer loop
      vertex -11.000000 6.000000 -10.000000
      vertex 11.000000 6.000000 -2.000000
      vertex -11.000000 6.000000 -2.000000
    endloop
  endfacet
  facet normal 0.000000 1.000000 0.000000
    outer loop
      vertex -11.000000 3.000000 -2.000000
      vertex 11.000000 3.000000 -2.000000
      vertex 11.000000 3.000000 -10.000000
    endloop
  endfacet
  facet normal 0.000000 1.000000 0.000000
    outer loop
      vertex -11.000000 3.000000 -2.000000
      vertex 11.000000 3.000000 -10.000000
      vertex -11.000000 3.000000 -10.000000
    endloop
  endfacet
  facet normal 0.000000 0.000000 -1.000000
    outer loop
      vertex -11.000000 6.000000 -2.000000
      vertex 11.000000 6.000000 -2.000000
      vertex 11.000000 3.000000 -2.000000
    endloop
  endfacet
  facet normal 0.000000 0.000000 -1.000000
    outer loop
      vertex -11.000000 6.000000 -2.000000
      vertex 11.000000 3.000000 -2.000000
      vertex -11.000000 3.000000 -2.000000
    endloop
  endfacet
  facet normal 0.000000 0.000000 1.000000
    outer loop
      vertex 11.000000 3.000000 -10.000000
      vertex 11.000000 6.000000 -10.000000
      vertex -11.000000 6.000000 -10.000000
    endloop
  endfacet
  facet normal 0.000000 0.000000 1.000000
    outer loop
      vertex 11.000000 3.000000 -10.000000
      vertex -11.000000 6.000000 -10.000000
      vertex -11.000000 3.000000 -10.000000
    endloop
  endfacet
  facet normal -1.000000 0.000000 0.000000
    outer loop
      vertex 11.000000 3.000000 -2.000000
      vertex 11.000000 6.000000 -2.000000
      vertex 11.000000 6.000000 -10.000000
    endloop
  endfacet
  facet normal -1.000000 0.000000 0.000000
    outer loop
      vertex 11.000000 3.000000 -2.000000
      vertex 11.000000 6.000000 -10.000000
      vertex 11.000000 3.000000 -10.000000
    endloop
  endfacet
  facet normal 1.000000 0.000000 0.000000
    outer loop
      vertex -11.000000 3.000000 -10.000000
      vertex -11.000000 6.000000 -10.000000
      vertex -11.000000 6.000000 -2.000000
    endloop
  endfacet
  facet normal 1.000000 0.000000 0.000000
    outer loop
      vertex -11.000000 3.000000 -10.000000
      vertex -11.000000 6.000000 -2.000000
      vertex -11.000000 3.000000 -2.000000
    endloop
  endfacet
  facet normal 0.000000 -1.000000 0.000000
    outer loop
      vertex 0.000000 15.000000 -18.000000
      vertex 5.000000 15.000000 -18.000000
      vertex 4.829629 15.000000 -16.705905
    endloop
  endfacet
  facet normal 0.000000 1.000000 0.000000
    outer loop
      vertex 0.000000 3.000000 -18.000000
      vertex 4.829629 3.000000 -16.705905
      vertex 5.000000 3.000000 -18.000000
    endloop
  endfacet
  facet normal -0.991445 0.000000 -0.130526
    outer loop
      vertex 5.000000 3.000000 -18.000000
      vertex 4.829629 3.000000 -16.705905
      vertex 4.829629 15.000000 -16.705905
    endloop
  endfacet
  facet normal -0.991445 0.000000 -0.130526
    outer loop
      vertex 5.000000 3.000000 -18.000000
      vertex 4.829629 15.000000 -16.705905
      vertex 5.000000 15.000000 -18.000000
    endloop
  endfacet
  facet normal 0.000000 -1.000000 0.000000
    outer loop
      vertex 0.000000 15.000000 -18.000000
      vertex 4.829629 15.000000 -16.705905
      vertex 4.330127 15.000000 -15.500000
    endloop
  endfacet
  facet normal 0.000000 1.000000 0.000000
    outer loop
      vertex 0.000000 3.000000 -18.000000
      vertex 4.330127 3.000000 -15.500000
      vertex 4.829629 3.000000 -16.705905
    endloop
  endfacet
  facet normal -0.923880 0.000000 -0.382683
    outer loop
      vertex 4.829629 3.000000 -16.705905
      vertex 4.330127 3.000000 -15.500000
      vertex 4.330127 15.000000 -15.500000
    endloop
  endfacet
  facet normal -0.923880 0.000000 -0.382683
    outer loop
      vertex 4.829629 3.000000 -16.705905
      vertex 4.330127 15.000000 -15.500000
      vertex 4.829629 15.000000 -16.705905
    endloop
  endfacet
  facet normal 0.000000 -1.000000 0.000000
    outer loop
      vertex 0.000000 15.000000 -18.000000
      vertex 4.330127 15.000000 -15.500000
      vertex 3.535534 15.000000 -14.464466
    endloop
  endfacet
  facet normal 0.000000 1.000000 0.000000
    outer loop
      vertex 0.000000 3.000000 -18.000000
      vertex 3.535534 3.000000 -14.464466
      vertex 4.330127 3.000000 -15.500000
    endloop
  endfacet
  facet normal -0.793353 0.000000 -0.608761
    outer loop
      vertex 4.330127 3.000000 -15.500000
      vertex 3.535534 3.000000 -14.464466
      vertex 3.535534 15.000000 -14.464466
    endloop
  endfacet
  facet normal -0.793353 0.000000 -0.608761
    outer loop
      vertex 4.330127 3.000000 -15.500000
      vertex 3.535534 15.000000 -14.464466
      vertex 4.330127 15.000000 -15.500000
    endloop
  endfacet
  facet normal 0.000000 -1.000000 0.000000
    outer loop
      vertex 0.000000 15.000000 -18.000000
      vertex 3.535534 15.000000 -14.464466
      vertex 2.500000 15.000000 -13.669873
    endloop
  endfacet
  facet normal 0.000000 1.000000 0.000000
    outer loop
      vertex 0.000000 3.000000 -18.000000
      vertex 2.500000 3.000000 -13.669873
      vertex 3.535534 3.000000 -14.464466
    endloop
  endfacet
  facet normal -0.608761 0.000000 -0.793353
    outer loop
      vertex 3.535534 3.000000 -14.464466
      vertex 2.500000 3.000000 -13.669873
      vertex 2.500000 15.000000 -13.669873
    endloop
  endfacet
  facet normal -0.608761 0.000000 -0.793353
    outer loop
      vertex 3.535534 3.000000 -14.464466
      vertex 2.500000 15.000000 -13.669873
      vertex 3.535534 15.000000 -14.464466
    endloop
  endfacet
  facet normal 0.000000 -1.000000 0.000000
    outer loop
      vertex 0.000000 15.000000 -18.000000
      vertex 2.500000 15.000000 -13.669873
      vertex 1.294095 15.000000 -13.170371
    endloop
  endfacet
  facet normal 0.000000 1.000000 0.000000
    outer loop
      vertex 0.000000 3.000000 -18.000000
      vertex 1.294095 3.000000 -13.170371
      vertex 2.500000 3.000000 -13.669873
    endloop
  endfacet
  facet normal -0.382683 0.000000 -0.923880
    outer loop
      vertex 2.500000 3.000000 -13.669873
      vertex 1.294095 3.000000 -13.170371
      vertex 1.294095 15.000000 -13.170371
    endloop
  endfacet
  facet normal -0.382683 0.000000 -0.923880
    outer loop
      vertex 2.500000 3.000000 -13.669873
      vertex 1.294095 15.000000 -13.170371
      vertex 2.500000 15.000000 -13.669873
    endloop
  endfacet
  facet normal 0.000000 -1.000000 0.000000
    outer loop
      vertex 0.000000 15.000000 -18.000000
      vertex 1.294095 15.000000 -13.170371
      vertex 0.000000 15.000000 -13.000000
    endloop
  endfacet
  facet normal 0.000000 1.000000 0.000000
    outer loop
      vertex 0.000000 3.000000 -18.000000
      vertex 0.000000 3.000000 -13.000000
      vertex 1.294095 3.000000 -13.170371
    endloop
  endfacet
  facet normal -0.130526 0.000000 -0.991445
    outer loop
      vertex 1.294095 3.000000 -13.170371
      vertex 0.000000 3.000000 -13.000000
      vertex 0.000000 15.000000 -13.000000
    endloop
  endfacet
  facet normal -0.130526 0.000000 -0.991445
    outer loop
      vertex 1.294095 3.000000 -13.170371
      vertex 0.000000 15.000000 -13.000000
      vertex 1.294095 15.000000 -13.170371
    endloop
  endfacet
  facet normal 0.000000 -1.000000 0.000000
    outer loop
      vertex 0.000000 15.000000 -18.000000
      vertex 0.000000 15.000000 -13.000000
      vertex -1.294095 15.000000 -13.170371
    endloop
  endfacet
  facet normal 0.000000 1.000000 0.000000
    outer loop
      vertex 0.000000 3.000000 -18.000000
      vertex -1.294095 3.000000 -13.170371
      vertex 0.000000 3.000000 -13.000000
    endloop
  endfacet
  facet normal 0.130526 0.000000 -0.991445
    outer loop
      vertex 0.000000 3.000000 -13.000000
      vertex -1.294095 3.000000 -13.170371
      vertex -1.294095 15.000000 -13.170371
    endloop
  endfacet
  facet normal 0.130526 0.000000 -0.991445
    outer loop
      vertex 0.000000 3.000000 -13.000000
      vertex -1.294095 15.000000 -13.170371
      vertex 0.000000 15.000000 -13.000000
    endloop
  endfacet
  facet normal 0.000000 -1.000000 0.000000
    outer loop
      vertex 0.000000 15.000000 -18.000000
      vertex -1.294095 15.000000 -13.170371
      vertex -2.500000 15.000000 -13.669873
    endloop
  endfacet
  facet normal 0.000000 1.000000 0.000000
    outer loop
      vertex 0.000000 3.000000 -18.000000
      vertex -2.500000 3.000000 -13.669873
      vertex -1.294095 3.000000 -13.170371
    endloop
  endfacet
  facet normal 0.382683 0.000000 -0.923880
    outer loop
      vertex -1.294095 3.000000 -13.170371
      vertex -2.500000 3.000000 -13.669873
      vertex -2.500000 15.000000 -13.669873
    endloop
  endfacet
  facet normal 0.382683 0.000000 -0.923880
    outer loop
      vertex -1.294095 3.000000 -13.170371
      vertex -2.500000 15.000000 -13.669873
      vertex -1.294095 15.000000 -13.170371
    endloop
  endfacet
  facet normal 0.000000 -1.000000 0.000000
    outer loop
      vertex 0.000000 15.000000 -18.000000
      vertex -2.500000 15.000000 -13.669873
      vertex -3.535534 15.000000 -14.464466
    endloop
  endfacet
  facet normal 0.000000 1.000000 0.000000
    outer loop
      vertex 0.000000 3.000000 -18.000000
      vertex -3.535534 3.000000 -14.464466
      vertex -2.500000 3.000000 -13.669873
    endloop
  endfacet
  facet normal 0.608761 0.000000 -0.793353
    outer loop
      vertex -2.500000 3.000000 -13.669873
      vertex -3.535534 3.000000 -14.464466
      vertex -3.535534 15.000000 -14.464466
    endloop
  endfacet
  facet normal 0.608761 0.000000 -0.793353
    outer loop
      vertex -2.500000 3.000000 -13.669873
      vertex -3.535534 15.000000 -14.464466
      vertex -2.500000 15.000000 -13.669873
    endloop
  endfacet
  facet normal 0.000000 -1.000000 0.000000
    outer loop
      vertex 0.000000 15.000000 -18.000000
      vertex -3.535534 15.000000 -14.464466
      vertex -4.330127 15.000000 -15.500000
    endloop
  endfacet
  facet normal 0.000000 1.000000 0.000000
    outer loop
      vertex 0.000000 3.000000 -18.000000
      vertex -4.330127 3.000000 -15.500000
      vertex -3.535534 3.000000 -14.464466
    endloop
  endfacet
  facet normal 0.793353 0.000000 -0.608761
    outer loop
      vertex -3.535534 3.000000 -14.464466
      vertex -4.330127 3.000000 -15.500000
      vertex -4.330127 15.000000 -15.500000
    endloop
  endfacet
  facet normal 0.793353 0.000000 -0.608761
    outer loop
      vertex -3.535534 3.000000 -14.464466
      vertex -4.330127 15.000000 -15.500000
      vertex -3.535534 15.000000 -14.464466
    endloop
  endfacet
  facet normal 0.000000 -1.000000 0.000000
    outer loop
      vertex 0.000000 15.000000 -18.000000
      vertex -4.330127 15.000000 -15.500000
      vertex -4.829629 15.000000 -16.705905
    endloop
  endfacet
  facet normal 0.000000 1.000000 0.000000
    outer loop
      vertex 0.000000 3.000000 -18.000000
      vertex -4.829629 3.000000 -16.705905
      vertex -4.330127 3.000000 -15.500000
    endloop
  endfacet
  facet normal 0.923880 0.000000 -0.382683
    outer loop
      vertex -4.330127 3.000000 -15.500000
      vertex -4.829629 3.000000 -16.705905
      vertex -4.829629 15.000000 -16.705905
    endloop
  endfacet
  facet normal 0.923880 0.000000 -0.382683
    outer loop
      vertex -4.330127 3.000000 -15.500000
      vertex -4.829629 15.000000 -16.705905
      vertex -4.330127 15.000000 -15.500000
    endloop
  endfacet
  facet normal 0.000000 -1.000000 0.000000
    outer loop
      vertex 0.000000 15.000000 -18.000000
      vertex -4.829629 15.000000 -16.705905
      vertex -5.000000 15.000000 -18.000000
    endloop
  endfacet
  facet normal 0.000000 1.000000 0.000000
    outer loop
      vertex 0.000000 3.000000 -18.000000
      vertex -5.000000 3.000000 -18.000000
      vertex -4.829629 3.000000 -16.705905
    endloop
  endfacet
  facet normal 0.991445 0.000000 -0.130526
    outer loop
      vertex -4.829629 3.000000 -16.705905
      vertex -5.000000 3.000000 -18.000000
      vertex -5.000000 15.000000 -18.000000
    endloop
  endfacet
  facet normal 0.991445 0.000000 -0.130526
    outer loop
      vertex -4.829629 3.000000 -16.705905
      vertex -5.000000 15.000000 -18.000000
      vertex -4.829629 15.000000 -16.705905
    endloop
  endfacet
  facet normal 0.000000 -1.000000 0.000000
    outer loop
      vertex 0.000000 15.000000 -18.000000
      vertex -5.000000 15.000000 -18.000000
      vertex -4.829629 15.000000 -19.294095
    endloop
  endfacet
  facet normal 0.000000 1.000000 0.000000
    outer loop
      vertex 0.000000 3.000000 -18.000000
      vertex -4.829629 3.000000 -19.294095
      vertex -5.000000 3.000000 -18.000000
    endloop
  endfacet
  facet normal 0.991445 0.000000 0.130526
    outer loop
      vertex -5.000000 3.000000 -18.000000
      vertex -4.829629 3.000000 -19.294095
      vertex -4.829629 15.000000 -19.294095
    endloop
  endfacet
  facet normal 0.991445 0.000000 0.130526
    outer loop
      vertex -5.000000 3.000000 -18.000000
      vertex -4.829629 15.000000 -19.294095
      vertex -5.000000 15.000000 -18.000000
    endloop
  endfacet
  facet normal 0.000000 -1.000000 0.000000
    outer loop
      vertex 0.000000 15.000000 -18.000000
      vertex -4.829629 15.000000 -19.294095
      vertex -4.330127 15.000000 -20.500000
    endloop
  endfacet
  facet normal 0.000000 1.000000 0.000000
    outer loop
      vertex 0.000000 3.000000 -18.000000
      vertex -4.330127 3.000000 -20.500000
      vertex -4.829629 3.000000 -19.294095
    endloop
  endfacet
  facet normal 0.923880 0.000000 0.382683
    outer loop
      vertex -4.829629 3.000000 -19.294095
      vertex -4.330127 3.000000 -20.500000
      vertex -4.330127 15.000000 -20.500000
    endloop
  endfacet
  facet normal 0.923880 0.000000 0.382683
    outer loop
      vertex -4.829629 3.000000 -19.294095
      vertex -4.330127 15.000000 -20.500000
      vertex -4.829629 15.000000 -19.294095
    endloop
  endfacet
  facet normal 0.000000 -1.000000 0.000000
    outer loop
      vertex 0.000000 15.000000 -18.000000
      vertex -4.330127 15.000000 -20.500000
      vertex -3.535534 15.000000 -21.535534
    endloop
  endfacet
  facet normal 0.000000 1.000000 0.000000
    outer loop
      vertex 0.000000 3.000000 -18.000000
      vertex -3.535534 3.000000 -21.535534
      vertex -4.330127 3.000000 -20.500000
    endloop
  endfacet
  facet normal 0.793353 0.000000 0.608761
    outer loop
      vertex -4.330127 3.000000 -20.500000
      vertex -3.535534 3.000000 -21.535534
      vertex -3.535534 15.000000 -21.535534
    endloop
  endfacet
  facet normal 0.793353 0.000000 0.608761
    outer loop
      vertex -4.330127 3.000000 -20.500000
      vertex -3.535534 15.000000 -21.535534
      vertex -4.330127 15.000000 -20.500000
    endloop
  endfacet
  facet normal 0.000000 -1.000000 0.000000
    outer loop
      vertex 0.000000 15.000000 -18.000000
      vertex -3.535534 15.000000 -21.535534
      vertex -2.500000 15.000000 -22.330127
    endloop
  endfacet
  facet normal 0.000000 1.000000 0.000000
    outer loop
      vertex 0.000000 3.000000 -18.000000
      vertex -2.500000 3.000000 -22.330127
      vertex -3.535534 3.000000 -21.535534
    endloop
  endfacet
  facet normal 0.608761 0.000000 0.793353
    outer loop
      vertex -3.535534 3.000000 -21.535534
      vertex -2.500000 3.000000 -22.330127
      vertex -2.500000 15.000000 -22.330127
    endloop
  endfacet
  facet normal 0.608761 0.000000 0.793353
    outer loop
      vertex -3.535534 3.000000 -21.535534
      vertex -2.500000 15.000000 -22.330127
      vertex -3.535534 15.000000 -21.535534
    endloop
  endfacet
  facet normal 0.000000 -1.000000 0.000000
    outer loop
      vertex 0.000000 15.000000 -18.000000
      vertex -2.500000 15.000000 -22.330127
      vertex -1.294095 15.000000 -22.829629
    endloop
  endfacet
  facet normal 0.000000 1.000000 0.000000
    outer loop
      vertex 0.000000 3.000000 -18.000000
      vertex -1.294095 3.000000 -22.829629
      vertex -2.500000 3.000000 -22.330127
    endloop
  endfacet
  facet normal 0.382683 0.000000 0.923880
    outer loop
      vertex -2.500000 3.000000 -22.330127
      vertex -1.294095 3.000000 -22.829629
      vertex -1.294095 15.000000 -22.829629
    endloop
  endfacet
  facet normal 0.382683 0.000000 0.923880
    outer loop
      vertex -2.500000 3.000000 -22.330127
      vertex -1.294095 15.000000 -22.829629
      vertex -2.500000 15.000000 -22.330127
    endloop
  endfacet
  facet normal 0.000000 -1.000000 0.000000
    outer loop
      vertex 0.000000 15.000000 -18.000000
      vertex -1.294095 15.000000 -22.829629
      vertex -0.000000 15.000000 -23.000000
    endloop
  endfacet
  facet normal 0.000000 1.000000 0.000000
    outer loop
      vertex 0.000000 3.000000 -18.000000
      vertex -0.000000 3.000000 -23.000000
      vertex -1.294095 3.000000 -22.829629
    endloop
  endfacet
  facet normal 0.130526 0.000000 0.991445
    outer loop
      vertex -1.294095 3.000000 -22.829629
      vertex -0.000000 3.000000 -23.000000
      vertex -0.000000 15.000000 -23.000000
    endloop
  endfacet
  facet normal 0.130526 0.000000 0.991445
    outer loop
      vertex -1.294095 3.000000 -22.829629
      vertex -0.000000 15.000000 -23.000000
      vertex -1.294095 15.000000 -22.829629
    endloop
  endfacet
  facet normal 0.000000 -1.000000 0.000000
    outer loop
      vertex 0.000000 15.000000 -18.000000
      vertex -0.000000 15.000000 -23.000000
      vertex 1.294095 15.000000 -22.829629
    endloop
  endfacet
  facet normal 0.000000 1.000000 0.000000
    outer loop
      vertex 0.000000 3.000000 -18.000000
      vertex 1.294095 3.000000 -22.829629
      vertex -0.000000 3.000000 -23.000000
    endloop
  endfacet
  facet normal -0.130526 0.000000 0.991445
    outer loop
      vertex -0.000000 3.000000 -23.000000
      vertex 1.294095 3.000000 -22.829629
      vertex 1.294095 15.000000 -22.829629
    endloop
  endfacet
  facet normal -0.130526 0.000000 0.991445
    outer loop
      vertex -0.000000 3.000000 -23.000000
      vertex 1.294095 15.000000 -22.829629
      vertex -0.000000 15.000000 -23.000000
    endloop
  endfacet
  facet normal 0.000000 -1.000000 0.000000
    outer loop
      vertex 0.000000 15.000000 -18.000000
      vertex 1.294095 15.000000 -22.829629
      vertex 2.500000 15.000000 -22.330127
    endloop
  endfacet
  facet normal 0.000000 1.000000 0.000000
    outer loop
      vertex 0.000000 3.000000 -18.000000
      vertex 2.500000 3.000000 -22.330127
      vertex 1.294095 3.000000 -22.829629
    endloop
  endfacet
  facet normal -0.382683 0.000000 0.923880
    outer loop
      vertex 1.294095 3.000000 -22.829629
      vertex 2.500000 3.000000 -22.330127
      vertex 2.500000 15.000000 -22.330127
    endloop
  endfacet
  facet normal -0.382683 0.000000 0.923880
    outer loop
      vertex 1.294095 3.000000 -22.829629
      vertex 2.500000 15.000000 -22.330127
      vertex 1.294095 15.000000 -22.829629
    endloop
  endfacet
  facet normal 0.000000 -1.000000 0.000000
    outer loop
      vertex 0.000000 15.000000 -18.000000
      vertex 2.500000 15.000000 -22.330127
      vertex 3.535534 15.000000 -21.535534
    endloop
  endfacet
  facet normal 0.000000 1.000000 0.000000
    outer loop
      vertex 0.000000 3.000000 -18.000000
      vertex 3.535534 3.000000 -21.535534
      vertex 2.500000 3.000000 -22.330127
    endloop
  endfacet
  facet normal -0.608761 0.000000 0.793353
    outer loop
      vertex 2.500000 3.000000 -22.330127
      vertex 3.535534 3.000000 -21.535534
      vertex 3.535534 15.000000 -21.535534
    endloop
  endfacet
  facet normal -0.608761 0.000000 0.793353
    outer loop
      vertex 2.500000 3.000000 -22.330127
      vertex 3.535534 15.000000 -21.535534
      vertex 2.500000 15.000000 -22.330127
    endloop
  endfacet
  facet normal 0.000000 -1.000000 0.000000
    outer loop
      vertex 0.000000 15.000000 -18.000000
      vertex 3.535534 15.000000 -21.535534
      vertex 4.330127 15.000000 -20.500000
    endloop
  endfacet
  facet normal 0.000000 1.000000 0.000000
    outer loop
      vertex 0.000000 3.000000 -18.000000
      vertex 4.330127 3.000000 -20.500000
      vertex 3.535534 3.000000 -21.535534
    endloop
  endfacet
  facet normal -0.793353 0.000000 0.608761
    outer loop
      vertex 3.535534 3.000000 -21.535534
      vertex 4.330127 3.000000 -20.500000
      vertex 4.330127 15.000000 -20.500000
    endloop
  endfacet
  facet normal -0.793353 0.000000 0.608761
    outer loop
      vertex 3.535534 3.000000 -21.535534
      vertex 4.330127 15.000000 -20.500000
      vertex 3.535534 15.000000 -21.535534
    endloop
  endfacet
  facet normal 0.000000 -1.000000 0.000000
    outer loop
      vertex 0.000000 15.000000 -18.000000
      vertex 4.330127 15.000000 -20.500000
      vertex 4.829629 15.000000 -19.294095
    endloop
  endfacet
  facet normal 0.000000 1.000000 0.000000
    outer loop
      vertex 0.000000 3.000000 -18.000000
      vertex 4.829629 3.000000 -19.294095
      vertex 4.330127 3.000000 -20.500000
    endloop
  endfacet
  facet normal -0.923880 0.000000 0.382683
    outer loop
      vertex 4.330127 3.000000 -20.500000
      vertex 4.829629 3.000000 -19.294095
      vertex 4.829629 15.000000 -19.294095
    endloop
  endfacet
  facet normal -0.923880 0.000000 0.382683
    outer loop
      vertex 4.330127 3.000000 -20.500000
      vertex 4.829629 15.000000 -19.294095
      vertex 4.330127 15.000000 -20.500000
    endloop
  endfacet
  facet normal 0.000000 -1.000000 0.000000
    outer loop
      vertex 0.000000 15.000000 -18.000000
      vertex 4.829629 15.000000 -19.294095
      vertex 5.000000 15.000000 -18.000000
    endloop
  endfacet
  facet normal 0.000000 1.000000 0.000000
    outer loop
      vertex 0.000000 3.000000 -18.000000
      vertex 5.000000 3.000000 -18.000000
      vertex 4.829629 3.000000 -19.294095
    endloop
  endfacet
  facet normal -0.991445 0.000000 0.130526
    outer loop
      vertex 4.829629 3.000000 -19.294095
      vertex 5.000000 3.000000 -18.000000
      vertex 5.000000 15.000000 -18.000000
    endloop
  endfacet
  facet normal -0.991445 0.000000 0.130526
    outer loop
      vertex 4.829629 3.000000 -19.294095
      vertex 5.000000 15.000000 -18.000000
      vertex 4.829629 15.000000 -19.294095
    endloop
  endfacet
  facet normal 0.000000 -1.000000 0.000000
    outer loop
      vertex -12.700000 11.000000 -26.200000
      vertex 12.700000 11.000000 -26.200000
      vertex 12.700000 11.000000 26.200000
    endloop
  endfacet
  facet normal 0.000000 -1.000000 0.000000
    outer loop
      vertex -12.700000 11.000000 -26.200000
      vertex 12.700000 11.000000 26.200000
      vertex -12.700000 11.000000 26.200000
    endloop
  endfacet
  facet normal 0.000000 1.000000 0.000000
    outer loop
      vertex -12.700000 0.000000 26.200000
      vertex 12.700000 0.000000 26.200000
      vertex 12.700000 0.000000 -26.200000
    endloop
  endfacet
  facet normal 0.000000 1.000000 0.000000
    outer loop
      vertex -12.700000 0.000000 26.200000
      vertex 12.700000 0.000000 -26.200000
      vertex -12.700000 0.000000 -26.200000
    endloop
  endfacet
  facet normal 0.000000 0.000000 -1.000000
    outer loop
      vertex -12.700000 11.000000 26.200000
      vertex 12.700000 11.000000 26.200000
      vertex 12.700000 0.000000 26.200000
    endloop
  endfacet
  facet normal 0.000000 0.000000 -1.000000
    outer loop
      vertex -12.700000 11.000000 26.200000
      vertex 12.700000 0.000000 26.200000
      vertex -12.700000 0.000000 26.200000
    endloop
  endfacet
  facet normal 0.000000 0.000000 1.000000
    outer loop
      vertex 12.700000 0.000000 -26.200000
      vertex 12.700000 11.000000 -26.200000
      vertex -12.700000 11.000000 -26.200000
    endloop
  endfacet
  facet normal 0.000000 0.000000 1.000000
    outer loop
      vertex 12.700000 0.000000 -26.200000
      vertex -12.700000 11.000000 -26.200000
      vertex -12.700000 0.000000 -26.200000
    endloop
  endfacet
  facet normal -1.000000 0.000000 0.000000
    outer loop
      vertex 12.700000 0.000000 26.200000
      vertex 12.700000 11.000000 26.200000
      vertex 12.700000 11.000000 -26.200000
    endloop
  endfacet
  facet normal -1.000000 0.000000 0.000000
    outer loop
      vertex 12.700000 0.000000 26.200000
      vertex 12.700000 11.000000 -26.200000
      vertex 12.700000 0.000000 -26.200000
    endloop
  endfacet
  facet normal 1.000000 0.000000 0.000000
    outer loop
      vertex -12.700000 0.000000 -26.200000
      vertex -12.700000 11.000000 -26.200000
      vertex -12.700000 11.000000 26.200000
    endloop
  endfacet
  facet normal 1.000000 0.000000 0.000000
    outer loop
      vertex -12.700000 0.000000 -26.200000
      vertex -12.700000 11.000000 26.200000
      vertex -12.700000 0.000000 26.200000
    endloop
  endfacet
endsolid esc_30a_bldc