solid dht22_temperature_humidity
  facet normal 0.000000 1.000000 0.000000
    outer loop
      vertex -2.540000 -14.500000 0.000000
      vertex -2.260000 -14.500000 0.000000
      vertex -2.287729 -14.500000 -0.121487
    endloop
  endfacet
  facet normal 0.000000 -1.000000 0.000000
    outer loop
      vertex -2.540000 -4.000000 -0.000000
      vertex -2.287729 -4.000000 -0.121487
      vertex -2.260000 -4.000000 -0.000000
    endloop
  endfacet
  facet normal -0.974928 0.000000 0.222521
    outer loop
      vertex -2.260000 -4.000000 -0.000000
      vertex -2.287729 -4.000000 -0.121487
      vertex -2.287729 -14.500000 -0.121487
    endloop
  endfacet
  facet normal -0.974928 0.000000 0.222521
    outer loop
      vertex -2.260000 -4.000000 -0.000000
      vertex -2.287729 -14.500000 -0.121487
      vertex -2.260000 -14.500000 0.000000
    endloop
  endfacet
  facet normal 0.000000 1.000000 0.000000
    outer loop
      vertex -2.540000 -14.500000 0.000000
      vertex -2.287729 -14.500000 -0.121487
      vertex -2.365423 -14.500000 -0.218913
    endloop
  endfacet
  facet normal 0.000000 -1.000000 0.000000
    outer loop
      vertex -2.540000 -4.000000 -0.000000
      vertex -2.365423 -4.000000 -0.218913
      vertex -2.287729 -4.000000 -0.121487
    endloop
  endfacet
  facet normal -0.781831 0.000000 0.623490
    outer loop
      vertex -2.287729 -4.000000 -0.121487
      vertex -2.365423 -4.000000 -0.218913
      vertex -2.365423 -14.500000 -0.218913
    endloop
  endfacet
  facet normal -0.781831 0.000000 0.623490
    outer loop
      vertex -2.287729 -4.000000 -0.121487
      vertex -2.365423 -14.500000 -0.218913
      vertex -2.287729 -14.500000 -0.121487
    endloop
  endfacet
  facet normal 0.000000 1.000000 0.000000
    outer loop
      vertex -2.540000 -14.500000 0.000000
      vertex -2.365423 -14.500000 -0.218913
      vertex -2.477694 -14.500000 -0.272980
    endloop
  endfacet
  facet normal 0.000000 -1.000000 0.000000
    outer loop
      vertex -2.540000 -4.000000 -0.000000
      vertex -2.477694 -4.000000 -0.272980
      vertex -2.365423 -4.000000 -0.218913
    endloop
  endfacet
  facet normal -0.433884 0.000000 0.900969
    outer loop
      vertex -2.365423 -4.000000 -0.218913
      vertex -2.477694 -4.000000 -0.272980
      vertex -2.477694 -14.500000 -0.272980
    endloop
  endfacet
  facet normal -0.433884 0.000000 0.900969
    outer loop
      vertex -2.365423 -4.000000 -0.218913
      vertex -2.477694 -14.500000 -0.272980
      vertex -2.365423 -14.500000 -0.218913
    endloop
  endfacet
  facet normal 0.000000 1.000000 0.000000
    outer loop
      vertex -2.540000 -14.500000 0.000000
      vertex -2.477694 -14.500000 -0.272980
      vertex -2.602306 -14.500000 -0.272980
    endloop
  endfacet
  facet normal 0.000000 -1.000000 0.000000
    outer loop
      vertex -2.540000 -4.000000 -0.000000
      vertex -2.602306 -4.000000 -0.272980
      vertex -2.477694 -4.000000 -0.272980
    endloop
  endfacet
  facet normal 0.000000 0.000000 1.000000
    outer loop
      vertex -2.477694 -4.000000 -0.272980
      vertex -2.602306 -4.000000 -0.272980
      vertex -2.602306 -14.500000 -0.272980
    endloop
  endfacet
  facet normal 0.000000 0.000000 1.000000
    outer loop
      vertex -2.477694 -4.000000 -0.272980
      vertex -2.602306 -14.500000 -0.272980
      vertex -2.477694 -14.500000 -0.272980
    endloop
  endfacet
  facet normal 0.000000 1.000000 0.000000
    outer loop
      vertex -2.540000 -14.500000 0.000000
      vertex -2.602306 -14.500000 -0.272980
      vertex -2.714577 -14.500000 -0.218913
    endloop
  endfacet
  facet normal 0.000000 -1.000000 0.000000
    outer loop
      vertex -2.540000 -4.000000 -0.000000
      vertex -2.714577 -4.000000 -0.218913
      vertex -2.602306 -4.000000 -0.272980
    endloop
  endfacet
  facet normal 0.433884 0.000000 0.900969
    outer loop
      vertex -2.602306 -4.000000 -0.272980
      vertex -2.714577 -4.000000 -0.218913
      vertex -2.714577 -14.500000 -0.218913
    endloop
  endfacet
  facet normal 0.433884 0.000000 0.900969
    outer loop
      vertex -2.602306 -4.000000 -0.272980
      vertex -2.714577 -14.500000 -0.218913
      vertex -2.602306 -14.500000 -0.272980
    endloop
  endfacet
  facet normal 0.000000 1.000000 0.000000
    outer loop
      vertex -2.540000 -14.500000 0.000000
      vertex -2.714577 -14.500000 -0.218913
      vertex -2.792271 -14.500000 -0.121487
    endloop
  endfacet
  facet normal 0.000000 -1.000000 0.000000
    outer loop
      vertex -2.540000 -4.000000 -0.000000
      vertex -2.792271 -4.000000 -0.121487
      vertex -2.714577 -4.000000 -0.218913
    endloop
  endfacet
  facet normal 0.781831 0.000000 0.623490
    outer loop
      vertex -2.714577 -4.000000 -0.218913
      vertex -2.792271 -4.000000 -0.121487
      vertex -2.792271 -14.500000 -0.121487
    endloop
  endfacet
  facet normal 0.781831 0.000000 0.623490
    outer loop
      vertex -2.714577 -4.000000 -0.218913
      vertex -2.792271 -14.500000 -0.121487
      vertex -2.714577 -14.500000 -0.218913
    endloop
  endfacet
  facet normal 0.000000 1.000000 0.000000
    outer loop
      vertex -2.540000 -14.500000 0.000000
      vertex -2.792271 -14.500000 -0.121487
      vertex -2.820000 -14.500000 0.000000
    endloop
  endfacet
  facet normal 0.000000 -1.000000 0.000000
    outer loop
      vertex -2.540000 -4.000000 -0.000000
      vertex -2.820000 -4.000000 -0.000000
      vertex -2.792271 -4.000000 -0.121487
    endloop
  endfacet
  facet normal 0.974928 0.000000 0.222521
    outer loop
      vertex -2.792271 -4.000000 -0.121487
      vertex -2.820000 -4.000000 -0.000000
      vertex -2.820000 -14.500000 0.000000
    endloop
  endfacet
  facet normal 0.974928 0.000000 0.222521
    outer loop
      vertex -2.792271 -4.000000 -0.121487
      vertex -2.820000 -14.500000 0.000000
      vertex -2.792271 -14.500000 -0.121487
    endloop
  endfacet
  facet normal 0.000000 1.000000 0.000000
    outer loop
      vertex -2.540000 -14.500000 0.000000
      vertex -2.820000 -14.500000 0.000000
      vertex -2.792271 -14.500000 0.121487
    endloop
  endfacet
  facet normal 0.000000 -1.000000 0.000000
    outer loop
      vertex -2.540000 -4.000000 -0.000000
      vertex -2.792271 -4.000000 0.121487
      vertex -2.820000 -4.000000 -0.000000
    endloop
  endfacet
  facet normal 0.974928 -0.000000 -0.222521
    outer loop
      vertex -2.820000 -4.000000 -0.000000
      vertex -2.792271 -4.000000 0.121487
      vertex -2.792271 -14.500000 0.121487
    endloop
  endfacet
  facet normal 0.974928 -0.000000 -0.222521
    outer loop
      vertex -2.820000 -4.000000 -0.000000
      vertex -2.792271 -14.500000 0.121487
      vertex -2.820000 -14.500000 0.000000
    endloop
  endfacet
  facet normal 0.000000 1.000000 0.000000
    outer loop
      vertex -2.540000 -14.500000 0.000000
      vertex -2.792271 -14.500000 0.121487
      vertex -2.714577 -14.500000 0.218913
    endloop
  endfacet
  facet normal 0.000000 -1.000000 0.000000
    outer loop
      vertex -2.540000 -4.000000 -0.000000
      vertex -2.714577 -4.000000 0.218913
      vertex -2.792271 -4.000000 0.121487
    endloop
  endfacet
  facet normal 0.781831 -0.000000 -0.623490
    outer loop
      vertex -2.792271 -4.000000 0.121487
      vertex -2.714577 -4.000000 0.218913
      vertex -2.714577 -14.500000 0.218913
    endloop
  endfacet
  facet normal 0.781831 -0.000000 -0.623490
    outer loop
      vertex -2.792271 -4.000000 0.121487
      vertex -2.714577 -14.500000 0.218913
      vertex -2.792271 -14.500000 0.121487
    endloop
  endfacet
  facet normal 0.000000 1.000000 0.000000
    outer loop
      vertex -2.540000 -14.500000 0.000000
      vertex -2.714577 -14.500000 0.218913
      vertex -2.602306 -14.500000 0.272980
    endloop
  endfacet
  facet normal 0.000000 -1.000000 0.000000
    outer loop
      vertex -2.540000 -4.000000 -0.000000
      vertex -2.602306 -4.000000 0.272980
      vertex -2.714577 -4.000000 0.218913
    endloop
  endfacet
  facet normal 0.433884 -0.000000 -0.900969
    outer loop
      vertex -2.714577 -4.000000 0.218913
      vertex -2.602306 -4.000000 0.272980
      vertex -2.602306 -14.500000 0.272980
    endloop
  endfacet
  facet normal 0.433884 -0.000000 -0.900969
    outer loop
      vertex -2.714577 -4.000000 0.218913
      vertex -2.602306 -14.500000 0.272980
      vertex -2.714577 -14.500000 0.218913
    endloop
  endfacet
  facet normal 0.000000 1.000000 0.000000
    outer loop
      vertex -2.540000 -14.500000 0.000000
      vertex -2.602306 -14.500000 0.272980
      vertex -2.477694 -14.500000 0.272980
    endloop
  endfacet
  facet normal 0.000000 -1.000000 0.000000
    outer loop
      vertex -2.540000 -4.000000 -0.000000
      vertex -2.477694 -4.000000 0.272980
      vertex -2.602306 -4.000000 0.272980
    endloop
  endfacet
  facet normal 0.000000 -0.000000 -1.000000
    outer loop
      vertex -2.602306 -4.000000 0.272980
      vertex -2.477694 -4.000000 0.272980
      vertex -2.477694 -14.500000 0.272980
    endloop
  endfacet
  facet normal 0.000000 -0.000000 -1.000000
    outer loop
      vertex -2.602306 -4.000000 0.272980
      vertex -2.477694 -14.500000 0.272980
      vertex -2.602306 -14.500000 0.272980
    endloop
  endfacet
  facet normal 0.000000 1.000000 0.000000
    outer loop
      vertex -2.540000 -14.500000 0.000000
      vertex -2.477694 -14.500000 0.272980
      vertex -2.365423 -14.500000 0.218913
    endloop
  endfacet
  facet normal 0.000000 -1.000000 0.000000
    outer loop
      vertex -2.540000 -4.000000 -0.000000
      vertex -2.365423 -4.000000 0.218913
      vertex -2.477694 -4.000000 0.272980
    endloop
  endfacet
  facet normal -0.433884 -0.000000 -0.900969
    outer loop
      vertex -2.477694 -4.000000 0.272980
      vertex -2.365423 -4.000000 0.218913
      vertex -2.365423 -14.500000 0.218913
    endloop
  endfacet
  facet normal -0.433884 -0.000000 -0.900969
    outer loop
      vertex -2.477694 -4.000000 0.272980
      vertex -2.365423 -14.500000 0.218913
      vertex -2.477694 -14.500000 0.272980
    endloop
  endfacet
  facet normal 0.000000 1.000000 0.000000
    outer loop
      vertex -2.540000 -14.500000 0.000000
      vertex -2.365423 -14.500000 0.218913
      vertex -2.287729 -14.500000 0.121487
    endloop
  endfacet
  facet normal 0.000000 -1.000000 0.000000
    outer loop
      vertex -2.540000 -4.000000 -0.000000
      vertex -2.287729 -4.000000 0.121487
      vertex -2.365423 -4.000000 0.218913
    endloop
  endfacet
  facet normal -0.781831 -0.000000 -0.623490
    outer loop
      vertex -2.365423 -4.000000 0.218913
      vertex -2.287729 -4.000000 0.121487
      vertex -2.287729 -14.500000 0.121487
    endloop
  endfacet
  facet normal -0.781831 -0.000000 -0.623490
    outer loop
      vertex -2.365423 -4.000000 0.218913
      vertex -2.287729 -14.500000 0.121487
      vertex -2.365423 -14.500000 0.218913
    endloop
  endfacet
  facet normal 0.000000 1.000000 0.000000
    outer loop
      vertex -2.540000 -14.500000 0.000000
      vertex -2.287729 -14.500000 0.121487
      vertex -2.260000 -14.500000 0.000000
    endloop
  endfacet
  facet normal 0.000000 -1.000000 0.000000
    outer loop
      vertex -2.540000 -4.000000 -0.000000
      vertex -2.260000 -4.000000 -0.000000
      vertex -2.287729 -4.000000 0.121487
    endloop
  endfacet
  facet normal -0.974928 -0.000000 -0.222521
    outer loop
      vertex -2.287729 -4.000000 0.121487
      vertex -2.260000 -4.000000 -0.000000
      vertex -2.260000 -14.500000 0.000000
    endloop
  endfacet
  facet normal -0.974928 -0.000000 -0.222521
    outer loop
      vertex -2.287729 -4.000000 0.121487
      vertex -2.260000 -14.500000 0.000000
      vertex -2.287729 -14.500000 0.121487
    endloop
  endfacet
  facet normal 0.000000 1.000000 0.000000
    outer loop
      vertex 0.000000 -14.500000 0.000000
      vertex 0.280000 -14.500000 0.000000
      vertex 0.252271 -14.500000 -0.121487
    endloop
  endfacet
  facet normal 0.000000 -1.000000 0.000000
    outer loop
      vertex 0.000000 -4.000000 -0.000000
      vertex 0.252271 -4.000000 -0.121487
      vertex 0.280000 -4.000000 -0.000000
    endloop
  endfacet
  facet normal -0.974928 0.000000 0.222521
    outer loop
      vertex 0.280000 -4.000000 -0.000000
      vertex 0.252271 -4.000000 -0.121487
      vertex 0.252271 -14.500000 -0.121487
    endloop
  endfacet
  facet normal -0.974928 0.000000 0.222521
    outer loop
      vertex 0.280000 -4.000000 -0.000000
      vertex 0.252271 -14.500000 -0.121487
      vertex 0.280000 -14.500000 0.000000
    endloop
  endfacet
  facet normal 0.000000 1.000000 0.000000
    outer loop
      vertex 0.000000 -14.500000 0.000000
      vertex 0.252271 -14.500000 -0.121487
      vertex 0.174577 -14.500000 -0.218913
    endloop
  endfacet
  facet normal 0.000000 -1.000000 0.000000
    outer loop
      vertex 0.000000 -4.000000 -0.000000
      vertex 0.174577 -4.000000 -0.218913
      vertex 0.252271 -4.000000 -0.121487
    endloop
  endfacet
  facet normal -0.781831 0.000000 0.623490
    outer loop
      vertex 0.252271 -4.000000 -0.121487
      vertex 0.174577 -4.000000 -0.218913
      vertex 0.174577 -14.500000 -0.218913
    endloop
  endfacet
  facet normal -0.781831 0.000000 0.623490
    outer loop
      vertex 0.252271 -4.000000 -0.121487
      vertex 0.174577 -14.500000 -0.218913
      vertex 0.252271 -14.500000 -0.121487
    endloop
  endfacet
  facet normal 0.000000 1.000000 0.000000
    outer loop
      vertex 0.000000 -14.500000 0.000000
      vertex 0.174577 -14.500000 -0.218913
      vertex 0.062306 -14.500000 -0.272980
    endloop
  endfacet
  facet normal 0.000000 -1.000000 0.000000
    outer loop
      vertex 0.000000 -4.000000 -0.000000
      vertex 0.062306 -4.000000 -0.272980
      vertex 0.174577 -4.000000 -0.218913
    endloop
  endfacet
  facet normal -0.433884 0.000000 0.900969
    outer loop
      vertex 0.174577 -4.000000 -0.218913
      vertex 0.062306 -4.000000 -0.272980
      vertex 0.062306 -14.500000 -0.272980
    endloop
  endfacet
  facet normal -0.433884 0.000000 0.900969
    outer loop
      vertex 0.174577 -4.000000 -0.218913
      vertex 0.062306 -14.500000 -0.272980
      vertex 0.174577 -14.500000 -0.218913
    endloop
  endfacet
  facet normal 0.000000 1.000000 0.000000
    outer loop
      vertex 0.000000 -14.500000 0.000000
      vertex 0.062306 -14.500000 -0.272980
      vertex -0.062306 -14.500000 -0.272980
    endloop
  endfacet
  facet normal 0.000000 -1.000000 0.000000
    outer loop
      vertex 0.000000 -4.000000 -0.000000
      vertex -0.062306 -4.000000 -0.272980
      vertex 0.062306 -4.000000 -0.272980
    endloop
  endfacet
  facet normal 0.000000 0.000000 1.000000
    outer loop
      vertex 0.062306 -4.000000 -0.272980
      vertex -0.062306 -4.000000 -0.272980
      vertex -0.062306 -14.500000 -0.272980
    endloop
  endfacet
  facet normal 0.000000 0.000000 1.000000
    outer loop
      vertex 0.062306 -4.000000 -0.272980
      vertex -0.062306 -14.500000 -0.272980
      vertex 0.062306 -14.500000 -0.272980
    endloop
  endfacet
  facet normal 0.000000 1.000000 0.000000
    outer loop
      vertex 0.000000 -14.500000 0.000000
      vertex -0.062306 -14.500000 -0.272980
      vertex -0.174577 -14.500000 -0.218913
    endloop
  endfacet
  facet normal 0.000000 -1.000000 0.000000
    outer loop
      vertex 0.000000 -4.000000 -0.000000
      vertex -0.174577 -4.000000 -0.218913
      vertex -0.062306 -4.000000 -0.272980
    endloop
  endfacet
  facet normal 0.433884 0.000000 0.900969
    outer loop
      vertex -0.062306 -4.000000 -0.272980
      vertex -0.174577 -4.000000 -0.218913
      vertex -0.174577 -14.500000 -0.218913
    endloop
  endfacet
  facet normal 0.433884 0.000000 0.900969
    outer loop
      vertex -0.062306 -4.000000 -0.272980
      vertex -0.174577 -14.500000 -0.218913
      vertex -0.062306 -14.500000 -0.272980
    endloop
  endfacet
  facet normal 0.000000 1.000000 0.000000
    outer loop
      vertex 0.000000 -14.500000 0.000000
      vertex -0.174577 -14.500000 -0.218913
      vertex -0.252271 -14.500000 -0.121487
    endloop
  endfacet
  facet normal 0.000000 -1.000000 0.000000
    outer loop
      vertex 0.000000 -4.000000 -0.000000
      vertex -0.252271 -4.000000 -0.121487
      vertex -0.174577 -4.000000 -0.218913
    endloop
  endfacet
  facet normal 0.781831 0.000000 0.623490
    outer loop
      vertex -0.174577 -4.000000 -0.218913
      vertex -0.252271 -4.000000 -0.121487
      vertex -0.252271 -14.500000 -0.121487
    endloop
  endfacet
  facet normal 0.781831 0.000000 0.623490
    outer loop
      vertex -0.174577 -4.000000 -0.218913
      vertex -0.252271 -14.500000 -0.121487
      vertex -0.174577 -14.500000 -0.218913
    endloop
  endfacet
  facet normal 0.000000 1.000000 0.000000
    outer loop
      vertex 0.000000 -14.500000 0.000000
      vertex -0.252271 -14.500000 -0.121487
      vertex -0.280000 -14.500000 0.000000
    endloop
  endfacet
  facet normal 0.000000 -1.000000 0.000000
    outer loop
      vertex 0.000000 -4.000000 -0.000000
      vertex -0.280000 -4.000000 -0.000000
      vertex -0.252271 -4.000000 -0.121487
    endloop
  endfacet
  facet normal 0.974928 0.000000 0.222521
    outer loop
      vertex -0.252271 -4.000000 -0.121487
      vertex -0.280000 -4.000000 -0.000000
      vertex -0.280000 -14.500000 0.000000
    endloop
  endfacet
  facet normal 0.974928 0.000000 0.222521
    outer loop
      vertex -0.252271 -4.000000 -0.121487
      vertex -0.280000 -14.500000 0.000000
      vertex -0.252271 -14.500000 -0.121487
    endloop
  endfacet
  facet normal 0.000000 1.000000 0.000000
    outer loop
      vertex 0.000000 -14.500000 0.000000
      vertex -0.280000 -14.500000 0.000000
      vertex -0.252271 -14.500000 0.121487
    endloop
  endfacet
  facet normal 0.000000 -1.000000 0.000000
    outer loop
      vertex 0.000000 -4.000000 -0.000000
      vertex -0.252271 -4.000000 0.121487
      vertex -0.280000 -4.000000 -0.000000
    endloop
  endfacet
  facet normal 0.974928 -0.000000 -0.222521
    outer loop
      vertex -0.280000 -4.000000 -0.000000
      vertex -0.252271 -4.000000 0.121487
      vertex -0.252271 -14.500000 0.121487
    endloop
  endfacet
  facet normal 0.974928 -0.000000 -0.222521
    outer loop
      vertex -0.280000 -4.000000 -0.000000
      vertex -0.252271 -14.500000 0.121487
      vertex -0.280000 -14.500000 0.000000
    endloop
  endfacet
  facet normal 0.000000 1.000000 0.000000
    outer loop
      vertex 0.000000 -14.500000 0.000000
      vertex -0.252271 -14.500000 0.121487
      vertex -0.174577 -14.500000 0.218913
    endloop
  endfacet
  facet normal 0.000000 -1.000000 0.000000
    outer loop
      vertex 0.000000 -4.000000 -0.000000
      vertex -0.174577 -4.000000 0.218913
      vertex -0.252271 -4.000000 0.121487
    endloop
  endfacet
  facet normal 0.781831 -0.000000 -0.623490
    outer loop
      vertex -0.252271 -4.000000 0.121487
      vertex -0.174577 -4.000000 0.218913
      vertex -0.174577 -14.500000 0.218913
    endloop
  endfacet
  facet normal 0.781831 -0.000000 -0.623490
    outer loop
      vertex -0.252271 -4.000000 0.121487
      vertex -0.174577 -14.500000 0.218913
      vertex -0.252271 -14.500000 0.121487
    endloop
  endfacet
  facet normal 0.000000 1.000000 0.000000
    outer loop
      vertex 0.000000 -14.500000 0.000000
      vertex -0.174577 -14.500000 0.218913
      vertex -0.062306 -14.500000 0.272980
    endloop
  endfacet
  facet normal 0.000000 -1.000000 0.000000
    outer loop
      vertex 0.000000 -4.000000 -0.000000
      vertex -0.062306 -4.000000 0.272980
      vertex -0.174577 -4.000000 0.218913
    endloop
  endfacet
  facet normal 0.433884 -0.000000 -0.900969
    outer loop
      vertex -0.174577 -4.000000 0.218913
      vertex -0.062306 -4.000000 0.272980
      vertex -0.062306 -14.500000 0.272980
    endloop
  endfacet
  facet normal 0.433884 -0.000000 -0.900969
    outer loop
      vertex -0.174577 -4.000000 0.218913
      vertex -0.062306 -14.500000 0.272980
      vertex -0.174577 -14.500000 0.218913
    endloop
  endfacet
  facet normal 0.000000 1.000000 0.000000
    outer loop
      vertex 0.000000 -14.500000 0.000000
      vertex -0.062306 -14.500000 0.272980
      vertex 0.062306 -14.500000 0.272980
    endloop
  endfacet
  facet normal 0.000000 -1.000000 0.000000
    outer loop
      vertex 0.000000 -4.000000 -0.000000
      vertex 0.062306 -4.000000 0.272980
      vertex -0.062306 -4.000000 0.272980
    endloop
  endfacet
  facet normal 0.000000 -0.000000 -1.000000
    outer loop
      vertex -0.062306 -4.000000 0.272980
      vertex 0.062306 -4.000000 0.272980
      vertex 0.062306 -14.500000 0.272980
    endloop
  endfacet
  facet normal 0.000000 -0.000000 -1.000000
    outer loop
      vertex -0.062306 -4.000000 0.272980
      vertex 0.062306 -14.500000 0.272980
      vertex -0.062306 -14.500000 0.272980
    endloop
  endfacet
  facet normal 0.000000 1.000000 0.000000
    outer loop
      vertex 0.000000 -14.500000 0.000000
      vertex 0.062306 -14.500000 0.272980
      vertex 0.174577 -14.500000 0.218913
    endloop
  endfacet
  facet normal 0.000000 -1.000000 0.000000
    outer loop
      vertex 0.000000 -4.000000 -0.000000
      vertex 0.174577 -4.000000 0.218913
      vertex 0.062306 -4.000000 0.272980
    endloop
  endfacet
  facet normal -0.433884 -0.000000 -0.900969
    outer loop
      vertex 0.062306 -4.000000 0.272980
      vertex 0.174577 -4.000000 0.218913
      vertex 0.174577 -14.500000 0.218913
    endloop
  endfacet
  facet normal -0.433884 -0.000000 -0.900969
    outer loop
      vertex 0.062306 -4.000000 0.272980
      vertex 0.174577 -14.500000 0.218913
      vertex 0.062306 -14.500000 0.272980
    endloop
  endfacet
  facet normal 0.000000 1.000000 0.000000
    outer loop
      vertex 0.000000 -14.500000 0.000000
      vertex 0.174577 -14.500000 0.218913
      vertex 0.252271 -14.500000 0.121487
    endloop
  endfacet
  facet normal 0.000000 -1.000000 0.000000
    outer loop
      vertex 0.000000 -4.000000 -0.000000
      vertex 0.252271 -4.000000 0.121487
      vertex 0.174577 -4.000000 0.218913
    endloop
  endfacet
  facet normal -0.781831 -0.000000 -0.623490
    outer loop
      vertex 0.174577 -4.000000 0.218913
      vertex 0.252271 -4.000000 0.121487
      vertex 0.252271 -14.500000 0.121487
    endloop
  endfacet
  facet normal -0.781831 -0.000000 -0.623490
    outer loop
      vertex 0.174577 -4.000000 0.218913
      vertex 0.252271 -14.500000 0.121487
      vertex 0.174577 -14.500000 0.218913
    endloop
  endfacet
  facet normal 0.000000 1.000000 0.000000
    outer loop
      vertex 0.000000 -14.500000 0.000000
      vertex 0.252271 -14.500000 0.121487
      vertex 0.280000 -14.500000 0.000000
    endloop
  endfacet
  facet normal 0.000000 -1.000000 0.000000
    outer loop
      vertex 0.000000 -4.000000 -0.000000
      vertex 0.280000 -4.000000 -0.000000
      vertex 0.252271 -4.000000 0.121487
    endloop
  endfacet
  facet normal -0.974928 -0.000000 -0.222521
    outer loop
      vertex 0.252271 -4.000000 0.121487
      vertex 0.280000 -4.000000 -0.000000
      vertex 0.280000 -14.500000 0.000000
    endloop
  endfacet
  facet normal -0.974928 -0.000000 -0.222521
    outer loop
      vertex 0.252271 -4.000000 0.121487
      vertex 0.280000 -14.500000 0.000000
      vertex 0.252271 -14.500000 0.121487
    endloop
  endfacet
  facet normal 0.000000 1.000000 0.000000
    outer loop
      vertex 2.540000 -14.500000 0.000000
      vertex 2.820000 -14.500000 0.000000
      vertex 2.792271 -14.500000 -0.121487
    endloop
  endfacet
  facet normal 0.000000 -1.000000 0.000000
    outer loop
      vertex 2.540000 -4.000000 -0.000000
      vertex 2.792271 -4.000000 -0.121487
      vertex 2.820000 -4.000000 -0.000000
    endloop
  endfacet
  facet normal -0.974928 0.000000 0.222521
    outer loop
      vertex 2.820000 -4.000000 -0.000000
      vertex 2.792271 -4.000000 -0.121487
      vertex 2.792271 -14.500000 -0.121487
    endloop
  endfacet
  facet normal -0.974928 0.000000 0.222521
    outer loop
      vertex 2.820000 -4.000000 -0.000000
      vertex 2.792271 -14.500000 -0.121487
      vertex 2.820000 -14.500000 0.000000
    endloop
  endfacet
  facet normal 0.000000 1.000000 0.000000
    outer loop
      vertex 2.540000 -14.500000 0.000000
      vertex 2.792271 -14.500000 -0.121487
      vertex 2.714577 -14.500000 -0.218913
    endloop
  endfacet
  facet normal 0.000000 -1.000000 0.000000
    outer loop
      vertex 2.540000 -4.000000 -0.000000
      vertex 2.714577 -4.000000 -0.218913
      vertex 2.792271 -4.000000 -0.121487
    endloop
  endfacet
  facet normal -0.781831 0.000000 0.623490
    outer loop
      vertex 2.792271 -4.000000 -0.121487
      vertex 2.714577 -4.000000 -0.218913
      vertex 2.714577 -14.500000 -0.218913
    endloop
  endfacet
  facet normal -0.781831 0.000000 0.623490
    outer loop
      vertex 2.792271 -4.000000 -0.121487
      vertex 2.714577 -14.500000 -0.218913
      vertex 2.792271 -14.500000 -0.121487
    endloop
  endfacet
  facet normal 0.000000 1.000000 0.000000
    outer loop
      vertex 2.540000 -14.500000 0.000000
      vertex 2.714577 -14.500000 -0.218913
      vertex 2.602306 -14.500000 -0.272980
    endloop
  endfacet
  facet normal 0.000000 -1.000000 0.000000
    outer loop
      vertex 2.540000 -4.000000 -0.000000
      vertex 2.602306 -4.000000 -0.272980
      vertex 2.714577 -4.000000 -0.218913
    endloop
  endfacet
  facet normal -0.433884 0.000000 0.900969
    outer loop
      vertex 2.714577 -4.000000 -0.218913
      vertex 2.602306 -4.000000 -0.272980
      vertex 2.602306 -14.500000 -0.272980
    endloop
  endfacet
  facet normal -0.433884 0.000000 0.900969
    outer loop
      vertex 2.714577 -4.000000 -0.218913
      vertex 2.602306 -14.500000 -0.272980
      vertex 2.714577 -14.500000 -0.218913
    endloop
  endfacet
  facet normal 0.000000 1.000000 0.000000
    outer loop
      vertex 2.540000 -14.500000 0.000000
      vertex 2.602306 -14.500000 -0.272980
      vertex 2.477694 -14.500000 -0.272980
    endloop
  endfacet
  facet normal 0.000000 -1.000000 0.000000
    outer loop
      vertex 2.540000 -4.000000 -0.000000
      vertex 2.477694 -4.000000 -0.272980
      vertex 2.602306 -4.000000 -0.272980
    endloop
  endfacet
  facet normal 0.000000 0.000000 1.000000
    outer loop
      vertex 2.602306 -4.000000 -0.272980
      vertex 2.477694 -4.000000 -0.272980
      vertex 2.477694 -14.500000 -0.272980
    endloop
  endfacet
  facet normal 0.000000 0.000000 1.000000
    outer loop
      vertex 2.602306 -4.000000 -0.272980
      vertex 2.477694 -14.500000 -0.272980
      vertex 2.602306 -14.500000 -0.272980
    endloop
  endfacet
  facet normal 0.000000 1.000000 0.000000
    outer loop
      vertex 2.540000 -14.500000 0.000000
      vertex 2.477694 -14.500000 -0.272980
      vertex 2.365423 -14.500000 -0.218913
    endloop
  endfacet
  facet normal 0.000000 -1.000000 0.000000
    outer loop
      vertex 2.540000 -4.000000 -0.000000
      vertex 2.365423 -4.000000 -0.218913
      vertex 2.477694 -4.000000 -0.272980
    endloop
  endfacet
  facet normal 0.433884 0.000000 0.900969
    outer loop
      vertex 2.477694 -4.000000 -0.272980
      vertex 2.365423 -4.000000 -0.218913
      vertex 2.365423 -14.500000 -0.218913
    endloop
  endfacet
  facet normal 0.433884 0.000000 0.900969
    outer loop
      vertex 2.477694 -4.000000 -0.272980
      vertex 2.365423 -14.500000 -0.218913
      vertex 2.477694 -14.500000 -0.272980
    endloop
  endfacet
  facet normal 0.000000 1.000000 0.000000
    outer loop
      vertex 2.540000 -14.500000 0.000000
      vertex 2.365423 -14.500000 -0.218913
      vertex 2.287729 -14.500000 -0.121487
    endloop
  endfacet
  facet normal 0.000000 -1.000000 0.000000
    outer loop
      vertex 2.540000 -4.000000 -0.000000
      vertex 2.287729 -4.000000 -0.121487
      vertex 2.365423 -4.000000 -0.218913
    endloop
  endfacet
  facet normal 0.781831 0.000000 0.623490
    outer loop
      vertex 2.365423 -4.000000 -0.218913
      vertex 2.287729 -4.000000 -0.121487
      vertex 2.287729 -14.500000 -0.121487
    endloop
  endfacet
  facet normal 0.781831 0.000000 0.623490
    outer loop
      vertex 2.365423 -4.000000 -0.218913
      vertex 2.287729 -14.500000 -0.121487
      vertex 2.365423 -14.500000 -0.218913
    endloop
  endfacet
  facet normal 0.000000 1.000000 0.000000
    outer loop
      vertex 2.540000 -14.500000 0.000000
      vertex 2.287729 -14.500000 -0.121487
      vertex 2.260000 -14.500000 0.000000
    endloop
  endfacet
  facet normal 0.000000 -1.000000 0.000000
    outer loop
      vertex 2.540000 -4.000000 -0.000000
      vertex 2.260000 -4.000000 -0.000000
      vertex 2.287729 -4.000000 -0.121487
    endloop
  endfacet
  facet normal 0.974928 0.000000 0.222521
    outer loop
      vertex 2.287729 -4.000000 -0.121487
      vertex 2.260000 -4.000000 -0.000000
      vertex 2.260000 -14.500000 0.000000
    endloop
  endfacet
  facet normal 0.974928 0.000000 0.222521
    outer loop
      vertex 2.287729 -4.000000 -0.121487
      vertex 2.260000 -14.500000 0.000000
      vertex 2.287729 -14.500000 -0.121487
    endloop
  endfacet
  facet normal 0.000000 1.000000 0.000000
    outer loop
      vertex 2.540000 -14.500000 0.000000
      vertex 2.260000 -14.500000 0.000000
      vertex 2.287729 -14.500000 0.121487
    endloop
  endfacet
  facet normal 0.000000 -1.000000 0.000000
    outer loop
      vertex 2.540000 -4.000000 -0.000000
      vertex 2.287729 -4.000000 0.121487
      vertex 2.260000 -4.000000 -0.000000
    endloop
  endfacet
  facet normal 0.974928 -0.000000 -0.222521
    outer loop
      vertex 2.260000 -4.000000 -0.000000
      vertex 2.287729 -4.000000 0.121487
      vertex 2.287729 -14.500000 0.121487
    endloop
  endfacet
  facet normal 0.974928 -0.000000 -0.222521
    outer loop
      vertex 2.260000 -4.000000 -0.000000
      vertex 2.287729 -14.500000 0.121487
      vertex 2.260000 -14.500000 0.000000
    endloop
  endfacet
  facet normal 0.000000 1.000000 0.000000
    outer loop
      vertex 2.540000 -14.500000 0.000000
      vertex 2.287729 -14.500000 0.121487
      vertex 2.365423 -14.500000 0.218913
    endloop
  endfacet
  facet normal 0.000000 -1.000000 0.000000
    outer loop
      vertex 2.540000 -4.000000 -0.000000
      vertex 2.365423 -4.000000 0.218913
      vertex 2.287729 -4.000000 0.121487
    endloop
  endfacet
  facet normal 0.781831 -0.000000 -0.623490
    outer loop
      vertex 2.287729 -4.000000 0.121487
      vertex 2.365423 -4.000000 0.218913
      vertex 2.365423 -14.500000 0.218913
    endloop
  endfacet
  facet normal 0.781831 -0.000000 -0.623490
    outer loop
      vertex 2.287729 -4.000000 0.121487
      vertex 2.365423 -14.500000 0.218913
      vertex 2.287729 -14.500000 0.121487
    endloop
  endfacet
  facet normal 0.000000 1.000000 0.000000
    outer loop
      vertex 2.540000 -14.500000 0.000000
      vertex 2.365423 -14.500000 0.218913
      vertex 2.477694 -14.500000 0.272980
    endloop
  endfacet
  facet normal 0.000000 -1.000000 0.000000
    outer loop
      vertex 2.540000 -4.000000 -0.000000
      vertex 2.477694 -4.000000 0.272980
      vertex 2.365423 -4.000000 0.218913
    endloop
  endfacet
  facet normal 0.433884 -0.000000 -0.900969
    outer loop
      vertex 2.365423 -4.000000 0.218913
      vertex 2.477694 -4.000000 0.272980
      vertex 2.477694 -14.500000 0.272980
    endloop
  endfacet
  facet normal 0.433884 -0.000000 -0.900969
    outer loop
      vertex 2.365423 -4.000000 0.218913
      vertex 2.477694 -14.500000 0.272980
      vertex 2.365423 -14.500000 0.218913
    endloop
  endfacet
  facet normal 0.000000 1.000000 0.000000
    outer loop
      vertex 2.540000 -14.500000 0.000000
      vertex 2.477694 -14.500000 0.272980
      vertex 2.602306 -14.500000 0.272980
    endloop
  endfacet
  facet normal 0.000000 -1.000000 0.000000
    outer loop
      vertex 2.540000 -4.000000 -0.000000
      vertex 2.602306 -4.000000 0.272980
      vertex 2.477694 -4.000000 0.272980
    endloop
  endfacet
  facet normal 0.000000 -0.000000 -1.000000
    outer loop
      vertex 2.477694 -4.000000 0.272980
      vertex 2.602306 -4.000000 0.272980
      vertex 2.602306 -14.500000 0.272980
    endloop
  endfacet
  facet normal 0.000000 -0.000000 -1.000000
    outer loop
      vertex 2.477694 -4.000000 0.272980
      vertex 2.602306 -14.500000 0.272980
      vertex 2.477694 -14.500000 0.272980
    endloop
  endfacet
  facet normal 0.000000 1.000000 0.000000
    outer loop
      vertex 2.540000 -14.500000 0.000000
      vertex 2.602306 -14.500000 0.272980
      vertex 2.714577 -14.500000 0.218913
    endloop
  endfacet
  facet normal 0.000000 -1.000000 0.000000
    outer loop
      vertex 2.540000 -4.000000 -0.000000
      vertex 2.714577 -4.000000 0.218913
      vertex 2.602306 -4.000000 0.272980
    endloop
  endfacet
  facet normal -0.433884 -0.000000 -0.900969
    outer loop
      vertex 2.602306 -4.000000 0.272980
      vertex 2.714577 -4.000000 0.218913
      vertex 2.714577 -14.500000 0.218913
    endloop
  endfacet
  facet normal -0.433884 -0.000000 -0.900969
    outer loop
      vertex 2.602306 -4.000000 0.272980
      vertex 2.714577 -14.500000 0.218913
      vertex 2.602306 -14.500000 0.272980
    endloop
  endfacet
  facet normal 0.000000 1.000000 0.000000
    outer loop
      vertex 2.540000 -14.500000 0.000000
      vertex 2.714577 -14.500000 0.218913
      vertex 2.792271 -14.500000 0.121487
    endloop
  endfacet
  facet normal 0.000000 -1.000000 0.000000
    outer loop
      vertex 2.540000 -4.000000 -0.000000
      vertex 2.792271 -4.000000 0.121487
      vertex 2.714577 -4.000000 0.218913
    endloop
  endfacet
  facet normal -0.781831 -0.000000 -0.623490
    outer loop
      vertex 2.714577 -4.000000 0.218913
      vertex 2.792271 -4.000000 0.121487
      vertex 2.792271 -14.500000 0.121487
    endloop
  endfacet
  facet normal -0.781831 -0.000000 -0.623490
    outer loop
      vertex 2.714577 -4.000000 0.218913
      vertex 2.792271 -14.500000 0.121487
      vertex 2.714577 -14.500000 0.218913
    endloop
  endfacet
  facet normal 0.000000 1.000000 0.000000
    outer loop
      vertex 2.540000 -14.500000 0.000000
      vertex 2.792271 -14.500000 0.121487
      vertex 2.820000 -14.500000 0.000000
    endloop
  endfacet
  facet normal 0.000000 -1.000000 0.000000
    outer loop
      vertex 2.540000 -4.000000 -0.000000
      vertex 2.820000 -4.000000 -0.000000
      vertex 2.792271 -4.000000 0.121487
    endloop
  endfacet
  facet normal -0.974928 -0.000000 -0.222521
    outer loop
      vertex 2.792271 -4.000000 0.121487
      vertex 2.820000 -4.000000 -0.000000
      vertex 2.820000 -14.500000 0.000000
    endloop
  endfacet
  facet normal -0.974928 -0.000000 -0.222521
    outer loop
      vertex 2.792271 -4.000000 0.121487
      vertex 2.820000 -14.500000 0.000000
      vertex 2.792271 -14.500000 0.121487
    endloop
  endfacet
  facet normal 0.000000 -1.000000 0.000000
    outer loop
      vertex -14.000000 4.000000 -6.000000
      vertex 14.000000 4.000000 -6.000000
      vertex 14.000000 4.000000 6.000000
    endloop
  endfacet
  facet normal 0.000000 -1.000000 0.000000
    outer loop
      vertex -14.000000 4.000000 -6.000000
      vertex 14.000000 4.000000 6.000000
      vertex -14.000000 4.000000 6.000000
    endloop
  endfacet
  facet normal 0.000000 1.000000 0.000000
    outer loop
      vertex -14.000000 -4.000000 6.000000
      vertex 14.000000 -4.000000 6.000000
      vertex 14.000000 -4.000000 -6.000000
    endloop
  endfacet
  facet normal 0.000000 1.000000 0.000000
    outer loop
      vertex -14.000000 -4.000000 6.000000
      vertex 14.000000 -4.000000 -6.000000
      vertex -14.000000 -4.000000 -6.000000
    endloop
  endfacet
  facet normal 0.000000 0.000000 -1.000000
    outer loop
      vertex -14.000000 4.000000 6.000000
      vertex 14.000000 4.000000 6.000000
      vertex 14.000000 -4.000000 6.000000
    endloop
  endfacet
  facet normal 0.000000 0.000000 -1.000000
    outer loop
      vertex -14.000000 4.000000 6.000000
      vertex 14.000000 -4.000000 6.000000
      vertex -14.000000 -4.000000 6.000000
    endloop
  endfacet
  facet normal 0.000000 0.000000 1.000000
    outer loop
      vertex 14.000000 -4.000000 -6.000000
      vertex 14.000000 4.000000 -6.000000
      vertex -14.000000 4.000000 -6.000000
    endloop
  endfacet
  facet normal 0.000000 0.000000 1.000000
    outer loop
      vertex 14.000000 -4.000000 -6.000000
      vertex -14.000000 4.000000 -6.000000
      vertex -14.000000 -4.000000 -6.000000
    endloop
  endfacet
  facet normal -1.000000 0.000000 0.000000
    outer loop
      vertex 14.000000 -4.000000 6.000000
      vertex 14.000000 4.000000 6.000000
      vertex 14.000000 4.000000 -6.000000
    endloop
  endfacet
  facet normal -1.000000 0.000000 0.000000
    outer loop
      vertex 14.000000 -4.000000 6.000000
      vertex 14.000000 4.000000 -6.000000
      vertex 14.000000 -4.000000 -6.000000
    endloop
  endfacet
  facet normal 1.000000 0.000000 0.000000
    outer loop
      vertex -14.000000 -4.000000 -6.000000
      vertex -14.000000 4.000000 -6.000000
      vertex -14.000000 4.000000 6.000000
    endloop
  endfacet
  facet normal 1.000000 0.000000 0.000000
    outer loop
      vertex -14.000000 -4.000000 -6.000000
      vertex -14.000000 4.000000 6.000000
      vertex -14.000000 -4.000000 6.000000
    endloop
  endfacet
  facet normal 0.000000 -1.000000 0.000000
    outer loop
      vertex -10.080000 0.690000 5.550000
      vertex 10.080000 0.690000 5.550000
      vertex 10.080000 0.690000 6.550000
    endloop
  endfacet
  facet normal 0.000000 -1.000000 0.000000
    outer loop
      vertex -10.080000 0.690000 5.550000
      vertex 10.080000 0.690000 6.550000
      vertex -10.080000 0.690000 6.550000
    endloop
  endfacet
  facet normal 0.000000 1.000000 0.000000
    outer loop
      vertex -10.080000 0.510000 6.550000
      vertex 10.080000 0.510000 6.550000
      vertex 10.080000 0.510000 5.550000
    endloop
  endfacet
  facet normal 0.000000 1.000000 0.000000
    outer loop
      vertex -10.080000 0.510000 6.550000
      vertex 10.080000 0.510000 5.550000
      vertex -10.080000 0.510000 5.550000
    endloop
  endfacet
  facet normal 0.000000 0.000000 -1.000000
    outer loop
      vertex -10.080000 0.690000 6.550000
      vertex 10.080000 0.690000 6.550000
      vertex 10.080000 0.510000 6.550000
    endloop
  endfacet
  facet normal 0.000000 0.000000 -1.000000
    outer loop
      vertex -10.080000 0.690000 6.550000
      vertex 10.080000 0.510000 6.550000
      vertex -10.080000 0.510000 6.550000
    endloop
  endfacet
  facet normal 0.000000 0.000000 1.000000
    outer loop
      vertex 10.080000 0.510000 5.550000
      vertex 10.080000 0.690000 5.550000
      vertex -10.080000 0.690000 5.550000
    endloop
  endfacet
  facet normal 0.000000 0.000000 1.000000
    outer loop
      vertex 10.080000 0.510000 5.550000
      vertex -10.080000 0.690000 5.550000
      vertex -10.080000 0.510000 5.550000
    endloop
  endfacet
  facet normal -1.000000 0.000000 0.000000
    outer loop
      vertex 10.080000 0.510000 6.550000
      vertex 10.080000 0.690000 6.550000
      vertex 10.080000 0.690000 5.550000
    endloop
  endfacet
  facet normal -1.000000 0.000000 0.000000
    outer loop
      vertex 10.080000 0.510000 6.550000
      vertex 10.080000 0.690000 5.550000
      vertex 10.080000 0.510000 5.550000
    endloop
  endfacet
  facet normal 1.000000 0.000000 0.000000
    outer loop
      vertex -10.080000 0.510000 5.550000
      vertex -10.080000 0.690000 5.550000
      vertex -10.080000 0.690000 6.550000
    endloop
  endfacet
  facet normal 1.000000 0.000000 0.000000
    outer loop
      vertex -10.080000 0.510000 5.550000
      vertex -10.080000 0.690000 6.550000
      vertex -10.080000 0.510000 6.550000
    endloop
  endfacet
  facet normal 0.000000 -1.000000 0.000000
    outer loop
      vertex -7.700000 -1.110000 5.010000
      vertex 7.700000 -1.110000 5.010000
      vertex 7.700000 -1.110000 7.110000
    endloop
  endfacet
  facet normal 0.000000 -1.000000 0.000000
    outer loop
      vertex -7.700000 -1.110000 5.010000
      vertex 7.700000 -1.110000 7.110000
      vertex -7.700000 -1.110000 7.110000
    endloop
  endfacet
  facet normal 0.000000 1.000000 0.000000
    outer loop
      vertex -7.700000 -1.290000 7.110000
      vertex 7.700000 -1.290000 7.110000
      vertex 7.700000 -1.290000 5.010000
    endloop
  endfacet
  facet normal 0.000000 1.000000 0.000000
    outer loop
      vertex -7.700000 -1.290000 7.110000
      vertex 7.700000 -1.290000 5.010000
      vertex -7.700000 -1.290000 5.010000
    endloop
  endfacet
  facet normal 0.000000 0.000000 -1.000000
    outer loop
      vertex -7.700000 -1.110000 7.110000
      vertex 7.700000 -1.110000 7.110000
      vertex 7.700000 -1.290000 7.110000
    endloop
  endfacet
  facet normal 0.000000 0.000000 -1.000000
    outer loop
      vertex -7.700000 -1.110000 7.110000
      vertex 7.700000 -1.290000 7.110000
      vertex -7.700000 -1.290000 7.110000
    endloop
  endfacet
  facet normal 0.000000 0.000000 1.000000
    outer loop
      vertex 7.700000 -1.290000 5.010000
      vertex 7.700000 -1.110000 5.010000
      vertex -7.700000 -1.110000 5.010000
    endloop
  endfacet
  facet normal 0.000000 0.000000 1.000000
    outer loop
      vertex 7.700000 -1.290000 5.010000
      vertex -7.700000 -1.110000 5.010000
      vertex -7.700000 -1.290000 5.010000
    endloop
  endfacet
  facet normal -1.000000 0.000000 0.000000
    outer loop
      vertex 7.700000 -1.290000 7.110000
      vertex 7.700000 -1.110000 7.110000
      vertex 7.700000 -1.110000 5.010000
    endloop
  endfacet
  facet normal -1.000000 0.000000 0.000000
    outer loop
      vertex 7.700000 -1.290000 7.110000
      vertex 7.700000 -1.110000 5.010000
      vertex 7.700000 -1.290000 5.010000
    endloop
  endfacet
  facet normal 1.000000 0.000000 0.000000
    outer loop
      vertex -7.700000 -1.290000 5.010000
      vertex -7.700000 -1.110000 5.010000
      vertex -7.700000 -1.110000 7.110000
    endloop
  endfacet
  facet normal 1.000000 0.000000 0.000000
    outer loop
      vertex -7.700000 -1.290000 5.010000
      vertex -7.700000 -1.110000 7.110000
      vertex -7.700000 -1.290000 7.110000
    endloop
  endfacet
endsolid dht22_temperature_humidity