solid peristaltic_pump_12v
  facet normal 0.000000 -1.000000 0.000000
    outer loop
      vertex -12.500000 20.000000 -20.000000
      vertex 12.500000 20.000000 -20.000000
      vertex 12.500000 20.000000 20.000000
    endloop
  endfacet
  facet normal 0.000000 -1.000000 0.000000
    outer loop
      vertex -12.500000 20.000000 -20.000000
      vertex 12.500000 20.000000 20.000000
      vertex -12.500000 20.000000 20.000000
    endloop
  endfacet
  facet normal 0.000000 1.000000 0.000000
    outer loop
      vertex -12.500000 0.000000 20.000000
      vertex 12.500000 0.000000 20.000000
      vertex 12.500000 0.000000 -20.000000
    endloop
  endfacet
  facet normal 0.000000 1.000000 0.000000
    outer loop
      vertex -12.500000 0.000000 20.000000
      vertex 12.500000 0.000000 -20.000000
      vertex -12.500000 0.000000 -20.000000
    endloop
  endfacet
  facet normal 0.000000 0.000000 -1.000000
    outer loop
      vertex -12.500000 20.000000 20.000000
      vertex 12.500000 20.000000 20.000000
      vertex 12.500000 0.000000 20.000000
    endloop
  endfacet
  facet normal 0.000000 0.000000 -1.000000
    outer loop
      vertex -12.500000 20.000000 20.000000
      vertex 12.500000 0.000000 20.000000
      vertex -12.500000 0.000000 20.000000
    endloop
  endfacet
  facet normal 0.000000 0.000000 1.000000
    outer loop
      vertex 12.500000 0.000000 -20.000000
      vertex 12.500000 20.000000 -20.000000
      vertex -12.500000 20.000000 -20.000000
    endloop
  endfacet
  facet normal 0.000000 0.000000 1.000000
    outer loop
      vertex 12.500000 0.000000 -20.000000
      vertex -12.500000 20.000000 -20.000000
      vertex -12.500000 0.000000 -20.000000
    endloop
  endfacet
  facet normal -1.000000 0.000000 0.000000
    outer loop
      vertex 12.500000 0.000000 20.000000
      vertex 12.500000 20.000000 20.000000
      vertex 12.500000 20.000000 -20.000000
    endloop
  endfacet
  facet normal -1.000000 0.000000 0.000000
    outer loop
      vertex 12.500000 0.000000 20.000000
      vertex 12.500000 20.000000 -20.000000
      vertex 12.500000 0.000000 -20.000000
    endloop
  endfacet
  facet normal 1.000000 0.000000 0.000000
    outer loop
      vertex -12.500000 0.000000 -20.000000
      vertex -12.500000 20.000000 -20.000000
      vertex -12.500000 20.000000 20.000000
    endloop
  endfacet
  facet normal 1.000000 0.000000 0.000000
    outer loop
      vertex -12.500000 0.000000 -20.000000
      vertex -12.500000 20.000000 20.000000
      vertex -12.500000 0.000000 20.000000
    endloop
  endfacet
  facet normal 0.000000 -1.000000 0.000000
    outer loop
      vertex -2.370000 25.625000 -18.560000
      vertex -0.170000 25.625000 -18.560000
      vertex -0.170000 25.625000 -16.360000
    endloop
  endfacet
  facet normal 0.000000 -1.000000 0.000000
    outer loop
      vertex -2.370000 25.625000 -18.560000
      vertex -0.170000 25.625000 -16.360000
      vertex -2.370000 25.625000 -16.360000
    endloop
  endfacet
  facet normal 0.000000 1.000000 0.000000
    outer loop
      vertex -2.370000 24.075000 -16.360000
      vertex -0.170000 24.075000 -16.360000
      vertex -0.170000 24.075000 -18.560000
    endloop
  endfacet
  facet normal 0.000000 1.000000 0.000000
    outer loop
      vertex -2.370000 24.075000 -16.360000
      vertex -0.170000 24.075000 -18.560000
      vertex -2.370000 24.075000 -18.560000
    endloop
  endfacet
  facet normal 0.000000 0.000000 -1.000000
    outer loop
      vertex -2.370000 25.625000 -16.360000
      vertex -0.170000 25.625000 -16.360000
      vertex -0.170000 24.075000 -16.360000
    endloop
  endfacet
  facet normal 0.000000 0.000000 -1.000000
    outer loop
      vertex -2.370000 25.625000 -16.360000
      vertex -0.170000 24.075000 -16.360000
      vertex -2.370000 24.075000 -16.360000
    endloop
  endfacet
  facet normal 0.000000 0.000000 1.000000
    outer loop
      vertex -0.170000 24.075000 -18.560000
      vertex -0.170000 25.625000 -18.560000
      vertex -2.370000 25.625000 -18.560000
    endloop
  endfacet
  facet normal 0.000000 0.000000 1.000000
    outer loop
      vertex -0.170000 24.075000 -18.560000
      vertex -2.370000 25.625000 -18.560000
      vertex -2.370000 24.075000 -18.560000
    endloop
  endfacet
  facet normal -1.000000 0.000000 0.000000
    outer loop
      vertex -0.170000 24.075000 -16.360000
      vertex -0.170000 25.625000 -16.360000
      vertex -0.170000 25.625000 -18.560000
    endloop
  endfacet
  facet normal -1.000000 0.000000 0.000000
    outer loop
      vertex -0.170000 24.075000 -16.360000
      vertex -0.170000 25.625000 -18.560000
      vertex -0.170000 24.075000 -18.560000
    endloop
  endfacet
  facet normal 1.000000 0.000000 0.000000
    outer loop
      vertex -2.370000 24.075000 -18.560000
      vertex -2.370000 25.625000 -18.560000
      vertex -2.370000 25.625000 -16.360000
    endloop
  endfacet
  facet normal 1.000000 0.000000 0.000000
    outer loop
      vertex -2.370000 24.075000 -18.560000
      vertex -2.370000 25.625000 -16.360000
      vertex -2.370000 24.075000 -16.360000
    endloop
  endfacet
  facet normal 0.000000 -1.000000 0.000000
    outer loop
      vertex -1.600000 29.600000 -17.790000
      vertex -0.940000 29.600000 -17.790000
      vertex -0.940000 29.600000 -17.130000
    endloop
  endfacet
  facet normal 0.000000 -1.000000 0.000000
    outer loop
      vertex -1.600000 29.600000 -17.790000
      vertex -0.940000 29.600000 -17.130000
      vertex -1.600000 29.600000 -17.130000
    endloop
  endfacet
  facet normal 0.000000 1.000000 0.000000
    outer loop
      vertex -1.600000 24.400000 -17.130000
      vertex -0.940000 24.400000 -17.130000
      vertex -0.940000 24.400000 -17.790000
    endloop
  endfacet
  facet normal 0.000000 1.000000 0.000000
    outer loop
      vertex -1.600000 24.400000 -17.130000
      vertex -0.940000 24.400000 -17.790000
      vertex -1.600000 24.400000 -17.790000
    endloop
  endfacet
  facet normal 0.000000 0.000000 -1.000000
    outer loop
      vertex -1.600000 29.600000 -17.130000
      vertex -0.940000 29.600000 -17.130000
      vertex -0.940000 24.400000 -17.130000
    endloop
  endfacet
  facet normal 0.000000 0.000000 -1.000000
    outer loop
      vertex -1.600000 29.600000 -17.130000
      vertex -0.940000 24.400000 -17.130000
      vertex -1.600000 24.400000 -17.130000
    endloop
  endfacet
  facet normal 0.000000 0.000000 1.000000
    outer loop
      vertex -0.940000 24.400000 -17.790000
      vertex -0.940000 29.600000 -17.790000
      vertex -1.600000 29.600000 -17.790000
    endloop
  endfacet
  facet normal 0.000000 0.000000 1.000000
    outer loop
      vertex -0.940000 24.400000 -17.790000
      vertex -1.600000 29.600000 -17.790000
      vertex -1.600000 24.400000 -17.790000
    endloop
  endfacet
  facet normal -1.000000 0.000000 0.000000
    outer loop
      vertex -0.940000 24.400000 -17.130000
      vertex -0.940000 29.600000 -17.130000
      vertex -0.940000 29.600000 -17.790000
    endloop
  endfacet
  facet normal -1.000000 0.000000 0.000000
    outer loop
      vertex -0.940000 24.400000 -17.130000
      vertex -0.940000 29.600000 -17.790000
      vertex -0.940000 24.400000 -17.790000
    endloop
  endfacet
  facet normal 1.000000 0.000000 0.000000
    outer loop
      vertex -1.600000 24.400000 -17.790000
      vertex -1.600000 29.600000 -17.790000
      vertex -1.600000 29.600000 -17.130000
    endloop
  endfacet
  facet normal 1.000000 0.000000 0.000000
    outer loop
      vertex -1.600000 24.400000 -17.790000
      vertex -1.600000 29.600000 -17.130000
      vertex -1.600000 24.400000 -17.130000
    endloop
  endfacet
  facet normal 0.000000 -1.000000 0.000000
    outer loop
      vertex 0.170000 25.625000 -18.560000
      vertex 2.370000 25.625000 -18.560000
      vertex 2.370000 25.625000 -16.360000
    endloop
  endfacet
  facet normal 0.000000 -1.000000 0.000000
    outer loop
      vertex 0.170000 25.625000 -18.560000
      vertex 2.370000 25.625000 -16.360000
      vertex 0.170000 25.625000 -16.360000
    endloop
  endfacet
  facet normal 0.000000 1.000000 0.000000
    outer loop
      vertex 0.170000 24.075000 -16.360000
      vertex 2.370000 24.075000 -16.360000
      vertex 2.370000 24.075000 -18.560000
    endloop
  endfacet
  facet normal 0.000000 1.000000 0.000000
    outer loop
      vertex 0.170000 24.075000 -16.360000
      vertex 2.370000 24.075000 -18.560000
      vertex 0.170000 24.075000 -18.560000
    endloop
  endfacet
  facet normal 0.000000 0.000000 -1.000000
    outer loop
      vertex 0.170000 25.625000 -16.360000
      vertex 2.370000 25.625000 -16.360000
      vertex 2.370000 24.075000 -16.360000
    endloop
  endfacet
  facet normal 0.000000 0.000000 -1.000000
    outer loop
      vertex 0.170000 25.625000 -16.360000
      vertex 2.370000 24.075000 -16.360000
      vertex 0.170000 24.075000 -16.360000
    endloop
  endfacet
  facet normal 0.000000 0.000000 1.000000
    outer loop
      vertex 2.370000 24.075000 -18.560000
      vertex 2.370000 25.625000 -18.560000
      vertex 0.170000 25.625000 -18.560000
    endloop
  endfacet
  facet normal 0.000000 0.000000 1.000000
    outer loop
      vertex 2.370000 24.075000 -18.560000
      vertex 0.170000 25.625000 -18.560000
      vertex 0.170000 24.075000 -18.560000
    endloop
  endfacet
  facet normal -1.000000 0.000000 0.000000
    outer loop
      vertex 2.370000 24.075000 -16.360000
      vertex 2.370000 25.625000 -16.360000
      vertex 2.370000 25.625000 -18.560000
    endloop
  endfacet
  facet normal -1.000000 0.000000 0.000000
    outer loop
      vertex 2.370000 24.075000 -16.360000
      vertex 2.370000 25.625000 -18.560000
      vertex 2.370000 24.075000 -18.560000
    endloop
  endfacet
  facet normal 1.000000 0.000000 0.000000
    outer loop
      vertex 0.170000 24.075000 -18.560000
      vertex 0.170000 25.625000 -18.560000
      vertex 0.170000 25.625000 -16.360000
    endloop
  endfacet
  facet normal 1.000000 0.000000 0.000000
    outer loop
      vertex 0.170000 24.075000 -18.560000
      vertex 0.170000 25.625000 -16.360000
      vertex 0.170000 24.075000 -16.360000
    endloop
  endfacet
  facet normal 0.000000 -1.000000 0.000000
    outer loop
      vertex 0.940000 29.600000 -17.790000
      vertex 1.600000 29.600000 -17.790000
      vertex 1.600000 29.600000 -17.130000
    endloop
  endfacet
  facet normal 0.000000 -1.000000 0.000000
    outer loop
      vertex 0.940000 29.600000 -17.790000
      vertex 1.600000 29.600000 -17.130000
      vertex 0.940000 29.600000 -17.130000
    endloop
  endfacet
  facet normal 0.000000 1.000000 0.000000
    outer loop
      vertex 0.940000 24.400000 -17.130000
      vertex 1.600000 24.400000 -17.130000
      vertex 1.600000 24.400000 -17.790000
    endloop
  endfacet
  facet normal 0.000000 1.000000 0.000000
    outer loop
      vertex 0.940000 24.400000 -17.130000
      vertex 1.600000 24.400000 -17.790000
      vertex 0.940000 24.400000 -17.790000
    endloop
  endfacet
  facet normal 0.000000 0.000000 -1.000000
    outer loop
      vertex 0.940000 29.600000 -17.130000
      vertex 1.600000 29.600000 -17.130000
      vertex 1.600000 24.400000 -17.130000
    endloop
  endfacet
  facet normal 0.000000 0.000000 -1.000000
    outer loop
      vertex 0.940000 29.600000 -17.130000
      vertex 1.600000 24.400000 -17.130000
      vertex 0.940000 24.400000 -17.130000
    endloop
  endfacet
  facet normal 0.000000 0.000000 1.000000
    outer loop
      vertex 1.600000 24.400000 -17.790000
      vertex 1.600000 29.600000 -17.790000
      vertex 0.940000 29.600000 -17.790000
    endloop
  endfacet
  facet normal 0.000000 0.000000 1.000000
    outer loop
      vertex 1.600000 24.400000 -17.790000
      vertex 0.940000 29.600000 -17.790000
      vertex 0.940000 24.400000 -17.790000
    endloop
  endfacet
  facet normal -1.000000 0.000000 0.000000
    outer loop
      vertex 1.600000 24.400000 -17.130000
      vertex 1.600000 29.600000 -17.130000
      vertex 1.600000 29.600000 -17.790000
    endloop
  endfacet
  facet normal -1.000000 0.000000 0.000000
    outer loop
      vertex 1.600000 24.400000 -17.130000
      vertex 1.600000 29.600000 -17.790000
      vertex 1.600000 24.400000 -17.790000
    endloop
  endfacet
  facet normal 1.000000 0.000000 0.000000
    outer loop
      vertex 0.940000 24.400000 -17.790000
      vertex 0.940000 29.600000 -17.790000
      vertex 0.940000 29.600000 -17.130000
    endloop
  endfacet
  facet normal 1.000000 0.000000 0.000000
    outer loop
      vertex 0.940000 24.400000 -17.790000
      vertex 0.940000 29.600000 -17.130000
      vertex 0.940000 24.400000 -17.130000
    endloop
  endfacet
  facet normal 0.000000 -1.000000 0.000000
    outer loop
      vertex -2.540000 22.450000 -18.710000
      vertex 2.540000 22.450000 -18.710000
      vertex 2.540000 22.450000 -16.210000
    endloop
  endfacet
  facet normal 0.000000 -1.000000 0.000000
    outer loop
      vertex -2.540000 22.450000 -18.710000
      vertex 2.540000 22.450000 -16.210000
      vertex -2.540000 22.450000 -16.210000
    endloop
  endfacet
  facet normal 0.000000 1.000000 0.000000
    outer loop
      vertex -2.540000 19.950000 -16.210000
      vertex 2.540000 19.950000 -16.210000
      vertex 2.540000 19.950000 -18.710000
    endloop
  endfacet
  facet normal 0.000000 1.000000 0.000000
    outer loop
      vertex -2.540000 19.950000 -16.210000
      vertex 2.540000 19.950000 -18.710000
      vertex -2.540000 19.950000 -18.710000
    endloop
  endfacet
  facet normal 0.000000 0.000000 -1.000000
    outer loop
      vertex -2.540000 22.450000 -16.210000
      vertex 2.540000 22.450000 -16.210000
      vertex 2.540000 19.950000 -16.210000
    endloop
  endfacet
  facet normal 0.000000 0.000000 -1.000000
    outer loop
      vertex -2.540000 22.450000 -16.210000
      vertex 2.540000 19.950000 -16.210000
      vertex -2.540000 19.950000 -16.210000
    endloop
  endfacet
  facet normal 0.000000 0.000000 1.000000
    outer loop
      vertex 2.540000 19.950000 -18.710000
      vertex 2.540000 22.450000 -18.710000
      vertex -2.540000 22.450000 -18.710000
    endloop
  endfacet
  facet normal 0.000000 0.000000 1.000000
    outer loop
      vertex 2.540000 19.950000 -18.710000
      vertex -2.540000 22.450000 -18.710000
      vertex -2.540000 19.950000 -18.710000
    endloop
  endfacet
  facet normal -1.000000 0.000000 0.000000
    outer loop
      vertex 2.540000 19.950000 -16.210000
      vertex 2.540000 22.450000 -16.210000
      vertex 2.540000 22.450000 -18.710000
    endloop
  endfacet
  facet normal -1.000000 0.000000 0.000000
    outer loop
      vertex 2.540000 19.950000 -16.210000
      vertex 2.540000 22.450000 -18.710000
      vertex 2.540000 19.950000 -18.710000
    endloop
  endfacet
  facet normal 1.000000 0.000000 0.000000
    outer loop
      vertex -2.540000 19.950000 -18.710000
      vertex -2.540000 22.450000 -18.710000
      vertex -2.540000 22.450000 -16.210000
    endloop
  endfacet
  facet normal 1.000000 0.000000 0.000000
    outer loop
      vertex -2.540000 19.950000 -18.710000
      vertex -2.540000 22.450000 -16.210000
      vertex -2.540000 19.950000 -16.210000
    endloop
  endfacet
  facet normal 0.000000 -1.000000 0.000000
    outer loop
      vertex 0.000000 48.000000 0.000000
      vertex 12.500000 48.000000 0.000000
      vertex 12.074073 48.000000 3.235238
    endloop
  endfacet
  facet normal 0.000000 1.000000 0.000000
    outer loop
      vertex 0.000000 20.000000 0.000000
      vertex 12.074073 20.000000 3.235238
      vertex 12.500000 20.000000 0.000000
    endloop
  endfacet
  facet normal -0.991445 0.000000 -0.130526
    outer loop
      vertex 12.500000 20.000000 0.000000
      vertex 12.074073 20.000000 3.235238
      vertex 12.074073 48.000000 3.235238
    endloop
  endfacet
  facet normal -0.991445 0.000000 -0.130526
    outer loop
      vertex 12.500000 20.000000 0.000000
      vertex 12.074073 48.000000 3.235238
      vertex 12.500000 48.000000 0.000000
    endloop
  endfacet
  facet normal 0.000000 -1.000000 0.000000
    outer loop
      vertex 0.000000 48.000000 0.000000
      vertex 12.074073 48.000000 3.235238
      vertex 10.825318 48.000000 6.250000
    endloop
  endfacet
  facet normal 0.000000 1.000000 0.000000
    outer loop
      vertex 0.000000 20.000000 0.000000
      vertex 10.825318 20.000000 6.250000
      vertex 12.074073 20.000000 3.235238
    endloop
  endfacet
  facet normal -0.923880 0.000000 -0.382683
    outer loop
      vertex 12.074073 20.000000 3.235238
      vertex 10.825318 20.000000 6.250000
      vertex 10.825318 48.000000 6.250000
    endloop
  endfacet
  facet normal -0.923880 0.000000 -0.382683
    outer loop
      vertex 12.074073 20.000000 3.235238
      vertex 10.825318 48.000000 6.250000
      vertex 12.074073 48.000000 3.235238
    endloop
  endfacet
  facet normal 0.000000 -1.000000 0.000000
    outer loop
      vertex 0.000000 48.000000 0.000000
      vertex 10.825318 48.000000 6.250000
      vertex 8.838835 48.000000 8.838835
    endloop
  endfacet
  facet normal 0.000000 1.000000 0.000000
    outer loop
      vertex 0.000000 20.000000 0.000000
      vertex 8.838835 20.000000 8.838835
      vertex 10.825318 20.000000 6.250000
    endloop
  endfacet
  facet normal -0.793353 0.000000 -0.608761
    outer loop
      vertex 10.825318 20.000000 6.250000
      vertex 8.838835 20.000000 8.838835
      vertex 8.838835 48.000000 8.838835
    endloop
  endfacet
  facet normal -0.793353 0.000000 -0.608761
    outer loop
      vertex 10.825318 20.000000 6.250000
      vertex 8.838835 48.000000 8.838835
      vertex 10.825318 48.000000 6.250000
    endloop
  endfacet
  facet normal 0.000000 -1.000000 0.000000
    outer loop
      vertex 0.000000 48.000000 0.000000
      vertex 8.838835 48.000000 8.838835
      vertex 6.250000 48.000000 10.825318
    endloop
  endfacet
  facet normal 0.000000 1.000000 0.000000
    outer loop
      vertex 0.000000 20.000000 0.000000
      vertex 6.250000 20.000000 10.825318
      vertex 8.838835 20.000000 8.838835
    endloop
  endfacet
  facet normal -0.608761 0.000000 -0.793353
    outer loop
      vertex 8.838835 20.000000 8.838835
      vertex 6.250000 20.000000 10.825318
      vertex 6.250000 48.000000 10.825318
    endloop
  endfacet
  facet normal -0.608761 0.000000 -0.793353
    outer loop
      vertex 8.838835 20.000000 8.838835
      vertex 6.250000 48.000000 10.825318
      vertex 8.838835 48.000000 8.838835
    endloop
  endfacet
  facet normal 0.000000 -1.000000 0.000000
    outer loop
      vertex 0.000000 48.000000 0.000000
      vertex 6.250000 48.000000 10.825318
      vertex 3.235238 48.000000 12.074073
    endloop
  endfacet
  facet normal 0.000000 1.000000 0.000000
    outer loop
      vertex 0.000000 20.000000 0.000000
      vertex 3.235238 20.000000 12.074073
      vertex 6.250000 20.000000 10.825318
    endloop
  endfacet
  facet normal -0.382683 0.000000 -0.923880
    outer loop
      vertex 6.250000 20.000000 10.825318
      vertex 3.235238 20.000000 12.074073
      vertex 3.235238 48.000000 12.074073
    endloop
  endfacet
  facet normal -0.382683 0.000000 -0.923880
    outer loop
      vertex 6.250000 20.000000 10.825318
      vertex 3.235238 48.000000 12.074073
      vertex 6.250000 48.000000 10.825318
    endloop
  endfacet
  facet normal 0.000000 -1.000000 0.000000
    outer loop
      vertex 0.000000 48.000000 0.000000
      vertex 3.235238 48.000000 12.074073
      vertex 0.000000 48.000000 12.500000
    endloop
  endfacet
  facet normal 0.000000 1.000000 0.000000
    outer loop
      vertex 0.000000 20.000000 0.000000
      vertex 0.000000 20.000000 12.500000
      vertex 3.235238 20.000000 12.074073
    endloop
  endfacet
  facet normal -0.130526 0.000000 -0.991445
    outer loop
      vertex 3.235238 20.000000 12.074073
      vertex 0.000000 20.000000 12.500000
      vertex 0.000000 48.000000 12.500000
    endloop
  endfacet
  facet normal -0.130526 0.000000 -0.991445
    outer loop
      vertex 3.235238 20.000000 12.074073
      vertex 0.000000 48.000000 12.500000
      vertex 3.235238 48.000000 12.074073
    endloop
  endfacet
  facet normal 0.000000 -1.000000 0.000000
    outer loop
      vertex 0.000000 48.000000 0.000000
      vertex 0.000000 48.000000 12.500000
      vertex -3.235238 48.000000 12.074073
    endloop
  endfacet
  facet normal 0.000000 1.000000 0.000000
    outer loop
      vertex 0.000000 20.000000 0.000000
      vertex -3.235238 20.000000 12.074073
      vertex 0.000000 20.000000 12.500000
    endloop
  endfacet
  facet normal 0.130526 0.000000 -0.991445
    outer loop
      vertex 0.000000 20.000000 12.500000
      vertex -3.235238 20.000000 12.074073
      vertex -3.235238 48.000000 12.074073
    endloop
  endfacet
  facet normal 0.130526 0.000000 -0.991445
    outer loop
      vertex 0.000000 20.000000 12.500000
      vertex -3.235238 48.000000 12.074073
      vertex 0.000000 48.000000 12.500000
    endloop
  endfacet
  facet normal 0.000000 -1.000000 0.000000
    outer loop
      vertex 0.000000 48.000000 0.000000
      vertex -3.235238 48.000000 12.074073
      vertex -6.250000 48.000000 10.825318
    endloop
  endfacet
  facet normal 0.000000 1.000000 0.000000
    outer loop
      vertex 0.000000 20.000000 0.000000
      vertex -6.250000 20.000000 10.825318
      vertex -3.235238 20.000000 12.074073
    endloop
  endfacet
  facet normal 0.382683 0.000000 -0.923880
    outer loop
      vertex -3.235238 20.000000 12.074073
      vertex -6.250000 20.000000 10.825318
      vertex -6.250000 48.000000 10.825318
    endloop
  endfacet
  facet normal 0.382683 0.000000 -0.923880
    outer loop
      vertex -3.235238 20.000000 12.074073
      vertex -6.250000 48.000000 10.825318
      vertex -3.235238 48.000000 12.074073
    endloop
  endfacet
  facet normal 0.000000 -1.000000 0.000000
    outer loop
      vertex 0.000000 48.000000 0.000000
      vertex -6.250000 48.000000 10.825318
      vertex -8.838835 48.000000 8.838835
    endloop
  endfacet
  facet normal 0.000000 1.000000 0.000000
    outer loop
      vertex 0.000000 20.000000 0.000000
      vertex -8.838835 20.000000 8.838835
      vertex -6.250000 20.000000 10.825318
    endloop
  endfacet
  facet normal 0.608761 0.000000 -0.793353
    outer loop
      vertex -6.250000 20.000000 10.825318
      vertex -8.838835 20.000000 8.838835
      vertex -8.838835 48.000000 8.838835
    endloop
  endfacet
  facet normal 0.608761 0.000000 -0.793353
    outer loop
      vertex -6.250000 20.000000 10.825318
      vertex -8.838835 48.000000 8.838835
      vertex -6.250000 48.000000 10.825318
    endloop
  endfacet
  facet normal 0.000000 -1.000000 0.000000
    outer loop
      vertex 0.000000 48.000000 0.000000
      vertex -8.838835 48.000000 8.838835
      vertex -10.825318 48.000000 6.250000
    endloop
  endfacet
  facet normal 0.000000 1.000000 0.000000
    outer loop
      vertex 0.000000 20.000000 0.000000
      vertex -10.825318 20.000000 6.250000
      vertex -8.838835 20.000000 8.838835
    endloop
  endfacet
  facet normal 0.793353 0.000000 -0.608761
    outer loop
      vertex -8.838835 20.000000 8.838835
      vertex -10.825318 20.000000 6.250000
      vertex -10.825318 48.000000 6.250000
    endloop
  endfacet
  facet normal 0.793353 0.000000 -0.608761
    outer loop
      vertex -8.838835 20.000000 8.838835
      vertex -10.825318 48.000000 6.250000
      vertex -8.838835 48.000000 8.838835
    endloop
  endfacet
  facet normal 0.000000 -1.000000 0.000000
    outer loop
      vertex 0.000000 48.000000 0.000000
      vertex -10.825318 48.000000 6.250000
      vertex -12.074073 48.000000 3.235238
    endloop
  endfacet
  facet normal 0.000000 1.000000 0.000000
    outer loop
      vertex 0.000000 20.000000 0.000000
      vertex -12.074073 20.000000 3.235238
      vertex -10.825318 20.000000 6.250000
    endloop
  endfacet
  facet normal 0.923880 0.000000 -0.382683
    outer loop
      vertex -10.825318 20.000000 6.250000
      vertex -12.074073 20.000000 3.235238
      vertex -12.074073 48.000000 3.235238
    endloop
  endfacet
  facet normal 0.923880 0.000000 -0.382683
    outer loop
      vertex -10.825318 20.000000 6.250000
      vertex -12.074073 48.000000 3.235238
      vertex -10.825318 48.000000 6.250000
    endloop
  endfacet
  facet normal 0.000000 -1.000000 0.000000
    outer loop
      vertex 0.000000 48.000000 0.000000
      vertex -12.074073 48.000000 3.235238
      vertex -12.500000 48.000000 0.000000
    endloop
  endfacet
  facet normal 0.000000 1.000000 0.000000
    outer loop
      vertex 0.000000 20.000000 0.000000
      vertex -12.500000 20.000000 0.000000
      vertex -12.074073 20.000000 3.235238
    endloop
  endfacet
  facet normal 0.991445 0.000000 -0.130526
    outer loop
      vertex -12.074073 20.000000 3.235238
      vertex -12.500000 20.000000 0.000000
      vertex -12.500000 48.000000 0.000000
    endloop
  endfacet
  facet normal 0.991445 0.000000 -0.130526
    outer loop
      vertex -12.074073 20.000000 3.235238
      vertex -12.500000 48.000000 0.000000
      vertex -12.074073 48.000000 3.235238
    endloop
  endfacet
  facet normal 0.000000 -1.000000 0.000000
    outer loop
      vertex 0.000000 48.000000 0.000000
      vertex -12.500000 48.000000 0.000000
      vertex -12.074073 48.000000 -3.235238
    endloop
  endfacet
  facet normal 0.000000 1.000000 0.000000
    outer loop
      vertex 0.000000 20.000000 0.000000
      vertex -12.074073 20.000000 -3.235238
      vertex -12.500000 20.000000 0.000000
    endloop
  endfacet
  facet normal 0.991445 0.000000 0.130526
    outer loop
      vertex -12.500000 20.000000 0.000000
      vertex -12.074073 20.000000 -3.235238
      vertex -12.074073 48.000000 -3.235238
    endloop
  endfacet
  facet normal 0.991445 0.000000 0.130526
    outer loop
      vertex -12.500000 20.000000 0.000000
      vertex -12.074073 48.000000 -3.235238
      vertex -12.500000 48.000000 0.000000
    endloop
  endfacet
  facet normal 0.000000 -1.000000 0.000000
    outer loop
      vertex 0.000000 48.000000 0.000000
      vertex -12.074073 48.000000 -3.235238
      vertex -10.825318 48.000000 -6.250000
    endloop
  endfacet
  facet normal 0.000000 1.000000 0.000000
    outer loop
      vertex 0.000000 20.000000 0.000000
      vertex -10.825318 20.000000 -6.250000
      vertex -12.074073 20.000000 -3.235238
    endloop
  endfacet
  facet normal 0.923880 0.000000 0.382683
    outer loop
      vertex -12.074073 20.000000 -3.235238
      vertex -10.825318 20.000000 -6.250000
      vertex -10.825318 48.000000 -6.250000
    endloop
  endfacet
  facet normal 0.923880 0.000000 0.382683
    outer loop
      vertex -12.074073 20.000000 -3.235238
      vertex -10.825318 48.000000 -6.250000
      vertex -12.074073 48.000000 -3.235238
    endloop
  endfacet
  facet normal 0.000000 -1.000000 0.000000
    outer loop
      vertex 0.000000 48.000000 0.000000
      vertex -10.825318 48.000000 -6.250000
      vertex -8.838835 48.000000 -8.838835
    endloop
  endfacet
  facet normal 0.000000 1.000000 0.000000
    outer loop
      vertex 0.000000 20.000000 0.000000
      vertex -8.838835 20.000000 -8.838835
      vertex -10.825318 20.000000 -6.250000
    endloop
  endfacet
  facet normal 0.793353 0.000000 0.608761
    outer loop
      vertex -10.825318 20.000000 -6.250000
      vertex -8.838835 20.000000 -8.838835
      vertex -8.838835 48.000000 -8.838835
    endloop
  endfacet
  facet normal 0.793353 0.000000 0.608761
    outer loop
      vertex -10.825318 20.000000 -6.250000
      vertex -8.838835 48.000000 -8.838835
      vertex -10.825318 48.000000 -6.250000
    endloop
  endfacet
  facet normal 0.000000 -1.000000 0.000000
    outer loop
      vertex 0.000000 48.000000 0.000000
      vertex -8.838835 48.000000 -8.838835
      vertex -6.250000 48.000000 -10.825318
    endloop
  endfacet
  facet normal 0.000000 1.000000 0.000000
    outer loop
      vertex 0.000000 20.000000 0.000000
      vertex -6.250000 20.000000 -10.825318
      vertex -8.838835 20.000000 -8.838835
    endloop
  endfacet
  facet normal 0.608761 0.000000 0.793353
    outer loop
      vertex -8.838835 20.000000 -8.838835
      vertex -6.250000 20.000000 -10.825318
      vertex -6.250000 48.000000 -10.825318
    endloop
  endfacet
  facet normal 0.608761 0.000000 0.793353
    outer loop
      vertex -8.838835 20.000000 -8.838835
      vertex -6.250000 48.000000 -10.825318
      vertex -8.838835 48.000000 -8.838835
    endloop
  endfacet
  facet normal 0.000000 -1.000000 0.000000
    outer loop
      vertex 0.000000 48.000000 0.000000
      vertex -6.250000 48.000000 -10.825318
      vertex -3.235238 48.000000 -12.074073
    endloop
  endfacet
  facet normal 0.000000 1.000000 0.000000
    outer loop
      vertex 0.000000 20.000000 0.000000
      vertex -3.235238 20.000000 -12.074073
      vertex -6.250000 20.000000 -10.825318
    endloop
  endfacet
  facet normal 0.382683 0.000000 0.923880
    outer loop
      vertex -6.250000 20.000000 -10.825318
      vertex -3.235238 20.000000 -12.074073
      vertex -3.235238 48.000000 -12.074073
    endloop
  endfacet
  facet normal 0.382683 0.000000 0.923880
    outer loop
      vertex -6.250000 20.000000 -10.825318
      vertex -3.235238 48.000000 -12.074073
      vertex -6.250000 48.000000 -10.825318
    endloop
  endfacet
  facet normal 0.000000 -1.000000 0.000000
    outer loop
      vertex 0.000000 48.000000 0.000000
      vertex -3.235238 48.000000 -12.074073
      vertex -0.000000 48.000000 -12.500000
    endloop
  endfacet
  facet normal 0.000000 1.000000 0.000000
    outer loop
      vertex 0.000000 20.000000 0.000000
      vertex -0.000000 20.000000 -12.500000
      vertex -3.235238 20.000000 -12.074073
    endloop
  endfacet
  facet normal 0.130526 0.000000 0.991445
    outer loop
      vertex -3.235238 20.000000 -12.074073
      vertex -0.000000 20.000000 -12.500000
      vertex -0.000000 48.000000 -12.500000
    endloop
  endfacet
  facet normal 0.130526 0.000000 0.991445
    outer loop
      vertex -3.235238 20.000000 -12.074073
      vertex -0.000000 48.000000 -12.500000
      vertex -3.235238 48.000000 -12.074073
    endloop
  endfacet
  facet normal 0.000000 -1.000000 0.000000
    outer loop
      vertex 0.000000 48.000000 0.000000
      vertex -0.000000 48.000000 -12.500000
      vertex 3.235238 48.000000 -12.074073
    endloop
  endfacet
  facet normal 0.000000 1.000000 0.000000
    outer loop
      vertex 0.000000 20.000000 0.000000
      vertex 3.235238 20.000000 -12.074073
      vertex -0.000000 20.000000 -12.500000
    endloop
  endfacet
  facet normal -0.130526 0.000000 0.991445
    outer loop
      vertex -0.000000 20.000000 -12.500000
      vertex 3.235238 20.000000 -12.074073
      vertex 3.235238 48.000000 -12.074073
    endloop
  endfacet
  facet normal -0.130526 0.000000 0.991445
    outer loop
      vertex -0.000000 20.000000 -12.500000
      vertex 3.235238 48.000000 -12.074073
      vertex -0.000000 48.000000 -12.500000
    endloop
  endfacet
  facet normal 0.000000 -1.000000 0.000000
    outer loop
      vertex 0.000000 48.000000 0.000000
      vertex 3.235238 48.000000 -12.074073
      vertex 6.250000 48.000000 -10.825318
    endloop
  endfacet
  facet normal 0.000000 1.000000 0.000000
    outer loop
      vertex 0.000000 20.000000 0.000000
      vertex 6.250000 20.000000 -10.825318
      vertex 3.235238 20.000000 -12.074073
    endloop
  endfacet
  facet normal -0.382683 0.000000 0.923880
    outer loop
      vertex 3.235238 20.000000 -12.074073
      vertex 6.250000 20.000000 -10.825318
      vertex 6.250000 48.000000 -10.825318
    endloop
  endfacet
  facet normal -0.382683 0.000000 0.923880
    outer loop
      vertex 3.235238 20.000000 -12.074073
      vertex 6.250000 48.000000 -10.825318
      vertex 3.235238 48.000000 -12.074073
    endloop
  endfacet
  facet normal 0.000000 -1.000000 0.000000
    outer loop
      vertex 0.000000 48.000000 0.000000
      vertex 6.250000 48.000000 -10.825318
      vertex 8.838835 48.000000 -8.838835
    endloop
  endfacet
  facet normal 0.000000 1.000000 0.000000
    outer loop
      vertex 0.000000 20.000000 0.000000
      vertex 8.838835 20.000000 -8.838835
      vertex 6.250000 20.000000 -10.825318
    endloop
  endfacet
  facet normal -0.608761 0.000000 0.793353
    outer loop
      vertex 6.250000 20.000000 -10.825318
      vertex 8.838835 20.000000 -8.838835
      vertex 8.838835 48.000000 -8.838835
    endloop
  endfacet
  facet normal -0.608761 0.000000 0.793353
    outer loop
      vertex 6.250000 20.000000 -10.825318
      vertex 8.838835 48.000000 -8.838835
      vertex 6.250000 48.000000 -10.825318
    endloop
  endfacet
  facet normal 0.000000 -1.000000 0.000000
    outer loop
      vertex 0.000000 48.000000 0.000000
      vertex 8.838835 48.000000 -8.838835
      vertex 10.825318 48.000000 -6.250000
    endloop
  endfacet
  facet normal 0.000000 1.000000 0.000000
    outer loop
      vertex 0.000000 20.000000 0.000000
      vertex 10.825318 20.000000 -6.250000
      vertex 8.838835 20.000000 -8.838835
    endloop
  endfacet
  facet normal -0.793353 0.000000 0.608761
    outer loop
      vertex 8.838835 20.000000 -8.838835
      vertex 10.825318 20.000000 -6.250000
      vertex 10.825318 48.000000 -6.250000
    endloop
  endfacet
  facet normal -0.793353 0.000000 0.608761
    outer loop
      vertex 8.838835 20.000000 -8.838835
      vertex 10.825318 48.000000 -6.250000
      vertex 8.838835 48.000000 -8.838835
    endloop
  endfacet
  facet normal 0.000000 -1.000000 0.000000
    outer loop
      vertex 0.000000 48.000000 0.000000
      vertex 10.825318 48.000000 -6.250000
      vertex 12.074073 48.000000 -3.235238
    endloop
  endfacet
  facet normal 0.000000 1.000000 0.000000
    outer loop
      vertex 0.000000 20.000000 0.000000
      vertex 12.074073 20.000000 -3.235238
      vertex 10.825318 20.000000 -6.250000
    endloop
  endfacet
  facet normal -0.923880 0.000000 0.382683
    outer loop
      vertex 10.825318 20.000000 -6.250000
      vertex 12.074073 20.000000 -3.235238
      vertex 12.074073 48.000000 -3.235238
    endloop
  endfacet
  facet normal -0.923880 0.000000 0.382683
    outer loop
      vertex 10.825318 20.000000 -6.250000
      vertex 12.074073 48.000000 -3.235238
      vertex 10.825318 48.000000 -6.250000
    endloop
  endfacet
  facet normal 0.000000 -1.000000 0.000000
    outer loop
      vertex 0.000000 48.000000 0.000000
      vertex 12.074073 48.000000 -3.235238
      vertex 12.500000 48.000000 0.000000
    endloop
  endfacet
  facet normal 0.000000 1.000000 0.000000
    outer loop
      vertex 0.000000 20.000000 0.000000
      vertex 12.500000 20.000000 0.000000
      vertex 12.074073 20.000000 -3.235238
    endloop
  endfacet
  facet normal -0.991445 0.000000 0.130526
    outer loop
      vertex 12.074073 20.000000 -3.235238
      vertex 12.500000 20.000000 0.000000
      vertex 12.500000 48.000000 0.000000
    endloop
  endfacet
  facet normal -0.991445 0.000000 0.130526
    outer loop
      vertex 12.074073 20.000000 -3.235238
      vertex 12.500000 48.000000 0.000000
      vertex 12.074073 48.000000 -3.235238
    endloop
  endfacet
  facet normal 0.000000 -1.000000 0.000000
    outer loop
      vertex 0.000000 60.000000 0.000000
      vertex 2.000000 60.000000 0.000000
      vertex 1.931852 60.000000 0.517638
    endloop
  endfacet
  facet normal 0.000000 1.000000 0.000000
    outer loop
      vertex 0.000000 48.000000 0.000000
      vertex 1.931852 48.000000 0.517638
      vertex 2.000000 48.000000 0.000000
    endloop
  endfacet
  facet normal -0.991445 0.000000 -0.130526
    outer loop
      vertex 2.000000 48.000000 0.000000
      vertex 1.931852 48.000000 0.517638
      vertex 1.931852 60.000000 0.517638
    endloop
  endfacet
  facet normal -0.991445 0.000000 -0.130526
    outer loop
      vertex 2.000000 48.000000 0.000000
      vertex 1.931852 60.000000 0.517638
      vertex 2.000000 60.000000 0.000000
    endloop
  endfacet
  facet normal 0.000000 -1.000000 0.000000
    outer loop
      vertex 0.000000 60.000000 0.000000
      vertex 1.931852 60.000000 0.517638
      vertex 1.732051 60.000000 1.000000
    endloop
  endfacet
  facet normal 0.000000 1.000000 0.000000
    outer loop
      vertex 0.000000 48.000000 0.000000
      vertex 1.732051 48.000000 1.000000
      vertex 1.931852 48.000000 0.517638
    endloop
  endfacet
  facet normal -0.923880 0.000000 -0.382683
    outer loop
      vertex 1.931852 48.000000 0.517638
      vertex 1.732051 48.000000 1.000000
      vertex 1.732051 60.000000 1.000000
    endloop
  endfacet
  facet normal -0.923880 0.000000 -0.382683
    outer loop
      vertex 1.931852 48.000000 0.517638
      vertex 1.732051 60.000000 1.000000
      vertex 1.931852 60.000000 0.517638
    endloop
  endfacet
  facet normal 0.000000 -1.000000 0.000000
    outer loop
      vertex 0.000000 60.000000 0.000000
      vertex 1.732051 60.000000 1.000000
      vertex 1.414214 60.000000 1.414214
    endloop
  endfacet
  facet normal 0.000000 1.000000 0.000000
    outer loop
      vertex 0.000000 48.000000 0.000000
      vertex 1.414214 48.000000 1.414214
      vertex 1.732051 48.000000 1.000000
    endloop
  endfacet
  facet normal -0.793353 0.000000 -0.608761
    outer loop
      vertex 1.732051 48.000000 1.000000
      vertex 1.414214 48.000000 1.414214
      vertex 1.414214 60.000000 1.414214
    endloop
  endfacet
  facet normal -0.793353 0.000000 -0.608761
    outer loop
      vertex 1.732051 48.000000 1.000000
      vertex 1.414214 60.000000 1.414214
      vertex 1.732051 60.000000 1.000000
    endloop
  endfacet
  facet normal 0.000000 -1.000000 0.000000
    outer loop
      vertex 0.000000 60.000000 0.000000
      vertex 1.414214 60.000000 1.414214
      vertex 1.000000 60.000000 1.732051
    endloop
  endfacet
  facet normal 0.000000 1.000000 0.000000
    outer loop
      vertex 0.000000 48.000000 0.000000
      vertex 1.000000 48.000000 1.732051
      vertex 1.414214 48.000000 1.414214
    endloop
  endfacet
  facet normal -0.608761 0.000000 -0.793353
    outer loop
      vertex 1.414214 48.000000 1.414214
      vertex 1.000000 48.000000 1.732051
      vertex 1.000000 60.000000 1.732051
    endloop
  endfacet
  facet normal -0.608761 0.000000 -0.793353
    outer loop
      vertex 1.414214 48.000000 1.414214
      vertex 1.000000 60.000000 1.732051
      vertex 1.414214 60.000000 1.414214
    endloop
  endfacet
  facet normal 0.000000 -1.000000 0.000000
    outer loop
      vertex 0.000000 60.000000 0.000000
      vertex 1.000000 60.000000 1.732051
      vertex 0.517638 60.000000 1.931852
    endloop
  endfacet
  facet normal 0.000000 1.000000 0.000000
    outer loop
      vertex 0.000000 48.000000 0.000000
      vertex 0.517638 48.000000 1.931852
      vertex 1.000000 48.000000 1.732051
    endloop
  endfacet
  facet normal -0.382683 0.000000 -0.923880
    outer loop
      vertex 1.000000 48.000000 1.732051
      vertex 0.517638 48.000000 1.931852
      vertex 0.517638 60.000000 1.931852
    endloop
  endfacet
  facet normal -0.382683 0.000000 -0.923880
    outer loop
      vertex 1.000000 48.000000 1.732051
      vertex 0.517638 60.000000 1.931852
      vertex 1.000000 60.000000 1.732051
    endloop
  endfacet
  facet normal 0.000000 -1.000000 0.000000
    outer loop
      vertex 0.000000 60.000000 0.000000
      vertex 0.517638 60.000000 1.931852
      vertex 0.000000 60.000000 2.000000
    endloop
  endfacet
  facet normal 0.000000 1.000000 0.000000
    outer loop
      vertex 0.000000 48.000000 0.000000
      vertex 0.000000 48.000000 2.000000
      vertex 0.517638 48.000000 1.931852
    endloop
  endfacet
  facet normal -0.130526 0.000000 -0.991445
    outer loop
      vertex 0.517638 48.000000 1.931852
      vertex 0.000000 48.000000 2.000000
      vertex 0.000000 60.000000 2.000000
    endloop
  endfacet
  facet normal -0.130526 0.000000 -0.991445
    outer loop
      vertex 0.517638 48.000000 1.931852
      vertex 0.000000 60.000000 2.000000
      vertex 0.517638 60.000000 1.931852
    endloop
  endfacet
  facet normal 0.000000 -1.000000 0.000000
    outer loop
      vertex 0.000000 60.000000 0.000000
      vertex 0.000000 60.000000 2.000000
      vertex -0.517638 60.000000 1.931852
    endloop
  endfacet
  facet normal 0.000000 1.000000 0.000000
    outer loop
      vertex 0.000000 48.000000 0.000000
      vertex -0.517638 48.000000 1.931852
      vertex 0.000000 48.000000 2.000000
    endloop
  endfacet
  facet normal 0.130526 0.000000 -0.991445
    outer loop
      vertex 0.000000 48.000000 2.000000
      vertex -0.517638 48.000000 1.931852
      vertex -0.517638 60.000000 1.931852
    endloop
  endfacet
  facet normal 0.130526 0.000000 -0.991445
    outer loop
      vertex 0.000000 48.000000 2.000000
      vertex -0.517638 60.000000 1.931852
      vertex 0.000000 60.000000 2.000000
    endloop
  endfacet
  facet normal 0.000000 -1.000000 0.000000
    outer loop
      vertex 0.000000 60.000000 0.000000
      vertex -0.517638 60.000000 1.931852
      vertex -1.000000 60.000000 1.732051
    endloop
  endfacet
  facet normal 0.000000 1.000000 0.000000
    outer loop
      vertex 0.000000 48.000000 0.000000
      vertex -1.000000 48.000000 1.732051
      vertex -0.517638 48.000000 1.931852
    endloop
  endfacet
  facet normal 0.382683 0.000000 -0.923880
    outer loop
      vertex -0.517638 48.000000 1.931852
      vertex -1.000000 48.000000 1.732051
      vertex -1.000000 60.000000 1.732051
    endloop
  endfacet
  facet normal 0.382683 0.000000 -0.923880
    outer loop
      vertex -0.517638 48.000000 1.931852
      vertex -1.000000 60.000000 1.732051
      vertex -0.517638 60.000000 1.931852
    endloop
  endfacet
  facet normal 0.000000 -1.000000 0.000000
    outer loop
      vertex 0.000000 60.000000 0.000000
      vertex -1.000000 60.000000 1.732051
      vertex -1.414214 60.000000 1.414214
    endloop
  endfacet
  facet normal 0.000000 1.000000 0.000000
    outer loop
      vertex 0.000000 48.000000 0.000000
      vertex -1.414214 48.000000 1.414214
      vertex -1.000000 48.000000 1.732051
    endloop
  endfacet
  facet normal 0.608761 0.000000 -0.793353
    outer loop
      vertex -1.000000 48.000000 1.732051
      vertex -1.414214 48.000000 1.414214
      vertex -1.414214 60.000000 1.414214
    endloop
  endfacet
  facet normal 0.608761 0.000000 -0.793353
    outer loop
      vertex -1.000000 48.000000 1.732051
      vertex -1.414214 60.000000 1.414214
      vertex -1.000000 60.000000 1.732051
    endloop
  endfacet
  facet normal 0.000000 -1.000000 0.000000
    outer loop
      vertex 0.000000 60.000000 0.000000
      vertex -1.414214 60.000000 1.414214
      vertex -1.732051 60.000000 1.000000
    endloop
  endfacet
  facet normal 0.000000 1.000000 0.000000
    outer loop
      vertex 0.000000 48.000000 0.000000
      vertex -1.732051 48.000000 1.000000
      vertex -1.414214 48.000000 1.414214
    endloop
  endfacet
  facet normal 0.793353 0.000000 -0.608761
    outer loop
      vertex -1.414214 48.000000 1.414214
      vertex -1.732051 48.000000 1.000000
      vertex -1.732051 60.000000 1.000000
    endloop
  endfacet
  facet normal 0.793353 0.000000 -0.608761
    outer loop
      vertex -1.414214 48.000000 1.414214
      vertex -1.732051 60.000000 1.000000
      vertex -1.414214 60.000000 1.414214
    endloop
  endfacet
  facet normal 0.000000 -1.000000 0.000000
    outer loop
      vertex 0.000000 60.000000 0.000000
      vertex -1.732051 60.000000 1.000000
      vertex -1.931852 60.000000 0.517638
    endloop
  endfacet
  facet normal 0.000000 1.000000 0.000000
    outer loop
      vertex 0.000000 48.000000 0.000000
      vertex -1.931852 48.000000 0.517638
      vertex -1.732051 48.000000 1.000000
    endloop
  endfacet
  facet normal 0.923880 0.000000 -0.382683
    outer loop
      vertex -1.732051 48.000000 1.000000
      vertex -1.931852 48.000000 0.517638
      vertex -1.931852 60.000000 0.517638
    endloop
  endfacet
  facet normal 0.923880 0.000000 -0.382683
    outer loop
      vertex -1.732051 48.000000 1.000000
      vertex -1.931852 60.000000 0.517638
      vertex -1.732051 60.000000 1.000000
    endloop
  endfacet
  facet normal 0.000000 -1.000000 0.000000
    outer loop
      vertex 0.000000 60.000000 0.000000
      vertex -1.931852 60.000000 0.517638
      vertex -2.000000 60.000000 0.000000
    endloop
  endfacet
  facet normal 0.000000 1.000000 0.000000
    outer loop
      vertex 0.000000 48.000000 0.000000
      vertex -2.000000 48.000000 0.000000
      vertex -1.931852 48.000000 0.517638
    endloop
  endfacet
  facet normal 0.991445 0.000000 -0.130526
    outer loop
      vertex -1.931852 48.000000 0.517638
      vertex -2.000000 48.000000 0.000000
      vertex -2.000000 60.000000 0.000000
    endloop
  endfacet
  facet normal 0.991445 0.000000 -0.130526
    outer loop
      vertex -1.931852 48.000000 0.517638
      vertex -2.000000 60.000000 0.000000
      vertex -1.931852 60.000000 0.517638
    endloop
  endfacet
  facet normal 0.000000 -1.000000 0.000000
    outer loop
      vertex 0.000000 60.000000 0.000000
      vertex -2.000000 60.000000 0.000000
      vertex -1.931852 60.000000 -0.517638
    endloop
  endfacet
  facet normal 0.000000 1.000000 0.000000
    outer loop
      vertex 0.000000 48.000000 0.000000
      vertex -1.931852 48.000000 -0.517638
      vertex -2.000000 48.000000 0.000000
    endloop
  endfacet
  facet normal 0.991445 0.000000 0.130526
    outer loop
      vertex -2.000000 48.000000 0.000000
      vertex -1.931852 48.000000 -0.517638
      vertex -1.931852 60.000000 -0.517638
    endloop
  endfacet
  facet normal 0.991445 0.000000 0.130526
    outer loop
      vertex -2.000000 48.000000 0.000000
      vertex -1.931852 60.000000 -0.517638
      vertex -2.000000 60.000000 0.000000
    endloop
  endfacet
  facet normal 0.000000 -1.000000 0.000000
    outer loop
      vertex 0.000000 60.000000 0.000000
      vertex -1.931852 60.000000 -0.517638
      vertex -1.732051 60.000000 -1.000000
    endloop
  endfacet
  facet normal 0.000000 1.000000 0.000000
    outer loop
      vertex 0.000000 48.000000 0.000000
      vertex -1.732051 48.000000 -1.000000
      vertex -1.931852 48.000000 -0.517638
    endloop
  endfacet
  facet normal 0.923880 0.000000 0.382683
    outer loop
      vertex -1.931852 48.000000 -0.517638
      vertex -1.732051 48.000000 -1.000000
      vertex -1.732051 60.000000 -1.000000
    endloop
  endfacet
  facet normal 0.923880 0.000000 0.382683
    outer loop
      vertex -1.931852 48.000000 -0.517638
      vertex -1.732051 60.000000 -1.000000
      vertex -1.931852 60.000000 -0.517638
    endloop
  endfacet
  facet normal 0.000000 -1.000000 0.000000
    outer loop
      vertex 0.000000 60.000000 0.000000
      vertex -1.732051 60.000000 -1.000000
      vertex -1.414214 60.000000 -1.414214
    endloop
  endfacet
  facet normal 0.000000 1.000000 0.000000
    outer loop
      vertex 0.000000 48.000000 0.000000
      vertex -1.414214 48.000000 -1.414214
      vertex -1.732051 48.000000 -1.000000
    endloop
  endfacet
  facet normal 0.793353 0.000000 0.608761
    outer loop
      vertex -1.732051 48.000000 -1.000000
      vertex -1.414214 48.000000 -1.414214
      vertex -1.414214 60.000000 -1.414214
    endloop
  endfacet
  facet normal 0.793353 0.000000 0.608761
    outer loop
      vertex -1.732051 48.000000 -1.000000
      vertex -1.414214 60.000000 -1.414214
      vertex -1.732051 60.000000 -1.000000
    endloop
  endfacet
  facet normal 0.000000 -1.000000 0.000000
    outer loop
      vertex 0.000000 60.000000 0.000000
      vertex -1.414214 60.000000 -1.414214
      vertex -1.000000 60.000000 -1.732051
    endloop
  endfacet
  facet normal 0.000000 1.000000 0.000000
    outer loop
      vertex 0.000000 48.000000 0.000000
      vertex -1.000000 48.000000 -1.732051
      vertex -1.414214 48.000000 -1.414214
    endloop
  endfacet
  facet normal 0.608761 0.000000 0.793353
    outer loop
      vertex -1.414214 48.000000 -1.414214
      vertex -1.000000 48.000000 -1.732051
      vertex -1.000000 60.000000 -1.732051
    endloop
  endfacet
  facet normal 0.608761 0.000000 0.793353
    outer loop
      vertex -1.414214 48.000000 -1.414214
      vertex -1.000000 60.000000 -1.732051
      vertex -1.414214 60.000000 -1.414214
    endloop
  endfacet
  facet normal 0.000000 -1.000000 0.000000
    outer loop
      vertex 0.000000 60.000000 0.000000
      vertex -1.000000 60.000000 -1.732051
      vertex -0.517638 60.000000 -1.931852
    endloop
  endfacet
  facet normal 0.000000 1.000000 0.000000
    outer loop
      vertex 0.000000 48.000000 0.000000
      vertex -0.517638 48.000000 -1.931852
      vertex -1.000000 48.000000 -1.732051
    endloop
  endfacet
  facet normal 0.382683 0.000000 0.923880
    outer loop
      vertex -1.000000 48.000000 -1.732051
      vertex -0.517638 48.000000 -1.931852
      vertex -0.517638 60.000000 -1.931852
    endloop
  endfacet
  facet normal 0.382683 0.000000 0.923880
    outer loop
      vertex -1.000000 48.000000 -1.732051
      vertex -0.517638 60.000000 -1.931852
      vertex -1.000000 60.000000 -1.732051
    endloop
  endfacet
  facet normal 0.000000 -1.000000 0.000000
    outer loop
      vertex 0.000000 60.000000 0.000000
      vertex -0.517638 60.000000 -1.931852
      vertex -0.000000 60.000000 -2.000000
    endloop
  endfacet
  facet normal 0.000000 1.000000 0.000000
    outer loop
      vertex 0.000000 48.000000 0.000000
      vertex -0.000000 48.000000 -2.000000
      vertex -0.517638 48.000000 -1.931852
    endloop
  endfacet
  facet normal 0.130526 0.000000 0.991445
    outer loop
      vertex -0.517638 48.000000 -1.931852
      vertex -0.000000 48.000000 -2.000000
      vertex -0.000000 60.000000 -2.000000
    endloop
  endfacet
  facet normal 0.130526 0.000000 0.991445
    outer loop
      vertex -0.517638 48.000000 -1.931852
      vertex -0.000000 60.000000 -2.000000
      vertex -0.517638 60.000000 -1.931852
    endloop
  endfacet
  facet normal 0.000000 -1.000000 0.000000
    outer loop
      vertex 0.000000 60.000000 0.000000
      vertex -0.000000 60.000000 -2.000000
      vertex 0.517638 60.000000 -1.931852
    endloop
  endfacet
  facet normal 0.000000 1.000000 0.000000
    outer loop
      vertex 0.000000 48.000000 0.000000
      vertex 0.517638 48.000000 -1.931852
      vertex -0.000000 48.000000 -2.000000
    endloop
  endfacet
  facet normal -0.130526 0.000000 0.991445
    outer loop
      vertex -0.000000 48.000000 -2.000000
      vertex 0.517638 48.000000 -1.931852
      vertex 0.517638 60.000000 -1.931852
    endloop
  endfacet
  facet normal -0.130526 0.000000 0.991445
    outer loop
      vertex -0.000000 48.000000 -2.000000
      vertex 0.517638 60.000000 -1.931852
      vertex -0.000000 60.000000 -2.000000
    endloop
  endfacet
  facet normal 0.000000 -1.000000 0.000000
    outer loop
      vertex 0.000000 60.000000 0.000000
      vertex 0.517638 60.000000 -1.931852
      vertex 1.000000 60.000000 -1.732051
    endloop
  endfacet
  facet normal 0.000000 1.000000 0.000000
    outer loop
      vertex 0.000000 48.000000 0.000000
      vertex 1.000000 48.000000 -1.732051
      vertex 0.517638 48.000000 -1.931852
    endloop
  endfacet
  facet normal -0.382683 0.000000 0.923880
    outer loop
      vertex 0.517638 48.000000 -1.931852
      vertex 1.000000 48.000000 -1.732051
      vertex 1.000000 60.000000 -1.732051
    endloop
  endfacet
  facet normal -0.382683 0.000000 0.923880
    outer loop
      vertex 0.517638 48.000000 -1.931852
      vertex 1.000000 60.000000 -1.732051
      vertex 0.517638 60.000000 -1.931852
    endloop
  endfacet
  facet normal 0.000000 -1.000000 0.000000
    outer loop
      vertex 0.000000 60.000000 0.000000
      vertex 1.000000 60.000000 -1.732051
      vertex 1.414214 60.000000 -1.414214
    endloop
  endfacet
  facet normal 0.000000 1.000000 0.000000
    outer loop
      vertex 0.000000 48.000000 0.000000
      vertex 1.414214 48.000000 -1.414214
      vertex 1.000000 48.000000 -1.732051
    endloop
  endfacet
  facet normal -0.608761 0.000000 0.793353
    outer loop
      vertex 1.000000 48.000000 -1.732051
      vertex 1.414214 48.000000 -1.414214
      vertex 1.414214 60.000000 -1.414214
    endloop
  endfacet
  facet normal -0.608761 0.000000 0.793353
    outer loop
      vertex 1.000000 48.000000 -1.732051
      vertex 1.414214 60.000000 -1.414214
      vertex 1.000000 60.000000 -1.732051
    endloop
  endfacet
  facet normal 0.000000 -1.000000 0.000000
    outer loop
      vertex 0.000000 60.000000 0.000000
      vertex 1.414214 60.000000 -1.414214
      vertex 1.732051 60.000000 -1.000000
    endloop
  endfacet
  facet normal 0.000000 1.000000 0.000000
    outer loop
      vertex 0.000000 48.000000 0.000000
      vertex 1.732051 48.000000 -1.000000
      vertex 1.414214 48.000000 -1.414214
    endloop
  endfacet
  facet normal -0.793353 0.000000 0.608761
    outer loop
      vertex 1.414214 48.000000 -1.414214
      vertex 1.732051 48.000000 -1.000000
      vertex 1.732051 60.000000 -1.000000
    endloop
  endfacet
  facet normal -0.793353 0.000000 0.608761
    outer loop
      vertex 1.414214 48.000000 -1.414214
      vertex 1.732051 60.000000 -1.000000
      vertex 1.414214 60.000000 -1.414214
    endloop
  endfacet
  facet normal 0.000000 -1.000000 0.000000
    outer loop
      vertex 0.000000 60.000000 0.000000
      vertex 1.732051 60.000000 -1.000000
      vertex 1.931852 60.000000 -0.517638
    endloop
  endfacet
  facet normal 0.000000 1.000000 0.000000
    outer loop
      vertex 0.000000 48.000000 0.000000
      vertex 1.931852 48.000000 -0.517638
      vertex 1.732051 48.000000 -1.000000
    endloop
  endfacet
  facet normal -0.923880 0.000000 0.382683
    outer loop
      vertex 1.732051 48.000000 -1.000000
      vertex 1.931852 48.000000 -0.517638
      vertex 1.931852 60.000000 -0.517638
    endloop
  endfacet
  facet normal -0.923880 0.000000 0.382683
    outer loop
      vertex 1.732051 48.000000 -1.000000
      vertex 1.931852 60.000000 -0.517638
      vertex 1.732051 60.000000 -1.000000
    endloop
  endfacet
  facet normal 0.000000 -1.000000 0.000000
    outer loop
      vertex 0.000000 60.000000 0.000000
      vertex 1.931852 60.000000 -0.517638
      vertex 2.000000 60.000000 0.000000
    endloop
  endfacet
  facet normal 0.000000 1.000000 0.000000
    outer loop
      vertex 0.000000 48.000000 0.000000
      vertex 2.000000 48.000000 0.000000
      vertex 1.931852 48.000000 -0.517638
    endloop
  endfacet
  facet normal -0.991445 0.000000 0.130526
    outer loop
      vertex 1.931852 48.000000 -0.517638
      vertex 2.000000 48.000000 0.000000
      vertex 2.000000 60.000000 0.000000
    endloop
  endfacet
  facet normal -0.991445 0.000000 0.130526
    outer loop
      vertex 1.931852 48.000000 -0.517638
      vertex 2.000000 60.000000 0.000000
      vertex 1.931852 60.000000 -0.517638
    endloop
  endfacet
endsolid peristaltic_pump_12v