solid tft_ili9341_28
  facet normal 0.000000 -1.000000 0.000000
    outer loop
      vertex -13.500000 1.600000 -13.500000
      vertex 13.500000 1.600000 -13.500000
      vertex 13.500000 1.600000 13.500000
    endloop
  endfacet
  facet normal 0.000000 -1.000000 0.000000
    outer loop
      vertex -13.500000 1.600000 -13.500000
      vertex 13.500000 1.600000 13.500000
      vertex -13.500000 1.600000 13.500000
    endloop
  endfacet
  facet normal 0.000000 1.000000 0.000000
    outer loop
      vertex -13.500000 0.000000 13.500000
      vertex 13.500000 0.000000 13.500000
      vertex 13.500000 0.000000 -13.500000
    endloop
  endfacet
  facet normal 0.000000 1.000000 0.000000
    outer loop
      vertex -13.500000 0.000000 13.500000
      vertex 13.500000 0.000000 -13.500000
      vertex -13.500000 0.000000 -13.500000
    endloop
  endfacet
  facet normal 0.000000 0.000000 -1.000000
    outer loop
      vertex -13.500000 1.600000 13.500000
      vertex 13.500000 1.600000 13.500000
      vertex 13.500000 0.000000 13.500000
    endloop
  endfacet
  facet normal 0.000000 0.000000 -1.000000
    outer loop
      vertex -13.500000 1.600000 13.500000
      vertex 13.500000 0.000000 13.500000
      vertex -13.500000 0.000000 13.500000
    endloop
  endfacet
  facet normal 0.000000 0.000000 1.000000
    outer loop
      vertex 13.500000 0.000000 -13.500000
      vertex 13.500000 1.600000 -13.500000
      vertex -13.500000 1.600000 -13.500000
    endloop
  endfacet
  facet normal 0.000000 0.000000 1.000000
    outer loop
      vertex 13.500000 0.000000 -13.500000
      vertex -13.500000 1.600000 -13.500000
      vertex -13.500000 0.000000 -13.500000
    endloop
  endfacet
  facet normal -1.000000 0.000000 0.000000
    outer loop
      vertex 13.500000 0.000000 13.500000
      vertex 13.500000 1.600000 13.500000
      vertex 13.500000 1.600000 -13.500000
    endloop
  endfacet
  facet normal -1.000000 0.000000 0.000000
    outer loop
      vertex 13.500000 0.000000 13.500000
      vertex 13.500000 1.600000 -13.500000
      vertex 13.500000 0.000000 -13.500000
    endloop
  endfacet
  facet normal 1.000000 0.000000 0.000000
    outer loop
      vertex -13.500000 0.000000 -13.500000
      vertex -13.500000 1.600000 -13.500000
      vertex -13.500000 1.600000 13.500000
    endloop
  endfacet
  facet normal 1.000000 0.000000 0.000000
    outer loop
      vertex -13.500000 0.000000 -13.500000
      vertex -13.500000 1.600000 13.500000
      vertex -13.500000 0.000000 13.500000
    endloop
  endfacet
  facet normal 0.000000 -1.000000 0.000000
    outer loop
      vertex -11.260000 7.225000 -12.060000
      vertex -9.060000 7.225000 -12.060000
      vertex -9.060000 7.225000 -9.860000
    endloop
  endfacet
  facet normal 0.000000 -1.000000 0.000000
    outer loop
      vertex -11.260000 7.225000 -12.060000
      vertex -9.060000 7.225000 -9.860000
      vertex -11.260000 7.225000 -9.860000
    endloop
  endfacet
  facet normal 0.000000 1.000000 0.000000
    outer loop
      vertex -11.260000 5.675000 -9.860000
      vertex -9.060000 5.675000 -9.860000
      vertex -9.060000 5.675000 -12.060000
    endloop
  endfacet
  facet normal 0.000000 1.000000 0.000000
    outer loop
      vertex -11.260000 5.675000 -9.860000
      vertex -9.060000 5.675000 -12.060000
      vertex -11.260000 5.675000 -12.060000
    endloop
  endfacet
  facet normal 0.000000 0.000000 -1.000000
    outer loop
      vertex -11.260000 7.225000 -9.860000
      vertex -9.060000 7.225000 -9.860000
      vertex -9.060000 5.675000 -9.860000
    endloop
  endfacet
  facet normal 0.000000 0.000000 -1.000000
    outer loop
      vertex -11.260000 7.225000 -9.860000
      vertex -9.060000 5.675000 -9.860000
      vertex -11.260000 5.675000 -9.860000
    endloop
  endfacet
  facet normal 0.000000 0.000000 1.000000
    outer loop
      vertex -9.060000 5.675000 -12.060000
      vertex -9.060000 7.225000 -12.060000
      vertex -11.260000 7.225000 -12.060000
    endloop
  endfacet
  facet normal 0.000000 0.000000 1.000000
    outer loop
      vertex -9.060000 5.675000 -12.060000
      vertex -11.260000 7.225000 -12.060000
      vertex -11.260000 5.675000 -12.060000
    endloop
  endfacet
  facet normal -1.000000 0.000000 0.000000
    outer loop
      vertex -9.060000 5.675000 -9.860000
      vertex -9.060000 7.225000 -9.860000
      vertex -9.060000 7.225000 -12.060000
    endloop
  endfacet
  facet normal -1.000000 0.000000 0.000000
    outer loop
      vertex -9.060000 5.675000 -9.860000
      vertex -9.060000 7.225000 -12.060000
      vertex -9.060000 5.675000 -12.060000
    endloop
  endfacet
  facet normal 1.000000 0.000000 0.000000
    outer loop
      vertex -11.260000 5.675000 -12.060000
      vertex -11.260000 7.225000 -12.060000
      vertex -11.260000 7.225000 -9.860000
    endloop
  endfacet
  facet normal 1.000000 0.000000 0.000000
    outer loop
      vertex -11.260000 5.675000 -12.060000
      vertex -11.260000 7.225000 -9.860000
      vertex -11.260000 5.675000 -9.860000
    endloop
  endfacet
  facet normal 0.000000 -1.000000 0.000000
    outer loop
      vertex -10.490000 11.200000 -11.290000
      vertex -9.830000 11.200000 -11.290000
      vertex -9.830000 11.200000 -10.630000
    endloop
  endfacet
  facet normal 0.000000 -1.000000 0.000000
    outer loop
      vertex -10.490000 11.200000 -11.290000
      vertex -9.830000 11.200000 -10.630000
      vertex -10.490000 11.200000 -10.630000
    endloop
  endfacet
  facet normal 0.000000 1.000000 0.000000
    outer loop
      vertex -10.490000 6.000000 -10.630000
      vertex -9.830000 6.000000 -10.630000
      vertex -9.830000 6.000000 -11.290000
    endloop
  endfacet
  facet normal 0.000000 1.000000 0.000000
    outer loop
      vertex -10.490000 6.000000 -10.630000
      vertex -9.830000 6.000000 -11.290000
      vertex -10.490000 6.000000 -11.290000
    endloop
  endfacet
  facet normal 0.000000 0.000000 -1.000000
    outer loop
      vertex -10.490000 11.200000 -10.630000
      vertex -9.830000 11.200000 -10.630000
      vertex -9.830000 6.000000 -10.630000
    endloop
  endfacet
  facet normal 0.000000 0.000000 -1.000000
    outer loop
      vertex -10.490000 11.200000 -10.630000
      vertex -9.830000 6.000000 -10.630000
      vertex -10.490000 6.000000 -10.630000
    endloop
  endfacet
  facet normal 0.000000 0.000000 1.000000
    outer loop
      vertex -9.830000 6.000000 -11.290000
      vertex -9.830000 11.200000 -11.290000
      vertex -10.490000 11.200000 -11.290000
    endloop
  endfacet
  facet normal 0.000000 0.000000 1.000000
    outer loop
      vertex -9.830000 6.000000 -11.290000
      vertex -10.490000 11.200000 -11.290000
      vertex -10.490000 6.000000 -11.290000
    endloop
  endfacet
  facet normal -1.000000 0.000000 0.000000
    outer loop
      vertex -9.830000 6.000000 -10.630000
      vertex -9.830000 11.200000 -10.630000
      vertex -9.830000 11.200000 -11.290000
    endloop
  endfacet
  facet normal -1.000000 0.000000 0.000000
    outer loop
      vertex -9.830000 6.000000 -10.630000
      vertex -9.830000 11.200000 -11.290000
      vertex -9.830000 6.000000 -11.290000
    endloop
  endfacet
  facet normal 1.000000 0.000000 0.000000
    outer loop
      vertex -10.490000 6.000000 -11.290000
      vertex -10.490000 11.200000 -11.290000
      vertex -10.490000 11.200000 -10.630000
    endloop
  endfacet
  facet normal 1.000000 0.000000 0.000000
    outer loop
      vertex -10.490000 6.000000 -11.290000
      vertex -10.490000 11.200000 -10.630000
      vertex -10.490000 6.000000 -10.630000
    endloop
  endfacet
  facet normal 0.000000 -1.000000 0.000000
    outer loop
      vertex -8.720000 7.225000 -12.060000
      vertex -6.520000 7.225000 -12.060000
      vertex -6.520000 7.225000 -9.860000
    endloop
  endfacet
  facet normal 0.000000 -1.000000 0.000000
    outer loop
      vertex -8.720000 7.225000 -12.060000
      vertex -6.520000 7.225000 -9.860000
      vertex -8.720000 7.225000 -9.860000
    endloop
  endfacet
  facet normal 0.000000 1.000000 0.000000
    outer loop
      vertex -8.720000 5.675000 -9.860000
      vertex -6.520000 5.675000 -9.860000
      vertex -6.520000 5.675000 -12.060000
    endloop
  endfacet
  facet normal 0.000000 1.000000 0.000000
    outer loop
      vertex -8.720000 5.675000 -9.860000
      vertex -6.520000 5.675000 -12.060000
      vertex -8.720000 5.675000 -12.060000
    endloop
  endfacet
  facet normal 0.000000 0.000000 -1.000000
    outer loop
      vertex -8.720000 7.225000 -9.860000
      vertex -6.520000 7.225000 -9.860000
      vertex -6.520000 5.675000 -9.860000
    endloop
  endfacet
  facet normal 0.000000 0.000000 -1.000000
    outer loop
      vertex -8.720000 7.225000 -9.860000
      vertex -6.520000 5.675000 -9.860000
      vertex -8.720000 5.675000 -9.860000
    endloop
  endfacet
  facet normal 0.000000 0.000000 1.000000
    outer loop
      vertex -6.520000 5.675000 -12.060000
      vertex -6.520000 7.225000 -12.060000
      vertex -8.720000 7.225000 -12.060000
    endloop
  endfacet
  facet normal 0.000000 0.000000 1.000000
    outer loop
      vertex -6.520000 5.675000 -12.060000
      vertex -8.720000 7.225000 -12.060000
      vertex -8.720000 5.675000 -12.060000
    endloop
  endfacet
  facet normal -1.000000 0.000000 0.000000
    outer loop
      vertex -6.520000 5.675000 -9.860000
      vertex -6.520000 7.225000 -9.860000
      vertex -6.520000 7.225000 -12.060000
    endloop
  endfacet
  facet normal -1.000000 0.000000 0.000000
    outer loop
      vertex -6.520000 5.675000 -9.860000
      vertex -6.520000 7.225000 -12.060000
      vertex -6.520000 5.675000 -12.060000
    endloop
  endfacet
  facet normal 1.000000 0.000000 0.000000
    outer loop
      vertex -8.720000 5.675000 -12.060000
      vertex -8.720000 7.225000 -12.060000
      vertex -8.720000 7.225000 -9.860000
    endloop
  endfacet
  facet normal 1.000000 0.000000 0.000000
    outer loop
      vertex -8.720000 5.675000 -12.060000
      vertex -8.720000 7.225000 -9.860000
      vertex -8.720000 5.675000 -9.860000
    endloop
  endfacet
  facet normal 0.000000 -1.000000 0.000000
    outer loop
      vertex -7.950000 11.200000 -11.290000
      vertex -7.290000 11.200000 -11.290000
      vertex -7.290000 11.200000 -10.630000
    endloop
  endfacet
  facet normal 0.000000 -1.000000 0.000000
    outer loop
      vertex -7.950000 11.200000 -11.290000
      vertex -7.290000 11.200000 -10.630000
      vertex -7.950000 11.200000 -10.630000
    endloop
  endfacet
  facet normal 0.000000 1.000000 0.000000
    outer loop
      vertex -7.950000 6.000000 -10.630000
      vertex -7.290000 6.000000 -10.630000
      vertex -7.290000 6.000000 -11.290000
    endloop
  endfacet
  facet normal 0.000000 1.000000 0.000000
    outer loop
      vertex -7.950000 6.000000 -10.630000
      vertex -7.290000 6.000000 -11.290000
      vertex -7.950000 6.000000 -11.290000
    endloop
  endfacet
  facet normal 0.000000 0.000000 -1.000000
    outer loop
      vertex -7.950000 11.200000 -10.630000
      vertex -7.290000 11.200000 -10.630000
      vertex -7.290000 6.000000 -10.630000
    endloop
  endfacet
  facet normal 0.000000 0.000000 -1.000000
    outer loop
      vertex -7.950000 11.200000 -10.630000
      vertex -7.290000 6.000000 -10.630000
      vertex -7.950000 6.000000 -10.630000
    endloop
  endfacet
  facet normal 0.000000 0.000000 1.000000
    outer loop
      vertex -7.290000 6.000000 -11.290000
      vertex -7.290000 11.200000 -11.290000
      vertex -7.950000 11.200000 -11.290000
    endloop
  endfacet
  facet normal 0.000000 0.000000 1.000000
    outer loop
      vertex -7.290000 6.000000 -11.290000
      vertex -7.950000 11.200000 -11.290000
      vertex -7.950000 6.000000 -11.290000
    endloop
  endfacet
  facet normal -1.000000 0.000000 0.000000
    outer loop
      vertex -7.290000 6.000000 -10.630000
      vertex -7.290000 11.200000 -10.630000
      vertex -7.290000 11.200000 -11.290000
    endloop
  endfacet
  facet normal -1.000000 0.000000 0.000000
    outer loop
      vertex -7.290000 6.000000 -10.630000
      vertex -7.290000 11.200000 -11.290000
      vertex -7.290000 6.000000 -11.290000
    endloop
  endfacet
  facet normal 1.000000 0.000000 0.000000
    outer loop
      vertex -7.950000 6.000000 -11.290000
      vertex -7.950000 11.200000 -11.290000
      vertex -7.950000 11.200000 -10.630000
    endloop
  endfacet
  facet normal 1.000000 0.000000 0.000000
    outer loop
      vertex -7.950000 6.000000 -11.290000
      vertex -7.950000 11.200000 -10.630000
      vertex -7.950000 6.000000 -10.630000
    endloop
  endfacet
  facet normal 0.000000 -1.000000 0.000000
    outer loop
      vertex -6.180000 7.225000 -12.060000
      vertex -3.980000 7.225000 -12.060000
      vertex -3.980000 7.225000 -9.860000
    endloop
  endfacet
  facet normal 0.000000 -1.000000 0.000000
    outer loop
      vertex -6.180000 7.225000 -12.060000
      vertex -3.980000 7.225000 -9.860000
      vertex -6.180000 7.225000 -9.860000
    endloop
  endfacet
  facet normal 0.000000 1.000000 0.000000
    outer loop
      vertex -6.180000 5.675000 -9.860000
      vertex -3.980000 5.675000 -9.860000
      vertex -3.980000 5.675000 -12.060000
    endloop
  endfacet
  facet normal 0.000000 1.000000 0.000000
    outer loop
      vertex -6.180000 5.675000 -9.860000
      vertex -3.980000 5.675000 -12.060000
      vertex -6.180000 5.675000 -12.060000
    endloop
  endfacet
  facet normal 0.000000 0.000000 -1.000000
    outer loop
      vertex -6.180000 7.225000 -9.860000
      vertex -3.980000 7.225000 -9.860000
      vertex -3.980000 5.675000 -9.860000
    endloop
  endfacet
  facet normal 0.000000 0.000000 -1.000000
    outer loop
      vertex -6.180000 7.225000 -9.860000
      vertex -3.980000 5.675000 -9.860000
      vertex -6.180000 5.675000 -9.860000
    endloop
  endfacet
  facet normal 0.000000 0.000000 1.000000
    outer loop
      vertex -3.980000 5.675000 -12.060000
      vertex -3.980000 7.225000 -12.060000
      vertex -6.180000 7.225000 -12.060000
    endloop
  endfacet
  facet normal 0.000000 0.000000 1.000000
    outer loop
      vertex -3.980000 5.675000 -12.060000
      vertex -6.180000 7.225000 -12.060000
      vertex -6.180000 5.675000 -12.060000
    endloop
  endfacet
  facet normal -1.000000 0.000000 0.000000
    outer loop
      vertex -3.980000 5.675000 -9.860000
      vertex -3.980000 7.225000 -9.860000
      vertex -3.980000 7.225000 -12.060000
    endloop
  endfacet
  facet normal -1.000000 0.000000 0.000000
    outer loop
      vertex -3.980000 5.675000 -9.860000
      vertex -3.980000 7.225000 -12.060000
      vertex -3.980000 5.675000 -12.060000
    endloop
  endfacet
  facet normal 1.000000 0.000000 0.000000
    outer loop
      vertex -6.180000 5.675000 -12.060000
      vertex -6.180000 7.225000 -12.060000
      vertex -6.180000 7.225000 -9.860000
    endloop
  endfacet
  facet normal 1.000000 0.000000 0.000000
    outer loop
      vertex -6.180000 5.675000 -12.060000
      vertex -6.180000 7.225000 -9.860000
      vertex -6.180000 5.675000 -9.860000
    endloop
  endfacet
  facet normal 0.000000 -1.000000 0.000000
    outer loop
      vertex -5.410000 11.200000 -11.290000
      vertex -4.750000 11.200000 -11.290000
      vertex -4.750000 11.200000 -10.630000
    endloop
  endfacet
  facet normal 0.000000 -1.000000 0.000000
    outer loop
      vertex -5.410000 11.200000 -11.290000
      vertex -4.750000 11.200000 -10.630000
      vertex -5.410000 11.200000 -10.630000
    endloop
  endfacet
  facet normal 0.000000 1.000000 0.000000
    outer loop
      vertex -5.410000 6.000000 -10.630000
      vertex -4.750000 6.000000 -10.630000
      vertex -4.750000 6.000000 -11.290000
    endloop
  endfacet
  facet normal 0.000000 1.000000 0.000000
    outer loop
      vertex -5.410000 6.000000 -10.630000
      vertex -4.750000 6.000000 -11.290000
      vertex -5.410000 6.000000 -11.290000
    endloop
  endfacet
  facet normal 0.000000 0.000000 -1.000000
    outer loop
      vertex -5.410000 11.200000 -10.630000
      vertex -4.750000 11.200000 -10.630000
      vertex -4.750000 6.000000 -10.630000
    endloop
  endfacet
  facet normal 0.000000 0.000000 -1.000000
    outer loop
      vertex -5.410000 11.200000 -10.630000
      vertex -4.750000 6.000000 -10.630000
      vertex -5.410000 6.000000 -10.630000
    endloop
  endfacet
  facet normal 0.000000 0.000000 1.000000
    outer loop
      vertex -4.750000 6.000000 -11.290000
      vertex -4.750000 11.200000 -11.290000
      vertex -5.410000 11.200000 -11.290000
    endloop
  endfacet
  facet normal 0.000000 0.000000 1.000000
    outer loop
      vertex -4.750000 6.000000 -11.290000
      vertex -5.410000 11.200000 -11.290000
      vertex -5.410000 6.000000 -11.290000
    endloop
  endfacet
  facet normal -1.000000 0.000000 0.000000
    outer loop
      vertex -4.750000 6.000000 -10.630000
      vertex -4.750000 11.200000 -10.630000
      vertex -4.750000 11.200000 -11.290000
    endloop
  endfacet
  facet normal -1.000000 0.000000 0.000000
    outer loop
      vertex -4.750000 6.000000 -10.630000
      vertex -4.750000 11.200000 -11.290000
      vertex -4.750000 6.000000 -11.290000
    endloop
  endfacet
  facet normal 1.000000 0.000000 0.000000
    outer loop
      vertex -5.410000 6.000000 -11.290000
      vertex -5.410000 11.200000 -11.290000
      vertex -5.410000 11.200000 -10.630000
    endloop
  endfacet
  facet normal 1.000000 0.000000 0.000000
    outer loop
      vertex -5.410000 6.000000 -11.290000
      vertex -5.410000 11.200000 -10.630000
      vertex -5.410000 6.000000 -10.630000
    endloop
  endfacet
  facet normal 0.000000 -1.000000 0.000000
    outer loop
      vertex -3.640000 7.225000 -12.060000
      vertex -1.440000 7.225000 -12.060000
      vertex -1.440000 7.225000 -9.860000
    endloop
  endfacet
  facet normal 0.000000 -1.000000 0.000000
    outer loop
      vertex -3.640000 7.225000 -12.060000
      vertex -1.440000 7.225000 -9.860000
      vertex -3.640000 7.225000 -9.860000
    endloop
  endfacet
  facet normal 0.000000 1.000000 0.000000
    outer loop
      vertex -3.640000 5.675000 -9.860000
      vertex -1.440000 5.675000 -9.860000
      vertex -1.440000 5.675000 -12.060000
    endloop
  endfacet
  facet normal 0.000000 1.000000 0.000000
    outer loop
      vertex -3.640000 5.675000 -9.860000
      vertex -1.440000 5.675000 -12.060000
      vertex -3.640000 5.675000 -12.060000
    endloop
  endfacet
  facet normal 0.000000 0.000000 -1.000000
    outer loop
      vertex -3.640000 7.225000 -9.860000
      vertex -1.440000 7.225000 -9.860000
      vertex -1.440000 5.675000 -9.860000
    endloop
  endfacet
  facet normal 0.000000 0.000000 -1.000000
    outer loop
      vertex -3.640000 7.225000 -9.860000
      vertex -1.440000 5.675000 -9.860000
      vertex -3.640000 5.675000 -9.860000
    endloop
  endfacet
  facet normal 0.000000 0.000000 1.000000
    outer loop
      vertex -1.440000 5.675000 -12.060000
      vertex -1.440000 7.225000 -12.060000
      vertex -3.640000 7.225000 -12.060000
    endloop
  endfacet
  facet normal 0.000000 0.000000 1.000000
    outer loop
      vertex -1.440000 5.675000 -12.060000
      vertex -3.640000 7.225000 -12.060000
      vertex -3.640000 5.675000 -12.060000
    endloop
  endfacet
  facet normal -1.000000 0.000000 0.000000
    outer loop
      vertex -1.440000 5.675000 -9.860000
      vertex -1.440000 7.225000 -9.860000
      vertex -1.440000 7.225000 -12.060000
    endloop
  endfacet
  facet normal -1.000000 0.000000 0.000000
    outer loop
      vertex -1.440000 5.675000 -9.860000
      vertex -1.440000 7.225000 -12.060000
      vertex -1.440000 5.675000 -12.060000
    endloop
  endfacet
  facet normal 1.000000 0.000000 0.000000
    outer loop
      vertex -3.640000 5.675000 -12.060000
      vertex -3.640000 7.225000 -12.060000
      vertex -3.640000 7.225000 -9.860000
    endloop
  endfacet
  facet normal 1.000000 0.000000 0.000000
    outer loop
      vertex -3.640000 5.675000 -12.060000
      vertex -3.640000 7.225000 -9.860000
      vertex -3.640000 5.675000 -9.860000
    endloop
  endfacet
  facet normal 0.000000 -1.000000 0.000000
    outer loop
      vertex -2.870000 11.200000 -11.290000
      vertex -2.210000 11.200000 -11.290000
      vertex -2.210000 11.200000 -10.630000
    endloop
  endfacet
  facet normal 0.000000 -1.000000 0.000000
    outer loop
      vertex -2.870000 11.200000 -11.290000
      vertex -2.210000 11.200000 -10.630000
      vertex -2.870000 11.200000 -10.630000
    endloop
  endfacet
  facet normal 0.000000 1.000000 0.000000
    outer loop
      vertex -2.870000 6.000000 -10.630000
      vertex -2.210000 6.000000 -10.630000
      vertex -2.210000 6.000000 -11.290000
    endloop
  endfacet
  facet normal 0.000000 1.000000 0.000000
    outer loop
      vertex -2.870000 6.000000 -10.630000
      vertex -2.210000 6.000000 -11.290000
      vertex -2.870000 6.000000 -11.290000
    endloop
  endfacet
  facet normal 0.000000 0.000000 -1.000000
    outer loop
      vertex -2.870000 11.200000 -10.630000
      vertex -2.210000 11.200000 -10.630000
      vertex -2.210000 6.000000 -10.630000
    endloop
  endfacet
  facet normal 0.000000 0.000000 -1.000000
    outer loop
      vertex -2.870000 11.200000 -10.630000
      vertex -2.210000 6.000000 -10.630000
      vertex -2.870000 6.000000 -10.630000
    endloop
  endfacet
  facet normal 0.000000 0.000000 1.000000
    outer loop
      vertex -2.210000 6.000000 -11.290000
      vertex -2.210000 11.200000 -11.290000
      vertex -2.870000 11.200000 -11.290000
    endloop
  endfacet
  facet normal 0.000000 0.000000 1.000000
    outer loop
      vertex -2.210000 6.000000 -11.290000
      vertex -2.870000 11.200000 -11.290000
      vertex -2.870000 6.000000 -11.290000
    endloop
  endfacet
  facet normal -1.000000 0.000000 0.000000
    outer loop
      vertex -2.210000 6.000000 -10.630000
      vertex -2.210000 11.200000 -10.630000
      vertex -2.210000 11.200000 -11.290000
    endloop
  endfacet
  facet normal -1.000000 0.000000 0.000000
    outer loop
      vertex -2.210000 6.000000 -10.630000
      vertex -2.210000 11.200000 -11.290000
      vertex -2.210000 6.000000 -11.290000
    endloop
  endfacet
  facet normal 1.000000 0.000000 0.000000
    outer loop
      vertex -2.870000 6.000000 -11.290000
      vertex -2.870000 11.200000 -11.290000
      vertex -2.870000 11.200000 -10.630000
    endloop
  endfacet
  facet normal 1.000000 0.000000 0.000000
    outer loop
      vertex -2.870000 6.000000 -11.290000
      vertex -2.870000 11.200000 -10.630000
      vertex -2.870000 6.000000 -10.630000
    endloop
  endfacet
  facet normal 0.000000 -1.000000 0.000000
    outer loop
      vertex -1.100000 7.225000 -12.060000
      vertex 1.100000 7.225000 -12.060000
      vertex 1.100000 7.225000 -9.860000
    endloop
  endfacet
  facet normal 0.000000 -1.000000 0.000000
    outer loop
      vertex -1.100000 7.225000 -12.060000
      vertex 1.100000 7.225000 -9.860000
      vertex -1.100000 7.225000 -9.860000
    endloop
  endfacet
  facet normal 0.000000 1.000000 0.000000
    outer loop
      vertex -1.100000 5.675000 -9.860000
      vertex 1.100000 5.675000 -9.860000
      vertex 1.100000 5.675000 -12.060000
    endloop
  endfacet
  facet normal 0.000000 1.000000 0.000000
    outer loop
      vertex -1.100000 5.675000 -9.860000
      vertex 1.100000 5.675000 -12.060000
      vertex -1.100000 5.675000 -12.060000
    endloop
  endfacet
  facet normal 0.000000 0.000000 -1.000000
    outer loop
      vertex -1.100000 7.225000 -9.860000
      vertex 1.100000 7.225000 -9.860000
      vertex 1.100000 5.675000 -9.860000
    endloop
  endfacet
  facet normal 0.000000 0.000000 -1.000000
    outer loop
      vertex -1.100000 7.225000 -9.860000
      vertex 1.100000 5.675000 -9.860000
      vertex -1.100000 5.675000 -9.860000
    endloop
  endfacet
  facet normal 0.000000 0.000000 1.000000
    outer loop
      vertex 1.100000 5.675000 -12.060000
      vertex 1.100000 7.225000 -12.060000
      vertex -1.100000 7.225000 -12.060000
    endloop
  endfacet
  facet normal 0.000000 0.000000 1.000000
    outer loop
      vertex 1.100000 5.675000 -12.060000
      vertex -1.100000 7.225000 -12.060000
      vertex -1.100000 5.675000 -12.060000
    endloop
  endfacet
  facet normal -1.000000 0.000000 0.000000
    outer loop
      vertex 1.100000 5.675000 -9.860000
      vertex 1.100000 7.225000 -9.860000
      vertex 1.100000 7.225000 -12.060000
    endloop
  endfacet
  facet normal -1.000000 0.000000 0.000000
    outer loop
      vertex 1.100000 5.675000 -9.860000
      vertex 1.100000 7.225000 -12.060000
      vertex 1.100000 5.675000 -12.060000
    endloop
  endfacet
  facet normal 1.000000 0.000000 0.000000
    outer loop
      vertex -1.100000 5.675000 -12.060000
      vertex -1.100000 7.225000 -12.060000
      vertex -1.100000 7.225000 -9.860000
    endloop
  endfacet
  facet normal 1.000000 0.000000 0.000000
    outer loop
      vertex -1.100000 5.675000 -12.060000
      vertex -1.100000 7.225000 -9.860000
      vertex -1.100000 5.675000 -9.860000
    endloop
  endfacet
  facet normal 0.000000 -1.000000 0.000000
    outer loop
      vertex -0.330000 11.200000 -11.290000
      vertex 0.330000 11.200000 -11.290000
      vertex 0.330000 11.200000 -10.630000
    endloop
  endfacet
  facet normal 0.000000 -1.000000 0.000000
    outer loop
      vertex -0.330000 11.200000 -11.290000
      vertex 0.330000 11.200000 -10.630000
      vertex -0.330000 11.200000 -10.630000
    endloop
  endfacet
  facet normal 0.000000 1.000000 0.000000
    outer loop
      vertex -0.330000 6.000000 -10.630000
      vertex 0.330000 6.000000 -10.630000
      vertex 0.330000 6.000000 -11.290000
    endloop
  endfacet
  facet normal 0.000000 1.000000 0.000000
    outer loop
      vertex -0.330000 6.000000 -10.630000
      vertex 0.330000 6.000000 -11.290000
      vertex -0.330000 6.000000 -11.290000
    endloop
  endfacet
  facet normal 0.000000 0.000000 -1.000000
    outer loop
      vertex -0.330000 11.200000 -10.630000
      vertex 0.330000 11.200000 -10.630000
      vertex 0.330000 6.000000 -10.630000
    endloop
  endfacet
  facet normal 0.000000 0.000000 -1.000000
    outer loop
      vertex -0.330000 11.200000 -10.630000
      vertex 0.330000 6.000000 -10.630000
      vertex -0.330000 6.000000 -10.630000
    endloop
  endfacet
  facet normal 0.000000 0.000000 1.000000
    outer loop
      vertex 0.330000 6.000000 -11.290000
      vertex 0.330000 11.200000 -11.290000
      vertex -0.330000 11.200000 -11.290000
    endloop
  endfacet
  facet normal 0.000000 0.000000 1.000000
    outer loop
      vertex 0.330000 6.000000 -11.290000
      vertex -0.330000 11.200000 -11.290000
      vertex -0.330000 6.000000 -11.290000
    endloop
  endfacet
  facet normal -1.000000 0.000000 0.000000
    outer loop
      vertex 0.330000 6.000000 -10.630000
      vertex 0.330000 11.200000 -10.630000
      vertex 0.330000 11.200000 -11.290000
    endloop
  endfacet
  facet normal -1.000000 0.000000 0.000000
    outer loop
      vertex 0.330000 6.000000 -10.630000
      vertex 0.330000 11.200000 -11.290000
      vertex 0.330000 6.000000 -11.290000
    endloop
  endfacet
  facet normal 1.000000 0.000000 0.000000
    outer loop
      vertex -0.330000 6.000000 -11.290000
      vertex -0.330000 11.200000 -11.290000
      vertex -0.330000 11.200000 -10.630000
    endloop
  endfacet
  facet normal 1.000000 0.000000 0.000000
    outer loop
      vertex -0.330000 6.000000 -11.290000
      vertex -0.330000 11.200000 -10.630000
      vertex -0.330000 6.000000 -10.630000
    endloop
  endfacet
  facet normal 0.000000 -1.000000 0.000000
    outer loop
      vertex 1.440000 7.225000 -12.060000
      vertex 3.640000 7.225000 -12.060000
      vertex 3.640000 7.225000 -9.860000
    endloop
  endfacet
  facet normal 0.000000 -1.000000 0.000000
    outer loop
      vertex 1.440000 7.225000 -12.060000
      vertex 3.640000 7.225000 -9.860000
      vertex 1.440000 7.225000 -9.860000
    endloop
  endfacet
  facet normal 0.000000 1.000000 0.000000
    outer loop
      vertex 1.440000 5.675000 -9.860000
      vertex 3.640000 5.675000 -9.860000
      vertex 3.640000 5.675000 -12.060000
    endloop
  endfacet
  facet normal 0.000000 1.000000 0.000000
    outer loop
      vertex 1.440000 5.675000 -9.860000
      vertex 3.640000 5.675000 -12.060000
      vertex 1.440000 5.675000 -12.060000
    endloop
  endfacet
  facet normal 0.000000 0.000000 -1.000000
    outer loop
      vertex 1.440000 7.225000 -9.860000
      vertex 3.640000 7.225000 -9.860000
      vertex 3.640000 5.675000 -9.860000
    endloop
  endfacet
  facet normal 0.000000 0.000000 -1.000000
    outer loop
      vertex 1.440000 7.225000 -9.860000
      vertex 3.640000 5.675000 -9.860000
      vertex 1.440000 5.675000 -9.860000
    endloop
  endfacet
  facet normal 0.000000 0.000000 1.000000
    outer loop
      vertex 3.640000 5.675000 -12.060000
      vertex 3.640000 7.225000 -12.060000
      vertex 1.440000 7.225000 -12.060000
    endloop
  endfacet
  facet normal 0.000000 0.000000 1.000000
    outer loop
      vertex 3.640000 5.675000 -12.060000
      vertex 1.440000 7.225000 -12.060000
      vertex 1.440000 5.675000 -12.060000
    endloop
  endfacet
  facet normal -1.000000 0.000000 0.000000
    outer loop
      vertex 3.640000 5.675000 -9.860000
      vertex 3.640000 7.225000 -9.860000
      vertex 3.640000 7.225000 -12.060000
    endloop
  endfacet
  facet normal -1.000000 0.000000 0.000000
    outer loop
      vertex 3.640000 5.675000 -9.860000
      vertex 3.640000 7.225000 -12.060000
      vertex 3.640000 5.675000 -12.060000
    endloop
  endfacet
  facet normal 1.000000 0.000000 0.000000
    outer loop
      vertex 1.440000 5.675000 -12.060000
      vertex 1.440000 7.225000 -12.060000
      vertex 1.440000 7.225000 -9.860000
    endloop
  endfacet
  facet normal 1.000000 0.000000 0.000000
    outer loop
      vertex 1.440000 5.675000 -12.060000
      vertex 1.440000 7.225000 -9.860000
      vertex 1.440000 5.675000 -9.860000
    endloop
  endfacet
  facet normal 0.000000 -1.000000 0.000000
    outer loop
      vertex 2.210000 11.200000 -11.290000
      vertex 2.870000 11.200000 -11.290000
      vertex 2.870000 11.200000 -10.630000
    endloop
  endfacet
  facet normal 0.000000 -1.000000 0.000000
    outer loop
      vertex 2.210000 11.200000 -11.290000
      vertex 2.870000 11.200000 -10.630000
      vertex 2.210000 11.200000 -10.630000
    endloop
  endfacet
  facet normal 0.000000 1.000000 0.000000
    outer loop
      vertex 2.210000 6.000000 -10.630000
      vertex 2.870000 6.000000 -10.630000
      vertex 2.870000 6.000000 -11.290000
    endloop
  endfacet
  facet normal 0.000000 1.000000 0.000000
    outer loop
      vertex 2.210000 6.000000 -10.630000
      vertex 2.870000 6.000000 -11.290000
      vertex 2.210000 6.000000 -11.290000
    endloop
  endfacet
  facet normal 0.000000 0.000000 -1.000000
    outer loop
      vertex 2.210000 11.200000 -10.630000
      vertex 2.870000 11.200000 -10.630000
      vertex 2.870000 6.000000 -10.630000
    endloop
  endfacet
  facet normal 0.000000 0.000000 -1.000000
    outer loop
      vertex 2.210000 11.200000 -10.630000
      vertex 2.870000 6.000000 -10.630000
      vertex 2.210000 6.000000 -10.630000
    endloop
  endfacet
  facet normal 0.000000 0.000000 1.000000
    outer loop
      vertex 2.870000 6.000000 -11.290000
      vertex 2.870000 11.200000 -11.290000
      vertex 2.210000 11.200000 -11.290000
    endloop
  endfacet
  facet normal 0.000000 0.000000 1.000000
    outer loop
      vertex 2.870000 6.000000 -11.290000
      vertex 2.210000 11.200000 -11.290000
      vertex 2.210000 6.000000 -11.290000
    endloop
  endfacet
  facet normal -1.000000 0.000000 0.000000
    outer loop
      vertex 2.870000 6.000000 -10.630000
      vertex 2.870000 11.200000 -10.630000
      vertex 2.870000 11.200000 -11.290000
    endloop
  endfacet
  facet normal -1.000000 0.000000 0.000000
    outer loop
      vertex 2.870000 6.000000 -10.630000
      vertex 2.870000 11.200000 -11.290000
      vertex 2.870000 6.000000 -11.290000
    endloop
  endfacet
  facet normal 1.000000 0.000000 0.000000
    outer loop
      vertex 2.210000 6.000000 -11.290000
      vertex 2.210000 11.200000 -11.290000
      vertex 2.210000 11.200000 -10.630000
    endloop
  endfacet
  facet normal 1.000000 0.000000 0.000000
    outer loop
      vertex 2.210000 6.000000 -11.290000
      vertex 2.210000 11.200000 -10.630000
      vertex 2.210000 6.000000 -10.630000
    endloop
  endfacet
  facet normal 0.000000 -1.000000 0.000000
    outer loop
      vertex 3.980000 7.225000 -12.060000
      vertex 6.180000 7.225000 -12.060000
      vertex 6.180000 7.225000 -9.860000
    endloop
  endfacet
  facet normal 0.000000 -1.000000 0.000000
    outer loop
      vertex 3.980000 7.225000 -12.060000
      vertex 6.180000 7.225000 -9.860000
      vertex 3.980000 7.225000 -9.860000
    endloop
  endfacet
  facet normal 0.000000 1.000000 0.000000
    outer loop
      vertex 3.980000 5.675000 -9.860000
      vertex 6.180000 5.675000 -9.860000
      vertex 6.180000 5.675000 -12.060000
    endloop
  endfacet
  facet normal 0.000000 1.000000 0.000000
    outer loop
      vertex 3.980000 5.675000 -9.860000
      vertex 6.180000 5.675000 -12.060000
      vertex 3.980000 5.675000 -12.060000
    endloop
  endfacet
  facet normal 0.000000 0.000000 -1.000000
    outer loop
      vertex 3.980000 7.225000 -9.860000
      vertex 6.180000 7.225000 -9.860000
      vertex 6.180000 5.675000 -9.860000
    endloop
  endfacet
  facet normal 0.000000 0.000000 -1.000000
    outer loop
      vertex 3.980000 7.225000 -9.860000
      vertex 6.180000 5.675000 -9.860000
      vertex 3.980000 5.675000 -9.860000
    endloop
  endfacet
  facet normal 0.000000 0.000000 1.000000
    outer loop
      vertex 6.180000 5.675000 -12.060000
      vertex 6.180000 7.225000 -12.060000
      vertex 3.980000 7.225000 -12.060000
    endloop
  endfacet
  facet normal 0.000000 0.000000 1.000000
    outer loop
      vertex 6.180000 5.675000 -12.060000
      vertex 3.980000 7.225000 -12.060000
      vertex 3.980000 5.675000 -12.060000
    endloop
  endfacet
  facet normal -1.000000 0.000000 0.000000
    outer loop
      vertex 6.180000 5.675000 -9.860000
      vertex 6.180000 7.225000 -9.860000
      vertex 6.180000 7.225000 -12.060000
    endloop
  endfacet
  facet normal -1.000000 0.000000 0.000000
    outer loop
      vertex 6.180000 5.675000 -9.860000
      vertex 6.180000 7.225000 -12.060000
      vertex 6.180000 5.675000 -12.060000
    endloop
  endfacet
  facet normal 1.000000 0.000000 0.000000
    outer loop
      vertex 3.980000 5.675000 -12.060000
      vertex 3.980000 7.225000 -12.060000
      vertex 3.980000 7.225000 -9.860000
    endloop
  endfacet
  facet normal 1.000000 0.000000 0.000000
    outer loop
      vertex 3.980000 5.675000 -12.060000
      vertex 3.980000 7.225000 -9.860000
      vertex 3.980000 5.675000 -9.860000
    endloop
  endfacet
  facet normal 0.000000 -1.000000 0.000000
    outer loop
      vertex 4.750000 11.200000 -11.290000
      vertex 5.410000 11.200000 -11.290000
      vertex 5.410000 11.200000 -10.630000
    endloop
  endfacet
  facet normal 0.000000 -1.000000 0.000000
    outer loop
      vertex 4.750000 11.200000 -11.290000
      vertex 5.410000 11.200000 -10.630000
      vertex 4.750000 11.200000 -10.630000
    endloop
  endfacet
  facet normal 0.000000 1.000000 0.000000
    outer loop
      vertex 4.750000 6.000000 -10.630000
      vertex 5.410000 6.000000 -10.630000
      vertex 5.410000 6.000000 -11.290000
    endloop
  endfacet
  facet normal 0.000000 1.000000 0.000000
    outer loop
      vertex 4.750000 6.000000 -10.630000
      vertex 5.410000 6.000000 -11.290000
      vertex 4.750000 6.000000 -11.290000
    endloop
  endfacet
  facet normal 0.000000 0.000000 -1.000000
    outer loop
      vertex 4.750000 11.200000 -10.630000
      vertex 5.410000 11.200000 -10.630000
      vertex 5.410000 6.000000 -10.630000
    endloop
  endfacet
  facet normal 0.000000 0.000000 -1.000000
    outer loop
      vertex 4.750000 11.200000 -10.630000
      vertex 5.410000 6.000000 -10.630000
      vertex 4.750000 6.000000 -10.630000
    endloop
  endfacet
  facet normal 0.000000 0.000000 1.000000
    outer loop
      vertex 5.410000 6.000000 -11.290000
      vertex 5.410000 11.200000 -11.290000
      vertex 4.750000 11.200000 -11.290000
    endloop
  endfacet
  facet normal 0.000000 0.000000 1.000000
    outer loop
      vertex 5.410000 6.000000 -11.290000
      vertex 4.750000 11.200000 -11.290000
      vertex 4.750000 6.000000 -11.290000
    endloop
  endfacet
  facet normal -1.000000 0.000000 0.000000
    outer loop
      vertex 5.410000 6.000000 -10.630000
      vertex 5.410000 11.200000 -10.630000
      vertex 5.410000 11.200000 -11.290000
    endloop
  endfacet
  facet normal -1.000000 0.000000 0.000000
    outer loop
      vertex 5.410000 6.000000 -10.630000
      vertex 5.410000 11.200000 -11.290000
      vertex 5.410000 6.000000 -11.290000
    endloop
  endfacet
  facet normal 1.000000 0.000000 0.000000
    outer loop
      vertex 4.750000 6.000000 -11.290000
      vertex 4.750000 11.200000 -11.290000
      vertex 4.750000 11.200000 -10.630000
    endloop
  endfacet
  facet normal 1.000000 0.000000 0.000000
    outer loop
      vertex 4.750000 6.000000 -11.290000
      vertex 4.750000 11.200000 -10.630000
      vertex 4.750000 6.000000 -10.630000
    endloop
  endfacet
  facet normal 0.000000 -1.000000 0.000000
    outer loop
      vertex 6.520000 7.225000 -12.060000
      vertex 8.720000 7.225000 -12.060000
      vertex 8.720000 7.225000 -9.860000
    endloop
  endfacet
  facet normal 0.000000 -1.000000 0.000000
    outer loop
      vertex 6.520000 7.225000 -12.060000
      vertex 8.720000 7.225000 -9.860000
      vertex 6.520000 7.225000 -9.860000
    endloop
  endfacet
  facet normal 0.000000 1.000000 0.000000
    outer loop
      vertex 6.520000 5.675000 -9.860000
      vertex 8.720000 5.675000 -9.860000
      vertex 8.720000 5.675000 -12.060000
    endloop
  endfacet
  facet normal 0.000000 1.000000 0.000000
    outer loop
      vertex 6.520000 5.675000 -9.860000
      vertex 8.720000 5.675000 -12.060000
      vertex 6.520000 5.675000 -12.060000
    endloop
  endfacet
  facet normal 0.000000 0.000000 -1.000000
    outer loop
      vertex 6.520000 7.225000 -9.860000
      vertex 8.720000 7.225000 -9.860000
      vertex 8.720000 5.675000 -9.860000
    endloop
  endfacet
  facet normal 0.000000 0.000000 -1.000000
    outer loop
      vertex 6.520000 7.225000 -9.860000
      vertex 8.720000 5.675000 -9.860000
      vertex 6.520000 5.675000 -9.860000
    endloop
  endfacet
  facet normal 0.000000 0.000000 1.000000
    outer loop
      vertex 8.720000 5.675000 -12.060000
      vertex 8.720000 7.225000 -12.060000
      vertex 6.520000 7.225000 -12.060000
    endloop
  endfacet
  facet normal 0.000000 0.000000 1.000000
    outer loop
      vertex 8.720000 5.675000 -12.060000
      vertex 6.520000 7.225000 -12.060000
      vertex 6.520000 5.675000 -12.060000
    endloop
  endfacet
  facet normal -1.000000 0.000000 0.000000
    outer loop
      vertex 8.720000 5.675000 -9.860000
      vertex 8.720000 7.225000 -9.860000
      vertex 8.720000 7.225000 -12.060000
    endloop
  endfacet
  facet normal -1.000000 0.000000 0.000000
    outer loop
      vertex 8.720000 5.675000 -9.860000
      vertex 8.720000 7.225000 -12.060000
      vertex 8.720000 5.675000 -12.060000
    endloop
  endfacet
  facet normal 1.000000 0.000000 0.000000
    outer loop
      vertex 6.520000 5.675000 -12.060000
      vertex 6.520000 7.225000 -12.060000
      vertex 6.520000 7.225000 -9.860000
    endloop
  endfacet
  facet normal 1.000000 0.000000 0.000000
    outer loop
      vertex 6.520000 5.675000 -12.060000
      vertex 6.520000 7.225000 -9.860000
      vertex 6.520000 5.675000 -9.860000
    endloop
  endfacet
  facet normal 0.000000 -1.000000 0.000000
    outer loop
      vertex 7.290000 11.200000 -11.290000
      vertex 7.950000 11.200000 -11.290000
      vertex 7.950000 11.200000 -10.630000
    endloop
  endfacet
  facet normal 0.000000 -1.000000 0.000000
    outer loop
      vertex 7.290000 11.200000 -11.290000
      vertex 7.950000 11.200000 -10.630000
      vertex 7.290000 11.200000 -10.630000
    endloop
  endfacet
  facet normal 0.000000 1.000000 0.000000
    outer loop
      vertex 7.290000 6.000000 -10.630000
      vertex 7.950000 6.000000 -10.630000
      vertex 7.950000 6.000000 -11.290000
    endloop
  endfacet
  facet normal 0.000000 1.000000 0.000000
    outer loop
      vertex 7.290000 6.000000 -10.630000
      vertex 7.950000 6.000000 -11.290000
      vertex 7.290000 6.000000 -11.290000
    endloop
  endfacet
  facet normal 0.000000 0.000000 -1.000000
    outer loop
      vertex 7.290000 11.200000 -10.630000
      vertex 7.950000 11.200000 -10.630000
      vertex 7.950000 6.000000 -10.630000
    endloop
  endfacet
  facet normal 0.000000 0.000000 -1.000000
    outer loop
      vertex 7.290000 11.200000 -10.630000
      vertex 7.950000 6.000000 -10.630000
      vertex 7.290000 6.000000 -10.630000
    endloop
  endfacet
  facet normal 0.000000 0.000000 1.000000
    outer loop
      vertex 7.950000 6.000000 -11.290000
      vertex 7.950000 11.200000 -11.290000
      vertex 7.290000 11.200000 -11.290000
    endloop
  endfacet
  facet normal 0.000000 0.000000 1.000000
    outer loop
      vertex 7.950000 6.000000 -11.290000
      vertex 7.290000 11.200000 -11.290000
      vertex 7.290000 6.000000 -11.290000
    endloop
  endfacet
  facet normal -1.000000 0.000000 0.000000
    outer loop
      vertex 7.950000 6.000000 -10.630000
      vertex 7.950000 11.200000 -10.630000
      vertex 7.950000 11.200000 -11.290000
    endloop
  endfacet
  facet normal -1.000000 0.000000 0.000000
    outer loop
      vertex 7.950000 6.000000 -10.630000
      vertex 7.950000 11.200000 -11.290000
      vertex 7.950000 6.000000 -11.290000
    endloop
  endfacet
  facet normal 1.000000 0.000000 0.000000
    outer loop
      vertex 7.290000 6.000000 -11.290000
      vertex 7.290000 11.200000 -11.290000
      vertex 7.290000 11.200000 -10.630000
    endloop
  endfacet
  facet normal 1.000000 0.000000 0.000000
    outer loop
      vertex 7.290000 6.000000 -11.290000
      vertex 7.290000 11.200000 -10.630000
      vertex 7.290000 6.000000 -10.630000
    endloop
  endfacet
  facet normal 0.000000 -1.000000 0.000000
    outer loop
      vertex 9.060000 7.225000 -12.060000
      vertex 11.260000 7.225000 -12.060000
      vertex 11.260000 7.225000 -9.860000
    endloop
  endfacet
  facet normal 0.000000 -1.000000 0.000000
    outer loop
      vertex 9.060000 7.225000 -12.060000
      vertex 11.260000 7.225000 -9.860000
      vertex 9.060000 7.225000 -9.860000
    endloop
  endfacet
  facet normal 0.000000 1.000000 0.000000
    outer loop
      vertex 9.060000 5.675000 -9.860000
      vertex 11.260000 5.675000 -9.860000
      vertex 11.260000 5.675000 -12.060000
    endloop
  endfacet
  facet normal 0.000000 1.000000 0.000000
    outer loop
      vertex 9.060000 5.675000 -9.860000
      vertex 11.260000 5.675000 -12.060000
      vertex 9.060000 5.675000 -12.060000
    endloop
  endfacet
  facet normal 0.000000 0.000000 -1.000000
    outer loop
      vertex 9.060000 7.225000 -9.860000
      vertex 11.260000 7.225000 -9.860000
      vertex 11.260000 5.675000 -9.860000
    endloop
  endfacet
  facet normal 0.000000 0.000000 -1.000000
    outer loop
      vertex 9.060000 7.225000 -9.860000
      vertex 11.260000 5.675000 -9.860000
      vertex 9.060000 5.675000 -9.860000
    endloop
  endfacet
  facet normal 0.000000 0.000000 1.000000
    outer loop
      vertex 11.260000 5.675000 -12.060000
      vertex 11.260000 7.225000 -12.060000
      vertex 9.060000 7.225000 -12.060000
    endloop
  endfacet
  facet normal 0.000000 0.000000 1.000000
    outer loop
      vertex 11.260000 5.675000 -12.060000
      vertex 9.060000 7.225000 -12.060000
      vertex 9.060000 5.675000 -12.060000
    endloop
  endfacet
  facet normal -1.000000 0.000000 0.000000
    outer loop
      vertex 11.260000 5.675000 -9.860000
      vertex 11.260000 7.225000 -9.860000
      vertex 11.260000 7.225000 -12.060000
    endloop
  endfacet
  facet normal -1.000000 0.000000 0.000000
    outer loop
      vertex 11.260000 5.675000 -9.860000
      vertex 11.260000 7.225000 -12.060000
      vertex 11.260000 5.675000 -12.060000
    endloop
  endfacet
  facet normal 1.000000 0.000000 0.000000
    outer loop
      vertex 9.060000 5.675000 -12.060000
      vertex 9.060000 7.225000 -12.060000
      vertex 9.060000 7.225000 -9.860000
    endloop
  endfacet
  facet normal 1.000000 0.000000 0.000000
    outer loop
      vertex 9.060000 5.675000 -12.060000
      vertex 9.060000 7.225000 -9.860000
      vertex 9.060000 5.675000 -9.860000
    endloop
  endfacet
  facet normal 0.000000 -1.000000 0.000000
    outer loop
      vertex 9.830000 11.200000 -11.290000
      vertex 10.490000 11.200000 -11.290000
      vertex 10.490000 11.200000 -10.630000
    endloop
  endfacet
  facet normal 0.000000 -1.000000 0.000000
    outer loop
      vertex 9.830000 11.200000 -11.290000
      vertex 10.490000 11.200000 -10.630000
      vertex 9.830000 11.200000 -10.630000
    endloop
  endfacet
  facet normal 0.000000 1.000000 0.000000
    outer loop
      vertex 9.830000 6.000000 -10.630000
      vertex 10.490000 6.000000 -10.630000
      vertex 10.490000 6.000000 -11.290000
    endloop
  endfacet
  facet normal 0.000000 1.000000 0.000000
    outer loop
      vertex 9.830000 6.000000 -10.630000
      vertex 10.490000 6.000000 -11.290000
      vertex 9.830000 6.000000 -11.290000
    endloop
  endfacet
  facet normal 0.000000 0.000000 -1.000000
    outer loop
      vertex 9.830000 11.200000 -10.630000
      vertex 10.490000 11.200000 -10.630000
      vertex 10.490000 6.000000 -10.630000
    endloop
  endfacet
  facet normal 0.000000 0.000000 -1.000000
    outer loop
      vertex 9.830000 11.200000 -10.630000
      vertex 10.490000 6.000000 -10.630000
      vertex 9.830000 6.000000 -10.630000
    endloop
  endfacet
  facet normal 0.000000 0.000000 1.000000
    outer loop
      vertex 10.490000 6.000000 -11.290000
      vertex 10.490000 11.200000 -11.290000
      vertex 9.830000 11.200000 -11.290000
    endloop
  endfacet
  facet normal 0.000000 0.000000 1.000000
    outer loop
      vertex 10.490000 6.000000 -11.290000
      vertex 9.830000 11.200000 -11.290000
      vertex 9.830000 6.000000 -11.290000
    endloop
  endfacet
  facet normal -1.000000 0.000000 0.000000
    outer loop
      vertex 10.490000 6.000000 -10.630000
      vertex 10.490000 11.200000 -10.630000
      vertex 10.490000 11.200000 -11.290000
    endloop
  endfacet
  facet normal -1.000000 0.000000 0.000000
    outer loop
      vertex 10.490000 6.000000 -10.630000
      vertex 10.490000 11.200000 -11.290000
      vertex 10.490000 6.000000 -11.290000
    endloop
  endfacet
  facet normal 1.000000 0.000000 0.000000
    outer loop
      vertex 9.830000 6.000000 -11.290000
      vertex 9.830000 11.200000 -11.290000
      vertex 9.830000 11.200000 -10.630000
    endloop
  endfacet
  facet normal 1.000000 0.000000 0.000000
    outer loop
      vertex 9.830000 6.000000 -11.290000
      vertex 9.830000 11.200000 -10.630000
      vertex 9.830000 6.000000 -10.630000
    endloop
  endfacet
  facet normal 0.000000 -1.000000 0.000000
    outer loop
      vertex -11.430000 4.050000 -12.210000
      vertex 11.430000 4.050000 -12.210000
      vertex 11.430000 4.050000 -9.710000
    endloop
  endfacet
  facet normal 0.000000 -1.000000 0.000000
    outer loop
      vertex -11.430000 4.050000 -12.210000
      vertex 11.430000 4.050000 -9.710000
      vertex -11.430000 4.050000 -9.710000
    endloop
  endfacet
  facet normal 0.000000 1.000000 0.000000
    outer loop
      vertex -11.430000 1.550000 -9.710000
      vertex 11.430000 1.550000 -9.710000
      vertex 11.430000 1.550000 -12.210000
    endloop
  endfacet
  facet normal 0.000000 1.000000 0.000000
    outer loop
      vertex -11.430000 1.550000 -9.710000
      vertex 11.430000 1.550000 -12.210000
      vertex -11.430000 1.550000 -12.210000
    endloop
  endfacet
  facet normal 0.000000 0.000000 -1.000000
    outer loop
      vertex -11.430000 4.050000 -9.710000
      vertex 11.430000 4.050000 -9.710000
      vertex 11.430000 1.550000 -9.710000
    endloop
  endfacet
  facet normal 0.000000 0.000000 -1.000000
    outer loop
      vertex -11.430000 4.050000 -9.710000
      vertex 11.430000 1.550000 -9.710000
      vertex -11.430000 1.550000 -9.710000
    endloop
  endfacet
  facet normal 0.000000 0.000000 1.000000
    outer loop
      vertex 11.430000 1.550000 -12.210000
      vertex 11.430000 4.050000 -12.210000
      vertex -11.430000 4.050000 -12.210000
    endloop
  endfacet
  facet normal 0.000000 0.000000 1.000000
    outer loop
      vertex 11.430000 1.550000 -12.210000
      vertex -11.430000 4.050000 -12.210000
      vertex -11.430000 1.550000 -12.210000
    endloop
  endfacet
  facet normal -1.000000 0.000000 0.000000
    outer loop
      vertex 11.430000 1.550000 -9.710000
      vertex 11.430000 4.050000 -9.710000
      vertex 11.430000 4.050000 -12.210000
    endloop
  endfacet
  facet normal -1.000000 0.000000 0.000000
    outer loop
      vertex 11.430000 1.550000 -9.710000
      vertex 11.430000 4.050000 -12.210000
      vertex 11.430000 1.550000 -12.210000
    endloop
  endfacet
  facet normal 1.000000 0.000000 0.000000
    outer loop
      vertex -11.430000 1.550000 -12.210000
      vertex -11.430000 4.050000 -12.210000
      vertex -11.430000 4.050000 -9.710000
    endloop
  endfacet
  facet normal 1.000000 0.000000 0.000000
    outer loop
      vertex -11.430000 1.550000 -12.210000
      vertex -11.430000 4.050000 -9.710000
      vertex -11.430000 1.550000 -9.710000
    endloop
  endfacet
  facet normal 0.000000 -1.000000 0.000000
    outer loop
      vertex -11.475000 3.800000 -4.250000
      vertex 11.475000 3.800000 -4.250000
      vertex 11.475000 3.800000 9.250000
    endloop
  endfacet
  facet normal 0.000000 -1.000000 0.000000
    outer loop
      vertex -11.475000 3.800000 -4.250000
      vertex 11.475000 3.800000 9.250000
      vertex -11.475000 3.800000 9.250000
    endloop
  endfacet
  facet normal 0.000000 1.000000 0.000000
    outer loop
      vertex -11.475000 1.800000 9.250000
      vertex 11.475000 1.800000 9.250000
      vertex 11.475000 1.800000 -4.250000
    endloop
  endfacet
  facet normal 0.000000 1.000000 0.000000
    outer loop
      vertex -11.475000 1.800000 9.250000
      vertex 11.475000 1.800000 -4.250000
      vertex -11.475000 1.800000 -4.250000
    endloop
  endfacet
  facet normal 0.000000 0.000000 -1.000000
    outer loop
      vertex -11.475000 3.800000 9.250000
      vertex 11.475000 3.800000 9.250000
      vertex 11.475000 1.800000 9.250000
    endloop
  endfacet
  facet normal 0.000000 0.000000 -1.000000
    outer loop
      vertex -11.475000 3.800000 9.250000
      vertex 11.475000 1.800000 9.250000
      vertex -11.475000 1.800000 9.250000
    endloop
  endfacet
  facet normal 0.000000 0.000000 1.000000
    outer loop
      vertex 11.475000 1.800000 -4.250000
      vertex 11.475000 3.800000 -4.250000
      vertex -11.475000 3.800000 -4.250000
    endloop
  endfacet
  facet normal 0.000000 0.000000 1.000000
    outer loop
      vertex 11.475000 1.800000 -4.250000
      vertex -11.475000 3.800000 -4.250000
      vertex -11.475000 1.800000 -4.250000
    endloop
  endfacet
  facet normal -1.000000 0.000000 0.000000
    outer loop
      vertex 11.475000 1.800000 9.250000
      vertex 11.475000 3.800000 9.250000
      vertex 11.475000 3.800000 -4.250000
    endloop
  endfacet
  facet normal -1.000000 0.000000 0.000000
    outer loop
      vertex 11.475000 1.800000 9.250000
      vertex 11.475000 3.800000 -4.250000
      vertex 11.475000 1.800000 -4.250000
    endloop
  endfacet
  facet normal 1.000000 0.000000 0.000000
    outer loop
      vertex -11.475000 1.800000 -4.250000
      vertex -11.475000 3.800000 -4.250000
      vertex -11.475000 3.800000 9.250000
    endloop
  endfacet
  facet normal 1.000000 0.000000 0.000000
    outer loop
      vertex -11.475000 1.800000 -4.250000
      vertex -11.475000 3.800000 9.250000
      vertex -11.475000 1.800000 9.250000
    endloop
  endfacet
endsolid tft_ili9341_28