solid stepper_motor_nema17
  facet normal 0.000000 -1.000000 0.000000
    outer loop
      vertex -21.150000 47.000000 -21.150000
      vertex 21.150000 47.000000 -21.150000
      vertex 21.150000 47.000000 21.150000
    endloop
  endfacet
  facet normal 0.000000 -1.000000 0.000000
    outer loop
      vertex -21.150000 47.000000 -21.150000
      vertex 21.150000 47.000000 21.150000
      vertex -21.150000 47.000000 21.150000
    endloop
  endfacet
  facet normal 0.000000 1.000000 0.000000
    outer loop
      vertex -21.150000 0.000000 21.150000
      vertex 21.150000 0.000000 21.150000
      vertex 21.150000 0.000000 -21.150000
    endloop
  endfacet
  facet normal 0.000000 1.000000 0.000000
    outer loop
      vertex -21.150000 0.000000 21.150000
      vertex 21.150000 0.000000 -21.150000
      vertex -21.150000 0.000000 -21.150000
    endloop
  endfacet
  facet normal 0.000000 0.000000 -1.000000
    outer loop
      vertex -21.150000 47.000000 21.150000
      vertex 21.150000 47.000000 21.150000
      vertex 21.150000 0.000000 21.150000
    endloop
  endfacet
  facet normal 0.000000 0.000000 -1.000000
    outer loop
      vertex -21.150000 47.000000 21.150000
      vertex 21.150000 0.000000 21.150000
      vertex -21.150000 0.000000 21.150000
    endloop
  endfacet
  facet normal 0.000000 0.000000 1.000000
    outer loop
      vertex 21.150000 0.000000 -21.150000
      vertex 21.150000 47.000000 -21.150000
      vertex -21.150000 47.000000 -21.150000
    endloop
  endfacet
  facet normal 0.000000 0.000000 1.000000
    outer loop
      vertex 21.150000 0.000000 -21.150000
      vertex -21.150000 47.000000 -21.150000
      vertex -21.150000 0.000000 -21.150000
    endloop
  endfacet
  facet normal -1.000000 0.000000 0.000000
    outer loop
      vertex 21.150000 0.000000 21.150000
      vertex 21.150000 47.000000 21.150000
      vertex 21.150000 47.000000 -21.150000
    endloop
  endfacet
  facet normal -1.000000 0.000000 0.000000
    outer loop
      vertex 21.150000 0.000000 21.150000
      vertex 21.150000 47.000000 -21.150000
      vertex 21.150000 0.000000 -21.150000
    endloop
  endfacet
  facet normal 1.000000 0.000000 0.000000
    outer loop
      vertex -21.150000 0.000000 -21.150000
      vertex -21.150000 47.000000 -21.150000
      vertex -21.150000 47.000000 21.150000
    endloop
  endfacet
  facet normal 1.000000 0.000000 0.000000
    outer loop
      vertex -21.150000 0.000000 -21.150000
      vertex -21.150000 47.000000 21.150000
      vertex -21.150000 0.000000 21.150000
    endloop
  endfacet
  facet normal 0.000000 0.000000 1.000000
    outer loop
      vertex -7.100000 2.900000 -22.225000
      vertex -4.900000 2.900000 -22.225000
      vertex -4.900000 5.100000 -22.225000
    endloop
  endfacet
  facet normal 0.000000 0.000000 1.000000
    outer loop
      vertex -7.100000 2.900000 -22.225000
      vertex -4.900000 5.100000 -22.225000
      vertex -7.100000 5.100000 -22.225000
    endloop
  endfacet
  facet normal 0.000000 0.000000 -1.000000
    outer loop
      vertex -7.100000 5.100000 -20.675000
      vertex -4.900000 5.100000 -20.675000
      vertex -4.900000 2.900000 -20.675000
    endloop
  endfacet
  facet normal 0.000000 0.000000 -1.000000
    outer loop
      vertex -7.100000 5.100000 -20.675000
      vertex -4.900000 2.900000 -20.675000
      vertex -7.100000 2.900000 -20.675000
    endloop
  endfacet
  facet normal 0.000000 -1.000000 0.000000
    outer loop
      vertex -7.100000 5.100000 -22.225000
      vertex -4.900000 5.100000 -22.225000
      vertex -4.900000 5.100000 -20.675000
    endloop
  endfacet
  facet normal 0.000000 -1.000000 0.000000
    outer loop
      vertex -7.100000 5.100000 -22.225000
      vertex -4.900000 5.100000 -20.675000
      vertex -7.100000 5.100000 -20.675000
    endloop
  endfacet
  facet normal 0.000000 1.000000 0.000000
    outer loop
      vertex -4.900000 2.900000 -20.675000
      vertex -4.900000 2.900000 -22.225000
      vertex -7.100000 2.900000 -22.225000
    endloop
  endfacet
  facet normal 0.000000 1.000000 0.000000
    outer loop
      vertex -4.900000 2.900000 -20.675000
      vertex -7.100000 2.900000 -22.225000
      vertex -7.100000 2.900000 -20.675000
    endloop
  endfacet
  facet normal -1.000000 0.000000 0.000000
    outer loop
      vertex -4.900000 5.100000 -20.675000
      vertex -4.900000 5.100000 -22.225000
      vertex -4.900000 2.900000 -22.225000
    endloop
  endfacet
  facet normal -1.000000 0.000000 0.000000
    outer loop
      vertex -4.900000 5.100000 -20.675000
      vertex -4.900000 2.900000 -22.225000
      vertex -4.900000 2.900000 -20.675000
    endloop
  endfacet
  facet normal 1.000000 0.000000 0.000000
    outer loop
      vertex -7.100000 2.900000 -20.675000
      vertex -7.100000 2.900000 -22.225000
      vertex -7.100000 5.100000 -22.225000
    endloop
  endfacet
  facet normal 1.000000 0.000000 0.000000
    outer loop
      vertex -7.100000 2.900000 -20.675000
      vertex -7.100000 5.100000 -22.225000
      vertex -7.100000 5.100000 -20.675000
    endloop
  endfacet
  facet normal 0.000000 0.000000 1.000000
    outer loop
      vertex -6.330000 3.670000 -26.200000
      vertex -5.670000 3.670000 -26.200000
      vertex -5.670000 4.330000 -26.200000
    endloop
  endfacet
  facet normal 0.000000 0.000000 1.000000
    outer loop
      vertex -6.330000 3.670000 -26.200000
      vertex -5.670000 4.330000 -26.200000
      vertex -6.330000 4.330000 -26.200000
    endloop
  endfacet
  facet normal 0.000000 0.000000 -1.000000
    outer loop
      vertex -6.330000 4.330000 -21.000000
      vertex -5.670000 4.330000 -21.000000
      vertex -5.670000 3.670000 -21.000000
    endloop
  endfacet
  facet normal 0.000000 0.000000 -1.000000
    outer loop
      vertex -6.330000 4.330000 -21.000000
      vertex -5.670000 3.670000 -21.000000
      vertex -6.330000 3.670000 -21.000000
    endloop
  endfacet
  facet normal 0.000000 -1.000000 0.000000
    outer loop
      vertex -6.330000 4.330000 -26.200000
      vertex -5.670000 4.330000 -26.200000
      vertex -5.670000 4.330000 -21.000000
    endloop
  endfacet
  facet normal 0.000000 -1.000000 0.000000
    outer loop
      vertex -6.330000 4.330000 -26.200000
      vertex -5.670000 4.330000 -21.000000
      vertex -6.330000 4.330000 -21.000000
    endloop
  endfacet
  facet normal 0.000000 1.000000 0.000000
    outer loop
      vertex -5.670000 3.670000 -21.000000
      vertex -5.670000 3.670000 -26.200000
      vertex -6.330000 3.670000 -26.200000
    endloop
  endfacet
  facet normal 0.000000 1.000000 0.000000
    outer loop
      vertex -5.670000 3.670000 -21.000000
      vertex -6.330000 3.670000 -26.200000
      vertex -6.330000 3.670000 -21.000000
    endloop
  endfacet
  facet normal -1.000000 0.000000 0.000000
    outer loop
      vertex -5.670000 4.330000 -21.000000
      vertex -5.670000 4.330000 -26.200000
      vertex -5.670000 3.670000 -26.200000
    endloop
  endfacet
  facet normal -1.000000 0.000000 0.000000
    outer loop
      vertex -5.670000 4.330000 -21.000000
      vertex -5.670000 3.670000 -26.200000
      vertex -5.670000 3.670000 -21.000000
    endloop
  endfacet
  facet normal 1.000000 0.000000 0.000000
    outer loop
      vertex -6.330000 3.670000 -21.000000
      vertex -6.330000 3.670000 -26.200000
      vertex -6.330000 4.330000 -26.200000
    endloop
  endfacet
  facet normal 1.000000 0.000000 0.000000
    outer loop
      vertex -6.330000 3.670000 -21.000000
      vertex -6.330000 4.330000 -26.200000
      vertex -6.330000 4.330000 -21.000000
    endloop
  endfacet
  facet normal 0.000000 0.000000 1.000000
    outer loop
      vertex -3.100000 2.900000 -22.225000
      vertex -0.900000 2.900000 -22.225000
      vertex -0.900000 5.100000 -22.225000
    endloop
  endfacet
  facet normal 0.000000 0.000000 1.000000
    outer loop
      vertex -3.100000 2.900000 -22.225000
      vertex -0.900000 5.100000 -22.225000
      vertex -3.100000 5.100000 -22.225000
    endloop
  endfacet
  facet normal 0.000000 0.000000 -1.000000
    outer loop
      vertex -3.100000 5.100000 -20.675000
      vertex -0.900000 5.100000 -20.675000
      vertex -0.900000 2.900000 -20.675000
    endloop
  endfacet
  facet normal 0.000000 0.000000 -1.000000
    outer loop
      vertex -3.100000 5.100000 -20.675000
      vertex -0.900000 2.900000 -20.675000
      vertex -3.100000 2.900000 -20.675000
    endloop
  endfacet
  facet normal 0.000000 -1.000000 0.000000
    outer loop
      vertex -3.100000 5.100000 -22.225000
      vertex -0.900000 5.100000 -22.225000
      vertex -0.900000 5.100000 -20.675000
    endloop
  endfacet
  facet normal 0.000000 -1.000000 0.000000
    outer loop
      vertex -3.100000 5.100000 -22.225000
      vertex -0.900000 5.100000 -20.675000
      vertex -3.100000 5.100000 -20.675000
    endloop
  endfacet
  facet normal 0.000000 1.000000 0.000000
    outer loop
      vertex -0.900000 2.900000 -20.675000
      vertex -0.900000 2.900000 -22.225000
      vertex -3.100000 2.900000 -22.225000
    endloop
  endfacet
  facet normal 0.000000 1.000000 0.000000
    outer loop
      vertex -0.900000 2.900000 -20.675000
      vertex -3.100000 2.900000 -22.225000
      vertex -3.100000 2.900000 -20.675000
    endloop
  endfacet
  facet normal -1.000000 0.000000 0.000000
    outer loop
      vertex -0.900000 5.100000 -20.675000
      vertex -0.900000 5.100000 -22.225000
      vertex -0.900000 2.900000 -22.225000
    endloop
  endfacet
  facet normal -1.000000 0.000000 0.000000
    outer loop
      vertex -0.900000 5.100000 -20.675000
      vertex -0.900000 2.900000 -22.225000
      vertex -0.900000 2.900000 -20.675000
    endloop
  endfacet
  facet normal 1.000000 0.000000 0.000000
    outer loop
      vertex -3.100000 2.900000 -20.675000
      vertex -3.100000 2.900000 -22.225000
      vertex -3.100000 5.100000 -22.225000
    endloop
  endfacet
  facet normal 1.000000 0.000000 0.000000
    outer loop
      vertex -3.100000 2.900000 -20.675000
      vertex -3.100000 5.100000 -22.225000
      vertex -3.100000 5.100000 -20.675000
    endloop
  endfacet
  facet normal 0.000000 0.000000 1.000000
    outer loop
      vertex -2.330000 3.670000 -26.200000
      vertex -1.670000 3.670000 -26.200000
      vertex -1.670000 4.330000 -26.200000
    endloop
  endfacet
  facet normal 0.000000 0.000000 1.000000
    outer loop
      vertex -2.330000 3.670000 -26.200000
      vertex -1.670000 4.330000 -26.200000
      vertex -2.330000 4.330000 -26.200000
    endloop
  endfacet
  facet normal 0.000000 0.000000 -1.000000
    outer loop
      vertex -2.330000 4.330000 -21.000000
      vertex -1.670000 4.330000 -21.000000
      vertex -1.670000 3.670000 -21.000000
    endloop
  endfacet
  facet normal 0.000000 0.000000 -1.000000
    outer loop
      vertex -2.330000 4.330000 -21.000000
      vertex -1.670000 3.670000 -21.000000
      vertex -2.330000 3.670000 -21.000000
    endloop
  endfacet
  facet normal 0.000000 -1.000000 0.000000
    outer loop
      vertex -2.330000 4.330000 -26.200000
      vertex -1.670000 4.330000 -26.200000
      vertex -1.670000 4.330000 -21.000000
    endloop
  endfacet
  facet normal 0.000000 -1.000000 0.000000
    outer loop
      vertex -2.330000 4.330000 -26.200000
      vertex -1.670000 4.330000 -21.000000
      vertex -2.330000 4.330000 -21.000000
    endloop
  endfacet
  facet normal 0.000000 1.000000 0.000000
    outer loop
      vertex -1.670000 3.670000 -21.000000
      vertex -1.670000 3.670000 -26.200000
      vertex -2.330000 3.670000 -26.200000
    endloop
  endfacet
  facet normal 0.000000 1.000000 0.000000
    outer loop
      vertex -1.670000 3.670000 -21.000000
      vertex -2.330000 3.670000 -26.200000
      vertex -2.330000 3.670000 -21.000000
    endloop
  endfacet
  facet normal -1.000000 0.000000 0.000000
    outer loop
      vertex -1.670000 4.330000 -21.000000
      vertex -1.670000 4.330000 -26.200000
      vertex -1.670000 3.670000 -26.200000
    endloop
  endfacet
  facet normal -1.000000 0.000000 0.000000
    outer loop
      vertex -1.670000 4.330000 -21.000000
      vertex -1.670000 3.670000 -26.200000
      vertex -1.670000 3.670000 -21.000000
    endloop
  endfacet
  facet normal 1.000000 0.000000 0.000000
    outer loop
      vertex -2.330000 3.670000 -21.000000
      vertex -2.330000 3.670000 -26.200000
      vertex -2.330000 4.330000 -26.200000
    endloop
  endfacet
  facet normal 1.000000 0.000000 0.000000
    outer loop
      vertex -2.330000 3.670000 -21.000000
      vertex -2.330000 4.330000 -26.200000
      vertex -2.330000 4.330000 -21.000000
    endloop
  endfacet
  facet normal 0.000000 0.000000 1.000000
    outer loop
      vertex 0.900000 2.900000 -22.225000
      vertex 3.100000 2.900000 -22.225000
      vertex 3.100000 5.100000 -22.225000
    endloop
  endfacet
  facet normal 0.000000 0.000000 1.000000
    outer loop
      vertex 0.900000 2.900000 -22.225000
      vertex 3.100000 5.100000 -22.225000
      vertex 0.900000 5.100000 -22.225000
    endloop
  endfacet
  facet normal 0.000000 0.000000 -1.000000
    outer loop
      vertex 0.900000 5.100000 -20.675000
      vertex 3.100000 5.100000 -20.675000
      vertex 3.100000 2.900000 -20.675000
    endloop
  endfacet
  facet normal 0.000000 0.000000 -1.000000
    outer loop
      vertex 0.900000 5.100000 -20.675000
      vertex 3.100000 2.900000 -20.675000
      vertex 0.900000 2.900000 -20.675000
    endloop
  endfacet
  facet normal 0.000000 -1.000000 0.000000
    outer loop
      vertex 0.900000 5.100000 -22.225000
      vertex 3.100000 5.100000 -22.225000
      vertex 3.100000 5.100000 -20.675000
    endloop
  endfacet
  facet normal 0.000000 -1.000000 0.000000
    outer loop
      vertex 0.900000 5.100000 -22.225000
      vertex 3.100000 5.100000 -20.675000
      vertex 0.900000 5.100000 -20.675000
    endloop
  endfacet
  facet normal 0.000000 1.000000 0.000000
    outer loop
      vertex 3.100000 2.900000 -20.675000
      vertex 3.100000 2.900000 -22.225000
      vertex 0.900000 2.900000 -22.225000
    endloop
  endfacet
  facet normal 0.000000 1.000000 0.000000
    outer loop
      vertex 3.100000 2.900000 -20.675000
      vertex 0.900000 2.900000 -22.225000
      vertex 0.900000 2.900000 -20.675000
    endloop
  endfacet
  facet normal -1.000000 0.000000 0.000000
    outer loop
      vertex 3.100000 5.100000 -20.675000
      vertex 3.100000 5.100000 -22.225000
      vertex 3.100000 2.900000 -22.225000
    endloop
  endfacet
  facet normal -1.000000 0.000000 0.000000
    outer loop
      vertex 3.100000 5.100000 -20.675000
      vertex 3.100000 2.900000 -22.225000
      vertex 3.100000 2.900000 -20.675000
    endloop
  endfacet
  facet normal 1.000000 0.000000 0.000000
    outer loop
      vertex 0.900000 2.900000 -20.675000
      vertex 0.900000 2.900000 -22.225000
      vertex 0.900000 5.100000 -22.225000
    endloop
  endfacet
  facet normal 1.000000 0.000000 0.000000
    outer loop
      vertex 0.900000 2.900000 -20.675000
      vertex 0.900000 5.100000 -22.225000
      vertex 0.900000 5.100000 -20.675000
    endloop
  endfacet
  facet normal 0.000000 0.000000 1.000000
    outer loop
      vertex 1.670000 3.670000 -26.200000
      vertex 2.330000 3.670000 -26.200000
      vertex 2.330000 4.330000 -26.200000
    endloop
  endfacet
  facet normal 0.000000 0.000000 1.000000
    outer loop
      vertex 1.670000 3.670000 -26.200000
      vertex 2.330000 4.330000 -26.200000
      vertex 1.670000 4.330000 -26.200000
    endloop
  endfacet
  facet normal 0.000000 0.000000 -1.000000
    outer loop
      vertex 1.670000 4.330000 -21.000000
      vertex 2.330000 4.330000 -21.000000
      vertex 2.330000 3.670000 -21.000000
    endloop
  endfacet
  facet normal 0.000000 0.000000 -1.000000
    outer loop
      vertex 1.670000 4.330000 -21.000000
      vertex 2.330000 3.670000 -21.000000
      vertex 1.670000 3.670000 -21.000000
    endloop
  endfacet
  facet normal 0.000000 -1.000000 0.000000
    outer loop
      vertex 1.670000 4.330000 -26.200000
      vertex 2.330000 4.330000 -26.200000
      vertex 2.330000 4.330000 -21.000000
    endloop
  endfacet
  facet normal 0.000000 -1.000000 0.000000
    outer loop
      vertex 1.670000 4.330000 -26.200000
      vertex 2.330000 4.330000 -21.000000
      vertex 1.670000 4.330000 -21.000000
    endloop
  endfacet
  facet normal 0.000000 1.000000 0.000000
    outer loop
      vertex 2.330000 3.670000 -21.000000
      vertex 2.330000 3.670000 -26.200000
      vertex 1.670000 3.670000 -26.200000
    endloop
  endfacet
  facet normal 0.000000 1.000000 0.000000
    outer loop
      vertex 2.330000 3.670000 -21.000000
      vertex 1.670000 3.670000 -26.200000
      vertex 1.670000 3.670000 -21.000000
    endloop
  endfacet
  facet normal -1.000000 0.000000 0.000000
    outer loop
      vertex 2.330000 4.330000 -21.000000
      vertex 2.330000 4.330000 -26.200000
      vertex 2.330000 3.670000 -26.200000
    endloop
  endfacet
  facet normal -1.000000 0.000000 0.000000
    outer loop
      vertex 2.330000 4.330000 -21.000000
      vertex 2.330000 3.670000 -26.200000
      vertex 2.330000 3.670000 -21.000000
    endloop
  endfacet
  facet normal 1.000000 0.000000 0.000000
    outer loop
      vertex 1.670000 3.670000 -21.000000
      vertex 1.670000 3.670000 -26.200000
      vertex 1.670000 4.330000 -26.200000
    endloop
  endfacet
  facet normal 1.000000 0.000000 0.000000
    outer loop
      vertex 1.670000 3.670000 -21.000000
      vertex 1.670000 4.330000 -26.200000
      vertex 1.670000 4.330000 -21.000000
    endloop
  endfacet
  facet normal 0.000000 0.000000 1.000000
    outer loop
      vertex 4.900000 2.900000 -22.225000
      vertex 7.100000 2.900000 -22.225000
      vertex 7.100000 5.100000 -22.225000
    endloop
  endfacet
  facet normal 0.000000 0.000000 1.000000
    outer loop
      vertex 4.900000 2.900000 -22.225000
      vertex 7.100000 5.100000 -22.225000
      vertex 4.900000 5.100000 -22.225000
    endloop
  endfacet
  facet normal 0.000000 0.000000 -1.000000
    outer loop
      vertex 4.900000 5.100000 -20.675000
      vertex 7.100000 5.100000 -20.675000
      vertex 7.100000 2.900000 -20.675000
    endloop
  endfacet
  facet normal 0.000000 0.000000 -1.000000
    outer loop
      vertex 4.900000 5.100000 -20.675000
      vertex 7.100000 2.900000 -20.675000
      vertex 4.900000 2.900000 -20.675000
    endloop
  endfacet
  facet normal 0.000000 -1.000000 0.000000
    outer loop
      vertex 4.900000 5.100000 -22.225000
      vertex 7.100000 5.100000 -22.225000
      vertex 7.100000 5.100000 -20.675000
    endloop
  endfacet
  facet normal 0.000000 -1.000000 0.000000
    outer loop
      vertex 4.900000 5.100000 -22.225000
      vertex 7.100000 5.100000 -20.675000
      vertex 4.900000 5.100000 -20.675000
    endloop
  endfacet
  facet normal 0.000000 1.000000 0.000000
    outer loop
      vertex 7.100000 2.900000 -20.675000
      vertex 7.100000 2.900000 -22.225000
      vertex 4.900000 2.900000 -22.225000
    endloop
  endfacet
  facet normal 0.000000 1.000000 0.000000
    outer loop
      vertex 7.100000 2.900000 -20.675000
      vertex 4.900000 2.900000 -22.225000
      vertex 4.900000 2.900000 -20.675000
    endloop
  endfacet
  facet normal -1.000000 0.000000 0.000000
    outer loop
      vertex 7.100000 5.100000 -20.675000
      vertex 7.100000 5.100000 -22.225000
      vertex 7.100000 2.900000 -22.225000
    endloop
  endfacet
  facet normal -1.000000 0.000000 0.000000
    outer loop
      vertex 7.100000 5.100000 -20.675000
      vertex 7.100000 2.900000 -22.225000
      vertex 7.100000 2.900000 -20.675000
    endloop
  endfacet
  facet normal 1.000000 0.000000 0.000000
    outer loop
      vertex 4.900000 2.900000 -20.675000
      vertex 4.900000 2.900000 -22.225000
      vertex 4.900000 5.100000 -22.225000
    endloop
  endfacet
  facet normal 1.000000 0.000000 0.000000
    outer loop
      vertex 4.900000 2.900000 -20.675000
      vertex 4.900000 5.100000 -22.225000
      vertex 4.900000 5.100000 -20.675000
    endloop
  endfacet
  facet normal 0.000000 0.000000 1.000000
    outer loop
      vertex 5.670000 3.670000 -26.200000
      vertex 6.330000 3.670000 -26.200000
      vertex 6.330000 4.330000 -26.200000
    endloop
  endfacet
  facet normal 0.000000 0.000000 1.000000
    outer loop
      vertex 5.670000 3.670000 -26.200000
      vertex 6.330000 4.330000 -26.200000
      vertex 5.670000 4.330000 -26.200000
    endloop
  endfacet
  facet normal 0.000000 0.000000 -1.000000
    outer loop
      vertex 5.670000 4.330000 -21.000000
      vertex 6.330000 4.330000 -21.000000
      vertex 6.330000 3.670000 -21.000000
    endloop
  endfacet
  facet normal 0.000000 0.000000 -1.000000
    outer loop
      vertex 5.670000 4.330000 -21.000000
      vertex 6.330000 3.670000 -21.000000
      vertex 5.670000 3.670000 -21.000000
    endloop
  endfacet
  facet normal 0.000000 -1.000000 0.000000
    outer loop
      vertex 5.670000 4.330000 -26.200000
      vertex 6.330000 4.330000 -26.200000
      vertex 6.330000 4.330000 -21.000000
    endloop
  endfacet
  facet normal 0.000000 -1.000000 0.000000
    outer loop
      vertex 5.670000 4.330000 -26.200000
      vertex 6.330000 4.330000 -21.000000
      vertex 5.670000 4.330000 -21.000000
    endloop
  endfacet
  facet normal 0.000000 1.000000 0.000000
    outer loop
      vertex 6.330000 3.670000 -21.000000
      vertex 6.330000 3.670000 -26.200000
      vertex 5.670000 3.670000 -26.200000
    endloop
  endfacet
  facet normal 0.000000 1.000000 0.000000
    outer loop
      vertex 6.330000 3.670000 -21.000000
      vertex 5.670000 3.670000 -26.200000
      vertex 5.670000 3.670000 -21.000000
    endloop
  endfacet
  facet normal -1.000000 0.000000 0.000000
    outer loop
      vertex 6.330000 4.330000 -21.000000
      vertex 6.330000 4.330000 -26.200000
      vertex 6.330000 3.670000 -26.200000
    endloop
  endfacet
  facet normal -1.000000 0.000000 0.000000
    outer loop
      vertex 6.330000 4.330000 -21.000000
      vertex 6.330000 3.670000 -26.200000
      vertex 6.330000 3.670000 -21.000000
    endloop
  endfacet
  facet normal 1.000000 0.000000 0.000000
    outer loop
      vertex 5.670000 3.670000 -21.000000
      vertex 5.670000 3.670000 -26.200000
      vertex 5.670000 4.330000 -26.200000
    endloop
  endfacet
  facet normal 1.000000 0.000000 0.000000
    outer loop
      vertex 5.670000 3.670000 -21.000000
      vertex 5.670000 4.330000 -26.200000
      vertex 5.670000 4.330000 -21.000000
    endloop
  endfacet
  facet normal 0.000000 -1.000000 0.000000
    outer loop
      vertex -21.150000 40.000000 -21.150000
      vertex 21.150000 40.000000 -21.150000
      vertex 21.150000 40.000000 21.150000
    endloop
  endfacet
  facet normal 0.000000 -1.000000 0.000000
    outer loop
      vertex -21.150000 40.000000 -21.150000
      vertex 21.150000 40.000000 21.150000
      vertex -21.150000 40.000000 21.150000
    endloop
  endfacet
  facet normal 0.000000 1.000000 0.000000
    outer loop
      vertex -21.150000 6.000000 21.150000
      vertex 21.150000 6.000000 21.150000
      vertex 21.150000 6.000000 -21.150000
    endloop
  endfacet
  facet normal 0.000000 1.000000 0.000000
    outer loop
      vertex -21.150000 6.000000 21.150000
      vertex 21.150000 6.000000 -21.150000
      vertex -21.150000 6.000000 -21.150000
    endloop
  endfacet
  facet normal 0.000000 0.000000 -1.000000
    outer loop
      vertex -21.150000 40.000000 21.150000
      vertex 21.150000 40.000000 21.150000
      vertex 21.150000 6.000000 21.150000
    endloop
  endfacet
  facet normal 0.000000 0.000000 -1.000000
    outer loop
      vertex -21.150000 40.000000 21.150000
      vertex 21.150000 6.000000 21.150000
      vertex -21.150000 6.000000 21.150000
    endloop
  endfacet
  facet normal 0.000000 0.000000 1.000000
    outer loop
      vertex 21.150000 6.000000 -21.150000
      vertex 21.150000 40.000000 -21.150000
      vertex -21.150000 40.000000 -21.150000
    endloop
  endfacet
  facet normal 0.000000 0.000000 1.000000
    outer loop
      vertex 21.150000 6.000000 -21.150000
      vertex -21.150000 40.000000 -21.150000
      vertex -21.150000 6.000000 -21.150000
    endloop
  endfacet
  facet normal -1.000000 0.000000 0.000000
    outer loop
      vertex 21.150000 6.000000 21.150000
      vertex 21.150000 40.000000 21.150000
      vertex 21.150000 40.000000 -21.150000
    endloop
  endfacet
  facet normal -1.000000 0.000000 0.000000
    outer loop
      vertex 21.150000 6.000000 21.150000
      vertex 21.150000 40.000000 -21.150000
      vertex 21.150000 6.000000 -21.150000
    endloop
  endfacet
  facet normal 1.000000 0.000000 0.000000
    outer loop
      vertex -21.150000 6.000000 -21.150000
      vertex -21.150000 40.000000 -21.150000
      vertex -21.150000 40.000000 21.150000
    endloop
  endfacet
  facet normal 1.000000 0.000000 0.000000
    outer loop
      vertex -21.150000 6.000000 -21.150000
      vertex -21.150000 40.000000 21.150000
      vertex -21.150000 6.000000 21.150000
    endloop
  endfacet
  facet normal 0.000000 -1.000000 0.000000
    outer loop
      vertex -21.150000 47.000000 -21.150000
      vertex 21.150000 47.000000 -21.150000
      vertex 21.150000 47.000000 21.150000
    endloop
  endfacet
  facet normal 0.000000 -1.000000 0.000000
    outer loop
      vertex -21.150000 47.000000 -21.150000
      vertex 21.150000 47.000000 21.150000
      vertex -21.150000 47.000000 21.150000
    endloop
  endfacet
  facet normal 0.000000 1.000000 0.000000
    outer loop
      vertex -21.150000 41.000000 21.150000
      vertex 21.150000 41.000000 21.150000
      vertex 21.150000 41.000000 -21.150000
    endloop
  endfacet
  facet normal 0.000000 1.000000 0.000000
    outer loop
      vertex -21.150000 41.000000 21.150000
      vertex 21.150000 41.000000 -21.150000
      vertex -21.150000 41.000000 -21.150000
    endloop
  endfacet
  facet normal 0.000000 0.000000 -1.000000
    outer loop
      vertex -21.150000 47.000000 21.150000
      vertex 21.150000 47.000000 21.150000
      vertex 21.150000 41.000000 21.150000
    endloop
  endfacet
  facet normal 0.000000 0.000000 -1.000000
    outer loop
      vertex -21.150000 47.000000 21.150000
      vertex 21.150000 41.000000 21.150000
      vertex -21.150000 41.000000 21.150000
    endloop
  endfacet
  facet normal 0.000000 0.000000 1.000000
    outer loop
      vertex 21.150000 41.000000 -21.150000
      vertex 21.150000 47.000000 -21.150000
      vertex -21.150000 47.000000 -21.150000
    endloop
  endfacet
  facet normal 0.000000 0.000000 1.000000
    outer loop
      vertex 21.150000 41.000000 -21.150000
      vertex -21.150000 47.000000 -21.150000
      vertex -21.150000 41.000000 -21.150000
    endloop
  endfacet
  facet normal -1.000000 0.000000 0.000000
    outer loop
      vertex 21.150000 41.000000 21.150000
      vertex 21.150000 47.000000 21.150000
      vertex 21.150000 47.000000 -21.150000
    endloop
  endfacet
  facet normal -1.000000 0.000000 0.000000
    outer loop
      vertex 21.150000 41.000000 21.150000
      vertex 21.150000 47.000000 -21.150000
      vertex 21.150000 41.000000 -21.150000
    endloop
  endfacet
  facet normal 1.000000 0.000000 0.000000
    outer loop
      vertex -21.150000 41.000000 -21.150000
      vertex -21.150000 47.000000 -21.150000
      vertex -21.150000 47.000000 21.150000
    endloop
  endfacet
  facet normal 1.000000 0.000000 0.000000
    outer loop
      vertex -21.150000 41.000000 -21.150000
      vertex -21.150000 47.000000 21.150000
      vertex -21.150000 41.000000 21.150000
    endloop
  endfacet
  facet normal 0.000000 -1.000000 0.000000
    outer loop
      vertex -21.150000 6.000000 -21.150000
      vertex 21.150000 6.000000 -21.150000
      vertex 21.150000 6.000000 21.150000
    endloop
  endfacet
  facet normal 0.000000 -1.000000 0.000000
    outer loop
      vertex -21.150000 6.000000 -21.150000
      vertex 21.150000 6.000000 21.150000
      vertex -21.150000 6.000000 21.150000
    endloop
  endfacet
  facet normal 0.000000 1.000000 0.000000
    outer loop
      vertex -21.150000 0.000000 21.150000
      vertex 21.150000 0.000000 21.150000
      vertex 21.150000 0.000000 -21.150000
    endloop
  endfacet
  facet normal 0.000000 1.000000 0.000000
    outer loop
      vertex -21.150000 0.000000 21.150000
      vertex 21.150000 0.000000 -21.150000
      vertex -21.150000 0.000000 -21.150000
    endloop
  endfacet
  facet normal 0.000000 0.000000 -1.000000
    outer loop
      vertex -21.150000 6.000000 21.150000
      vertex 21.150000 6.000000 21.150000
      vertex 21.150000 0.000000 21.150000
    endloop
  endfacet
  facet normal 0.000000 0.000000 -1.000000
    outer loop
      vertex -21.150000 6.000000 21.150000
      vertex 21.150000 0.000000 21.150000
      vertex -21.150000 0.000000 21.150000
    endloop
  endfacet
  facet normal 0.000000 0.000000 1.000000
    outer loop
      vertex 21.150000 0.000000 -21.150000
      vertex 21.150000 6.000000 -21.150000
      vertex -21.150000 6.000000 -21.150000
    endloop
  endfacet
  facet normal 0.000000 0.000000 1.000000
    outer loop
      vertex 21.150000 0.000000 -21.150000
      vertex -21.150000 6.000000 -21.150000
      vertex -21.150000 0.000000 -21.150000
    endloop
  endfacet
  facet normal -1.000000 0.000000 0.000000
    outer loop
      vertex 21.150000 0.000000 21.150000
      vertex 21.150000 6.000000 21.150000
      vertex 21.150000 6.000000 -21.150000
    endloop
  endfacet
  facet normal -1.000000 0.000000 0.000000
    outer loop
      vertex 21.150000 0.000000 21.150000
      vertex 21.150000 6.000000 -21.150000
      vertex 21.150000 0.000000 -21.150000
    endloop
  endfacet
  facet normal 1.000000 0.000000 0.000000
    outer loop
      vertex -21.150000 0.000000 -21.150000
      vertex -21.150000 6.000000 -21.150000
      vertex -21.150000 6.000000 21.150000
    endloop
  endfacet
  facet normal 1.000000 0.000000 0.000000
    outer loop
      vertex -21.150000 0.000000 -21.150000
      vertex -21.150000 6.000000 21.150000
      vertex -21.150000 0.000000 21.150000
    endloop
  endfacet
  facet normal 0.000000 -1.000000 0.000000
    outer loop
      vertex 0.000000 71.000000 0.000000
      vertex 2.500000 71.000000 0.000000
      vertex 2.414815 71.000000 0.647048
    endloop
  endfacet
  facet normal 0.000000 1.000000 0.000000
    outer loop
      vertex 0.000000 47.000000 0.000000
      vertex 2.414815 47.000000 0.647048
      vertex 2.500000 47.000000 0.000000
    endloop
  endfacet
  facet normal -0.991445 0.000000 -0.130526
    outer loop
      vertex 2.500000 47.000000 0.000000
      vertex 2.414815 47.000000 0.647048
      vertex 2.414815 71.000000 0.647048
    endloop
  endfacet
  facet normal -0.991445 0.000000 -0.130526
    outer loop
      vertex 2.500000 47.000000 0.000000
      vertex 2.414815 71.000000 0.647048
      vertex 2.500000 71.000000 0.000000
    endloop
  endfacet
  facet normal 0.000000 -1.000000 0.000000
    outer loop
      vertex 0.000000 71.000000 0.000000
      vertex 2.414815 71.000000 0.647048
      vertex 2.165064 71.000000 1.250000
    endloop
  endfacet
  facet normal 0.000000 1.000000 0.000000
    outer loop
      vertex 0.000000 47.000000 0.000000
      vertex 2.165064 47.000000 1.250000
      vertex 2.414815 47.000000 0.647048
    endloop
  endfacet
  facet normal -0.923880 0.000000 -0.382683
    outer loop
      vertex 2.414815 47.000000 0.647048
      vertex 2.165064 47.000000 1.250000
      vertex 2.165064 71.000000 1.250000
    endloop
  endfacet
  facet normal -0.923880 0.000000 -0.382683
    outer loop
      vertex 2.414815 47.000000 0.647048
      vertex 2.165064 71.000000 1.250000
      vertex 2.414815 71.000000 0.647048
    endloop
  endfacet
  facet normal 0.000000 -1.000000 0.000000
    outer loop
      vertex 0.000000 71.000000 0.000000
      vertex 2.165064 71.000000 1.250000
      vertex 1.767767 71.000000 1.767767
    endloop
  endfacet
  facet normal 0.000000 1.000000 0.000000
    outer loop
      vertex 0.000000 47.000000 0.000000
      vertex 1.767767 47.000000 1.767767
      vertex 2.165064 47.000000 1.250000
    endloop
  endfacet
  facet normal -0.793353 0.000000 -0.608761
    outer loop
      vertex 2.165064 47.000000 1.250000
      vertex 1.767767 47.000000 1.767767
      vertex 1.767767 71.000000 1.767767
    endloop
  endfacet
  facet normal -0.793353 0.000000 -0.608761
    outer loop
      vertex 2.165064 47.000000 1.250000
      vertex 1.767767 71.000000 1.767767
      vertex 2.165064 71.000000 1.250000
    endloop
  endfacet
  facet normal 0.000000 -1.000000 0.000000
    outer loop
      vertex 0.000000 71.000000 0.000000
      vertex 1.767767 71.000000 1.767767
      vertex 1.250000 71.000000 2.165064
    endloop
  endfacet
  facet normal 0.000000 1.000000 0.000000
    outer loop
      vertex 0.000000 47.000000 0.000000
      vertex 1.250000 47.000000 2.165064
      vertex 1.767767 47.000000 1.767767
    endloop
  endfacet
  facet normal -0.608761 0.000000 -0.793353
    outer loop
      vertex 1.767767 47.000000 1.767767
      vertex 1.250000 47.000000 2.165064
      vertex 1.250000 71.000000 2.165064
    endloop
  endfacet
  facet normal -0.608761 0.000000 -0.793353
    outer loop
      vertex 1.767767 47.000000 1.767767
      vertex 1.250000 71.000000 2.165064
      vertex 1.767767 71.000000 1.767767
    endloop
  endfacet
  facet normal 0.000000 -1.000000 0.000000
    outer loop
      vertex 0.000000 71.000000 0.000000
      vertex 1.250000 71.000000 2.165064
      vertex 0.647048 71.000000 2.414815
    endloop
  endfacet
  facet normal 0.000000 1.000000 0.000000
    outer loop
      vertex 0.000000 47.000000 0.000000
      vertex 0.647048 47.000000 2.414815
      vertex 1.250000 47.000000 2.165064
    endloop
  endfacet
  facet normal -0.382683 0.000000 -0.923880
    outer loop
      vertex 1.250000 47.000000 2.165064
      vertex 0.647048 47.000000 2.414815
      vertex 0.647048 71.000000 2.414815
    endloop
  endfacet
  facet normal -0.382683 0.000000 -0.923880
    outer loop
      vertex 1.250000 47.000000 2.165064
      vertex 0.647048 71.000000 2.414815
      vertex 1.250000 71.000000 2.165064
    endloop
  endfacet
  facet normal 0.000000 -1.000000 0.000000
    outer loop
      vertex 0.000000 71.000000 0.000000
      vertex 0.647048 71.000000 2.414815
      vertex 0.000000 71.000000 2.500000
    endloop
  endfacet
  facet normal 0.000000 1.000000 0.000000
    outer loop
      vertex 0.000000 47.000000 0.000000
      vertex 0.000000 47.000000 2.500000
      vertex 0.647048 47.000000 2.414815
    endloop
  endfacet
  facet normal -0.130526 0.000000 -0.991445
    outer loop
      vertex 0.647048 47.000000 2.414815
      vertex 0.000000 47.000000 2.500000
      vertex 0.000000 71.000000 2.500000
    endloop
  endfacet
  facet normal -0.130526 0.000000 -0.991445
    outer loop
      vertex 0.647048 47.000000 2.414815
      vertex 0.000000 71.000000 2.500000
      vertex 0.647048 71.000000 2.414815
    endloop
  endfacet
  facet normal 0.000000 -1.000000 0.000000
    outer loop
      vertex 0.000000 71.000000 0.000000
      vertex 0.000000 71.000000 2.500000
      vertex -0.647048 71.000000 2.414815
    endloop
  endfacet
  facet normal 0.000000 1.000000 0.000000
    outer loop
      vertex 0.000000 47.000000 0.000000
      vertex -0.647048 47.000000 2.414815
      vertex 0.000000 47.000000 2.500000
    endloop
  endfacet
  facet normal 0.130526 0.000000 -0.991445
    outer loop
      vertex 0.000000 47.000000 2.500000
      vertex -0.647048 47.000000 2.414815
      vertex -0.647048 71.000000 2.414815
    endloop
  endfacet
  facet normal 0.130526 0.000000 -0.991445
    outer loop
      vertex 0.000000 47.000000 2.500000
      vertex -0.647048 71.000000 2.414815
      vertex 0.000000 71.000000 2.500000
    endloop
  endfacet
  facet normal 0.000000 -1.000000 0.000000
    outer loop
      vertex 0.000000 71.000000 0.000000
      vertex -0.647048 71.000000 2.414815
      vertex -1.250000 71.000000 2.165064
    endloop
  endfacet
  facet normal 0.000000 1.000000 0.000000
    outer loop
      vertex 0.000000 47.000000 0.000000
      vertex -1.250000 47.000000 2.165064
      vertex -0.647048 47.000000 2.414815
    endloop
  endfacet
  facet normal 0.382683 0.000000 -0.923880
    outer loop
      vertex -0.647048 47.000000 2.414815
      vertex -1.250000 47.000000 2.165064
      vertex -1.250000 71.000000 2.165064
    endloop
  endfacet
  facet normal 0.382683 0.000000 -0.923880
    outer loop
      vertex -0.647048 47.000000 2.414815
      vertex -1.250000 71.000000 2.165064
      vertex -0.647048 71.000000 2.414815
    endloop
  endfacet
  facet normal 0.000000 -1.000000 0.000000
    outer loop
      vertex 0.000000 71.000000 0.000000
      vertex -1.250000 71.000000 2.165064
      vertex -1.767767 71.000000 1.767767
    endloop
  endfacet
  facet normal 0.000000 1.000000 0.000000
    outer loop
      vertex 0.000000 47.000000 0.000000
      vertex -1.767767 47.000000 1.767767
      vertex -1.250000 47.000000 2.165064
    endloop
  endfacet
  facet normal 0.608761 0.000000 -0.793353
    outer loop
      vertex -1.250000 47.000000 2.165064
      vertex -1.767767 47.000000 1.767767
      vertex -1.767767 71.000000 1.767767
    endloop
  endfacet
  facet normal 0.608761 0.000000 -0.793353
    outer loop
      vertex -1.250000 47.000000 2.165064
      vertex -1.767767 71.000000 1.767767
      vertex -1.250000 71.000000 2.165064
    endloop
  endfacet
  facet normal 0.000000 -1.000000 0.000000
    outer loop
      vertex 0.000000 71.000000 0.000000
      vertex -1.767767 71.000000 1.767767
      vertex -2.165064 71.000000 1.250000
    endloop
  endfacet
  facet normal 0.000000 1.000000 0.000000
    outer loop
      vertex 0.000000 47.000000 0.000000
      vertex -2.165064 47.000000 1.250000
      vertex -1.767767 47.000000 1.767767
    endloop
  endfacet
  facet normal 0.793353 0.000000 -0.608761
    outer loop
      vertex -1.767767 47.000000 1.767767
      vertex -2.165064 47.000000 1.250000
      vertex -2.165064 71.000000 1.250000
    endloop
  endfacet
  facet normal 0.793353 0.000000 -0.608761
    outer loop
      vertex -1.767767 47.000000 1.767767
      vertex -2.165064 71.000000 1.250000
      vertex -1.767767 71.000000 1.767767
    endloop
  endfacet
  facet normal 0.000000 -1.000000 0.000000
    outer loop
      vertex 0.000000 71.000000 0.000000
      vertex -2.165064 71.000000 1.250000
      vertex -2.414815 71.000000 0.647048
    endloop
  endfacet
  facet normal 0.000000 1.000000 0.000000
    outer loop
      vertex 0.000000 47.000000 0.000000
      vertex -2.414815 47.000000 0.647048
      vertex -2.165064 47.000000 1.250000
    endloop
  endfacet
  facet normal 0.923880 0.000000 -0.382683
    outer loop
      vertex -2.165064 47.000000 1.250000
      vertex -2.414815 47.000000 0.647048
      vertex -2.414815 71.000000 0.647048
    endloop
  endfacet
  facet normal 0.923880 0.000000 -0.382683
    outer loop
      vertex -2.165064 47.000000 1.250000
      vertex -2.414815 71.000000 0.647048
      vertex -2.165064 71.000000 1.250000
    endloop
  endfacet
  facet normal 0.000000 -1.000000 0.000000
    outer loop
      vertex 0.000000 71.000000 0.000000
      vertex -2.414815 71.000000 0.647048
      vertex -2.500000 71.000000 0.000000
    endloop
  endfacet
  facet normal 0.000000 1.000000 0.000000
    outer loop
      vertex 0.000000 47.000000 0.000000
      vertex -2.500000 47.000000 0.000000
      vertex -2.414815 47.000000 0.647048
    endloop
  endfacet
  facet normal 0.991445 0.000000 -0.130526
    outer loop
      vertex -2.414815 47.000000 0.647048
      vertex -2.500000 47.000000 0.000000
      vertex -2.500000 71.000000 0.000000
    endloop
  endfacet
  facet normal 0.991445 0.000000 -0.130526
    outer loop
      vertex -2.414815 47.000000 0.647048
      vertex -2.500000 71.000000 0.000000
      vertex -2.414815 71.000000 0.647048
    endloop
  endfacet
  facet normal 0.000000 -1.000000 0.000000
    outer loop
      vertex 0.000000 71.000000 0.000000
      vertex -2.500000 71.000000 0.000000
      vertex -2.414815 71.000000 -0.647048
    endloop
  endfacet
  facet normal 0.000000 1.000000 0.000000
    outer loop
      vertex 0.000000 47.000000 0.000000
      vertex -2.414815 47.000000 -0.647048
      vertex -2.500000 47.000000 0.000000
    endloop
  endfacet
  facet normal 0.991445 0.000000 0.130526
    outer loop
      vertex -2.500000 47.000000 0.000000
      vertex -2.414815 47.000000 -0.647048
      vertex -2.414815 71.000000 -0.647048
    endloop
  endfacet
  facet normal 0.991445 0.000000 0.130526
    outer loop
      vertex -2.500000 47.000000 0.000000
      vertex -2.414815 71.000000 -0.647048
      vertex -2.500000 71.000000 0.000000
    endloop
  endfacet
  facet normal 0.000000 -1.000000 0.000000
    outer loop
      vertex 0.000000 71.000000 0.000000
      vertex -2.414815 71.000000 -0.647048
      vertex -2.165064 71.000000 -1.250000
    endloop
  endfacet
  facet normal 0.000000 1.000000 0.000000
    outer loop
      vertex 0.000000 47.000000 0.000000
      vertex -2.165064 47.000000 -1.250000
      vertex -2.414815 47.000000 -0.647048
    endloop
  endfacet
  facet normal 0.923880 0.000000 0.382683
    outer loop
      vertex -2.414815 47.000000 -0.647048
      vertex -2.165064 47.000000 -1.250000
      vertex -2.165064 71.000000 -1.250000
    endloop
  endfacet
  facet normal 0.923880 0.000000 0.382683
    outer loop
      vertex -2.414815 47.000000 -0.647048
      vertex -2.165064 71.000000 -1.250000
      vertex -2.414815 71.000000 -0.647048
    endloop
  endfacet
  facet normal 0.000000 -1.000000 0.000000
    outer loop
      vertex 0.000000 71.000000 0.000000
      vertex -2.165064 71.000000 -1.250000
      vertex -1.767767 71.000000 -1.767767
    endloop
  endfacet
  facet normal 0.000000 1.000000 0.000000
    outer loop
      vertex 0.000000 47.000000 0.000000
      vertex -1.767767 47.000000 -1.767767
      vertex -2.165064 47.000000 -1.250000
    endloop
  endfacet
  facet normal 0.793353 0.000000 0.608761
    outer loop
      vertex -2.165064 47.000000 -1.250000
      vertex -1.767767 47.000000 -1.767767
      vertex -1.767767 71.000000 -1.767767
    endloop
  endfacet
  facet normal 0.793353 0.000000 0.608761
    outer loop
      vertex -2.165064 47.000000 -1.250000
      vertex -1.767767 71.000000 -1.767767
      vertex -2.165064 71.000000 -1.250000
    endloop
  endfacet
  facet normal 0.000000 -1.000000 0.000000
    outer loop
      vertex 0.000000 71.000000 0.000000
      vertex -1.767767 71.000000 -1.767767
      vertex -1.250000 71.000000 -2.165064
    endloop
  endfacet
  facet normal 0.000000 1.000000 0.000000
    outer loop
      vertex 0.000000 47.000000 0.000000
      vertex -1.250000 47.000000 -2.165064
      vertex -1.767767 47.000000 -1.767767
    endloop
  endfacet
  facet normal 0.608761 0.000000 0.793353
    outer loop
      vertex -1.767767 47.000000 -1.767767
      vertex -1.250000 47.000000 -2.165064
      vertex -1.250000 71.000000 -2.165064
    endloop
  endfacet
  facet normal 0.608761 0.000000 0.793353
    outer loop
      vertex -1.767767 47.000000 -1.767767
      vertex -1.250000 71.000000 -2.165064
      vertex -1.767767 71.000000 -1.767767
    endloop
  endfacet
  facet normal 0.000000 -1.000000 0.000000
    outer loop
      vertex 0.000000 71.000000 0.000000
      vertex -1.250000 71.000000 -2.165064
      vertex -0.647048 71.000000 -2.414815
    endloop
  endfacet
  facet normal 0.000000 1.000000 0.000000
    outer loop
      vertex 0.000000 47.000000 0.000000
      vertex -0.647048 47.000000 -2.414815
      vertex -1.250000 47.000000 -2.165064
    endloop
  endfacet
  facet normal 0.382683 0.000000 0.923880
    outer loop
      vertex -1.250000 47.000000 -2.165064
      vertex -0.647048 47.000000 -2.414815
      vertex -0.647048 71.000000 -2.414815
    endloop
  endfacet
  facet normal 0.382683 0.000000 0.923880
    outer loop
      vertex -1.250000 47.000000 -2.165064
      vertex -0.647048 71.000000 -2.414815
      vertex -1.250000 71.000000 -2.165064
    endloop
  endfacet
  facet normal 0.000000 -1.000000 0.000000
    outer loop
      vertex 0.000000 71.000000 0.000000
      vertex -0.647048 71.000000 -2.414815
      vertex -0.000000 71.000000 -2.500000
    endloop
  endfacet
  facet normal 0.000000 1.000000 0.000000
    outer loop
      vertex 0.000000 47.000000 0.000000
      vertex -0.000000 47.000000 -2.500000
      vertex -0.647048 47.000000 -2.414815
    endloop
  endfacet
  facet normal 0.130526 0.000000 0.991445
    outer loop
      vertex -0.647048 47.000000 -2.414815
      vertex -0.000000 47.000000 -2.500000
      vertex -0.000000 71.000000 -2.500000
    endloop
  endfacet
  facet normal 0.130526 0.000000 0.991445
    outer loop
      vertex -0.647048 47.000000 -2.414815
      vertex -0.000000 71.000000 -2.500000
      vertex -0.647048 71.000000 -2.414815
    endloop
  endfacet
  facet normal 0.000000 -1.000000 0.000000
    outer loop
      vertex 0.000000 71.000000 0.000000
      vertex -0.000000 71.000000 -2.500000
      vertex 0.647048 71.000000 -2.414815
    endloop
  endfacet
  facet normal 0.000000 1.000000 0.000000
    outer loop
      vertex 0.000000 47.000000 0.000000
      vertex 0.647048 47.000000 -2.414815
      vertex -0.000000 47.000000 -2.500000
    endloop
  endfacet
  facet normal -0.130526 0.000000 0.991445
    outer loop
      vertex -0.000000 47.000000 -2.500000
      vertex 0.647048 47.000000 -2.414815
      vertex 0.647048 71.000000 -2.414815
    endloop
  endfacet
  facet normal -0.130526 0.000000 0.991445
    outer loop
      vertex -0.000000 47.000000 -2.500000
      vertex 0.647048 71.000000 -2.414815
      vertex -0.000000 71.000000 -2.500000
    endloop
  endfacet
  facet normal 0.000000 -1.000000 0.000000
    outer loop
      vertex 0.000000 71.000000 0.000000
      vertex 0.647048 71.000000 -2.414815
      vertex 1.250000 71.000000 -2.165064
    endloop
  endfacet
  facet normal 0.000000 1.000000 0.000000
    outer loop
      vertex 0.000000 47.000000 0.000000
      vertex 1.250000 47.000000 -2.165064
      vertex 0.647048 47.000000 -2.414815
    endloop
  endfacet
  facet normal -0.382683 0.000000 0.923880
    outer loop
      vertex 0.647048 47.000000 -2.414815
      vertex 1.250000 47.000000 -2.165064
      vertex 1.250000 71.000000 -2.165064
    endloop
  endfacet
  facet normal -0.382683 0.000000 0.923880
    outer loop
      vertex 0.647048 47.000000 -2.414815
      vertex 1.250000 71.000000 -2.165064
      vertex 0.647048 71.000000 -2.414815
    endloop
  endfacet
  facet normal 0.000000 -1.000000 0.000000
    outer loop
      vertex 0.000000 71.000000 0.000000
      vertex 1.250000 71.000000 -2.165064
      vertex 1.767767 71.000000 -1.767767
    endloop
  endfacet
  facet normal 0.000000 1.000000 0.000000
    outer loop
      vertex 0.000000 47.000000 0.000000
      vertex 1.767767 47.000000 -1.767767
      vertex 1.250000 47.000000 -2.165064
    endloop
  endfacet
  facet normal -0.608761 0.000000 0.793353
    outer loop
      vertex 1.250000 47.000000 -2.165064
      vertex 1.767767 47.000000 -1.767767
      vertex 1.767767 71.000000 -1.767767
    endloop
  endfacet
  facet normal -0.608761 0.000000 0.793353
    outer loop
      vertex 1.250000 47.000000 -2.165064
      vertex 1.767767 71.000000 -1.767767
      vertex 1.250000 71.000000 -2.165064
    endloop
  endfacet
  facet normal 0.000000 -1.000000 0.000000
    outer loop
      vertex 0.000000 71.000000 0.000000
      vertex 1.767767 71.000000 -1.767767
      vertex 2.165064 71.000000 -1.250000
    endloop
  endfacet
  facet normal 0.000000 1.000000 0.000000
    outer loop
      vertex 0.000000 47.000000 0.000000
      vertex 2.165064 47.000000 -1.250000
      vertex 1.767767 47.000000 -1.767767
    endloop
  endfacet
  facet normal -0.793353 0.000000 0.608761
    outer loop
      vertex 1.767767 47.000000 -1.767767
      vertex 2.165064 47.000000 -1.250000
      vertex 2.165064 71.000000 -1.250000
    endloop
  endfacet
  facet normal -0.793353 0.000000 0.608761
    outer loop
      vertex 1.767767 47.000000 -1.767767
      vertex 2.165064 71.000000 -1.250000
      vertex 1.767767 71.000000 -1.767767
    endloop
  endfacet
  facet normal 0.000000 -1.000000 0.000000
    outer loop
      vertex 0.000000 71.000000 0.000000
      vertex 2.165064 71.000000 -1.250000
      vertex 2.414815 71.000000 -0.647048
    endloop
  endfacet
  facet normal 0.000000 1.000000 0.000000
    outer loop
      vertex 0.000000 47.000000 0.000000
      vertex 2.414815 47.000000 -0.647048
      vertex 2.165064 47.000000 -1.250000
    endloop
  endfacet
  facet normal -0.923880 0.000000 0.382683
    outer loop
      vertex 2.165064 47.000000 -1.250000
      vertex 2.414815 47.000000 -0.647048
      vertex 2.414815 71.000000 -0.647048
    endloop
  endfacet
  facet normal -0.923880 0.000000 0.382683
    outer loop
      vertex 2.165064 47.000000 -1.250000
      vertex 2.414815 71.000000 -0.647048
      vertex 2.165064 71.000000 -1.250000
    endloop
  endfacet
  facet normal 0.000000 -1.000000 0.000000
    outer loop
      vertex 0.000000 71.000000 0.000000
      vertex 2.414815 71.000000 -0.647048
      vertex 2.500000 71.000000 0.000000
    endloop
  endfacet
  facet normal 0.000000 1.000000 0.000000
    outer loop
      vertex 0.000000 47.000000 0.000000
      vertex 2.500000 47.000000 0.000000
      vertex 2.414815 47.000000 -0.647048
    endloop
  endfacet
  facet normal -0.991445 0.000000 0.130526
    outer loop
      vertex 2.414815 47.000000 -0.647048
      vertex 2.500000 47.000000 0.000000
      vertex 2.500000 71.000000 0.000000
    endloop
  endfacet
  facet normal -0.991445 0.000000 0.130526
    outer loop
      vertex 2.414815 47.000000 -0.647048
      vertex 2.500000 71.000000 0.000000
      vertex 2.414815 71.000000 -0.647048
    endloop
  endfacet
  facet normal 0.000000 -1.000000 0.000000
    outer loop
      vertex 0.000000 49.000000 0.000000
      vertex 11.000000 49.000000 0.000000
      vertex 10.625184 49.000000 2.847009
    endloop
  endfacet
  facet normal 0.000000 1.000000 0.000000
    outer loop
      vertex 0.000000 47.000000 0.000000
      vertex 10.625184 47.000000 2.847009
      vertex 11.000000 47.000000 0.000000
    endloop
  endfacet
  facet normal -0.991445 0.000000 -0.130526
    outer loop
      vertex 11.000000 47.000000 0.000000
      vertex 10.625184 47.000000 2.847009
      vertex 10.625184 49.000000 2.847009
    endloop
  endfacet
  facet normal -0.991445 0.000000 -0.130526
    outer loop
      vertex 11.000000 47.000000 0.000000
      vertex 10.625184 49.000000 2.847009
      vertex 11.000000 49.000000 0.000000
    endloop
  endfacet
  facet normal 0.000000 -1.000000 0.000000
    outer loop
      vertex 0.000000 49.000000 0.000000
      vertex 10.625184 49.000000 2.847009
      vertex 9.526279 49.000000 5.500000
    endloop
  endfacet
  facet normal 0.000000 1.000000 0.000000
    outer loop
      vertex 0.000000 47.000000 0.000000
      vertex 9.526279 47.000000 5.500000
      vertex 10.625184 47.000000 2.847009
    endloop
  endfacet
  facet normal -0.923880 0.000000 -0.382683
    outer loop
      vertex 10.625184 47.000000 2.847009
      vertex 9.526279 47.000000 5.500000
      vertex 9.526279 49.000000 5.500000
    endloop
  endfacet
  facet normal -0.923880 0.000000 -0.382683
    outer loop
      vertex 10.625184 47.000000 2.847009
      vertex 9.526279 49.000000 5.500000
      vertex 10.625184 49.000000 2.847009
    endloop
  endfacet
  facet normal 0.000000 -1.000000 0.000000
    outer loop
      vertex 0.000000 49.000000 0.000000
      vertex 9.526279 49.000000 5.500000
      vertex 7.778175 49.000000 7.778175
    endloop
  endfacet
  facet normal 0.000000 1.000000 0.000000
    outer loop
      vertex 0.000000 47.000000 0.000000
      vertex 7.778175 47.000000 7.778175
      vertex 9.526279 47.000000 5.500000
    endloop
  endfacet
  facet normal -0.793353 0.000000 -0.608761
    outer loop
      vertex 9.526279 47.000000 5.500000
      vertex 7.778175 47.000000 7.778175
      vertex 7.778175 49.000000 7.778175
    endloop
  endfacet
  facet normal -0.793353 0.000000 -0.608761
    outer loop
      vertex 9.526279 47.000000 5.500000
      vertex 7.778175 49.000000 7.778175
      vertex 9.526279 49.000000 5.500000
    endloop
  endfacet
  facet normal 0.000000 -1.000000 0.000000
    outer loop
      vertex 0.000000 49.000000 0.000000
      vertex 7.778175 49.000000 7.778175
      vertex 5.500000 49.000000 9.526279
    endloop
  endfacet
  facet normal 0.000000 1.000000 0.000000
    outer loop
      vertex 0.000000 47.000000 0.000000
      vertex 5.500000 47.000000 9.526279
      vertex 7.778175 47.000000 7.778175
    endloop
  endfacet
  facet normal -0.608761 0.000000 -0.793353
    outer loop
      vertex 7.778175 47.000000 7.778175
      vertex 5.500000 47.000000 9.526279
      vertex 5.500000 49.000000 9.526279
    endloop
  endfacet
  facet normal -0.608761 0.000000 -0.793353
    outer loop
      vertex 7.778175 47.000000 7.778175
      vertex 5.500000 49.000000 9.526279
      vertex 7.778175 49.000000 7.778175
    endloop
  endfacet
  facet normal 0.000000 -1.000000 0.000000
    outer loop
      vertex 0.000000 49.000000 0.000000
      vertex 5.500000 49.000000 9.526279
      vertex 2.847009 49.000000 10.625184
    endloop
  endfacet
  facet normal 0.000000 1.000000 0.000000
    outer loop
      vertex 0.000000 47.000000 0.000000
      vertex 2.847009 47.000000 10.625184
      vertex 5.500000 47.000000 9.526279
    endloop
  endfacet
  facet normal -0.382683 0.000000 -0.923880
    outer loop
      vertex 5.500000 47.000000 9.526279
      vertex 2.847009 47.000000 10.625184
      vertex 2.847009 49.000000 10.625184
    endloop
  endfacet
  facet normal -0.382683 0.000000 -0.923880
    outer loop
      vertex 5.500000 47.000000 9.526279
      vertex 2.847009 49.000000 10.625184
      vertex 5.500000 49.000000 9.526279
    endloop
  endfacet
  facet normal 0.000000 -1.000000 0.000000
    outer loop
      vertex 0.000000 49.000000 0.000000
      vertex 2.847009 49.000000 10.625184
      vertex 0.000000 49.000000 11.000000
    endloop
  endfacet
  facet normal 0.000000 1.000000 0.000000
    outer loop
      vertex 0.000000 47.000000 0.000000
      vertex 0.000000 47.000000 11.000000
      vertex 2.847009 47.000000 10.625184
    endloop
  endfacet
  facet normal -0.130526 0.000000 -0.991445
    outer loop
      vertex 2.847009 47.000000 10.625184
      vertex 0.000000 47.000000 11.000000
      vertex 0.000000 49.000000 11.000000
    endloop
  endfacet
  facet normal -0.130526 0.000000 -0.991445
    outer loop
      vertex 2.847009 47.000000 10.625184
      vertex 0.000000 49.000000 11.000000
      vertex 2.847009 49.000000 10.625184
    endloop
  endfacet
  facet normal 0.000000 -1.000000 0.000000
    outer loop
      vertex 0.000000 49.000000 0.000000
      vertex 0.000000 49.000000 11.000000
      vertex -2.847009 49.000000 10.625184
    endloop
  endfacet
  facet normal 0.000000 1.000000 0.000000
    outer loop
      vertex 0.000000 47.000000 0.000000
      vertex -2.847009 47.000000 10.625184
      vertex 0.000000 47.000000 11.000000
    endloop
  endfacet
  facet normal 0.130526 0.000000 -0.991445
    outer loop
      vertex 0.000000 47.000000 11.000000
      vertex -2.847009 47.000000 10.625184
      vertex -2.847009 49.000000 10.625184
    endloop
  endfacet
  facet normal 0.130526 0.000000 -0.991445
    outer loop
      vertex 0.000000 47.000000 11.000000
      vertex -2.847009 49.000000 10.625184
      vertex 0.000000 49.000000 11.000000
    endloop
  endfacet
  facet normal 0.000000 -1.000000 0.000000
    outer loop
      vertex 0.000000 49.000000 0.000000
      vertex -2.847009 49.000000 10.625184
      vertex -5.500000 49.000000 9.526279
    endloop
  endfacet
  facet normal 0.000000 1.000000 0.000000
    outer loop
      vertex 0.000000 47.000000 0.000000
      vertex -5.500000 47.000000 9.526279
      vertex -2.847009 47.000000 10.625184
    endloop
  endfacet
  facet normal 0.382683 0.000000 -0.923880
    outer loop
      vertex -2.847009 47.000000 10.625184
      vertex -5.500000 47.000000 9.526279
      vertex -5.500000 49.000000 9.526279
    endloop
  endfacet
  facet normal 0.382683 0.000000 -0.923880
    outer loop
      vertex -2.847009 47.000000 10.625184
      vertex -5.500000 49.000000 9.526279
      vertex -2.847009 49.000000 10.625184
    endloop
  endfacet
  facet normal 0.000000 -1.000000 0.000000
    outer loop
      vertex 0.000000 49.000000 0.000000
      vertex -5.500000 49.000000 9.526279
      vertex -7.778175 49.000000 7.778175
    endloop
  endfacet
  facet normal 0.000000 1.000000 0.000000
    outer loop
      vertex 0.000000 47.000000 0.000000
      vertex -7.778175 47.000000 7.778175
      vertex -5.500000 47.000000 9.526279
    endloop
  endfacet
  facet normal 0.608761 0.000000 -0.793353
    outer loop
      vertex -5.500000 47.000000 9.526279
      vertex -7.778175 47.000000 7.778175
      vertex -7.778175 49.000000 7.778175
    endloop
  endfacet
  facet normal 0.608761 0.000000 -0.793353
    outer loop
      vertex -5.500000 47.000000 9.526279
      vertex -7.778175 49.000000 7.778175
      vertex -5.500000 49.000000 9.526279
    endloop
  endfacet
  facet normal 0.000000 -1.000000 0.000000
    outer loop
      vertex 0.000000 49.000000 0.000000
      vertex -7.778175 49.000000 7.778175
      vertex -9.526279 49.000000 5.500000
    endloop
  endfacet
  facet normal 0.000000 1.000000 0.000000
    outer loop
      vertex 0.000000 47.000000 0.000000
      vertex -9.526279 47.000000 5.500000
      vertex -7.778175 47.000000 7.778175
    endloop
  endfacet
  facet normal 0.793353 0.000000 -0.608761
    outer loop
      vertex -7.778175 47.000000 7.778175
      vertex -9.526279 47.000000 5.500000
      vertex -9.526279 49.000000 5.500000
    endloop
  endfacet
  facet normal 0.793353 0.000000 -0.608761
    outer loop
      vertex -7.778175 47.000000 7.778175
      vertex -9.526279 49.000000 5.500000
      vertex -7.778175 49.000000 7.778175
    endloop
  endfacet
  facet normal 0.000000 -1.000000 0.000000
    outer loop
      vertex 0.000000 49.000000 0.000000
      vertex -9.526279 49.000000 5.500000
      vertex -10.625184 49.000000 2.847009
    endloop
  endfacet
  facet normal 0.000000 1.000000 0.000000
    outer loop
      vertex 0.000000 47.000000 0.000000
      vertex -10.625184 47.000000 2.847009
      vertex -9.526279 47.000000 5.500000
    endloop
  endfacet
  facet normal 0.923880 0.000000 -0.382683
    outer loop
      vertex -9.526279 47.000000 5.500000
      vertex -10.625184 47.000000 2.847009
      vertex -10.625184 49.000000 2.847009
    endloop
  endfacet
  facet normal 0.923880 0.000000 -0.382683
    outer loop
      vertex -9.526279 47.000000 5.500000
      vertex -10.625184 49.000000 2.847009
      vertex -9.526279 49.000000 5.500000
    endloop
  endfacet
  facet normal 0.000000 -1.000000 0.000000
    outer loop
      vertex 0.000000 49.000000 0.000000
      vertex -10.625184 49.000000 2.847009
      vertex -11.000000 49.000000 0.000000
    endloop
  endfacet
  facet normal 0.000000 1.000000 0.000000
    outer loop
      vertex 0.000000 47.000000 0.000000
      vertex -11.000000 47.000000 0.000000
      vertex -10.625184 47.000000 2.847009
    endloop
  endfacet
  facet normal 0.991445 0.000000 -0.130526
    outer loop
      vertex -10.625184 47.000000 2.847009
      vertex -11.000000 47.000000 0.000000
      vertex -11.000000 49.000000 0.000000
    endloop
  endfacet
  facet normal 0.991445 0.000000 -0.130526
    outer loop
      vertex -10.625184 47.000000 2.847009
      vertex -11.000000 49.000000 0.000000
      vertex -10.625184 49.000000 2.847009
    endloop
  endfacet
  facet normal 0.000000 -1.000000 0.000000
    outer loop
      vertex 0.000000 49.000000 0.000000
      vertex -11.000000 49.000000 0.000000
      vertex -10.625184 49.000000 -2.847009
    endloop
  endfacet
  facet normal 0.000000 1.000000 0.000000
    outer loop
      vertex 0.000000 47.000000 0.000000
      vertex -10.625184 47.000000 -2.847009
      vertex -11.000000 47.000000 0.000000
    endloop
  endfacet
  facet normal 0.991445 0.000000 0.130526
    outer loop
      vertex -11.000000 47.000000 0.000000
      vertex -10.625184 47.000000 -2.847009
      vertex -10.625184 49.000000 -2.847009
    endloop
  endfacet
  facet normal 0.991445 0.000000 0.130526
    outer loop
      vertex -11.000000 47.000000 0.000000
      vertex -10.625184 49.000000 -2.847009
      vertex -11.000000 49.000000 0.000000
    endloop
  endfacet
  facet normal 0.000000 -1.000000 0.000000
    outer loop
      vertex 0.000000 49.000000 0.000000
      vertex -10.625184 49.000000 -2.847009
      vertex -9.526279 49.000000 -5.500000
    endloop
  endfacet
  facet normal 0.000000 1.000000 0.000000
    outer loop
      vertex 0.000000 47.000000 0.000000
      vertex -9.526279 47.000000 -5.500000
      vertex -10.625184 47.000000 -2.847009
    endloop
  endfacet
  facet normal 0.923880 0.000000 0.382683
    outer loop
      vertex -10.625184 47.000000 -2.847009
      vertex -9.526279 47.000000 -5.500000
      vertex -9.526279 49.000000 -5.500000
    endloop
  endfacet
  facet normal 0.923880 0.000000 0.382683
    outer loop
      vertex -10.625184 47.000000 -2.847009
      vertex -9.526279 49.000000 -5.500000
      vertex -10.625184 49.000000 -2.847009
    endloop
  endfacet
  facet normal 0.000000 -1.000000 0.000000
    outer loop
      vertex 0.000000 49.000000 0.000000
      vertex -9.526279 49.000000 -5.500000
      vertex -7.778175 49.000000 -7.778175
    endloop
  endfacet
  facet normal 0.000000 1.000000 0.000000
    outer loop
      vertex 0.000000 47.000000 0.000000
      vertex -7.778175 47.000000 -7.778175
      vertex -9.526279 47.000000 -5.500000
    endloop
  endfacet
  facet normal 0.793353 0.000000 0.608761
    outer loop
      vertex -9.526279 47.000000 -5.500000
      vertex -7.778175 47.000000 -7.778175
      vertex -7.778175 49.000000 -7.778175
    endloop
  endfacet
  facet normal 0.793353 0.000000 0.608761
    outer loop
      vertex -9.526279 47.000000 -5.500000
      vertex -7.778175 49.000000 -7.778175
      vertex -9.526279 49.000000 -5.500000
    endloop
  endfacet
  facet normal 0.000000 -1.000000 0.000000
    outer loop
      vertex 0.000000 49.000000 0.000000
      vertex -7.778175 49.000000 -7.778175
      vertex -5.500000 49.000000 -9.526279
    endloop
  endfacet
  facet normal 0.000000 1.000000 0.000000
    outer loop
      vertex 0.000000 47.000000 0.000000
      vertex -5.500000 47.000000 -9.526279
      vertex -7.778175 47.000000 -7.778175
    endloop
  endfacet
  facet normal 0.608761 0.000000 0.793353
    outer loop
      vertex -7.778175 47.000000 -7.778175
      vertex -5.500000 47.000000 -9.526279
      vertex -5.500000 49.000000 -9.526279
    endloop
  endfacet
  facet normal 0.608761 0.000000 0.793353
    outer loop
      vertex -7.778175 47.000000 -7.778175
      vertex -5.500000 49.000000 -9.526279
      vertex -7.778175 49.000000 -7.778175
    endloop
  endfacet
  facet normal 0.000000 -1.000000 0.000000
    outer loop
      vertex 0.000000 49.000000 0.000000
      vertex -5.500000 49.000000 -9.526279
      vertex -2.847009 49.000000 -10.625184
    endloop
  endfacet
  facet normal 0.000000 1.000000 0.000000
    outer loop
      vertex 0.000000 47.000000 0.000000
      vertex -2.847009 47.000000 -10.625184
      vertex -5.500000 47.000000 -9.526279
    endloop
  endfacet
  facet normal 0.382683 0.000000 0.923880
    outer loop
      vertex -5.500000 47.000000 -9.526279
      vertex -2.847009 47.000000 -10.625184
      vertex -2.847009 49.000000 -10.625184
    endloop
  endfacet
  facet normal 0.382683 0.000000 0.923880
    outer loop
      vertex -5.500000 47.000000 -9.526279
      vertex -2.847009 49.000000 -10.625184
      vertex -5.500000 49.000000 -9.526279
    endloop
  endfacet
  facet normal 0.000000 -1.000000 0.000000
    outer loop
      vertex 0.000000 49.000000 0.000000
      vertex -2.847009 49.000000 -10.625184
      vertex -0.000000 49.000000 -11.000000
    endloop
  endfacet
  facet normal 0.000000 1.000000 0.000000
    outer loop
      vertex 0.000000 47.000000 0.000000
      vertex -0.000000 47.000000 -11.000000
      vertex -2.847009 47.000000 -10.625184
    endloop
  endfacet
  facet normal 0.130526 0.000000 0.991445
    outer loop
      vertex -2.847009 47.000000 -10.625184
      vertex -0.000000 47.000000 -11.000000
      vertex -0.000000 49.000000 -11.000000
    endloop
  endfacet
  facet normal 0.130526 0.000000 0.991445
    outer loop
      vertex -2.847009 47.000000 -10.625184
      vertex -0.000000 49.000000 -11.000000
      vertex -2.847009 49.000000 -10.625184
    endloop
  endfacet
  facet normal 0.000000 -1.000000 0.000000
    outer loop
      vertex 0.000000 49.000000 0.000000
      vertex -0.000000 49.000000 -11.000000
      vertex 2.847009 49.000000 -10.625184
    endloop
  endfacet
  facet normal 0.000000 1.000000 0.000000
    outer loop
      vertex 0.000000 47.000000 0.000000
      vertex 2.847009 47.000000 -10.625184
      vertex -0.000000 47.000000 -11.000000
    endloop
  endfacet
  facet normal -0.130526 0.000000 0.991445
    outer loop
      vertex -0.000000 47.000000 -11.000000
      vertex 2.847009 47.000000 -10.625184
      vertex 2.847009 49.000000 -10.625184
    endloop
  endfacet
  facet normal -0.130526 0.000000 0.991445
    outer loop
      vertex -0.000000 47.000000 -11.000000
      vertex 2.847009 49.000000 -10.625184
      vertex -0.000000 49.000000 -11.000000
    endloop
  endfacet
  facet normal 0.000000 -1.000000 0.000000
    outer loop
      vertex 0.000000 49.000000 0.000000
      vertex 2.847009 49.000000 -10.625184
      vertex 5.500000 49.000000 -9.526279
    endloop
  endfacet
  facet normal 0.000000 1.000000 0.000000
    outer loop
      vertex 0.000000 47.000000 0.000000
      vertex 5.500000 47.000000 -9.526279
      vertex 2.847009 47.000000 -10.625184
    endloop
  endfacet
  facet normal -0.382683 0.000000 0.923880
    outer loop
      vertex 2.847009 47.000000 -10.625184
      vertex 5.500000 47.000000 -9.526279
      vertex 5.500000 49.000000 -9.526279
    endloop
  endfacet
  facet normal -0.382683 0.000000 0.923880
    outer loop
      vertex 2.847009 47.000000 -10.625184
      vertex 5.500000 49.000000 -9.526279
      vertex 2.847009 49.000000 -10.625184
    endloop
  endfacet
  facet normal 0.000000 -1.000000 0.000000
    outer loop
      vertex 0.000000 49.000000 0.000000
      vertex 5.500000 49.000000 -9.526279
      vertex 7.778175 49.000000 -7.778175
    endloop
  endfacet
  facet normal 0.000000 1.000000 0.000000
    outer loop
      vertex 0.000000 47.000000 0.000000
      vertex 7.778175 47.000000 -7.778175
      vertex 5.500000 47.000000 -9.526279
    endloop
  endfacet
  facet normal -0.608761 0.000000 0.793353
    outer loop
      vertex 5.500000 47.000000 -9.526279
      vertex 7.778175 47.000000 -7.778175
      vertex 7.778175 49.000000 -7.778175
    endloop
  endfacet
  facet normal -0.608761 0.000000 0.793353
    outer loop
      vertex 5.500000 47.000000 -9.526279
      vertex 7.778175 49.000000 -7.778175
      vertex 5.500000 49.000000 -9.526279
    endloop
  endfacet
  facet normal 0.000000 -1.000000 0.000000
    outer loop
      vertex 0.000000 49.000000 0.000000
      vertex 7.778175 49.000000 -7.778175
      vertex 9.526279 49.000000 -5.500000
    endloop
  endfacet
  facet normal 0.000000 1.000000 0.000000
    outer loop
      vertex 0.000000 47.000000 0.000000
      vertex 9.526279 47.000000 -5.500000
      vertex 7.778175 47.000000 -7.778175
    endloop
  endfacet
  facet normal -0.793353 0.000000 0.608761
    outer loop
      vertex 7.778175 47.000000 -7.778175
      vertex 9.526279 47.000000 -5.500000
      vertex 9.526279 49.000000 -5.500000
    endloop
  endfacet
  facet normal -0.793353 0.000000 0.608761
    outer loop
      vertex 7.778175 47.000000 -7.778175
      vertex 9.526279 49.000000 -5.500000
      vertex 7.778175 49.000000 -7.778175
    endloop
  endfacet
  facet normal 0.000000 -1.000000 0.000000
    outer loop
      vertex 0.000000 49.000000 0.000000
      vertex 9.526279 49.000000 -5.500000
      vertex 10.625184 49.000000 -2.847009
    endloop
  endfacet
  facet normal 0.000000 1.000000 0.000000
    outer loop
      vertex 0.000000 47.000000 0.000000
      vertex 10.625184 47.000000 -2.847009
      vertex 9.526279 47.000000 -5.500000
    endloop
  endfacet
  facet normal -0.923880 0.000000 0.382683
    outer loop
      vertex 9.526279 47.000000 -5.500000
      vertex 10.625184 47.000000 -2.847009
      vertex 10.625184 49.000000 -2.847009
    endloop
  endfacet
  facet normal -0.923880 0.000000 0.382683
    outer loop
      vertex 9.526279 47.000000 -5.500000
      vertex 10.625184 49.000000 -2.847009
      vertex 9.526279 49.000000 -5.500000
    endloop
  endfacet
  facet normal 0.000000 -1.000000 0.000000
    outer loop
      vertex 0.000000 49.000000 0.000000
      vertex 10.625184 49.000000 -2.847009
      vertex 11.000000 49.000000 0.000000
    endloop
  endfacet
  facet normal 0.000000 1.000000 0.000000
    outer loop
      vertex 0.000000 47.000000 0.000000
      vertex 11.000000 47.000000 0.000000
      vertex 10.625184 47.000000 -2.847009
    endloop
  endfacet
  facet normal -0.991445 0.000000 0.130526
    outer loop
      vertex 10.625184 47.000000 -2.847009
      vertex 11.000000 47.000000 0.000000
      vertex 11.000000 49.000000 0.000000
    endloop
  endfacet
  facet normal -0.991445 0.000000 0.130526
    outer loop
      vertex 10.625184 47.000000 -2.847009
      vertex 11.000000 49.000000 0.000000
      vertex 10.625184 49.000000 -2.847009
    endloop
  endfacet
endsolid stepper_motor_nema17