solid soil_moisture_sensor
  facet normal 0.000000 -1.000000 0.000000
    outer loop
      vertex -30.000000 1.600000 -10.000000
      vertex 30.000000 1.600000 -10.000000
      vertex 30.000000 1.600000 10.000000
    endloop
  endfacet
  facet normal 0.000000 -1.000000 0.000000
    outer loop
      vertex -30.000000 1.600000 -10.000000
      vertex 30.000000 1.600000 10.000000
      vertex -30.000000 1.600000 10.000000
    endloop
  endfacet
  facet normal 0.000000 1.000000 0.000000
    outer loop
      vertex -30.000000 0.000000 10.000000
      vertex 30.000000 0.000000 10.000000
      vertex 30.000000 0.000000 -10.000000
    endloop
  endfacet
  facet normal 0.000000 1.000000 0.000000
    outer loop
      vertex -30.000000 0.000000 10.000000
      vertex 30.000000 0.000000 -10.000000
      vertex -30.000000 0.000000 -10.000000
    endloop
  endfacet
  facet normal 0.000000 0.000000 -1.000000
    outer loop
      vertex -30.000000 1.600000 10.000000
      vertex 30.000000 1.600000 10.000000
      vertex 30.000000 0.000000 10.000000
    endloop
  endfacet
  facet normal 0.000000 0.000000 -1.000000
    outer loop
      vertex -30.000000 1.600000 10.000000
      vertex 30.000000 0.000000 10.000000
      vertex -30.000000 0.000000 10.000000
    endloop
  endfacet
  facet normal 0.000000 0.000000 1.000000
    outer loop
      vertex 30.000000 0.000000 -10.000000
      vertex 30.000000 1.600000 -10.000000
      vertex -30.000000 1.600000 -10.000000
    endloop
  endfacet
  facet normal 0.000000 0.000000 1.000000
    outer loop
      vertex 30.000000 0.000000 -10.000000
      vertex -30.000000 1.600000 -10.000000
      vertex -30.000000 0.000000 -10.000000
    endloop
  endfacet
  facet normal -1.000000 0.000000 0.000000
    outer loop
      vertex 30.000000 0.000000 10.000000
      vertex 30.000000 1.600000 10.000000
      vertex 30.000000 1.600000 -10.000000
    endloop
  endfacet
  facet normal -1.000000 0.000000 0.000000
    outer loop
      vertex 30.000000 0.000000 10.000000
      vertex 30.000000 1.600000 -10.000000
      vertex 30.000000 0.000000 -10.000000
    endloop
  endfacet
  facet normal 1.000000 0.000000 0.000000
    outer loop
      vertex -30.000000 0.000000 -10.000000
      vertex -30.000000 1.600000 -10.000000
      vertex -30.000000 1.600000 10.000000
    endloop
  endfacet
  facet normal 1.000000 0.000000 0.000000
    outer loop
      vertex -30.000000 0.000000 -10.000000
      vertex -30.000000 1.600000 10.000000
      vertex -30.000000 0.000000 10.000000
    endloop
  endfacet
  facet normal 0.000000 -1.000000 0.000000
    outer loop
      vertex -4.910000 7.225000 -8.560000
      vertex -2.710000 7.225000 -8.560000
      vertex -2.710000 7.225000 -6.360000
    endloop
  endfacet
  facet normal 0.000000 -1.000000 0.000000
    outer loop
      vertex -4.910000 7.225000 -8.560000
      vertex -2.710000 7.225000 -6.360000
      vertex -4.910000 7.225000 -6.360000
    endloop
  endfacet
  facet normal 0.000000 1.000000 0.000000
    outer loop
      vertex -4.910000 5.675000 -6.360000
      vertex -2.710000 5.675000 -6.360000
      vertex -2.710000 5.675000 -8.560000
    endloop
  endfacet
  facet normal 0.000000 1.000000 0.000000
    outer loop
      vertex -4.910000 5.675000 -6.360000
      vertex -2.710000 5.675000 -8.560000
      vertex -4.910000 5.675000 -8.560000
    endloop
  endfacet
  facet normal 0.000000 0.000000 -1.000000
    outer loop
      vertex -4.910000 7.225000 -6.360000
      vertex -2.710000 7.225000 -6.360000
      vertex -2.710000 5.675000 -6.360000
    endloop
  endfacet
  facet normal 0.000000 0.000000 -1.000000
    outer loop
      vertex -4.910000 7.225000 -6.360000
      vertex -2.710000 5.675000 -6.360000
      vertex -4.910000 5.675000 -6.360000
    endloop
  endfacet
  facet normal 0.000000 0.000000 1.000000
    outer loop
      vertex -2.710000 5.675000 -8.560000
      vertex -2.710000 7.225000 -8.560000
      vertex -4.910000 7.225000 -8.560000
    endloop
  endfacet
  facet normal 0.000000 0.000000 1.000000
    outer loop
      vertex -2.710000 5.675000 -8.560000
      vertex -4.910000 7.225000 -8.560000
      vertex -4.910000 5.675000 -8.560000
    endloop
  endfacet
  facet normal -1.000000 0.000000 0.000000
    outer loop
      vertex -2.710000 5.675000 -6.360000
      vertex -2.710000 7.225000 -6.360000
      vertex -2.710000 7.225000 -8.560000
    endloop
  endfacet
  facet normal -1.000000 0.000000 0.000000
    outer loop
      vertex -2.710000 5.675000 -6.360000
      vertex -2.710000 7.225000 -8.560000
      vertex -2.710000 5.675000 -8.560000
    endloop
  endfacet
  facet normal 1.000000 0.000000 0.000000
    outer loop
      vertex -4.910000 5.675000 -8.560000
      vertex -4.910000 7.225000 -8.560000
      vertex -4.910000 7.225000 -6.360000
    endloop
  endfacet
  facet normal 1.000000 0.000000 0.000000
    outer loop
      vertex -4.910000 5.675000 -8.560000
      vertex -4.910000 7.225000 -6.360000
      vertex -4.910000 5.675000 -6.360000
    endloop
  endfacet
  facet normal 0.000000 -1.000000 0.000000
    outer loop
      vertex -4.140000 11.200000 -7.790000
      vertex -3.480000 11.200000 -7.790000
      vertex -3.480000 11.200000 -7.130000
    endloop
  endfacet
  facet normal 0.000000 -1.000000 0.000000
    outer loop
      vertex -4.140000 11.200000 -7.790000
      vertex -3.480000 11.200000 -7.130000
      vertex -4.140000 11.200000 -7.130000
    endloop
  endfacet
  facet normal 0.000000 1.000000 0.000000
    outer loop
      vertex -4.140000 6.000000 -7.130000
      vertex -3.480000 6.000000 -7.130000
      vertex -3.480000 6.000000 -7.790000
    endloop
  endfacet
  facet normal 0.000000 1.000000 0.000000
    outer loop
      vertex -4.140000 6.000000 -7.130000
      vertex -3.480000 6.000000 -7.790000
      vertex -4.140000 6.000000 -7.790000
    endloop
  endfacet
  facet normal 0.000000 0.000000 -1.000000
    outer loop
      vertex -4.140000 11.200000 -7.130000
      vertex -3.480000 11.200000 -7.130000
      vertex -3.480000 6.000000 -7.130000
    endloop
  endfacet
  facet normal 0.000000 0.000000 -1.000000
    outer loop
      vertex -4.140000 11.200000 -7.130000
      vertex -3.480000 6.000000 -7.130000
      vertex -4.140000 6.000000 -7.130000
    endloop
  endfacet
  facet normal 0.000000 0.000000 1.000000
    outer loop
      vertex -3.480000 6.000000 -7.790000
      vertex -3.480000 11.200000 -7.790000
      vertex -4.140000 11.200000 -7.790000
    endloop
  endfacet
  facet normal 0.000000 0.000000 1.000000
    outer loop
      vertex -3.480000 6.000000 -7.790000
      vertex -4.140000 11.200000 -7.790000
      vertex -4.140000 6.000000 -7.790000
    endloop
  endfacet
  facet normal -1.000000 0.000000 0.000000
    outer loop
      vertex -3.480000 6.000000 -7.130000
      vertex -3.480000 11.200000 -7.130000
      vertex -3.480000 11.200000 -7.790000
    endloop
  endfacet
  facet normal -1.000000 0.000000 0.000000
    outer loop
      vertex -3.480000 6.000000 -7.130000
      vertex -3.480000 11.200000 -7.790000
      vertex -3.480000 6.000000 -7.790000
    endloop
  endfacet
  facet normal 1.000000 0.000000 0.000000
    outer loop
      vertex -4.140000 6.000000 -7.790000
      vertex -4.140000 11.200000 -7.790000
      vertex -4.140000 11.200000 -7.130000
    endloop
  endfacet
  facet normal 1.000000 0.000000 0.000000
    outer loop
      vertex -4.140000 6.000000 -7.790000
      vertex -4.140000 11.200000 -7.130000
      vertex -4.140000 6.000000 -7.130000
    endloop
  endfacet
  facet normal 0.000000 -1.000000 0.000000
    outer loop
      vertex -2.370000 7.225000 -8.560000
      vertex -0.170000 7.225000 -8.560000
      vertex -0.170000 7.225000 -6.360000
    endloop
  endfacet
  facet normal 0.000000 -1.000000 0.000000
    outer loop
      vertex -2.370000 7.225000 -8.560000
      vertex -0.170000 7.225000 -6.360000
      vertex -2.370000 7.225000 -6.360000
    endloop
  endfacet
  facet normal 0.000000 1.000000 0.000000
    outer loop
      vertex -2.370000 5.675000 -6.360000
      vertex -0.170000 5.675000 -6.360000
      vertex -0.170000 5.675000 -8.560000
    endloop
  endfacet
  facet normal 0.000000 1.000000 0.000000
    outer loop
      vertex -2.370000 5.675000 -6.360000
      vertex -0.170000 5.675000 -8.560000
      vertex -2.370000 5.675000 -8.560000
    endloop
  endfacet
  facet normal 0.000000 0.000000 -1.000000
    outer loop
      vertex -2.370000 7.225000 -6.360000
      vertex -0.170000 7.225000 -6.360000
      vertex -0.170000 5.675000 -6.360000
    endloop
  endfacet
  facet normal 0.000000 0.000000 -1.000000
    outer loop
      vertex -2.370000 7.225000 -6.360000
      vertex -0.170000 5.675000 -6.360000
      vertex -2.370000 5.675000 -6.360000
    endloop
  endfacet
  facet normal 0.000000 0.000000 1.000000
    outer loop
      vertex -0.170000 5.675000 -8.560000
      vertex -0.170000 7.225000 -8.560000
      vertex -2.370000 7.225000 -8.560000
    endloop
  endfacet
  facet normal 0.000000 0.000000 1.000000
    outer loop
      vertex -0.170000 5.675000 -8.560000
      vertex -2.370000 7.225000 -8.560000
      vertex -2.370000 5.675000 -8.560000
    endloop
  endfacet
  facet normal -1.000000 0.000000 0.000000
    outer loop
      vertex -0.170000 5.675000 -6.360000
      vertex -0.170000 7.225000 -6.360000
      vertex -0.170000 7.225000 -8.560000
    endloop
  endfacet
  facet normal -1.000000 0.000000 0.000000
    outer loop
      vertex -0.170000 5.675000 -6.360000
      vertex -0.170000 7.225000 -8.560000
      vertex -0.170000 5.675000 -8.560000
    endloop
  endfacet
  facet normal 1.000000 0.000000 0.000000
    outer loop
      vertex -2.370000 5.675000 -8.560000
      vertex -2.370000 7.225000 -8.560000
      vertex -2.370000 7.225000 -6.360000
    endloop
  endfacet
  facet normal 1.000000 0.000000 0.000000
    outer loop
      vertex -2.370000 5.675000 -8.560000
      vertex -2.370000 7.225000 -6.360000
      vertex -2.370000 5.675000 -6.360000
    endloop
  endfacet
  facet normal 0.000000 -1.000000 0.000000
    outer loop
      vertex -1.600000 11.200000 -7.790000
      vertex -0.940000 11.200000 -7.790000
      vertex -0.940000 11.200000 -7.130000
    endloop
  endfacet
  facet normal 0.000000 -1.000000 0.000000
    outer loop
      vertex -1.600000 11.200000 -7.790000
      vertex -0.940000 11.200000 -7.130000
      vertex -1.600000 11.200000 -7.130000
    endloop
  endfacet
  facet normal 0.000000 1.000000 0.000000
    outer loop
      vertex -1.600000 6.000000 -7.130000
      vertex -0.940000 6.000000 -7.130000
      vertex -0.940000 6.000000 -7.790000
    endloop
  endfacet
  facet normal 0.000000 1.000000 0.000000
    outer loop
      vertex -1.600000 6.000000 -7.130000
      vertex -0.940000 6.000000 -7.790000
      vertex -1.600000 6.000000 -7.790000
    endloop
  endfacet
  facet normal 0.000000 0.000000 -1.000000
    outer loop
      vertex -1.600000 11.200000 -7.130000
      vertex -0.940000 11.200000 -7.130000
      vertex -0.940000 6.000000 -7.130000
    endloop
  endfacet
  facet normal 0.000000 0.000000 -1.000000
    outer loop
      vertex -1.600000 11.200000 -7.130000
      vertex -0.940000 6.000000 -7.130000
      vertex -1.600000 6.000000 -7.130000
    endloop
  endfacet
  facet normal 0.000000 0.000000 1.000000
    outer loop
      vertex -0.940000 6.000000 -7.790000
      vertex -0.940000 11.200000 -7.790000
      vertex -1.600000 11.200000 -7.790000
    endloop
  endfacet
  facet normal 0.000000 0.000000 1.000000
    outer loop
      vertex -0.940000 6.000000 -7.790000
      vertex -1.600000 11.200000 -7.790000
      vertex -1.600000 6.000000 -7.790000
    endloop
  endfacet
  facet normal -1.000000 0.000000 0.000000
    outer loop
      vertex -0.940000 6.000000 -7.130000
      vertex -0.940000 11.200000 -7.130000
      vertex -0.940000 11.200000 -7.790000
    endloop
  endfacet
  facet normal -1.000000 0.000000 0.000000
    outer loop
      vertex -0.940000 6.000000 -7.130000
      vertex -0.940000 11.200000 -7.790000
      vertex -0.940000 6.000000 -7.790000
    endloop
  endfacet
  facet normal 1.000000 0.000000 0.000000
    outer loop
      vertex -1.600000 6.000000 -7.790000
      vertex -1.600000 11.200000 -7.790000
      vertex -1.600000 11.200000 -7.130000
    endloop
  endfacet
  facet normal 1.000000 0.000000 0.000000
    outer loop
      vertex -1.600000 6.000000 -7.790000
      vertex -1.600000 11.200000 -7.130000
      vertex -1.600000 6.000000 -7.130000
    endloop
  endfacet
  facet normal 0.000000 -1.000000 0.000000
    outer loop
      vertex 0.170000 7.225000 -8.560000
      vertex 2.370000 7.225000 -8.560000
      vertex 2.370000 7.225000 -6.360000
    endloop
  endfacet
  facet normal 0.000000 -1.000000 0.000000
    outer loop
      vertex 0.170000 7.225000 -8.560000
      vertex 2.370000 7.225000 -6.360000
      vertex 0.170000 7.225000 -6.360000
    endloop
  endfacet
  facet normal 0.000000 1.000000 0.000000
    outer loop
      vertex 0.170000 5.675000 -6.360000
      vertex 2.370000 5.675000 -6.360000
      vertex 2.370000 5.675000 -8.560000
    endloop
  endfacet
  facet normal 0.000000 1.000000 0.000000
    outer loop
      vertex 0.170000 5.675000 -6.360000
      vertex 2.370000 5.675000 -8.560000
      vertex 0.170000 5.675000 -8.560000
    endloop
  endfacet
  facet normal 0.000000 0.000000 -1.000000
    outer loop
      vertex 0.170000 7.225000 -6.360000
      vertex 2.370000 7.225000 -6.360000
      vertex 2.370000 5.675000 -6.360000
    endloop
  endfacet
  facet normal 0.000000 0.000000 -1.000000
    outer loop
      vertex 0.170000 7.225000 -6.360000
      vertex 2.370000 5.675000 -6.360000
      vertex 0.170000 5.675000 -6.360000
    endloop
  endfacet
  facet normal 0.000000 0.000000 1.000000
    outer loop
      vertex 2.370000 5.675000 -8.560000
      vertex 2.370000 7.225000 -8.560000
      vertex 0.170000 7.225000 -8.560000
    endloop
  endfacet
  facet normal 0.000000 0.000000 1.000000
    outer loop
      vertex 2.370000 5.675000 -8.560000
      vertex 0.170000 7.225000 -8.560000
      vertex 0.170000 5.675000 -8.560000
    endloop
  endfacet
  facet normal -1.000000 0.000000 0.000000
    outer loop
      vertex 2.370000 5.675000 -6.360000
      vertex 2.370000 7.225000 -6.360000
      vertex 2.370000 7.225000 -8.560000
    endloop
  endfacet
  facet normal -1.000000 0.000000 0.000000
    outer loop
      vertex 2.370000 5.675000 -6.360000
      vertex 2.370000 7.225000 -8.560000
      vertex 2.370000 5.675000 -8.560000
    endloop
  endfacet
  facet normal 1.000000 0.000000 0.000000
    outer loop
      vertex 0.170000 5.675000 -8.560000
      vertex 0.170000 7.225000 -8.560000
      vertex 0.170000 7.225000 -6.360000
    endloop
  endfacet
  facet normal 1.000000 0.000000 0.000000
    outer loop
      vertex 0.170000 5.675000 -8.560000
      vertex 0.170000 7.225000 -6.360000
      vertex 0.170000 5.675000 -6.360000
    endloop
  endfacet
  facet normal 0.000000 -1.000000 0.000000
    outer loop
      vertex 0.940000 11.200000 -7.790000
      vertex 1.600000 11.200000 -7.790000
      vertex 1.600000 11.200000 -7.130000
    endloop
  endfacet
  facet normal 0.000000 -1.000000 0.000000
    outer loop
      vertex 0.940000 11.200000 -7.790000
      vertex 1.600000 11.200000 -7.130000
      vertex 0.940000 11.200000 -7.130000
    endloop
  endfacet
  facet normal 0.000000 1.000000 0.000000
    outer loop
      vertex 0.940000 6.000000 -7.130000
      vertex 1.600000 6.000000 -7.130000
      vertex 1.600000 6.000000 -7.790000
    endloop
  endfacet
  facet normal 0.000000 1.000000 0.000000
    outer loop
      vertex 0.940000 6.000000 -7.130000
      vertex 1.600000 6.000000 -7.790000
      vertex 0.940000 6.000000 -7.790000
    endloop
  endfacet
  facet normal 0.000000 0.000000 -1.000000
    outer loop
      vertex 0.940000 11.200000 -7.130000
      vertex 1.600000 11.200000 -7.130000
      vertex 1.600000 6.000000 -7.130000
    endloop
  endfacet
  facet normal 0.000000 0.000000 -1.000000
    outer loop
      vertex 0.940000 11.200000 -7.130000
      vertex 1.600000 6.000000 -7.130000
      vertex 0.940000 6.000000 -7.130000
    endloop
  endfacet
  facet normal 0.000000 0.000000 1.000000
    outer loop
      vertex 1.600000 6.000000 -7.790000
      vertex 1.600000 11.200000 -7.790000
      vertex 0.940000 11.200000 -7.790000
    endloop
  endfacet
  facet normal 0.000000 0.000000 1.000000
    outer loop
      vertex 1.600000 6.000000 -7.790000
      vertex 0.940000 11.200000 -7.790000
      vertex 0.940000 6.000000 -7.790000
    endloop
  endfacet
  facet normal -1.000000 0.000000 0.000000
    outer loop
      vertex 1.600000 6.000000 -7.130000
      vertex 1.600000 11.200000 -7.130000
      vertex 1.600000 11.200000 -7.790000
    endloop
  endfacet
  facet normal -1.000000 0.000000 0.000000
    outer loop
      vertex 1.600000 6.000000 -7.130000
      vertex 1.600000 11.200000 -7.790000
      vertex 1.600000 6.000000 -7.790000
    endloop
  endfacet
  facet normal 1.000000 0.000000 0.000000
    outer loop
      vertex 0.940000 6.000000 -7.790000
      vertex 0.940000 11.200000 -7.790000
      vertex 0.940000 11.200000 -7.130000
    endloop
  endfacet
  facet normal 1.000000 0.000000 0.000000
    outer loop
      vertex 0.940000 6.000000 -7.790000
      vertex 0.940000 11.200000 -7.130000
      vertex 0.940000 6.000000 -7.130000
    endloop
  endfacet
  facet normal 0.000000 -1.000000 0.000000
    outer loop
      vertex 2.710000 7.225000 -8.560000
      vertex 4.910000 7.225000 -8.560000
      vertex 4.910000 7.225000 -6.360000
    endloop
  endfacet
  facet normal 0.000000 -1.000000 0.000000
    outer loop
      vertex 2.710000 7.225000 -8.560000
      vertex 4.910000 7.225000 -6.360000
      vertex 2.710000 7.225000 -6.360000
    endloop
  endfacet
  facet normal 0.000000 1.000000 0.000000
    outer loop
      vertex 2.710000 5.675000 -6.360000
      vertex 4.910000 5.675000 -6.360000
      vertex 4.910000 5.675000 -8.560000
    endloop
  endfacet
  facet normal 0.000000 1.000000 0.000000
    outer loop
      vertex 2.710000 5.675000 -6.360000
      vertex 4.910000 5.675000 -8.560000
      vertex 2.710000 5.675000 -8.560000
    endloop
  endfacet
  facet normal 0.000000 0.000000 -1.000000
    outer loop
      vertex 2.710000 7.225000 -6.360000
      vertex 4.910000 7.225000 -6.360000
      vertex 4.910000 5.675000 -6.360000
    endloop
  endfacet
  facet normal 0.000000 0.000000 -1.000000
    outer loop
      vertex 2.710000 7.225000 -6.360000
      vertex 4.910000 5.675000 -6.360000
      vertex 2.710000 5.675000 -6.360000
    endloop
  endfacet
  facet normal 0.000000 0.000000 1.000000
    outer loop
      vertex 4.910000 5.675000 -8.560000
      vertex 4.910000 7.225000 -8.560000
      vertex 2.710000 7.225000 -8.560000
    endloop
  endfacet
  facet normal 0.000000 0.000000 1.000000
    outer loop
      vertex 4.910000 5.675000 -8.560000
      vertex 2.710000 7.225000 -8.560000
      vertex 2.710000 5.675000 -8.560000
    endloop
  endfacet
  facet normal -1.000000 0.000000 0.000000
    outer loop
      vertex 4.910000 5.675000 -6.360000
      vertex 4.910000 7.225000 -6.360000
      vertex 4.910000 7.225000 -8.560000
    endloop
  endfacet
  facet normal -1.000000 0.000000 0.000000
    outer loop
      vertex 4.910000 5.675000 -6.360000
      vertex 4.910000 7.225000 -8.560000
      vertex 4.910000 5.675000 -8.560000
    endloop
  endfacet
  facet normal 1.000000 0.000000 0.000000
    outer loop
      vertex 2.710000 5.675000 -8.560000
      vertex 2.710000 7.225000 -8.560000
      vertex 2.710000 7.225000 -6.360000
    endloop
  endfacet
  facet normal 1.000000 0.000000 0.000000
    outer loop
      vertex 2.710000 5.675000 -8.560000
      vertex 2.710000 7.225000 -6.360000
      vertex 2.710000 5.675000 -6.360000
    endloop
  endfacet
  facet normal 0.000000 -1.000000 0.000000
    outer loop
      vertex 3.480000 11.200000 -7.790000
      vertex 4.140000 11.200000 -7.790000
      vertex 4.140000 11.200000 -7.130000
    endloop
  endfacet
  facet normal 0.000000 -1.000000 0.000000
    outer loop
      vertex 3.480000 11.200000 -7.790000
      vertex 4.140000 11.200000 -7.130000
      vertex 3.480000 11.200000 -7.130000
    endloop
  endfacet
  facet normal 0.000000 1.000000 0.000000
    outer loop
      vertex 3.480000 6.000000 -7.130000
      vertex 4.140000 6.000000 -7.130000
      vertex 4.140000 6.000000 -7.790000
    endloop
  endfacet
  facet normal 0.000000 1.000000 0.000000
    outer loop
      vertex 3.480000 6.000000 -7.130000
      vertex 4.140000 6.000000 -7.790000
      vertex 3.480000 6.000000 -7.790000
    endloop
  endfacet
  facet normal 0.000000 0.000000 -1.000000
    outer loop
      vertex 3.480000 11.200000 -7.130000
      vertex 4.140000 11.200000 -7.130000
      vertex 4.140000 6.000000 -7.130000
    endloop
  endfacet
  facet normal 0.000000 0.000000 -1.000000
    outer loop
      vertex 3.480000 11.200000 -7.130000
      vertex 4.140000 6.000000 -7.130000
      vertex 3.480000 6.000000 -7.130000
    endloop
  endfacet
  facet normal 0.000000 0.000000 1.000000
    outer loop
      vertex 4.140000 6.000000 -7.790000
      vertex 4.140000 11.200000 -7.790000
      vertex 3.480000 11.200000 -7.790000
    endloop
  endfacet
  facet normal 0.000000 0.000000 1.000000
    outer loop
      vertex 4.140000 6.000000 -7.790000
      vertex 3.480000 11.200000 -7.790000
      vertex 3.480000 6.000000 -7.790000
    endloop
  endfacet
  facet normal -1.000000 0.000000 0.000000
    outer loop
      vertex 4.140000 6.000000 -7.130000
      vertex 4.140000 11.200000 -7.130000
      vertex 4.140000 11.200000 -7.790000
    endloop
  endfacet
  facet normal -1.000000 0.000000 0.000000
    outer loop
      vertex 4.140000 6.000000 -7.130000
      vertex 4.140000 11.200000 -7.790000
      vertex 4.140000 6.000000 -7.790000
    endloop
  endfacet
  facet normal 1.000000 0.000000 0.000000
    outer loop
      vertex 3.480000 6.000000 -7.790000
      vertex 3.480000 11.200000 -7.790000
      vertex 3.480000 11.200000 -7.130000
    endloop
  endfacet
  facet normal 1.000000 0.000000 0.000000
    outer loop
      vertex 3.480000 6.000000 -7.790000
      vertex 3.480000 11.200000 -7.130000
      vertex 3.480000 6.000000 -7.130000
    endloop
  endfacet
  facet normal 0.000000 -1.000000 0.000000
    outer loop
      vertex -8.000000 2.300000 -12.000000
      vertex -2.000000 2.300000 -12.000000
      vertex -2.000000 2.300000 30.000000
    endloop
  endfacet
  facet normal 0.000000 -1.000000 0.000000
    outer loop
      vertex -8.000000 2.300000 -12.000000
      vertex -2.000000 2.300000 30.000000
      vertex -8.000000 2.300000 30.000000
    endloop
  endfacet
  facet normal 0.000000 1.000000 0.000000
    outer loop
      vertex -8.000000 1.500000 30.000000
      vertex -2.000000 1.500000 30.000000
      vertex -2.000000 1.500000 -12.000000
    endloop
  endfacet
  facet normal 0.000000 1.000000 0.000000
    outer loop
      vertex -8.000000 1.500000 30.000000
      vertex -2.000000 1.500000 -12.000000
      vertex -8.000000 1.500000 -12.000000
    endloop
  endfacet
  facet normal 0.000000 0.000000 -1.000000
    outer loop
      vertex -8.000000 2.300000 30.000000
      vertex -2.000000 2.300000 30.000000
      vertex -2.000000 1.500000 30.000000
    endloop
  endfacet
  facet normal 0.000000 0.000000 -1.000000
    outer loop
      vertex -8.000000 2.300000 30.000000
      vertex -2.000000 1.500000 30.000000
      vertex -8.000000 1.500000 30.000000
    endloop
  endfacet
  facet normal 0.000000 0.000000 1.000000
    outer loop
      vertex -2.000000 1.500000 -12.000000
      vertex -2.000000 2.300000 -12.000000
      vertex -8.000000 2.300000 -12.000000
    endloop
  endfacet
  facet normal 0.000000 0.000000 1.000000
    outer loop
      vertex -2.000000 1.500000 -12.000000
      vertex -8.000000 2.300000 -12.000000
      vertex -8.000000 1.500000 -12.000000
    endloop
  endfacet
  facet normal -1.000000 0.000000 0.000000
    outer loop
      vertex -2.000000 1.500000 30.000000
      vertex -2.000000 2.300000 30.000000
      vertex -2.000000 2.300000 -12.000000
    endloop
  endfacet
  facet normal -1.000000 0.000000 0.000000
    outer loop
      vertex -2.000000 1.500000 30.000000
      vertex -2.000000 2.300000 -12.000000
      vertex -2.000000 1.500000 -12.000000
    endloop
  endfacet
  facet normal 1.000000 0.000000 0.000000
    outer loop
      vertex -8.000000 1.500000 -12.000000
      vertex -8.000000 2.300000 -12.000000
      vertex -8.000000 2.300000 30.000000
    endloop
  endfacet
  facet normal 1.000000 0.000000 0.000000
    outer loop
      vertex -8.000000 1.500000 -12.000000
      vertex -8.000000 2.300000 30.000000
      vertex -8.000000 1.500000 30.000000
    endloop
  endfacet
  facet normal 0.000000 -1.000000 0.000000
    outer loop
      vertex 2.000000 2.300000 -12.000000
      vertex 8.000000 2.300000 -12.000000
      vertex 8.000000 2.300000 30.000000
    endloop
  endfacet
  facet normal 0.000000 -1.000000 0.000000
    outer loop
      vertex 2.000000 2.300000 -12.000000
      vertex 8.000000 2.300000 30.000000
      vertex 2.000000 2.300000 30.000000
    endloop
  endfacet
  facet normal 0.000000 1.000000 0.000000
    outer loop
      vertex 2.000000 1.500000 30.000000
      vertex 8.000000 1.500000 30.000000
      vertex 8.000000 1.500000 -12.000000
    endloop
  endfacet
  facet normal 0.000000 1.000000 0.000000
    outer loop
      vertex 2.000000 1.500000 30.000000
      vertex 8.000000 1.500000 -12.000000
      vertex 2.000000 1.500000 -12.000000
    endloop
  endfacet
  facet normal 0.000000 0.000000 -1.000000
    outer loop
      vertex 2.000000 2.300000 30.000000
      vertex 8.000000 2.300000 30.000000
      vertex 8.000000 1.500000 30.000000
    endloop
  endfacet
  facet normal 0.000000 0.000000 -1.000000
    outer loop
      vertex 2.000000 2.300000 30.000000
      vertex 8.000000 1.500000 30.000000
      vertex 2.000000 1.500000 30.000000
    endloop
  endfacet
  facet normal 0.000000 0.000000 1.000000
    outer loop
      vertex 8.000000 1.500000 -12.000000
      vertex 8.000000 2.300000 -12.000000
      vertex 2.000000 2.300000 -12.000000
    endloop
  endfacet
  facet normal 0.000000 0.000000 1.000000
    outer loop
      vertex 8.000000 1.500000 -12.000000
      vertex 2.000000 2.300000 -12.000000
      vertex 2.000000 1.500000 -12.000000
    endloop
  endfacet
  facet normal -1.000000 0.000000 0.000000
    outer loop
      vertex 8.000000 1.500000 30.000000
      vertex 8.000000 2.300000 30.000000
      vertex 8.000000 2.300000 -12.000000
    endloop
  endfacet
  facet normal -1.000000 0.000000 0.000000
    outer loop
      vertex 8.000000 1.500000 30.000000
      vertex 8.000000 2.300000 -12.000000
      vertex 8.000000 1.500000 -12.000000
    endloop
  endfacet
  facet normal 1.000000 0.000000 0.000000
    outer loop
      vertex 2.000000 1.500000 -12.000000
      vertex 2.000000 2.300000 -12.000000
      vertex 2.000000 2.300000 30.000000
    endloop
  endfacet
  facet normal 1.000000 0.000000 0.000000
    outer loop
      vertex 2.000000 1.500000 -12.000000
      vertex 2.000000 2.300000 30.000000
      vertex 2.000000 1.500000 30.000000
    endloop
  endfacet
  facet normal 0.000000 -1.000000 0.000000
    outer loop
      vertex -10.000000 2.900000 -27.000000
      vertex 10.000000 2.900000 -27.000000
      vertex 10.000000 2.900000 -9.000000
    endloop
  endfacet
  facet normal 0.000000 -1.000000 0.000000
    outer loop
      vertex -10.000000 2.900000 -27.000000
      vertex 10.000000 2.900000 -9.000000
      vertex -10.000000 2.900000 -9.000000
    endloop
  endfacet
  facet normal 0.000000 1.000000 0.000000
    outer loop
      vertex -10.000000 1.700000 -9.000000
      vertex 10.000000 1.700000 -9.000000
      vertex 10.000000 1.700000 -27.000000
    endloop
  endfacet
  facet normal 0.000000 1.000000 0.000000
    outer loop
      vertex -10.000000 1.700000 -9.000000
      vertex 10.000000 1.700000 -27.000000
      vertex -10.000000 1.700000 -27.000000
    endloop
  endfacet
  facet normal 0.000000 0.000000 -1.000000
    outer loop
      vertex -10.000000 2.900000 -9.000000
      vertex 10.000000 2.900000 -9.000000
      vertex 10.000000 1.700000 -9.000000
    endloop
  endfacet
  facet normal 0.000000 0.000000 -1.000000
    outer loop
      vertex -10.000000 2.900000 -9.000000
      vertex 10.000000 1.700000 -9.000000
      vertex -10.000000 1.700000 -9.000000
    endloop
  endfacet
  facet normal 0.000000 0.000000 1.000000
    outer loop
      vertex 10.000000 1.700000 -27.000000
      vertex 10.000000 2.900000 -27.000000
      vertex -10.000000 2.900000 -27.000000
    endloop
  endfacet
  facet normal 0.000000 0.000000 1.000000
    outer loop
      vertex 10.000000 1.700000 -27.000000
      vertex -10.000000 2.900000 -27.000000
      vertex -10.000000 1.700000 -27.000000
    endloop
  endfacet
  facet normal -1.000000 0.000000 0.000000
    outer loop
      vertex 10.000000 1.700000 -9.000000
      vertex 10.000000 2.900000 -9.000000
      vertex 10.000000 2.900000 -27.000000
    endloop
  endfacet
  facet normal -1.000000 0.000000 0.000000
    outer loop
      vertex 10.000000 1.700000 -9.000000
      vertex 10.000000 2.900000 -27.000000
      vertex 10.000000 1.700000 -27.000000
    endloop
  endfacet
  facet normal 1.000000 0.000000 0.000000
    outer loop
      vertex -10.000000 1.700000 -27.000000
      vertex -10.000000 2.900000 -27.000000
      vertex -10.000000 2.900000 -9.000000
    endloop
  endfacet
  facet normal 1.000000 0.000000 0.000000
    outer loop
      vertex -10.000000 1.700000 -27.000000
      vertex -10.000000 2.900000 -9.000000
      vertex -10.000000 1.700000 -9.000000
    endloop
  endfacet
  facet normal 0.000000 -1.000000 0.000000
    outer loop
      vertex -6.500000 3.700000 -20.500000
      vertex -1.500000 3.700000 -20.500000
      vertex -1.500000 3.700000 -15.500000
    endloop
  endfacet
  facet normal 0.000000 -1.000000 0.000000
    outer loop
      vertex -6.500000 3.700000 -20.500000
      vertex -1.500000 3.700000 -15.500000
      vertex -6.500000 3.700000 -15.500000
    endloop
  endfacet
  facet normal 0.000000 1.000000 0.000000
    outer loop
      vertex -6.500000 2.500000 -15.500000
      vertex -1.500000 2.500000 -15.500000
      vertex -1.500000 2.500000 -20.500000
    endloop
  endfacet
  facet normal 0.000000 1.000000 0.000000
    outer loop
      vertex -6.500000 2.500000 -15.500000
      vertex -1.500000 2.500000 -20.500000
      vertex -6.500000 2.500000 -20.500000
    endloop
  endfacet
  facet normal 0.000000 0.000000 -1.000000
    outer loop
      vertex -6.500000 3.700000 -15.500000
      vertex -1.500000 3.700000 -15.500000
      vertex -1.500000 2.500000 -15.500000
    endloop
  endfacet
  facet normal 0.000000 0.000000 -1.000000
    outer loop
      vertex -6.500000 3.700000 -15.500000
      vertex -1.500000 2.500000 -15.500000
      vertex -6.500000 2.500000 -15.500000
    endloop
  endfacet
  facet normal 0.000000 0.000000 1.000000
    outer loop
      vertex -1.500000 2.500000 -20.500000
      vertex -1.500000 3.700000 -20.500000
      vertex -6.500000 3.700000 -20.500000
    endloop
  endfacet
  facet normal 0.000000 0.000000 1.000000
    outer loop
      vertex -1.500000 2.500000 -20.500000
      vertex -6.500000 3.700000 -20.500000
      vertex -6.500000 2.500000 -20.500000
    endloop
  endfacet
  facet normal -1.000000 0.000000 0.000000
    outer loop
      vertex -1.500000 2.500000 -15.500000
      vertex -1.500000 3.700000 -15.500000
      vertex -1.500000 3.700000 -20.500000
    endloop
  endfacet
  facet normal -1.000000 0.000000 0.000000
    outer loop
      vertex -1.500000 2.500000 -15.500000
      vertex -1.500000 3.700000 -20.500000
      vertex -1.500000 2.500000 -20.500000
    endloop
  endfacet
  facet normal 1.000000 0.000000 0.000000
    outer loop
      vertex -6.500000 2.500000 -20.500000
      vertex -6.500000 3.700000 -20.500000
      vertex -6.500000 3.700000 -15.500000
    endloop
  endfacet
  facet normal 1.000000 0.000000 0.000000
    outer loop
      vertex -6.500000 2.500000 -20.500000
      vertex -6.500000 3.700000 -15.500000
      vertex -6.500000 2.500000 -15.500000
    endloop
  endfacet
  facet normal 0.000000 -1.000000 0.000000
    outer loop
      vertex 2.500000 6.350000 -21.000000
      vertex 8.500000 6.350000 -21.000000
      vertex 8.500000 6.350000 -15.000000
    endloop
  endfacet
  facet normal 0.000000 -1.000000 0.000000
    outer loop
      vertex 2.500000 6.350000 -21.000000
      vertex 8.500000 6.350000 -15.000000
      vertex 2.500000 6.350000 -15.000000
    endloop
  endfacet
  facet normal 0.000000 1.000000 0.000000
    outer loop
      vertex 2.500000 2.850000 -15.000000
      vertex 8.500000 2.850000 -15.000000
      vertex 8.500000 2.850000 -21.000000
    endloop
  endfacet
  facet normal 0.000000 1.000000 0.000000
    outer loop
      vertex 2.500000 2.850000 -15.000000
      vertex 8.500000 2.850000 -21.000000
      vertex 2.500000 2.850000 -21.000000
    endloop
  endfacet
  facet normal 0.000000 0.000000 -1.000000
    outer loop
      vertex 2.500000 6.350000 -15.000000
      vertex 8.500000 6.350000 -15.000000
      vertex 8.500000 2.850000 -15.000000
    endloop
  endfacet
  facet normal 0.000000 0.000000 -1.000000
    outer loop
      vertex 2.500000 6.350000 -15.000000
      vertex 8.500000 2.850000 -15.000000
      vertex 2.500000 2.850000 -15.000000
    endloop
  endfacet
  facet normal 0.000000 0.000000 1.000000
    outer loop
      vertex 8.500000 2.850000 -21.000000
      vertex 8.500000 6.350000 -21.000000
      vertex 2.500000 6.350000 -21.000000
    endloop
  endfacet
  facet normal 0.000000 0.000000 1.000000
    outer loop
      vertex 8.500000 2.850000 -21.000000
      vertex 2.500000 6.350000 -21.000000
      vertex 2.500000 2.850000 -21.000000
    endloop
  endfacet
  facet normal -1.000000 0.000000 0.000000
    outer loop
      vertex 8.500000 2.850000 -15.000000
      vertex 8.500000 6.350000 -15.000000
      vertex 8.500000 6.350000 -21.000000
    endloop
  endfacet
  facet normal -1.000000 0.000000 0.000000
    outer loop
      vertex 8.500000 2.850000 -15.000000
      vertex 8.500000 6.350000 -21.000000
      vertex 8.500000 2.850000 -21.000000
    endloop
  endfacet
  facet normal 1.000000 0.000000 0.000000
    outer loop
      vertex 2.500000 2.850000 -21.000000
      vertex 2.500000 6.350000 -21.000000
      vertex 2.500000 6.350000 -15.000000
    endloop
  endfacet
  facet normal 1.000000 0.000000 0.000000
    outer loop
      vertex 2.500000 2.850000 -21.000000
      vertex 2.500000 6.350000 -15.000000
      vertex 2.500000 2.850000 -15.000000
    endloop
  endfacet
endsolid soil_moisture_sensor