solid propeller_ep_1045_two_blade
  facet normal 0.000000 -1.000000 0.000000
    outer loop
      vertex 0.000000 4.000000 0.000000
      vertex 10.000000 4.000000 0.000000
      vertex 9.659258 4.000000 2.588190
    endloop
  endfacet
  facet normal 0.000000 1.000000 0.000000
    outer loop
      vertex 0.000000 -4.000000 0.000000
      vertex 9.659258 -4.000000 2.588190
      vertex 10.000000 -4.000000 0.000000
    endloop
  endfacet
  facet normal -0.991445 0.000000 -0.130526
    outer loop
      vertex 10.000000 -4.000000 0.000000
      vertex 9.659258 -4.000000 2.588190
      vertex 9.659258 4.000000 2.588190
    endloop
  endfacet
  facet normal -0.991445 0.000000 -0.130526
    outer loop
      vertex 10.000000 -4.000000 0.000000
      vertex 9.659258 4.000000 2.588190
      vertex 10.000000 4.000000 0.000000
    endloop
  endfacet
  facet normal 0.000000 -1.000000 0.000000
    outer loop
      vertex 0.000000 4.000000 0.000000
      vertex 9.659258 4.000000 2.588190
      vertex 8.660254 4.000000 5.000000
    endloop
  endfacet
  facet normal 0.000000 1.000000 0.000000
    outer loop
      vertex 0.000000 -4.000000 0.000000
      vertex 8.660254 -4.000000 5.000000
      vertex 9.659258 -4.000000 2.588190
    endloop
  endfacet
  facet normal -0.923880 0.000000 -0.382683
    outer loop
      vertex 9.659258 -4.000000 2.588190
      vertex 8.660254 -4.000000 5.000000
      vertex 8.660254 4.000000 5.000000
    endloop
  endfacet
  facet normal -0.923880 0.000000 -0.382683
    outer loop
      vertex 9.659258 -4.000000 2.588190
      vertex 8.660254 4.000000 5.000000
      vertex 9.659258 4.000000 2.588190
    endloop
  endfacet
  facet normal 0.000000 -1.000000 0.000000
    outer loop
      vertex 0.000000 4.000000 0.000000
      vertex 8.660254 4.000000 5.000000
      vertex 7.071068 4.000000 7.071068
    endloop
  endfacet
  facet normal 0.000000 1.000000 0.000000
    outer loop
      vertex 0.000000 -4.000000 0.000000
      vertex 7.071068 -4.000000 7.071068
      vertex 8.660254 -4.000000 5.000000
    endloop
  endfacet
  facet normal -0.793353 0.000000 -0.608761
    outer loop
      vertex 8.660254 -4.000000 5.000000
      vertex 7.071068 -4.000000 7.071068
      vertex 7.071068 4.000000 7.071068
    endloop
  endfacet
  facet normal -0.793353 0.000000 -0.608761
    outer loop
      vertex 8.660254 -4.000000 5.000000
      vertex 7.071068 4.000000 7.071068
      vertex 8.660254 4.000000 5.000000
    endloop
  endfacet
  facet normal 0.000000 -1.000000 0.000000
    outer loop
      vertex 0.000000 4.000000 0.000000
      vertex 7.071068 4.000000 7.071068
      vertex 5.000000 4.000000 8.660254
    endloop
  endfacet
  facet normal 0.000000 1.000000 0.000000
    outer loop
      vertex 0.000000 -4.000000 0.000000
      vertex 5.000000 -4.000000 8.660254
      vertex 7.071068 -4.000000 7.071068
    endloop
  endfacet
  facet normal -0.608761 0.000000 -0.793353
    outer loop
      vertex 7.071068 -4.000000 7.071068
      vertex 5.000000 -4.000000 8.660254
      vertex 5.000000 4.000000 8.660254
    endloop
  endfacet
  facet normal -0.608761 0.000000 -0.793353
    outer loop
      vertex 7.071068 -4.000000 7.071068
      vertex 5.000000 4.000000 8.660254
      vertex 7.071068 4.000000 7.071068
    endloop
  endfacet
  facet normal 0.000000 -1.000000 0.000000
    outer loop
      vertex 0.000000 4.000000 0.000000
      vertex 5.000000 4.000000 8.660254
      vertex 2.588190 4.000000 9.659258
    endloop
  endfacet
  facet normal 0.000000 1.000000 0.000000
    outer loop
      vertex 0.000000 -4.000000 0.000000
      vertex 2.588190 -4.000000 9.659258
      vertex 5.000000 -4.000000 8.660254
    endloop
  endfacet
  facet normal -0.382683 0.000000 -0.923880
    outer loop
      vertex 5.000000 -4.000000 8.660254
      vertex 2.588190 -4.000000 9.659258
      vertex 2.588190 4.000000 9.659258
    endloop
  endfacet
  facet normal -0.382683 0.000000 -0.923880
    outer loop
      vertex 5.000000 -4.000000 8.660254
      vertex 2.588190 4.000000 9.659258
      vertex 5.000000 4.000000 8.660254
    endloop
  endfacet
  facet normal 0.000000 -1.000000 0.000000
    outer loop
      vertex 0.000000 4.000000 0.000000
      vertex 2.588190 4.000000 9.659258
      vertex 0.000000 4.000000 10.000000
    endloop
  endfacet
  facet normal 0.000000 1.000000 0.000000
    outer loop
      vertex 0.000000 -4.000000 0.000000
      vertex 0.000000 -4.000000 10.000000
      vertex 2.588190 -4.000000 9.659258
    endloop
  endfacet
  facet normal -0.130526 0.000000 -0.991445
    outer loop
      vertex 2.588190 -4.000000 9.659258
      vertex 0.000000 -4.000000 10.000000
      vertex 0.000000 4.000000 10.000000
    endloop
  endfacet
  facet normal -0.130526 0.000000 -0.991445
    outer loop
      vertex 2.588190 -4.000000 9.659258
      vertex 0.000000 4.000000 10.000000
      vertex 2.588190 4.000000 9.659258
    endloop
  endfacet
  facet normal 0.000000 -1.000000 0.000000
    outer loop
      vertex 0.000000 4.000000 0.000000
      vertex 0.000000 4.000000 10.000000
      vertex -2.588190 4.000000 9.659258
    endloop
  endfacet
  facet normal 0.000000 1.000000 0.000000
    outer loop
      vertex 0.000000 -4.000000 0.000000
      vertex -2.588190 -4.000000 9.659258
      vertex 0.000000 -4.000000 10.000000
    endloop
  endfacet
  facet normal 0.130526 0.000000 -0.991445
    outer loop
      vertex 0.000000 -4.000000 10.000000
      vertex -2.588190 -4.000000 9.659258
      vertex -2.588190 4.000000 9.659258
    endloop
  endfacet
  facet normal 0.130526 0.000000 -0.991445
    outer loop
      vertex 0.000000 -4.000000 10.000000
      vertex -2.588190 4.000000 9.659258
      vertex 0.000000 4.000000 10.000000
    endloop
  endfacet
  facet normal 0.000000 -1.000000 0.000000
    outer loop
      vertex 0.000000 4.000000 0.000000
      vertex -2.588190 4.000000 9.659258
      vertex -5.000000 4.000000 8.660254
    endloop
  endfacet
  facet normal 0.000000 1.000000 0.000000
    outer loop
      vertex 0.000000 -4.000000 0.000000
      vertex -5.000000 -4.000000 8.660254
      vertex -2.588190 -4.000000 9.659258
    endloop
  endfacet
  facet normal 0.382683 0.000000 -0.923880
    outer loop
      vertex -2.588190 -4.000000 9.659258
      vertex -5.000000 -4.000000 8.660254
      vertex -5.000000 4.000000 8.660254
    endloop
  endfacet
  facet normal 0.382683 0.000000 -0.923880
    outer loop
      vertex -2.588190 -4.000000 9.659258
      vertex -5.000000 4.000000 8.660254
      vertex -2.588190 4.000000 9.659258
    endloop
  endfacet
  facet normal 0.000000 -1.000000 0.000000
    outer loop
      vertex 0.000000 4.000000 0.000000
      vertex -5.000000 4.000000 8.660254
      vertex -7.071068 4.000000 7.071068
    endloop
  endfacet
  facet normal 0.000000 1.000000 0.000000
    outer loop
      vertex 0.000000 -4.000000 0.000000
      vertex -7.071068 -4.000000 7.071068
      vertex -5.000000 -4.000000 8.660254
    endloop
  endfacet
  facet normal 0.608761 0.000000 -0.793353
    outer loop
      vertex -5.000000 -4.000000 8.660254
      vertex -7.071068 -4.000000 7.071068
      vertex -7.071068 4.000000 7.071068
    endloop
  endfacet
  facet normal 0.608761 0.000000 -0.793353
    outer loop
      vertex -5.000000 -4.000000 8.660254
      vertex -7.071068 4.000000 7.071068
      vertex -5.000000 4.000000 8.660254
    endloop
  endfacet
  facet normal 0.000000 -1.000000 0.000000
    outer loop
      vertex 0.000000 4.000000 0.000000
      vertex -7.071068 4.000000 7.071068
      vertex -8.660254 4.000000 5.000000
    endloop
  endfacet
  facet normal 0.000000 1.000000 0.000000
    outer loop
      vertex 0.000000 -4.000000 0.000000
      vertex -8.660254 -4.000000 5.000000
      vertex -7.071068 -4.000000 7.071068
    endloop
  endfacet
  facet normal 0.793353 0.000000 -0.608761
    outer loop
      vertex -7.071068 -4.000000 7.071068
      vertex -8.660254 -4.000000 5.000000
      vertex -8.660254 4.000000 5.000000
    endloop
  endfacet
  facet normal 0.793353 0.000000 -0.608761
    outer loop
      vertex -7.071068 -4.000000 7.071068
      vertex -8.660254 4.000000 5.000000
      vertex -7.071068 4.000000 7.071068
    endloop
  endfacet
  facet normal 0.000000 -1.000000 0.000000
    outer loop
      vertex 0.000000 4.000000 0.000000
      vertex -8.660254 4.000000 5.000000
      vertex -9.659258 4.000000 2.588190
    endloop
  endfacet
  facet normal 0.000000 1.000000 0.000000
    outer loop
      vertex 0.000000 -4.000000 0.000000
      vertex -9.659258 -4.000000 2.588190
      vertex -8.660254 -4.000000 5.000000
    endloop
  endfacet
  facet normal 0.923880 0.000000 -0.382683
    outer loop
      vertex -8.660254 -4.000000 5.000000
      vertex -9.659258 -4.000000 2.588190
      vertex -9.659258 4.000000 2.588190
    endloop
  endfacet
  facet normal 0.923880 0.000000 -0.382683
    outer loop
      vertex -8.660254 -4.000000 5.000000
      vertex -9.659258 4.000000 2.588190
      vertex -8.660254 4.000000 5.000000
    endloop
  endfacet
  facet normal 0.000000 -1.000000 0.000000
    outer loop
      vertex 0.000000 4.000000 0.000000
      vertex -9.659258 4.000000 2.588190
      vertex -10.000000 4.000000 0.000000
    endloop
  endfacet
  facet normal 0.000000 1.000000 0.000000
    outer loop
      vertex 0.000000 -4.000000 0.000000
      vertex -10.000000 -4.000000 0.000000
      vertex -9.659258 -4.000000 2.588190
    endloop
  endfacet
  facet normal 0.991445 0.000000 -0.130526
    outer loop
      vertex -9.659258 -4.000000 2.588190
      vertex -10.000000 -4.000000 0.000000
      vertex -10.000000 4.000000 0.000000
    endloop
  endfacet
  facet normal 0.991445 0.000000 -0.130526
    outer loop
      vertex -9.659258 -4.000000 2.588190
      vertex -10.000000 4.000000 0.000000
      vertex -9.659258 4.000000 2.588190
    endloop
  endfacet
  facet normal 0.000000 -1.000000 0.000000
    outer loop
      vertex 0.000000 4.000000 0.000000
      vertex -10.000000 4.000000 0.000000
      vertex -9.659258 4.000000 -2.588190
    endloop
  endfacet
  facet normal 0.000000 1.000000 0.000000
    outer loop
      vertex 0.000000 -4.000000 0.000000
      vertex -9.659258 -4.000000 -2.588190
      vertex -10.000000 -4.000000 0.000000
    endloop
  endfacet
  facet normal 0.991445 0.000000 0.130526
    outer loop
      vertex -10.000000 -4.000000 0.000000
      vertex -9.659258 -4.000000 -2.588190
      vertex -9.659258 4.000000 -2.588190
    endloop
  endfacet
  facet normal 0.991445 0.000000 0.130526
    outer loop
      vertex -10.000000 -4.000000 0.000000
      vertex -9.659258 4.000000 -2.588190
      vertex -10.000000 4.000000 0.000000
    endloop
  endfacet
  facet normal 0.000000 -1.000000 0.000000
    outer loop
      vertex 0.000000 4.000000 0.000000
      vertex -9.659258 4.000000 -2.588190
      vertex -8.660254 4.000000 -5.000000
    endloop
  endfacet
  facet normal 0.000000 1.000000 0.000000
    outer loop
      vertex 0.000000 -4.000000 0.000000
      vertex -8.660254 -4.000000 -5.000000
      vertex -9.659258 -4.000000 -2.588190
    endloop
  endfacet
  facet normal 0.923880 0.000000 0.382683
    outer loop
      vertex -9.659258 -4.000000 -2.588190
      vertex -8.660254 -4.000000 -5.000000
      vertex -8.660254 4.000000 -5.000000
    endloop
  endfacet
  facet normal 0.923880 0.000000 0.382683
    outer loop
      vertex -9.659258 -4.000000 -2.588190
      vertex -8.660254 4.000000 -5.000000
      vertex -9.659258 4.000000 -2.588190
    endloop
  endfacet
  facet normal 0.000000 -1.000000 0.000000
    outer loop
      vertex 0.000000 4.000000 0.000000
      vertex -8.660254 4.000000 -5.000000
      vertex -7.071068 4.000000 -7.071068
    endloop
  endfacet
  facet normal 0.000000 1.000000 0.000000
    outer loop
      vertex 0.000000 -4.000000 0.000000
      vertex -7.071068 -4.000000 -7.071068
      vertex -8.660254 -4.000000 -5.000000
    endloop
  endfacet
  facet normal 0.793353 0.000000 0.608761
    outer loop
      vertex -8.660254 -4.000000 -5.000000
      vertex -7.071068 -4.000000 -7.071068
      vertex -7.071068 4.000000 -7.071068
    endloop
  endfacet
  facet normal 0.793353 0.000000 0.608761
    outer loop
      vertex -8.660254 -4.000000 -5.000000
      vertex -7.071068 4.000000 -7.071068
      vertex -8.660254 4.000000 -5.000000
    endloop
  endfacet
  facet normal 0.000000 -1.000000 0.000000
    outer loop
      vertex 0.000000 4.000000 0.000000
      vertex -7.071068 4.000000 -7.071068
      vertex -5.000000 4.000000 -8.660254
    endloop
  endfacet
  facet normal 0.000000 1.000000 0.000000
    outer loop
      vertex 0.000000 -4.000000 0.000000
      vertex -5.000000 -4.000000 -8.660254
      vertex -7.071068 -4.000000 -7.071068
    endloop
  endfacet
  facet normal 0.608761 0.000000 0.793353
    outer loop
      vertex -7.071068 -4.000000 -7.071068
      vertex -5.000000 -4.000000 -8.660254
      vertex -5.000000 4.000000 -8.660254
    endloop
  endfacet
  facet normal 0.608761 0.000000 0.793353
    outer loop
      vertex -7.071068 -4.000000 -7.071068
      vertex -5.000000 4.000000 -8.660254
      vertex -7.071068 4.000000 -7.071068
    endloop
  endfacet
  facet normal 0.000000 -1.000000 0.000000
    outer loop
      vertex 0.000000 4.000000 0.000000
      vertex -5.000000 4.000000 -8.660254
      vertex -2.588190 4.000000 -9.659258
    endloop
  endfacet
  facet normal 0.000000 1.000000 0.000000
    outer loop
      vertex 0.000000 -4.000000 0.000000
      vertex -2.588190 -4.000000 -9.659258
      vertex -5.000000 -4.000000 -8.660254
    endloop
  endfacet
  facet normal 0.382683 0.000000 0.923880
    outer loop
      vertex -5.000000 -4.000000 -8.660254
      vertex -2.588190 -4.000000 -9.659258
      vertex -2.588190 4.000000 -9.659258
    endloop
  endfacet
  facet normal 0.382683 0.000000 0.923880
    outer loop
      vertex -5.000000 -4.000000 -8.660254
      vertex -2.588190 4.000000 -9.659258
      vertex -5.000000 4.000000 -8.660254
    endloop
  endfacet
  facet normal 0.000000 -1.000000 0.000000
    outer loop
      vertex 0.000000 4.000000 0.000000
      vertex -2.588190 4.000000 -9.659258
      vertex -0.000000 4.000000 -10.000000
    endloop
  endfacet
  facet normal 0.000000 1.000000 0.000000
    outer loop
      vertex 0.000000 -4.000000 0.000000
      vertex -0.000000 -4.000000 -10.000000
      vertex -2.588190 -4.000000 -9.659258
    endloop
  endfacet
  facet normal 0.130526 0.000000 0.991445
    outer loop
      vertex -2.588190 -4.000000 -9.659258
      vertex -0.000000 -4.000000 -10.000000
      vertex -0.000000 4.000000 -10.000000
    endloop
  endfacet
  facet normal 0.130526 0.000000 0.991445
    outer loop
      vertex -2.588190 -4.000000 -9.659258
      vertex -0.000000 4.000000 -10.000000
      vertex -2.588190 4.000000 -9.659258
    endloop
  endfacet
  facet normal 0.000000 -1.000000 0.000000
    outer loop
      vertex 0.000000 4.000000 0.000000
      vertex -0.000000 4.000000 -10.000000
      vertex 2.588190 4.000000 -9.659258
    endloop
  endfacet
  facet normal 0.000000 1.000000 0.000000
    outer loop
      vertex 0.000000 -4.000000 0.000000
      vertex 2.588190 -4.000000 -9.659258
      vertex -0.000000 -4.000000 -10.000000
    endloop
  endfacet
  facet normal -0.130526 0.000000 0.991445
    outer loop
      vertex -0.000000 -4.000000 -10.000000
      vertex 2.588190 -4.000000 -9.659258
      vertex 2.588190 4.000000 -9.659258
    endloop
  endfacet
  facet normal -0.130526 0.000000 0.991445
    outer loop
      vertex -0.000000 -4.000000 -10.000000
      vertex 2.588190 4.000000 -9.659258
      vertex -0.000000 4.000000 -10.000000
    endloop
  endfacet
  facet normal 0.000000 -1.000000 0.000000
    outer loop
      vertex 0.000000 4.000000 0.000000
      vertex 2.588190 4.000000 -9.659258
      vertex 5.000000 4.000000 -8.660254
    endloop
  endfacet
  facet normal 0.000000 1.000000 0.000000
    outer loop
      vertex 0.000000 -4.000000 0.000000
      vertex 5.000000 -4.000000 -8.660254
      vertex 2.588190 -4.000000 -9.659258
    endloop
  endfacet
  facet normal -0.382683 0.000000 0.923880
    outer loop
      vertex 2.588190 -4.000000 -9.659258
      vertex 5.000000 -4.000000 -8.660254
      vertex 5.000000 4.000000 -8.660254
    endloop
  endfacet
  facet normal -0.382683 0.000000 0.923880
    outer loop
      vertex 2.588190 -4.000000 -9.659258
      vertex 5.000000 4.000000 -8.660254
      vertex 2.588190 4.000000 -9.659258
    endloop
  endfacet
  facet normal 0.000000 -1.000000 0.000000
    outer loop
      vertex 0.000000 4.000000 0.000000
      vertex 5.000000 4.000000 -8.660254
      vertex 7.071068 4.000000 -7.071068
    endloop
  endfacet
  facet normal 0.000000 1.000000 0.000000
    outer loop
      vertex 0.000000 -4.000000 0.000000
      vertex 7.071068 -4.000000 -7.071068
      vertex 5.000000 -4.000000 -8.660254
    endloop
  endfacet
  facet normal -0.608761 0.000000 0.793353
    outer loop
      vertex 5.000000 -4.000000 -8.660254
      vertex 7.071068 -4.000000 -7.071068
      vertex 7.071068 4.000000 -7.071068
    endloop
  endfacet
  facet normal -0.608761 0.000000 0.793353
    outer loop
      vertex 5.000000 -4.000000 -8.660254
      vertex 7.071068 4.000000 -7.071068
      vertex 5.000000 4.000000 -8.660254
    endloop
  endfacet
  facet normal 0.000000 -1.000000 0.000000
    outer loop
      vertex 0.000000 4.000000 0.000000
      vertex 7.071068 4.000000 -7.071068
      vertex 8.660254 4.000000 -5.000000
    endloop
  endfacet
  facet normal 0.000000 1.000000 0.000000
    outer loop
      vertex 0.000000 -4.000000 0.000000
      vertex 8.660254 -4.000000 -5.000000
      vertex 7.071068 -4.000000 -7.071068
    endloop
  endfacet
  facet normal -0.793353 0.000000 0.608761
    outer loop
      vertex 7.071068 -4.000000 -7.071068
      vertex 8.660254 -4.000000 -5.000000
      vertex 8.660254 4.000000 -5.000000
    endloop
  endfacet
  facet normal -0.793353 0.000000 0.608761
    outer loop
      vertex 7.071068 -4.000000 -7.071068
      vertex 8.660254 4.000000 -5.000000
      vertex 7.071068 4.000000 -7.071068
    endloop
  endfacet
  facet normal 0.000000 -1.000000 0.000000
    outer loop
      vertex 0.000000 4.000000 0.000000
      vertex 8.660254 4.000000 -5.000000
      vertex 9.659258 4.000000 -2.588190
    endloop
  endfacet
  facet normal 0.000000 1.000000 0.000000
    outer loop
      vertex 0.000000 -4.000000 0.000000
      vertex 9.659258 -4.000000 -2.588190
      vertex 8.660254 -4.000000 -5.000000
    endloop
  endfacet
  facet normal -0.923880 0.000000 0.382683
    outer loop
      vertex 8.660254 -4.000000 -5.000000
      vertex 9.659258 -4.000000 -2.588190
      vertex 9.659258 4.000000 -2.588190
    endloop
  endfacet
  facet normal -0.923880 0.000000 0.382683
    outer loop
      vertex 8.660254 -4.000000 -5.000000
      vertex 9.659258 4.000000 -2.588190
      vertex 8.660254 4.000000 -5.000000
    endloop
  endfacet
  facet normal 0.000000 -1.000000 0.000000
    outer loop
      vertex 0.000000 4.000000 0.000000
      vertex 9.659258 4.000000 -2.588190
      vertex 10.000000 4.000000 0.000000
    endloop
  endfacet
  facet normal 0.000000 1.000000 0.000000
    outer loop
      vertex 0.000000 -4.000000 0.000000
      vertex 10.000000 -4.000000 0.000000
      vertex 9.659258 -4.000000 -2.588190
    endloop
  endfacet
  facet normal -0.991445 0.000000 0.130526
    outer loop
      vertex 9.659258 -4.000000 -2.588190
      vertex 10.000000 -4.000000 0.000000
      vertex 10.000000 4.000000 0.000000
    endloop
  endfacet
  facet normal -0.991445 0.000000 0.130526
    outer loop
      vertex 9.659258 -4.000000 -2.588190
      vertex 10.000000 4.000000 0.000000
      vertex 9.659258 4.000000 -2.588190
    endloop
  endfacet
  facet normal 0.000000 -1.000000 0.000000
    outer loop
      vertex 0.000000 4.200000 0.000000
      vertex 3.000000 4.200000 0.000000
      vertex 2.897777 4.200000 0.776457
    endloop
  endfacet
  facet normal 0.000000 1.000000 0.000000
    outer loop
      vertex 0.000000 -4.000000 0.000000
      vertex 2.897777 -4.000000 0.776457
      vertex 3.000000 -4.000000 0.000000
    endloop
  endfacet
  facet normal -0.991445 0.000000 -0.130526
    outer loop
      vertex 3.000000 -4.000000 0.000000
      vertex 2.897777 -4.000000 0.776457
      vertex 2.897777 4.200000 0.776457
    endloop
  endfacet
  facet normal -0.991445 0.000000 -0.130526
    outer loop
      vertex 3.000000 -4.000000 0.000000
      vertex 2.897777 4.200000 0.776457
      vertex 3.000000 4.200000 0.000000
    endloop
  endfacet
  facet normal 0.000000 -1.000000 0.000000
    outer loop
      vertex 0.000000 4.200000 0.000000
      vertex 2.897777 4.200000 0.776457
      vertex 2.598076 4.200000 1.500000
    endloop
  endfacet
  facet normal 0.000000 1.000000 0.000000
    outer loop
      vertex 0.000000 -4.000000 0.000000
      vertex 2.598076 -4.000000 1.500000
      vertex 2.897777 -4.000000 0.776457
    endloop
  endfacet
  facet normal -0.923880 0.000000 -0.382683
    outer loop
      vertex 2.897777 -4.000000 0.776457
      vertex 2.598076 -4.000000 1.500000
      vertex 2.598076 4.200000 1.500000
    endloop
  endfacet
  facet normal -0.923880 0.000000 -0.382683
    outer loop
      vertex 2.897777 -4.000000 0.776457
      vertex 2.598076 4.200000 1.500000
      vertex 2.897777 4.200000 0.776457
    endloop
  endfacet
  facet normal 0.000000 -1.000000 0.000000
    outer loop
      vertex 0.000000 4.200000 0.000000
      vertex 2.598076 4.200000 1.500000
      vertex 2.121320 4.200000 2.121320
    endloop
  endfacet
  facet normal 0.000000 1.000000 0.000000
    outer loop
      vertex 0.000000 -4.000000 0.000000
      vertex 2.121320 -4.000000 2.121320
      vertex 2.598076 -4.000000 1.500000
    endloop
  endfacet
  facet normal -0.793353 0.000000 -0.608761
    outer loop
      vertex 2.598076 -4.000000 1.500000
      vertex 2.121320 -4.000000 2.121320
      vertex 2.121320 4.200000 2.121320
    endloop
  endfacet
  facet normal -0.793353 0.000000 -0.608761
    outer loop
      vertex 2.598076 -4.000000 1.500000
      vertex 2.121320 4.200000 2.121320
      vertex 2.598076 4.200000 1.500000
    endloop
  endfacet
  facet normal 0.000000 -1.000000 0.000000
    outer loop
      vertex 0.000000 4.200000 0.000000
      vertex 2.121320 4.200000 2.121320
      vertex 1.500000 4.200000 2.598076
    endloop
  endfacet
  facet normal 0.000000 1.000000 0.000000
    outer loop
      vertex 0.000000 -4.000000 0.000000
      vertex 1.500000 -4.000000 2.598076
      vertex 2.121320 -4.000000 2.121320
    endloop
  endfacet
  facet normal -0.608761 0.000000 -0.793353
    outer loop
      vertex 2.121320 -4.000000 2.121320
      vertex 1.500000 -4.000000 2.598076
      vertex 1.500000 4.200000 2.598076
    endloop
  endfacet
  facet normal -0.608761 0.000000 -0.793353
    outer loop
      vertex 2.121320 -4.000000 2.121320
      vertex 1.500000 4.200000 2.598076
      vertex 2.121320 4.200000 2.121320
    endloop
  endfacet
  facet normal 0.000000 -1.000000 0.000000
    outer loop
      vertex 0.000000 4.200000 0.000000
      vertex 1.500000 4.200000 2.598076
      vertex 0.776457 4.200000 2.897777
    endloop
  endfacet
  facet normal 0.000000 1.000000 0.000000
    outer loop
      vertex 0.000000 -4.000000 0.000000
      vertex 0.776457 -4.000000 2.897777
      vertex 1.500000 -4.000000 2.598076
    endloop
  endfacet
  facet normal -0.382683 0.000000 -0.923880
    outer loop
      vertex 1.500000 -4.000000 2.598076
      vertex 0.776457 -4.000000 2.897777
      vertex 0.776457 4.200000 2.897777
    endloop
  endfacet
  facet normal -0.382683 0.000000 -0.923880
    outer loop
      vertex 1.500000 -4.000000 2.598076
      vertex 0.776457 4.200000 2.897777
      vertex 1.500000 4.200000 2.598076
    endloop
  endfacet
  facet normal 0.000000 -1.000000 0.000000
    outer loop
      vertex 0.000000 4.200000 0.000000
      vertex 0.776457 4.200000 2.897777
      vertex 0.000000 4.200000 3.000000
    endloop
  endfacet
  facet normal 0.000000 1.000000 0.000000
    outer loop
      vertex 0.000000 -4.000000 0.000000
      vertex 0.000000 -4.000000 3.000000
      vertex 0.776457 -4.000000 2.897777
    endloop
  endfacet
  facet normal -0.130526 0.000000 -0.991445
    outer loop
      vertex 0.776457 -4.000000 2.897777
      vertex 0.000000 -4.000000 3.000000
      vertex 0.000000 4.200000 3.000000
    endloop
  endfacet
  facet normal -0.130526 0.000000 -0.991445
    outer loop
      vertex 0.776457 -4.000000 2.897777
      vertex 0.000000 4.200000 3.000000
      vertex 0.776457 4.200000 2.897777
    endloop
  endfacet
  facet normal 0.000000 -1.000000 0.000000
    outer loop
      vertex 0.000000 4.200000 0.000000
      vertex 0.000000 4.200000 3.000000
      vertex -0.776457 4.200000 2.897777
    endloop
  endfacet
  facet normal 0.000000 1.000000 0.000000
    outer loop
      vertex 0.000000 -4.000000 0.000000
      vertex -0.776457 -4.000000 2.897777
      vertex 0.000000 -4.000000 3.000000
    endloop
  endfacet
  facet normal 0.130526 0.000000 -0.991445
    outer loop
      vertex 0.000000 -4.000000 3.000000
      vertex -0.776457 -4.000000 2.897777
      vertex -0.776457 4.200000 2.897777
    endloop
  endfacet
  facet normal 0.130526 0.000000 -0.991445
    outer loop
      vertex 0.000000 -4.000000 3.000000
      vertex -0.776457 4.200000 2.897777
      vertex 0.000000 4.200000 3.000000
    endloop
  endfacet
  facet normal 0.000000 -1.000000 0.000000
    outer loop
      vertex 0.000000 4.200000 0.000000
      vertex -0.776457 4.200000 2.897777
      vertex -1.500000 4.200000 2.598076
    endloop
  endfacet
  facet normal 0.000000 1.000000 0.000000
    outer loop
      vertex 0.000000 -4.000000 0.000000
      vertex -1.500000 -4.000000 2.598076
      vertex -0.776457 -4.000000 2.897777
    endloop
  endfacet
  facet normal 0.382683 0.000000 -0.923880
    outer loop
      vertex -0.776457 -4.000000 2.897777
      vertex -1.500000 -4.000000 2.598076
      vertex -1.500000 4.200000 2.598076
    endloop
  endfacet
  facet normal 0.382683 0.000000 -0.923880
    outer loop
      vertex -0.776457 -4.000000 2.897777
      vertex -1.500000 4.200000 2.598076
      vertex -0.776457 4.200000 2.897777
    endloop
  endfacet
  facet normal 0.000000 -1.000000 0.000000
    outer loop
      vertex 0.000000 4.200000 0.000000
      vertex -1.500000 4.200000 2.598076
      vertex -2.121320 4.200000 2.121320
    endloop
  endfacet
  facet normal 0.000000 1.000000 0.000000
    outer loop
      vertex 0.000000 -4.000000 0.000000
      vertex -2.121320 -4.000000 2.121320
      vertex -1.500000 -4.000000 2.598076
    endloop
  endfacet
  facet normal 0.608761 0.000000 -0.793353
    outer loop
      vertex -1.500000 -4.000000 2.598076
      vertex -2.121320 -4.000000 2.121320
      vertex -2.121320 4.200000 2.121320
    endloop
  endfacet
  facet normal 0.608761 0.000000 -0.793353
    outer loop
      vertex -1.500000 -4.000000 2.598076
      vertex -2.121320 4.200000 2.121320
      vertex -1.500000 4.200000 2.598076
    endloop
  endfacet
  facet normal 0.000000 -1.000000 0.000000
    outer loop
      vertex 0.000000 4.200000 0.000000
      vertex -2.121320 4.200000 2.121320
      vertex -2.598076 4.200000 1.500000
    endloop
  endfacet
  facet normal 0.000000 1.000000 0.000000
    outer loop
      vertex 0.000000 -4.000000 0.000000
      vertex -2.598076 -4.000000 1.500000
      vertex -2.121320 -4.000000 2.121320
    endloop
  endfacet
  facet normal 0.793353 0.000000 -0.608761
    outer loop
      vertex -2.121320 -4.000000 2.121320
      vertex -2.598076 -4.000000 1.500000
      vertex -2.598076 4.200000 1.500000
    endloop
  endfacet
  facet normal 0.793353 0.000000 -0.608761
    outer loop
      vertex -2.121320 -4.000000 2.121320
      vertex -2.598076 4.200000 1.500000
      vertex -2.121320 4.200000 2.121320
    endloop
  endfacet
  facet normal 0.000000 -1.000000 0.000000
    outer loop
      vertex 0.000000 4.200000 0.000000
      vertex -2.598076 4.200000 1.500000
      vertex -2.897777 4.200000 0.776457
    endloop
  endfacet
  facet normal 0.000000 1.000000 0.000000
    outer loop
      vertex 0.000000 -4.000000 0.000000
      vertex -2.897777 -4.000000 0.776457
      vertex -2.598076 -4.000000 1.500000
    endloop
  endfacet
  facet normal 0.923880 0.000000 -0.382683
    outer loop
      vertex -2.598076 -4.000000 1.500000
      vertex -2.897777 -4.000000 0.776457
      vertex -2.897777 4.200000 0.776457
    endloop
  endfacet
  facet normal 0.923880 0.000000 -0.382683
    outer loop
      vertex -2.598076 -4.000000 1.500000
      vertex -2.897777 4.200000 0.776457
      vertex -2.598076 4.200000 1.500000
    endloop
  endfacet
  facet normal 0.000000 -1.000000 0.000000
    outer loop
      vertex 0.000000 4.200000 0.000000
      vertex -2.897777 4.200000 0.776457
      vertex -3.000000 4.200000 0.000000
    endloop
  endfacet
  facet normal 0.000000 1.000000 0.000000
    outer loop
      vertex 0.000000 -4.000000 0.000000
      vertex -3.000000 -4.000000 0.000000
      vertex -2.897777 -4.000000 0.776457
    endloop
  endfacet
  facet normal 0.991445 0.000000 -0.130526
    outer loop
      vertex -2.897777 -4.000000 0.776457
      vertex -3.000000 -4.000000 0.000000
      vertex -3.000000 4.200000 0.000000
    endloop
  endfacet
  facet normal 0.991445 0.000000 -0.130526
    outer loop
      vertex -2.897777 -4.000000 0.776457
      vertex -3.000000 4.200000 0.000000
      vertex -2.897777 4.200000 0.776457
    endloop
  endfacet
  facet normal 0.000000 -1.000000 0.000000
    outer loop
      vertex 0.000000 4.200000 0.000000
      vertex -3.000000 4.200000 0.000000
      vertex -2.897777 4.200000 -0.776457
    endloop
  endfacet
  facet normal 0.000000 1.000000 0.000000
    outer loop
      vertex 0.000000 -4.000000 0.000000
      vertex -2.897777 -4.000000 -0.776457
      vertex -3.000000 -4.000000 0.000000
    endloop
  endfacet
  facet normal 0.991445 0.000000 0.130526
    outer loop
      vertex -3.000000 -4.000000 0.000000
      vertex -2.897777 -4.000000 -0.776457
      vertex -2.897777 4.200000 -0.776457
    endloop
  endfacet
  facet normal 0.991445 0.000000 0.130526
    outer loop
      vertex -3.000000 -4.000000 0.000000
      vertex -2.897777 4.200000 -0.776457
      vertex -3.000000 4.200000 0.000000
    endloop
  endfacet
  facet normal 0.000000 -1.000000 0.000000
    outer loop
      vertex 0.000000 4.200000 0.000000
      vertex -2.897777 4.200000 -0.776457
      vertex -2.598076 4.200000 -1.500000
    endloop
  endfacet
  facet normal 0.000000 1.000000 0.000000
    outer loop
      vertex 0.000000 -4.000000 0.000000
      vertex -2.598076 -4.000000 -1.500000
      vertex -2.897777 -4.000000 -0.776457
    endloop
  endfacet
  facet normal 0.923880 0.000000 0.382683
    outer loop
      vertex -2.897777 -4.000000 -0.776457
      vertex -2.598076 -4.000000 -1.500000
      vertex -2.598076 4.200000 -1.500000
    endloop
  endfacet
  facet normal 0.923880 0.000000 0.382683
    outer loop
      vertex -2.897777 -4.000000 -0.776457
      vertex -2.598076 4.200000 -1.500000
      vertex -2.897777 4.200000 -0.776457
    endloop
  endfacet
  facet normal 0.000000 -1.000000 0.000000
    outer loop
      vertex 0.000000 4.200000 0.000000
      vertex -2.598076 4.200000 -1.500000
      vertex -2.121320 4.200000 -2.121320
    endloop
  endfacet
  facet normal 0.000000 1.000000 0.000000
    outer loop
      vertex 0.000000 -4.000000 0.000000
      vertex -2.121320 -4.000000 -2.121320
      vertex -2.598076 -4.000000 -1.500000
    endloop
  endfacet
  facet normal 0.793353 0.000000 0.608761
    outer loop
      vertex -2.598076 -4.000000 -1.500000
      vertex -2.121320 -4.000000 -2.121320
      vertex -2.121320 4.200000 -2.121320
    endloop
  endfacet
  facet normal 0.793353 0.000000 0.608761
    outer loop
      vertex -2.598076 -4.000000 -1.500000
      vertex -2.121320 4.200000 -2.121320
      vertex -2.598076 4.200000 -1.500000
    endloop
  endfacet
  facet normal 0.000000 -1.000000 0.000000
    outer loop
      vertex 0.000000 4.200000 0.000000
      vertex -2.121320 4.200000 -2.121320
      vertex -1.500000 4.200000 -2.598076
    endloop
  endfacet
  facet normal 0.000000 1.000000 0.000000
    outer loop
      vertex 0.000000 -4.000000 0.000000
      vertex -1.500000 -4.000000 -2.598076
      vertex -2.121320 -4.000000 -2.121320
    endloop
  endfacet
  facet normal 0.608761 0.000000 0.793353
    outer loop
      vertex -2.121320 -4.000000 -2.121320
      vertex -1.500000 -4.000000 -2.598076
      vertex -1.500000 4.200000 -2.598076
    endloop
  endfacet
  facet normal 0.608761 0.000000 0.793353
    outer loop
      vertex -2.121320 -4.000000 -2.121320
      vertex -1.500000 4.200000 -2.598076
      vertex -2.121320 4.200000 -2.121320
    endloop
  endfacet
  facet normal 0.000000 -1.000000 0.000000
    outer loop
      vertex 0.000000 4.200000 0.000000
      vertex -1.500000 4.200000 -2.598076
      vertex -0.776457 4.200000 -2.897777
    endloop
  endfacet
  facet normal 0.000000 1.000000 0.000000
    outer loop
      vertex 0.000000 -4.000000 0.000000
      vertex -0.776457 -4.000000 -2.897777
      vertex -1.500000 -4.000000 -2.598076
    endloop
  endfacet
  facet normal 0.382683 0.000000 0.923880
    outer loop
      vertex -1.500000 -4.000000 -2.598076
      vertex -0.776457 -4.000000 -2.897777
      vertex -0.776457 4.200000 -2.897777
    endloop
  endfacet
  facet normal 0.382683 0.000000 0.923880
    outer loop
      vertex -1.500000 -4.000000 -2.598076
      vertex -0.776457 4.200000 -2.897777
      vertex -1.500000 4.200000 -2.598076
    endloop
  endfacet
  facet normal 0.000000 -1.000000 0.000000
    outer loop
      vertex 0.000000 4.200000 0.000000
      vertex -0.776457 4.200000 -2.897777
      vertex -0.000000 4.200000 -3.000000
    endloop
  endfacet
  facet normal 0.000000 1.000000 0.000000
    outer loop
      vertex 0.000000 -4.000000 0.000000
      vertex -0.000000 -4.000000 -3.000000
      vertex -0.776457 -4.000000 -2.897777
    endloop
  endfacet
  facet normal 0.130526 0.000000 0.991445
    outer loop
      vertex -0.776457 -4.000000 -2.897777
      vertex -0.000000 -4.000000 -3.000000
      vertex -0.000000 4.200000 -3.000000
    endloop
  endfacet
  facet normal 0.130526 0.000000 0.991445
    outer loop
      vertex -0.776457 -4.000000 -2.897777
      vertex -0.000000 4.200000 -3.000000
      vertex -0.776457 4.200000 -2.897777
    endloop
  endfacet
  facet normal 0.000000 -1.000000 0.000000
    outer loop
      vertex 0.000000 4.200000 0.000000
      vertex -0.000000 4.200000 -3.000000
      vertex 0.776457 4.200000 -2.897777
    endloop
  endfacet
  facet normal 0.000000 1.000000 0.000000
    outer loop
      vertex 0.000000 -4.000000 0.000000
      vertex 0.776457 -4.000000 -2.897777
      vertex -0.000000 -4.000000 -3.000000
    endloop
  endfacet
  facet normal -0.130526 0.000000 0.991445
    outer loop
      vertex -0.000000 -4.000000 -3.000000
      vertex 0.776457 -4.000000 -2.897777
      vertex 0.776457 4.200000 -2.897777
    endloop
  endfacet
  facet normal -0.130526 0.000000 0.991445
    outer loop
      vertex -0.000000 -4.000000 -3.000000
      vertex 0.776457 4.200000 -2.897777
      vertex -0.000000 4.200000 -3.000000
    endloop
  endfacet
  facet normal 0.000000 -1.000000 0.000000
    outer loop
      vertex 0.000000 4.200000 0.000000
      vertex 0.776457 4.200000 -2.897777
      vertex 1.500000 4.200000 -2.598076
    endloop
  endfacet
  facet normal 0.000000 1.000000 0.000000
    outer loop
      vertex 0.000000 -4.000000 0.000000
      vertex 1.500000 -4.000000 -2.598076
      vertex 0.776457 -4.000000 -2.897777
    endloop
  endfacet
  facet normal -0.382683 0.000000 0.923880
    outer loop
      vertex 0.776457 -4.000000 -2.897777
      vertex 1.500000 -4.000000 -2.598076
      vertex 1.500000 4.200000 -2.598076
    endloop
  endfacet
  facet normal -0.382683 0.000000 0.923880
    outer loop
      vertex 0.776457 -4.000000 -2.897777
      vertex 1.500000 4.200000 -2.598076
      vertex 0.776457 4.200000 -2.897777
    endloop
  endfacet
  facet normal 0.000000 -1.000000 0.000000
    outer loop
      vertex 0.000000 4.200000 0.000000
      vertex 1.500000 4.200000 -2.598076
      vertex 2.121320 4.200000 -2.121320
    endloop
  endfacet
  facet normal 0.000000 1.000000 0.000000
    outer loop
      vertex 0.000000 -4.000000 0.000000
      vertex 2.121320 -4.000000 -2.121320
      vertex 1.500000 -4.000000 -2.598076
    endloop
  endfacet
  facet normal -0.608761 0.000000 0.793353
    outer loop
      vertex 1.500000 -4.000000 -2.598076
      vertex 2.121320 -4.000000 -2.121320
      vertex 2.121320 4.200000 -2.121320
    endloop
  endfacet
  facet normal -0.608761 0.000000 0.793353
    outer loop
      vertex 1.500000 -4.000000 -2.598076
      vertex 2.121320 4.200000 -2.121320
      vertex 1.500000 4.200000 -2.598076
    endloop
  endfacet
  facet normal 0.000000 -1.000000 0.000000
    outer loop
      vertex 0.000000 4.200000 0.000000
      vertex 2.121320 4.200000 -2.121320
      vertex 2.598076 4.200000 -1.500000
    endloop
  endfacet
  facet normal 0.000000 1.000000 0.000000
    outer loop
      vertex 0.000000 -4.000000 0.000000
      vertex 2.598076 -4.000000 -1.500000
      vertex 2.121320 -4.000000 -2.121320
    endloop
  endfacet
  facet normal -0.793353 0.000000 0.608761
    outer loop
      vertex 2.121320 -4.000000 -2.121320
      vertex 2.598076 -4.000000 -1.500000
      vertex 2.598076 4.200000 -1.500000
    endloop
  endfacet
  facet normal -0.793353 0.000000 0.608761
    outer loop
      vertex 2.121320 -4.000000 -2.121320
      vertex 2.598076 4.200000 -1.500000
      vertex 2.121320 4.200000 -2.121320
    endloop
  endfacet
  facet normal 0.000000 -1.000000 0.000000
    outer loop
      vertex 0.000000 4.200000 0.000000
      vertex 2.598076 4.200000 -1.500000
      vertex 2.897777 4.200000 -0.776457
    endloop
  endfacet
  facet normal 0.000000 1.000000 0.000000
    outer loop
      vertex 0.000000 -4.000000 0.000000
      vertex 2.897777 -4.000000 -0.776457
      vertex 2.598076 -4.000000 -1.500000
    endloop
  endfacet
  facet normal -0.923880 0.000000 0.382683
    outer loop
      vertex 2.598076 -4.000000 -1.500000
      vertex 2.897777 -4.000000 -0.776457
      vertex 2.897777 4.200000 -0.776457
    endloop
  endfacet
  facet normal -0.923880 0.000000 0.382683
    outer loop
      vertex 2.598076 -4.000000 -1.500000
      vertex 2.897777 4.200000 -0.776457
      vertex 2.598076 4.200000 -1.500000
    endloop
  endfacet
  facet normal 0.000000 -1.000000 0.000000
    outer loop
      vertex 0.000000 4.200000 0.000000
      vertex 2.897777 4.200000 -0.776457
      vertex 3.000000 4.200000 0.000000
    endloop
  endfacet
  facet normal 0.000000 1.000000 0.000000
    outer loop
      vertex 0.000000 -4.000000 0.000000
      vertex 3.000000 -4.000000 0.000000
      vertex 2.897777 -4.000000 -0.776457
    endloop
  endfacet
  facet normal -0.991445 0.000000 0.130526
    outer loop
      vertex 2.897777 -4.000000 -0.776457
      vertex 3.000000 -4.000000 0.000000
      vertex 3.000000 4.200000 0.000000
    endloop
  endfacet
  facet normal -0.991445 0.000000 0.130526
    outer loop
      vertex 2.897777 -4.000000 -0.776457
      vertex 3.000000 4.200000 0.000000
      vertex 2.897777 4.200000 -0.776457
    endloop
  endfacet
  facet normal 0.087156 -0.996195 0.000000
    outer loop
      vertex 0.128641 -4.046375 -9.000000
      vertex 117.679616 6.238003 -9.000000
      vertex 117.679616 6.238003 9.000000
    endloop
  endfacet
  facet normal 0.087156 -0.996195 0.000000
    outer loop
      vertex 0.128641 -4.046375 -9.000000
      vertex 117.679616 6.238003 9.000000
      vertex 0.128641 -4.046375 9.000000
    endloop
  endfacet
  facet normal -0.087156 0.996195 0.000000
    outer loop
      vertex 0.320384 -6.238003 9.000000
      vertex 117.871359 4.046375 9.000000
      vertex 117.871359 4.046375 -9.000000
    endloop
  endfacet
  facet normal -0.087156 0.996195 0.000000
    outer loop
      vertex 0.320384 -6.238003 9.000000
      vertex 117.871359 4.046375 -9.000000
      vertex 0.320384 -6.238003 -9.000000
    endloop
  endfacet
  facet normal 0.000000 0.000000 -1.000000
    outer loop
      vertex 0.128641 -4.046375 9.000000
      vertex 117.679616 6.238003 9.000000
      vertex 117.871359 4.046375 9.000000
    endloop
  endfacet
  facet normal 0.000000 0.000000 -1.000000
    outer loop
      vertex 0.128641 -4.046375 9.000000
      vertex 117.871359 4.046375 9.000000
      vertex 0.320384 -6.238003 9.000000
    endloop
  endfacet
  facet normal 0.000000 0.000000 1.000000
    outer loop
      vertex 117.871359 4.046375 -9.000000
      vertex 117.679616 6.238003 -9.000000
      vertex 0.128641 -4.046375 -9.000000
    endloop
  endfacet
  facet normal 0.000000 0.000000 1.000000
    outer loop
      vertex 117.871359 4.046375 -9.000000
      vertex 0.128641 -4.046375 -9.000000
      vertex 0.320384 -6.238003 -9.000000
    endloop
  endfacet
  facet normal -0.996195 -0.087156 0.000000
    outer loop
      vertex 117.871359 4.046375 9.000000
      vertex 117.679616 6.238003 9.000000
      vertex 117.679616 6.238003 -9.000000
    endloop
  endfacet
  facet normal -0.996195 -0.087156 0.000000
    outer loop
      vertex 117.871359 4.046375 9.000000
      vertex 117.679616 6.238003 -9.000000
      vertex 117.871359 4.046375 -9.000000
    endloop
  endfacet
  facet normal 0.996195 0.087156 0.000000
    outer loop
      vertex 0.320384 -6.238003 -9.000000
      vertex 0.128641 -4.046375 -9.000000
      vertex 0.128641 -4.046375 9.000000
    endloop
  endfacet
  facet normal 0.996195 0.087156 0.000000
    outer loop
      vertex 0.320384 -6.238003 -9.000000
      vertex 0.128641 -4.046375 9.000000
      vertex 0.320384 -6.238003 9.000000
    endloop
  endfacet
  facet normal -0.087156 -0.996195 0.000000
    outer loop
      vertex -117.679616 6.238003 -9.000000
      vertex -0.128641 -4.046375 -9.000000
      vertex -0.128641 -4.046375 9.000000
    endloop
  endfacet
  facet normal -0.087156 -0.996195 0.000000
    outer loop
      vertex -117.679616 6.238003 -9.000000
      vertex -0.128641 -4.046375 9.000000
      vertex -117.679616 6.238003 9.000000
    endloop
  endfacet
  facet normal 0.087156 0.996195 0.000000
    outer loop
      vertex -117.871359 4.046375 9.000000
      vertex -0.320384 -6.238003 9.000000
      vertex -0.320384 -6.238003 -9.000000
    endloop
  endfacet
  facet normal 0.087156 0.996195 0.000000
    outer loop
      vertex -117.871359 4.046375 9.000000
      vertex -0.320384 -6.238003 -9.000000
      vertex -117.871359 4.046375 -9.000000
    endloop
  endfacet
  facet normal 0.000000 0.000000 -1.000000
    outer loop
      vertex -117.679616 6.238003 9.000000
      vertex -0.128641 -4.046375 9.000000
      vertex -0.320384 -6.238003 9.000000
    endloop
  endfacet
  facet normal 0.000000 0.000000 -1.000000
    outer loop
      vertex -117.679616 6.238003 9.000000
      vertex -0.320384 -6.238003 9.000000
      vertex -117.871359 4.046375 9.000000
    endloop
  endfacet
  facet normal 0.000000 0.000000 1.000000
    outer loop
      vertex -0.320384 -6.238003 -9.000000
      vertex -0.128641 -4.046375 -9.000000
      vertex -117.679616 6.238003 -9.000000
    endloop
  endfacet
  facet normal 0.000000 0.000000 1.000000
    outer loop
      vertex -0.320384 -6.238003 -9.000000
      vertex -117.679616 6.238003 -9.000000
      vertex -117.871359 4.046375 -9.000000
    endloop
  endfacet
  facet normal -0.996195 0.087156 0.000000
    outer loop
      vertex -0.320384 -6.238003 9.000000
      vertex -0.128641 -4.046375 9.000000
      vertex -0.128641 -4.046375 -9.000000
    endloop
  endfacet
  facet normal -0.996195 0.087156 0.000000
    outer loop
      vertex -0.320384 -6.238003 9.000000
      vertex -0.128641 -4.046375 -9.000000
      vertex -0.320384 -6.238003 -9.000000
    endloop
  endfacet
  facet normal 0.996195 -0.087156 0.000000
    outer loop
      vertex -117.871359 4.046375 -9.000000
      vertex -117.679616 6.238003 -9.000000
      vertex -117.679616 6.238003 9.000000
    endloop
  endfacet
  facet normal 0.996195 -0.087156 0.000000
    outer loop
      vertex -117.871359 4.046375 -9.000000
      vertex -117.679616 6.238003 9.000000
      vertex -117.871359 4.046375 9.000000
    endloop
  endfacet
endsolid propeller_ep_1045_two_blade