solid buzzer_active_5v
  facet normal 0.000000 1.000000 0.000000
    outer loop
      vertex -1.270000 -15.250000 0.000000
      vertex -0.990000 -15.250000 0.000000
      vertex -1.017729 -15.250000 -0.121487
    endloop
  endfacet
  facet normal 0.000000 -1.000000 0.000000
    outer loop
      vertex -1.270000 -4.750000 -0.000000
      vertex -1.017729 -4.750000 -0.121487
      vertex -0.990000 -4.750000 -0.000000
    endloop
  endfacet
  facet normal -0.974928 0.000000 0.222521
    outer loop
      vertex -0.990000 -4.750000 -0.000000
      vertex -1.017729 -4.750000 -0.121487
      vertex -1.017729 -15.250000 -0.121487
    endloop
  endfacet
  facet normal -0.974928 0.000000 0.222521
    outer loop
      vertex -0.990000 -4.750000 -0.000000
      vertex -1.017729 -15.250000 -0.121487
      vertex -0.990000 -15.250000 0.000000
    endloop
  endfacet
  facet normal 0.000000 1.000000 0.000000
    outer loop
      vertex -1.270000 -15.250000 0.000000
      vertex -1.017729 -15.250000 -0.121487
      vertex -1.095423 -15.250000 -0.218913
    endloop
  endfacet
  facet normal 0.000000 -1.000000 0.000000
    outer loop
      vertex -1.270000 -4.750000 -0.000000
      vertex -1.095423 -4.750000 -0.218913
      vertex -1.017729 -4.750000 -0.121487
    endloop
  endfacet
  facet normal -0.781831 0.000000 0.623490
    outer loop
      vertex -1.017729 -4.750000 -0.121487
      vertex -1.095423 -4.750000 -0.218913
      vertex -1.095423 -15.250000 -0.218913
    endloop
  endfacet
  facet normal -0.781831 0.000000 0.623490
    outer loop
      vertex -1.017729 -4.750000 -0.121487
      vertex -1.095423 -15.250000 -0.218913
      vertex -1.017729 -15.250000 -0.121487
    endloop
  endfacet
  facet normal 0.000000 1.000000 0.000000
    outer loop
      vertex -1.270000 -15.250000 0.000000
      vertex -1.095423 -15.250000 -0.218913
      vertex -1.207694 -15.250000 -0.272980
    endloop
  endfacet
  facet normal 0.000000 -1.000000 0.000000
    outer loop
      vertex -1.270000 -4.750000 -0.000000
      vertex -1.207694 -4.750000 -0.272980
      vertex -1.095423 -4.750000 -0.218913
    endloop
  endfacet
  facet normal -0.433884 0.000000 0.900969
    outer loop
      vertex -1.095423 -4.750000 -0.218913
      vertex -1.207694 -4.750000 -0.272980
      vertex -1.207694 -15.250000 -0.272980
    endloop
  endfacet
  facet normal -0.433884 0.000000 0.900969
    outer loop
      vertex -1.095423 -4.750000 -0.218913
      vertex -1.207694 -15.250000 -0.272980
      vertex -1.095423 -15.250000 -0.218913
    endloop
  endfacet
  facet normal 0.000000 1.000000 0.000000
    outer loop
      vertex -1.270000 -15.250000 0.000000
      vertex -1.207694 -15.250000 -0.272980
      vertex -1.332306 -15.250000 -0.272980
    endloop
  endfacet
  facet normal 0.000000 -1.000000 0.000000
    outer loop
      vertex -1.270000 -4.750000 -0.000000
      vertex -1.332306 -4.750000 -0.272980
      vertex -1.207694 -4.750000 -0.272980
    endloop
  endfacet
  facet normal 0.000000 0.000000 1.000000
    outer loop
      vertex -1.207694 -4.750000 -0.272980
      vertex -1.332306 -4.750000 -0.272980
      vertex -1.332306 -15.250000 -0.272980
    endloop
  endfacet
  facet normal 0.000000 0.000000 1.000000
    outer loop
      vertex -1.207694 -4.750000 -0.272980
      vertex -1.332306 -15.250000 -0.272980
      vertex -1.207694 -15.250000 -0.272980
    endloop
  endfacet
  facet normal 0.000000 1.000000 0.000000
    outer loop
      vertex -1.270000 -15.250000 0.000000
      vertex -1.332306 -15.250000 -0.272980
      vertex -1.444577 -15.250000 -0.218913
    endloop
  endfacet
  facet normal 0.000000 -1.000000 0.000000
    outer loop
      vertex -1.270000 -4.750000 -0.000000
      vertex -1.444577 -4.750000 -0.218913
      vertex -1.332306 -4.750000 -0.272980
    endloop
  endfacet
  facet normal 0.433884 0.000000 0.900969
    outer loop
      vertex -1.332306 -4.750000 -0.272980
      vertex -1.444577 -4.750000 -0.218913
      vertex -1.444577 -15.250000 -0.218913
    endloop
  endfacet
  facet normal 0.433884 0.000000 0.900969
    outer loop
      vertex -1.332306 -4.750000 -0.272980
      vertex -1.444577 -15.250000 -0.218913
      vertex -1.332306 -15.250000 -0.272980
    endloop
  endfacet
  facet normal 0.000000 1.000000 0.000000
    outer loop
      vertex -1.270000 -15.250000 0.000000
      vertex -1.444577 -15.250000 -0.218913
      vertex -1.522271 -15.250000 -0.121487
    endloop
  endfacet
  facet normal 0.000000 -1.000000 0.000000
    outer loop
      vertex -1.270000 -4.750000 -0.000000
      vertex -1.522271 -4.750000 -0.121487
      vertex -1.444577 -4.750000 -0.218913
    endloop
  endfacet
  facet normal 0.781831 0.000000 0.623490
    outer loop
      vertex -1.444577 -4.750000 -0.218913
      vertex -1.522271 -4.750000 -0.121487
      vertex -1.522271 -15.250000 -0.121487
    endloop
  endfacet
  facet normal 0.781831 0.000000 0.623490
    outer loop
      vertex -1.444577 -4.750000 -0.218913
      vertex -1.522271 -15.250000 -0.121487
      vertex -1.444577 -15.250000 -0.218913
    endloop
  endfacet
  facet normal 0.000000 1.000000 0.000000
    outer loop
      vertex -1.270000 -15.250000 0.000000
      vertex -1.522271 -15.250000 -0.121487
      vertex -1.550000 -15.250000 0.000000
    endloop
  endfacet
  facet normal 0.000000 -1.000000 0.000000
    outer loop
      vertex -1.270000 -4.750000 -0.000000
      vertex -1.550000 -4.750000 -0.000000
      vertex -1.522271 -4.750000 -0.121487
    endloop
  endfacet
  facet normal 0.974928 0.000000 0.222521
    outer loop
      vertex -1.522271 -4.750000 -0.121487
      vertex -1.550000 -4.750000 -0.000000
      vertex -1.550000 -15.250000 0.000000
    endloop
  endfacet
  facet normal 0.974928 0.000000 0.222521
    outer loop
      vertex -1.522271 -4.750000 -0.121487
      vertex -1.550000 -15.250000 0.000000
      vertex -1.522271 -15.250000 -0.121487
    endloop
  endfacet
  facet normal 0.000000 1.000000 0.000000
    outer loop
      vertex -1.270000 -15.250000 0.000000
      vertex -1.550000 -15.250000 0.000000
      vertex -1.522271 -15.250000 0.121487
    endloop
  endfacet
  facet normal 0.000000 -1.000000 0.000000
    outer loop
      vertex -1.270000 -4.750000 -0.000000
      vertex -1.522271 -4.750000 0.121487
      vertex -1.550000 -4.750000 -0.000000
    endloop
  endfacet
  facet normal 0.974928 -0.000000 -0.222521
    outer loop
      vertex -1.550000 -4.750000 -0.000000
      vertex -1.522271 -4.750000 0.121487
      vertex -1.522271 -15.250000 0.121487
    endloop
  endfacet
  facet normal 0.974928 -0.000000 -0.222521
    outer loop
      vertex -1.550000 -4.750000 -0.000000
      vertex -1.522271 -15.250000 0.121487
      vertex -1.550000 -15.250000 0.000000
    endloop
  endfacet
  facet normal 0.000000 1.000000 0.000000
    outer loop
      vertex -1.270000 -15.250000 0.000000
      vertex -1.522271 -15.250000 0.121487
      vertex -1.444577 -15.250000 0.218913
    endloop
  endfacet
  facet normal 0.000000 -1.000000 0.000000
    outer loop
      vertex -1.270000 -4.750000 -0.000000
      vertex -1.444577 -4.750000 0.218913
      vertex -1.522271 -4.750000 0.121487
    endloop
  endfacet
  facet normal 0.781831 -0.000000 -0.623490
    outer loop
      vertex -1.522271 -4.750000 0.121487
      vertex -1.444577 -4.750000 0.218913
      vertex -1.444577 -15.250000 0.218913
    endloop
  endfacet
  facet normal 0.781831 -0.000000 -0.623490
    outer loop
      vertex -1.522271 -4.750000 0.121487
      vertex -1.444577 -15.250000 0.218913
      vertex -1.522271 -15.250000 0.121487
    endloop
  endfacet
  facet normal 0.000000 1.000000 0.000000
    outer loop
      vertex -1.270000 -15.250000 0.000000
      vertex -1.444577 -15.250000 0.218913
      vertex -1.332306 -15.250000 0.272980
    endloop
  endfacet
  facet normal 0.000000 -1.000000 0.000000
    outer loop
      vertex -1.270000 -4.750000 -0.000000
      vertex -1.332306 -4.750000 0.272980
      vertex -1.444577 -4.750000 0.218913
    endloop
  endfacet
  facet normal 0.433884 -0.000000 -0.900969
    outer loop
      vertex -1.444577 -4.750000 0.218913
      vertex -1.332306 -4.750000 0.272980
      vertex -1.332306 -15.250000 0.272980
    endloop
  endfacet
  facet normal 0.433884 -0.000000 -0.900969
    outer loop
      vertex -1.444577 -4.750000 0.218913
      vertex -1.332306 -15.250000 0.272980
      vertex -1.444577 -15.250000 0.218913
    endloop
  endfacet
  facet normal 0.000000 1.000000 0.000000
    outer loop
      vertex -1.270000 -15.250000 0.000000
      vertex -1.332306 -15.250000 0.272980
      vertex -1.207694 -15.250000 0.272980
    endloop
  endfacet
  facet normal 0.000000 -1.000000 0.000000
    outer loop
      vertex -1.270000 -4.750000 -0.000000
      vertex -1.207694 -4.750000 0.272980
      vertex -1.332306 -4.750000 0.272980
    endloop
  endfacet
  facet normal 0.000000 -0.000000 -1.000000
    outer loop
      vertex -1.332306 -4.750000 0.272980
      vertex -1.207694 -4.750000 0.272980
      vertex -1.207694 -15.250000 0.272980
    endloop
  endfacet
  facet normal 0.000000 -0.000000 -1.000000
    outer loop
      vertex -1.332306 -4.750000 0.272980
      vertex -1.207694 -15.250000 0.272980
      vertex -1.332306 -15.250000 0.272980
    endloop
  endfacet
  facet normal 0.000000 1.000000 0.000000
    outer loop
      vertex -1.270000 -15.250000 0.000000
      vertex -1.207694 -15.250000 0.272980
      vertex -1.095423 -15.250000 0.218913
    endloop
  endfacet
  facet normal 0.000000 -1.000000 0.000000
    outer loop
      vertex -1.270000 -4.750000 -0.000000
      vertex -1.095423 -4.750000 0.218913
      vertex -1.207694 -4.750000 0.272980
    endloop
  endfacet
  facet normal -0.433884 -0.000000 -0.900969
    outer loop
      vertex -1.207694 -4.750000 0.272980
      vertex -1.095423 -4.750000 0.218913
      vertex -1.095423 -15.250000 0.218913
    endloop
  endfacet
  facet normal -0.433884 -0.000000 -0.900969
    outer loop
      vertex -1.207694 -4.750000 0.272980
      vertex -1.095423 -15.250000 0.218913
      vertex -1.207694 -15.250000 0.272980
    endloop
  endfacet
  facet normal 0.000000 1.000000 0.000000
    outer loop
      vertex -1.270000 -15.250000 0.000000
      vertex -1.095423 -15.250000 0.218913
      vertex -1.017729 -15.250000 0.121487
    endloop
  endfacet
  facet normal 0.000000 -1.000000 0.000000
    outer loop
      vertex -1.270000 -4.750000 -0.000000
      vertex -1.017729 -4.750000 0.121487
      vertex -1.095423 -4.750000 0.218913
    endloop
  endfacet
  facet normal -0.781831 -0.000000 -0.623490
    outer loop
      vertex -1.095423 -4.750000 0.218913
      vertex -1.017729 -4.750000 0.121487
      vertex -1.017729 -15.250000 0.121487
    endloop
  endfacet
  facet normal -0.781831 -0.000000 -0.623490
    outer loop
      vertex -1.095423 -4.750000 0.218913
      vertex -1.017729 -15.250000 0.121487
      vertex -1.095423 -15.250000 0.218913
    endloop
  endfacet
  facet normal 0.000000 1.000000 0.000000
    outer loop
      vertex -1.270000 -15.250000 0.000000
      vertex -1.017729 -15.250000 0.121487
      vertex -0.990000 -15.250000 0.000000
    endloop
  endfacet
  facet normal 0.000000 -1.000000 0.000000
    outer loop
      vertex -1.270000 -4.750000 -0.000000
      vertex -0.990000 -4.750000 -0.000000
      vertex -1.017729 -4.750000 0.121487
    endloop
  endfacet
  facet normal -0.974928 -0.000000 -0.222521
    outer loop
      vertex -1.017729 -4.750000 0.121487
      vertex -0.990000 -4.750000 -0.000000
      vertex -0.990000 -15.250000 0.000000
    endloop
  endfacet
  facet normal -0.974928 -0.000000 -0.222521
    outer loop
      vertex -1.017729 -4.750000 0.121487
      vertex -0.990000 -15.250000 0.000000
      vertex -1.017729 -15.250000 0.121487
    endloop
  endfacet
  facet normal 0.000000 1.000000 0.000000
    outer loop
      vertex 1.270000 -15.250000 0.000000
      vertex 1.550000 -15.250000 0.000000
      vertex 1.522271 -15.250000 -0.121487
    endloop
  endfacet
  facet normal 0.000000 -1.000000 0.000000
    outer loop
      vertex 1.270000 -4.750000 -0.000000
      vertex 1.522271 -4.750000 -0.121487
      vertex 1.550000 -4.750000 -0.000000
    endloop
  endfacet
  facet normal -0.974928 0.000000 0.222521
    outer loop
      vertex 1.550000 -4.750000 -0.000000
      vertex 1.522271 -4.750000 -0.121487
      vertex 1.522271 -15.250000 -0.121487
    endloop
  endfacet
  facet normal -0.974928 0.000000 0.222521
    outer loop
      vertex 1.550000 -4.750000 -0.000000
      vertex 1.522271 -15.250000 -0.121487
      vertex 1.550000 -15.250000 0.000000
    endloop
  endfacet
  facet normal 0.000000 1.000000 0.000000
    outer loop
      vertex 1.270000 -15.250000 0.000000
      vertex 1.522271 -15.250000 -0.121487
      vertex 1.444577 -15.250000 -0.218913
    endloop
  endfacet
  facet normal 0.000000 -1.000000 0.000000
    outer loop
      vertex 1.270000 -4.750000 -0.000000
      vertex 1.444577 -4.750000 -0.218913
      vertex 1.522271 -4.750000 -0.121487
    endloop
  endfacet
  facet normal -0.781831 0.000000 0.623490
    outer loop
      vertex 1.522271 -4.750000 -0.121487
      vertex 1.444577 -4.750000 -0.218913
      vertex 1.444577 -15.250000 -0.218913
    endloop
  endfacet
  facet normal -0.781831 0.000000 0.623490
    outer loop
      vertex 1.522271 -4.750000 -0.121487
      vertex 1.444577 -15.250000 -0.218913
      vertex 1.522271 -15.250000 -0.121487
    endloop
  endfacet
  facet normal 0.000000 1.000000 0.000000
    outer loop
      vertex 1.270000 -15.250000 0.000000
      vertex 1.444577 -15.250000 -0.218913
      vertex 1.332306 -15.250000 -0.272980
    endloop
  endfacet
  facet normal 0.000000 -1.000000 0.000000
    outer loop
      vertex 1.270000 -4.750000 -0.000000
      vertex 1.332306 -4.750000 -0.272980
      vertex 1.444577 -4.750000 -0.218913
    endloop
  endfacet
  facet normal -0.433884 0.000000 0.900969
    outer loop
      vertex 1.444577 -4.750000 -0.218913
      vertex 1.332306 -4.750000 -0.272980
      vertex 1.332306 -15.250000 -0.272980
    endloop
  endfacet
  facet normal -0.433884 0.000000 0.900969
    outer loop
      vertex 1.444577 -4.750000 -0.218913
      vertex 1.332306 -15.250000 -0.272980
      vertex 1.444577 -15.250000 -0.218913
    endloop
  endfacet
  facet normal 0.000000 1.000000 0.000000
    outer loop
      vertex 1.270000 -15.250000 0.000000
      vertex 1.332306 -15.250000 -0.272980
      vertex 1.207694 -15.250000 -0.272980
    endloop
  endfacet
  facet normal 0.000000 -1.000000 0.000000
    outer loop
      vertex 1.270000 -4.750000 -0.000000
      vertex 1.207694 -4.750000 -0.272980
      vertex 1.332306 -4.750000 -0.272980
    endloop
  endfacet
  facet normal 0.000000 0.000000 1.000000
    outer loop
      vertex 1.332306 -4.750000 -0.272980
      vertex 1.207694 -4.750000 -0.272980
      vertex 1.207694 -15.250000 -0.272980
    endloop
  endfacet
  facet normal 0.000000 0.000000 1.000000
    outer loop
      vertex 1.332306 -4.750000 -0.272980
      vertex 1.207694 -15.250000 -0.272980
      vertex 1.332306 -15.250000 -0.272980
    endloop
  endfacet
  facet normal 0.000000 1.000000 0.000000
    outer loop
      vertex 1.270000 -15.250000 0.000000
      vertex 1.207694 -15.250000 -0.272980
      vertex 1.095423 -15.250000 -0.218913
    endloop
  endfacet
  facet normal 0.000000 -1.000000 0.000000
    outer loop
      vertex 1.270000 -4.750000 -0.000000
      vertex 1.095423 -4.750000 -0.218913
      vertex 1.207694 -4.750000 -0.272980
    endloop
  endfacet
  facet normal 0.433884 0.000000 0.900969
    outer loop
      vertex 1.207694 -4.750000 -0.272980
      vertex 1.095423 -4.750000 -0.218913
      vertex 1.095423 -15.250000 -0.218913
    endloop
  endfacet
  facet normal 0.433884 0.000000 0.900969
    outer loop
      vertex 1.207694 -4.750000 -0.272980
      vertex 1.095423 -15.250000 -0.218913
      vertex 1.207694 -15.250000 -0.272980
    endloop
  endfacet
  facet normal 0.000000 1.000000 0.000000
    outer loop
      vertex 1.270000 -15.250000 0.000000
      vertex 1.095423 -15.250000 -0.218913
      vertex 1.017729 -15.250000 -0.121487
    endloop
  endfacet
  facet normal 0.000000 -1.000000 0.000000
    outer loop
      vertex 1.270000 -4.750000 -0.000000
      vertex 1.017729 -4.750000 -0.121487
      vertex 1.095423 -4.750000 -0.218913
    endloop
  endfacet
  facet normal 0.781831 0.000000 0.623490
    outer loop
      vertex 1.095423 -4.750000 -0.218913
      vertex 1.017729 -4.750000 -0.121487
      vertex 1.017729 -15.250000 -0.121487
    endloop
  endfacet
  facet normal 0.781831 0.000000 0.623490
    outer loop
      vertex 1.095423 -4.750000 -0.218913
      vertex 1.017729 -15.250000 -0.121487
      vertex 1.095423 -15.250000 -0.218913
    endloop
  endfacet
  facet normal 0.000000 1.000000 0.000000
    outer loop
      vertex 1.270000 -15.250000 0.000000
      vertex 1.017729 -15.250000 -0.121487
      vertex 0.990000 -15.250000 0.000000
    endloop
  endfacet
  facet normal 0.000000 -1.000000 0.000000
    outer loop
      vertex 1.270000 -4.750000 -0.000000
      vertex 0.990000 -4.750000 -0.000000
      vertex 1.017729 -4.750000 -0.121487
    endloop
  endfacet
  facet normal 0.974928 0.000000 0.222521
    outer loop
      vertex 1.017729 -4.750000 -0.121487
      vertex 0.990000 -4.750000 -0.000000
      vertex 0.990000 -15.250000 0.000000
    endloop
  endfacet
  facet normal 0.974928 0.000000 0.222521
    outer loop
      vertex 1.017729 -4.750000 -0.121487
      vertex 0.990000 -15.250000 0.000000
      vertex 1.017729 -15.250000 -0.121487
    endloop
  endfacet
  facet normal 0.000000 1.000000 0.000000
    outer loop
      vertex 1.270000 -15.250000 0.000000
      vertex 0.990000 -15.250000 0.000000
      vertex 1.017729 -15.250000 0.121487
    endloop
  endfacet
  facet normal 0.000000 -1.000000 0.000000
    outer loop
      vertex 1.270000 -4.750000 -0.000000
      vertex 1.017729 -4.750000 0.121487
      vertex 0.990000 -4.750000 -0.000000
    endloop
  endfacet
  facet normal 0.974928 -0.000000 -0.222521
    outer loop
      vertex 0.990000 -4.750000 -0.000000
      vertex 1.017729 -4.750000 0.121487
      vertex 1.017729 -15.250000 0.121487
    endloop
  endfacet
  facet normal 0.974928 -0.000000 -0.222521
    outer loop
      vertex 0.990000 -4.750000 -0.000000
      vertex 1.017729 -15.250000 0.121487
      vertex 0.990000 -15.250000 0.000000
    endloop
  endfacet
  facet normal 0.000000 1.000000 0.000000
    outer loop
      vertex 1.270000 -15.250000 0.000000
      vertex 1.017729 -15.250000 0.121487
      vertex 1.095423 -15.250000 0.218913
    endloop
  endfacet
  facet normal 0.000000 -1.000000 0.000000
    outer loop
      vertex 1.270000 -4.750000 -0.000000
      vertex 1.095423 -4.750000 0.218913
      vertex 1.017729 -4.750000 0.121487
    endloop
  endfacet
  facet normal 0.781831 -0.000000 -0.623490
    outer loop
      vertex 1.017729 -4.750000 0.121487
      vertex 1.095423 -4.750000 0.218913
      vertex 1.095423 -15.250000 0.218913
    endloop
  endfacet
  facet normal 0.781831 -0.000000 -0.623490
    outer loop
      vertex 1.017729 -4.750000 0.121487
      vertex 1.095423 -15.250000 0.218913
      vertex 1.017729 -15.250000 0.121487
    endloop
  endfacet
  facet normal 0.000000 1.000000 0.000000
    outer loop
      vertex 1.270000 -15.250000 0.000000
      vertex 1.095423 -15.250000 0.218913
      vertex 1.207694 -15.250000 0.272980
    endloop
  endfacet
  facet normal 0.000000 -1.000000 0.000000
    outer loop
      vertex 1.270000 -4.750000 -0.000000
      vertex 1.207694 -4.750000 0.272980
      vertex 1.095423 -4.750000 0.218913
    endloop
  endfacet
  facet normal 0.433884 -0.000000 -0.900969
    outer loop
      vertex 1.095423 -4.750000 0.218913
      vertex 1.207694 -4.750000 0.272980
      vertex 1.207694 -15.250000 0.272980
    endloop
  endfacet
  facet normal 0.433884 -0.000000 -0.900969
    outer loop
      vertex 1.095423 -4.750000 0.218913
      vertex 1.207694 -15.250000 0.272980
      vertex 1.095423 -15.250000 0.218913
    endloop
  endfacet
  facet normal 0.000000 1.000000 0.000000
    outer loop
      vertex 1.270000 -15.250000 0.000000
      vertex 1.207694 -15.250000 0.272980
      vertex 1.332306 -15.250000 0.272980
    endloop
  endfacet
  facet normal 0.000000 -1.000000 0.000000
    outer loop
      vertex 1.270000 -4.750000 -0.000000
      vertex 1.332306 -4.750000 0.272980
      vertex 1.207694 -4.750000 0.272980
    endloop
  endfacet
  facet normal 0.000000 -0.000000 -1.000000
    outer loop
      vertex 1.207694 -4.750000 0.272980
      vertex 1.332306 -4.750000 0.272980
      vertex 1.332306 -15.250000 0.272980
    endloop
  endfacet
  facet normal 0.000000 -0.000000 -1.000000
    outer loop
      vertex 1.207694 -4.750000 0.272980
      vertex 1.332306 -15.250000 0.272980
      vertex 1.207694 -15.250000 0.272980
    endloop
  endfacet
  facet normal 0.000000 1.000000 0.000000
    outer loop
      vertex 1.270000 -15.250000 0.000000
      vertex 1.332306 -15.250000 0.272980
      vertex 1.444577 -15.250000 0.218913
    endloop
  endfacet
  facet normal 0.000000 -1.000000 0.000000
    outer loop
      vertex 1.270000 -4.750000 -0.000000
      vertex 1.444577 -4.750000 0.218913
      vertex 1.332306 -4.750000 0.272980
    endloop
  endfacet
  facet normal -0.433884 -0.000000 -0.900969
    outer loop
      vertex 1.332306 -4.750000 0.272980
      vertex 1.444577 -4.750000 0.218913
      vertex 1.444577 -15.250000 0.218913
    endloop
  endfacet
  facet normal -0.433884 -0.000000 -0.900969
    outer loop
      vertex 1.332306 -4.750000 0.272980
      vertex 1.444577 -15.250000 0.218913
      vertex 1.332306 -15.250000 0.272980
    endloop
  endfacet
  facet normal 0.000000 1.000000 0.000000
    outer loop
      vertex 1.270000 -15.250000 0.000000
      vertex 1.444577 -15.250000 0.218913
      vertex 1.522271 -15.250000 0.121487
    endloop
  endfacet
  facet normal 0.000000 -1.000000 0.000000
    outer loop
      vertex 1.270000 -4.750000 -0.000000
      vertex 1.522271 -4.750000 0.121487
      vertex 1.444577 -4.750000 0.218913
    endloop
  endfacet
  facet normal -0.781831 -0.000000 -0.623490
    outer loop
      vertex 1.444577 -4.750000 0.218913
      vertex 1.522271 -4.750000 0.121487
      vertex 1.522271 -15.250000 0.121487
    endloop
  endfacet
  facet normal -0.781831 -0.000000 -0.623490
    outer loop
      vertex 1.444577 -4.750000 0.218913
      vertex 1.522271 -15.250000 0.121487
      vertex 1.444577 -15.250000 0.218913
    endloop
  endfacet
  facet normal 0.000000 1.000000 0.000000
    outer loop
      vertex 1.270000 -15.250000 0.000000
      vertex 1.522271 -15.250000 0.121487
      vertex 1.550000 -15.250000 0.000000
    endloop
  endfacet
  facet normal 0.000000 -1.000000 0.000000
    outer loop
      vertex 1.270000 -4.750000 -0.000000
      vertex 1.550000 -4.750000 -0.000000
      vertex 1.522271 -4.750000 0.121487
    endloop
  endfacet
  facet normal -0.974928 -0.000000 -0.222521
    outer loop
      vertex 1.522271 -4.750000 0.121487
      vertex 1.550000 -4.750000 -0.000000
      vertex 1.550000 -15.250000 0.000000
    endloop
  endfacet
  facet normal -0.974928 -0.000000 -0.222521
    outer loop
      vertex 1.522271 -4.750000 0.121487
      vertex 1.550000 -15.250000 0.000000
      vertex 1.522271 -15.250000 0.121487
    endloop
  endfacet
  facet normal 0.000000 -1.000000 0.000000
    outer loop
      vertex 0.000000 4.750000 0.000000
      vertex 6.000000 4.750000 0.000000
      vertex 5.795555 4.750000 1.552914
    endloop
  endfacet
  facet normal 0.000000 1.000000 0.000000
    outer loop
      vertex 0.000000 -4.750000 0.000000
      vertex 5.795555 -4.750000 1.552914
      vertex 6.000000 -4.750000 0.000000
    endloop
  endfacet
  facet normal -0.991445 0.000000 -0.130526
    outer loop
      vertex 6.000000 -4.750000 0.000000
      vertex 5.795555 -4.750000 1.552914
      vertex 5.795555 4.750000 1.552914
    endloop
  endfacet
  facet normal -0.991445 0.000000 -0.130526
    outer loop
      vertex 6.000000 -4.750000 0.000000
      vertex 5.795555 4.750000 1.552914
      vertex 6.000000 4.750000 0.000000
    endloop
  endfacet
  facet normal 0.000000 -1.000000 0.000000
    outer loop
      vertex 0.000000 4.750000 0.000000
      vertex 5.795555 4.750000 1.552914
      vertex 5.196152 4.750000 3.000000
    endloop
  endfacet
  facet normal 0.000000 1.000000 0.000000
    outer loop
      vertex 0.000000 -4.750000 0.000000
      vertex 5.196152 -4.750000 3.000000
      vertex 5.795555 -4.750000 1.552914
    endloop
  endfacet
  facet normal -0.923880 0.000000 -0.382683
    outer loop
      vertex 5.795555 -4.750000 1.552914
      vertex 5.196152 -4.750000 3.000000
      vertex 5.196152 4.750000 3.000000
    endloop
  endfacet
  facet normal -0.923880 0.000000 -0.382683
    outer loop
      vertex 5.795555 -4.750000 1.552914
      vertex 5.196152 4.750000 3.000000
      vertex 5.795555 4.750000 1.552914
    endloop
  endfacet
  facet normal 0.000000 -1.000000 0.000000
    outer loop
      vertex 0.000000 4.750000 0.000000
      vertex 5.196152 4.750000 3.000000
      vertex 4.242641 4.750000 4.242641
    endloop
  endfacet
  facet normal 0.000000 1.000000 0.000000
    outer loop
      vertex 0.000000 -4.750000 0.000000
      vertex 4.242641 -4.750000 4.242641
      vertex 5.196152 -4.750000 3.000000
    endloop
  endfacet
  facet normal -0.793353 0.000000 -0.608761
    outer loop
      vertex 5.196152 -4.750000 3.000000
      vertex 4.242641 -4.750000 4.242641
      vertex 4.242641 4.750000 4.242641
    endloop
  endfacet
  facet normal -0.793353 0.000000 -0.608761
    outer loop
      vertex 5.196152 -4.750000 3.000000
      vertex 4.242641 4.750000 4.242641
      vertex 5.196152 4.750000 3.000000
    endloop
  endfacet
  facet normal 0.000000 -1.000000 0.000000
    outer loop
      vertex 0.000000 4.750000 0.000000
      vertex 4.242641 4.750000 4.242641
      vertex 3.000000 4.750000 5.196152
    endloop
  endfacet
  facet normal 0.000000 1.000000 0.000000
    outer loop
      vertex 0.000000 -4.750000 0.000000
      vertex 3.000000 -4.750000 5.196152
      vertex 4.242641 -4.750000 4.242641
    endloop
  endfacet
  facet normal -0.608761 0.000000 -0.793353
    outer loop
      vertex 4.242641 -4.750000 4.242641
      vertex 3.000000 -4.750000 5.196152
      vertex 3.000000 4.750000 5.196152
    endloop
  endfacet
  facet normal -0.608761 0.000000 -0.793353
    outer loop
      vertex 4.242641 -4.750000 4.242641
      vertex 3.000000 4.750000 5.196152
      vertex 4.242641 4.750000 4.242641
    endloop
  endfacet
  facet normal 0.000000 -1.000000 0.000000
    outer loop
      vertex 0.000000 4.750000 0.000000
      vertex 3.000000 4.750000 5.196152
      vertex 1.552914 4.750000 5.795555
    endloop
  endfacet
  facet normal 0.000000 1.000000 0.000000
    outer loop
      vertex 0.000000 -4.750000 0.000000
      vertex 1.552914 -4.750000 5.795555
      vertex 3.000000 -4.750000 5.196152
    endloop
  endfacet
  facet normal -0.382683 0.000000 -0.923880
    outer loop
      vertex 3.000000 -4.750000 5.196152
      vertex 1.552914 -4.750000 5.795555
      vertex 1.552914 4.750000 5.795555
    endloop
  endfacet
  facet normal -0.382683 0.000000 -0.923880
    outer loop
      vertex 3.000000 -4.750000 5.196152
      vertex 1.552914 4.750000 5.795555
      vertex 3.000000 4.750000 5.196152
    endloop
  endfacet
  facet normal 0.000000 -1.000000 0.000000
    outer loop
      vertex 0.000000 4.750000 0.000000
      vertex 1.552914 4.750000 5.795555
      vertex 0.000000 4.750000 6.000000
    endloop
  endfacet
  facet normal 0.000000 1.000000 0.000000
    outer loop
      vertex 0.000000 -4.750000 0.000000
      vertex 0.000000 -4.750000 6.000000
      vertex 1.552914 -4.750000 5.795555
    endloop
  endfacet
  facet normal -0.130526 0.000000 -0.991445
    outer loop
      vertex 1.552914 -4.750000 5.795555
      vertex 0.000000 -4.750000 6.000000
      vertex 0.000000 4.750000 6.000000
    endloop
  endfacet
  facet normal -0.130526 0.000000 -0.991445
    outer loop
      vertex 1.552914 -4.750000 5.795555
      vertex 0.000000 4.750000 6.000000
      vertex 1.552914 4.750000 5.795555
    endloop
  endfacet
  facet normal 0.000000 -1.000000 0.000000
    outer loop
      vertex 0.000000 4.750000 0.000000
      vertex 0.000000 4.750000 6.000000
      vertex -1.552914 4.750000 5.795555
    endloop
  endfacet
  facet normal 0.000000 1.000000 0.000000
    outer loop
      vertex 0.000000 -4.750000 0.000000
      vertex -1.552914 -4.750000 5.795555
      vertex 0.000000 -4.750000 6.000000
    endloop
  endfacet
  facet normal 0.130526 0.000000 -0.991445
    outer loop
      vertex 0.000000 -4.750000 6.000000
      vertex -1.552914 -4.750000 5.795555
      vertex -1.552914 4.750000 5.795555
    endloop
  endfacet
  facet normal 0.130526 0.000000 -0.991445
    outer loop
      vertex 0.000000 -4.750000 6.000000
      vertex -1.552914 4.750000 5.795555
      vertex 0.000000 4.750000 6.000000
    endloop
  endfacet
  facet normal 0.000000 -1.000000 0.000000
    outer loop
      vertex 0.000000 4.750000 0.000000
      vertex -1.552914 4.750000 5.795555
      vertex -3.000000 4.750000 5.196152
    endloop
  endfacet
  facet normal 0.000000 1.000000 0.000000
    outer loop
      vertex 0.000000 -4.750000 0.000000
      vertex -3.000000 -4.750000 5.196152
      vertex -1.552914 -4.750000 5.795555
    endloop
  endfacet
  facet normal 0.382683 0.000000 -0.923880
    outer loop
      vertex -1.552914 -4.750000 5.795555
      vertex -3.000000 -4.750000 5.196152
      vertex -3.000000 4.750000 5.196152
    endloop
  endfacet
  facet normal 0.382683 0.000000 -0.923880
    outer loop
      vertex -1.552914 -4.750000 5.795555
      vertex -3.000000 4.750000 5.196152
      vertex -1.552914 4.750000 5.795555
    endloop
  endfacet
  facet normal 0.000000 -1.000000 0.000000
    outer loop
      vertex 0.000000 4.750000 0.000000
      vertex -3.000000 4.750000 5.196152
      vertex -4.242641 4.750000 4.242641
    endloop
  endfacet
  facet normal 0.000000 1.000000 0.000000
    outer loop
      vertex 0.000000 -4.750000 0.000000
      vertex -4.242641 -4.750000 4.242641
      vertex -3.000000 -4.750000 5.196152
    endloop
  endfacet
  facet normal 0.608761 0.000000 -0.793353
    outer loop
      vertex -3.000000 -4.750000 5.196152
      vertex -4.242641 -4.750000 4.242641
      vertex -4.242641 4.750000 4.242641
    endloop
  endfacet
  facet normal 0.608761 0.000000 -0.793353
    outer loop
      vertex -3.000000 -4.750000 5.196152
      vertex -4.242641 4.750000 4.242641
      vertex -3.000000 4.750000 5.196152
    endloop
  endfacet
  facet normal 0.000000 -1.000000 0.000000
    outer loop
      vertex 0.000000 4.750000 0.000000
      vertex -4.242641 4.750000 4.242641
      vertex -5.196152 4.750000 3.000000
    endloop
  endfacet
  facet normal 0.000000 1.000000 0.000000
    outer loop
      vertex 0.000000 -4.750000 0.000000
      vertex -5.196152 -4.750000 3.000000
      vertex -4.242641 -4.750000 4.242641
    endloop
  endfacet
  facet normal 0.793353 0.000000 -0.608761
    outer loop
      vertex -4.242641 -4.750000 4.242641
      vertex -5.196152 -4.750000 3.000000
      vertex -5.196152 4.750000 3.000000
    endloop
  endfacet
  facet normal 0.793353 0.000000 -0.608761
    outer loop
      vertex -4.242641 -4.750000 4.242641
      vertex -5.196152 4.750000 3.000000
      vertex -4.242641 4.750000 4.242641
    endloop
  endfacet
  facet normal 0.000000 -1.000000 0.000000
    outer loop
      vertex 0.000000 4.750000 0.000000
      vertex -5.196152 4.750000 3.000000
      vertex -5.795555 4.750000 1.552914
    endloop
  endfacet
  facet normal 0.000000 1.000000 0.000000
    outer loop
      vertex 0.000000 -4.750000 0.000000
      vertex -5.795555 -4.750000 1.552914
      vertex -5.196152 -4.750000 3.000000
    endloop
  endfacet
  facet normal 0.923880 0.000000 -0.382683
    outer loop
      vertex -5.196152 -4.750000 3.000000
      vertex -5.795555 -4.750000 1.552914
      vertex -5.795555 4.750000 1.552914
    endloop
  endfacet
  facet normal 0.923880 0.000000 -0.382683
    outer loop
      vertex -5.196152 -4.750000 3.000000
      vertex -5.795555 4.750000 1.552914
      vertex -5.196152 4.750000 3.000000
    endloop
  endfacet
  facet normal 0.000000 -1.000000 0.000000
    outer loop
      vertex 0.000000 4.750000 0.000000
      vertex -5.795555 4.750000 1.552914
      vertex -6.000000 4.750000 0.000000
    endloop
  endfacet
  facet normal 0.000000 1.000000 0.000000
    outer loop
      vertex 0.000000 -4.750000 0.000000
      vertex -6.000000 -4.750000 0.000000
      vertex -5.795555 -4.750000 1.552914
    endloop
  endfacet
  facet normal 0.991445 0.000000 -0.130526
    outer loop
      vertex -5.795555 -4.750000 1.552914
      vertex -6.000000 -4.750000 0.000000
      vertex -6.000000 4.750000 0.000000
    endloop
  endfacet
  facet normal 0.991445 0.000000 -0.130526
    outer loop
      vertex -5.795555 -4.750000 1.552914
      vertex -6.000000 4.750000 0.000000
      vertex -5.795555 4.750000 1.552914
    endloop
  endfacet
  facet normal 0.000000 -1.000000 0.000000
    outer loop
      vertex 0.000000 4.750000 0.000000
      vertex -6.000000 4.750000 0.000000
      vertex -5.795555 4.750000 -1.552914
    endloop
  endfacet
  facet normal 0.000000 1.000000 0.000000
    outer loop
      vertex 0.000000 -4.750000 0.000000
      vertex -5.795555 -4.750000 -1.552914
      vertex -6.000000 -4.750000 0.000000
    endloop
  endfacet
  facet normal 0.991445 0.000000 0.130526
    outer loop
      vertex -6.000000 -4.750000 0.000000
      vertex -5.795555 -4.750000 -1.552914
      vertex -5.795555 4.750000 -1.552914
    endloop
  endfacet
  facet normal 0.991445 0.000000 0.130526
    outer loop
      vertex -6.000000 -4.750000 0.000000
      vertex -5.795555 4.750000 -1.552914
      vertex -6.000000 4.750000 0.000000
    endloop
  endfacet
  facet normal 0.000000 -1.000000 0.000000
    outer loop
      vertex 0.000000 4.750000 0.000000
      vertex -5.795555 4.750000 -1.552914
      vertex -5.196152 4.750000 -3.000000
    endloop
  endfacet
  facet normal 0.000000 1.000000 0.000000
    outer loop
      vertex 0.000000 -4.750000 0.000000
      vertex -5.196152 -4.750000 -3.000000
      vertex -5.795555 -4.750000 -1.552914
    endloop
  endfacet
  facet normal 0.923880 0.000000 0.382683
    outer loop
      vertex -5.795555 -4.750000 -1.552914
      vertex -5.196152 -4.750000 -3.000000
      vertex -5.196152 4.750000 -3.000000
    endloop
  endfacet
  facet normal 0.923880 0.000000 0.382683
    outer loop
      vertex -5.795555 -4.750000 -1.552914
      vertex -5.196152 4.750000 -3.000000
      vertex -5.795555 4.750000 -1.552914
    endloop
  endfacet
  facet normal 0.000000 -1.000000 0.000000
    outer loop
      vertex 0.000000 4.750000 0.000000
      vertex -5.196152 4.750000 -3.000000
      vertex -4.242641 4.750000 -4.242641
    endloop
  endfacet
  facet normal 0.000000 1.000000 0.000000
    outer loop
      vertex 0.000000 -4.750000 0.000000
      vertex -4.242641 -4.750000 -4.242641
      vertex -5.196152 -4.750000 -3.000000
    endloop
  endfacet
  facet normal 0.793353 0.000000 0.608761
    outer loop
      vertex -5.196152 -4.750000 -3.000000
      vertex -4.242641 -4.750000 -4.242641
      vertex -4.242641 4.750000 -4.242641
    endloop
  endfacet
  facet normal 0.793353 0.000000 0.608761
    outer loop
      vertex -5.196152 -4.750000 -3.000000
      vertex -4.242641 4.750000 -4.242641
      vertex -5.196152 4.750000 -3.000000
    endloop
  endfacet
  facet normal 0.000000 -1.000000 0.000000
    outer loop
      vertex 0.000000 4.750000 0.000000
      vertex -4.242641 4.750000 -4.242641
      vertex -3.000000 4.750000 -5.196152
    endloop
  endfacet
  facet normal 0.000000 1.000000 0.000000
    outer loop
      vertex 0.000000 -4.750000 0.000000
      vertex -3.000000 -4.750000 -5.196152
      vertex -4.242641 -4.750000 -4.242641
    endloop
  endfacet
  facet normal 0.608761 0.000000 0.793353
    outer loop
      vertex -4.242641 -4.750000 -4.242641
      vertex -3.000000 -4.750000 -5.196152
      vertex -3.000000 4.750000 -5.196152
    endloop
  endfacet
  facet normal 0.608761 0.000000 0.793353
    outer loop
      vertex -4.242641 -4.750000 -4.242641
      vertex -3.000000 4.750000 -5.196152
      vertex -4.242641 4.750000 -4.242641
    endloop
  endfacet
  facet normal 0.000000 -1.000000 0.000000
    outer loop
      vertex 0.000000 4.750000 0.000000
      vertex -3.000000 4.750000 -5.196152
      vertex -1.552914 4.750000 -5.795555
    endloop
  endfacet
  facet normal 0.000000 1.000000 0.000000
    outer loop
      vertex 0.000000 -4.750000 0.000000
      vertex -1.552914 -4.750000 -5.795555
      vertex -3.000000 -4.750000 -5.196152
    endloop
  endfacet
  facet normal 0.382683 0.000000 0.923880
    outer loop
      vertex -3.000000 -4.750000 -5.196152
      vertex -1.552914 -4.750000 -5.795555
      vertex -1.552914 4.750000 -5.795555
    endloop
  endfacet
  facet normal 0.382683 0.000000 0.923880
    outer loop
      vertex -3.000000 -4.750000 -5.196152
      vertex -1.552914 4.750000 -5.795555
      vertex -3.000000 4.750000 -5.196152
    endloop
  endfacet
  facet normal 0.000000 -1.000000 0.000000
    outer loop
      vertex 0.000000 4.750000 0.000000
      vertex -1.552914 4.750000 -5.795555
      vertex -0.000000 4.750000 -6.000000
    endloop
  endfacet
  facet normal 0.000000 1.000000 0.000000
    outer loop
      vertex 0.000000 -4.750000 0.000000
      vertex -0.000000 -4.750000 -6.000000
      vertex -1.552914 -4.750000 -5.795555
    endloop
  endfacet
  facet normal 0.130526 0.000000 0.991445
    outer loop
      vertex -1.552914 -4.750000 -5.795555
      vertex -0.000000 -4.750000 -6.000000
      vertex -0.000000 4.750000 -6.000000
    endloop
  endfacet
  facet normal 0.130526 0.000000 0.991445
    outer loop
      vertex -1.552914 -4.750000 -5.795555
      vertex -0.000000 4.750000 -6.000000
      vertex -1.552914 4.750000 -5.795555
    endloop
  endfacet
  facet normal 0.000000 -1.000000 0.000000
    outer loop
      vertex 0.000000 4.750000 0.000000
      vertex -0.000000 4.750000 -6.000000
      vertex 1.552914 4.750000 -5.795555
    endloop
  endfacet
  facet normal 0.000000 1.000000 0.000000
    outer loop
      vertex 0.000000 -4.750000 0.000000
      vertex 1.552914 -4.750000 -5.795555
      vertex -0.000000 -4.750000 -6.000000
    endloop
  endfacet
  facet normal -0.130526 0.000000 0.991445
    outer loop
      vertex -0.000000 -4.750000 -6.000000
      vertex 1.552914 -4.750000 -5.795555
      vertex 1.552914 4.750000 -5.795555
    endloop
  endfacet
  facet normal -0.130526 0.000000 0.991445
    outer loop
      vertex -0.000000 -4.750000 -6.000000
      vertex 1.552914 4.750000 -5.795555
      vertex -0.000000 4.750000 -6.000000
    endloop
  endfacet
  facet normal 0.000000 -1.000000 0.000000
    outer loop
      vertex 0.000000 4.750000 0.000000
      vertex 1.552914 4.750000 -5.795555
      vertex 3.000000 4.750000 -5.196152
    endloop
  endfacet
  facet normal 0.000000 1.000000 0.000000
    outer loop
      vertex 0.000000 -4.750000 0.000000
      vertex 3.000000 -4.750000 -5.196152
      vertex 1.552914 -4.750000 -5.795555
    endloop
  endfacet
  facet normal -0.382683 0.000000 0.923880
    outer loop
      vertex 1.552914 -4.750000 -5.795555
      vertex 3.000000 -4.750000 -5.196152
      vertex 3.000000 4.750000 -5.196152
    endloop
  endfacet
  facet normal -0.382683 0.000000 0.923880
    outer loop
      vertex 1.552914 -4.750000 -5.795555
      vertex 3.000000 4.750000 -5.196152
      vertex 1.552914 4.750000 -5.795555
    endloop
  endfacet
  facet normal 0.000000 -1.000000 0.000000
    outer loop
      vertex 0.000000 4.750000 0.000000
      vertex 3.000000 4.750000 -5.196152
      vertex 4.242641 4.750000 -4.242641
    endloop
  endfacet
  facet normal 0.000000 1.000000 0.000000
    outer loop
      vertex 0.000000 -4.750000 0.000000
      vertex 4.242641 -4.750000 -4.242641
      vertex 3.000000 -4.750000 -5.196152
    endloop
  endfacet
  facet normal -0.608761 0.000000 0.793353
    outer loop
      vertex 3.000000 -4.750000 -5.196152
      vertex 4.242641 -4.750000 -4.242641
      vertex 4.242641 4.750000 -4.242641
    endloop
  endfacet
  facet normal -0.608761 0.000000 0.793353
    outer loop
      vertex 3.000000 -4.750000 -5.196152
      vertex 4.242641 4.750000 -4.242641
      vertex 3.000000 4.750000 -5.196152
    endloop
  endfacet
  facet normal 0.000000 -1.000000 0.000000
    outer loop
      vertex 0.000000 4.750000 0.000000
      vertex 4.242641 4.750000 -4.242641
      vertex 5.196152 4.750000 -3.000000
    endloop
  endfacet
  facet normal 0.000000 1.000000 0.000000
    outer loop
      vertex 0.000000 -4.750000 0.000000
      vertex 5.196152 -4.750000 -3.000000
      vertex 4.242641 -4.750000 -4.242641
    endloop
  endfacet
  facet normal -0.793353 0.000000 0.608761
    outer loop
      vertex 4.242641 -4.750000 -4.242641
      vertex 5.196152 -4.750000 -3.000000
      vertex 5.196152 4.750000 -3.000000
    endloop
  endfacet
  facet normal -0.793353 0.000000 0.608761
    outer loop
      vertex 4.242641 -4.750000 -4.242641
      vertex 5.196152 4.750000 -3.000000
      vertex 4.242641 4.750000 -4.242641
    endloop
  endfacet
  facet normal 0.000000 -1.000000 0.000000
    outer loop
      vertex 0.000000 4.750000 0.000000
      vertex 5.196152 4.750000 -3.000000
      vertex 5.795555 4.750000 -1.552914
    endloop
  endfacet
  facet normal 0.000000 1.000000 0.000000
    outer loop
      vertex 0.000000 -4.750000 0.000000
      vertex 5.795555 -4.750000 -1.552914
      vertex 5.196152 -4.750000 -3.000000
    endloop
  endfacet
  facet normal -0.923880 0.000000 0.382683
    outer loop
      vertex 5.196152 -4.750000 -3.000000
      vertex 5.795555 -4.750000 -1.552914
      vertex 5.795555 4.750000 -1.552914
    endloop
  endfacet
  facet normal -0.923880 0.000000 0.382683
    outer loop
      vertex 5.196152 -4.750000 -3.000000
      vertex 5.795555 4.750000 -1.552914
      vertex 5.196152 4.750000 -3.000000
    endloop
  endfacet
  facet normal 0.000000 -1.000000 0.000000
    outer loop
      vertex 0.000000 4.750000 0.000000
      vertex 5.795555 4.750000 -1.552914
      vertex 6.000000 4.750000 0.000000
    endloop
  endfacet
  facet normal 0.000000 1.000000 0.000000
    outer loop
      vertex 0.000000 -4.750000 0.000000
      vertex 6.000000 -4.750000 0.000000
      vertex 5.795555 -4.750000 -1.552914
    endloop
  endfacet
  facet normal -0.991445 0.000000 0.130526
    outer loop
      vertex 5.795555 -4.750000 -1.552914
      vertex 6.000000 -4.750000 0.000000
      vertex 6.000000 4.750000 0.000000
    endloop
  endfacet
  facet normal -0.991445 0.000000 0.130526
    outer loop
      vertex 5.795555 -4.750000 -1.552914
      vertex 6.000000 4.750000 0.000000
      vertex 5.795555 4.750000 -1.552914
    endloop
  endfacet
  facet normal 0.000000 -1.000000 0.000000
    outer loop
      vertex 0.000000 5.000000 0.000000
      vertex 1.550000 5.000000 0.000000
      vertex 1.497185 5.000000 0.401170
    endloop
  endfacet
  facet normal 0.000000 1.000000 0.000000
    outer loop
      vertex 0.000000 4.600000 0.000000
      vertex 1.497185 4.600000 0.401170
      vertex 1.550000 4.600000 0.000000
    endloop
  endfacet
  facet normal -0.991445 0.000000 -0.130526
    outer loop
      vertex 1.550000 4.600000 0.000000
      vertex 1.497185 4.600000 0.401170
      vertex 1.497185 5.000000 0.401170
    endloop
  endfacet
  facet normal -0.991445 0.000000 -0.130526
    outer loop
      vertex 1.550000 4.600000 0.000000
      vertex 1.497185 5.000000 0.401170
      vertex 1.550000 5.000000 0.000000
    endloop
  endfacet
  facet normal 0.000000 -1.000000 0.000000
    outer loop
      vertex 0.000000 5.000000 0.000000
      vertex 1.497185 5.000000 0.401170
      vertex 1.342339 5.000000 0.775000
    endloop
  endfacet
  facet normal 0.000000 1.000000 0.000000
    outer loop
      vertex 0.000000 4.600000 0.000000
      vertex 1.342339 4.600000 0.775000
      vertex 1.497185 4.600000 0.401170
    endloop
  endfacet
  facet normal -0.923880 0.000000 -0.382683
    outer loop
      vertex 1.497185 4.600000 0.401170
      vertex 1.342339 4.600000 0.775000
      vertex 1.342339 5.000000 0.775000
    endloop
  endfacet
  facet normal -0.923880 0.000000 -0.382683
    outer loop
      vertex 1.497185 4.600000 0.401170
      vertex 1.342339 5.000000 0.775000
      vertex 1.497185 5.000000 0.401170
    endloop
  endfacet
  facet normal 0.000000 -1.000000 0.000000
    outer loop
      vertex 0.000000 5.000000 0.000000
      vertex 1.342339 5.000000 0.775000
      vertex 1.096016 5.000000 1.096016
    endloop
  endfacet
  facet normal 0.000000 1.000000 0.000000
    outer loop
      vertex 0.000000 4.600000 0.000000
      vertex 1.096016 4.600000 1.096016
      vertex 1.342339 4.600000 0.775000
    endloop
  endfacet
  facet normal -0.793353 0.000000 -0.608761
    outer loop
      vertex 1.342339 4.600000 0.775000
      vertex 1.096016 4.600000 1.096016
      vertex 1.096016 5.000000 1.096016
    endloop
  endfacet
  facet normal -0.793353 0.000000 -0.608761
    outer loop
      vertex 1.342339 4.600000 0.775000
      vertex 1.096016 5.000000 1.096016
      vertex 1.342339 5.000000 0.775000
    endloop
  endfacet
  facet normal 0.000000 -1.000000 0.000000
    outer loop
      vertex 0.000000 5.000000 0.000000
      vertex 1.096016 5.000000 1.096016
      vertex 0.775000 5.000000 1.342339
    endloop
  endfacet
  facet normal 0.000000 1.000000 0.000000
    outer loop
      vertex 0.000000 4.600000 0.000000
      vertex 0.775000 4.600000 1.342339
      vertex 1.096016 4.600000 1.096016
    endloop
  endfacet
  facet normal -0.608761 0.000000 -0.793353
    outer loop
      vertex 1.096016 4.600000 1.096016
      vertex 0.775000 4.600000 1.342339
      vertex 0.775000 5.000000 1.342339
    endloop
  endfacet
  facet normal -0.608761 0.000000 -0.793353
    outer loop
      vertex 1.096016 4.600000 1.096016
      vertex 0.775000 5.000000 1.342339
      vertex 1.096016 5.000000 1.096016
    endloop
  endfacet
  facet normal 0.000000 -1.000000 0.000000
    outer loop
      vertex 0.000000 5.000000 0.000000
      vertex 0.775000 5.000000 1.342339
      vertex 0.401170 5.000000 1.497185
    endloop
  endfacet
  facet normal 0.000000 1.000000 0.000000
    outer loop
      vertex 0.000000 4.600000 0.000000
      vertex 0.401170 4.600000 1.497185
      vertex 0.775000 4.600000 1.342339
    endloop
  endfacet
  facet normal -0.382683 0.000000 -0.923880
    outer loop
      vertex 0.775000 4.600000 1.342339
      vertex 0.401170 4.600000 1.497185
      vertex 0.401170 5.000000 1.497185
    endloop
  endfacet
  facet normal -0.382683 0.000000 -0.923880
    outer loop
      vertex 0.775000 4.600000 1.342339
      vertex 0.401170 5.000000 1.497185
      vertex 0.775000 5.000000 1.342339
    endloop
  endfacet
  facet normal 0.000000 -1.000000 0.000000
    outer loop
      vertex 0.000000 5.000000 0.000000
      vertex 0.401170 5.000000 1.497185
      vertex 0.000000 5.000000 1.550000
    endloop
  endfacet
  facet normal 0.000000 1.000000 0.000000
    outer loop
      vertex 0.000000 4.600000 0.000000
      vertex 0.000000 4.600000 1.550000
      vertex 0.401170 4.600000 1.497185
    endloop
  endfacet
  facet normal -0.130526 0.000000 -0.991445
    outer loop
      vertex 0.401170 4.600000 1.497185
      vertex 0.000000 4.600000 1.550000
      vertex 0.000000 5.000000 1.550000
    endloop
  endfacet
  facet normal -0.130526 0.000000 -0.991445
    outer loop
      vertex 0.401170 4.600000 1.497185
      vertex 0.000000 5.000000 1.550000
      vertex 0.401170 5.000000 1.497185
    endloop
  endfacet
  facet normal 0.000000 -1.000000 0.000000
    outer loop
      vertex 0.000000 5.000000 0.000000
      vertex 0.000000 5.000000 1.550000
      vertex -0.401170 5.000000 1.497185
    endloop
  endfacet
  facet normal 0.000000 1.000000 0.000000
    outer loop
      vertex 0.000000 4.600000 0.000000
      vertex -0.401170 4.600000 1.497185
      vertex 0.000000 4.600000 1.550000
    endloop
  endfacet
  facet normal 0.130526 0.000000 -0.991445
    outer loop
      vertex 0.000000 4.600000 1.550000
      vertex -0.401170 4.600000 1.497185
      vertex -0.401170 5.000000 1.497185
    endloop
  endfacet
  facet normal 0.130526 0.000000 -0.991445
    outer loop
      vertex 0.000000 4.600000 1.550000
      vertex -0.401170 5.000000 1.497185
      vertex 0.000000 5.000000 1.550000
    endloop
  endfacet
  facet normal 0.000000 -1.000000 0.000000
    outer loop
      vertex 0.000000 5.000000 0.000000
      vertex -0.401170 5.000000 1.497185
      vertex -0.775000 5.000000 1.342339
    endloop
  endfacet
  facet normal 0.000000 1.000000 0.000000
    outer loop
      vertex 0.000000 4.600000 0.000000
      vertex -0.775000 4.600000 1.342339
      vertex -0.401170 4.600000 1.497185
    endloop
  endfacet
  facet normal 0.382683 0.000000 -0.923880
    outer loop
      vertex -0.401170 4.600000 1.497185
      vertex -0.775000 4.600000 1.342339
      vertex -0.775000 5.000000 1.342339
    endloop
  endfacet
  facet normal 0.382683 0.000000 -0.923880
    outer loop
      vertex -0.401170 4.600000 1.497185
      vertex -0.775000 5.000000 1.342339
      vertex -0.401170 5.000000 1.497185
    endloop
  endfacet
  facet normal 0.000000 -1.000000 0.000000
    outer loop
      vertex 0.000000 5.000000 0.000000
      vertex -0.775000 5.000000 1.342339
      vertex -1.096016 5.000000 1.096016
    endloop
  endfacet
  facet normal 0.000000 1.000000 0.000000
    outer loop
      vertex 0.000000 4.600000 0.000000
      vertex -1.096016 4.600000 1.096016
      vertex -0.775000 4.600000 1.342339
    endloop
  endfacet
  facet normal 0.608761 0.000000 -0.793353
    outer loop
      vertex -0.775000 4.600000 1.342339
      vertex -1.096016 4.600000 1.096016
      vertex -1.096016 5.000000 1.096016
    endloop
  endfacet
  facet normal 0.608761 0.000000 -0.793353
    outer loop
      vertex -0.775000 4.600000 1.342339
      vertex -1.096016 5.000000 1.096016
      vertex -0.775000 5.000000 1.342339
    endloop
  endfacet
  facet normal 0.000000 -1.000000 0.000000
    outer loop
      vertex 0.000000 5.000000 0.000000
      vertex -1.096016 5.000000 1.096016
      vertex -1.342339 5.000000 0.775000
    endloop
  endfacet
  facet normal 0.000000 1.000000 0.000000
    outer loop
      vertex 0.000000 4.600000 0.000000
      vertex -1.342339 4.600000 0.775000
      vertex -1.096016 4.600000 1.096016
    endloop
  endfacet
  facet normal 0.793353 0.000000 -0.608761
    outer loop
      vertex -1.096016 4.600000 1.096016
      vertex -1.342339 4.600000 0.775000
      vertex -1.342339 5.000000 0.775000
    endloop
  endfacet
  facet normal 0.793353 0.000000 -0.608761
    outer loop
      vertex -1.096016 4.600000 1.096016
      vertex -1.342339 5.000000 0.775000
      vertex -1.096016 5.000000 1.096016
    endloop
  endfacet
  facet normal 0.000000 -1.000000 0.000000
    outer loop
      vertex 0.000000 5.000000 0.000000
      vertex -1.342339 5.000000 0.775000
      vertex -1.497185 5.000000 0.401170
    endloop
  endfacet
  facet normal 0.000000 1.000000 0.000000
    outer loop
      vertex 0.000000 4.600000 0.000000
      vertex -1.497185 4.600000 0.401170
      vertex -1.342339 4.600000 0.775000
    endloop
  endfacet
  facet normal 0.923880 0.000000 -0.382683
    outer loop
      vertex -1.342339 4.600000 0.775000
      vertex -1.497185 4.600000 0.401170
      vertex -1.497185 5.000000 0.401170
    endloop
  endfacet
  facet normal 0.923880 0.000000 -0.382683
    outer loop
      vertex -1.342339 4.600000 0.775000
      vertex -1.497185 5.000000 0.401170
      vertex -1.342339 5.000000 0.775000
    endloop
  endfacet
  facet normal 0.000000 -1.000000 0.000000
    outer loop
      vertex 0.000000 5.000000 0.000000
      vertex -1.497185 5.000000 0.401170
      vertex -1.550000 5.000000 0.000000
    endloop
  endfacet
  facet normal 0.000000 1.000000 0.000000
    outer loop
      vertex 0.000000 4.600000 0.000000
      vertex -1.550000 4.600000 0.000000
      vertex -1.497185 4.600000 0.401170
    endloop
  endfacet
  facet normal 0.991445 0.000000 -0.130526
    outer loop
      vertex -1.497185 4.600000 0.401170
      vertex -1.550000 4.600000 0.000000
      vertex -1.550000 5.000000 0.000000
    endloop
  endfacet
  facet normal 0.991445 0.000000 -0.130526
    outer loop
      vertex -1.497185 4.600000 0.401170
      vertex -1.550000 5.000000 0.000000
      vertex -1.497185 5.000000 0.401170
    endloop
  endfacet
  facet normal 0.000000 -1.000000 0.000000
    outer loop
      vertex 0.000000 5.000000 0.000000
      vertex -1.550000 5.000000 0.000000
      vertex -1.497185 5.000000 -0.401170
    endloop
  endfacet
  facet normal 0.000000 1.000000 0.000000
    outer loop
      vertex 0.000000 4.600000 0.000000
      vertex -1.497185 4.600000 -0.401170
      vertex -1.550000 4.600000 0.000000
    endloop
  endfacet
  facet normal 0.991445 0.000000 0.130526
    outer loop
      vertex -1.550000 4.600000 0.000000
      vertex -1.497185 4.600000 -0.401170
      vertex -1.497185 5.000000 -0.401170
    endloop
  endfacet
  facet normal 0.991445 0.000000 0.130526
    outer loop
      vertex -1.550000 4.600000 0.000000
      vertex -1.497185 5.000000 -0.401170
      vertex -1.550000 5.000000 0.000000
    endloop
  endfacet
  facet normal 0.000000 -1.000000 0.000000
    outer loop
      vertex 0.000000 5.000000 0.000000
      vertex -1.497185 5.000000 -0.401170
      vertex -1.342339 5.000000 -0.775000
    endloop
  endfacet
  facet normal 0.000000 1.000000 0.000000
    outer loop
      vertex 0.000000 4.600000 0.000000
      vertex -1.342339 4.600000 -0.775000
      vertex -1.497185 4.600000 -0.401170
    endloop
  endfacet
  facet normal 0.923880 0.000000 0.382683
    outer loop
      vertex -1.497185 4.600000 -0.401170
      vertex -1.342339 4.600000 -0.775000
      vertex -1.342339 5.000000 -0.775000
    endloop
  endfacet
  facet normal 0.923880 0.000000 0.382683
    outer loop
      vertex -1.497185 4.600000 -0.401170
      vertex -1.342339 5.000000 -0.775000
      vertex -1.497185 5.000000 -0.401170
    endloop
  endfacet
  facet normal 0.000000 -1.000000 0.000000
    outer loop
      vertex 0.000000 5.000000 0.000000
      vertex -1.342339 5.000000 -0.775000
      vertex -1.096016 5.000000 -1.096016
    endloop
  endfacet
  facet normal 0.000000 1.000000 0.000000
    outer loop
      vertex 0.000000 4.600000 0.000000
      vertex -1.096016 4.600000 -1.096016
      vertex -1.342339 4.600000 -0.775000
    endloop
  endfacet
  facet normal 0.793353 0.000000 0.608761
    outer loop
      vertex -1.342339 4.600000 -0.775000
      vertex -1.096016 4.600000 -1.096016
      vertex -1.096016 5.000000 -1.096016
    endloop
  endfacet
  facet normal 0.793353 0.000000 0.608761
    outer loop
      vertex -1.342339 4.600000 -0.775000
      vertex -1.096016 5.000000 -1.096016
      vertex -1.342339 5.000000 -0.775000
    endloop
  endfacet
  facet normal 0.000000 -1.000000 0.000000
    outer loop
      vertex 0.000000 5.000000 0.000000
      vertex -1.096016 5.000000 -1.096016
      vertex -0.775000 5.000000 -1.342339
    endloop
  endfacet
  facet normal 0.000000 1.000000 0.000000
    outer loop
      vertex 0.000000 4.600000 0.000000
      vertex -0.775000 4.600000 -1.342339
      vertex -1.096016 4.600000 -1.096016
    endloop
  endfacet
  facet normal 0.608761 0.000000 0.793353
    outer loop
      vertex -1.096016 4.600000 -1.096016
      vertex -0.775000 4.600000 -1.342339
      vertex -0.775000 5.000000 -1.342339
    endloop
  endfacet
  facet normal 0.608761 0.000000 0.793353
    outer loop
      vertex -1.096016 4.600000 -1.096016
      vertex -0.775000 5.000000 -1.342339
      vertex -1.096016 5.000000 -1.096016
    endloop
  endfacet
  facet normal 0.000000 -1.000000 0.000000
    outer loop
      vertex 0.000000 5.000000 0.000000
      vertex -0.775000 5.000000 -1.342339
      vertex -0.401170 5.000000 -1.497185
    endloop
  endfacet
  facet normal 0.000000 1.000000 0.000000
    outer loop
      vertex 0.000000 4.600000 0.000000
      vertex -0.401170 4.600000 -1.497185
      vertex -0.775000 4.600000 -1.342339
    endloop
  endfacet
  facet normal 0.382683 0.000000 0.923880
    outer loop
      vertex -0.775000 4.600000 -1.342339
      vertex -0.401170 4.600000 -1.497185
      vertex -0.401170 5.000000 -1.497185
    endloop
  endfacet
  facet normal 0.382683 0.000000 0.923880
    outer loop
      vertex -0.775000 4.600000 -1.342339
      vertex -0.401170 5.000000 -1.497185
      vertex -0.775000 5.000000 -1.342339
    endloop
  endfacet
  facet normal 0.000000 -1.000000 0.000000
    outer loop
      vertex 0.000000 5.000000 0.000000
      vertex -0.401170 5.000000 -1.497185
      vertex -0.000000 5.000000 -1.550000
    endloop
  endfacet
  facet normal 0.000000 1.000000 0.000000
    outer loop
      vertex 0.000000 4.600000 0.000000
      vertex -0.000000 4.600000 -1.550000
      vertex -0.401170 4.600000 -1.497185
    endloop
  endfacet
  facet normal 0.130526 0.000000 0.991445
    outer loop
      vertex -0.401170 4.600000 -1.497185
      vertex -0.000000 4.600000 -1.550000
      vertex -0.000000 5.000000 -1.550000
    endloop
  endfacet
  facet normal 0.130526 0.000000 0.991445
    outer loop
      vertex -0.401170 4.600000 -1.497185
      vertex -0.000000 5.000000 -1.550000
      vertex -0.401170 5.000000 -1.497185
    endloop
  endfacet
  facet normal 0.000000 -1.000000 0.000000
    outer loop
      vertex 0.000000 5.000000 0.000000
      vertex -0.000000 5.000000 -1.550000
      vertex 0.401170 5.000000 -1.497185
    endloop
  endfacet
  facet normal 0.000000 1.000000 0.000000
    outer loop
      vertex 0.000000 4.600000 0.000000
      vertex 0.401170 4.600000 -1.497185
      vertex -0.000000 4.600000 -1.550000
    endloop
  endfacet
  facet normal -0.130526 0.000000 0.991445
    outer loop
      vertex -0.000000 4.600000 -1.550000
      vertex 0.401170 4.600000 -1.497185
      vertex 0.401170 5.000000 -1.497185
    endloop
  endfacet
  facet normal -0.130526 0.000000 0.991445
    outer loop
      vertex -0.000000 4.600000 -1.550000
      vertex 0.401170 5.000000 -1.497185
      vertex -0.000000 5.000000 -1.550000
    endloop
  endfacet
  facet normal 0.000000 -1.000000 0.000000
    outer loop
      vertex 0.000000 5.000000 0.000000
      vertex 0.401170 5.000000 -1.497185
      vertex 0.775000 5.000000 -1.342339
    endloop
  endfacet
  facet normal 0.000000 1.000000 0.000000
    outer loop
      vertex 0.000000 4.600000 0.000000
      vertex 0.775000 4.600000 -1.342339
      vertex 0.401170 4.600000 -1.497185
    endloop
  endfacet
  facet normal -0.382683 0.000000 0.923880
    outer loop
      vertex 0.401170 4.600000 -1.497185
      vertex 0.775000 4.600000 -1.342339
      vertex 0.775000 5.000000 -1.342339
    endloop
  endfacet
  facet normal -0.382683 0.000000 0.923880
    outer loop
      vertex 0.401170 4.600000 -1.497185
      vertex 0.775000 5.000000 -1.342339
      vertex 0.401170 5.000000 -1.497185
    endloop
  endfacet
  facet normal 0.000000 -1.000000 0.000000
    outer loop
      vertex 0.000000 5.000000 0.000000
      vertex 0.775000 5.000000 -1.342339
      vertex 1.096016 5.000000 -1.096016
    endloop
  endfacet
  facet normal 0.000000 1.000000 0.000000
    outer loop
      vertex 0.000000 4.600000 0.000000
      vertex 1.096016 4.600000 -1.096016
      vertex 0.775000 4.600000 -1.342339
    endloop
  endfacet
  facet normal -0.608761 0.000000 0.793353
    outer loop
      vertex 0.775000 4.600000 -1.342339
      vertex 1.096016 4.600000 -1.096016
      vertex 1.096016 5.000000 -1.096016
    endloop
  endfacet
  facet normal -0.608761 0.000000 0.793353
    outer loop
      vertex 0.775000 4.600000 -1.342339
      vertex 1.096016 5.000000 -1.096016
      vertex 0.775000 5.000000 -1.342339
    endloop
  endfacet
  facet normal 0.000000 -1.000000 0.000000
    outer loop
      vertex 0.000000 5.000000 0.000000
      vertex 1.096016 5.000000 -1.096016
      vertex 1.342339 5.000000 -0.775000
    endloop
  endfacet
  facet normal 0.000000 1.000000 0.000000
    outer loop
      vertex 0.000000 4.600000 0.000000
      vertex 1.342339 4.600000 -0.775000
      vertex 1.096016 4.600000 -1.096016
    endloop
  endfacet
  facet normal -0.793353 0.000000 0.608761
    outer loop
      vertex 1.096016 4.600000 -1.096016
      vertex 1.342339 4.600000 -0.775000
      vertex 1.342339 5.000000 -0.775000
    endloop
  endfacet
  facet normal -0.793353 0.000000 0.608761
    outer loop
      vertex 1.096016 4.600000 -1.096016
      vertex 1.342339 5.000000 -0.775000
      vertex 1.096016 5.000000 -1.096016
    endloop
  endfacet
  facet normal 0.000000 -1.000000 0.000000
    outer loop
      vertex 0.000000 5.000000 0.000000
      vertex 1.342339 5.000000 -0.775000
      vertex 1.497185 5.000000 -0.401170
    endloop
  endfacet
  facet normal 0.000000 1.000000 0.000000
    outer loop
      vertex 0.000000 4.600000 0.000000
      vertex 1.497185 4.600000 -0.401170
      vertex 1.342339 4.600000 -0.775000
    endloop
  endfacet
  facet normal -0.923880 0.000000 0.382683
    outer loop
      vertex 1.342339 4.600000 -0.775000
      vertex 1.497185 4.600000 -0.401170
      vertex 1.497185 5.000000 -0.401170
    endloop
  endfacet
  facet normal -0.923880 0.000000 0.382683
    outer loop
      vertex 1.342339 4.600000 -0.775000
      vertex 1.497185 5.000000 -0.401170
      vertex 1.342339 5.000000 -0.775000
    endloop
  endfacet
  facet normal 0.000000 -1.000000 0.000000
    outer loop
      vertex 0.000000 5.000000 0.000000
      vertex 1.497185 5.000000 -0.401170
      vertex 1.550000 5.000000 0.000000
    endloop
  endfacet
  facet normal 0.000000 1.000000 0.000000
    outer loop
      vertex 0.000000 4.600000 0.000000
      vertex 1.550000 4.600000 0.000000
      vertex 1.497185 4.600000 -0.401170
    endloop
  endfacet
  facet normal -0.991445 0.000000 0.130526
    outer loop
      vertex 1.497185 4.600000 -0.401170
      vertex 1.550000 4.600000 0.000000
      vertex 1.550000 5.000000 0.000000
    endloop
  endfacet
  facet normal -0.991445 0.000000 0.130526
    outer loop
      vertex 1.497185 4.600000 -0.401170
      vertex 1.550000 5.000000 0.000000
      vertex 1.497185 5.000000 -0.401170
    endloop
  endfacet
  facet normal 0.000000 -1.000000 0.000000
    outer loop
      vertex -2.750000 4.940000 -3.700000
      vertex 2.750000 4.940000 -3.700000
      vertex 2.750000 4.940000 -2.700000
    endloop
  endfacet
  facet normal 0.000000 -1.000000 0.000000
    outer loop
      vertex -2.750000 4.940000 -3.700000
      vertex 2.750000 4.940000 -2.700000
      vertex -2.750000 4.940000 -2.700000
    endloop
  endfacet
  facet normal 0.000000 1.000000 0.000000
    outer loop
      vertex -2.750000 4.760000 -2.700000
      vertex 2.750000 4.760000 -2.700000
      vertex 2.750000 4.760000 -3.700000
    endloop
  endfacet
  facet normal 0.000000 1.000000 0.000000
    outer loop
      vertex -2.750000 4.760000 -2.700000
      vertex 2.750000 4.760000 -3.700000
      vertex -2.750000 4.760000 -3.700000
    endloop
  endfacet
  facet normal 0.000000 0.000000 -1.000000
    outer loop
      vertex -2.750000 4.940000 -2.700000
      vertex 2.750000 4.940000 -2.700000
      vertex 2.750000 4.760000 -2.700000
    endloop
  endfacet
  facet normal 0.000000 0.000000 -1.000000
    outer loop
      vertex -2.750000 4.940000 -2.700000
      vertex 2.750000 4.760000 -2.700000
      vertex -2.750000 4.760000 -2.700000
    endloop
  endfacet
  facet normal 0.000000 0.000000 1.000000
    outer loop
      vertex 2.750000 4.760000 -3.700000
      vertex 2.750000 4.940000 -3.700000
      vertex -2.750000 4.940000 -3.700000
    endloop
  endfacet
  facet normal 0.000000 0.000000 1.000000
    outer loop
      vertex 2.750000 4.760000 -3.700000
      vertex -2.750000 4.940000 -3.700000
      vertex -2.750000 4.760000 -3.700000
    endloop
  endfacet
  facet normal -1.000000 0.000000 0.000000
    outer loop
      vertex 2.750000 4.760000 -2.700000
      vertex 2.750000 4.940000 -2.700000
      vertex 2.750000 4.940000 -3.700000
    endloop
  endfacet
  facet normal -1.000000 0.000000 0.000000
    outer loop
      vertex 2.750000 4.760000 -2.700000
      vertex 2.750000 4.940000 -3.700000
      vertex 2.750000 4.760000 -3.700000
    endloop
  endfacet
  facet normal 1.000000 0.000000 0.000000
    outer loop
      vertex -2.750000 4.760000 -3.700000
      vertex -2.750000 4.940000 -3.700000
      vertex -2.750000 4.940000 -2.700000
    endloop
  endfacet
  facet normal 1.000000 0.000000 0.000000
    outer loop
      vertex -2.750000 4.760000 -3.700000
      vertex -2.750000 4.940000 -2.700000
      vertex -2.750000 4.760000 -2.700000
    endloop
  endfacet
endsolid buzzer_active_5v