solid blower_fan_5v_radial
  facet normal 0.000000 -1.000000 0.000000
    outer loop
      vertex -25.000000 15.000000 -25.000000
      vertex 25.000000 15.000000 -25.000000
      vertex 25.000000 15.000000 25.000000
    endloop
  endfacet
  facet normal 0.000000 -1.000000 0.000000
    outer loop
      vertex -25.000000 15.000000 -25.000000
      vertex 25.000000 15.000000 25.000000
      vertex -25.000000 15.000000 25.000000
    endloop
  endfacet
  facet normal 0.000000 1.000000 0.000000
    outer loop
      vertex -25.000000 0.000000 25.000000
      vertex 25.000000 0.000000 25.000000
      vertex 25.000000 0.000000 -25.000000
    endloop
  endfacet
  facet normal 0.000000 1.000000 0.000000
    outer loop
      vertex -25.000000 0.000000 25.000000
      vertex 25.000000 0.000000 -25.000000
      vertex -25.000000 0.000000 -25.000000
    endloop
  endfacet
  facet normal 0.000000 0.000000 -1.000000
    outer loop
      vertex -25.000000 15.000000 25.000000
      vertex 25.000000 15.000000 25.000000
      vertex 25.000000 0.000000 25.000000
    endloop
  endfacet
  facet normal 0.000000 0.000000 -1.000000
    outer loop
      vertex -25.000000 15.000000 25.000000
      vertex 25.000000 0.000000 25.000000
      vertex -25.000000 0.000000 25.000000
    endloop
  endfacet
  facet normal 0.000000 0.000000 1.000000
    outer loop
      vertex 25.000000 0.000000 -25.000000
      vertex 25.000000 15.000000 -25.000000
      vertex -25.000000 15.000000 -25.000000
    endloop
  endfacet
  facet normal 0.000000 0.000000 1.000000
    outer loop
      vertex 25.000000 0.000000 -25.000000
      vertex -25.000000 15.000000 -25.000000
      vertex -25.000000 0.000000 -25.000000
    endloop
  endfacet
  facet normal -1.000000 0.000000 0.000000
    outer loop
      vertex 25.000000 0.000000 25.000000
      vertex 25.000000 15.000000 25.000000
      vertex 25.000000 15.000000 -25.000000
    endloop
  endfacet
  facet normal -1.000000 0.000000 0.000000
    outer loop
      vertex 25.000000 0.000000 25.000000
      vertex 25.000000 15.000000 -25.000000
      vertex 25.000000 0.000000 -25.000000
    endloop
  endfacet
  facet normal 1.000000 0.000000 0.000000
    outer loop
      vertex -25.000000 0.000000 -25.000000
      vertex -25.000000 15.000000 -25.000000
      vertex -25.000000 15.000000 25.000000
    endloop
  endfacet
  facet normal 1.000000 0.000000 0.000000
    outer loop
      vertex -25.000000 0.000000 -25.000000
      vertex -25.000000 15.000000 25.000000
      vertex -25.000000 0.000000 25.000000
    endloop
  endfacet
  facet normal 0.000000 -1.000000 0.000000
    outer loop
      vertex -2.370000 20.625000 -23.560000
      vertex -0.170000 20.625000 -23.560000
      vertex -0.170000 20.625000 -21.360000
    endloop
  endfacet
  facet normal 0.000000 -1.000000 0.000000
    outer loop
      vertex -2.370000 20.625000 -23.560000
      vertex -0.170000 20.625000 -21.360000
      vertex -2.370000 20.625000 -21.360000
    endloop
  endfacet
  facet normal 0.000000 1.000000 0.000000
    outer loop
      vertex -2.370000 19.075000 -21.360000
      vertex -0.170000 19.075000 -21.360000
      vertex -0.170000 19.075000 -23.560000
    endloop
  endfacet
  facet normal 0.000000 1.000000 0.000000
    outer loop
      vertex -2.370000 19.075000 -21.360000
      vertex -0.170000 19.075000 -23.560000
      vertex -2.370000 19.075000 -23.560000
    endloop
  endfacet
  facet normal 0.000000 0.000000 -1.000000
    outer loop
      vertex -2.370000 20.625000 -21.360000
      vertex -0.170000 20.625000 -21.360000
      vertex -0.170000 19.075000 -21.360000
    endloop
  endfacet
  facet normal 0.000000 0.000000 -1.000000
    outer loop
      vertex -2.370000 20.625000 -21.360000
      vertex -0.170000 19.075000 -21.360000
      vertex -2.370000 19.075000 -21.360000
    endloop
  endfacet
  facet normal 0.000000 0.000000 1.000000
    outer loop
      vertex -0.170000 19.075000 -23.560000
      vertex -0.170000 20.625000 -23.560000
      vertex -2.370000 20.625000 -23.560000
    endloop
  endfacet
  facet normal 0.000000 0.000000 1.000000
    outer loop
      vertex -0.170000 19.075000 -23.560000
      vertex -2.370000 20.625000 -23.560000
      vertex -2.370000 19.075000 -23.560000
    endloop
  endfacet
  facet normal -1.000000 0.000000 0.000000
    outer loop
      vertex -0.170000 19.075000 -21.360000
      vertex -0.170000 20.625000 -21.360000
      vertex -0.170000 20.625000 -23.560000
    endloop
  endfacet
  facet normal -1.000000 0.000000 0.000000
    outer loop
      vertex -0.170000 19.075000 -21.360000
      vertex -0.170000 20.625000 -23.560000
      vertex -0.170000 19.075000 -23.560000
    endloop
  endfacet
  facet normal 1.000000 0.000000 0.000000
    outer loop
      vertex -2.370000 19.075000 -23.560000
      vertex -2.370000 20.625000 -23.560000
      vertex -2.370000 20.625000 -21.360000
    endloop
  endfacet
  facet normal 1.000000 0.000000 0.000000
    outer loop
      vertex -2.370000 19.075000 -23.560000
      vertex -2.370000 20.625000 -21.360000
      vertex -2.370000 19.075000 -21.360000
    endloop
  endfacet
  facet normal 0.000000 -1.000000 0.000000
    outer loop
      vertex -1.600000 24.600000 -22.790000
      vertex -0.940000 24.600000 -22.790000
      vertex -0.940000 24.600000 -22.130000
    endloop
  endfacet
  facet normal 0.000000 -1.000000 0.000000
    outer loop
      vertex -1.600000 24.600000 -22.790000
      vertex -0.940000 24.600000 -22.130000
      vertex -1.600000 24.600000 -22.130000
    endloop
  endfacet
  facet normal 0.000000 1.000000 0.000000
    outer loop
      vertex -1.600000 19.400000 -22.130000
      vertex -0.940000 19.400000 -22.130000
      vertex -0.940000 19.400000 -22.790000
    endloop
  endfacet
  facet normal 0.000000 1.000000 0.000000
    outer loop
      vertex -1.600000 19.400000 -22.130000
      vertex -0.940000 19.400000 -22.790000
      vertex -1.600000 19.400000 -22.790000
    endloop
  endfacet
  facet normal 0.000000 0.000000 -1.000000
    outer loop
      vertex -1.600000 24.600000 -22.130000
      vertex -0.940000 24.600000 -22.130000
      vertex -0.940000 19.400000 -22.130000
    endloop
  endfacet
  facet normal 0.000000 0.000000 -1.000000
    outer loop
      vertex -1.600000 24.600000 -22.130000
      vertex -0.940000 19.400000 -22.130000
      vertex -1.600000 19.400000 -22.130000
    endloop
  endfacet
  facet normal 0.000000 0.000000 1.000000
    outer loop
      vertex -0.940000 19.400000 -22.790000
      vertex -0.940000 24.600000 -22.790000
      vertex -1.600000 24.600000 -22.790000
    endloop
  endfacet
  facet normal 0.000000 0.000000 1.000000
    outer loop
      vertex -0.940000 19.400000 -22.790000
      vertex -1.600000 24.600000 -22.790000
      vertex -1.600000 19.400000 -22.790000
    endloop
  endfacet
  facet normal -1.000000 0.000000 0.000000
    outer loop
      vertex -0.940000 19.400000 -22.130000
      vertex -0.940000 24.600000 -22.130000
      vertex -0.940000 24.600000 -22.790000
    endloop
  endfacet
  facet normal -1.000000 0.000000 0.000000
    outer loop
      vertex -0.940000 19.400000 -22.130000
      vertex -0.940000 24.600000 -22.790000
      vertex -0.940000 19.400000 -22.790000
    endloop
  endfacet
  facet normal 1.000000 0.000000 0.000000
    outer loop
      vertex -1.600000 19.400000 -22.790000
      vertex -1.600000 24.600000 -22.790000
      vertex -1.600000 24.600000 -22.130000
    endloop
  endfacet
  facet normal 1.000000 0.000000 0.000000
    outer loop
      vertex -1.600000 19.400000 -22.790000
      vertex -1.600000 24.600000 -22.130000
      vertex -1.600000 19.400000 -22.130000
    endloop
  endfacet
  facet normal 0.000000 -1.000000 0.000000
    outer loop
      vertex 0.170000 20.625000 -23.560000
      vertex 2.370000 20.625000 -23.560000
      vertex 2.370000 20.625000 -21.360000
    endloop
  endfacet
  facet normal 0.000000 -1.000000 0.000000
    outer loop
      vertex 0.170000 20.625000 -23.560000
      vertex 2.370000 20.625000 -21.360000
      vertex 0.170000 20.625000 -21.360000
    endloop
  endfacet
  facet normal 0.000000 1.000000 0.000000
    outer loop
      vertex 0.170000 19.075000 -21.360000
      vertex 2.370000 19.075000 -21.360000
      vertex 2.370000 19.075000 -23.560000
    endloop
  endfacet
  facet normal 0.000000 1.000000 0.000000
    outer loop
      vertex 0.170000 19.075000 -21.360000
      vertex 2.370000 19.075000 -23.560000
      vertex 0.170000 19.075000 -23.560000
    endloop
  endfacet
  facet normal 0.000000 0.000000 -1.000000
    outer loop
      vertex 0.170000 20.625000 -21.360000
      vertex 2.370000 20.625000 -21.360000
      vertex 2.370000 19.075000 -21.360000
    endloop
  endfacet
  facet normal 0.000000 0.000000 -1.000000
    outer loop
      vertex 0.170000 20.625000 -21.360000
      vertex 2.370000 19.075000 -21.360000
      vertex 0.170000 19.075000 -21.360000
    endloop
  endfacet
  facet normal 0.000000 0.000000 1.000000
    outer loop
      vertex 2.370000 19.075000 -23.560000
      vertex 2.370000 20.625000 -23.560000
      vertex 0.170000 20.625000 -23.560000
    endloop
  endfacet
  facet normal 0.000000 0.000000 1.000000
    outer loop
      vertex 2.370000 19.075000 -23.560000
      vertex 0.170000 20.625000 -23.560000
      vertex 0.170000 19.075000 -23.560000
    endloop
  endfacet
  facet normal -1.000000 0.000000 0.000000
    outer loop
      vertex 2.370000 19.075000 -21.360000
      vertex 2.370000 20.625000 -21.360000
      vertex 2.370000 20.625000 -23.560000
    endloop
  endfacet
  facet normal -1.000000 0.000000 0.000000
    outer loop
      vertex 2.370000 19.075000 -21.360000
      vertex 2.370000 20.625000 -23.560000
      vertex 2.370000 19.075000 -23.560000
    endloop
  endfacet
  facet normal 1.000000 0.000000 0.000000
    outer loop
      vertex 0.170000 19.075000 -23.560000
      vertex 0.170000 20.625000 -23.560000
      vertex 0.170000 20.625000 -21.360000
    endloop
  endfacet
  facet normal 1.000000 0.000000 0.000000
    outer loop
      vertex 0.170000 19.075000 -23.560000
      vertex 0.170000 20.625000 -21.360000
      vertex 0.170000 19.075000 -21.360000
    endloop
  endfacet
  facet normal 0.000000 -1.000000 0.000000
    outer loop
      vertex 0.940000 24.600000 -22.790000
      vertex 1.600000 24.600000 -22.790000
      vertex 1.600000 24.600000 -22.130000
    endloop
  endfacet
  facet normal 0.000000 -1.000000 0.000000
    outer loop
      vertex 0.940000 24.600000 -22.790000
      vertex 1.600000 24.600000 -22.130000
      vertex 0.940000 24.600000 -22.130000
    endloop
  endfacet
  facet normal 0.000000 1.000000 0.000000
    outer loop
      vertex 0.940000 19.400000 -22.130000
      vertex 1.600000 19.400000 -22.130000
      vertex 1.600000 19.400000 -22.790000
    endloop
  endfacet
  facet normal 0.000000 1.000000 0.000000
    outer loop
      vertex 0.940000 19.400000 -22.130000
      vertex 1.600000 19.400000 -22.790000
      vertex 0.940000 19.400000 -22.790000
    endloop
  endfacet
  facet normal 0.000000 0.000000 -1.000000
    outer loop
      vertex 0.940000 24.600000 -22.130000
      vertex 1.600000 24.600000 -22.130000
      vertex 1.600000 19.400000 -22.130000
    endloop
  endfacet
  facet normal 0.000000 0.000000 -1.000000
    outer loop
      vertex 0.940000 24.600000 -22.130000
      vertex 1.600000 19.400000 -22.130000
      vertex 0.940000 19.400000 -22.130000
    endloop
  endfacet
  facet normal 0.000000 0.000000 1.000000
    outer loop
      vertex 1.600000 19.400000 -22.790000
      vertex 1.600000 24.600000 -22.790000
      vertex 0.940000 24.600000 -22.790000
    endloop
  endfacet
  facet normal 0.000000 0.000000 1.000000
    outer loop
      vertex 1.600000 19.400000 -22.790000
      vertex 0.940000 24.600000 -22.790000
      vertex 0.940000 19.400000 -22.790000
    endloop
  endfacet
  facet normal -1.000000 0.000000 0.000000
    outer loop
      vertex 1.600000 19.400000 -22.130000
      vertex 1.600000 24.600000 -22.130000
      vertex 1.600000 24.600000 -22.790000
    endloop
  endfacet
  facet normal -1.000000 0.000000 0.000000
    outer loop
      vertex 1.600000 19.400000 -22.130000
      vertex 1.600000 24.600000 -22.790000
      vertex 1.600000 19.400000 -22.790000
    endloop
  endfacet
  facet normal 1.000000 0.000000 0.000000
    outer loop
      vertex 0.940000 19.400000 -22.790000
      vertex 0.940000 24.600000 -22.790000
      vertex 0.940000 24.600000 -22.130000
    endloop
  endfacet
  facet normal 1.000000 0.000000 0.000000
    outer loop
      vertex 0.940000 19.400000 -22.790000
      vertex 0.940000 24.600000 -22.130000
      vertex 0.940000 19.400000 -22.130000
    endloop
  endfacet
  facet normal 0.000000 -1.000000 0.000000
    outer loop
      vertex -2.540000 17.450000 -23.710000
      vertex 2.540000 17.450000 -23.710000
      vertex 2.540000 17.450000 -21.210000
    endloop
  endfacet
  facet normal 0.000000 -1.000000 0.000000
    outer loop
      vertex -2.540000 17.450000 -23.710000
      vertex 2.540000 17.450000 -21.210000
      vertex -2.540000 17.450000 -21.210000
    endloop
  endfacet
  facet normal 0.000000 1.000000 0.000000
    outer loop
      vertex -2.540000 14.950000 -21.210000
      vertex 2.540000 14.950000 -21.210000
      vertex 2.540000 14.950000 -23.710000
    endloop
  endfacet
  facet normal 0.000000 1.000000 0.000000
    outer loop
      vertex -2.540000 14.950000 -21.210000
      vertex 2.540000 14.950000 -23.710000
      vertex -2.540000 14.950000 -23.710000
    endloop
  endfacet
  facet normal 0.000000 0.000000 -1.000000
    outer loop
      vertex -2.540000 17.450000 -21.210000
      vertex 2.540000 17.450000 -21.210000
      vertex 2.540000 14.950000 -21.210000
    endloop
  endfacet
  facet normal 0.000000 0.000000 -1.000000
    outer loop
      vertex -2.540000 17.450000 -21.210000
      vertex 2.540000 14.950000 -21.210000
      vertex -2.540000 14.950000 -21.210000
    endloop
  endfacet
  facet normal 0.000000 0.000000 1.000000
    outer loop
      vertex 2.540000 14.950000 -23.710000
      vertex 2.540000 17.450000 -23.710000
      vertex -2.540000 17.450000 -23.710000
    endloop
  endfacet
  facet normal 0.000000 0.000000 1.000000
    outer loop
      vertex 2.540000 14.950000 -23.710000
      vertex -2.540000 17.450000 -23.710000
      vertex -2.540000 14.950000 -23.710000
    endloop
  endfacet
  facet normal -1.000000 0.000000 0.000000
    outer loop
      vertex 2.540000 14.950000 -21.210000
      vertex 2.540000 17.450000 -21.210000
      vertex 2.540000 17.450000 -23.710000
    endloop
  endfacet
  facet normal -1.000000 0.000000 0.000000
    outer loop
      vertex 2.540000 14.950000 -21.210000
      vertex 2.540000 17.450000 -23.710000
      vertex 2.540000 14.950000 -23.710000
    endloop
  endfacet
  facet normal 1.000000 0.000000 0.000000
    outer loop
      vertex -2.540000 14.950000 -23.710000
      vertex -2.540000 17.450000 -23.710000
      vertex -2.540000 17.450000 -21.210000
    endloop
  endfacet
  facet normal 1.000000 0.000000 0.000000
    outer loop
      vertex -2.540000 14.950000 -23.710000
      vertex -2.540000 17.450000 -21.210000
      vertex -2.540000 14.950000 -21.210000
    endloop
  endfacet
  facet normal 0.000000 -1.000000 0.000000
    outer loop
      vertex 0.000000 50.000000 0.000000
      vertex 25.000000 50.000000 0.000000
      vertex 24.148146 50.000000 6.470476
    endloop
  endfacet
  facet normal 0.000000 1.000000 0.000000
    outer loop
      vertex 0.000000 15.000000 0.000000
      vertex 24.148146 15.000000 6.470476
      vertex 25.000000 15.000000 0.000000
    endloop
  endfacet
  facet normal -0.991445 0.000000 -0.130526
    outer loop
      vertex 25.000000 15.000000 0.000000
      vertex 24.148146 15.000000 6.470476
      vertex 24.148146 50.000000 6.470476
    endloop
  endfacet
  facet normal -0.991445 0.000000 -0.130526
    outer loop
      vertex 25.000000 15.000000 0.000000
      vertex 24.148146 50.000000 6.470476
      vertex 25.000000 50.000000 0.000000
    endloop
  endfacet
  facet normal 0.000000 -1.000000 0.000000
    outer loop
      vertex 0.000000 50.000000 0.000000
      vertex 24.148146 50.000000 6.470476
      vertex 21.650635 50.000000 12.500000
    endloop
  endfacet
  facet normal 0.000000 1.000000 0.000000
    outer loop
      vertex 0.000000 15.000000 0.000000
      vertex 21.650635 15.000000 12.500000
      vertex 24.148146 15.000000 6.470476
    endloop
  endfacet
  facet normal -0.923880 0.000000 -0.382683
    outer loop
      vertex 24.148146 15.000000 6.470476
      vertex 21.650635 15.000000 12.500000
      vertex 21.650635 50.000000 12.500000
    endloop
  endfacet
  facet normal -0.923880 0.000000 -0.382683
    outer loop
      vertex 24.148146 15.000000 6.470476
      vertex 21.650635 50.000000 12.500000
      vertex 24.148146 50.000000 6.470476
    endloop
  endfacet
  facet normal 0.000000 -1.000000 0.000000
    outer loop
      vertex 0.000000 50.000000 0.000000
      vertex 21.650635 50.000000 12.500000
      vertex 17.677670 50.000000 17.677670
    endloop
  endfacet
  facet normal 0.000000 1.000000 0.000000
    outer loop
      vertex 0.000000 15.000000 0.000000
      vertex 17.677670 15.000000 17.677670
      vertex 21.650635 15.000000 12.500000
    endloop
  endfacet
  facet normal -0.793353 0.000000 -0.608761
    outer loop
      vertex 21.650635 15.000000 12.500000
      vertex 17.677670 15.000000 17.677670
      vertex 17.677670 50.000000 17.677670
    endloop
  endfacet
  facet normal -0.793353 0.000000 -0.608761
    outer loop
      vertex 21.650635 15.000000 12.500000
      vertex 17.677670 50.000000 17.677670
      vertex 21.650635 50.000000 12.500000
    endloop
  endfacet
  facet normal 0.000000 -1.000000 0.000000
    outer loop
      vertex 0.000000 50.000000 0.000000
      vertex 17.677670 50.000000 17.677670
      vertex 12.500000 50.000000 21.650635
    endloop
  endfacet
  facet normal 0.000000 1.000000 0.000000
    outer loop
      vertex 0.000000 15.000000 0.000000
      vertex 12.500000 15.000000 21.650635
      vertex 17.677670 15.000000 17.677670
    endloop
  endfacet
  facet normal -0.608761 0.000000 -0.793353
    outer loop
      vertex 17.677670 15.000000 17.677670
      vertex 12.500000 15.000000 21.650635
      vertex 12.500000 50.000000 21.650635
    endloop
  endfacet
  facet normal -0.608761 0.000000 -0.793353
    outer loop
      vertex 17.677670 15.000000 17.677670
      vertex 12.500000 50.000000 21.650635
      vertex 17.677670 50.000000 17.677670
    endloop
  endfacet
  facet normal 0.000000 -1.000000 0.000000
    outer loop
      vertex 0.000000 50.000000 0.000000
      vertex 12.500000 50.000000 21.650635
      vertex 6.470476 50.000000 24.148146
    endloop
  endfacet
  facet normal 0.000000 1.000000 0.000000
    outer loop
      vertex 0.000000 15.000000 0.000000
      vertex 6.470476 15.000000 24.148146
      vertex 12.500000 15.000000 21.650635
    endloop
  endfacet
  facet normal -0.382683 0.000000 -0.923880
    outer loop
      vertex 12.500000 15.000000 21.650635
      vertex 6.470476 15.000000 24.148146
      vertex 6.470476 50.000000 24.148146
    endloop
  endfacet
  facet normal -0.382683 0.000000 -0.923880
    outer loop
      vertex 12.500000 15.000000 21.650635
      vertex 6.470476 50.000000 24.148146
      vertex 12.500000 50.000000 21.650635
    endloop
  endfacet
  facet normal 0.000000 -1.000000 0.000000
    outer loop
      vertex 0.000000 50.000000 0.000000
      vertex 6.470476 50.000000 24.148146
      vertex 0.000000 50.000000 25.000000
    endloop
  endfacet
  facet normal 0.000000 1.000000 0.000000
    outer loop
      vertex 0.000000 15.000000 0.000000
      vertex 0.000000 15.000000 25.000000
      vertex 6.470476 15.000000 24.148146
    endloop
  endfacet
  facet normal -0.130526 0.000000 -0.991445
    outer loop
      vertex 6.470476 15.000000 24.148146
      vertex 0.000000 15.000000 25.000000
      vertex 0.000000 50.000000 25.000000
    endloop
  endfacet
  facet normal -0.130526 0.000000 -0.991445
    outer loop
      vertex 6.470476 15.000000 24.148146
      vertex 0.000000 50.000000 25.000000
      vertex 6.470476 50.000000 24.148146
    endloop
  endfacet
  facet normal 0.000000 -1.000000 0.000000
    outer loop
      vertex 0.000000 50.000000 0.000000
      vertex 0.000000 50.000000 25.000000
      vertex -6.470476 50.000000 24.148146
    endloop
  endfacet
  facet normal 0.000000 1.000000 0.000000
    outer loop
      vertex 0.000000 15.000000 0.000000
      vertex -6.470476 15.000000 24.148146
      vertex 0.000000 15.000000 25.000000
    endloop
  endfacet
  facet normal 0.130526 0.000000 -0.991445
    outer loop
      vertex 0.000000 15.000000 25.000000
      vertex -6.470476 15.000000 24.148146
      vertex -6.470476 50.000000 24.148146
    endloop
  endfacet
  facet normal 0.130526 0.000000 -0.991445
    outer loop
      vertex 0.000000 15.000000 25.000000
      vertex -6.470476 50.000000 24.148146
      vertex 0.000000 50.000000 25.000000
    endloop
  endfacet
  facet normal 0.000000 -1.000000 0.000000
    outer loop
      vertex 0.000000 50.000000 0.000000
      vertex -6.470476 50.000000 24.148146
      vertex -12.500000 50.000000 21.650635
    endloop
  endfacet
  facet normal 0.000000 1.000000 0.000000
    outer loop
      vertex 0.000000 15.000000 0.000000
      vertex -12.500000 15.000000 21.650635
      vertex -6.470476 15.000000 24.148146
    endloop
  endfacet
  facet normal 0.382683 0.000000 -0.923880
    outer loop
      vertex -6.470476 15.000000 24.148146
      vertex -12.500000 15.000000 21.650635
      vertex -12.500000 50.000000 21.650635
    endloop
  endfacet
  facet normal 0.382683 0.000000 -0.923880
    outer loop
      vertex -6.470476 15.000000 24.148146
      vertex -12.500000 50.000000 21.650635
      vertex -6.470476 50.000000 24.148146
    endloop
  endfacet
  facet normal 0.000000 -1.000000 0.000000
    outer loop
      vertex 0.000000 50.000000 0.000000
      vertex -12.500000 50.000000 21.650635
      vertex -17.677670 50.000000 17.677670
    endloop
  endfacet
  facet normal 0.000000 1.000000 0.000000
    outer loop
      vertex 0.000000 15.000000 0.000000
      vertex -17.677670 15.000000 17.677670
      vertex -12.500000 15.000000 21.650635
    endloop
  endfacet
  facet normal 0.608761 0.000000 -0.793353
    outer loop
      vertex -12.500000 15.000000 21.650635
      vertex -17.677670 15.000000 17.677670
      vertex -17.677670 50.000000 17.677670
    endloop
  endfacet
  facet normal 0.608761 0.000000 -0.793353
    outer loop
      vertex -12.500000 15.000000 21.650635
      vertex -17.677670 50.000000 17.677670
      vertex -12.500000 50.000000 21.650635
    endloop
  endfacet
  facet normal 0.000000 -1.000000 0.000000
    outer loop
      vertex 0.000000 50.000000 0.000000
      vertex -17.677670 50.000000 17.677670
      vertex -21.650635 50.000000 12.500000
    endloop
  endfacet
  facet normal 0.000000 1.000000 0.000000
    outer loop
      vertex 0.000000 15.000000 0.000000
      vertex -21.650635 15.000000 12.500000
      vertex -17.677670 15.000000 17.677670
    endloop
  endfacet
  facet normal 0.793353 0.000000 -0.608761
    outer loop
      vertex -17.677670 15.000000 17.677670
      vertex -21.650635 15.000000 12.500000
      vertex -21.650635 50.000000 12.500000
    endloop
  endfacet
  facet normal 0.793353 0.000000 -0.608761
    outer loop
      vertex -17.677670 15.000000 17.677670
      vertex -21.650635 50.000000 12.500000
      vertex -17.677670 50.000000 17.677670
    endloop
  endfacet
  facet normal 0.000000 -1.000000 0.000000
    outer loop
      vertex 0.000000 50.000000 0.000000
      vertex -21.650635 50.000000 12.500000
      vertex -24.148146 50.000000 6.470476
    endloop
  endfacet
  facet normal 0.000000 1.000000 0.000000
    outer loop
      vertex 0.000000 15.000000 0.000000
      vertex -24.148146 15.000000 6.470476
      vertex -21.650635 15.000000 12.500000
    endloop
  endfacet
  facet normal 0.923880 0.000000 -0.382683
    outer loop
      vertex -21.650635 15.000000 12.500000
      vertex -24.148146 15.000000 6.470476
      vertex -24.148146 50.000000 6.470476
    endloop
  endfacet
  facet normal 0.923880 0.000000 -0.382683
    outer loop
      vertex -21.650635 15.000000 12.500000
      vertex -24.148146 50.000000 6.470476
      vertex -21.650635 50.000000 12.500000
    endloop
  endfacet
  facet normal 0.000000 -1.000000 0.000000
    outer loop
      vertex 0.000000 50.000000 0.000000
      vertex -24.148146 50.000000 6.470476
      vertex -25.000000 50.000000 0.000000
    endloop
  endfacet
  facet normal 0.000000 1.000000 0.000000
    outer loop
      vertex 0.000000 15.000000 0.000000
      vertex -25.000000 15.000000 0.000000
      vertex -24.148146 15.000000 6.470476
    endloop
  endfacet
  facet normal 0.991445 0.000000 -0.130526
    outer loop
      vertex -24.148146 15.000000 6.470476
      vertex -25.000000 15.000000 0.000000
      vertex -25.000000 50.000000 0.000000
    endloop
  endfacet
  facet normal 0.991445 0.000000 -0.130526
    outer loop
      vertex -24.148146 15.000000 6.470476
      vertex -25.000000 50.000000 0.000000
      vertex -24.148146 50.000000 6.470476
    endloop
  endfacet
  facet normal 0.000000 -1.000000 0.000000
    outer loop
      vertex 0.000000 50.000000 0.000000
      vertex -25.000000 50.000000 0.000000
      vertex -24.148146 50.000000 -6.470476
    endloop
  endfacet
  facet normal 0.000000 1.000000 0.000000
    outer loop
      vertex 0.000000 15.000000 0.000000
      vertex -24.148146 15.000000 -6.470476
      vertex -25.000000 15.000000 0.000000
    endloop
  endfacet
  facet normal 0.991445 0.000000 0.130526
    outer loop
      vertex -25.000000 15.000000 0.000000
      vertex -24.148146 15.000000 -6.470476
      vertex -24.148146 50.000000 -6.470476
    endloop
  endfacet
  facet normal 0.991445 0.000000 0.130526
    outer loop
      vertex -25.000000 15.000000 0.000000
      vertex -24.148146 50.000000 -6.470476
      vertex -25.000000 50.000000 0.000000
    endloop
  endfacet
  facet normal 0.000000 -1.000000 0.000000
    outer loop
      vertex 0.000000 50.000000 0.000000
      vertex -24.148146 50.000000 -6.470476
      vertex -21.650635 50.000000 -12.500000
    endloop
  endfacet
  facet normal 0.000000 1.000000 0.000000
    outer loop
      vertex 0.000000 15.000000 0.000000
      vertex -21.650635 15.000000 -12.500000
      vertex -24.148146 15.000000 -6.470476
    endloop
  endfacet
  facet normal 0.923880 0.000000 0.382683
    outer loop
      vertex -24.148146 15.000000 -6.470476
      vertex -21.650635 15.000000 -12.500000
      vertex -21.650635 50.000000 -12.500000
    endloop
  endfacet
  facet normal 0.923880 0.000000 0.382683
    outer loop
      vertex -24.148146 15.000000 -6.470476
      vertex -21.650635 50.000000 -12.500000
      vertex -24.148146 50.000000 -6.470476
    endloop
  endfacet
  facet normal 0.000000 -1.000000 0.000000
    outer loop
      vertex 0.000000 50.000000 0.000000
      vertex -21.650635 50.000000 -12.500000
      vertex -17.677670 50.000000 -17.677670
    endloop
  endfacet
  facet normal 0.000000 1.000000 0.000000
    outer loop
      vertex 0.000000 15.000000 0.000000
      vertex -17.677670 15.000000 -17.677670
      vertex -21.650635 15.000000 -12.500000
    endloop
  endfacet
  facet normal 0.793353 0.000000 0.608761
    outer loop
      vertex -21.650635 15.000000 -12.500000
      vertex -17.677670 15.000000 -17.677670
      vertex -17.677670 50.000000 -17.677670
    endloop
  endfacet
  facet normal 0.793353 0.000000 0.608761
    outer loop
      vertex -21.650635 15.000000 -12.500000
      vertex -17.677670 50.000000 -17.677670
      vertex -21.650635 50.000000 -12.500000
    endloop
  endfacet
  facet normal 0.000000 -1.000000 0.000000
    outer loop
      vertex 0.000000 50.000000 0.000000
      vertex -17.677670 50.000000 -17.677670
      vertex -12.500000 50.000000 -21.650635
    endloop
  endfacet
  facet normal 0.000000 1.000000 0.000000
    outer loop
      vertex 0.000000 15.000000 0.000000
      vertex -12.500000 15.000000 -21.650635
      vertex -17.677670 15.000000 -17.677670
    endloop
  endfacet
  facet normal 0.608761 0.000000 0.793353
    outer loop
      vertex -17.677670 15.000000 -17.677670
      vertex -12.500000 15.000000 -21.650635
      vertex -12.500000 50.000000 -21.650635
    endloop
  endfacet
  facet normal 0.608761 0.000000 0.793353
    outer loop
      vertex -17.677670 15.000000 -17.677670
      vertex -12.500000 50.000000 -21.650635
      vertex -17.677670 50.000000 -17.677670
    endloop
  endfacet
  facet normal 0.000000 -1.000000 0.000000
    outer loop
      vertex 0.000000 50.000000 0.000000
      vertex -12.500000 50.000000 -21.650635
      vertex -6.470476 50.000000 -24.148146
    endloop
  endfacet
  facet normal 0.000000 1.000000 0.000000
    outer loop
      vertex 0.000000 15.000000 0.000000
      vertex -6.470476 15.000000 -24.148146
      vertex -12.500000 15.000000 -21.650635
    endloop
  endfacet
  facet normal 0.382683 0.000000 0.923880
    outer loop
      vertex -12.500000 15.000000 -21.650635
      vertex -6.470476 15.000000 -24.148146
      vertex -6.470476 50.000000 -24.148146
    endloop
  endfacet
  facet normal 0.382683 0.000000 0.923880
    outer loop
      vertex -12.500000 15.000000 -21.650635
      vertex -6.470476 50.000000 -24.148146
      vertex -12.500000 50.000000 -21.650635
    endloop
  endfacet
  facet normal 0.000000 -1.000000 0.000000
    outer loop
      vertex 0.000000 50.000000 0.000000
      vertex -6.470476 50.000000 -24.148146
      vertex -0.000000 50.000000 -25.000000
    endloop
  endfacet
  facet normal 0.000000 1.000000 0.000000
    outer loop
      vertex 0.000000 15.000000 0.000000
      vertex -0.000000 15.000000 -25.000000
      vertex -6.470476 15.000000 -24.148146
    endloop
  endfacet
  facet normal 0.130526 0.000000 0.991445
    outer loop
      vertex -6.470476 15.000000 -24.148146
      vertex -0.000000 15.000000 -25.000000
      vertex -0.000000 50.000000 -25.000000
    endloop
  endfacet
  facet normal 0.130526 0.000000 0.991445
    outer loop
      vertex -6.470476 15.000000 -24.148146
      vertex -0.000000 50.000000 -25.000000
      vertex -6.470476 50.000000 -24.148146
    endloop
  endfacet
  facet normal 0.000000 -1.000000 0.000000
    outer loop
      vertex 0.000000 50.000000 0.000000
      vertex -0.000000 50.000000 -25.000000
      vertex 6.470476 50.000000 -24.148146
    endloop
  endfacet
  facet normal 0.000000 1.000000 0.000000
    outer loop
      vertex 0.000000 15.000000 0.000000
      vertex 6.470476 15.000000 -24.148146
      vertex -0.000000 15.000000 -25.000000
    endloop
  endfacet
  facet normal -0.130526 0.000000 0.991445
    outer loop
      vertex -0.000000 15.000000 -25.000000
      vertex 6.470476 15.000000 -24.148146
      vertex 6.470476 50.000000 -24.148146
    endloop
  endfacet
  facet normal -0.130526 0.000000 0.991445
    outer loop
      vertex -0.000000 15.000000 -25.000000
      vertex 6.470476 50.000000 -24.148146
      vertex -0.000000 50.000000 -25.000000
    endloop
  endfacet
  facet normal 0.000000 -1.000000 0.000000
    outer loop
      vertex 0.000000 50.000000 0.000000
      vertex 6.470476 50.000000 -24.148146
      vertex 12.500000 50.000000 -21.650635
    endloop
  endfacet
  facet normal 0.000000 1.000000 0.000000
    outer loop
      vertex 0.000000 15.000000 0.000000
      vertex 12.500000 15.000000 -21.650635
      vertex 6.470476 15.000000 -24.148146
    endloop
  endfacet
  facet normal -0.382683 0.000000 0.923880
    outer loop
      vertex 6.470476 15.000000 -24.148146
      vertex 12.500000 15.000000 -21.650635
      vertex 12.500000 50.000000 -21.650635
    endloop
  endfacet
  facet normal -0.382683 0.000000 0.923880
    outer loop
      vertex 6.470476 15.000000 -24.148146
      vertex 12.500000 50.000000 -21.650635
      vertex 6.470476 50.000000 -24.148146
    endloop
  endfacet
  facet normal 0.000000 -1.000000 0.000000
    outer loop
      vertex 0.000000 50.000000 0.000000
      vertex 12.500000 50.000000 -21.650635
      vertex 17.677670 50.000000 -17.677670
    endloop
  endfacet
  facet normal 0.000000 1.000000 0.000000
    outer loop
      vertex 0.000000 15.000000 0.000000
      vertex 17.677670 15.000000 -17.677670
      vertex 12.500000 15.000000 -21.650635
    endloop
  endfacet
  facet normal -0.608761 0.000000 0.793353
    outer loop
      vertex 12.500000 15.000000 -21.650635
      vertex 17.677670 15.000000 -17.677670
      vertex 17.677670 50.000000 -17.677670
    endloop
  endfacet
  facet normal -0.608761 0.000000 0.793353
    outer loop
      vertex 12.500000 15.000000 -21.650635
      vertex 17.677670 50.000000 -17.677670
      vertex 12.500000 50.000000 -21.650635
    endloop
  endfacet
  facet normal 0.000000 -1.000000 0.000000
    outer loop
      vertex 0.000000 50.000000 0.000000
      vertex 17.677670 50.000000 -17.677670
      vertex 21.650635 50.000000 -12.500000
    endloop
  endfacet
  facet normal 0.000000 1.000000 0.000000
    outer loop
      vertex 0.000000 15.000000 0.000000
      vertex 21.650635 15.000000 -12.500000
      vertex 17.677670 15.000000 -17.677670
    endloop
  endfacet
  facet normal -0.793353 0.000000 0.608761
    outer loop
      vertex 17.677670 15.000000 -17.677670
      vertex 21.650635 15.000000 -12.500000
      vertex 21.650635 50.000000 -12.500000
    endloop
  endfacet
  facet normal -0.793353 0.000000 0.608761
    outer loop
      vertex 17.677670 15.000000 -17.677670
      vertex 21.650635 50.000000 -12.500000
      vertex 17.677670 50.000000 -17.677670
    endloop
  endfacet
  facet normal 0.000000 -1.000000 0.000000
    outer loop
      vertex 0.000000 50.000000 0.000000
      vertex 21.650635 50.000000 -12.500000
      vertex 24.148146 50.000000 -6.470476
    endloop
  endfacet
  facet normal 0.000000 1.000000 0.000000
    outer loop
      vertex 0.000000 15.000000 0.000000
      vertex 24.148146 15.000000 -6.470476
      vertex 21.650635 15.000000 -12.500000
    endloop
  endfacet
  facet normal -0.923880 0.000000 0.382683
    outer loop
      vertex 21.650635 15.000000 -12.500000
      vertex 24.148146 15.000000 -6.470476
      vertex 24.148146 50.000000 -6.470476
    endloop
  endfacet
  facet normal -0.923880 0.000000 0.382683
    outer loop
      vertex 21.650635 15.000000 -12.500000
      vertex 24.148146 50.000000 -6.470476
      vertex 21.650635 50.000000 -12.500000
    endloop
  endfacet
  facet normal 0.000000 -1.000000 0.000000
    outer loop
      vertex 0.000000 50.000000 0.000000
      vertex 24.148146 50.000000 -6.470476
      vertex 25.000000 50.000000 0.000000
    endloop
  endfacet
  facet normal 0.000000 1.000000 0.000000
    outer loop
      vertex 0.000000 15.000000 0.000000
      vertex 25.000000 15.000000 0.000000
      vertex 24.148146 15.000000 -6.470476
    endloop
  endfacet
  facet normal -0.991445 0.000000 0.130526
    outer loop
      vertex 24.148146 15.000000 -6.470476
      vertex 25.000000 15.000000 0.000000
      vertex 25.000000 50.000000 0.000000
    endloop
  endfacet
  facet normal -0.991445 0.000000 0.130526
    outer loop
      vertex 24.148146 15.000000 -6.470476
      vertex 25.000000 50.000000 0.000000
      vertex 24.148146 50.000000 -6.470476
    endloop
  endfacet
  facet normal 0.000000 -1.000000 0.000000
    outer loop
      vertex 0.000000 62.000000 0.000000
      vertex 2.000000 62.000000 0.000000
      vertex 1.931852 62.000000 0.517638
    endloop
  endfacet
  facet normal 0.000000 1.000000 0.000000
    outer loop
      vertex 0.000000 50.000000 0.000000
      vertex 1.931852 50.000000 0.517638
      vertex 2.000000 50.000000 0.000000
    endloop
  endfacet
  facet normal -0.991445 0.000000 -0.130526
    outer loop
      vertex 2.000000 50.000000 0.000000
      vertex 1.931852 50.000000 0.517638
      vertex 1.931852 62.000000 0.517638
    endloop
  endfacet
  facet normal -0.991445 0.000000 -0.130526
    outer loop
      vertex 2.000000 50.000000 0.000000
      vertex 1.931852 62.000000 0.517638
      vertex 2.000000 62.000000 0.000000
    endloop
  endfacet
  facet normal 0.000000 -1.000000 0.000000
    outer loop
      vertex 0.000000 62.000000 0.000000
      vertex 1.931852 62.000000 0.517638
      vertex 1.732051 62.000000 1.000000
    endloop
  endfacet
  facet normal 0.000000 1.000000 0.000000
    outer loop
      vertex 0.000000 50.000000 0.000000
      vertex 1.732051 50.000000 1.000000
      vertex 1.931852 50.000000 0.517638
    endloop
  endfacet
  facet normal -0.923880 0.000000 -0.382683
    outer loop
      vertex 1.931852 50.000000 0.517638
      vertex 1.732051 50.000000 1.000000
      vertex 1.732051 62.000000 1.000000
    endloop
  endfacet
  facet normal -0.923880 0.000000 -0.382683
    outer loop
      vertex 1.931852 50.000000 0.517638
      vertex 1.732051 62.000000 1.000000
      vertex 1.931852 62.000000 0.517638
    endloop
  endfacet
  facet normal 0.000000 -1.000000 0.000000
    outer loop
      vertex 0.000000 62.000000 0.000000
      vertex 1.732051 62.000000 1.000000
      vertex 1.414214 62.000000 1.414214
    endloop
  endfacet
  facet normal 0.000000 1.000000 0.000000
    outer loop
      vertex 0.000000 50.000000 0.000000
      vertex 1.414214 50.000000 1.414214
      vertex 1.732051 50.000000 1.000000
    endloop
  endfacet
  facet normal -0.793353 0.000000 -0.608761
    outer loop
      vertex 1.732051 50.000000 1.000000
      vertex 1.414214 50.000000 1.414214
      vertex 1.414214 62.000000 1.414214
    endloop
  endfacet
  facet normal -0.793353 0.000000 -0.608761
    outer loop
      vertex 1.732051 50.000000 1.000000
      vertex 1.414214 62.000000 1.414214
      vertex 1.732051 62.000000 1.000000
    endloop
  endfacet
  facet normal 0.000000 -1.000000 0.000000
    outer loop
      vertex 0.000000 62.000000 0.000000
      vertex 1.414214 62.000000 1.414214
      vertex 1.000000 62.000000 1.732051
    endloop
  endfacet
  facet normal 0.000000 1.000000 0.000000
    outer loop
      vertex 0.000000 50.000000 0.000000
      vertex 1.000000 50.000000 1.732051
      vertex 1.414214 50.000000 1.414214
    endloop
  endfacet
  facet normal -0.608761 0.000000 -0.793353
    outer loop
      vertex 1.414214 50.000000 1.414214
      vertex 1.000000 50.000000 1.732051
      vertex 1.000000 62.000000 1.732051
    endloop
  endfacet
  facet normal -0.608761 0.000000 -0.793353
    outer loop
      vertex 1.414214 50.000000 1.414214
      vertex 1.000000 62.000000 1.732051
      vertex 1.414214 62.000000 1.414214
    endloop
  endfacet
  facet normal 0.000000 -1.000000 0.000000
    outer loop
      vertex 0.000000 62.000000 0.000000
      vertex 1.000000 62.000000 1.732051
      vertex 0.517638 62.000000 1.931852
    endloop
  endfacet
  facet normal 0.000000 1.000000 0.000000
    outer loop
      vertex 0.000000 50.000000 0.000000
      vertex 0.517638 50.000000 1.931852
      vertex 1.000000 50.000000 1.732051
    endloop
  endfacet
  facet normal -0.382683 0.000000 -0.923880
    outer loop
      vertex 1.000000 50.000000 1.732051
      vertex 0.517638 50.000000 1.931852
      vertex 0.517638 62.000000 1.931852
    endloop
  endfacet
  facet normal -0.382683 0.000000 -0.923880
    outer loop
      vertex 1.000000 50.000000 1.732051
      vertex 0.517638 62.000000 1.931852
      vertex 1.000000 62.000000 1.732051
    endloop
  endfacet
  facet normal 0.000000 -1.000000 0.000000
    outer loop
      vertex 0.000000 62.000000 0.000000
      vertex 0.517638 62.000000 1.931852
      vertex 0.000000 62.000000 2.000000
    endloop
  endfacet
  facet normal 0.000000 1.000000 0.000000
    outer loop
      vertex 0.000000 50.000000 0.000000
      vertex 0.000000 50.000000 2.000000
      vertex 0.517638 50.000000 1.931852
    endloop
  endfacet
  facet normal -0.130526 0.000000 -0.991445
    outer loop
      vertex 0.517638 50.000000 1.931852
      vertex 0.000000 50.000000 2.000000
      vertex 0.000000 62.000000 2.000000
    endloop
  endfacet
  facet normal -0.130526 0.000000 -0.991445
    outer loop
      vertex 0.517638 50.000000 1.931852
      vertex 0.000000 62.000000 2.000000
      vertex 0.517638 62.000000 1.931852
    endloop
  endfacet
  facet normal 0.000000 -1.000000 0.000000
    outer loop
      vertex 0.000000 62.000000 0.000000
      vertex 0.000000 62.000000 2.000000
      vertex -0.517638 62.000000 1.931852
    endloop
  endfacet
  facet normal 0.000000 1.000000 0.000000
    outer loop
      vertex 0.000000 50.000000 0.000000
      vertex -0.517638 50.000000 1.931852
      vertex 0.000000 50.000000 2.000000
    endloop
  endfacet
  facet normal 0.130526 0.000000 -0.991445
    outer loop
      vertex 0.000000 50.000000 2.000000
      vertex -0.517638 50.000000 1.931852
      vertex -0.517638 62.000000 1.931852
    endloop
  endfacet
  facet normal 0.130526 0.000000 -0.991445
    outer loop
      vertex 0.000000 50.000000 2.000000
      vertex -0.517638 62.000000 1.931852
      vertex 0.000000 62.000000 2.000000
    endloop
  endfacet
  facet normal 0.000000 -1.000000 0.000000
    outer loop
      vertex 0.000000 62.000000 0.000000
      vertex -0.517638 62.000000 1.931852
      vertex -1.000000 62.000000 1.732051
    endloop
  endfacet
  facet normal 0.000000 1.000000 0.000000
    outer loop
      vertex 0.000000 50.000000 0.000000
      vertex -1.000000 50.000000 1.732051
      vertex -0.517638 50.000000 1.931852
    endloop
  endfacet
  facet normal 0.382683 0.000000 -0.923880
    outer loop
      vertex -0.517638 50.000000 1.931852
      vertex -1.000000 50.000000 1.732051
      vertex -1.000000 62.000000 1.732051
    endloop
  endfacet
  facet normal 0.382683 0.000000 -0.923880
    outer loop
      vertex -0.517638 50.000000 1.931852
      vertex -1.000000 62.000000 1.732051
      vertex -0.517638 62.000000 1.931852
    endloop
  endfacet
  facet normal 0.000000 -1.000000 0.000000
    outer loop
      vertex 0.000000 62.000000 0.000000
      vertex -1.000000 62.000000 1.732051
      vertex -1.414214 62.000000 1.414214
    endloop
  endfacet
  facet normal 0.000000 1.000000 0.000000
    outer loop
      vertex 0.000000 50.000000 0.000000
      vertex -1.414214 50.000000 1.414214
      vertex -1.000000 50.000000 1.732051
    endloop
  endfacet
  facet normal 0.608761 0.000000 -0.793353
    outer loop
      vertex -1.000000 50.000000 1.732051
      vertex -1.414214 50.000000 1.414214
      vertex -1.414214 62.000000 1.414214
    endloop
  endfacet
  facet normal 0.608761 0.000000 -0.793353
    outer loop
      vertex -1.000000 50.000000 1.732051
      vertex -1.414214 62.000000 1.414214
      vertex -1.000000 62.000000 1.732051
    endloop
  endfacet
  facet normal 0.000000 -1.000000 0.000000
    outer loop
      vertex 0.000000 62.000000 0.000000
      vertex -1.414214 62.000000 1.414214
      vertex -1.732051 62.000000 1.000000
    endloop
  endfacet
  facet normal 0.000000 1.000000 0.000000
    outer loop
      vertex 0.000000 50.000000 0.000000
      vertex -1.732051 50.000000 1.000000
      vertex -1.414214 50.000000 1.414214
    endloop
  endfacet
  facet normal 0.793353 0.000000 -0.608761
    outer loop
      vertex -1.414214 50.000000 1.414214
      vertex -1.732051 50.000000 1.000000
      vertex -1.732051 62.000000 1.000000
    endloop
  endfacet
  facet normal 0.793353 0.000000 -0.608761
    outer loop
      vertex -1.414214 50.000000 1.414214
      vertex -1.732051 62.000000 1.000000
      vertex -1.414214 62.000000 1.414214
    endloop
  endfacet
  facet normal 0.000000 -1.000000 0.000000
    outer loop
      vertex 0.000000 62.000000 0.000000
      vertex -1.732051 62.000000 1.000000
      vertex -1.931852 62.000000 0.517638
    endloop
  endfacet
  facet normal 0.000000 1.000000 0.000000
    outer loop
      vertex 0.000000 50.000000 0.000000
      vertex -1.931852 50.000000 0.517638
      vertex -1.732051 50.000000 1.000000
    endloop
  endfacet
  facet normal 0.923880 0.000000 -0.382683
    outer loop
      vertex -1.732051 50.000000 1.000000
      vertex -1.931852 50.000000 0.517638
      vertex -1.931852 62.000000 0.517638
    endloop
  endfacet
  facet normal 0.923880 0.000000 -0.382683
    outer loop
      vertex -1.732051 50.000000 1.000000
      vertex -1.931852 62.000000 0.517638
      vertex -1.732051 62.000000 1.000000
    endloop
  endfacet
  facet normal 0.000000 -1.000000 0.000000
    outer loop
      vertex 0.000000 62.000000 0.000000
      vertex -1.931852 62.000000 0.517638
      vertex -2.000000 62.000000 0.000000
    endloop
  endfacet
  facet normal 0.000000 1.000000 0.000000
    outer loop
      vertex 0.000000 50.000000 0.000000
      vertex -2.000000 50.000000 0.000000
      vertex -1.931852 50.000000 0.517638
    endloop
  endfacet
  facet normal 0.991445 0.000000 -0.130526
    outer loop
      vertex -1.931852 50.000000 0.517638
      vertex -2.000000 50.000000 0.000000
      vertex -2.000000 62.000000 0.000000
    endloop
  endfacet
  facet normal 0.991445 0.000000 -0.130526
    outer loop
      vertex -1.931852 50.000000 0.517638
      vertex -2.000000 62.000000 0.000000
      vertex -1.931852 62.000000 0.517638
    endloop
  endfacet
  facet normal 0.000000 -1.000000 0.000000
    outer loop
      vertex 0.000000 62.000000 0.000000
      vertex -2.000000 62.000000 0.000000
      vertex -1.931852 62.000000 -0.517638
    endloop
  endfacet
  facet normal 0.000000 1.000000 0.000000
    outer loop
      vertex 0.000000 50.000000 0.000000
      vertex -1.931852 50.000000 -0.517638
      vertex -2.000000 50.000000 0.000000
    endloop
  endfacet
  facet normal 0.991445 0.000000 0.130526
    outer loop
      vertex -2.000000 50.000000 0.000000
      vertex -1.931852 50.000000 -0.517638
      vertex -1.931852 62.000000 -0.517638
    endloop
  endfacet
  facet normal 0.991445 0.000000 0.130526
    outer loop
      vertex -2.000000 50.000000 0.000000
      vertex -1.931852 62.000000 -0.517638
      vertex -2.000000 62.000000 0.000000
    endloop
  endfacet
  facet normal 0.000000 -1.000000 0.000000
    outer loop
      vertex 0.000000 62.000000 0.000000
      vertex -1.931852 62.000000 -0.517638
      vertex -1.732051 62.000000 -1.000000
    endloop
  endfacet
  facet normal 0.000000 1.000000 0.000000
    outer loop
      vertex 0.000000 50.000000 0.000000
      vertex -1.732051 50.000000 -1.000000
      vertex -1.931852 50.000000 -0.517638
    endloop
  endfacet
  facet normal 0.923880 0.000000 0.382683
    outer loop
      vertex -1.931852 50.000000 -0.517638
      vertex -1.732051 50.000000 -1.000000
      vertex -1.732051 62.000000 -1.000000
    endloop
  endfacet
  facet normal 0.923880 0.000000 0.382683
    outer loop
      vertex -1.931852 50.000000 -0.517638
      vertex -1.732051 62.000000 -1.000000
      vertex -1.931852 62.000000 -0.517638
    endloop
  endfacet
  facet normal 0.000000 -1.000000 0.000000
    outer loop
      vertex 0.000000 62.000000 0.000000
      vertex -1.732051 62.000000 -1.000000
      vertex -1.414214 62.000000 -1.414214
    endloop
  endfacet
  facet normal 0.000000 1.000000 0.000000
    outer loop
      vertex 0.000000 50.000000 0.000000
      vertex -1.414214 50.000000 -1.414214
      vertex -1.732051 50.000000 -1.000000
    endloop
  endfacet
  facet normal 0.793353 0.000000 0.608761
    outer loop
      vertex -1.732051 50.000000 -1.000000
      vertex -1.414214 50.000000 -1.414214
      vertex -1.414214 62.000000 -1.414214
    endloop
  endfacet
  facet normal 0.793353 0.000000 0.608761
    outer loop
      vertex -1.732051 50.000000 -1.000000
      vertex -1.414214 62.000000 -1.414214
      vertex -1.732051 62.000000 -1.000000
    endloop
  endfacet
  facet normal 0.000000 -1.000000 0.000000
    outer loop
      vertex 0.000000 62.000000 0.000000
      vertex -1.414214 62.000000 -1.414214
      vertex -1.000000 62.000000 -1.732051
    endloop
  endfacet
  facet normal 0.000000 1.000000 0.000000
    outer loop
      vertex 0.000000 50.000000 0.000000
      vertex -1.000000 50.000000 -1.732051
      vertex -1.414214 50.000000 -1.414214
    endloop
  endfacet
  facet normal 0.608761 0.000000 0.793353
    outer loop
      vertex -1.414214 50.000000 -1.414214
      vertex -1.000000 50.000000 -1.732051
      vertex -1.000000 62.000000 -1.732051
    endloop
  endfacet
  facet normal 0.608761 0.000000 0.793353
    outer loop
      vertex -1.414214 50.000000 -1.414214
      vertex -1.000000 62.000000 -1.732051
      vertex -1.414214 62.000000 -1.414214
    endloop
  endfacet
  facet normal 0.000000 -1.000000 0.000000
    outer loop
      vertex 0.000000 62.000000 0.000000
      vertex -1.000000 62.000000 -1.732051
      vertex -0.517638 62.000000 -1.931852
    endloop
  endfacet
  facet normal 0.000000 1.000000 0.000000
    outer loop
      vertex 0.000000 50.000000 0.000000
      vertex -0.517638 50.000000 -1.931852
      vertex -1.000000 50.000000 -1.732051
    endloop
  endfacet
  facet normal 0.382683 0.000000 0.923880
    outer loop
      vertex -1.000000 50.000000 -1.732051
      vertex -0.517638 50.000000 -1.931852
      vertex -0.517638 62.000000 -1.931852
    endloop
  endfacet
  facet normal 0.382683 0.000000 0.923880
    outer loop
      vertex -1.000000 50.000000 -1.732051
      vertex -0.517638 62.000000 -1.931852
      vertex -1.000000 62.000000 -1.732051
    endloop
  endfacet
  facet normal 0.000000 -1.000000 0.000000
    outer loop
      vertex 0.000000 62.000000 0.000000
      vertex -0.517638 62.000000 -1.931852
      vertex -0.000000 62.000000 -2.000000
    endloop
  endfacet
  facet normal 0.000000 1.000000 0.000000
    outer loop
      vertex 0.000000 50.000000 0.000000
      vertex -0.000000 50.000000 -2.000000
      vertex -0.517638 50.000000 -1.931852
    endloop
  endfacet
  facet normal 0.130526 0.000000 0.991445
    outer loop
      vertex -0.517638 50.000000 -1.931852
      vertex -0.000000 50.000000 -2.000000
      vertex -0.000000 62.000000 -2.000000
    endloop
  endfacet
  facet normal 0.130526 0.000000 0.991445
    outer loop
      vertex -0.517638 50.000000 -1.931852
      vertex -0.000000 62.000000 -2.000000
      vertex -0.517638 62.000000 -1.931852
    endloop
  endfacet
  facet normal 0.000000 -1.000000 0.000000
    outer loop
      vertex 0.000000 62.000000 0.000000
      vertex -0.000000 62.000000 -2.000000
      vertex 0.517638 62.000000 -1.931852
    endloop
  endfacet
  facet normal 0.000000 1.000000 0.000000
    outer loop
      vertex 0.000000 50.000000 0.000000
      vertex 0.517638 50.000000 -1.931852
      vertex -0.000000 50.000000 -2.000000
    endloop
  endfacet
  facet normal -0.130526 0.000000 0.991445
    outer loop
      vertex -0.000000 50.000000 -2.000000
      vertex 0.517638 50.000000 -1.931852
      vertex 0.517638 62.000000 -1.931852
    endloop
  endfacet
  facet normal -0.130526 0.000000 0.991445
    outer loop
      vertex -0.000000 50.000000 -2.000000
      vertex 0.517638 62.000000 -1.931852
      vertex -0.000000 62.000000 -2.000000
    endloop
  endfacet
  facet normal 0.000000 -1.000000 0.000000
    outer loop
      vertex 0.000000 62.000000 0.000000
      vertex 0.517638 62.000000 -1.931852
      vertex 1.000000 62.000000 -1.732051
    endloop
  endfacet
  facet normal 0.000000 1.000000 0.000000
    outer loop
      vertex 0.000000 50.000000 0.000000
      vertex 1.000000 50.000000 -1.732051
      vertex 0.517638 50.000000 -1.931852
    endloop
  endfacet
  facet normal -0.382683 0.000000 0.923880
    outer loop
      vertex 0.517638 50.000000 -1.931852
      vertex 1.000000 50.000000 -1.732051
      vertex 1.000000 62.000000 -1.732051
    endloop
  endfacet
  facet normal -0.382683 0.000000 0.923880
    outer loop
      vertex 0.517638 50.000000 -1.931852
      vertex 1.000000 62.000000 -1.732051
      vertex 0.517638 62.000000 -1.931852
    endloop
  endfacet
  facet normal 0.000000 -1.000000 0.000000
    outer loop
      vertex 0.000000 62.000000 0.000000
      vertex 1.000000 62.000000 -1.732051
      vertex 1.414214 62.000000 -1.414214
    endloop
  endfacet
  facet normal 0.000000 1.000000 0.000000
    outer loop
      vertex 0.000000 50.000000 0.000000
      vertex 1.414214 50.000000 -1.414214
      vertex 1.000000 50.000000 -1.732051
    endloop
  endfacet
  facet normal -0.608761 0.000000 0.793353
    outer loop
      vertex 1.000000 50.000000 -1.732051
      vertex 1.414214 50.000000 -1.414214
      vertex 1.414214 62.000000 -1.414214
    endloop
  endfacet
  facet normal -0.608761 0.000000 0.793353
    outer loop
      vertex 1.000000 50.000000 -1.732051
      vertex 1.414214 62.000000 -1.414214
      vertex 1.000000 62.000000 -1.732051
    endloop
  endfacet
  facet normal 0.000000 -1.000000 0.000000
    outer loop
      vertex 0.000000 62.000000 0.000000
      vertex 1.414214 62.000000 -1.414214
      vertex 1.732051 62.000000 -1.000000
    endloop
  endfacet
  facet normal 0.000000 1.000000 0.000000
    outer loop
      vertex 0.000000 50.000000 0.000000
      vertex 1.732051 50.000000 -1.000000
      vertex 1.414214 50.000000 -1.414214
    endloop
  endfacet
  facet normal -0.793353 0.000000 0.608761
    outer loop
      vertex 1.414214 50.000000 -1.414214
      vertex 1.732051 50.000000 -1.000000
      vertex 1.732051 62.000000 -1.000000
    endloop
  endfacet
  facet normal -0.793353 0.000000 0.608761
    outer loop
      vertex 1.414214 50.000000 -1.414214
      vertex 1.732051 62.000000 -1.000000
      vertex 1.414214 62.000000 -1.414214
    endloop
  endfacet
  facet normal 0.000000 -1.000000 0.000000
    outer loop
      vertex 0.000000 62.000000 0.000000
      vertex 1.732051 62.000000 -1.000000
      vertex 1.931852 62.000000 -0.517638
    endloop
  endfacet
  facet normal 0.000000 1.000000 0.000000
    outer loop
      vertex 0.000000 50.000000 0.000000
      vertex 1.931852 50.000000 -0.517638
      vertex 1.732051 50.000000 -1.000000
    endloop
  endfacet
  facet normal -0.923880 0.000000 0.382683
    outer loop
      vertex 1.732051 50.000000 -1.000000
      vertex 1.931852 50.000000 -0.517638
      vertex 1.931852 62.000000 -0.517638
    endloop
  endfacet
  facet normal -0.923880 0.000000 0.382683
    outer loop
      vertex 1.732051 50.000000 -1.000000
      vertex 1.931852 62.000000 -0.517638
      vertex 1.732051 62.000000 -1.000000
    endloop
  endfacet
  facet normal 0.000000 -1.000000 0.000000
    outer loop
      vertex 0.000000 62.000000 0.000000
      vertex 1.931852 62.000000 -0.517638
      vertex 2.000000 62.000000 0.000000
    endloop
  endfacet
  facet normal 0.000000 1.000000 0.000000
    outer loop
      vertex 0.000000 50.000000 0.000000
      vertex 2.000000 50.000000 0.000000
      vertex 1.931852 50.000000 -0.517638
    endloop
  endfacet
  facet normal -0.991445 0.000000 0.130526
    outer loop
      vertex 1.931852 50.000000 -0.517638
      vertex 2.000000 50.000000 0.000000
      vertex 2.000000 62.000000 0.000000
    endloop
  endfacet
  facet normal -0.991445 0.000000 0.130526
    outer loop
      vertex 1.931852 50.000000 -0.517638
      vertex 2.000000 62.000000 0.000000
      vertex 1.931852 62.000000 -0.517638
    endloop
  endfacet
endsolid blower_fan_5v_radial