solid n20_gear_motor_encoder
  facet normal 0.000000 -1.000000 0.000000
    outer loop
      vertex -6.000000 10.000000 -22.500000
      vertex 6.000000 10.000000 -22.500000
      vertex 6.000000 10.000000 22.500000
    endloop
  endfacet
  facet normal 0.000000 -1.000000 0.000000
    outer loop
      vertex -6.000000 10.000000 -22.500000
      vertex 6.000000 10.000000 22.500000
      vertex -6.000000 10.000000 22.500000
    endloop
  endfacet
  facet normal 0.000000 1.000000 0.000000
    outer loop
      vertex -6.000000 0.000000 22.500000
      vertex 6.000000 0.000000 22.500000
      vertex 6.000000 0.000000 -22.500000
    endloop
  endfacet
  facet normal 0.000000 1.000000 0.000000
    outer loop
      vertex -6.000000 0.000000 22.500000
      vertex 6.000000 0.000000 -22.500000
      vertex -6.000000 0.000000 -22.500000
    endloop
  endfacet
  facet normal 0.000000 0.000000 -1.000000
    outer loop
      vertex -6.000000 10.000000 22.500000
      vertex 6.000000 10.000000 22.500000
      vertex 6.000000 0.000000 22.500000
    endloop
  endfacet
  facet normal 0.000000 0.000000 -1.000000
    outer loop
      vertex -6.000000 10.000000 22.500000
      vertex 6.000000 0.000000 22.500000
      vertex -6.000000 0.000000 22.500000
    endloop
  endfacet
  facet normal 0.000000 0.000000 1.000000
    outer loop
      vertex 6.000000 0.000000 -22.500000
      vertex 6.000000 10.000000 -22.500000
      vertex -6.000000 10.000000 -22.500000
    endloop
  endfacet
  facet normal 0.000000 0.000000 1.000000
    outer loop
      vertex 6.000000 0.000000 -22.500000
      vertex -6.000000 10.000000 -22.500000
      vertex -6.000000 0.000000 -22.500000
    endloop
  endfacet
  facet normal -1.000000 0.000000 0.000000
    outer loop
      vertex 6.000000 0.000000 22.500000
      vertex 6.000000 10.000000 22.500000
      vertex 6.000000 10.000000 -22.500000
    endloop
  endfacet
  facet normal -1.000000 0.000000 0.000000
    outer loop
      vertex 6.000000 0.000000 22.500000
      vertex 6.000000 10.000000 -22.500000
      vertex 6.000000 0.000000 -22.500000
    endloop
  endfacet
  facet normal 1.000000 0.000000 0.000000
    outer loop
      vertex -6.000000 0.000000 -22.500000
      vertex -6.000000 10.000000 -22.500000
      vertex -6.000000 10.000000 22.500000
    endloop
  endfacet
  facet normal 1.000000 0.000000 0.000000
    outer loop
      vertex -6.000000 0.000000 -22.500000
      vertex -6.000000 10.000000 22.500000
      vertex -6.000000 0.000000 22.500000
    endloop
  endfacet
  facet normal 0.000000 0.000000 1.000000
    outer loop
      vertex -7.100000 3.900000 -21.225000
      vertex -4.900000 3.900000 -21.225000
      vertex -4.900000 6.100000 -21.225000
    endloop
  endfacet
  facet normal 0.000000 0.000000 1.000000
    outer loop
      vertex -7.100000 3.900000 -21.225000
      vertex -4.900000 6.100000 -21.225000
      vertex -7.100000 6.100000 -21.225000
    endloop
  endfacet
  facet normal 0.000000 0.000000 -1.000000
    outer loop
      vertex -7.100000 6.100000 -19.675000
      vertex -4.900000 6.100000 -19.675000
      vertex -4.900000 3.900000 -19.675000
    endloop
  endfacet
  facet normal 0.000000 0.000000 -1.000000
    outer loop
      vertex -7.100000 6.100000 -19.675000
      vertex -4.900000 3.900000 -19.675000
      vertex -7.100000 3.900000 -19.675000
    endloop
  endfacet
  facet normal 0.000000 -1.000000 0.000000
    outer loop
      vertex -7.100000 6.100000 -21.225000
      vertex -4.900000 6.100000 -21.225000
      vertex -4.900000 6.100000 -19.675000
    endloop
  endfacet
  facet normal 0.000000 -1.000000 0.000000
    outer loop
      vertex -7.100000 6.100000 -21.225000
      vertex -4.900000 6.100000 -19.675000
      vertex -7.100000 6.100000 -19.675000
    endloop
  endfacet
  facet normal 0.000000 1.000000 0.000000
    outer loop
      vertex -4.900000 3.900000 -19.675000
      vertex -4.900000 3.900000 -21.225000
      vertex -7.100000 3.900000 -21.225000
    endloop
  endfacet
  facet normal 0.000000 1.000000 0.000000
    outer loop
      vertex -4.900000 3.900000 -19.675000
      vertex -7.100000 3.900000 -21.225000
      vertex -7.100000 3.900000 -19.675000
    endloop
  endfacet
  facet normal -1.000000 0.000000 0.000000
    outer loop
      vertex -4.900000 6.100000 -19.675000
      vertex -4.900000 6.100000 -21.225000
      vertex -4.900000 3.900000 -21.225000
    endloop
  endfacet
  facet normal -1.000000 0.000000 0.000000
    outer loop
      vertex -4.900000 6.100000 -19.675000
      vertex -4.900000 3.900000 -21.225000
      vertex -4.900000 3.900000 -19.675000
    endloop
  endfacet
  facet normal 1.000000 0.000000 0.000000
    outer loop
      vertex -7.100000 3.900000 -19.675000
      vertex -7.100000 3.900000 -21.225000
      vertex -7.100000 6.100000 -21.225000
    endloop
  endfacet
  facet normal 1.000000 0.000000 0.000000
    outer loop
      vertex -7.100000 3.900000 -19.675000
      vertex -7.100000 6.100000 -21.225000
      vertex -7.100000 6.100000 -19.675000
    endloop
  endfacet
  facet normal 0.000000 0.000000 1.000000
    outer loop
      vertex -6.330000 4.670000 -25.200000
      vertex -5.670000 4.670000 -25.200000
      vertex -5.670000 5.330000 -25.200000
    endloop
  endfacet
  facet normal 0.000000 0.000000 1.000000
    outer loop
      vertex -6.330000 4.670000 -25.200000
      vertex -5.670000 5.330000 -25.200000
      vertex -6.330000 5.330000 -25.200000
    endloop
  endfacet
  facet normal 0.000000 0.000000 -1.000000
    outer loop
      vertex -6.330000 5.330000 -20.000000
      vertex -5.670000 5.330000 -20.000000
      vertex -5.670000 4.670000 -20.000000
    endloop
  endfacet
  facet normal 0.000000 0.000000 -1.000000
    outer loop
      vertex -6.330000 5.330000 -20.000000
      vertex -5.670000 4.670000 -20.000000
      vertex -6.330000 4.670000 -20.000000
    endloop
  endfacet
  facet normal 0.000000 -1.000000 0.000000
    outer loop
      vertex -6.330000 5.330000 -25.200000
      vertex -5.670000 5.330000 -25.200000
      vertex -5.670000 5.330000 -20.000000
    endloop
  endfacet
  facet normal 0.000000 -1.000000 0.000000
    outer loop
      vertex -6.330000 5.330000 -25.200000
      vertex -5.670000 5.330000 -20.000000
      vertex -6.330000 5.330000 -20.000000
    endloop
  endfacet
  facet normal 0.000000 1.000000 0.000000
    outer loop
      vertex -5.670000 4.670000 -20.000000
      vertex -5.670000 4.670000 -25.200000
      vertex -6.330000 4.670000 -25.200000
    endloop
  endfacet
  facet normal 0.000000 1.000000 0.000000
    outer loop
      vertex -5.670000 4.670000 -20.000000
      vertex -6.330000 4.670000 -25.200000
      vertex -6.330000 4.670000 -20.000000
    endloop
  endfacet
  facet normal -1.000000 0.000000 0.000000
    outer loop
      vertex -5.670000 5.330000 -20.000000
      vertex -5.670000 5.330000 -25.200000
      vertex -5.670000 4.670000 -25.200000
    endloop
  endfacet
  facet normal -1.000000 0.000000 0.000000
    outer loop
      vertex -5.670000 5.330000 -20.000000
      vertex -5.670000 4.670000 -25.200000
      vertex -5.670000 4.670000 -20.000000
    endloop
  endfacet
  facet normal 1.000000 0.000000 0.000000
    outer loop
      vertex -6.330000 4.670000 -20.000000
      vertex -6.330000 4.670000 -25.200000
      vertex -6.330000 5.330000 -25.200000
    endloop
  endfacet
  facet normal 1.000000 0.000000 0.000000
    outer loop
      vertex -6.330000 4.670000 -20.000000
      vertex -6.330000 5.330000 -25.200000
      vertex -6.330000 5.330000 -20.000000
    endloop
  endfacet
  facet normal 0.000000 0.000000 1.000000
    outer loop
      vertex -4.700000 3.900000 -21.225000
      vertex -2.500000 3.900000 -21.225000
      vertex -2.500000 6.100000 -21.225000
    endloop
  endfacet
  facet normal 0.000000 0.000000 1.000000
    outer loop
      vertex -4.700000 3.900000 -21.225000
      vertex -2.500000 6.100000 -21.225000
      vertex -4.700000 6.100000 -21.225000
    endloop
  endfacet
  facet normal 0.000000 0.000000 -1.000000
    outer loop
      vertex -4.700000 6.100000 -19.675000
      vertex -2.500000 6.100000 -19.675000
      vertex -2.500000 3.900000 -19.675000
    endloop
  endfacet
  facet normal 0.000000 0.000000 -1.000000
    outer loop
      vertex -4.700000 6.100000 -19.675000
      vertex -2.500000 3.900000 -19.675000
      vertex -4.700000 3.900000 -19.675000
    endloop
  endfacet
  facet normal 0.000000 -1.000000 0.000000
    outer loop
      vertex -4.700000 6.100000 -21.225000
      vertex -2.500000 6.100000 -21.225000
      vertex -2.500000 6.100000 -19.675000
    endloop
  endfacet
  facet normal 0.000000 -1.000000 0.000000
    outer loop
      vertex -4.700000 6.100000 -21.225000
      vertex -2.500000 6.100000 -19.675000
      vertex -4.700000 6.100000 -19.675000
    endloop
  endfacet
  facet normal 0.000000 1.000000 0.000000
    outer loop
      vertex -2.500000 3.900000 -19.675000
      vertex -2.500000 3.900000 -21.225000
      vertex -4.700000 3.900000 -21.225000
    endloop
  endfacet
  facet normal 0.000000 1.000000 0.000000
    outer loop
      vertex -2.500000 3.900000 -19.675000
      vertex -4.700000 3.900000 -21.225000
      vertex -4.700000 3.900000 -19.675000
    endloop
  endfacet
  facet normal -1.000000 0.000000 0.000000
    outer loop
      vertex -2.500000 6.100000 -19.675000
      vertex -2.500000 6.100000 -21.225000
      vertex -2.500000 3.900000 -21.225000
    endloop
  endfacet
  facet normal -1.000000 0.000000 0.000000
    outer loop
      vertex -2.500000 6.100000 -19.675000
      vertex -2.500000 3.900000 -21.225000
      vertex -2.500000 3.900000 -19.675000
    endloop
  endfacet
  facet normal 1.000000 0.000000 0.000000
    outer loop
      vertex -4.700000 3.900000 -19.675000
      vertex -4.700000 3.900000 -21.225000
      vertex -4.700000 6.100000 -21.225000
    endloop
  endfacet
  facet normal 1.000000 0.000000 0.000000
    outer loop
      vertex -4.700000 3.900000 -19.675000
      vertex -4.700000 6.100000 -21.225000
      vertex -4.700000 6.100000 -19.675000
    endloop
  endfacet
  facet normal 0.000000 0.000000 1.000000
    outer loop
      vertex -3.930000 4.670000 -25.200000
      vertex -3.270000 4.670000 -25.200000
      vertex -3.270000 5.330000 -25.200000
    endloop
  endfacet
  facet normal 0.000000 0.000000 1.000000
    outer loop
      vertex -3.930000 4.670000 -25.200000
      vertex -3.270000 5.330000 -25.200000
      vertex -3.930000 5.330000 -25.200000
    endloop
  endfacet
  facet normal 0.000000 0.000000 -1.000000
    outer loop
      vertex -3.930000 5.330000 -20.000000
      vertex -3.270000 5.330000 -20.000000
      vertex -3.270000 4.670000 -20.000000
    endloop
  endfacet
  facet normal 0.000000 0.000000 -1.000000
    outer loop
      vertex -3.930000 5.330000 -20.000000
      vertex -3.270000 4.670000 -20.000000
      vertex -3.930000 4.670000 -20.000000
    endloop
  endfacet
  facet normal 0.000000 -1.000000 0.000000
    outer loop
      vertex -3.930000 5.330000 -25.200000
      vertex -3.270000 5.330000 -25.200000
      vertex -3.270000 5.330000 -20.000000
    endloop
  endfacet
  facet normal 0.000000 -1.000000 0.000000
    outer loop
      vertex -3.930000 5.330000 -25.200000
      vertex -3.270000 5.330000 -20.000000
      vertex -3.930000 5.330000 -20.000000
    endloop
  endfacet
  facet normal 0.000000 1.000000 0.000000
    outer loop
      vertex -3.270000 4.670000 -20.000000
      vertex -3.270000 4.670000 -25.200000
      vertex -3.930000 4.670000 -25.200000
    endloop
  endfacet
  facet normal 0.000000 1.000000 0.000000
    outer loop
      vertex -3.270000 4.670000 -20.000000
      vertex -3.930000 4.670000 -25.200000
      vertex -3.930000 4.670000 -20.000000
    endloop
  endfacet
  facet normal -1.000000 0.000000 0.000000
    outer loop
      vertex -3.270000 5.330000 -20.000000
      vertex -3.270000 5.330000 -25.200000
      vertex -3.270000 4.670000 -25.200000
    endloop
  endfacet
  facet normal -1.000000 0.000000 0.000000
    outer loop
      vertex -3.270000 5.330000 -20.000000
      vertex -3.270000 4.670000 -25.200000
      vertex -3.270000 4.670000 -20.000000
    endloop
  endfacet
  facet normal 1.000000 0.000000 0.000000
    outer loop
      vertex -3.930000 4.670000 -20.000000
      vertex -3.930000 4.670000 -25.200000
      vertex -3.930000 5.330000 -25.200000
    endloop
  endfacet
  facet normal 1.000000 0.000000 0.000000
    outer loop
      vertex -3.930000 4.670000 -20.000000
      vertex -3.930000 5.330000 -25.200000
      vertex -3.930000 5.330000 -20.000000
    endloop
  endfacet
  facet normal 0.000000 0.000000 1.000000
    outer loop
      vertex -2.300000 3.900000 -21.225000
      vertex -0.100000 3.900000 -21.225000
      vertex -0.100000 6.100000 -21.225000
    endloop
  endfacet
  facet normal 0.000000 0.000000 1.000000
    outer loop
      vertex -2.300000 3.900000 -21.225000
      vertex -0.100000 6.100000 -21.225000
      vertex -2.300000 6.100000 -21.225000
    endloop
  endfacet
  facet normal 0.000000 0.000000 -1.000000
    outer loop
      vertex -2.300000 6.100000 -19.675000
      vertex -0.100000 6.100000 -19.675000
      vertex -0.100000 3.900000 -19.675000
    endloop
  endfacet
  facet normal 0.000000 0.000000 -1.000000
    outer loop
      vertex -2.300000 6.100000 -19.675000
      vertex -0.100000 3.900000 -19.675000
      vertex -2.300000 3.900000 -19.675000
    endloop
  endfacet
  facet normal 0.000000 -1.000000 0.000000
    outer loop
      vertex -2.300000 6.100000 -21.225000
      vertex -0.100000 6.100000 -21.225000
      vertex -0.100000 6.100000 -19.675000
    endloop
  endfacet
  facet normal 0.000000 -1.000000 0.000000
    outer loop
      vertex -2.300000 6.100000 -21.225000
      vertex -0.100000 6.100000 -19.675000
      vertex -2.300000 6.100000 -19.675000
    endloop
  endfacet
  facet normal 0.000000 1.000000 0.000000
    outer loop
      vertex -0.100000 3.900000 -19.675000
      vertex -0.100000 3.900000 -21.225000
      vertex -2.300000 3.900000 -21.225000
    endloop
  endfacet
  facet normal 0.000000 1.000000 0.000000
    outer loop
      vertex -0.100000 3.900000 -19.675000
      vertex -2.300000 3.900000 -21.225000
      vertex -2.300000 3.900000 -19.675000
    endloop
  endfacet
  facet normal -1.000000 0.000000 0.000000
    outer loop
      vertex -0.100000 6.100000 -19.675000
      vertex -0.100000 6.100000 -21.225000
      vertex -0.100000 3.900000 -21.225000
    endloop
  endfacet
  facet normal -1.000000 0.000000 0.000000
    outer loop
      vertex -0.100000 6.100000 -19.675000
      vertex -0.100000 3.900000 -21.225000
      vertex -0.100000 3.900000 -19.675000
    endloop
  endfacet
  facet normal 1.000000 0.000000 0.000000
    outer loop
      vertex -2.300000 3.900000 -19.675000
      vertex -2.300000 3.900000 -21.225000
      vertex -2.300000 6.100000 -21.225000
    endloop
  endfacet
  facet normal 1.000000 0.000000 0.000000
    outer loop
      vertex -2.300000 3.900000 -19.675000
      vertex -2.300000 6.100000 -21.225000
      vertex -2.300000 6.100000 -19.675000
    endloop
  endfacet
  facet normal 0.000000 0.000000 1.000000
    outer loop
      vertex -1.530000 4.670000 -25.200000
      vertex -0.870000 4.670000 -25.200000
      vertex -0.870000 5.330000 -25.200000
    endloop
  endfacet
  facet normal 0.000000 0.000000 1.000000
    outer loop
      vertex -1.530000 4.670000 -25.200000
      vertex -0.870000 5.330000 -25.200000
      vertex -1.530000 5.330000 -25.200000
    endloop
  endfacet
  facet normal 0.000000 0.000000 -1.000000
    outer loop
      vertex -1.530000 5.330000 -20.000000
      vertex -0.870000 5.330000 -20.000000
      vertex -0.870000 4.670000 -20.000000
    endloop
  endfacet
  facet normal 0.000000 0.000000 -1.000000
    outer loop
      vertex -1.530000 5.330000 -20.000000
      vertex -0.870000 4.670000 -20.000000
      vertex -1.530000 4.670000 -20.000000
    endloop
  endfacet
  facet normal 0.000000 -1.000000 0.000000
    outer loop
      vertex -1.530000 5.330000 -25.200000
      vertex -0.870000 5.330000 -25.200000
      vertex -0.870000 5.330000 -20.000000
    endloop
  endfacet
  facet normal 0.000000 -1.000000 0.000000
    outer loop
      vertex -1.530000 5.330000 -25.200000
      vertex -0.870000 5.330000 -20.000000
      vertex -1.530000 5.330000 -20.000000
    endloop
  endfacet
  facet normal 0.000000 1.000000 0.000000
    outer loop
      vertex -0.870000 4.670000 -20.000000
      vertex -0.870000 4.670000 -25.200000
      vertex -1.530000 4.670000 -25.200000
    endloop
  endfacet
  facet normal 0.000000 1.000000 0.000000
    outer loop
      vertex -0.870000 4.670000 -20.000000
      vertex -1.530000 4.670000 -25.200000
      vertex -1.530000 4.670000 -20.000000
    endloop
  endfacet
  facet normal -1.000000 0.000000 0.000000
    outer loop
      vertex -0.870000 5.330000 -20.000000
      vertex -0.870000 5.330000 -25.200000
      vertex -0.870000 4.670000 -25.200000
    endloop
  endfacet
  facet normal -1.000000 0.000000 0.000000
    outer loop
      vertex -0.870000 5.330000 -20.000000
      vertex -0.870000 4.670000 -25.200000
      vertex -0.870000 4.670000 -20.000000
    endloop
  endfacet
  facet normal 1.000000 0.000000 0.000000
    outer loop
      vertex -1.530000 4.670000 -20.000000
      vertex -1.530000 4.670000 -25.200000
      vertex -1.530000 5.330000 -25.200000
    endloop
  endfacet
  facet normal 1.000000 0.000000 0.000000
    outer loop
      vertex -1.530000 4.670000 -20.000000
      vertex -1.530000 5.330000 -25.200000
      vertex -1.530000 5.330000 -20.000000
    endloop
  endfacet
  facet normal 0.000000 0.000000 1.000000
    outer loop
      vertex 0.100000 3.900000 -21.225000
      vertex 2.300000 3.900000 -21.225000
      vertex 2.300000 6.100000 -21.225000
    endloop
  endfacet
  facet normal 0.000000 0.000000 1.000000
    outer loop
      vertex 0.100000 3.900000 -21.225000
      vertex 2.300000 6.100000 -21.225000
      vertex 0.100000 6.100000 -21.225000
    endloop
  endfacet
  facet normal 0.000000 0.000000 -1.000000
    outer loop
      vertex 0.100000 6.100000 -19.675000
      vertex 2.300000 6.100000 -19.675000
      vertex 2.300000 3.900000 -19.675000
    endloop
  endfacet
  facet normal 0.000000 0.000000 -1.000000
    outer loop
      vertex 0.100000 6.100000 -19.675000
      vertex 2.300000 3.900000 -19.675000
      vertex 0.100000 3.900000 -19.675000
    endloop
  endfacet
  facet normal 0.000000 -1.000000 0.000000
    outer loop
      vertex 0.100000 6.100000 -21.225000
      vertex 2.300000 6.100000 -21.225000
      vertex 2.300000 6.100000 -19.675000
    endloop
  endfacet
  facet normal 0.000000 -1.000000 0.000000
    outer loop
      vertex 0.100000 6.100000 -21.225000
      vertex 2.300000 6.100000 -19.675000
      vertex 0.100000 6.100000 -19.675000
    endloop
  endfacet
  facet normal 0.000000 1.000000 0.000000
    outer loop
      vertex 2.300000 3.900000 -19.675000
      vertex 2.300000 3.900000 -21.225000
      vertex 0.100000 3.900000 -21.225000
    endloop
  endfacet
  facet normal 0.000000 1.000000 0.000000
    outer loop
      vertex 2.300000 3.900000 -19.675000
      vertex 0.100000 3.900000 -21.225000
      vertex 0.100000 3.900000 -19.675000
    endloop
  endfacet
  facet normal -1.000000 0.000000 0.000000
    outer loop
      vertex 2.300000 6.100000 -19.675000
      vertex 2.300000 6.100000 -21.225000
      vertex 2.300000 3.900000 -21.225000
    endloop
  endfacet
  facet normal -1.000000 0.000000 0.000000
    outer loop
      vertex 2.300000 6.100000 -19.675000
      vertex 2.300000 3.900000 -21.225000
      vertex 2.300000 3.900000 -19.675000
    endloop
  endfacet
  facet normal 1.000000 0.000000 0.000000
    outer loop
      vertex 0.100000 3.900000 -19.675000
      vertex 0.100000 3.900000 -21.225000
      vertex 0.100000 6.100000 -21.225000
    endloop
  endfacet
  facet normal 1.000000 0.000000 0.000000
    outer loop
      vertex 0.100000 3.900000 -19.675000
      vertex 0.100000 6.100000 -21.225000
      vertex 0.100000 6.100000 -19.675000
    endloop
  endfacet
  facet normal 0.000000 0.000000 1.000000
    outer loop
      vertex 0.870000 4.670000 -25.200000
      vertex 1.530000 4.670000 -25.200000
      vertex 1.530000 5.330000 -25.200000
    endloop
  endfacet
  facet normal 0.000000 0.000000 1.000000
    outer loop
      vertex 0.870000 4.670000 -25.200000
      vertex 1.530000 5.330000 -25.200000
      vertex 0.870000 5.330000 -25.200000
    endloop
  endfacet
  facet normal 0.000000 0.000000 -1.000000
    outer loop
      vertex 0.870000 5.330000 -20.000000
      vertex 1.530000 5.330000 -20.000000
      vertex 1.530000 4.670000 -20.000000
    endloop
  endfacet
  facet normal 0.000000 0.000000 -1.000000
    outer loop
      vertex 0.870000 5.330000 -20.000000
      vertex 1.530000 4.670000 -20.000000
      vertex 0.870000 4.670000 -20.000000
    endloop
  endfacet
  facet normal 0.000000 -1.000000 0.000000
    outer loop
      vertex 0.870000 5.330000 -25.200000
      vertex 1.530000 5.330000 -25.200000
      vertex 1.530000 5.330000 -20.000000
    endloop
  endfacet
  facet normal 0.000000 -1.000000 0.000000
    outer loop
      vertex 0.870000 5.330000 -25.200000
      vertex 1.530000 5.330000 -20.000000
      vertex 0.870000 5.330000 -20.000000
    endloop
  endfacet
  facet normal 0.000000 1.000000 0.000000
    outer loop
      vertex 1.530000 4.670000 -20.000000
      vertex 1.530000 4.670000 -25.200000
      vertex 0.870000 4.670000 -25.200000
    endloop
  endfacet
  facet normal 0.000000 1.000000 0.000000
    outer loop
      vertex 1.530000 4.670000 -20.000000
      vertex 0.870000 4.670000 -25.200000
      vertex 0.870000 4.670000 -20.000000
    endloop
  endfacet
  facet normal -1.000000 0.000000 0.000000
    outer loop
      vertex 1.530000 5.330000 -20.000000
      vertex 1.530000 5.330000 -25.200000
      vertex 1.530000 4.670000 -25.200000
    endloop
  endfacet
  facet normal -1.000000 0.000000 0.000000
    outer loop
      vertex 1.530000 5.330000 -20.000000
      vertex 1.530000 4.670000 -25.200000
      vertex 1.530000 4.670000 -20.000000
    endloop
  endfacet
  facet normal 1.000000 0.000000 0.000000
    outer loop
      vertex 0.870000 4.670000 -20.000000
      vertex 0.870000 4.670000 -25.200000
      vertex 0.870000 5.330000 -25.200000
    endloop
  endfacet
  facet normal 1.000000 0.000000 0.000000
    outer loop
      vertex 0.870000 4.670000 -20.000000
      vertex 0.870000 5.330000 -25.200000
      vertex 0.870000 5.330000 -20.000000
    endloop
  endfacet
  facet normal 0.000000 0.000000 1.000000
    outer loop
      vertex 2.500000 3.900000 -21.225000
      vertex 4.700000 3.900000 -21.225000
      vertex 4.700000 6.100000 -21.225000
    endloop
  endfacet
  facet normal 0.000000 0.000000 1.000000
    outer loop
      vertex 2.500000 3.900000 -21.225000
      vertex 4.700000 6.100000 -21.225000
      vertex 2.500000 6.100000 -21.225000
    endloop
  endfacet
  facet normal 0.000000 0.000000 -1.000000
    outer loop
      vertex 2.500000 6.100000 -19.675000
      vertex 4.700000 6.100000 -19.675000
      vertex 4.700000 3.900000 -19.675000
    endloop
  endfacet
  facet normal 0.000000 0.000000 -1.000000
    outer loop
      vertex 2.500000 6.100000 -19.675000
      vertex 4.700000 3.900000 -19.675000
      vertex 2.500000 3.900000 -19.675000
    endloop
  endfacet
  facet normal 0.000000 -1.000000 0.000000
    outer loop
      vertex 2.500000 6.100000 -21.225000
      vertex 4.700000 6.100000 -21.225000
      vertex 4.700000 6.100000 -19.675000
    endloop
  endfacet
  facet normal 0.000000 -1.000000 0.000000
    outer loop
      vertex 2.500000 6.100000 -21.225000
      vertex 4.700000 6.100000 -19.675000
      vertex 2.500000 6.100000 -19.675000
    endloop
  endfacet
  facet normal 0.000000 1.000000 0.000000
    outer loop
      vertex 4.700000 3.900000 -19.675000
      vertex 4.700000 3.900000 -21.225000
      vertex 2.500000 3.900000 -21.225000
    endloop
  endfacet
  facet normal 0.000000 1.000000 0.000000
    outer loop
      vertex 4.700000 3.900000 -19.675000
      vertex 2.500000 3.900000 -21.225000
      vertex 2.500000 3.900000 -19.675000
    endloop
  endfacet
  facet normal -1.000000 0.000000 0.000000
    outer loop
      vertex 4.700000 6.100000 -19.675000
      vertex 4.700000 6.100000 -21.225000
      vertex 4.700000 3.900000 -21.225000
    endloop
  endfacet
  facet normal -1.000000 0.000000 0.000000
    outer loop
      vertex 4.700000 6.100000 -19.675000
      vertex 4.700000 3.900000 -21.225000
      vertex 4.700000 3.900000 -19.675000
    endloop
  endfacet
  facet normal 1.000000 0.000000 0.000000
    outer loop
      vertex 2.500000 3.900000 -19.675000
      vertex 2.500000 3.900000 -21.225000
      vertex 2.500000 6.100000 -21.225000
    endloop
  endfacet
  facet normal 1.000000 0.000000 0.000000
    outer loop
      vertex 2.500000 3.900000 -19.675000
      vertex 2.500000 6.100000 -21.225000
      vertex 2.500000 6.100000 -19.675000
    endloop
  endfacet
  facet normal 0.000000 0.000000 1.000000
    outer loop
      vertex 3.270000 4.670000 -25.200000
      vertex 3.930000 4.670000 -25.200000
      vertex 3.930000 5.330000 -25.200000
    endloop
  endfacet
  facet normal 0.000000 0.000000 1.000000
    outer loop
      vertex 3.270000 4.670000 -25.200000
      vertex 3.930000 5.330000 -25.200000
      vertex 3.270000 5.330000 -25.200000
    endloop
  endfacet
  facet normal 0.000000 0.000000 -1.000000
    outer loop
      vertex 3.270000 5.330000 -20.000000
      vertex 3.930000 5.330000 -20.000000
      vertex 3.930000 4.670000 -20.000000
    endloop
  endfacet
  facet normal 0.000000 0.000000 -1.000000
    outer loop
      vertex 3.270000 5.330000 -20.000000
      vertex 3.930000 4.670000 -20.000000
      vertex 3.270000 4.670000 -20.000000
    endloop
  endfacet
  facet normal 0.000000 -1.000000 0.000000
    outer loop
      vertex 3.270000 5.330000 -25.200000
      vertex 3.930000 5.330000 -25.200000
      vertex 3.930000 5.330000 -20.000000
    endloop
  endfacet
  facet normal 0.000000 -1.000000 0.000000
    outer loop
      vertex 3.270000 5.330000 -25.200000
      vertex 3.930000 5.330000 -20.000000
      vertex 3.270000 5.330000 -20.000000
    endloop
  endfacet
  facet normal 0.000000 1.000000 0.000000
    outer loop
      vertex 3.930000 4.670000 -20.000000
      vertex 3.930000 4.670000 -25.200000
      vertex 3.270000 4.670000 -25.200000
    endloop
  endfacet
  facet normal 0.000000 1.000000 0.000000
    outer loop
      vertex 3.930000 4.670000 -20.000000
      vertex 3.270000 4.670000 -25.200000
      vertex 3.270000 4.670000 -20.000000
    endloop
  endfacet
  facet normal -1.000000 0.000000 0.000000
    outer loop
      vertex 3.930000 5.330000 -20.000000
      vertex 3.930000 5.330000 -25.200000
      vertex 3.930000 4.670000 -25.200000
    endloop
  endfacet
  facet normal -1.000000 0.000000 0.000000
    outer loop
      vertex 3.930000 5.330000 -20.000000
      vertex 3.930000 4.670000 -25.200000
      vertex 3.930000 4.670000 -20.000000
    endloop
  endfacet
  facet normal 1.000000 0.000000 0.000000
    outer loop
      vertex 3.270000 4.670000 -20.000000
      vertex 3.270000 4.670000 -25.200000
      vertex 3.270000 5.330000 -25.200000
    endloop
  endfacet
  facet normal 1.000000 0.000000 0.000000
    outer loop
      vertex 3.270000 4.670000 -20.000000
      vertex 3.270000 5.330000 -25.200000
      vertex 3.270000 5.330000 -20.000000
    endloop
  endfacet
  facet normal 0.000000 0.000000 1.000000
    outer loop
      vertex 4.900000 3.900000 -21.225000
      vertex 7.100000 3.900000 -21.225000
      vertex 7.100000 6.100000 -21.225000
    endloop
  endfacet
  facet normal 0.000000 0.000000 1.000000
    outer loop
      vertex 4.900000 3.900000 -21.225000
      vertex 7.100000 6.100000 -21.225000
      vertex 4.900000 6.100000 -21.225000
    endloop
  endfacet
  facet normal 0.000000 0.000000 -1.000000
    outer loop
      vertex 4.900000 6.100000 -19.675000
      vertex 7.100000 6.100000 -19.675000
      vertex 7.100000 3.900000 -19.675000
    endloop
  endfacet
  facet normal 0.000000 0.000000 -1.000000
    outer loop
      vertex 4.900000 6.100000 -19.675000
      vertex 7.100000 3.900000 -19.675000
      vertex 4.900000 3.900000 -19.675000
    endloop
  endfacet
  facet normal 0.000000 -1.000000 0.000000
    outer loop
      vertex 4.900000 6.100000 -21.225000
      vertex 7.100000 6.100000 -21.225000
      vertex 7.100000 6.100000 -19.675000
    endloop
  endfacet
  facet normal 0.000000 -1.000000 0.000000
    outer loop
      vertex 4.900000 6.100000 -21.225000
      vertex 7.100000 6.100000 -19.675000
      vertex 4.900000 6.100000 -19.675000
    endloop
  endfacet
  facet normal 0.000000 1.000000 0.000000
    outer loop
      vertex 7.100000 3.900000 -19.675000
      vertex 7.100000 3.900000 -21.225000
      vertex 4.900000 3.900000 -21.225000
    endloop
  endfacet
  facet normal 0.000000 1.000000 0.000000
    outer loop
      vertex 7.100000 3.900000 -19.675000
      vertex 4.900000 3.900000 -21.225000
      vertex 4.900000 3.900000 -19.675000
    endloop
  endfacet
  facet normal -1.000000 0.000000 0.000000
    outer loop
      vertex 7.100000 6.100000 -19.675000
      vertex 7.100000 6.100000 -21.225000
      vertex 7.100000 3.900000 -21.225000
    endloop
  endfacet
  facet normal -1.000000 0.000000 0.000000
    outer loop
      vertex 7.100000 6.100000 -19.675000
      vertex 7.100000 3.900000 -21.225000
      vertex 7.100000 3.900000 -19.675000
    endloop
  endfacet
  facet normal 1.000000 0.000000 0.000000
    outer loop
      vertex 4.900000 3.900000 -19.675000
      vertex 4.900000 3.900000 -21.225000
      vertex 4.900000 6.100000 -21.225000
    endloop
  endfacet
  facet normal 1.000000 0.000000 0.000000
    outer loop
      vertex 4.900000 3.900000 -19.675000
      vertex 4.900000 6.100000 -21.225000
      vertex 4.900000 6.100000 -19.675000
    endloop
  endfacet
  facet normal 0.000000 0.000000 1.000000
    outer loop
      vertex 5.670000 4.670000 -25.200000
      vertex 6.330000 4.670000 -25.200000
      vertex 6.330000 5.330000 -25.200000
    endloop
  endfacet
  facet normal 0.000000 0.000000 1.000000
    outer loop
      vertex 5.670000 4.670000 -25.200000
      vertex 6.330000 5.330000 -25.200000
      vertex 5.670000 5.330000 -25.200000
    endloop
  endfacet
  facet normal 0.000000 0.000000 -1.000000
    outer loop
      vertex 5.670000 5.330000 -20.000000
      vertex 6.330000 5.330000 -20.000000
      vertex 6.330000 4.670000 -20.000000
    endloop
  endfacet
  facet normal 0.000000 0.000000 -1.000000
    outer loop
      vertex 5.670000 5.330000 -20.000000
      vertex 6.330000 4.670000 -20.000000
      vertex 5.670000 4.670000 -20.000000
    endloop
  endfacet
  facet normal 0.000000 -1.000000 0.000000
    outer loop
      vertex 5.670000 5.330000 -25.200000
      vertex 6.330000 5.330000 -25.200000
      vertex 6.330000 5.330000 -20.000000
    endloop
  endfacet
  facet normal 0.000000 -1.000000 0.000000
    outer loop
      vertex 5.670000 5.330000 -25.200000
      vertex 6.330000 5.330000 -20.000000
      vertex 5.670000 5.330000 -20.000000
    endloop
  endfacet
  facet normal 0.000000 1.000000 0.000000
    outer loop
      vertex 6.330000 4.670000 -20.000000
      vertex 6.330000 4.670000 -25.200000
      vertex 5.670000 4.670000 -25.200000
    endloop
  endfacet
  facet normal 0.000000 1.000000 0.000000
    outer loop
      vertex 6.330000 4.670000 -20.000000
      vertex 5.670000 4.670000 -25.200000
      vertex 5.670000 4.670000 -20.000000
    endloop
  endfacet
  facet normal -1.000000 0.000000 0.000000
    outer loop
      vertex 6.330000 5.330000 -20.000000
      vertex 6.330000 5.330000 -25.200000
      vertex 6.330000 4.670000 -25.200000
    endloop
  endfacet
  facet normal -1.000000 0.000000 0.000000
    outer loop
      vertex 6.330000 5.330000 -20.000000
      vertex 6.330000 4.670000 -25.200000
      vertex 6.330000 4.670000 -20.000000
    endloop
  endfacet
  facet normal 1.000000 0.000000 0.000000
    outer loop
      vertex 5.670000 4.670000 -20.000000
      vertex 5.670000 4.670000 -25.200000
      vertex 5.670000 5.330000 -25.200000
    endloop
  endfacet
  facet normal 1.000000 0.000000 0.000000
    outer loop
      vertex 5.670000 4.670000 -20.000000
      vertex 5.670000 5.330000 -25.200000
      vertex 5.670000 5.330000 -20.000000
    endloop
  endfacet
  facet normal 0.000000 -1.000000 0.000000
    outer loop
      vertex -6.000000 10.000000 10.000000
      vertex 6.000000 10.000000 10.000000
      vertex 6.000000 10.000000 20.000000
    endloop
  endfacet
  facet normal 0.000000 -1.000000 0.000000
    outer loop
      vertex -6.000000 10.000000 10.000000
      vertex 6.000000 10.000000 20.000000
      vertex -6.000000 10.000000 20.000000
    endloop
  endfacet
  facet normal 0.000000 1.000000 0.000000
    outer loop
      vertex -6.000000 0.000000 20.000000
      vertex 6.000000 0.000000 20.000000
      vertex 6.000000 0.000000 10.000000
    endloop
  endfacet
  facet normal 0.000000 1.000000 0.000000
    outer loop
      vertex -6.000000 0.000000 20.000000
      vertex 6.000000 0.000000 10.000000
      vertex -6.000000 0.000000 10.000000
    endloop
  endfacet
  facet normal 0.000000 0.000000 -1.000000
    outer loop
      vertex -6.000000 10.000000 20.000000
      vertex 6.000000 10.000000 20.000000
      vertex 6.000000 0.000000 20.000000
    endloop
  endfacet
  facet normal 0.000000 0.000000 -1.000000
    outer loop
      vertex -6.000000 10.000000 20.000000
      vertex 6.000000 0.000000 20.000000
      vertex -6.000000 0.000000 20.000000
    endloop
  endfacet
  facet normal 0.000000 0.000000 1.000000
    outer loop
      vertex 6.000000 0.000000 10.000000
      vertex 6.000000 10.000000 10.000000
      vertex -6.000000 10.000000 10.000000
    endloop
  endfacet
  facet normal 0.000000 0.000000 1.000000
    outer loop
      vertex 6.000000 0.000000 10.000000
      vertex -6.000000 10.000000 10.000000
      vertex -6.000000 0.000000 10.000000
    endloop
  endfacet
  facet normal -1.000000 0.000000 0.000000
    outer loop
      vertex 6.000000 0.000000 20.000000
      vertex 6.000000 10.000000 20.000000
      vertex 6.000000 10.000000 10.000000
    endloop
  endfacet
  facet normal -1.000000 0.000000 0.000000
    outer loop
      vertex 6.000000 0.000000 20.000000
      vertex 6.000000 10.000000 10.000000
      vertex 6.000000 0.000000 10.000000
    endloop
  endfacet
  facet normal 1.000000 0.000000 0.000000
    outer loop
      vertex -6.000000 0.000000 10.000000
      vertex -6.000000 10.000000 10.000000
      vertex -6.000000 10.000000 20.000000
    endloop
  endfacet
  facet normal 1.000000 0.000000 0.000000
    outer loop
      vertex -6.000000 0.000000 10.000000
      vertex -6.000000 10.000000 20.000000
      vertex -6.000000 0.000000 20.000000
    endloop
  endfacet
  facet normal 0.000000 -1.000000 0.000000
    outer loop
      vertex -6.000000 10.000000 -7.500000
      vertex 6.000000 10.000000 -7.500000
      vertex 6.000000 10.000000 7.500000
    endloop
  endfacet
  facet normal 0.000000 -1.000000 0.000000
    outer loop
      vertex -6.000000 10.000000 -7.500000
      vertex 6.000000 10.000000 7.500000
      vertex -6.000000 10.000000 7.500000
    endloop
  endfacet
  facet normal 0.000000 1.000000 0.000000
    outer loop
      vertex -6.000000 0.000000 7.500000
      vertex 6.000000 0.000000 7.500000
      vertex 6.000000 0.000000 -7.500000
    endloop
  endfacet
  facet normal 0.000000 1.000000 0.000000
    outer loop
      vertex -6.000000 0.000000 7.500000
      vertex 6.000000 0.000000 -7.500000
      vertex -6.000000 0.000000 -7.500000
    endloop
  endfacet
  facet normal 0.000000 0.000000 -1.000000
    outer loop
      vertex -6.000000 10.000000 7.500000
      vertex 6.000000 10.000000 7.500000
      vertex 6.000000 0.000000 7.500000
    endloop
  endfacet
  facet normal 0.000000 0.000000 -1.000000
    outer loop
      vertex -6.000000 10.000000 7.500000
      vertex 6.000000 0.000000 7.500000
      vertex -6.000000 0.000000 7.500000
    endloop
  endfacet
  facet normal 0.000000 0.000000 1.000000
    outer loop
      vertex 6.000000 0.000000 -7.500000
      vertex 6.000000 10.000000 -7.500000
      vertex -6.000000 10.000000 -7.500000
    endloop
  endfacet
  facet normal 0.000000 0.000000 1.000000
    outer loop
      vertex 6.000000 0.000000 -7.500000
      vertex -6.000000 10.000000 -7.500000
      vertex -6.000000 0.000000 -7.500000
    endloop
  endfacet
  facet normal -1.000000 0.000000 0.000000
    outer loop
      vertex 6.000000 0.000000 7.500000
      vertex 6.000000 10.000000 7.500000
      vertex 6.000000 10.000000 -7.500000
    endloop
  endfacet
  facet normal -1.000000 0.000000 0.000000
    outer loop
      vertex 6.000000 0.000000 7.500000
      vertex 6.000000 10.000000 -7.500000
      vertex 6.000000 0.000000 -7.500000
    endloop
  endfacet
  facet normal 1.000000 0.000000 0.000000
    outer loop
      vertex -6.000000 0.000000 -7.500000
      vertex -6.000000 10.000000 -7.500000
      vertex -6.000000 10.000000 7.500000
    endloop
  endfacet
  facet normal 1.000000 0.000000 0.000000
    outer loop
      vertex -6.000000 0.000000 -7.500000
      vertex -6.000000 10.000000 7.500000
      vertex -6.000000 0.000000 7.500000
    endloop
  endfacet
  facet normal 0.000000 -1.000000 0.000000
    outer loop
      vertex -6.000000 5.600000 -19.000000
      vertex 6.000000 5.600000 -19.000000
      vertex 6.000000 5.600000 -7.000000
    endloop
  endfacet
  facet normal 0.000000 -1.000000 0.000000
    outer loop
      vertex -6.000000 5.600000 -19.000000
      vertex 6.000000 5.600000 -7.000000
      vertex -6.000000 5.600000 -7.000000
    endloop
  endfacet
  facet normal 0.000000 1.000000 0.000000
    outer loop
      vertex -6.000000 4.400000 -7.000000
      vertex 6.000000 4.400000 -7.000000
      vertex 6.000000 4.400000 -19.000000
    endloop
  endfacet
  facet normal 0.000000 1.000000 0.000000
    outer loop
      vertex -6.000000 4.400000 -7.000000
      vertex 6.000000 4.400000 -19.000000
      vertex -6.000000 4.400000 -19.000000
    endloop
  endfacet
  facet normal 0.000000 0.000000 -1.000000
    outer loop
      vertex -6.000000 5.600000 -7.000000
      vertex 6.000000 5.600000 -7.000000
      vertex 6.000000 4.400000 -7.000000
    endloop
  endfacet
  facet normal 0.000000 0.000000 -1.000000
    outer loop
      vertex -6.000000 5.600000 -7.000000
      vertex 6.000000 4.400000 -7.000000
      vertex -6.000000 4.400000 -7.000000
    endloop
  endfacet
  facet normal 0.000000 0.000000 1.000000
    outer loop
      vertex 6.000000 4.400000 -19.000000
      vertex 6.000000 5.600000 -19.000000
      vertex -6.000000 5.600000 -19.000000
    endloop
  endfacet
  facet normal 0.000000 0.000000 1.000000
    outer loop
      vertex 6.000000 4.400000 -19.000000
      vertex -6.000000 5.600000 -19.000000
      vertex -6.000000 4.400000 -19.000000
    endloop
  endfacet
  facet normal -1.000000 0.000000 0.000000
    outer loop
      vertex 6.000000 4.400000 -7.000000
      vertex 6.000000 5.600000 -7.000000
      vertex 6.000000 5.600000 -19.000000
    endloop
  endfacet
  facet normal -1.000000 0.000000 0.000000
    outer loop
      vertex 6.000000 4.400000 -7.000000
      vertex 6.000000 5.600000 -19.000000
      vertex 6.000000 4.400000 -19.000000
    endloop
  endfacet
  facet normal 1.000000 0.000000 0.000000
    outer loop
      vertex -6.000000 4.400000 -19.000000
      vertex -6.000000 5.600000 -19.000000
      vertex -6.000000 5.600000 -7.000000
    endloop
  endfacet
  facet normal 1.000000 0.000000 0.000000
    outer loop
      vertex -6.000000 4.400000 -19.000000
      vertex -6.000000 5.600000 -7.000000
      vertex -6.000000 4.400000 -7.000000
    endloop
  endfacet
  facet normal 0.000000 -1.000000 0.000000
    outer loop
      vertex 0.000000 6.000000 -8.000000
      vertex 3.000000 6.000000 -8.000000
      vertex 2.897777 6.000000 -7.223543
    endloop
  endfacet
  facet normal 0.000000 1.000000 0.000000
    outer loop
      vertex 0.000000 4.000000 -8.000000
      vertex 2.897777 4.000000 -7.223543
      vertex 3.000000 4.000000 -8.000000
    endloop
  endfacet
  facet normal -0.991445 0.000000 -0.130526
    outer loop
      vertex 3.000000 4.000000 -8.000000
      vertex 2.897777 4.000000 -7.223543
      vertex 2.897777 6.000000 -7.223543
    endloop
  endfacet
  facet normal -0.991445 0.000000 -0.130526
    outer loop
      vertex 3.000000 4.000000 -8.000000
      vertex 2.897777 6.000000 -7.223543
      vertex 3.000000 6.000000 -8.000000
    endloop
  endfacet
  facet normal 0.000000 -1.000000 0.000000
    outer loop
      vertex 0.000000 6.000000 -8.000000
      vertex 2.897777 6.000000 -7.223543
      vertex 2.598076 6.000000 -6.500000
    endloop
  endfacet
  facet normal 0.000000 1.000000 0.000000
    outer loop
      vertex 0.000000 4.000000 -8.000000
      vertex 2.598076 4.000000 -6.500000
      vertex 2.897777 4.000000 -7.223543
    endloop
  endfacet
  facet normal -0.923880 0.000000 -0.382683
    outer loop
      vertex 2.897777 4.000000 -7.223543
      vertex 2.598076 4.000000 -6.500000
      vertex 2.598076 6.000000 -6.500000
    endloop
  endfacet
  facet normal -0.923880 0.000000 -0.382683
    outer loop
      vertex 2.897777 4.000000 -7.223543
      vertex 2.598076 6.000000 -6.500000
      vertex 2.897777 6.000000 -7.223543
    endloop
  endfacet
  facet normal 0.000000 -1.000000 0.000000
    outer loop
      vertex 0.000000 6.000000 -8.000000
      vertex 2.598076 6.000000 -6.500000
      vertex 2.121320 6.000000 -5.878680
    endloop
  endfacet
  facet normal 0.000000 1.000000 0.000000
    outer loop
      vertex 0.000000 4.000000 -8.000000
      vertex 2.121320 4.000000 -5.878680
      vertex 2.598076 4.000000 -6.500000
    endloop
  endfacet
  facet normal -0.793353 0.000000 -0.608761
    outer loop
      vertex 2.598076 4.000000 -6.500000
      vertex 2.121320 4.000000 -5.878680
      vertex 2.121320 6.000000 -5.878680
    endloop
  endfacet
  facet normal -0.793353 0.000000 -0.608761
    outer loop
      vertex 2.598076 4.000000 -6.500000
      vertex 2.121320 6.000000 -5.878680
      vertex 2.598076 6.000000 -6.500000
    endloop
  endfacet
  facet normal 0.000000 -1.000000 0.000000
    outer loop
      vertex 0.000000 6.000000 -8.000000
      vertex 2.121320 6.000000 -5.878680
      vertex 1.500000 6.000000 -5.401924
    endloop
  endfacet
  facet normal 0.000000 1.000000 0.000000
    outer loop
      vertex 0.000000 4.000000 -8.000000
      vertex 1.500000 4.000000 -5.401924
      vertex 2.121320 4.000000 -5.878680
    endloop
  endfacet
  facet normal -0.608761 0.000000 -0.793353
    outer loop
      vertex 2.121320 4.000000 -5.878680
      vertex 1.500000 4.000000 -5.401924
      vertex 1.500000 6.000000 -5.401924
    endloop
  endfacet
  facet normal -0.608761 0.000000 -0.793353
    outer loop
      vertex 2.121320 4.000000 -5.878680
      vertex 1.500000 6.000000 -5.401924
      vertex 2.121320 6.000000 -5.878680
    endloop
  endfacet
  facet normal 0.000000 -1.000000 0.000000
    outer loop
      vertex 0.000000 6.000000 -8.000000
      vertex 1.500000 6.000000 -5.401924
      vertex 0.776457 6.000000 -5.102223
    endloop
  endfacet
  facet normal 0.000000 1.000000 0.000000
    outer loop
      vertex 0.000000 4.000000 -8.000000
      vertex 0.776457 4.000000 -5.102223
      vertex 1.500000 4.000000 -5.401924
    endloop
  endfacet
  facet normal -0.382683 0.000000 -0.923880
    outer loop
      vertex 1.500000 4.000000 -5.401924
      vertex 0.776457 4.000000 -5.102223
      vertex 0.776457 6.000000 -5.102223
    endloop
  endfacet
  facet normal -0.382683 0.000000 -0.923880
    outer loop
      vertex 1.500000 4.000000 -5.401924
      vertex 0.776457 6.000000 -5.102223
      vertex 1.500000 6.000000 -5.401924
    endloop
  endfacet
  facet normal 0.000000 -1.000000 0.000000
    outer loop
      vertex 0.000000 6.000000 -8.000000
      vertex 0.776457 6.000000 -5.102223
      vertex 0.000000 6.000000 -5.000000
    endloop
  endfacet
  facet normal 0.000000 1.000000 0.000000
    outer loop
      vertex 0.000000 4.000000 -8.000000
      vertex 0.000000 4.000000 -5.000000
      vertex 0.776457 4.000000 -5.102223
    endloop
  endfacet
  facet normal -0.130526 0.000000 -0.991445
    outer loop
      vertex 0.776457 4.000000 -5.102223
      vertex 0.000000 4.000000 -5.000000
      vertex 0.000000 6.000000 -5.000000
    endloop
  endfacet
  facet normal -0.130526 0.000000 -0.991445
    outer loop
      vertex 0.776457 4.000000 -5.102223
      vertex 0.000000 6.000000 -5.000000
      vertex 0.776457 6.000000 -5.102223
    endloop
  endfacet
  facet normal 0.000000 -1.000000 0.000000
    outer loop
      vertex 0.000000 6.000000 -8.000000
      vertex 0.000000 6.000000 -5.000000
      vertex -0.776457 6.000000 -5.102223
    endloop
  endfacet
  facet normal 0.000000 1.000000 0.000000
    outer loop
      vertex 0.000000 4.000000 -8.000000
      vertex -0.776457 4.000000 -5.102223
      vertex 0.000000 4.000000 -5.000000
    endloop
  endfacet
  facet normal 0.130526 0.000000 -0.991445
    outer loop
      vertex 0.000000 4.000000 -5.000000
      vertex -0.776457 4.000000 -5.102223
      vertex -0.776457 6.000000 -5.102223
    endloop
  endfacet
  facet normal 0.130526 0.000000 -0.991445
    outer loop
      vertex 0.000000 4.000000 -5.000000
      vertex -0.776457 6.000000 -5.102223
      vertex 0.000000 6.000000 -5.000000
    endloop
  endfacet
  facet normal 0.000000 -1.000000 0.000000
    outer loop
      vertex 0.000000 6.000000 -8.000000
      vertex -0.776457 6.000000 -5.102223
      vertex -1.500000 6.000000 -5.401924
    endloop
  endfacet
  facet normal 0.000000 1.000000 0.000000
    outer loop
      vertex 0.000000 4.000000 -8.000000
      vertex -1.500000 4.000000 -5.401924
      vertex -0.776457 4.000000 -5.102223
    endloop
  endfacet
  facet normal 0.382683 0.000000 -0.923880
    outer loop
      vertex -0.776457 4.000000 -5.102223
      vertex -1.500000 4.000000 -5.401924
      vertex -1.500000 6.000000 -5.401924
    endloop
  endfacet
  facet normal 0.382683 0.000000 -0.923880
    outer loop
      vertex -0.776457 4.000000 -5.102223
      vertex -1.500000 6.000000 -5.401924
      vertex -0.776457 6.000000 -5.102223
    endloop
  endfacet
  facet normal 0.000000 -1.000000 0.000000
    outer loop
      vertex 0.000000 6.000000 -8.000000
      vertex -1.500000 6.000000 -5.401924
      vertex -2.121320 6.000000 -5.878680
    endloop
  endfacet
  facet normal 0.000000 1.000000 0.000000
    outer loop
      vertex 0.000000 4.000000 -8.000000
      vertex -2.121320 4.000000 -5.878680
      vertex -1.500000 4.000000 -5.401924
    endloop
  endfacet
  facet normal 0.608761 0.000000 -0.793353
    outer loop
      vertex -1.500000 4.000000 -5.401924
      vertex -2.121320 4.000000 -5.878680
      vertex -2.121320 6.000000 -5.878680
    endloop
  endfacet
  facet normal 0.608761 0.000000 -0.793353
    outer loop
      vertex -1.500000 4.000000 -5.401924
      vertex -2.121320 6.000000 -5.878680
      vertex -1.500000 6.000000 -5.401924
    endloop
  endfacet
  facet normal 0.000000 -1.000000 0.000000
    outer loop
      vertex 0.000000 6.000000 -8.000000
      vertex -2.121320 6.000000 -5.878680
      vertex -2.598076 6.000000 -6.500000
    endloop
  endfacet
  facet normal 0.000000 1.000000 0.000000
    outer loop
      vertex 0.000000 4.000000 -8.000000
      vertex -2.598076 4.000000 -6.500000
      vertex -2.121320 4.000000 -5.878680
    endloop
  endfacet
  facet normal 0.793353 0.000000 -0.608761
    outer loop
      vertex -2.121320 4.000000 -5.878680
      vertex -2.598076 4.000000 -6.500000
      vertex -2.598076 6.000000 -6.500000
    endloop
  endfacet
  facet normal 0.793353 0.000000 -0.608761
    outer loop
      vertex -2.121320 4.000000 -5.878680
      vertex -2.598076 6.000000 -6.500000
      vertex -2.121320 6.000000 -5.878680
    endloop
  endfacet
  facet normal 0.000000 -1.000000 0.000000
    outer loop
      vertex 0.000000 6.000000 -8.000000
      vertex -2.598076 6.000000 -6.500000
      vertex -2.897777 6.000000 -7.223543
    endloop
  endfacet
  facet normal 0.000000 1.000000 0.000000
    outer loop
      vertex 0.000000 4.000000 -8.000000
      vertex -2.897777 4.000000 -7.223543
      vertex -2.598076 4.000000 -6.500000
    endloop
  endfacet
  facet normal 0.923880 0.000000 -0.382683
    outer loop
      vertex -2.598076 4.000000 -6.500000
      vertex -2.897777 4.000000 -7.223543
      vertex -2.897777 6.000000 -7.223543
    endloop
  endfacet
  facet normal 0.923880 0.000000 -0.382683
    outer loop
      vertex -2.598076 4.000000 -6.500000
      vertex -2.897777 6.000000 -7.223543
      vertex -2.598076 6.000000 -6.500000
    endloop
  endfacet
  facet normal 0.000000 -1.000000 0.000000
    outer loop
      vertex 0.000000 6.000000 -8.000000
      vertex -2.897777 6.000000 -7.223543
      vertex -3.000000 6.000000 -8.000000
    endloop
  endfacet
  facet normal 0.000000 1.000000 0.000000
    outer loop
      vertex 0.000000 4.000000 -8.000000
      vertex -3.000000 4.000000 -8.000000
      vertex -2.897777 4.000000 -7.223543
    endloop
  endfacet
  facet normal 0.991445 0.000000 -0.130526
    outer loop
      vertex -2.897777 4.000000 -7.223543
      vertex -3.000000 4.000000 -8.000000
      vertex -3.000000 6.000000 -8.000000
    endloop
  endfacet
  facet normal 0.991445 0.000000 -0.130526
    outer loop
      vertex -2.897777 4.000000 -7.223543
      vertex -3.000000 6.000000 -8.000000
      vertex -2.897777 6.000000 -7.223543
    endloop
  endfacet
  facet normal 0.000000 -1.000000 0.000000
    outer loop
      vertex 0.000000 6.000000 -8.000000
      vertex -3.000000 6.000000 -8.000000
      vertex -2.897777 6.000000 -8.776457
    endloop
  endfacet
  facet normal 0.000000 1.000000 0.000000
    outer loop
      vertex 0.000000 4.000000 -8.000000
      vertex -2.897777 4.000000 -8.776457
      vertex -3.000000 4.000000 -8.000000
    endloop
  endfacet
  facet normal 0.991445 0.000000 0.130526
    outer loop
      vertex -3.000000 4.000000 -8.000000
      vertex -2.897777 4.000000 -8.776457
      vertex -2.897777 6.000000 -8.776457
    endloop
  endfacet
  facet normal 0.991445 0.000000 0.130526
    outer loop
      vertex -3.000000 4.000000 -8.000000
      vertex -2.897777 6.000000 -8.776457
      vertex -3.000000 6.000000 -8.000000
    endloop
  endfacet
  facet normal 0.000000 -1.000000 0.000000
    outer loop
      vertex 0.000000 6.000000 -8.000000
      vertex -2.897777 6.000000 -8.776457
      vertex -2.598076 6.000000 -9.500000
    endloop
  endfacet
  facet normal 0.000000 1.000000 0.000000
    outer loop
      vertex 0.000000 4.000000 -8.000000
      vertex -2.598076 4.000000 -9.500000
      vertex -2.897777 4.000000 -8.776457
    endloop
  endfacet
  facet normal 0.923880 0.000000 0.382683
    outer loop
      vertex -2.897777 4.000000 -8.776457
      vertex -2.598076 4.000000 -9.500000
      vertex -2.598076 6.000000 -9.500000
    endloop
  endfacet
  facet normal 0.923880 0.000000 0.382683
    outer loop
      vertex -2.897777 4.000000 -8.776457
      vertex -2.598076 6.000000 -9.500000
      vertex -2.897777 6.000000 -8.776457
    endloop
  endfacet
  facet normal 0.000000 -1.000000 0.000000
    outer loop
      vertex 0.000000 6.000000 -8.000000
      vertex -2.598076 6.000000 -9.500000
      vertex -2.121320 6.000000 -10.121320
    endloop
  endfacet
  facet normal 0.000000 1.000000 0.000000
    outer loop
      vertex 0.000000 4.000000 -8.000000
      vertex -2.121320 4.000000 -10.121320
      vertex -2.598076 4.000000 -9.500000
    endloop
  endfacet
  facet normal 0.793353 0.000000 0.608761
    outer loop
      vertex -2.598076 4.000000 -9.500000
      vertex -2.121320 4.000000 -10.121320
      vertex -2.121320 6.000000 -10.121320
    endloop
  endfacet
  facet normal 0.793353 0.000000 0.608761
    outer loop
      vertex -2.598076 4.000000 -9.500000
      vertex -2.121320 6.000000 -10.121320
      vertex -2.598076 6.000000 -9.500000
    endloop
  endfacet
  facet normal 0.000000 -1.000000 0.000000
    outer loop
      vertex 0.000000 6.000000 -8.000000
      vertex -2.121320 6.000000 -10.121320
      vertex -1.500000 6.000000 -10.598076
    endloop
  endfacet
  facet normal 0.000000 1.000000 0.000000
    outer loop
      vertex 0.000000 4.000000 -8.000000
      vertex -1.500000 4.000000 -10.598076
      vertex -2.121320 4.000000 -10.121320
    endloop
  endfacet
  facet normal 0.608761 0.000000 0.793353
    outer loop
      vertex -2.121320 4.000000 -10.121320
      vertex -1.500000 4.000000 -10.598076
      vertex -1.500000 6.000000 -10.598076
    endloop
  endfacet
  facet normal 0.608761 0.000000 0.793353
    outer loop
      vertex -2.121320 4.000000 -10.121320
      vertex -1.500000 6.000000 -10.598076
      vertex -2.121320 6.000000 -10.121320
    endloop
  endfacet
  facet normal 0.000000 -1.000000 0.000000
    outer loop
      vertex 0.000000 6.000000 -8.000000
      vertex -1.500000 6.000000 -10.598076
      vertex -0.776457 6.000000 -10.897777
    endloop
  endfacet
  facet normal 0.000000 1.000000 0.000000
    outer loop
      vertex 0.000000 4.000000 -8.000000
      vertex -0.776457 4.000000 -10.897777
      vertex -1.500000 4.000000 -10.598076
    endloop
  endfacet
  facet normal 0.382683 0.000000 0.923880
    outer loop
      vertex -1.500000 4.000000 -10.598076
      vertex -0.776457 4.000000 -10.897777
      vertex -0.776457 6.000000 -10.897777
    endloop
  endfacet
  facet normal 0.382683 0.000000 0.923880
    outer loop
      vertex -1.500000 4.000000 -10.598076
      vertex -0.776457 6.000000 -10.897777
      vertex -1.500000 6.000000 -10.598076
    endloop
  endfacet
  facet normal 0.000000 -1.000000 0.000000
    outer loop
      vertex 0.000000 6.000000 -8.000000
      vertex -0.776457 6.000000 -10.897777
      vertex -0.000000 6.000000 -11.000000
    endloop
  endfacet
  facet normal 0.000000 1.000000 0.000000
    outer loop
      vertex 0.000000 4.000000 -8.000000
      vertex -0.000000 4.000000 -11.000000
      vertex -0.776457 4.000000 -10.897777
    endloop
  endfacet
  facet normal 0.130526 0.000000 0.991445
    outer loop
      vertex -0.776457 4.000000 -10.897777
      vertex -0.000000 4.000000 -11.000000
      vertex -0.000000 6.000000 -11.000000
    endloop
  endfacet
  facet normal 0.130526 0.000000 0.991445
    outer loop
      vertex -0.776457 4.000000 -10.897777
      vertex -0.000000 6.000000 -11.000000
      vertex -0.776457 6.000000 -10.897777
    endloop
  endfacet
  facet normal 0.000000 -1.000000 0.000000
    outer loop
      vertex 0.000000 6.000000 -8.000000
      vertex -0.000000 6.000000 -11.000000
      vertex 0.776457 6.000000 -10.897777
    endloop
  endfacet
  facet normal 0.000000 1.000000 0.000000
    outer loop
      vertex 0.000000 4.000000 -8.000000
      vertex 0.776457 4.000000 -10.897777
      vertex -0.000000 4.000000 -11.000000
    endloop
  endfacet
  facet normal -0.130526 0.000000 0.991445
    outer loop
      vertex -0.000000 4.000000 -11.000000
      vertex 0.776457 4.000000 -10.897777
      vertex 0.776457 6.000000 -10.897777
    endloop
  endfacet
  facet normal -0.130526 0.000000 0.991445
    outer loop
      vertex -0.000000 4.000000 -11.000000
      vertex 0.776457 6.000000 -10.897777
      vertex -0.000000 6.000000 -11.000000
    endloop
  endfacet
  facet normal 0.000000 -1.000000 0.000000
    outer loop
      vertex 0.000000 6.000000 -8.000000
      vertex 0.776457 6.000000 -10.897777
      vertex 1.500000 6.000000 -10.598076
    endloop
  endfacet
  facet normal 0.000000 1.000000 0.000000
    outer loop
      vertex 0.000000 4.000000 -8.000000
      vertex 1.500000 4.000000 -10.598076
      vertex 0.776457 4.000000 -10.897777
    endloop
  endfacet
  facet normal -0.382683 0.000000 0.923880
    outer loop
      vertex 0.776457 4.000000 -10.897777
      vertex 1.500000 4.000000 -10.598076
      vertex 1.500000 6.000000 -10.598076
    endloop
  endfacet
  facet normal -0.382683 0.000000 0.923880
    outer loop
      vertex 0.776457 4.000000 -10.897777
      vertex 1.500000 6.000000 -10.598076
      vertex 0.776457 6.000000 -10.897777
    endloop
  endfacet
  facet normal 0.000000 -1.000000 0.000000
    outer loop
      vertex 0.000000 6.000000 -8.000000
      vertex 1.500000 6.000000 -10.598076
      vertex 2.121320 6.000000 -10.121320
    endloop
  endfacet
  facet normal 0.000000 1.000000 0.000000
    outer loop
      vertex 0.000000 4.000000 -8.000000
      vertex 2.121320 4.000000 -10.121320
      vertex 1.500000 4.000000 -10.598076
    endloop
  endfacet
  facet normal -0.608761 0.000000 0.793353
    outer loop
      vertex 1.500000 4.000000 -10.598076
      vertex 2.121320 4.000000 -10.121320
      vertex 2.121320 6.000000 -10.121320
    endloop
  endfacet
  facet normal -0.608761 0.000000 0.793353
    outer loop
      vertex 1.500000 4.000000 -10.598076
      vertex 2.121320 6.000000 -10.121320
      vertex 1.500000 6.000000 -10.598076
    endloop
  endfacet
  facet normal 0.000000 -1.000000 0.000000
    outer loop
      vertex 0.000000 6.000000 -8.000000
      vertex 2.121320 6.000000 -10.121320
      vertex 2.598076 6.000000 -9.500000
    endloop
  endfacet
  facet normal 0.000000 1.000000 0.000000
    outer loop
      vertex 0.000000 4.000000 -8.000000
      vertex 2.598076 4.000000 -9.500000
      vertex 2.121320 4.000000 -10.121320
    endloop
  endfacet
  facet normal -0.793353 0.000000 0.608761
    outer loop
      vertex 2.121320 4.000000 -10.121320
      vertex 2.598076 4.000000 -9.500000
      vertex 2.598076 6.000000 -9.500000
    endloop
  endfacet
  facet normal -0.793353 0.000000 0.608761
    outer loop
      vertex 2.121320 4.000000 -10.121320
      vertex 2.598076 6.000000 -9.500000
      vertex 2.121320 6.000000 -10.121320
    endloop
  endfacet
  facet normal 0.000000 -1.000000 0.000000
    outer loop
      vertex 0.000000 6.000000 -8.000000
      vertex 2.598076 6.000000 -9.500000
      vertex 2.897777 6.000000 -8.776457
    endloop
  endfacet
  facet normal 0.000000 1.000000 0.000000
    outer loop
      vertex 0.000000 4.000000 -8.000000
      vertex 2.897777 4.000000 -8.776457
      vertex 2.598076 4.000000 -9.500000
    endloop
  endfacet
  facet normal -0.923880 0.000000 0.382683
    outer loop
      vertex 2.598076 4.000000 -9.500000
      vertex 2.897777 4.000000 -8.776457
      vertex 2.897777 6.000000 -8.776457
    endloop
  endfacet
  facet normal -0.923880 0.000000 0.382683
    outer loop
      vertex 2.598076 4.000000 -9.500000
      vertex 2.897777 6.000000 -8.776457
      vertex 2.598076 6.000000 -9.500000
    endloop
  endfacet
  facet normal 0.000000 -1.000000 0.000000
    outer loop
      vertex 0.000000 6.000000 -8.000000
      vertex 2.897777 6.000000 -8.776457
      vertex 3.000000 6.000000 -8.000000
    endloop
  endfacet
  facet normal 0.000000 1.000000 0.000000
    outer loop
      vertex 0.000000 4.000000 -8.000000
      vertex 3.000000 4.000000 -8.000000
      vertex 2.897777 4.000000 -8.776457
    endloop
  endfacet
  facet normal -0.991445 0.000000 0.130526
    outer loop
      vertex 2.897777 4.000000 -8.776457
      vertex 3.000000 4.000000 -8.000000
      vertex 3.000000 6.000000 -8.000000
    endloop
  endfacet
  facet normal -0.991445 0.000000 0.130526
    outer loop
      vertex 2.897777 4.000000 -8.776457
      vertex 3.000000 6.000000 -8.000000
      vertex 2.897777 6.000000 -8.776457
    endloop
  endfacet
  facet normal 0.000000 0.000000 -1.000000
    outer loop
      vertex 0.000000 5.000000 30.000000
      vertex 1.500000 5.000000 30.000000
      vertex 1.448889 4.611771 30.000000
    endloop
  endfacet
  facet normal 0.000000 0.000000 1.000000
    outer loop
      vertex 0.000000 5.000000 20.000000
      vertex 1.448889 4.611771 20.000000
      vertex 1.500000 5.000000 20.000000
    endloop
  endfacet
  facet normal -0.991445 0.130526 -0.000000
    outer loop
      vertex 1.500000 5.000000 20.000000
      vertex 1.448889 4.611771 20.000000
      vertex 1.448889 4.611771 30.000000
    endloop
  endfacet
  facet normal -0.991445 0.130526 0.000000
    outer loop
      vertex 1.500000 5.000000 20.000000
      vertex 1.448889 4.611771 30.000000
      vertex 1.500000 5.000000 30.000000
    endloop
  endfacet
  facet normal 0.000000 0.000000 -1.000000
    outer loop
      vertex 0.000000 5.000000 30.000000
      vertex 1.448889 4.611771 30.000000
      vertex 1.299038 4.250000 30.000000
    endloop
  endfacet
  facet normal 0.000000 0.000000 1.000000
    outer loop
      vertex 0.000000 5.000000 20.000000
      vertex 1.299038 4.250000 20.000000
      vertex 1.448889 4.611771 20.000000
    endloop
  endfacet
  facet normal -0.923880 0.382683 0.000000
    outer loop
      vertex 1.448889 4.611771 20.000000
      vertex 1.299038 4.250000 20.000000
      vertex 1.299038 4.250000 30.000000
    endloop
  endfacet
  facet normal -0.923880 0.382683 -0.000000
    outer loop
      vertex 1.448889 4.611771 20.000000
      vertex 1.299038 4.250000 30.000000
      vertex 1.448889 4.611771 30.000000
    endloop
  endfacet
  facet normal 0.000000 0.000000 -1.000000
    outer loop
      vertex 0.000000 5.000000 30.000000
      vertex 1.299038 4.250000 30.000000
      vertex 1.060660 3.939340 30.000000
    endloop
  endfacet
  facet normal 0.000000 0.000000 1.000000
    outer loop
      vertex 0.000000 5.000000 20.000000
      vertex 1.060660 3.939340 20.000000
      vertex 1.299038 4.250000 20.000000
    endloop
  endfacet
  facet normal -0.793353 0.608761 -0.000000
    outer loop
      vertex 1.299038 4.250000 20.000000
      vertex 1.060660 3.939340 20.000000
      vertex 1.060660 3.939340 30.000000
    endloop
  endfacet
  facet normal -0.793353 0.608761 0.000000
    outer loop
      vertex 1.299038 4.250000 20.000000
      vertex 1.060660 3.939340 30.000000
      vertex 1.299038 4.250000 30.000000
    endloop
  endfacet
  facet normal 0.000000 0.000000 -1.000000
    outer loop
      vertex 0.000000 5.000000 30.000000
      vertex 1.060660 3.939340 30.000000
      vertex 0.750000 3.700962 30.000000
    endloop
  endfacet
  facet normal 0.000000 0.000000 1.000000
    outer loop
      vertex 0.000000 5.000000 20.000000
      vertex 0.750000 3.700962 20.000000
      vertex 1.060660 3.939340 20.000000
    endloop
  endfacet
  facet normal -0.608761 0.793353 0.000000
    outer loop
      vertex 1.060660 3.939340 20.000000
      vertex 0.750000 3.700962 20.000000
      vertex 0.750000 3.700962 30.000000
    endloop
  endfacet
  facet normal -0.608761 0.793353 -0.000000
    outer loop
      vertex 1.060660 3.939340 20.000000
      vertex 0.750000 3.700962 30.000000
      vertex 1.060660 3.939340 30.000000
    endloop
  endfacet
  facet normal 0.000000 0.000000 -1.000000
    outer loop
      vertex 0.000000 5.000000 30.000000
      vertex 0.750000 3.700962 30.000000
      vertex 0.388229 3.551111 30.000000
    endloop
  endfacet
  facet normal 0.000000 0.000000 1.000000
    outer loop
      vertex 0.000000 5.000000 20.000000
      vertex 0.388229 3.551111 20.000000
      vertex 0.750000 3.700962 20.000000
    endloop
  endfacet
  facet normal -0.382683 0.923880 0.000000
    outer loop
      vertex 0.750000 3.700962 20.000000
      vertex 0.388229 3.551111 20.000000
      vertex 0.388229 3.551111 30.000000
    endloop
  endfacet
  facet normal -0.382683 0.923880 0.000000
    outer loop
      vertex 0.750000 3.700962 20.000000
      vertex 0.388229 3.551111 30.000000
      vertex 0.750000 3.700962 30.000000
    endloop
  endfacet
  facet normal 0.000000 0.000000 -1.000000
    outer loop
      vertex 0.000000 5.000000 30.000000
      vertex 0.388229 3.551111 30.000000
      vertex 0.000000 3.500000 30.000000
    endloop
  endfacet
  facet normal 0.000000 0.000000 1.000000
    outer loop
      vertex 0.000000 5.000000 20.000000
      vertex 0.000000 3.500000 20.000000
      vertex 0.388229 3.551111 20.000000
    endloop
  endfacet
  facet normal -0.130526 0.991445 0.000000
    outer loop
      vertex 0.388229 3.551111 20.000000
      vertex 0.000000 3.500000 20.000000
      vertex 0.000000 3.500000 30.000000
    endloop
  endfacet
  facet normal -0.130526 0.991445 0.000000
    outer loop
      vertex 0.388229 3.551111 20.000000
      vertex 0.000000 3.500000 30.000000
      vertex 0.388229 3.551111 30.000000
    endloop
  endfacet
  facet normal 0.000000 0.000000 -1.000000
    outer loop
      vertex 0.000000 5.000000 30.000000
      vertex 0.000000 3.500000 30.000000
      vertex -0.388229 3.551111 30.000000
    endloop
  endfacet
  facet normal 0.000000 0.000000 1.000000
    outer loop
      vertex 0.000000 5.000000 20.000000
      vertex -0.388229 3.551111 20.000000
      vertex 0.000000 3.500000 20.000000
    endloop
  endfacet
  facet normal 0.130526 0.991445 0.000000
    outer loop
      vertex 0.000000 3.500000 20.000000
      vertex -0.388229 3.551111 20.000000
      vertex -0.388229 3.551111 30.000000
    endloop
  endfacet
  facet normal 0.130526 0.991445 0.000000
    outer loop
      vertex 0.000000 3.500000 20.000000
      vertex -0.388229 3.551111 30.000000
      vertex 0.000000 3.500000 30.000000
    endloop
  endfacet
  facet normal 0.000000 0.000000 -1.000000
    outer loop
      vertex 0.000000 5.000000 30.000000
      vertex -0.388229 3.551111 30.000000
      vertex -0.750000 3.700962 30.000000
    endloop
  endfacet
  facet normal 0.000000 0.000000 1.000000
    outer loop
      vertex 0.000000 5.000000 20.000000
      vertex -0.750000 3.700962 20.000000
      vertex -0.388229 3.551111 20.000000
    endloop
  endfacet
  facet normal 0.382683 0.923880 0.000000
    outer loop
      vertex -0.388229 3.551111 20.000000
      vertex -0.750000 3.700962 20.000000
      vertex -0.750000 3.700962 30.000000
    endloop
  endfacet
  facet normal 0.382683 0.923880 0.000000
    outer loop
      vertex -0.388229 3.551111 20.000000
      vertex -0.750000 3.700962 30.000000
      vertex -0.388229 3.551111 30.000000
    endloop
  endfacet
  facet normal 0.000000 0.000000 -1.000000
    outer loop
      vertex 0.000000 5.000000 30.000000
      vertex -0.750000 3.700962 30.000000
      vertex -1.060660 3.939340 30.000000
    endloop
  endfacet
  facet normal 0.000000 0.000000 1.000000
    outer loop
      vertex 0.000000 5.000000 20.000000
      vertex -1.060660 3.939340 20.000000
      vertex -0.750000 3.700962 20.000000
    endloop
  endfacet
  facet normal 0.608761 0.793353 -0.000000
    outer loop
      vertex -0.750000 3.700962 20.000000
      vertex -1.060660 3.939340 20.000000
      vertex -1.060660 3.939340 30.000000
    endloop
  endfacet
  facet normal 0.608761 0.793353 0.000000
    outer loop
      vertex -0.750000 3.700962 20.000000
      vertex -1.060660 3.939340 30.000000
      vertex -0.750000 3.700962 30.000000
    endloop
  endfacet
  facet normal 0.000000 0.000000 -1.000000
    outer loop
      vertex 0.000000 5.000000 30.000000
      vertex -1.060660 3.939340 30.000000
      vertex -1.299038 4.250000 30.000000
    endloop
  endfacet
  facet normal 0.000000 0.000000 1.000000
    outer loop
      vertex 0.000000 5.000000 20.000000
      vertex -1.299038 4.250000 20.000000
      vertex -1.060660 3.939340 20.000000
    endloop
  endfacet
  facet normal 0.793353 0.608761 0.000000
    outer loop
      vertex -1.060660 3.939340 20.000000
      vertex -1.299038 4.250000 20.000000
      vertex -1.299038 4.250000 30.000000
    endloop
  endfacet
  facet normal 0.793353 0.608761 -0.000000
    outer loop
      vertex -1.060660 3.939340 20.000000
      vertex -1.299038 4.250000 30.000000
      vertex -1.060660 3.939340 30.000000
    endloop
  endfacet
  facet normal 0.000000 0.000000 -1.000000
    outer loop
      vertex 0.000000 5.000000 30.000000
      vertex -1.299038 4.250000 30.000000
      vertex -1.448889 4.611771 30.000000
    endloop
  endfacet
  facet normal 0.000000 0.000000 1.000000
    outer loop
      vertex 0.000000 5.000000 20.000000
      vertex -1.448889 4.611771 20.000000
      vertex -1.299038 4.250000 20.000000
    endloop
  endfacet
  facet normal 0.923880 0.382683 0.000000
    outer loop
      vertex -1.299038 4.250000 20.000000
      vertex -1.448889 4.611771 20.000000
      vertex -1.448889 4.611771 30.000000
    endloop
  endfacet
  facet normal 0.923880 0.382683 0.000000
    outer loop
      vertex -1.299038 4.250000 20.000000
      vertex -1.448889 4.611771 30.000000
      vertex -1.299038 4.250000 30.000000
    endloop
  endfacet
  facet normal 0.000000 0.000000 -1.000000
    outer loop
      vertex 0.000000 5.000000 30.000000
      vertex -1.448889 4.611771 30.000000
      vertex -1.500000 5.000000 30.000000
    endloop
  endfacet
  facet normal 0.000000 0.000000 1.000000
    outer loop
      vertex 0.000000 5.000000 20.000000
      vertex -1.500000 5.000000 20.000000
      vertex -1.448889 4.611771 20.000000
    endloop
  endfacet
  facet normal 0.991445 0.130526 -0.000000
    outer loop
      vertex -1.448889 4.611771 20.000000
      vertex -1.500000 5.000000 20.000000
      vertex -1.500000 5.000000 30.000000
    endloop
  endfacet
  facet normal 0.991445 0.130526 0.000000
    outer loop
      vertex -1.448889 4.611771 20.000000
      vertex -1.500000 5.000000 30.000000
      vertex -1.448889 4.611771 30.000000
    endloop
  endfacet
  facet normal 0.000000 0.000000 -1.000000
    outer loop
      vertex 0.000000 5.000000 30.000000
      vertex -1.500000 5.000000 30.000000
      vertex -1.448889 5.388229 30.000000
    endloop
  endfacet
  facet normal 0.000000 0.000000 1.000000
    outer loop
      vertex 0.000000 5.000000 20.000000
      vertex -1.448889 5.388229 20.000000
      vertex -1.500000 5.000000 20.000000
    endloop
  endfacet
  facet normal 0.991445 -0.130526 0.000000
    outer loop
      vertex -1.500000 5.000000 20.000000
      vertex -1.448889 5.388229 20.000000
      vertex -1.448889 5.388229 30.000000
    endloop
  endfacet
  facet normal 0.991445 -0.130526 0.000000
    outer loop
      vertex -1.500000 5.000000 20.000000
      vertex -1.448889 5.388229 30.000000
      vertex -1.500000 5.000000 30.000000
    endloop
  endfacet
  facet normal 0.000000 0.000000 -1.000000
    outer loop
      vertex 0.000000 5.000000 30.000000
      vertex -1.448889 5.388229 30.000000
      vertex -1.299038 5.750000 30.000000
    endloop
  endfacet
  facet normal 0.000000 0.000000 1.000000
    outer loop
      vertex 0.000000 5.000000 20.000000
      vertex -1.299038 5.750000 20.000000
      vertex -1.448889 5.388229 20.000000
    endloop
  endfacet
  facet normal 0.923880 -0.382683 0.000000
    outer loop
      vertex -1.448889 5.388229 20.000000
      vertex -1.299038 5.750000 20.000000
      vertex -1.299038 5.750000 30.000000
    endloop
  endfacet
  facet normal 0.923880 -0.382683 0.000000
    outer loop
      vertex -1.448889 5.388229 20.000000
      vertex -1.299038 5.750000 30.000000
      vertex -1.448889 5.388229 30.000000
    endloop
  endfacet
  facet normal 0.000000 0.000000 -1.000000
    outer loop
      vertex 0.000000 5.000000 30.000000
      vertex -1.299038 5.750000 30.000000
      vertex -1.060660 6.060660 30.000000
    endloop
  endfacet
  facet normal 0.000000 0.000000 1.000000
    outer loop
      vertex 0.000000 5.000000 20.000000
      vertex -1.060660 6.060660 20.000000
      vertex -1.299038 5.750000 20.000000
    endloop
  endfacet
  facet normal 0.793353 -0.608761 0.000000
    outer loop
      vertex -1.299038 5.750000 20.000000
      vertex -1.060660 6.060660 20.000000
      vertex -1.060660 6.060660 30.000000
    endloop
  endfacet
  facet normal 0.793353 -0.608761 0.000000
    outer loop
      vertex -1.299038 5.750000 20.000000
      vertex -1.060660 6.060660 30.000000
      vertex -1.299038 5.750000 30.000000
    endloop
  endfacet
  facet normal 0.000000 0.000000 -1.000000
    outer loop
      vertex 0.000000 5.000000 30.000000
      vertex -1.060660 6.060660 30.000000
      vertex -0.750000 6.299038 30.000000
    endloop
  endfacet
  facet normal 0.000000 0.000000 1.000000
    outer loop
      vertex 0.000000 5.000000 20.000000
      vertex -0.750000 6.299038 20.000000
      vertex -1.060660 6.060660 20.000000
    endloop
  endfacet
  facet normal 0.608761 -0.793353 0.000000
    outer loop
      vertex -1.060660 6.060660 20.000000
      vertex -0.750000 6.299038 20.000000
      vertex -0.750000 6.299038 30.000000
    endloop
  endfacet
  facet normal 0.608761 -0.793353 0.000000
    outer loop
      vertex -1.060660 6.060660 20.000000
      vertex -0.750000 6.299038 30.000000
      vertex -1.060660 6.060660 30.000000
    endloop
  endfacet
  facet normal 0.000000 0.000000 -1.000000
    outer loop
      vertex 0.000000 5.000000 30.000000
      vertex -0.750000 6.299038 30.000000
      vertex -0.388229 6.448889 30.000000
    endloop
  endfacet
  facet normal 0.000000 0.000000 1.000000
    outer loop
      vertex 0.000000 5.000000 20.000000
      vertex -0.388229 6.448889 20.000000
      vertex -0.750000 6.299038 20.000000
    endloop
  endfacet
  facet normal 0.382683 -0.923880 0.000000
    outer loop
      vertex -0.750000 6.299038 20.000000
      vertex -0.388229 6.448889 20.000000
      vertex -0.388229 6.448889 30.000000
    endloop
  endfacet
  facet normal 0.382683 -0.923880 0.000000
    outer loop
      vertex -0.750000 6.299038 20.000000
      vertex -0.388229 6.448889 30.000000
      vertex -0.750000 6.299038 30.000000
    endloop
  endfacet
  facet normal 0.000000 0.000000 -1.000000
    outer loop
      vertex 0.000000 5.000000 30.000000
      vertex -0.388229 6.448889 30.000000
      vertex -0.000000 6.500000 30.000000
    endloop
  endfacet
  facet normal 0.000000 0.000000 1.000000
    outer loop
      vertex 0.000000 5.000000 20.000000
      vertex -0.000000 6.500000 20.000000
      vertex -0.388229 6.448889 20.000000
    endloop
  endfacet
  facet normal 0.130526 -0.991445 0.000000
    outer loop
      vertex -0.388229 6.448889 20.000000
      vertex -0.000000 6.500000 20.000000
      vertex -0.000000 6.500000 30.000000
    endloop
  endfacet
  facet normal 0.130526 -0.991445 0.000000
    outer loop
      vertex -0.388229 6.448889 20.000000
      vertex -0.000000 6.500000 30.000000
      vertex -0.388229 6.448889 30.000000
    endloop
  endfacet
  facet normal 0.000000 0.000000 -1.000000
    outer loop
      vertex 0.000000 5.000000 30.000000
      vertex -0.000000 6.500000 30.000000
      vertex 0.388229 6.448889 30.000000
    endloop
  endfacet
  facet normal 0.000000 0.000000 1.000000
    outer loop
      vertex 0.000000 5.000000 20.000000
      vertex 0.388229 6.448889 20.000000
      vertex -0.000000 6.500000 20.000000
    endloop
  endfacet
  facet normal -0.130526 -0.991445 0.000000
    outer loop
      vertex -0.000000 6.500000 20.000000
      vertex 0.388229 6.448889 20.000000
      vertex 0.388229 6.448889 30.000000
    endloop
  endfacet
  facet normal -0.130526 -0.991445 0.000000
    outer loop
      vertex -0.000000 6.500000 20.000000
      vertex 0.388229 6.448889 30.000000
      vertex -0.000000 6.500000 30.000000
    endloop
  endfacet
  facet normal 0.000000 0.000000 -1.000000
    outer loop
      vertex 0.000000 5.000000 30.000000
      vertex 0.388229 6.448889 30.000000
      vertex 0.750000 6.299038 30.000000
    endloop
  endfacet
  facet normal 0.000000 0.000000 1.000000
    outer loop
      vertex 0.000000 5.000000 20.000000
      vertex 0.750000 6.299038 20.000000
      vertex 0.388229 6.448889 20.000000
    endloop
  endfacet
  facet normal -0.382683 -0.923880 0.000000
    outer loop
      vertex 0.388229 6.448889 20.000000
      vertex 0.750000 6.299038 20.000000
      vertex 0.750000 6.299038 30.000000
    endloop
  endfacet
  facet normal -0.382683 -0.923880 0.000000
    outer loop
      vertex 0.388229 6.448889 20.000000
      vertex 0.750000 6.299038 30.000000
      vertex 0.388229 6.448889 30.000000
    endloop
  endfacet
  facet normal 0.000000 0.000000 -1.000000
    outer loop
      vertex 0.000000 5.000000 30.000000
      vertex 0.750000 6.299038 30.000000
      vertex 1.060660 6.060660 30.000000
    endloop
  endfacet
  facet normal 0.000000 0.000000 1.000000
    outer loop
      vertex 0.000000 5.000000 20.000000
      vertex 1.060660 6.060660 20.000000
      vertex 0.750000 6.299038 20.000000
    endloop
  endfacet
  facet normal -0.608761 -0.793353 0.000000
    outer loop
      vertex 0.750000 6.299038 20.000000
      vertex 1.060660 6.060660 20.000000
      vertex 1.060660 6.060660 30.000000
    endloop
  endfacet
  facet normal -0.608761 -0.793353 0.000000
    outer loop
      vertex 0.750000 6.299038 20.000000
      vertex 1.060660 6.060660 30.000000
      vertex 0.750000 6.299038 30.000000
    endloop
  endfacet
  facet normal 0.000000 0.000000 -1.000000
    outer loop
      vertex 0.000000 5.000000 30.000000
      vertex 1.060660 6.060660 30.000000
      vertex 1.299038 5.750000 30.000000
    endloop
  endfacet
  facet normal 0.000000 0.000000 1.000000
    outer loop
      vertex 0.000000 5.000000 20.000000
      vertex 1.299038 5.750000 20.000000
      vertex 1.060660 6.060660 20.000000
    endloop
  endfacet
  facet normal -0.793353 -0.608761 0.000000
    outer loop
      vertex 1.060660 6.060660 20.000000
      vertex 1.299038 5.750000 20.000000
      vertex 1.299038 5.750000 30.000000
    endloop
  endfacet
  facet normal -0.793353 -0.608761 0.000000
    outer loop
      vertex 1.060660 6.060660 20.000000
      vertex 1.299038 5.750000 30.000000
      vertex 1.060660 6.060660 30.000000
    endloop
  endfacet
  facet normal 0.000000 0.000000 -1.000000
    outer loop
      vertex 0.000000 5.000000 30.000000
      vertex 1.299038 5.750000 30.000000
      vertex 1.448889 5.388229 30.000000
    endloop
  endfacet
  facet normal 0.000000 0.000000 1.000000
    outer loop
      vertex 0.000000 5.000000 20.000000
      vertex 1.448889 5.388229 20.000000
      vertex 1.299038 5.750000 20.000000
    endloop
  endfacet
  facet normal -0.923880 -0.382683 0.000000
    outer loop
      vertex 1.299038 5.750000 20.000000
      vertex 1.448889 5.388229 20.000000
      vertex 1.448889 5.388229 30.000000
    endloop
  endfacet
  facet normal -0.923880 -0.382683 0.000000
    outer loop
      vertex 1.299038 5.750000 20.000000
      vertex 1.448889 5.388229 30.000000
      vertex 1.299038 5.750000 30.000000
    endloop
  endfacet
  facet normal 0.000000 0.000000 -1.000000
    outer loop
      vertex 0.000000 5.000000 30.000000
      vertex 1.448889 5.388229 30.000000
      vertex 1.500000 5.000000 30.000000
    endloop
  endfacet
  facet normal 0.000000 0.000000 1.000000
    outer loop
      vertex 0.000000 5.000000 20.000000
      vertex 1.500000 5.000000 20.000000
      vertex 1.448889 5.388229 20.000000
    endloop
  endfacet
  facet normal -0.991445 -0.130526 0.000000
    outer loop
      vertex 1.448889 5.388229 20.000000
      vertex 1.500000 5.000000 20.000000
      vertex 1.500000 5.000000 30.000000
    endloop
  endfacet
  facet normal -0.991445 -0.130526 0.000000
    outer loop
      vertex 1.448889 5.388229 20.000000
      vertex 1.500000 5.000000 30.000000
      vertex 1.448889 5.388229 30.000000
    endloop
  endfacet
endsolid n20_gear_motor_encoder