solid optocoupler_pc817
  facet normal 0.000000 -1.000000 0.000000
    outer loop
      vertex -10.000000 1.600000 -10.000000
      vertex 10.000000 1.600000 -10.000000
      vertex 10.000000 1.600000 10.000000
    endloop
  endfacet
  facet normal 0.000000 -1.000000 0.000000
    outer loop
      vertex -10.000000 1.600000 -10.000000
      vertex 10.000000 1.600000 10.000000
      vertex -10.000000 1.600000 10.000000
    endloop
  endfacet
  facet normal 0.000000 1.000000 0.000000
    outer loop
      vertex -10.000000 0.000000 10.000000
      vertex 10.000000 0.000000 10.000000
      vertex 10.000000 0.000000 -10.000000
    endloop
  endfacet
  facet normal 0.000000 1.000000 0.000000
    outer loop
      vertex -10.000000 0.000000 10.000000
      vertex 10.000000 0.000000 -10.000000
      vertex -10.000000 0.000000 -10.000000
    endloop
  endfacet
  facet normal 0.000000 0.000000 -1.000000
    outer loop
      vertex -10.000000 1.600000 10.000000
      vertex 10.000000 1.600000 10.000000
      vertex 10.000000 0.000000 10.000000
    endloop
  endfacet
  facet normal 0.000000 0.000000 -1.000000
    outer loop
      vertex -10.000000 1.600000 10.000000
      vertex 10.000000 0.000000 10.000000
      vertex -10.000000 0.000000 10.000000
    endloop
  endfacet
  facet normal 0.000000 0.000000 1.000000
    outer loop
      vertex 10.000000 0.000000 -10.000000
      vertex 10.000000 1.600000 -10.000000
      vertex -10.000000 1.600000 -10.000000
    endloop
  endfacet
  facet normal 0.000000 0.000000 1.000000
    outer loop
      vertex 10.000000 0.000000 -10.000000
      vertex -10.000000 1.600000 -10.000000
      vertex -10.000000 0.000000 -10.000000
    endloop
  endfacet
  facet normal -1.000000 0.000000 0.000000
    outer loop
      vertex 10.000000 0.000000 10.000000
      vertex 10.000000 1.600000 10.000000
      vertex 10.000000 1.600000 -10.000000
    endloop
  endfacet
  facet normal -1.000000 0.000000 0.000000
    outer loop
      vertex 10.000000 0.000000 10.000000
      vertex 10.000000 1.600000 -10.000000
      vertex 10.000000 0.000000 -10.000000
    endloop
  endfacet
  facet normal 1.000000 0.000000 0.000000
    outer loop
      vertex -10.000000 0.000000 -10.000000
      vertex -10.000000 1.600000 -10.000000
      vertex -10.000000 1.600000 10.000000
    endloop
  endfacet
  facet normal 1.000000 0.000000 0.000000
    outer loop
      vertex -10.000000 0.000000 -10.000000
      vertex -10.000000 1.600000 10.000000
      vertex -10.000000 0.000000 10.000000
    endloop
  endfacet
  facet normal 0.000000 -1.000000 0.000000
    outer loop
      vertex -4.910000 7.225000 -8.560000
      vertex -2.710000 7.225000 -8.560000
      vertex -2.710000 7.225000 -6.360000
    endloop
  endfacet
  facet normal 0.000000 -1.000000 0.000000
    outer loop
      vertex -4.910000 7.225000 -8.560000
      vertex -2.710000 7.225000 -6.360000
      vertex -4.910000 7.225000 -6.360000
    endloop
  endfacet
  facet normal 0.000000 1.000000 0.000000
    outer loop
      vertex -4.910000 5.675000 -6.360000
      vertex -2.710000 5.675000 -6.360000
      vertex -2.710000 5.675000 -8.560000
    endloop
  endfacet
  facet normal 0.000000 1.000000 0.000000
    outer loop
      vertex -4.910000 5.675000 -6.360000
      vertex -2.710000 5.675000 -8.560000
      vertex -4.910000 5.675000 -8.560000
    endloop
  endfacet
  facet normal 0.000000 0.000000 -1.000000
    outer loop
      vertex -4.910000 7.225000 -6.360000
      vertex -2.710000 7.225000 -6.360000
      vertex -2.710000 5.675000 -6.360000
    endloop
  endfacet
  facet normal 0.000000 0.000000 -1.000000
    outer loop
      vertex -4.910000 7.225000 -6.360000
      vertex -2.710000 5.675000 -6.360000
      vertex -4.910000 5.675000 -6.360000
    endloop
  endfacet
  facet normal 0.000000 0.000000 1.000000
    outer loop
      vertex -2.710000 5.675000 -8.560000
      vertex -2.710000 7.225000 -8.560000
      vertex -4.910000 7.225000 -8.560000
    endloop
  endfacet
  facet normal 0.000000 0.000000 1.000000
    outer loop
      vertex -2.710000 5.675000 -8.560000
      vertex -4.910000 7.225000 -8.560000
      vertex -4.910000 5.675000 -8.560000
    endloop
  endfacet
  facet normal -1.000000 0.000000 0.000000
    outer loop
      vertex -2.710000 5.675000 -6.360000
      vertex -2.710000 7.225000 -6.360000
      vertex -2.710000 7.225000 -8.560000
    endloop
  endfacet
  facet normal -1.000000 0.000000 0.000000
    outer loop
      vertex -2.710000 5.675000 -6.360000
      vertex -2.710000 7.225000 -8.560000
      vertex -2.710000 5.675000 -8.560000
    endloop
  endfacet
  facet normal 1.000000 0.000000 0.000000
    outer loop
      vertex -4.910000 5.675000 -8.560000
      vertex -4.910000 7.225000 -8.560000
      vertex -4.910000 7.225000 -6.360000
    endloop
  endfacet
  facet normal 1.000000 0.000000 0.000000
    outer loop
      vertex -4.910000 5.675000 -8.560000
      vertex -4.910000 7.225000 -6.360000
      vertex -4.910000 5.675000 -6.360000
    endloop
  endfacet
  facet normal 0.000000 -1.000000 0.000000
    outer loop
      vertex -4.140000 11.200000 -7.790000
      vertex -3.480000 11.200000 -7.790000
      vertex -3.480000 11.200000 -7.130000
    endloop
  endfacet
  facet normal 0.000000 -1.000000 0.000000
    outer loop
      vertex -4.140000 11.200000 -7.790000
      vertex -3.480000 11.200000 -7.130000
      vertex -4.140000 11.200000 -7.130000
    endloop
  endfacet
  facet normal 0.000000 1.000000 0.000000
    outer loop
      vertex -4.140000 6.000000 -7.130000
      vertex -3.480000 6.000000 -7.130000
      vertex -3.480000 6.000000 -7.790000
    endloop
  endfacet
  facet normal 0.000000 1.000000 0.000000
    outer loop
      vertex -4.140000 6.000000 -7.130000
      vertex -3.480000 6.000000 -7.790000
      vertex -4.140000 6.000000 -7.790000
    endloop
  endfacet
  facet normal 0.000000 0.000000 -1.000000
    outer loop
      vertex -4.140000 11.200000 -7.130000
      vertex -3.480000 11.200000 -7.130000
      vertex -3.480000 6.000000 -7.130000
    endloop
  endfacet
  facet normal 0.000000 0.000000 -1.000000
    outer loop
      vertex -4.140000 11.200000 -7.130000
      vertex -3.480000 6.000000 -7.130000
      vertex -4.140000 6.000000 -7.130000
    endloop
  endfacet
  facet normal 0.000000 0.000000 1.000000
    outer loop
      vertex -3.480000 6.000000 -7.790000
      vertex -3.480000 11.200000 -7.790000
      vertex -4.140000 11.200000 -7.790000
    endloop
  endfacet
  facet normal 0.000000 0.000000 1.000000
    outer loop
      vertex -3.480000 6.000000 -7.790000
      vertex -4.140000 11.200000 -7.790000
      vertex -4.140000 6.000000 -7.790000
    endloop
  endfacet
  facet normal -1.000000 0.000000 0.000000
    outer loop
      vertex -3.480000 6.000000 -7.130000
      vertex -3.480000 11.200000 -7.130000
      vertex -3.480000 11.200000 -7.790000
    endloop
  endfacet
  facet normal -1.000000 0.000000 0.000000
    outer loop
      vertex -3.480000 6.000000 -7.130000
      vertex -3.480000 11.200000 -7.790000
      vertex -3.480000 6.000000 -7.790000
    endloop
  endfacet
  facet normal 1.000000 0.000000 0.000000
    outer loop
      vertex -4.140000 6.000000 -7.790000
      vertex -4.140000 11.200000 -7.790000
      vertex -4.140000 11.200000 -7.130000
    endloop
  endfacet
  facet normal 1.000000 0.000000 0.000000
    outer loop
      vertex -4.140000 6.000000 -7.790000
      vertex -4.140000 11.200000 -7.130000
      vertex -4.140000 6.000000 -7.130000
    endloop
  endfacet
  facet normal 0.000000 -1.000000 0.000000
    outer loop
      vertex -2.370000 7.225000 -8.560000
      vertex -0.170000 7.225000 -8.560000
      vertex -0.170000 7.225000 -6.360000
    endloop
  endfacet
  facet normal 0.000000 -1.000000 0.000000
    outer loop
      vertex -2.370000 7.225000 -8.560000
      vertex -0.170000 7.225000 -6.360000
      vertex -2.370000 7.225000 -6.360000
    endloop
  endfacet
  facet normal 0.000000 1.000000 0.000000
    outer loop
      vertex -2.370000 5.675000 -6.360000
      vertex -0.170000 5.675000 -6.360000
      vertex -0.170000 5.675000 -8.560000
    endloop
  endfacet
  facet normal 0.000000 1.000000 0.000000
    outer loop
      vertex -2.370000 5.675000 -6.360000
      vertex -0.170000 5.675000 -8.560000
      vertex -2.370000 5.675000 -8.560000
    endloop
  endfacet
  facet normal 0.000000 0.000000 -1.000000
    outer loop
      vertex -2.370000 7.225000 -6.360000
      vertex -0.170000 7.225000 -6.360000
      vertex -0.170000 5.675000 -6.360000
    endloop
  endfacet
  facet normal 0.000000 0.000000 -1.000000
    outer loop
      vertex -2.370000 7.225000 -6.360000
      vertex -0.170000 5.675000 -6.360000
      vertex -2.370000 5.675000 -6.360000
    endloop
  endfacet
  facet normal 0.000000 0.000000 1.000000
    outer loop
      vertex -0.170000 5.675000 -8.560000
      vertex -0.170000 7.225000 -8.560000
      vertex -2.370000 7.225000 -8.560000
    endloop
  endfacet
  facet normal 0.000000 0.000000 1.000000
    outer loop
      vertex -0.170000 5.675000 -8.560000
      vertex -2.370000 7.225000 -8.560000
      vertex -2.370000 5.675000 -8.560000
    endloop
  endfacet
  facet normal -1.000000 0.000000 0.000000
    outer loop
      vertex -0.170000 5.675000 -6.360000
      vertex -0.170000 7.225000 -6.360000
      vertex -0.170000 7.225000 -8.560000
    endloop
  endfacet
  facet normal -1.000000 0.000000 0.000000
    outer loop
      vertex -0.170000 5.675000 -6.360000
      vertex -0.170000 7.225000 -8.560000
      vertex -0.170000 5.675000 -8.560000
    endloop
  endfacet
  facet normal 1.000000 0.000000 0.000000
    outer loop
      vertex -2.370000 5.675000 -8.560000
      vertex -2.370000 7.225000 -8.560000
      vertex -2.370000 7.225000 -6.360000
    endloop
  endfacet
  facet normal 1.000000 0.000000 0.000000
    outer loop
      vertex -2.370000 5.675000 -8.560000
      vertex -2.370000 7.225000 -6.360000
      vertex -2.370000 5.675000 -6.360000
    endloop
  endfacet
  facet normal 0.000000 -1.000000 0.000000
    outer loop
      vertex -1.600000 11.200000 -7.790000
      vertex -0.940000 11.200000 -7.790000
      vertex -0.940000 11.200000 -7.130000
    endloop
  endfacet
  facet normal 0.000000 -1.000000 0.000000
    outer loop
      vertex -1.600000 11.200000 -7.790000
      vertex -0.940000 11.200000 -7.130000
      vertex -1.600000 11.200000 -7.130000
    endloop
  endfacet
  facet normal 0.000000 1.000000 0.000000
    outer loop
      vertex -1.600000 6.000000 -7.130000
      vertex -0.940000 6.000000 -7.130000
      vertex -0.940000 6.000000 -7.790000
    endloop
  endfacet
  facet normal 0.000000 1.000000 0.000000
    outer loop
      vertex -1.600000 6.000000 -7.130000
      vertex -0.940000 6.000000 -7.790000
      vertex -1.600000 6.000000 -7.790000
    endloop
  endfacet
  facet normal 0.000000 0.000000 -1.000000
    outer loop
      vertex -1.600000 11.200000 -7.130000
      vertex -0.940000 11.200000 -7.130000
      vertex -0.940000 6.000000 -7.130000
    endloop
  endfacet
  facet normal 0.000000 0.000000 -1.000000
    outer loop
      vertex -1.600000 11.200000 -7.130000
      vertex -0.940000 6.000000 -7.130000
      vertex -1.600000 6.000000 -7.130000
    endloop
  endfacet
  facet normal 0.000000 0.000000 1.000000
    outer loop
      vertex -0.940000 6.000000 -7.790000
      vertex -0.940000 11.200000 -7.790000
      vertex -1.600000 11.200000 -7.790000
    endloop
  endfacet
  facet normal 0.000000 0.000000 1.000000
    outer loop
      vertex -0.940000 6.000000 -7.790000
      vertex -1.600000 11.200000 -7.790000
      vertex -1.600000 6.000000 -7.790000
    endloop
  endfacet
  facet normal -1.000000 0.000000 0.000000
    outer loop
      vertex -0.940000 6.000000 -7.130000
      vertex -0.940000 11.200000 -7.130000
      vertex -0.940000 11.200000 -7.790000
    endloop
  endfacet
  facet normal -1.000000 0.000000 0.000000
    outer loop
      vertex -0.940000 6.000000 -7.130000
      vertex -0.940000 11.200000 -7.790000
      vertex -0.940000 6.000000 -7.790000
    endloop
  endfacet
  facet normal 1.000000 0.000000 0.000000
    outer loop
      vertex -1.600000 6.000000 -7.790000
      vertex -1.600000 11.200000 -7.790000
      vertex -1.600000 11.200000 -7.130000
    endloop
  endfacet
  facet normal 1.000000 0.000000 0.000000
    outer loop
      vertex -1.600000 6.000000 -7.790000
      vertex -1.600000 11.200000 -7.130000
      vertex -1.600000 6.000000 -7.130000
    endloop
  endfacet
  facet normal 0.000000 -1.000000 0.000000
    outer loop
      vertex 0.170000 7.225000 -8.560000
      vertex 2.370000 7.225000 -8.560000
      vertex 2.370000 7.225000 -6.360000
    endloop
  endfacet
  facet normal 0.000000 -1.000000 0.000000
    outer loop
      vertex 0.170000 7.225000 -8.560000
      vertex 2.370000 7.225000 -6.360000
      vertex 0.170000 7.225000 -6.360000
    endloop
  endfacet
  facet normal 0.000000 1.000000 0.000000
    outer loop
      vertex 0.170000 5.675000 -6.360000
      vertex 2.370000 5.675000 -6.360000
      vertex 2.370000 5.675000 -8.560000
    endloop
  endfacet
  facet normal 0.000000 1.000000 0.000000
    outer loop
      vertex 0.170000 5.675000 -6.360000
      vertex 2.370000 5.675000 -8.560000
      vertex 0.170000 5.675000 -8.560000
    endloop
  endfacet
  facet normal 0.000000 0.000000 -1.000000
    outer loop
      vertex 0.170000 7.225000 -6.360000
      vertex 2.370000 7.225000 -6.360000
      vertex 2.370000 5.675000 -6.360000
    endloop
  endfacet
  facet normal 0.000000 0.000000 -1.000000
    outer loop
      vertex 0.170000 7.225000 -6.360000
      vertex 2.370000 5.675000 -6.360000
      vertex 0.170000 5.675000 -6.360000
    endloop
  endfacet
  facet normal 0.000000 0.000000 1.000000
    outer loop
      vertex 2.370000 5.675000 -8.560000
      vertex 2.370000 7.225000 -8.560000
      vertex 0.170000 7.225000 -8.560000
    endloop
  endfacet
  facet normal 0.000000 0.000000 1.000000
    outer loop
      vertex 2.370000 5.675000 -8.560000
      vertex 0.170000 7.225000 -8.560000
      vertex 0.170000 5.675000 -8.560000
    endloop
  endfacet
  facet normal -1.000000 0.000000 0.000000
    outer loop
      vertex 2.370000 5.675000 -6.360000
      vertex 2.370000 7.225000 -6.360000
      vertex 2.370000 7.225000 -8.560000
    endloop
  endfacet
  facet normal -1.000000 0.000000 0.000000
    outer loop
      vertex 2.370000 5.675000 -6.360000
      vertex 2.370000 7.225000 -8.560000
      vertex 2.370000 5.675000 -8.560000
    endloop
  endfacet
  facet normal 1.000000 0.000000 0.000000
    outer loop
      vertex 0.170000 5.675000 -8.560000
      vertex 0.170000 7.225000 -8.560000
      vertex 0.170000 7.225000 -6.360000
    endloop
  endfacet
  facet normal 1.000000 0.000000 0.000000
    outer loop
      vertex 0.170000 5.675000 -8.560000
      vertex 0.170000 7.225000 -6.360000
      vertex 0.170000 5.675000 -6.360000
    endloop
  endfacet
  facet normal 0.000000 -1.000000 0.000000
    outer loop
      vertex 0.940000 11.200000 -7.790000
      vertex 1.600000 11.200000 -7.790000
      vertex 1.600000 11.200000 -7.130000
    endloop
  endfacet
  facet normal 0.000000 -1.000000 0.000000
    outer loop
      vertex 0.940000 11.200000 -7.790000
      vertex 1.600000 11.200000 -7.130000
      vertex 0.940000 11.200000 -7.130000
    endloop
  endfacet
  facet normal 0.000000 1.000000 0.000000
    outer loop
      vertex 0.940000 6.000000 -7.130000
      vertex 1.600000 6.000000 -7.130000
      vertex 1.600000 6.000000 -7.790000
    endloop
  endfacet
  facet normal 0.000000 1.000000 0.000000
    outer loop
      vertex 0.940000 6.000000 -7.130000
      vertex 1.600000 6.000000 -7.790000
      vertex 0.940000 6.000000 -7.790000
    endloop
  endfacet
  facet normal 0.000000 0.000000 -1.000000
    outer loop
      vertex 0.940000 11.200000 -7.130000
      vertex 1.600000 11.200000 -7.130000
      vertex 1.600000 6.000000 -7.130000
    endloop
  endfacet
  facet normal 0.000000 0.000000 -1.000000
    outer loop
      vertex 0.940000 11.200000 -7.130000
      vertex 1.600000 6.000000 -7.130000
      vertex 0.940000 6.000000 -7.130000
    endloop
  endfacet
  facet normal 0.000000 0.000000 1.000000
    outer loop
      vertex 1.600000 6.000000 -7.790000
      vertex 1.600000 11.200000 -7.790000
      vertex 0.940000 11.200000 -7.790000
    endloop
  endfacet
  facet normal 0.000000 0.000000 1.000000
    outer loop
      vertex 1.600000 6.000000 -7.790000
      vertex 0.940000 11.200000 -7.790000
      vertex 0.940000 6.000000 -7.790000
    endloop
  endfacet
  facet normal -1.000000 0.000000 0.000000
    outer loop
      vertex 1.600000 6.000000 -7.130000
      vertex 1.600000 11.200000 -7.130000
      vertex 1.600000 11.200000 -7.790000
    endloop
  endfacet
  facet normal -1.000000 0.000000 0.000000
    outer loop
      vertex 1.600000 6.000000 -7.130000
      vertex 1.600000 11.200000 -7.790000
      vertex 1.600000 6.000000 -7.790000
    endloop
  endfacet
  facet normal 1.000000 0.000000 0.000000
    outer loop
      vertex 0.940000 6.000000 -7.790000
      vertex 0.940000 11.200000 -7.790000
      vertex 0.940000 11.200000 -7.130000
    endloop
  endfacet
  facet normal 1.000000 0.000000 0.000000
    outer loop
      vertex 0.940000 6.000000 -7.790000
      vertex 0.940000 11.200000 -7.130000
      vertex 0.940000 6.000000 -7.130000
    endloop
  endfacet
  facet normal 0.000000 -1.000000 0.000000
    outer loop
      vertex 2.710000 7.225000 -8.560000
      vertex 4.910000 7.225000 -8.560000
      vertex 4.910000 7.225000 -6.360000
    endloop
  endfacet
  facet normal 0.000000 -1.000000 0.000000
    outer loop
      vertex 2.710000 7.225000 -8.560000
      vertex 4.910000 7.225000 -6.360000
      vertex 2.710000 7.225000 -6.360000
    endloop
  endfacet
  facet normal 0.000000 1.000000 0.000000
    outer loop
      vertex 2.710000 5.675000 -6.360000
      vertex 4.910000 5.675000 -6.360000
      vertex 4.910000 5.675000 -8.560000
    endloop
  endfacet
  facet normal 0.000000 1.000000 0.000000
    outer loop
      vertex 2.710000 5.675000 -6.360000
      vertex 4.910000 5.675000 -8.560000
      vertex 2.710000 5.675000 -8.560000
    endloop
  endfacet
  facet normal 0.000000 0.000000 -1.000000
    outer loop
      vertex 2.710000 7.225000 -6.360000
      vertex 4.910000 7.225000 -6.360000
      vertex 4.910000 5.675000 -6.360000
    endloop
  endfacet
  facet normal 0.000000 0.000000 -1.000000
    outer loop
      vertex 2.710000 7.225000 -6.360000
      vertex 4.910000 5.675000 -6.360000
      vertex 2.710000 5.675000 -6.360000
    endloop
  endfacet
  facet normal 0.000000 0.000000 1.000000
    outer loop
      vertex 4.910000 5.675000 -8.560000
      vertex 4.910000 7.225000 -8.560000
      vertex 2.710000 7.225000 -8.560000
    endloop
  endfacet
  facet normal 0.000000 0.000000 1.000000
    outer loop
      vertex 4.910000 5.675000 -8.560000
      vertex 2.710000 7.225000 -8.560000
      vertex 2.710000 5.675000 -8.560000
    endloop
  endfacet
  facet normal -1.000000 0.000000 0.000000
    outer loop
      vertex 4.910000 5.675000 -6.360000
      vertex 4.910000 7.225000 -6.360000
      vertex 4.910000 7.225000 -8.560000
    endloop
  endfacet
  facet normal -1.000000 0.000000 0.000000
    outer loop
      vertex 4.910000 5.675000 -6.360000
      vertex 4.910000 7.225000 -8.560000
      vertex 4.910000 5.675000 -8.560000
    endloop
  endfacet
  facet normal 1.000000 0.000000 0.000000
    outer loop
      vertex 2.710000 5.675000 -8.560000
      vertex 2.710000 7.225000 -8.560000
      vertex 2.710000 7.225000 -6.360000
    endloop
  endfacet
  facet normal 1.000000 0.000000 0.000000
    outer loop
      vertex 2.710000 5.675000 -8.560000
      vertex 2.710000 7.225000 -6.360000
      vertex 2.710000 5.675000 -6.360000
    endloop
  endfacet
  facet normal 0.000000 -1.000000 0.000000
    outer loop
      vertex 3.480000 11.200000 -7.790000
      vertex 4.140000 11.200000 -7.790000
      vertex 4.140000 11.200000 -7.130000
    endloop
  endfacet
  facet normal 0.000000 -1.000000 0.000000
    outer loop
      vertex 3.480000 11.200000 -7.790000
      vertex 4.140000 11.200000 -7.130000
      vertex 3.480000 11.200000 -7.130000
    endloop
  endfacet
  facet normal 0.000000 1.000000 0.000000
    outer loop
      vertex 3.480000 6.000000 -7.130000
      vertex 4.140000 6.000000 -7.130000
      vertex 4.140000 6.000000 -7.790000
    endloop
  endfacet
  facet normal 0.000000 1.000000 0.000000
    outer loop
      vertex 3.480000 6.000000 -7.130000
      vertex 4.140000 6.000000 -7.790000
      vertex 3.480000 6.000000 -7.790000
    endloop
  endfacet
  facet normal 0.000000 0.000000 -1.000000
    outer loop
      vertex 3.480000 11.200000 -7.130000
      vertex 4.140000 11.200000 -7.130000
      vertex 4.140000 6.000000 -7.130000
    endloop
  endfacet
  facet normal 0.000000 0.000000 -1.000000
    outer loop
      vertex 3.480000 11.200000 -7.130000
      vertex 4.140000 6.000000 -7.130000
      vertex 3.480000 6.000000 -7.130000
    endloop
  endfacet
  facet normal 0.000000 0.000000 1.000000
    outer loop
      vertex 4.140000 6.000000 -7.790000
      vertex 4.140000 11.200000 -7.790000
      vertex 3.480000 11.200000 -7.790000
    endloop
  endfacet
  facet normal 0.000000 0.000000 1.000000
    outer loop
      vertex 4.140000 6.000000 -7.790000
      vertex 3.480000 11.200000 -7.790000
      vertex 3.480000 6.000000 -7.790000
    endloop
  endfacet
  facet normal -1.000000 0.000000 0.000000
    outer loop
      vertex 4.140000 6.000000 -7.130000
      vertex 4.140000 11.200000 -7.130000
      vertex 4.140000 11.200000 -7.790000
    endloop
  endfacet
  facet normal -1.000000 0.000000 0.000000
    outer loop
      vertex 4.140000 6.000000 -7.130000
      vertex 4.140000 11.200000 -7.790000
      vertex 4.140000 6.000000 -7.790000
    endloop
  endfacet
  facet normal 1.000000 0.000000 0.000000
    outer loop
      vertex 3.480000 6.000000 -7.790000
      vertex 3.480000 11.200000 -7.790000
      vertex 3.480000 11.200000 -7.130000
    endloop
  endfacet
  facet normal 1.000000 0.000000 0.000000
    outer loop
      vertex 3.480000 6.000000 -7.790000
      vertex 3.480000 11.200000 -7.130000
      vertex 3.480000 6.000000 -7.130000
    endloop
  endfacet
  facet normal 0.000000 -1.000000 0.000000
    outer loop
      vertex -5.080000 4.050000 -8.710000
      vertex 5.080000 4.050000 -8.710000
      vertex 5.080000 4.050000 -6.210000
    endloop
  endfacet
  facet normal 0.000000 -1.000000 0.000000
    outer loop
      vertex -5.080000 4.050000 -8.710000
      vertex 5.080000 4.050000 -6.210000
      vertex -5.080000 4.050000 -6.210000
    endloop
  endfacet
  facet normal 0.000000 1.000000 0.000000
    outer loop
      vertex -5.080000 1.550000 -6.210000
      vertex 5.080000 1.550000 -6.210000
      vertex 5.080000 1.550000 -8.710000
    endloop
  endfacet
  facet normal 0.000000 1.000000 0.000000
    outer loop
      vertex -5.080000 1.550000 -6.210000
      vertex 5.080000 1.550000 -8.710000
      vertex -5.080000 1.550000 -8.710000
    endloop
  endfacet
  facet normal 0.000000 0.000000 -1.000000
    outer loop
      vertex -5.080000 4.050000 -6.210000
      vertex 5.080000 4.050000 -6.210000
      vertex 5.080000 1.550000 -6.210000
    endloop
  endfacet
  facet normal 0.000000 0.000000 -1.000000
    outer loop
      vertex -5.080000 4.050000 -6.210000
      vertex 5.080000 1.550000 -6.210000
      vertex -5.080000 1.550000 -6.210000
    endloop
  endfacet
  facet normal 0.000000 0.000000 1.000000
    outer loop
      vertex 5.080000 1.550000 -8.710000
      vertex 5.080000 4.050000 -8.710000
      vertex -5.080000 4.050000 -8.710000
    endloop
  endfacet
  facet normal 0.000000 0.000000 1.000000
    outer loop
      vertex 5.080000 1.550000 -8.710000
      vertex -5.080000 4.050000 -8.710000
      vertex -5.080000 1.550000 -8.710000
    endloop
  endfacet
  facet normal -1.000000 0.000000 0.000000
    outer loop
      vertex 5.080000 1.550000 -6.210000
      vertex 5.080000 4.050000 -6.210000
      vertex 5.080000 4.050000 -8.710000
    endloop
  endfacet
  facet normal -1.000000 0.000000 0.000000
    outer loop
      vertex 5.080000 1.550000 -6.210000
      vertex 5.080000 4.050000 -8.710000
      vertex 5.080000 1.550000 -8.710000
    endloop
  endfacet
  facet normal 1.000000 0.000000 0.000000
    outer loop
      vertex -5.080000 1.550000 -8.710000
      vertex -5.080000 4.050000 -8.710000
      vertex -5.080000 4.050000 -6.210000
    endloop
  endfacet
  facet normal 1.000000 0.000000 0.000000
    outer loop
      vertex -5.080000 1.550000 -8.710000
      vertex -5.080000 4.050000 -6.210000
      vertex -5.080000 1.550000 -6.210000
    endloop
  endfacet
  facet normal 0.000000 -1.000000 0.000000
    outer loop
      vertex -3.000000 3.500000 -3.000000
      vertex 3.000000 3.500000 -3.000000
      vertex 3.000000 3.500000 3.000000
    endloop
  endfacet
  facet normal 0.000000 -1.000000 0.000000
    outer loop
      vertex -3.000000 3.500000 -3.000000
      vertex 3.000000 3.500000 3.000000
      vertex -3.000000 3.500000 3.000000
    endloop
  endfacet
  facet normal 0.000000 1.000000 0.000000
    outer loop
      vertex -3.000000 2.100000 3.000000
      vertex 3.000000 2.100000 3.000000
      vertex 3.000000 2.100000 -3.000000
    endloop
  endfacet
  facet normal 0.000000 1.000000 0.000000
    outer loop
      vertex -3.000000 2.100000 3.000000
      vertex 3.000000 2.100000 -3.000000
      vertex -3.000000 2.100000 -3.000000
    endloop
  endfacet
  facet normal 0.000000 0.000000 -1.000000
    outer loop
      vertex -3.000000 3.500000 3.000000
      vertex 3.000000 3.500000 3.000000
      vertex 3.000000 2.100000 3.000000
    endloop
  endfacet
  facet normal 0.000000 0.000000 -1.000000
    outer loop
      vertex -3.000000 3.500000 3.000000
      vertex 3.000000 2.100000 3.000000
      vertex -3.000000 2.100000 3.000000
    endloop
  endfacet
  facet normal 0.000000 0.000000 1.000000
    outer loop
      vertex 3.000000 2.100000 -3.000000
      vertex 3.000000 3.500000 -3.000000
      vertex -3.000000 3.500000 -3.000000
    endloop
  endfacet
  facet normal 0.000000 0.000000 1.000000
    outer loop
      vertex 3.000000 2.100000 -3.000000
      vertex -3.000000 3.500000 -3.000000
      vertex -3.000000 2.100000 -3.000000
    endloop
  endfacet
  facet normal -1.000000 0.000000 0.000000
    outer loop
      vertex 3.000000 2.100000 3.000000
      vertex 3.000000 3.500000 3.000000
      vertex 3.000000 3.500000 -3.000000
    endloop
  endfacet
  facet normal -1.000000 0.000000 0.000000
    outer loop
      vertex 3.000000 2.100000 3.000000
      vertex 3.000000 3.500000 -3.000000
      vertex 3.000000 2.100000 -3.000000
    endloop
  endfacet
  facet normal 1.000000 0.000000 0.000000
    outer loop
      vertex -3.000000 2.100000 -3.000000
      vertex -3.000000 3.500000 -3.000000
      vertex -3.000000 3.500000 3.000000
    endloop
  endfacet
  facet normal 1.000000 0.000000 0.000000
    outer loop
      vertex -3.000000 2.100000 -3.000000
      vertex -3.000000 3.500000 3.000000
      vertex -3.000000 2.100000 3.000000
    endloop
  endfacet
endsolid optocoupler_pc817