solid bme280_environmental
  facet normal 0.000000 -1.000000 0.000000
    outer loop
      vertex -7.600000 1.600000 -6.000000
      vertex 7.600000 1.600000 -6.000000
      vertex 7.600000 1.600000 6.000000
    endloop
  endfacet
  facet normal 0.000000 -1.000000 0.000000
    outer loop
      vertex -7.600000 1.600000 -6.000000
      vertex 7.600000 1.600000 6.000000
      vertex -7.600000 1.600000 6.000000
    endloop
  endfacet
  facet normal 0.000000 1.000000 0.000000
    outer loop
      vertex -7.600000 0.000000 6.000000
      vertex 7.600000 0.000000 6.000000
      vertex 7.600000 0.000000 -6.000000
    endloop
  endfacet
  facet normal 0.000000 1.000000 0.000000
    outer loop
      vertex -7.600000 0.000000 6.000000
      vertex 7.600000 0.000000 -6.000000
      vertex -7.600000 0.000000 -6.000000
    endloop
  endfacet
  facet normal 0.000000 0.000000 -1.000000
    outer loop
      vertex -7.600000 1.600000 6.000000
      vertex 7.600000 1.600000 6.000000
      vertex 7.600000 0.000000 6.000000
    endloop
  endfacet
  facet normal 0.000000 0.000000 -1.000000
    outer loop
      vertex -7.600000 1.600000 6.000000
      vertex 7.600000 0.000000 6.000000
      vertex -7.600000 0.000000 6.000000
    endloop
  endfacet
  facet normal 0.000000 0.000000 1.000000
    outer loop
      vertex 7.600000 0.000000 -6.000000
      vertex 7.600000 1.600000 -6.000000
      vertex -7.600000 1.600000 -6.000000
    endloop
  endfacet
  facet normal 0.000000 0.000000 1.000000
    outer loop
      vertex 7.600000 0.000000 -6.000000
      vertex -7.600000 1.600000 -6.000000
      vertex -7.600000 0.000000 -6.000000
    endloop
  endfacet
  facet normal -1.000000 0.000000 0.000000
    outer loop
      vertex 7.600000 0.000000 6.000000
      vertex 7.600000 1.600000 6.000000
      vertex 7.600000 1.600000 -6.000000
    endloop
  endfacet
  facet normal -1.000000 0.000000 0.000000
    outer loop
      vertex 7.600000 0.000000 6.000000
      vertex 7.600000 1.600000 -6.000000
      vertex 7.600000 0.000000 -6.000000
    endloop
  endfacet
  facet normal 1.000000 0.000000 0.000000
    outer loop
      vertex -7.600000 0.000000 -6.000000
      vertex -7.600000 1.600000 -6.000000
      vertex -7.600000 1.600000 6.000000
    endloop
  endfacet
  facet normal 1.000000 0.000000 0.000000
    outer loop
      vertex -7.600000 0.000000 -6.000000
      vertex -7.600000 1.600000 6.000000
      vertex -7.600000 0.000000 6.000000
    endloop
  endfacet
  facet normal 0.000000 -1.000000 0.000000
    outer loop
      vertex -7.450000 7.225000 -5.600000
      vertex -5.250000 7.225000 -5.600000
      vertex -5.250000 7.225000 -3.400000
    endloop
  endfacet
  facet normal 0.000000 -1.000000 0.000000
    outer loop
      vertex -7.450000 7.225000 -5.600000
      vertex -5.250000 7.225000 -3.400000
      vertex -7.450000 7.225000 -3.400000
    endloop
  endfacet
  facet normal 0.000000 1.000000 0.000000
    outer loop
      vertex -7.450000 5.675000 -3.400000
      vertex -5.250000 5.675000 -3.400000
      vertex -5.250000 5.675000 -5.600000
    endloop
  endfacet
  facet normal 0.000000 1.000000 0.000000
    outer loop
      vertex -7.450000 5.675000 -3.400000
      vertex -5.250000 5.675000 -5.600000
      vertex -7.450000 5.675000 -5.600000
    endloop
  endfacet
  facet normal 0.000000 0.000000 -1.000000
    outer loop
      vertex -7.450000 7.225000 -3.400000
      vertex -5.250000 7.225000 -3.400000
      vertex -5.250000 5.675000 -3.400000
    endloop
  endfacet
  facet normal 0.000000 0.000000 -1.000000
    outer loop
      vertex -7.450000 7.225000 -3.400000
      vertex -5.250000 5.675000 -3.400000
      vertex -7.450000 5.675000 -3.400000
    endloop
  endfacet
  facet normal 0.000000 0.000000 1.000000
    outer loop
      vertex -5.250000 5.675000 -5.600000
      vertex -5.250000 7.225000 -5.600000
      vertex -7.450000 7.225000 -5.600000
    endloop
  endfacet
  facet normal 0.000000 0.000000 1.000000
    outer loop
      vertex -5.250000 5.675000 -5.600000
      vertex -7.450000 7.225000 -5.600000
      vertex -7.450000 5.675000 -5.600000
    endloop
  endfacet
  facet normal -1.000000 0.000000 0.000000
    outer loop
      vertex -5.250000 5.675000 -3.400000
      vertex -5.250000 7.225000 -3.400000
      vertex -5.250000 7.225000 -5.600000
    endloop
  endfacet
  facet normal -1.000000 0.000000 0.000000
    outer loop
      vertex -5.250000 5.675000 -3.400000
      vertex -5.250000 7.225000 -5.600000
      vertex -5.250000 5.675000 -5.600000
    endloop
  endfacet
  facet normal 1.000000 0.000000 0.000000
    outer loop
      vertex -7.450000 5.675000 -5.600000
      vertex -7.450000 7.225000 -5.600000
      vertex -7.450000 7.225000 -3.400000
    endloop
  endfacet
  facet normal 1.000000 0.000000 0.000000
    outer loop
      vertex -7.450000 5.675000 -5.600000
      vertex -7.450000 7.225000 -3.400000
      vertex -7.450000 5.675000 -3.400000
    endloop
  endfacet
  facet normal 0.000000 -1.000000 0.000000
    outer loop
      vertex -6.680000 11.200000 -4.830000
      vertex -6.020000 11.200000 -4.830000
      vertex -6.020000 11.200000 -4.170000
    endloop
  endfacet
  facet normal 0.000000 -1.000000 0.000000
    outer loop
      vertex -6.680000 11.200000 -4.830000
      vertex -6.020000 11.200000 -4.170000
      vertex -6.680000 11.200000 -4.170000
    endloop
  endfacet
  facet normal 0.000000 1.000000 0.000000
    outer loop
      vertex -6.680000 6.000000 -4.170000
      vertex -6.020000 6.000000 -4.170000
      vertex -6.020000 6.000000 -4.830000
    endloop
  endfacet
  facet normal 0.000000 1.000000 0.000000
    outer loop
      vertex -6.680000 6.000000 -4.170000
      vertex -6.020000 6.000000 -4.830000
      vertex -6.680000 6.000000 -4.830000
    endloop
  endfacet
  facet normal 0.000000 0.000000 -1.000000
    outer loop
      vertex -6.680000 11.200000 -4.170000
      vertex -6.020000 11.200000 -4.170000
      vertex -6.020000 6.000000 -4.170000
    endloop
  endfacet
  facet normal 0.000000 0.000000 -1.000000
    outer loop
      vertex -6.680000 11.200000 -4.170000
      vertex -6.020000 6.000000 -4.170000
      vertex -6.680000 6.000000 -4.170000
    endloop
  endfacet
  facet normal 0.000000 0.000000 1.000000
    outer loop
      vertex -6.020000 6.000000 -4.830000
      vertex -6.020000 11.200000 -4.830000
      vertex -6.680000 11.200000 -4.830000
    endloop
  endfacet
  facet normal 0.000000 0.000000 1.000000
    outer loop
      vertex -6.020000 6.000000 -4.830000
      vertex -6.680000 11.200000 -4.830000
      vertex -6.680000 6.000000 -4.830000
    endloop
  endfacet
  facet normal -1.000000 0.000000 0.000000
    outer loop
      vertex -6.020000 6.000000 -4.170000
      vertex -6.020000 11.200000 -4.170000
      vertex -6.020000 11.200000 -4.830000
    endloop
  endfacet
  facet normal -1.000000 0.000000 0.000000
    outer loop
      vertex -6.020000 6.000000 -4.170000
      vertex -6.020000 11.200000 -4.830000
      vertex -6.020000 6.000000 -4.830000
    endloop
  endfacet
  facet normal 1.000000 0.000000 0.000000
    outer loop
      vertex -6.680000 6.000000 -4.830000
      vertex -6.680000 11.200000 -4.830000
      vertex -6.680000 11.200000 -4.170000
    endloop
  endfacet
  facet normal 1.000000 0.000000 0.000000
    outer loop
      vertex -6.680000 6.000000 -4.830000
      vertex -6.680000 11.200000 -4.170000
      vertex -6.680000 6.000000 -4.170000
    endloop
  endfacet
  facet normal 0.000000 -1.000000 0.000000
    outer loop
      vertex -4.910000 7.225000 -5.600000
      vertex -2.710000 7.225000 -5.600000
      vertex -2.710000 7.225000 -3.400000
    endloop
  endfacet
  facet normal 0.000000 -1.000000 0.000000
    outer loop
      vertex -4.910000 7.225000 -5.600000
      vertex -2.710000 7.225000 -3.400000
      vertex -4.910000 7.225000 -3.400000
    endloop
  endfacet
  facet normal 0.000000 1.000000 0.000000
    outer loop
      vertex -4.910000 5.675000 -3.400000
      vertex -2.710000 5.675000 -3.400000
      vertex -2.710000 5.675000 -5.600000
    endloop
  endfacet
  facet normal 0.000000 1.000000 0.000000
    outer loop
      vertex -4.910000 5.675000 -3.400000
      vertex -2.710000 5.675000 -5.600000
      vertex -4.910000 5.675000 -5.600000
    endloop
  endfacet
  facet normal 0.000000 0.000000 -1.000000
    outer loop
      vertex -4.910000 7.225000 -3.400000
      vertex -2.710000 7.225000 -3.400000
      vertex -2.710000 5.675000 -3.400000
    endloop
  endfacet
  facet normal 0.000000 0.000000 -1.000000
    outer loop
      vertex -4.910000 7.225000 -3.400000
      vertex -2.710000 5.675000 -3.400000
      vertex -4.910000 5.675000 -3.400000
    endloop
  endfacet
  facet normal 0.000000 0.000000 1.000000
    outer loop
      vertex -2.710000 5.675000 -5.600000
      vertex -2.710000 7.225000 -5.600000
      vertex -4.910000 7.225000 -5.600000
    endloop
  endfacet
  facet normal 0.000000 0.000000 1.000000
    outer loop
      vertex -2.710000 5.675000 -5.600000
      vertex -4.910000 7.225000 -5.600000
      vertex -4.910000 5.675000 -5.600000
    endloop
  endfacet
  facet normal -1.000000 0.000000 0.000000
    outer loop
      vertex -2.710000 5.675000 -3.400000
      vertex -2.710000 7.225000 -3.400000
      vertex -2.710000 7.225000 -5.600000
    endloop
  endfacet
  facet normal -1.000000 0.000000 0.000000
    outer loop
      vertex -2.710000 5.675000 -3.400000
      vertex -2.710000 7.225000 -5.600000
      vertex -2.710000 5.675000 -5.600000
    endloop
  endfacet
  facet normal 1.000000 0.000000 0.000000
    outer loop
      vertex -4.910000 5.675000 -5.600000
      vertex -4.910000 7.225000 -5.600000
      vertex -4.910000 7.225000 -3.400000
    endloop
  endfacet
  facet normal 1.000000 0.000000 0.000000
    outer loop
      vertex -4.910000 5.675000 -5.600000
      vertex -4.910000 7.225000 -3.400000
      vertex -4.910000 5.675000 -3.400000
    endloop
  endfacet
  facet normal 0.000000 -1.000000 0.000000
    outer loop
      vertex -4.140000 11.200000 -4.830000
      vertex -3.480000 11.200000 -4.830000
      vertex -3.480000 11.200000 -4.170000
    endloop
  endfacet
  facet normal 0.000000 -1.000000 0.000000
    outer loop
      vertex -4.140000 11.200000 -4.830000
      vertex -3.480000 11.200000 -4.170000
      vertex -4.140000 11.200000 -4.170000
    endloop
  endfacet
  facet normal 0.000000 1.000000 0.000000
    outer loop
      vertex -4.140000 6.000000 -4.170000
      vertex -3.480000 6.000000 -4.170000
      vertex -3.480000 6.000000 -4.830000
    endloop
  endfacet
  facet normal 0.000000 1.000000 0.000000
    outer loop
      vertex -4.140000 6.000000 -4.170000
      vertex -3.480000 6.000000 -4.830000
      vertex -4.140000 6.000000 -4.830000
    endloop
  endfacet
  facet normal 0.000000 0.000000 -1.000000
    outer loop
      vertex -4.140000 11.200000 -4.170000
      vertex -3.480000 11.200000 -4.170000
      vertex -3.480000 6.000000 -4.170000
    endloop
  endfacet
  facet normal 0.000000 0.000000 -1.000000
    outer loop
      vertex -4.140000 11.200000 -4.170000
      vertex -3.480000 6.000000 -4.170000
      vertex -4.140000 6.000000 -4.170000
    endloop
  endfacet
  facet normal 0.000000 0.000000 1.000000
    outer loop
      vertex -3.480000 6.000000 -4.830000
      vertex -3.480000 11.200000 -4.830000
      vertex -4.140000 11.200000 -4.830000
    endloop
  endfacet
  facet normal 0.000000 0.000000 1.000000
    outer loop
      vertex -3.480000 6.000000 -4.830000
      vertex -4.140000 11.200000 -4.830000
      vertex -4.140000 6.000000 -4.830000
    endloop
  endfacet
  facet normal -1.000000 0.000000 0.000000
    outer loop
      vertex -3.480000 6.000000 -4.170000
      vertex -3.480000 11.200000 -4.170000
      vertex -3.480000 11.200000 -4.830000
    endloop
  endfacet
  facet normal -1.000000 0.000000 0.000000
    outer loop
      vertex -3.480000 6.000000 -4.170000
      vertex -3.480000 11.200000 -4.830000
      vertex -3.480000 6.000000 -4.830000
    endloop
  endfacet
  facet normal 1.000000 0.000000 0.000000
    outer loop
      vertex -4.140000 6.000000 -4.830000
      vertex -4.140000 11.200000 -4.830000
      vertex -4.140000 11.200000 -4.170000
    endloop
  endfacet
  facet normal 1.000000 0.000000 0.000000
    outer loop
      vertex -4.140000 6.000000 -4.830000
      vertex -4.140000 11.200000 -4.170000
      vertex -4.140000 6.000000 -4.170000
    endloop
  endfacet
  facet normal 0.000000 -1.000000 0.000000
    outer loop
      vertex -2.370000 7.225000 -5.600000
      vertex -0.170000 7.225000 -5.600000
      vertex -0.170000 7.225000 -3.400000
    endloop
  endfacet
  facet normal 0.000000 -1.000000 0.000000
    outer loop
      vertex -2.370000 7.225000 -5.600000
      vertex -0.170000 7.225000 -3.400000
      vertex -2.370000 7.225000 -3.400000
    endloop
  endfacet
  facet normal 0.000000 1.000000 0.000000
    outer loop
      vertex -2.370000 5.675000 -3.400000
      vertex -0.170000 5.675000 -3.400000
      vertex -0.170000 5.675000 -5.600000
    endloop
  endfacet
  facet normal 0.000000 1.000000 0.000000
    outer loop
      vertex -2.370000 5.675000 -3.400000
      vertex -0.170000 5.675000 -5.600000
      vertex -2.370000 5.675000 -5.600000
    endloop
  endfacet
  facet normal 0.000000 0.000000 -1.000000
    outer loop
      vertex -2.370000 7.225000 -3.400000
      vertex -0.170000 7.225000 -3.400000
      vertex -0.170000 5.675000 -3.400000
    endloop
  endfacet
  facet normal 0.000000 0.000000 -1.000000
    outer loop
      vertex -2.370000 7.225000 -3.400000
      vertex -0.170000 5.675000 -3.400000
      vertex -2.370000 5.675000 -3.400000
    endloop
  endfacet
  facet normal 0.000000 0.000000 1.000000
    outer loop
      vertex -0.170000 5.675000 -5.600000
      vertex -0.170000 7.225000 -5.600000
      vertex -2.370000 7.225000 -5.600000
    endloop
  endfacet
  facet normal 0.000000 0.000000 1.000000
    outer loop
      vertex -0.170000 5.675000 -5.600000
      vertex -2.370000 7.225000 -5.600000
      vertex -2.370000 5.675000 -5.600000
    endloop
  endfacet
  facet normal -1.000000 0.000000 0.000000
    outer loop
      vertex -0.170000 5.675000 -3.400000
      vertex -0.170000 7.225000 -3.400000
      vertex -0.170000 7.225000 -5.600000
    endloop
  endfacet
  facet normal -1.000000 0.000000 0.000000
    outer loop
      vertex -0.170000 5.675000 -3.400000
      vertex -0.170000 7.225000 -5.600000
      vertex -0.170000 5.675000 -5.600000
    endloop
  endfacet
  facet normal 1.000000 0.000000 0.000000
    outer loop
      vertex -2.370000 5.675000 -5.600000
      vertex -2.370000 7.225000 -5.600000
      vertex -2.370000 7.225000 -3.400000
    endloop
  endfacet
  facet normal 1.000000 0.000000 0.000000
    outer loop
      vertex -2.370000 5.675000 -5.600000
      vertex -2.370000 7.225000 -3.400000
      vertex -2.370000 5.675000 -3.400000
    endloop
  endfacet
  facet normal 0.000000 -1.000000 0.000000
    outer loop
      vertex -1.600000 11.200000 -4.830000
      vertex -0.940000 11.200000 -4.830000
      vertex -0.940000 11.200000 -4.170000
    endloop
  endfacet
  facet normal 0.000000 -1.000000 0.000000
    outer loop
      vertex -1.600000 11.200000 -4.830000
      vertex -0.940000 11.200000 -4.170000
      vertex -1.600000 11.200000 -4.170000
    endloop
  endfacet
  facet normal 0.000000 1.000000 0.000000
    outer loop
      vertex -1.600000 6.000000 -4.170000
      vertex -0.940000 6.000000 -4.170000
      vertex -0.940000 6.000000 -4.830000
    endloop
  endfacet
  facet normal 0.000000 1.000000 0.000000
    outer loop
      vertex -1.600000 6.000000 -4.170000
      vertex -0.940000 6.000000 -4.830000
      vertex -1.600000 6.000000 -4.830000
    endloop
  endfacet
  facet normal 0.000000 0.000000 -1.000000
    outer loop
      vertex -1.600000 11.200000 -4.170000
      vertex -0.940000 11.200000 -4.170000
      vertex -0.940000 6.000000 -4.170000
    endloop
  endfacet
  facet normal 0.000000 0.000000 -1.000000
    outer loop
      vertex -1.600000 11.200000 -4.170000
      vertex -0.940000 6.000000 -4.170000
      vertex -1.600000 6.000000 -4.170000
    endloop
  endfacet
  facet normal 0.000000 0.000000 1.000000
    outer loop
      vertex -0.940000 6.000000 -4.830000
      vertex -0.940000 11.200000 -4.830000
      vertex -1.600000 11.200000 -4.830000
    endloop
  endfacet
  facet normal 0.000000 0.000000 1.000000
    outer loop
      vertex -0.940000 6.000000 -4.830000
      vertex -1.600000 11.200000 -4.830000
      vertex -1.600000 6.000000 -4.830000
    endloop
  endfacet
  facet normal -1.000000 0.000000 0.000000
    outer loop
      vertex -0.940000 6.000000 -4.170000
      vertex -0.940000 11.200000 -4.170000
      vertex -0.940000 11.200000 -4.830000
    endloop
  endfacet
  facet normal -1.000000 0.000000 0.000000
    outer loop
      vertex -0.940000 6.000000 -4.170000
      vertex -0.940000 11.200000 -4.830000
      vertex -0.940000 6.000000 -4.830000
    endloop
  endfacet
  facet normal 1.000000 0.000000 0.000000
    outer loop
      vertex -1.600000 6.000000 -4.830000
      vertex -1.600000 11.200000 -4.830000
      vertex -1.600000 11.200000 -4.170000
    endloop
  endfacet
  facet normal 1.000000 0.000000 0.000000
    outer loop
      vertex -1.600000 6.000000 -4.830000
      vertex -1.600000 11.200000 -4.170000
      vertex -1.600000 6.000000 -4.170000
    endloop
  endfacet
  facet normal 0.000000 -1.000000 0.000000
    outer loop
      vertex 0.170000 7.225000 -5.600000
      vertex 2.370000 7.225000 -5.600000
      vertex 2.370000 7.225000 -3.400000
    endloop
  endfacet
  facet normal 0.000000 -1.000000 0.000000
    outer loop
      vertex 0.170000 7.225000 -5.600000
      vertex 2.370000 7.225000 -3.400000
      vertex 0.170000 7.225000 -3.400000
    endloop
  endfacet
  facet normal 0.000000 1.000000 0.000000
    outer loop
      vertex 0.170000 5.675000 -3.400000
      vertex 2.370000 5.675000 -3.400000
      vertex 2.370000 5.675000 -5.600000
    endloop
  endfacet
  facet normal 0.000000 1.000000 0.000000
    outer loop
      vertex 0.170000 5.675000 -3.400000
      vertex 2.370000 5.675000 -5.600000
      vertex 0.170000 5.675000 -5.600000
    endloop
  endfacet
  facet normal 0.000000 0.000000 -1.000000
    outer loop
      vertex 0.170000 7.225000 -3.400000
      vertex 2.370000 7.225000 -3.400000
      vertex 2.370000 5.675000 -3.400000
    endloop
  endfacet
  facet normal 0.000000 0.000000 -1.000000
    outer loop
      vertex 0.170000 7.225000 -3.400000
      vertex 2.370000 5.675000 -3.400000
      vertex 0.170000 5.675000 -3.400000
    endloop
  endfacet
  facet normal 0.000000 0.000000 1.000000
    outer loop
      vertex 2.370000 5.675000 -5.600000
      vertex 2.370000 7.225000 -5.600000
      vertex 0.170000 7.225000 -5.600000
    endloop
  endfacet
  facet normal 0.000000 0.000000 1.000000
    outer loop
      vertex 2.370000 5.675000 -5.600000
      vertex 0.170000 7.225000 -5.600000
      vertex 0.170000 5.675000 -5.600000
    endloop
  endfacet
  facet normal -1.000000 0.000000 0.000000
    outer loop
      vertex 2.370000 5.675000 -3.400000
      vertex 2.370000 7.225000 -3.400000
      vertex 2.370000 7.225000 -5.600000
    endloop
  endfacet
  facet normal -1.000000 0.000000 0.000000
    outer loop
      vertex 2.370000 5.675000 -3.400000
      vertex 2.370000 7.225000 -5.600000
      vertex 2.370000 5.675000 -5.600000
    endloop
  endfacet
  facet normal 1.000000 0.000000 0.000000
    outer loop
      vertex 0.170000 5.675000 -5.600000
      vertex 0.170000 7.225000 -5.600000
      vertex 0.170000 7.225000 -3.400000
    endloop
  endfacet
  facet normal 1.000000 0.000000 0.000000
    outer loop
      vertex 0.170000 5.675000 -5.600000
      vertex 0.170000 7.225000 -3.400000
      vertex 0.170000 5.675000 -3.400000
    endloop
  endfacet
  facet normal 0.000000 -1.000000 0.000000
    outer loop
      vertex 0.940000 11.200000 -4.830000
      vertex 1.600000 11.200000 -4.830000
      vertex 1.600000 11.200000 -4.170000
    endloop
  endfacet
  facet normal 0.000000 -1.000000 0.000000
    outer loop
      vertex 0.940000 11.200000 -4.830000
      vertex 1.600000 11.200000 -4.170000
      vertex 0.940000 11.200000 -4.170000
    endloop
  endfacet
  facet normal 0.000000 1.000000 0.000000
    outer loop
      vertex 0.940000 6.000000 -4.170000
      vertex 1.600000 6.000000 -4.170000
      vertex 1.600000 6.000000 -4.830000
    endloop
  endfacet
  facet normal 0.000000 1.000000 0.000000
    outer loop
      vertex 0.940000 6.000000 -4.170000
      vertex 1.600000 6.000000 -4.830000
      vertex 0.940000 6.000000 -4.830000
    endloop
  endfacet
  facet normal 0.000000 0.000000 -1.000000
    outer loop
      vertex 0.940000 11.200000 -4.170000
      vertex 1.600000 11.200000 -4.170000
      vertex 1.600000 6.000000 -4.170000
    endloop
  endfacet
  facet normal 0.000000 0.000000 -1.000000
    outer loop
      vertex 0.940000 11.200000 -4.170000
      vertex 1.600000 6.000000 -4.170000
      vertex 0.940000 6.000000 -4.170000
    endloop
  endfacet
  facet normal 0.000000 0.000000 1.000000
    outer loop
      vertex 1.600000 6.000000 -4.830000
      vertex 1.600000 11.200000 -4.830000
      vertex 0.940000 11.200000 -4.830000
    endloop
  endfacet
  facet normal 0.000000 0.000000 1.000000
    outer loop
      vertex 1.600000 6.000000 -4.830000
      vertex 0.940000 11.200000 -4.830000
      vertex 0.940000 6.000000 -4.830000
    endloop
  endfacet
  facet normal -1.000000 0.000000 0.000000
    outer loop
      vertex 1.600000 6.000000 -4.170000
      vertex 1.600000 11.200000 -4.170000
      vertex 1.600000 11.200000 -4.830000
    endloop
  endfacet
  facet normal -1.000000 0.000000 0.000000
    outer loop
      vertex 1.600000 6.000000 -4.170000
      vertex 1.600000 11.200000 -4.830000
      vertex 1.600000 6.000000 -4.830000
    endloop
  endfacet
  facet normal 1.000000 0.000000 0.000000
    outer loop
      vertex 0.940000 6.000000 -4.830000
      vertex 0.940000 11.200000 -4.830000
      vertex 0.940000 11.200000 -4.170000
    endloop
  endfacet
  facet normal 1.000000 0.000000 0.000000
    outer loop
      vertex 0.940000 6.000000 -4.830000
      vertex 0.940000 11.200000 -4.170000
      vertex 0.940000 6.000000 -4.170000
    endloop
  endfacet
  facet normal 0.000000 -1.000000 0.000000
    outer loop
      vertex 2.710000 7.225000 -5.600000
      vertex 4.910000 7.225000 -5.600000
      vertex 4.910000 7.225000 -3.400000
    endloop
  endfacet
  facet normal 0.000000 -1.000000 0.000000
    outer loop
      vertex 2.710000 7.225000 -5.600000
      vertex 4.910000 7.225000 -3.400000
      vertex 2.710000 7.225000 -3.400000
    endloop
  endfacet
  facet normal 0.000000 1.000000 0.000000
    outer loop
      vertex 2.710000 5.675000 -3.400000
      vertex 4.910000 5.675000 -3.400000
      vertex 4.910000 5.675000 -5.600000
    endloop
  endfacet
  facet normal 0.000000 1.000000 0.000000
    outer loop
      vertex 2.710000 5.675000 -3.400000
      vertex 4.910000 5.675000 -5.600000
      vertex 2.710000 5.675000 -5.600000
    endloop
  endfacet
  facet normal 0.000000 0.000000 -1.000000
    outer loop
      vertex 2.710000 7.225000 -3.400000
      vertex 4.910000 7.225000 -3.400000
      vertex 4.910000 5.675000 -3.400000
    endloop
  endfacet
  facet normal 0.000000 0.000000 -1.000000
    outer loop
      vertex 2.710000 7.225000 -3.400000
      vertex 4.910000 5.675000 -3.400000
      vertex 2.710000 5.675000 -3.400000
    endloop
  endfacet
  facet normal 0.000000 0.000000 1.000000
    outer loop
      vertex 4.910000 5.675000 -5.600000
      vertex 4.910000 7.225000 -5.600000
      vertex 2.710000 7.225000 -5.600000
    endloop
  endfacet
  facet normal 0.000000 0.000000 1.000000
    outer loop
      vertex 4.910000 5.675000 -5.600000
      vertex 2.710000 7.225000 -5.600000
      vertex 2.710000 5.675000 -5.600000
    endloop
  endfacet
  facet normal -1.000000 0.000000 0.000000
    outer loop
      vertex 4.910000 5.675000 -3.400000
      vertex 4.910000 7.225000 -3.400000
      vertex 4.910000 7.225000 -5.600000
    endloop
  endfacet
  facet normal -1.000000 0.000000 0.000000
    outer loop
      vertex 4.910000 5.675000 -3.400000
      vertex 4.910000 7.225000 -5.600000
      vertex 4.910000 5.675000 -5.600000
    endloop
  endfacet
  facet normal 1.000000 0.000000 0.000000
    outer loop
      vertex 2.710000 5.675000 -5.600000
      vertex 2.710000 7.225000 -5.600000
      vertex 2.710000 7.225000 -3.400000
    endloop
  endfacet
  facet normal 1.000000 0.000000 0.000000
    outer loop
      vertex 2.710000 5.675000 -5.600000
      vertex 2.710000 7.225000 -3.400000
      vertex 2.710000 5.675000 -3.400000
    endloop
  endfacet
  facet normal 0.000000 -1.000000 0.000000
    outer loop
      vertex 3.480000 11.200000 -4.830000
      vertex 4.140000 11.200000 -4.830000
      vertex 4.140000 11.200000 -4.170000
    endloop
  endfacet
  facet normal 0.000000 -1.000000 0.000000
    outer loop
      vertex 3.480000 11.200000 -4.830000
      vertex 4.140000 11.200000 -4.170000
      vertex 3.480000 11.200000 -4.170000
    endloop
  endfacet
  facet normal 0.000000 1.000000 0.000000
    outer loop
      vertex 3.480000 6.000000 -4.170000
      vertex 4.140000 6.000000 -4.170000
      vertex 4.140000 6.000000 -4.830000
    endloop
  endfacet
  facet normal 0.000000 1.000000 0.000000
    outer loop
      vertex 3.480000 6.000000 -4.170000
      vertex 4.140000 6.000000 -4.830000
      vertex 3.480000 6.000000 -4.830000
    endloop
  endfacet
  facet normal 0.000000 0.000000 -1.000000
    outer loop
      vertex 3.480000 11.200000 -4.170000
      vertex 4.140000 11.200000 -4.170000
      vertex 4.140000 6.000000 -4.170000
    endloop
  endfacet
  facet normal 0.000000 0.000000 -1.000000
    outer loop
      vertex 3.480000 11.200000 -4.170000
      vertex 4.140000 6.000000 -4.170000
      vertex 3.480000 6.000000 -4.170000
    endloop
  endfacet
  facet normal 0.000000 0.000000 1.000000
    outer loop
      vertex 4.140000 6.000000 -4.830000
      vertex 4.140000 11.200000 -4.830000
      vertex 3.480000 11.200000 -4.830000
    endloop
  endfacet
  facet normal 0.000000 0.000000 1.000000
    outer loop
      vertex 4.140000 6.000000 -4.830000
      vertex 3.480000 11.200000 -4.830000
      vertex 3.480000 6.000000 -4.830000
    endloop
  endfacet
  facet normal -1.000000 0.000000 0.000000
    outer loop
      vertex 4.140000 6.000000 -4.170000
      vertex 4.140000 11.200000 -4.170000
      vertex 4.140000 11.200000 -4.830000
    endloop
  endfacet
  facet normal -1.000000 0.000000 0.000000
    outer loop
      vertex 4.140000 6.000000 -4.170000
      vertex 4.140000 11.200000 -4.830000
      vertex 4.140000 6.000000 -4.830000
    endloop
  endfacet
  facet normal 1.000000 0.000000 0.000000
    outer loop
      vertex 3.480000 6.000000 -4.830000
      vertex 3.480000 11.200000 -4.830000
      vertex 3.480000 11.200000 -4.170000
    endloop
  endfacet
  facet normal 1.000000 0.000000 0.000000
    outer loop
      vertex 3.480000 6.000000 -4.830000
      vertex 3.480000 11.200000 -4.170000
      vertex 3.480000 6.000000 -4.170000
    endloop
  endfacet
  facet normal 0.000000 -1.000000 0.000000
    outer loop
      vertex 5.250000 7.225000 -5.600000
      vertex 7.450000 7.225000 -5.600000
      vertex 7.450000 7.225000 -3.400000
    endloop
  endfacet
  facet normal 0.000000 -1.000000 0.000000
    outer loop
      vertex 5.250000 7.225000 -5.600000
      vertex 7.450000 7.225000 -3.400000
      vertex 5.250000 7.225000 -3.400000
    endloop
  endfacet
  facet normal 0.000000 1.000000 0.000000
    outer loop
      vertex 5.250000 5.675000 -3.400000
      vertex 7.450000 5.675000 -3.400000
      vertex 7.450000 5.675000 -5.600000
    endloop
  endfacet
  facet normal 0.000000 1.000000 0.000000
    outer loop
      vertex 5.250000 5.675000 -3.400000
      vertex 7.450000 5.675000 -5.600000
      vertex 5.250000 5.675000 -5.600000
    endloop
  endfacet
  facet normal 0.000000 0.000000 -1.000000
    outer loop
      vertex 5.250000 7.225000 -3.400000
      vertex 7.450000 7.225000 -3.400000
      vertex 7.450000 5.675000 -3.400000
    endloop
  endfacet
  facet normal 0.000000 0.000000 -1.000000
    outer loop
      vertex 5.250000 7.225000 -3.400000
      vertex 7.450000 5.675000 -3.400000
      vertex 5.250000 5.675000 -3.400000
    endloop
  endfacet
  facet normal 0.000000 0.000000 1.000000
    outer loop
      vertex 7.450000 5.675000 -5.600000
      vertex 7.450000 7.225000 -5.600000
      vertex 5.250000 7.225000 -5.600000
    endloop
  endfacet
  facet normal 0.000000 0.000000 1.000000
    outer loop
      vertex 7.450000 5.675000 -5.600000
      vertex 5.250000 7.225000 -5.600000
      vertex 5.250000 5.675000 -5.600000
    endloop
  endfacet
  facet normal -1.000000 0.000000 0.000000
    outer loop
      vertex 7.450000 5.675000 -3.400000
      vertex 7.450000 7.225000 -3.400000
      vertex 7.450000 7.225000 -5.600000
    endloop
  endfacet
  facet normal -1.000000 0.000000 0.000000
    outer loop
      vertex 7.450000 5.675000 -3.400000
      vertex 7.450000 7.225000 -5.600000
      vertex 7.450000 5.675000 -5.600000
    endloop
  endfacet
  facet normal 1.000000 0.000000 0.000000
    outer loop
      vertex 5.250000 5.675000 -5.600000
      vertex 5.250000 7.225000 -5.600000
      vertex 5.250000 7.225000 -3.400000
    endloop
  endfacet
  facet normal 1.000000 0.000000 0.000000
    outer loop
      vertex 5.250000 5.675000 -5.600000
      vertex 5.250000 7.225000 -3.400000
      vertex 5.250000 5.675000 -3.400000
    endloop
  endfacet
  facet normal 0.000000 -1.000000 0.000000
    outer loop
      vertex 6.020000 11.200000 -4.830000
      vertex 6.680000 11.200000 -4.830000
      vertex 6.680000 11.200000 -4.170000
    endloop
  endfacet
  facet normal 0.000000 -1.000000 0.000000
    outer loop
      vertex 6.020000 11.200000 -4.830000
      vertex 6.680000 11.200000 -4.170000
      vertex 6.020000 11.200000 -4.170000
    endloop
  endfacet
  facet normal 0.000000 1.000000 0.000000
    outer loop
      vertex 6.020000 6.000000 -4.170000
      vertex 6.680000 6.000000 -4.170000
      vertex 6.680000 6.000000 -4.830000
    endloop
  endfacet
  facet normal 0.000000 1.000000 0.000000
    outer loop
      vertex 6.020000 6.000000 -4.170000
      vertex 6.680000 6.000000 -4.830000
      vertex 6.020000 6.000000 -4.830000
    endloop
  endfacet
  facet normal 0.000000 0.000000 -1.000000
    outer loop
      vertex 6.020000 11.200000 -4.170000
      vertex 6.680000 11.200000 -4.170000
      vertex 6.680000 6.000000 -4.170000
    endloop
  endfacet
  facet normal 0.000000 0.000000 -1.000000
    outer loop
      vertex 6.020000 11.200000 -4.170000
      vertex 6.680000 6.000000 -4.170000
      vertex 6.020000 6.000000 -4.170000
    endloop
  endfacet
  facet normal 0.000000 0.000000 1.000000
    outer loop
      vertex 6.680000 6.000000 -4.830000
      vertex 6.680000 11.200000 -4.830000
      vertex 6.020000 11.200000 -4.830000
    endloop
  endfacet
  facet normal 0.000000 0.000000 1.000000
    outer loop
      vertex 6.680000 6.000000 -4.830000
      vertex 6.020000 11.200000 -4.830000
      vertex 6.020000 6.000000 -4.830000
    endloop
  endfacet
  facet normal -1.000000 0.000000 0.000000
    outer loop
      vertex 6.680000 6.000000 -4.170000
      vertex 6.680000 11.200000 -4.170000
      vertex 6.680000 11.200000 -4.830000
    endloop
  endfacet
  facet normal -1.000000 0.000000 0.000000
    outer loop
      vertex 6.680000 6.000000 -4.170000
      vertex 6.680000 11.200000 -4.830000
      vertex 6.680000 6.000000 -4.830000
    endloop
  endfacet
  facet normal 1.000000 0.000000 0.000000
    outer loop
      vertex 6.020000 6.000000 -4.830000
      vertex 6.020000 11.200000 -4.830000
      vertex 6.020000 11.200000 -4.170000
    endloop
  endfacet
  facet normal 1.000000 0.000000 0.000000
    outer loop
      vertex 6.020000 6.000000 -4.830000
      vertex 6.020000 11.200000 -4.170000
      vertex 6.020000 6.000000 -4.170000
    endloop
  endfacet
  facet normal 0.000000 -1.000000 0.000000
    outer loop
      vertex -1.250000 2.100000 0.250000
      vertex 1.250000 2.100000 0.250000
      vertex 1.250000 2.100000 2.750000
    endloop
  endfacet
  facet normal 0.000000 -1.000000 0.000000
    outer loop
      vertex -1.250000 2.100000 0.250000
      vertex 1.250000 2.100000 2.750000
      vertex -1.250000 2.100000 2.750000
    endloop
  endfacet
  facet normal 0.000000 1.000000 0.000000
    outer loop
      vertex -1.250000 0.900000 2.750000
      vertex 1.250000 0.900000 2.750000
      vertex 1.250000 0.900000 0.250000
    endloop
  endfacet
  facet normal 0.000000 1.000000 0.000000
    outer loop
      vertex -1.250000 0.900000 2.750000
      vertex 1.250000 0.900000 0.250000
      vertex -1.250000 0.900000 0.250000
    endloop
  endfacet
  facet normal 0.000000 0.000000 -1.000000
    outer loop
      vertex -1.250000 2.100000 2.750000
      vertex 1.250000 2.100000 2.750000
      vertex 1.250000 0.900000 2.750000
    endloop
  endfacet
  facet normal 0.000000 0.000000 -1.000000
    outer loop
      vertex -1.250000 2.100000 2.750000
      vertex 1.250000 0.900000 2.750000
      vertex -1.250000 0.900000 2.750000
    endloop
  endfacet
  facet normal 0.000000 0.000000 1.000000
    outer loop
      vertex 1.250000 0.900000 0.250000
      vertex 1.250000 2.100000 0.250000
      vertex -1.250000 2.100000 0.250000
    endloop
  endfacet
  facet normal 0.000000 0.000000 1.000000
    outer loop
      vertex 1.250000 0.900000 0.250000
      vertex -1.250000 2.100000 0.250000
      vertex -1.250000 0.900000 0.250000
    endloop
  endfacet
  facet normal -1.000000 0.000000 0.000000
    outer loop
      vertex 1.250000 0.900000 2.750000
      vertex 1.250000 2.100000 2.750000
      vertex 1.250000 2.100000 0.250000
    endloop
  endfacet
  facet normal -1.000000 0.000000 0.000000
    outer loop
      vertex 1.250000 0.900000 2.750000
      vertex 1.250000 2.100000 0.250000
      vertex 1.250000 0.900000 0.250000
    endloop
  endfacet
  facet normal 1.000000 0.000000 0.000000
    outer loop
      vertex -1.250000 0.900000 0.250000
      vertex -1.250000 2.100000 0.250000
      vertex -1.250000 2.100000 2.750000
    endloop
  endfacet
  facet normal 1.000000 0.000000 0.000000
    outer loop
      vertex -1.250000 0.900000 0.250000
      vertex -1.250000 2.100000 2.750000
      vertex -1.250000 0.900000 2.750000
    endloop
  endfacet
  facet normal 0.000000 -1.000000 0.000000
    outer loop
      vertex -7.600000 3.250000 -5.750000
      vertex 7.600000 3.250000 -5.750000
      vertex 7.600000 3.250000 -3.250000
    endloop
  endfacet
  facet normal 0.000000 -1.000000 0.000000
    outer loop
      vertex -7.600000 3.250000 -5.750000
      vertex 7.600000 3.250000 -3.250000
      vertex -7.600000 3.250000 -3.250000
    endloop
  endfacet
  facet normal 0.000000 1.000000 0.000000
    outer loop
      vertex -7.600000 0.750000 -3.250000
      vertex 7.600000 0.750000 -3.250000
      vertex 7.600000 0.750000 -5.750000
    endloop
  endfacet
  facet normal 0.000000 1.000000 0.000000
    outer loop
      vertex -7.600000 0.750000 -3.250000
      vertex 7.600000 0.750000 -5.750000
      vertex -7.600000 0.750000 -5.750000
    endloop
  endfacet
  facet normal 0.000000 0.000000 -1.000000
    outer loop
      vertex -7.600000 3.250000 -3.250000
      vertex 7.600000 3.250000 -3.250000
      vertex 7.600000 0.750000 -3.250000
    endloop
  endfacet
  facet normal 0.000000 0.000000 -1.000000
    outer loop
      vertex -7.600000 3.250000 -3.250000
      vertex 7.600000 0.750000 -3.250000
      vertex -7.600000 0.750000 -3.250000
    endloop
  endfacet
  facet normal 0.000000 0.000000 1.000000
    outer loop
      vertex 7.600000 0.750000 -5.750000
      vertex 7.600000 3.250000 -5.750000
      vertex -7.600000 3.250000 -5.750000
    endloop
  endfacet
  facet normal 0.000000 0.000000 1.000000
    outer loop
      vertex 7.600000 0.750000 -5.750000
      vertex -7.600000 3.250000 -5.750000
      vertex -7.600000 0.750000 -5.750000
    endloop
  endfacet
  facet normal -1.000000 0.000000 0.000000
    outer loop
      vertex 7.600000 0.750000 -3.250000
      vertex 7.600000 3.250000 -3.250000
      vertex 7.600000 3.250000 -5.750000
    endloop
  endfacet
  facet normal -1.000000 0.000000 0.000000
    outer loop
      vertex 7.600000 0.750000 -3.250000
      vertex 7.600000 3.250000 -5.750000
      vertex 7.600000 0.750000 -5.750000
    endloop
  endfacet
  facet normal 1.000000 0.000000 0.000000
    outer loop
      vertex -7.600000 0.750000 -5.750000
      vertex -7.600000 3.250000 -5.750000
      vertex -7.600000 3.250000 -3.250000
    endloop
  endfacet
  facet normal 1.000000 0.000000 0.000000
    outer loop
      vertex -7.600000 0.750000 -5.750000
      vertex -7.600000 3.250000 -3.250000
      vertex -7.600000 0.750000 -3.250000
    endloop
  endfacet
endsolid bme280_environmental