solid solenoid_12v_push_pull
  facet normal 0.000000 -1.000000 0.000000
    outer loop
      vertex -16.000000 27.000000 -11.000000
      vertex 16.000000 27.000000 -11.000000
      vertex 16.000000 27.000000 11.000000
    endloop
  endfacet
  facet normal 0.000000 -1.000000 0.000000
    outer loop
      vertex -16.000000 27.000000 -11.000000
      vertex 16.000000 27.000000 11.000000
      vertex -16.000000 27.000000 11.000000
    endloop
  endfacet
  facet normal 0.000000 1.000000 0.000000
    outer loop
      vertex -16.000000 0.000000 11.000000
      vertex 16.000000 0.000000 11.000000
      vertex 16.000000 0.000000 -11.000000
    endloop
  endfacet
  facet normal 0.000000 1.000000 0.000000
    outer loop
      vertex -16.000000 0.000000 11.000000
      vertex 16.000000 0.000000 -11.000000
      vertex -16.000000 0.000000 -11.000000
    endloop
  endfacet
  facet normal 0.000000 0.000000 -1.000000
    outer loop
      vertex -16.000000 27.000000 11.000000
      vertex 16.000000 27.000000 11.000000
      vertex 16.000000 0.000000 11.000000
    endloop
  endfacet
  facet normal 0.000000 0.000000 -1.000000
    outer loop
      vertex -16.000000 27.000000 11.000000
      vertex 16.000000 0.000000 11.000000
      vertex -16.000000 0.000000 11.000000
    endloop
  endfacet
  facet normal 0.000000 0.000000 1.000000
    outer loop
      vertex 16.000000 0.000000 -11.000000
      vertex 16.000000 27.000000 -11.000000
      vertex -16.000000 27.000000 -11.000000
    endloop
  endfacet
  facet normal 0.000000 0.000000 1.000000
    outer loop
      vertex 16.000000 0.000000 -11.000000
      vertex -16.000000 27.000000 -11.000000
      vertex -16.000000 0.000000 -11.000000
    endloop
  endfacet
  facet normal -1.000000 0.000000 0.000000
    outer loop
      vertex 16.000000 0.000000 11.000000
      vertex 16.000000 27.000000 11.000000
      vertex 16.000000 27.000000 -11.000000
    endloop
  endfacet
  facet normal -1.000000 0.000000 0.000000
    outer loop
      vertex 16.000000 0.000000 11.000000
      vertex 16.000000 27.000000 -11.000000
      vertex 16.000000 0.000000 -11.000000
    endloop
  endfacet
  facet normal 1.000000 0.000000 0.000000
    outer loop
      vertex -16.000000 0.000000 -11.000000
      vertex -16.000000 27.000000 -11.000000
      vertex -16.000000 27.000000 11.000000
    endloop
  endfacet
  facet normal 1.000000 0.000000 0.000000
    outer loop
      vertex -16.000000 0.000000 -11.000000
      vertex -16.000000 27.000000 11.000000
      vertex -16.000000 0.000000 11.000000
    endloop
  endfacet
  facet normal 0.000000 -1.000000 0.000000
    outer loop
      vertex -7.100000 27.225000 -10.100000
      vertex -4.900000 27.225000 -10.100000
      vertex -4.900000 27.225000 -7.900000
    endloop
  endfacet
  facet normal 0.000000 -1.000000 0.000000
    outer loop
      vertex -7.100000 27.225000 -10.100000
      vertex -4.900000 27.225000 -7.900000
      vertex -7.100000 27.225000 -7.900000
    endloop
  endfacet
  facet normal 0.000000 1.000000 0.000000
    outer loop
      vertex -7.100000 25.675000 -7.900000
      vertex -4.900000 25.675000 -7.900000
      vertex -4.900000 25.675000 -10.100000
    endloop
  endfacet
  facet normal 0.000000 1.000000 0.000000
    outer loop
      vertex -7.100000 25.675000 -7.900000
      vertex -4.900000 25.675000 -10.100000
      vertex -7.100000 25.675000 -10.100000
    endloop
  endfacet
  facet normal 0.000000 0.000000 -1.000000
    outer loop
      vertex -7.100000 27.225000 -7.900000
      vertex -4.900000 27.225000 -7.900000
      vertex -4.900000 25.675000 -7.900000
    endloop
  endfacet
  facet normal 0.000000 0.000000 -1.000000
    outer loop
      vertex -7.100000 27.225000 -7.900000
      vertex -4.900000 25.675000 -7.900000
      vertex -7.100000 25.675000 -7.900000
    endloop
  endfacet
  facet normal 0.000000 0.000000 1.000000
    outer loop
      vertex -4.900000 25.675000 -10.100000
      vertex -4.900000 27.225000 -10.100000
      vertex -7.100000 27.225000 -10.100000
    endloop
  endfacet
  facet normal 0.000000 0.000000 1.000000
    outer loop
      vertex -4.900000 25.675000 -10.100000
      vertex -7.100000 27.225000 -10.100000
      vertex -7.100000 25.675000 -10.100000
    endloop
  endfacet
  facet normal -1.000000 0.000000 0.000000
    outer loop
      vertex -4.900000 25.675000 -7.900000
      vertex -4.900000 27.225000 -7.900000
      vertex -4.900000 27.225000 -10.100000
    endloop
  endfacet
  facet normal -1.000000 0.000000 0.000000
    outer loop
      vertex -4.900000 25.675000 -7.900000
      vertex -4.900000 27.225000 -10.100000
      vertex -4.900000 25.675000 -10.100000
    endloop
  endfacet
  facet normal 1.000000 0.000000 0.000000
    outer loop
      vertex -7.100000 25.675000 -10.100000
      vertex -7.100000 27.225000 -10.100000
      vertex -7.100000 27.225000 -7.900000
    endloop
  endfacet
  facet normal 1.000000 0.000000 0.000000
    outer loop
      vertex -7.100000 25.675000 -10.100000
      vertex -7.100000 27.225000 -7.900000
      vertex -7.100000 25.675000 -7.900000
    endloop
  endfacet
  facet normal 0.000000 -1.000000 0.000000
    outer loop
      vertex -6.330000 31.200000 -9.330000
      vertex -5.670000 31.200000 -9.330000
      vertex -5.670000 31.200000 -8.670000
    endloop
  endfacet
  facet normal 0.000000 -1.000000 0.000000
    outer loop
      vertex -6.330000 31.200000 -9.330000
      vertex -5.670000 31.200000 -8.670000
      vertex -6.330000 31.200000 -8.670000
    endloop
  endfacet
  facet normal 0.000000 1.000000 0.000000
    outer loop
      vertex -6.330000 26.000000 -8.670000
      vertex -5.670000 26.000000 -8.670000
      vertex -5.670000 26.000000 -9.330000
    endloop
  endfacet
  facet normal 0.000000 1.000000 0.000000
    outer loop
      vertex -6.330000 26.000000 -8.670000
      vertex -5.670000 26.000000 -9.330000
      vertex -6.330000 26.000000 -9.330000
    endloop
  endfacet
  facet normal 0.000000 0.000000 -1.000000
    outer loop
      vertex -6.330000 31.200000 -8.670000
      vertex -5.670000 31.200000 -8.670000
      vertex -5.670000 26.000000 -8.670000
    endloop
  endfacet
  facet normal 0.000000 0.000000 -1.000000
    outer loop
      vertex -6.330000 31.200000 -8.670000
      vertex -5.670000 26.000000 -8.670000
      vertex -6.330000 26.000000 -8.670000
    endloop
  endfacet
  facet normal 0.000000 0.000000 1.000000
    outer loop
      vertex -5.670000 26.000000 -9.330000
      vertex -5.670000 31.200000 -9.330000
      vertex -6.330000 31.200000 -9.330000
    endloop
  endfacet
  facet normal 0.000000 0.000000 1.000000
    outer loop
      vertex -5.670000 26.000000 -9.330000
      vertex -6.330000 31.200000 -9.330000
      vertex -6.330000 26.000000 -9.330000
    endloop
  endfacet
  facet normal -1.000000 0.000000 0.000000
    outer loop
      vertex -5.670000 26.000000 -8.670000
      vertex -5.670000 31.200000 -8.670000
      vertex -5.670000 31.200000 -9.330000
    endloop
  endfacet
  facet normal -1.000000 0.000000 0.000000
    outer loop
      vertex -5.670000 26.000000 -8.670000
      vertex -5.670000 31.200000 -9.330000
      vertex -5.670000 26.000000 -9.330000
    endloop
  endfacet
  facet normal 1.000000 0.000000 0.000000
    outer loop
      vertex -6.330000 26.000000 -9.330000
      vertex -6.330000 31.200000 -9.330000
      vertex -6.330000 31.200000 -8.670000
    endloop
  endfacet
  facet normal 1.000000 0.000000 0.000000
    outer loop
      vertex -6.330000 26.000000 -9.330000
      vertex -6.330000 31.200000 -8.670000
      vertex -6.330000 26.000000 -8.670000
    endloop
  endfacet
  facet normal 0.000000 -1.000000 0.000000
    outer loop
      vertex 4.900000 27.225000 -10.100000
      vertex 7.100000 27.225000 -10.100000
      vertex 7.100000 27.225000 -7.900000
    endloop
  endfacet
  facet normal 0.000000 -1.000000 0.000000
    outer loop
      vertex 4.900000 27.225000 -10.100000
      vertex 7.100000 27.225000 -7.900000
      vertex 4.900000 27.225000 -7.900000
    endloop
  endfacet
  facet normal 0.000000 1.000000 0.000000
    outer loop
      vertex 4.900000 25.675000 -7.900000
      vertex 7.100000 25.675000 -7.900000
      vertex 7.100000 25.675000 -10.100000
    endloop
  endfacet
  facet normal 0.000000 1.000000 0.000000
    outer loop
      vertex 4.900000 25.675000 -7.900000
      vertex 7.100000 25.675000 -10.100000
      vertex 4.900000 25.675000 -10.100000
    endloop
  endfacet
  facet normal 0.000000 0.000000 -1.000000
    outer loop
      vertex 4.900000 27.225000 -7.900000
      vertex 7.100000 27.225000 -7.900000
      vertex 7.100000 25.675000 -7.900000
    endloop
  endfacet
  facet normal 0.000000 0.000000 -1.000000
    outer loop
      vertex 4.900000 27.225000 -7.900000
      vertex 7.100000 25.675000 -7.900000
      vertex 4.900000 25.675000 -7.900000
    endloop
  endfacet
  facet normal 0.000000 0.000000 1.000000
    outer loop
      vertex 7.100000 25.675000 -10.100000
      vertex 7.100000 27.225000 -10.100000
      vertex 4.900000 27.225000 -10.100000
    endloop
  endfacet
  facet normal 0.000000 0.000000 1.000000
    outer loop
      vertex 7.100000 25.675000 -10.100000
      vertex 4.900000 27.225000 -10.100000
      vertex 4.900000 25.675000 -10.100000
    endloop
  endfacet
  facet normal -1.000000 0.000000 0.000000
    outer loop
      vertex 7.100000 25.675000 -7.900000
      vertex 7.100000 27.225000 -7.900000
      vertex 7.100000 27.225000 -10.100000
    endloop
  endfacet
  facet normal -1.000000 0.000000 0.000000
    outer loop
      vertex 7.100000 25.675000 -7.900000
      vertex 7.100000 27.225000 -10.100000
      vertex 7.100000 25.675000 -10.100000
    endloop
  endfacet
  facet normal 1.000000 0.000000 0.000000
    outer loop
      vertex 4.900000 25.675000 -10.100000
      vertex 4.900000 27.225000 -10.100000
      vertex 4.900000 27.225000 -7.900000
    endloop
  endfacet
  facet normal 1.000000 0.000000 0.000000
    outer loop
      vertex 4.900000 25.675000 -10.100000
      vertex 4.900000 27.225000 -7.900000
      vertex 4.900000 25.675000 -7.900000
    endloop
  endfacet
  facet normal 0.000000 -1.000000 0.000000
    outer loop
      vertex 5.670000 31.200000 -9.330000
      vertex 6.330000 31.200000 -9.330000
      vertex 6.330000 31.200000 -8.670000
    endloop
  endfacet
  facet normal 0.000000 -1.000000 0.000000
    outer loop
      vertex 5.670000 31.200000 -9.330000
      vertex 6.330000 31.200000 -8.670000
      vertex 5.670000 31.200000 -8.670000
    endloop
  endfacet
  facet normal 0.000000 1.000000 0.000000
    outer loop
      vertex 5.670000 26.000000 -8.670000
      vertex 6.330000 26.000000 -8.670000
      vertex 6.330000 26.000000 -9.330000
    endloop
  endfacet
  facet normal 0.000000 1.000000 0.000000
    outer loop
      vertex 5.670000 26.000000 -8.670000
      vertex 6.330000 26.000000 -9.330000
      vertex 5.670000 26.000000 -9.330000
    endloop
  endfacet
  facet normal 0.000000 0.000000 -1.000000
    outer loop
      vertex 5.670000 31.200000 -8.670000
      vertex 6.330000 31.200000 -8.670000
      vertex 6.330000 26.000000 -8.670000
    endloop
  endfacet
  facet normal 0.000000 0.000000 -1.000000
    outer loop
      vertex 5.670000 31.200000 -8.670000
      vertex 6.330000 26.000000 -8.670000
      vertex 5.670000 26.000000 -8.670000
    endloop
  endfacet
  facet normal 0.000000 0.000000 1.000000
    outer loop
      vertex 6.330000 26.000000 -9.330000
      vertex 6.330000 31.200000 -9.330000
      vertex 5.670000 31.200000 -9.330000
    endloop
  endfacet
  facet normal 0.000000 0.000000 1.000000
    outer loop
      vertex 6.330000 26.000000 -9.330000
      vertex 5.670000 31.200000 -9.330000
      vertex 5.670000 26.000000 -9.330000
    endloop
  endfacet
  facet normal -1.000000 0.000000 0.000000
    outer loop
      vertex 6.330000 26.000000 -8.670000
      vertex 6.330000 31.200000 -8.670000
      vertex 6.330000 31.200000 -9.330000
    endloop
  endfacet
  facet normal -1.000000 0.000000 0.000000
    outer loop
      vertex 6.330000 26.000000 -8.670000
      vertex 6.330000 31.200000 -9.330000
      vertex 6.330000 26.000000 -9.330000
    endloop
  endfacet
  facet normal 1.000000 0.000000 0.000000
    outer loop
      vertex 5.670000 26.000000 -9.330000
      vertex 5.670000 31.200000 -9.330000
      vertex 5.670000 31.200000 -8.670000
    endloop
  endfacet
  facet normal 1.000000 0.000000 0.000000
    outer loop
      vertex 5.670000 26.000000 -9.330000
      vertex 5.670000 31.200000 -8.670000
      vertex 5.670000 26.000000 -8.670000
    endloop
  endfacet
  facet normal 0.000000 -1.000000 0.000000
    outer loop
      vertex -16.000000 27.000000 -11.000000
      vertex 16.000000 27.000000 -11.000000
      vertex 16.000000 27.000000 11.000000
    endloop
  endfacet
  facet normal 0.000000 -1.000000 0.000000
    outer loop
      vertex -16.000000 27.000000 -11.000000
      vertex 16.000000 27.000000 11.000000
      vertex -16.000000 27.000000 11.000000
    endloop
  endfacet
  facet normal 0.000000 1.000000 0.000000
    outer loop
      vertex -16.000000 0.000000 11.000000
      vertex 16.000000 0.000000 11.000000
      vertex 16.000000 0.000000 -11.000000
    endloop
  endfacet
  facet normal 0.000000 1.000000 0.000000
    outer loop
      vertex -16.000000 0.000000 11.000000
      vertex 16.000000 0.000000 -11.000000
      vertex -16.000000 0.000000 -11.000000
    endloop
  endfacet
  facet normal 0.000000 0.000000 -1.000000
    outer loop
      vertex -16.000000 27.000000 11.000000
      vertex 16.000000 27.000000 11.000000
      vertex 16.000000 0.000000 11.000000
    endloop
  endfacet
  facet normal 0.000000 0.000000 -1.000000
    outer loop
      vertex -16.000000 27.000000 11.000000
      vertex 16.000000 0.000000 11.000000
      vertex -16.000000 0.000000 11.000000
    endloop
  endfacet
  facet normal 0.000000 0.000000 1.000000
    outer loop
      vertex 16.000000 0.000000 -11.000000
      vertex 16.000000 27.000000 -11.000000
      vertex -16.000000 27.000000 -11.000000
    endloop
  endfacet
  facet normal 0.000000 0.000000 1.000000
    outer loop
      vertex 16.000000 0.000000 -11.000000
      vertex -16.000000 27.000000 -11.000000
      vertex -16.000000 0.000000 -11.000000
    endloop
  endfacet
  facet normal -1.000000 0.000000 0.000000
    outer loop
      vertex 16.000000 0.000000 11.000000
      vertex 16.000000 27.000000 11.000000
      vertex 16.000000 27.000000 -11.000000
    endloop
  endfacet
  facet normal -1.000000 0.000000 0.000000
    outer loop
      vertex 16.000000 0.000000 11.000000
      vertex 16.000000 27.000000 -11.000000
      vertex 16.000000 0.000000 -11.000000
    endloop
  endfacet
  facet normal 1.000000 0.000000 0.000000
    outer loop
      vertex -16.000000 0.000000 -11.000000
      vertex -16.000000 27.000000 -11.000000
      vertex -16.000000 27.000000 11.000000
    endloop
  endfacet
  facet normal 1.000000 0.000000 0.000000
    outer loop
      vertex -16.000000 0.000000 -11.000000
      vertex -16.000000 27.000000 11.000000
      vertex -16.000000 0.000000 11.000000
    endloop
  endfacet
  facet normal 1.000000 0.000000 0.000000
    outer loop
      vertex -10.000000 13.500000 0.000000
      vertex -10.000000 22.500000 0.000000
      vertex -10.000000 22.193332 2.329371
    endloop
  endfacet
  facet normal -1.000000 0.000000 0.000000
    outer loop
      vertex 10.000000 13.500000 0.000000
      vertex 10.000000 22.193332 2.329371
      vertex 10.000000 22.500000 0.000000
    endloop
  endfacet
  facet normal 0.000000 -0.991445 -0.130526
    outer loop
      vertex 10.000000 22.500000 0.000000
      vertex 10.000000 22.193332 2.329371
      vertex -10.000000 22.193332 2.329371
    endloop
  endfacet
  facet normal 0.000000 -0.991445 -0.130526
    outer loop
      vertex 10.000000 22.500000 0.000000
      vertex -10.000000 22.193332 2.329371
      vertex -10.000000 22.500000 0.000000
    endloop
  endfacet
  facet normal 1.000000 0.000000 0.000000
    outer loop
      vertex -10.000000 13.500000 0.000000
      vertex -10.000000 22.193332 2.329371
      vertex -10.000000 21.294229 4.500000
    endloop
  endfacet
  facet normal -1.000000 0.000000 0.000000
    outer loop
      vertex 10.000000 13.500000 0.000000
      vertex 10.000000 21.294229 4.500000
      vertex 10.000000 22.193332 2.329371
    endloop
  endfacet
  facet normal 0.000000 -0.923880 -0.382683
    outer loop
      vertex 10.000000 22.193332 2.329371
      vertex 10.000000 21.294229 4.500000
      vertex -10.000000 21.294229 4.500000
    endloop
  endfacet
  facet normal 0.000000 -0.923880 -0.382683
    outer loop
      vertex 10.000000 22.193332 2.329371
      vertex -10.000000 21.294229 4.500000
      vertex -10.000000 22.193332 2.329371
    endloop
  endfacet
  facet normal 1.000000 0.000000 0.000000
    outer loop
      vertex -10.000000 13.500000 0.000000
      vertex -10.000000 21.294229 4.500000
      vertex -10.000000 19.863961 6.363961
    endloop
  endfacet
  facet normal -1.000000 0.000000 0.000000
    outer loop
      vertex 10.000000 13.500000 0.000000
      vertex 10.000000 19.863961 6.363961
      vertex 10.000000 21.294229 4.500000
    endloop
  endfacet
  facet normal 0.000000 -0.793353 -0.608761
    outer loop
      vertex 10.000000 21.294229 4.500000
      vertex 10.000000 19.863961 6.363961
      vertex -10.000000 19.863961 6.363961
    endloop
  endfacet
  facet normal 0.000000 -0.793353 -0.608761
    outer loop
      vertex 10.000000 21.294229 4.500000
      vertex -10.000000 19.863961 6.363961
      vertex -10.000000 21.294229 4.500000
    endloop
  endfacet
  facet normal 1.000000 0.000000 0.000000
    outer loop
      vertex -10.000000 13.500000 0.000000
      vertex -10.000000 19.863961 6.363961
      vertex -10.000000 18.000000 7.794229
    endloop
  endfacet
  facet normal -1.000000 0.000000 0.000000
    outer loop
      vertex 10.000000 13.500000 0.000000
      vertex 10.000000 18.000000 7.794229
      vertex 10.000000 19.863961 6.363961
    endloop
  endfacet
  facet normal 0.000000 -0.608761 -0.793353
    outer loop
      vertex 10.000000 19.863961 6.363961
      vertex 10.000000 18.000000 7.794229
      vertex -10.000000 18.000000 7.794229
    endloop
  endfacet
  facet normal 0.000000 -0.608761 -0.793353
    outer loop
      vertex 10.000000 19.863961 6.363961
      vertex -10.000000 18.000000 7.794229
      vertex -10.000000 19.863961 6.363961
    endloop
  endfacet
  facet normal 1.000000 0.000000 0.000000
    outer loop
      vertex -10.000000 13.500000 0.000000
      vertex -10.000000 18.000000 7.794229
      vertex -10.000000 15.829371 8.693332
    endloop
  endfacet
  facet normal -1.000000 0.000000 0.000000
    outer loop
      vertex 10.000000 13.500000 0.000000
      vertex 10.000000 15.829371 8.693332
      vertex 10.000000 18.000000 7.794229
    endloop
  endfacet
  facet normal -0.000000 -0.382683 -0.923880
    outer loop
      vertex 10.000000 18.000000 7.794229
      vertex 10.000000 15.829371 8.693332
      vertex -10.000000 15.829371 8.693332
    endloop
  endfacet
  facet normal 0.000000 -0.382683 -0.923880
    outer loop
      vertex 10.000000 18.000000 7.794229
      vertex -10.000000 15.829371 8.693332
      vertex -10.000000 18.000000 7.794229
    endloop
  endfacet
  facet normal 1.000000 0.000000 0.000000
    outer loop
      vertex -10.000000 13.500000 0.000000
      vertex -10.000000 15.829371 8.693332
      vertex -10.000000 13.500000 9.000000
    endloop
  endfacet
  facet normal -1.000000 0.000000 0.000000
    outer loop
      vertex 10.000000 13.500000 0.000000
      vertex 10.000000 13.500000 9.000000
      vertex 10.000000 15.829371 8.693332
    endloop
  endfacet
  facet normal -0.000000 -0.130526 -0.991445
    outer loop
      vertex 10.000000 15.829371 8.693332
      vertex 10.000000 13.500000 9.000000
      vertex -10.000000 13.500000 9.000000
    endloop
  endfacet
  facet normal -0.000000 -0.130526 -0.991445
    outer loop
      vertex 10.000000 15.829371 8.693332
      vertex -10.000000 13.500000 9.000000
      vertex -10.000000 15.829371 8.693332
    endloop
  endfacet
  facet normal 1.000000 0.000000 0.000000
    outer loop
      vertex -10.000000 13.500000 0.000000
      vertex -10.000000 13.500000 9.000000
      vertex -10.000000 11.170629 8.693332
    endloop
  endfacet
  facet normal -1.000000 0.000000 0.000000
    outer loop
      vertex 10.000000 13.500000 0.000000
      vertex 10.000000 11.170629 8.693332
      vertex 10.000000 13.500000 9.000000
    endloop
  endfacet
  facet normal 0.000000 0.130526 -0.991445
    outer loop
      vertex 10.000000 13.500000 9.000000
      vertex 10.000000 11.170629 8.693332
      vertex -10.000000 11.170629 8.693332
    endloop
  endfacet
  facet normal 0.000000 0.130526 -0.991445
    outer loop
      vertex 10.000000 13.500000 9.000000
      vertex -10.000000 11.170629 8.693332
      vertex -10.000000 13.500000 9.000000
    endloop
  endfacet
  facet normal 1.000000 0.000000 0.000000
    outer loop
      vertex -10.000000 13.500000 0.000000
      vertex -10.000000 11.170629 8.693332
      vertex -10.000000 9.000000 7.794229
    endloop
  endfacet
  facet normal -1.000000 0.000000 0.000000
    outer loop
      vertex 10.000000 13.500000 0.000000
      vertex 10.000000 9.000000 7.794229
      vertex 10.000000 11.170629 8.693332
    endloop
  endfacet
  facet normal 0.000000 0.382683 -0.923880
    outer loop
      vertex 10.000000 11.170629 8.693332
      vertex 10.000000 9.000000 7.794229
      vertex -10.000000 9.000000 7.794229
    endloop
  endfacet
  facet normal 0.000000 0.382683 -0.923880
    outer loop
      vertex 10.000000 11.170629 8.693332
      vertex -10.000000 9.000000 7.794229
      vertex -10.000000 11.170629 8.693332
    endloop
  endfacet
  facet normal 1.000000 0.000000 0.000000
    outer loop
      vertex -10.000000 13.500000 0.000000
      vertex -10.000000 9.000000 7.794229
      vertex -10.000000 7.136039 6.363961
    endloop
  endfacet
  facet normal -1.000000 0.000000 0.000000
    outer loop
      vertex 10.000000 13.500000 0.000000
      vertex 10.000000 7.136039 6.363961
      vertex 10.000000 9.000000 7.794229
    endloop
  endfacet
  facet normal 0.000000 0.608761 -0.793353
    outer loop
      vertex 10.000000 9.000000 7.794229
      vertex 10.000000 7.136039 6.363961
      vertex -10.000000 7.136039 6.363961
    endloop
  endfacet
  facet normal 0.000000 0.608761 -0.793353
    outer loop
      vertex 10.000000 9.000000 7.794229
      vertex -10.000000 7.136039 6.363961
      vertex -10.000000 9.000000 7.794229
    endloop
  endfacet
  facet normal 1.000000 0.000000 0.000000
    outer loop
      vertex -10.000000 13.500000 0.000000
      vertex -10.000000 7.136039 6.363961
      vertex -10.000000 5.705771 4.500000
    endloop
  endfacet
  facet normal -1.000000 0.000000 0.000000
    outer loop
      vertex 10.000000 13.500000 0.000000
      vertex 10.000000 5.705771 4.500000
      vertex 10.000000 7.136039 6.363961
    endloop
  endfacet
  facet normal 0.000000 0.793353 -0.608761
    outer loop
      vertex 10.000000 7.136039 6.363961
      vertex 10.000000 5.705771 4.500000
      vertex -10.000000 5.705771 4.500000
    endloop
  endfacet
  facet normal 0.000000 0.793353 -0.608761
    outer loop
      vertex 10.000000 7.136039 6.363961
      vertex -10.000000 5.705771 4.500000
      vertex -10.000000 7.136039 6.363961
    endloop
  endfacet
  facet normal 1.000000 0.000000 0.000000
    outer loop
      vertex -10.000000 13.500000 0.000000
      vertex -10.000000 5.705771 4.500000
      vertex -10.000000 4.806668 2.329371
    endloop
  endfacet
  facet normal -1.000000 0.000000 0.000000
    outer loop
      vertex 10.000000 13.500000 0.000000
      vertex 10.000000 4.806668 2.329371
      vertex 10.000000 5.705771 4.500000
    endloop
  endfacet
  facet normal 0.000000 0.923880 -0.382683
    outer loop
      vertex 10.000000 5.705771 4.500000
      vertex 10.000000 4.806668 2.329371
      vertex -10.000000 4.806668 2.329371
    endloop
  endfacet
  facet normal 0.000000 0.923880 -0.382683
    outer loop
      vertex 10.000000 5.705771 4.500000
      vertex -10.000000 4.806668 2.329371
      vertex -10.000000 5.705771 4.500000
    endloop
  endfacet
  facet normal 1.000000 0.000000 0.000000
    outer loop
      vertex -10.000000 13.500000 0.000000
      vertex -10.000000 4.806668 2.329371
      vertex -10.000000 4.500000 0.000000
    endloop
  endfacet
  facet normal -1.000000 0.000000 0.000000
    outer loop
      vertex 10.000000 13.500000 0.000000
      vertex 10.000000 4.500000 0.000000
      vertex 10.000000 4.806668 2.329371
    endloop
  endfacet
  facet normal 0.000000 0.991445 -0.130526
    outer loop
      vertex 10.000000 4.806668 2.329371
      vertex 10.000000 4.500000 0.000000
      vertex -10.000000 4.500000 0.000000
    endloop
  endfacet
  facet normal 0.000000 0.991445 -0.130526
    outer loop
      vertex 10.000000 4.806668 2.329371
      vertex -10.000000 4.500000 0.000000
      vertex -10.000000 4.806668 2.329371
    endloop
  endfacet
  facet normal 1.000000 0.000000 0.000000
    outer loop
      vertex -10.000000 13.500000 0.000000
      vertex -10.000000 4.500000 0.000000
      vertex -10.000000 4.806668 -2.329371
    endloop
  endfacet
  facet normal -1.000000 0.000000 0.000000
    outer loop
      vertex 10.000000 13.500000 0.000000
      vertex 10.000000 4.806668 -2.329371
      vertex 10.000000 4.500000 0.000000
    endloop
  endfacet
  facet normal 0.000000 0.991445 0.130526
    outer loop
      vertex 10.000000 4.500000 0.000000
      vertex 10.000000 4.806668 -2.329371
      vertex -10.000000 4.806668 -2.329371
    endloop
  endfacet
  facet normal 0.000000 0.991445 0.130526
    outer loop
      vertex 10.000000 4.500000 0.000000
      vertex -10.000000 4.806668 -2.329371
      vertex -10.000000 4.500000 0.000000
    endloop
  endfacet
  facet normal 1.000000 0.000000 0.000000
    outer loop
      vertex -10.000000 13.500000 0.000000
      vertex -10.000000 4.806668 -2.329371
      vertex -10.000000 5.705771 -4.500000
    endloop
  endfacet
  facet normal -1.000000 0.000000 0.000000
    outer loop
      vertex 10.000000 13.500000 0.000000
      vertex 10.000000 5.705771 -4.500000
      vertex 10.000000 4.806668 -2.329371
    endloop
  endfacet
  facet normal 0.000000 0.923880 0.382683
    outer loop
      vertex 10.000000 4.806668 -2.329371
      vertex 10.000000 5.705771 -4.500000
      vertex -10.000000 5.705771 -4.500000
    endloop
  endfacet
  facet normal 0.000000 0.923880 0.382683
    outer loop
      vertex 10.000000 4.806668 -2.329371
      vertex -10.000000 5.705771 -4.500000
      vertex -10.000000 4.806668 -2.329371
    endloop
  endfacet
  facet normal 1.000000 0.000000 0.000000
    outer loop
      vertex -10.000000 13.500000 0.000000
      vertex -10.000000 5.705771 -4.500000
      vertex -10.000000 7.136039 -6.363961
    endloop
  endfacet
  facet normal -1.000000 0.000000 0.000000
    outer loop
      vertex 10.000000 13.500000 0.000000
      vertex 10.000000 7.136039 -6.363961
      vertex 10.000000 5.705771 -4.500000
    endloop
  endfacet
  facet normal 0.000000 0.793353 0.608761
    outer loop
      vertex 10.000000 5.705771 -4.500000
      vertex 10.000000 7.136039 -6.363961
      vertex -10.000000 7.136039 -6.363961
    endloop
  endfacet
  facet normal 0.000000 0.793353 0.608761
    outer loop
      vertex 10.000000 5.705771 -4.500000
      vertex -10.000000 7.136039 -6.363961
      vertex -10.000000 5.705771 -4.500000
    endloop
  endfacet
  facet normal 1.000000 0.000000 0.000000
    outer loop
      vertex -10.000000 13.500000 0.000000
      vertex -10.000000 7.136039 -6.363961
      vertex -10.000000 9.000000 -7.794229
    endloop
  endfacet
  facet normal -1.000000 0.000000 0.000000
    outer loop
      vertex 10.000000 13.500000 0.000000
      vertex 10.000000 9.000000 -7.794229
      vertex 10.000000 7.136039 -6.363961
    endloop
  endfacet
  facet normal 0.000000 0.608761 0.793353
    outer loop
      vertex 10.000000 7.136039 -6.363961
      vertex 10.000000 9.000000 -7.794229
      vertex -10.000000 9.000000 -7.794229
    endloop
  endfacet
  facet normal 0.000000 0.608761 0.793353
    outer loop
      vertex 10.000000 7.136039 -6.363961
      vertex -10.000000 9.000000 -7.794229
      vertex -10.000000 7.136039 -6.363961
    endloop
  endfacet
  facet normal 1.000000 0.000000 0.000000
    outer loop
      vertex -10.000000 13.500000 0.000000
      vertex -10.000000 9.000000 -7.794229
      vertex -10.000000 11.170629 -8.693332
    endloop
  endfacet
  facet normal -1.000000 0.000000 0.000000
    outer loop
      vertex 10.000000 13.500000 0.000000
      vertex 10.000000 11.170629 -8.693332
      vertex 10.000000 9.000000 -7.794229
    endloop
  endfacet
  facet normal 0.000000 0.382683 0.923880
    outer loop
      vertex 10.000000 9.000000 -7.794229
      vertex 10.000000 11.170629 -8.693332
      vertex -10.000000 11.170629 -8.693332
    endloop
  endfacet
  facet normal 0.000000 0.382683 0.923880
    outer loop
      vertex 10.000000 9.000000 -7.794229
      vertex -10.000000 11.170629 -8.693332
      vertex -10.000000 9.000000 -7.794229
    endloop
  endfacet
  facet normal 1.000000 0.000000 0.000000
    outer loop
      vertex -10.000000 13.500000 0.000000
      vertex -10.000000 11.170629 -8.693332
      vertex -10.000000 13.500000 -9.000000
    endloop
  endfacet
  facet normal -1.000000 0.000000 0.000000
    outer loop
      vertex 10.000000 13.500000 0.000000
      vertex 10.000000 13.500000 -9.000000
      vertex 10.000000 11.170629 -8.693332
    endloop
  endfacet
  facet normal 0.000000 0.130526 0.991445
    outer loop
      vertex 10.000000 11.170629 -8.693332
      vertex 10.000000 13.500000 -9.000000
      vertex -10.000000 13.500000 -9.000000
    endloop
  endfacet
  facet normal 0.000000 0.130526 0.991445
    outer loop
      vertex 10.000000 11.170629 -8.693332
      vertex -10.000000 13.500000 -9.000000
      vertex -10.000000 11.170629 -8.693332
    endloop
  endfacet
  facet normal 1.000000 0.000000 0.000000
    outer loop
      vertex -10.000000 13.500000 0.000000
      vertex -10.000000 13.500000 -9.000000
      vertex -10.000000 15.829371 -8.693332
    endloop
  endfacet
  facet normal -1.000000 0.000000 0.000000
    outer loop
      vertex 10.000000 13.500000 0.000000
      vertex 10.000000 15.829371 -8.693332
      vertex 10.000000 13.500000 -9.000000
    endloop
  endfacet
  facet normal 0.000000 -0.130526 0.991445
    outer loop
      vertex 10.000000 13.500000 -9.000000
      vertex 10.000000 15.829371 -8.693332
      vertex -10.000000 15.829371 -8.693332
    endloop
  endfacet
  facet normal 0.000000 -0.130526 0.991445
    outer loop
      vertex 10.000000 13.500000 -9.000000
      vertex -10.000000 15.829371 -8.693332
      vertex -10.000000 13.500000 -9.000000
    endloop
  endfacet
  facet normal 1.000000 0.000000 0.000000
    outer loop
      vertex -10.000000 13.500000 0.000000
      vertex -10.000000 15.829371 -8.693332
      vertex -10.000000 18.000000 -7.794229
    endloop
  endfacet
  facet normal -1.000000 0.000000 0.000000
    outer loop
      vertex 10.000000 13.500000 0.000000
      vertex 10.000000 18.000000 -7.794229
      vertex 10.000000 15.829371 -8.693332
    endloop
  endfacet
  facet normal 0.000000 -0.382683 0.923880
    outer loop
      vertex 10.000000 15.829371 -8.693332
      vertex 10.000000 18.000000 -7.794229
      vertex -10.000000 18.000000 -7.794229
    endloop
  endfacet
  facet normal 0.000000 -0.382683 0.923880
    outer loop
      vertex 10.000000 15.829371 -8.693332
      vertex -10.000000 18.000000 -7.794229
      vertex -10.000000 15.829371 -8.693332
    endloop
  endfacet
  facet normal 1.000000 0.000000 0.000000
    outer loop
      vertex -10.000000 13.500000 0.000000
      vertex -10.000000 18.000000 -7.794229
      vertex -10.000000 19.863961 -6.363961
    endloop
  endfacet
  facet normal -1.000000 0.000000 0.000000
    outer loop
      vertex 10.000000 13.500000 0.000000
      vertex 10.000000 19.863961 -6.363961
      vertex 10.000000 18.000000 -7.794229
    endloop
  endfacet
  facet normal 0.000000 -0.608761 0.793353
    outer loop
      vertex 10.000000 18.000000 -7.794229
      vertex 10.000000 19.863961 -6.363961
      vertex -10.000000 19.863961 -6.363961
    endloop
  endfacet
  facet normal 0.000000 -0.608761 0.793353
    outer loop
      vertex 10.000000 18.000000 -7.794229
      vertex -10.000000 19.863961 -6.363961
      vertex -10.000000 18.000000 -7.794229
    endloop
  endfacet
  facet normal 1.000000 0.000000 0.000000
    outer loop
      vertex -10.000000 13.500000 0.000000
      vertex -10.000000 19.863961 -6.363961
      vertex -10.000000 21.294229 -4.500000
    endloop
  endfacet
  facet normal -1.000000 0.000000 0.000000
    outer loop
      vertex 10.000000 13.500000 0.000000
      vertex 10.000000 21.294229 -4.500000
      vertex 10.000000 19.863961 -6.363961
    endloop
  endfacet
  facet normal -0.000000 -0.793353 0.608761
    outer loop
      vertex 10.000000 19.863961 -6.363961
      vertex 10.000000 21.294229 -4.500000
      vertex -10.000000 21.294229 -4.500000
    endloop
  endfacet
  facet normal 0.000000 -0.793353 0.608761
    outer loop
      vertex 10.000000 19.863961 -6.363961
      vertex -10.000000 21.294229 -4.500000
      vertex -10.000000 19.863961 -6.363961
    endloop
  endfacet
  facet normal 1.000000 0.000000 0.000000
    outer loop
      vertex -10.000000 13.500000 0.000000
      vertex -10.000000 21.294229 -4.500000
      vertex -10.000000 22.193332 -2.329371
    endloop
  endfacet
  facet normal -1.000000 0.000000 0.000000
    outer loop
      vertex 10.000000 13.500000 0.000000
      vertex 10.000000 22.193332 -2.329371
      vertex 10.000000 21.294229 -4.500000
    endloop
  endfacet
  facet normal 0.000000 -0.923880 0.382683
    outer loop
      vertex 10.000000 21.294229 -4.500000
      vertex 10.000000 22.193332 -2.329371
      vertex -10.000000 22.193332 -2.329371
    endloop
  endfacet
  facet normal -0.000000 -0.923880 0.382683
    outer loop
      vertex 10.000000 21.294229 -4.500000
      vertex -10.000000 22.193332 -2.329371
      vertex -10.000000 21.294229 -4.500000
    endloop
  endfacet
  facet normal 1.000000 0.000000 0.000000
    outer loop
      vertex -10.000000 13.500000 0.000000
      vertex -10.000000 22.193332 -2.329371
      vertex -10.000000 22.500000 0.000000
    endloop
  endfacet
  facet normal -1.000000 0.000000 0.000000
    outer loop
      vertex 10.000000 13.500000 0.000000
      vertex 10.000000 22.500000 0.000000
      vertex 10.000000 22.193332 -2.329371
    endloop
  endfacet
  facet normal 0.000000 -0.991445 0.130526
    outer loop
      vertex 10.000000 22.193332 -2.329371
      vertex 10.000000 22.500000 0.000000
      vertex -10.000000 22.500000 0.000000
    endloop
  endfacet
  facet normal 0.000000 -0.991445 0.130526
    outer loop
      vertex 10.000000 22.193332 -2.329371
      vertex -10.000000 22.500000 0.000000
      vertex -10.000000 22.193332 -2.329371
    endloop
  endfacet
  facet normal 1.000000 0.000000 0.000000
    outer loop
      vertex 1.000000 13.500000 0.000000
      vertex 1.000000 17.500000 0.000000
      vertex 1.000000 17.363703 1.035276
    endloop
  endfacet
  facet normal -1.000000 0.000000 0.000000
    outer loop
      vertex 27.000000 13.500000 0.000000
      vertex 27.000000 17.363703 1.035276
      vertex 27.000000 17.500000 0.000000
    endloop
  endfacet
  facet normal -0.000000 -0.991445 -0.130526
    outer loop
      vertex 27.000000 17.500000 0.000000
      vertex 27.000000 17.363703 1.035276
      vertex 1.000000 17.363703 1.035276
    endloop
  endfacet
  facet normal 0.000000 -0.991445 -0.130526
    outer loop
      vertex 27.000000 17.500000 0.000000
      vertex 1.000000 17.363703 1.035276
      vertex 1.000000 17.500000 0.000000
    endloop
  endfacet
  facet normal 1.000000 0.000000 0.000000
    outer loop
      vertex 1.000000 13.500000 0.000000
      vertex 1.000000 17.363703 1.035276
      vertex 1.000000 16.964102 2.000000
    endloop
  endfacet
  facet normal -1.000000 0.000000 0.000000
    outer loop
      vertex 27.000000 13.500000 0.000000
      vertex 27.000000 16.964102 2.000000
      vertex 27.000000 17.363703 1.035276
    endloop
  endfacet
  facet normal -0.000000 -0.923880 -0.382683
    outer loop
      vertex 27.000000 17.363703 1.035276
      vertex 27.000000 16.964102 2.000000
      vertex 1.000000 16.964102 2.000000
    endloop
  endfacet
  facet normal -0.000000 -0.923880 -0.382683
    outer loop
      vertex 27.000000 17.363703 1.035276
      vertex 1.000000 16.964102 2.000000
      vertex 1.000000 17.363703 1.035276
    endloop
  endfacet
  facet normal 1.000000 0.000000 0.000000
    outer loop
      vertex 1.000000 13.500000 0.000000
      vertex 1.000000 16.964102 2.000000
      vertex 1.000000 16.328427 2.828427
    endloop
  endfacet
  facet normal -1.000000 0.000000 0.000000
    outer loop
      vertex 27.000000 13.500000 0.000000
      vertex 27.000000 16.328427 2.828427
      vertex 27.000000 16.964102 2.000000
    endloop
  endfacet
  facet normal -0.000000 -0.793353 -0.608761
    outer loop
      vertex 27.000000 16.964102 2.000000
      vertex 27.000000 16.328427 2.828427
      vertex 1.000000 16.328427 2.828427
    endloop
  endfacet
  facet normal -0.000000 -0.793353 -0.608761
    outer loop
      vertex 27.000000 16.964102 2.000000
      vertex 1.000000 16.328427 2.828427
      vertex 1.000000 16.964102 2.000000
    endloop
  endfacet
  facet normal 1.000000 0.000000 0.000000
    outer loop
      vertex 1.000000 13.500000 0.000000
      vertex 1.000000 16.328427 2.828427
      vertex 1.000000 15.500000 3.464102
    endloop
  endfacet
  facet normal -1.000000 0.000000 0.000000
    outer loop
      vertex 27.000000 13.500000 0.000000
      vertex 27.000000 15.500000 3.464102
      vertex 27.000000 16.328427 2.828427
    endloop
  endfacet
  facet normal -0.000000 -0.608761 -0.793353
    outer loop
      vertex 27.000000 16.328427 2.828427
      vertex 27.000000 15.500000 3.464102
      vertex 1.000000 15.500000 3.464102
    endloop
  endfacet
  facet normal -0.000000 -0.608761 -0.793353
    outer loop
      vertex 27.000000 16.328427 2.828427
      vertex 1.000000 15.500000 3.464102
      vertex 1.000000 16.328427 2.828427
    endloop
  endfacet
  facet normal 1.000000 0.000000 0.000000
    outer loop
      vertex 1.000000 13.500000 0.000000
      vertex 1.000000 15.500000 3.464102
      vertex 1.000000 14.535276 3.863703
    endloop
  endfacet
  facet normal -1.000000 0.000000 0.000000
    outer loop
      vertex 27.000000 13.500000 0.000000
      vertex 27.000000 14.535276 3.863703
      vertex 27.000000 15.500000 3.464102
    endloop
  endfacet
  facet normal 0.000000 -0.382683 -0.923880
    outer loop
      vertex 27.000000 15.500000 3.464102
      vertex 27.000000 14.535276 3.863703
      vertex 1.000000 14.535276 3.863703
    endloop
  endfacet
  facet normal -0.000000 -0.382683 -0.923880
    outer loop
      vertex 27.000000 15.500000 3.464102
      vertex 1.000000 14.535276 3.863703
      vertex 1.000000 15.500000 3.464102
    endloop
  endfacet
  facet normal 1.000000 0.000000 0.000000
    outer loop
      vertex 1.000000 13.500000 0.000000
      vertex 1.000000 14.535276 3.863703
      vertex 1.000000 13.500000 4.000000
    endloop
  endfacet
  facet normal -1.000000 0.000000 0.000000
    outer loop
      vertex 27.000000 13.500000 0.000000
      vertex 27.000000 13.500000 4.000000
      vertex 27.000000 14.535276 3.863703
    endloop
  endfacet
  facet normal -0.000000 -0.130526 -0.991445
    outer loop
      vertex 27.000000 14.535276 3.863703
      vertex 27.000000 13.500000 4.000000
      vertex 1.000000 13.500000 4.000000
    endloop
  endfacet
  facet normal 0.000000 -0.130526 -0.991445
    outer loop
      vertex 27.000000 14.535276 3.863703
      vertex 1.000000 13.500000 4.000000
      vertex 1.000000 14.535276 3.863703
    endloop
  endfacet
  facet normal 1.000000 0.000000 0.000000
    outer loop
      vertex 1.000000 13.500000 0.000000
      vertex 1.000000 13.500000 4.000000
      vertex 1.000000 12.464724 3.863703
    endloop
  endfacet
  facet normal -1.000000 0.000000 0.000000
    outer loop
      vertex 27.000000 13.500000 0.000000
      vertex 27.000000 12.464724 3.863703
      vertex 27.000000 13.500000 4.000000
    endloop
  endfacet
  facet normal 0.000000 0.130526 -0.991445
    outer loop
      vertex 27.000000 13.500000 4.000000
      vertex 27.000000 12.464724 3.863703
      vertex 1.000000 12.464724 3.863703
    endloop
  endfacet
  facet normal 0.000000 0.130526 -0.991445
    outer loop
      vertex 27.000000 13.500000 4.000000
      vertex 1.000000 12.464724 3.863703
      vertex 1.000000 13.500000 4.000000
    endloop
  endfacet
  facet normal 1.000000 0.000000 0.000000
    outer loop
      vertex 1.000000 13.500000 0.000000
      vertex 1.000000 12.464724 3.863703
      vertex 1.000000 11.500000 3.464102
    endloop
  endfacet
  facet normal -1.000000 0.000000 0.000000
    outer loop
      vertex 27.000000 13.500000 0.000000
      vertex 27.000000 11.500000 3.464102
      vertex 27.000000 12.464724 3.863703
    endloop
  endfacet
  facet normal 0.000000 0.382683 -0.923880
    outer loop
      vertex 27.000000 12.464724 3.863703
      vertex 27.000000 11.500000 3.464102
      vertex 1.000000 11.500000 3.464102
    endloop
  endfacet
  facet normal 0.000000 0.382683 -0.923880
    outer loop
      vertex 27.000000 12.464724 3.863703
      vertex 1.000000 11.500000 3.464102
      vertex 1.000000 12.464724 3.863703
    endloop
  endfacet
  facet normal 1.000000 0.000000 0.000000
    outer loop
      vertex 1.000000 13.500000 0.000000
      vertex 1.000000 11.500000 3.464102
      vertex 1.000000 10.671573 2.828427
    endloop
  endfacet
  facet normal -1.000000 0.000000 0.000000
    outer loop
      vertex 27.000000 13.500000 0.000000
      vertex 27.000000 10.671573 2.828427
      vertex 27.000000 11.500000 3.464102
    endloop
  endfacet
  facet normal 0.000000 0.608761 -0.793353
    outer loop
      vertex 27.000000 11.500000 3.464102
      vertex 27.000000 10.671573 2.828427
      vertex 1.000000 10.671573 2.828427
    endloop
  endfacet
  facet normal 0.000000 0.608761 -0.793353
    outer loop
      vertex 27.000000 11.500000 3.464102
      vertex 1.000000 10.671573 2.828427
      vertex 1.000000 11.500000 3.464102
    endloop
  endfacet
  facet normal 1.000000 0.000000 0.000000
    outer loop
      vertex 1.000000 13.500000 0.000000
      vertex 1.000000 10.671573 2.828427
      vertex 1.000000 10.035898 2.000000
    endloop
  endfacet
  facet normal -1.000000 0.000000 0.000000
    outer loop
      vertex 27.000000 13.500000 0.000000
      vertex 27.000000 10.035898 2.000000
      vertex 27.000000 10.671573 2.828427
    endloop
  endfacet
  facet normal 0.000000 0.793353 -0.608761
    outer loop
      vertex 27.000000 10.671573 2.828427
      vertex 27.000000 10.035898 2.000000
      vertex 1.000000 10.035898 2.000000
    endloop
  endfacet
  facet normal 0.000000 0.793353 -0.608761
    outer loop
      vertex 27.000000 10.671573 2.828427
      vertex 1.000000 10.035898 2.000000
      vertex 1.000000 10.671573 2.828427
    endloop
  endfacet
  facet normal 1.000000 0.000000 0.000000
    outer loop
      vertex 1.000000 13.500000 0.000000
      vertex 1.000000 10.035898 2.000000
      vertex 1.000000 9.636297 1.035276
    endloop
  endfacet
  facet normal -1.000000 0.000000 0.000000
    outer loop
      vertex 27.000000 13.500000 0.000000
      vertex 27.000000 9.636297 1.035276
      vertex 27.000000 10.035898 2.000000
    endloop
  endfacet
  facet normal 0.000000 0.923880 -0.382683
    outer loop
      vertex 27.000000 10.035898 2.000000
      vertex 27.000000 9.636297 1.035276
      vertex 1.000000 9.636297 1.035276
    endloop
  endfacet
  facet normal 0.000000 0.923880 -0.382683
    outer loop
      vertex 27.000000 10.035898 2.000000
      vertex 1.000000 9.636297 1.035276
      vertex 1.000000 10.035898 2.000000
    endloop
  endfacet
  facet normal 1.000000 0.000000 0.000000
    outer loop
      vertex 1.000000 13.500000 0.000000
      vertex 1.000000 9.636297 1.035276
      vertex 1.000000 9.500000 0.000000
    endloop
  endfacet
  facet normal -1.000000 0.000000 0.000000
    outer loop
      vertex 27.000000 13.500000 0.000000
      vertex 27.000000 9.500000 0.000000
      vertex 27.000000 9.636297 1.035276
    endloop
  endfacet
  facet normal 0.000000 0.991445 -0.130526
    outer loop
      vertex 27.000000 9.636297 1.035276
      vertex 27.000000 9.500000 0.000000
      vertex 1.000000 9.500000 0.000000
    endloop
  endfacet
  facet normal 0.000000 0.991445 -0.130526
    outer loop
      vertex 27.000000 9.636297 1.035276
      vertex 1.000000 9.500000 0.000000
      vertex 1.000000 9.636297 1.035276
    endloop
  endfacet
  facet normal 1.000000 0.000000 0.000000
    outer loop
      vertex 1.000000 13.500000 0.000000
      vertex 1.000000 9.500000 0.000000
      vertex 1.000000 9.636297 -1.035276
    endloop
  endfacet
  facet normal -1.000000 0.000000 0.000000
    outer loop
      vertex 27.000000 13.500000 0.000000
      vertex 27.000000 9.636297 -1.035276
      vertex 27.000000 9.500000 0.000000
    endloop
  endfacet
  facet normal 0.000000 0.991445 0.130526
    outer loop
      vertex 27.000000 9.500000 0.000000
      vertex 27.000000 9.636297 -1.035276
      vertex 1.000000 9.636297 -1.035276
    endloop
  endfacet
  facet normal 0.000000 0.991445 0.130526
    outer loop
      vertex 27.000000 9.500000 0.000000
      vertex 1.000000 9.636297 -1.035276
      vertex 1.000000 9.500000 0.000000
    endloop
  endfacet
  facet normal 1.000000 0.000000 0.000000
    outer loop
      vertex 1.000000 13.500000 0.000000
      vertex 1.000000 9.636297 -1.035276
      vertex 1.000000 10.035898 -2.000000
    endloop
  endfacet
  facet normal -1.000000 0.000000 0.000000
    outer loop
      vertex 27.000000 13.500000 0.000000
      vertex 27.000000 10.035898 -2.000000
      vertex 27.000000 9.636297 -1.035276
    endloop
  endfacet
  facet normal 0.000000 0.923880 0.382683
    outer loop
      vertex 27.000000 9.636297 -1.035276
      vertex 27.000000 10.035898 -2.000000
      vertex 1.000000 10.035898 -2.000000
    endloop
  endfacet
  facet normal 0.000000 0.923880 0.382683
    outer loop
      vertex 27.000000 9.636297 -1.035276
      vertex 1.000000 10.035898 -2.000000
      vertex 1.000000 9.636297 -1.035276
    endloop
  endfacet
  facet normal 1.000000 0.000000 0.000000
    outer loop
      vertex 1.000000 13.500000 0.000000
      vertex 1.000000 10.035898 -2.000000
      vertex 1.000000 10.671573 -2.828427
    endloop
  endfacet
  facet normal -1.000000 0.000000 0.000000
    outer loop
      vertex 27.000000 13.500000 0.000000
      vertex 27.000000 10.671573 -2.828427
      vertex 27.000000 10.035898 -2.000000
    endloop
  endfacet
  facet normal 0.000000 0.793353 0.608761
    outer loop
      vertex 27.000000 10.035898 -2.000000
      vertex 27.000000 10.671573 -2.828427
      vertex 1.000000 10.671573 -2.828427
    endloop
  endfacet
  facet normal 0.000000 0.793353 0.608761
    outer loop
      vertex 27.000000 10.035898 -2.000000
      vertex 1.000000 10.671573 -2.828427
      vertex 1.000000 10.035898 -2.000000
    endloop
  endfacet
  facet normal 1.000000 0.000000 0.000000
    outer loop
      vertex 1.000000 13.500000 0.000000
      vertex 1.000000 10.671573 -2.828427
      vertex 1.000000 11.500000 -3.464102
    endloop
  endfacet
  facet normal -1.000000 0.000000 0.000000
    outer loop
      vertex 27.000000 13.500000 0.000000
      vertex 27.000000 11.500000 -3.464102
      vertex 27.000000 10.671573 -2.828427
    endloop
  endfacet
  facet normal 0.000000 0.608761 0.793353
    outer loop
      vertex 27.000000 10.671573 -2.828427
      vertex 27.000000 11.500000 -3.464102
      vertex 1.000000 11.500000 -3.464102
    endloop
  endfacet
  facet normal 0.000000 0.608761 0.793353
    outer loop
      vertex 27.000000 10.671573 -2.828427
      vertex 1.000000 11.500000 -3.464102
      vertex 1.000000 10.671573 -2.828427
    endloop
  endfacet
  facet normal 1.000000 0.000000 0.000000
    outer loop
      vertex 1.000000 13.500000 0.000000
      vertex 1.000000 11.500000 -3.464102
      vertex 1.000000 12.464724 -3.863703
    endloop
  endfacet
  facet normal -1.000000 0.000000 0.000000
    outer loop
      vertex 27.000000 13.500000 0.000000
      vertex 27.000000 12.464724 -3.863703
      vertex 27.000000 11.500000 -3.464102
    endloop
  endfacet
  facet normal 0.000000 0.382683 0.923880
    outer loop
      vertex 27.000000 11.500000 -3.464102
      vertex 27.000000 12.464724 -3.863703
      vertex 1.000000 12.464724 -3.863703
    endloop
  endfacet
  facet normal 0.000000 0.382683 0.923880
    outer loop
      vertex 27.000000 11.500000 -3.464102
      vertex 1.000000 12.464724 -3.863703
      vertex 1.000000 11.500000 -3.464102
    endloop
  endfacet
  facet normal 1.000000 0.000000 0.000000
    outer loop
      vertex 1.000000 13.500000 0.000000
      vertex 1.000000 12.464724 -3.863703
      vertex 1.000000 13.500000 -4.000000
    endloop
  endfacet
  facet normal -1.000000 0.000000 0.000000
    outer loop
      vertex 27.000000 13.500000 0.000000
      vertex 27.000000 13.500000 -4.000000
      vertex 27.000000 12.464724 -3.863703
    endloop
  endfacet
  facet normal 0.000000 0.130526 0.991445
    outer loop
      vertex 27.000000 12.464724 -3.863703
      vertex 27.000000 13.500000 -4.000000
      vertex 1.000000 13.500000 -4.000000
    endloop
  endfacet
  facet normal 0.000000 0.130526 0.991445
    outer loop
      vertex 27.000000 12.464724 -3.863703
      vertex 1.000000 13.500000 -4.000000
      vertex 1.000000 12.464724 -3.863703
    endloop
  endfacet
  facet normal 1.000000 0.000000 0.000000
    outer loop
      vertex 1.000000 13.500000 0.000000
      vertex 1.000000 13.500000 -4.000000
      vertex 1.000000 14.535276 -3.863703
    endloop
  endfacet
  facet normal -1.000000 0.000000 0.000000
    outer loop
      vertex 27.000000 13.500000 0.000000
      vertex 27.000000 14.535276 -3.863703
      vertex 27.000000 13.500000 -4.000000
    endloop
  endfacet
  facet normal -0.000000 -0.130526 0.991445
    outer loop
      vertex 27.000000 13.500000 -4.000000
      vertex 27.000000 14.535276 -3.863703
      vertex 1.000000 14.535276 -3.863703
    endloop
  endfacet
  facet normal -0.000000 -0.130526 0.991445
    outer loop
      vertex 27.000000 13.500000 -4.000000
      vertex 1.000000 14.535276 -3.863703
      vertex 1.000000 13.500000 -4.000000
    endloop
  endfacet
  facet normal 1.000000 0.000000 0.000000
    outer loop
      vertex 1.000000 13.500000 0.000000
      vertex 1.000000 14.535276 -3.863703
      vertex 1.000000 15.500000 -3.464102
    endloop
  endfacet
  facet normal -1.000000 0.000000 0.000000
    outer loop
      vertex 27.000000 13.500000 0.000000
      vertex 27.000000 15.500000 -3.464102
      vertex 27.000000 14.535276 -3.863703
    endloop
  endfacet
  facet normal -0.000000 -0.382683 0.923880
    outer loop
      vertex 27.000000 14.535276 -3.863703
      vertex 27.000000 15.500000 -3.464102
      vertex 1.000000 15.500000 -3.464102
    endloop
  endfacet
  facet normal -0.000000 -0.382683 0.923880
    outer loop
      vertex 27.000000 14.535276 -3.863703
      vertex 1.000000 15.500000 -3.464102
      vertex 1.000000 14.535276 -3.863703
    endloop
  endfacet
  facet normal 1.000000 0.000000 0.000000
    outer loop
      vertex 1.000000 13.500000 0.000000
      vertex 1.000000 15.500000 -3.464102
      vertex 1.000000 16.328427 -2.828427
    endloop
  endfacet
  facet normal -1.000000 0.000000 0.000000
    outer loop
      vertex 27.000000 13.500000 0.000000
      vertex 27.000000 16.328427 -2.828427
      vertex 27.000000 15.500000 -3.464102
    endloop
  endfacet
  facet normal -0.000000 -0.608761 0.793353
    outer loop
      vertex 27.000000 15.500000 -3.464102
      vertex 27.000000 16.328427 -2.828427
      vertex 1.000000 16.328427 -2.828427
    endloop
  endfacet
  facet normal -0.000000 -0.608761 0.793353
    outer loop
      vertex 27.000000 15.500000 -3.464102
      vertex 1.000000 16.328427 -2.828427
      vertex 1.000000 15.500000 -3.464102
    endloop
  endfacet
  facet normal 1.000000 0.000000 0.000000
    outer loop
      vertex 1.000000 13.500000 0.000000
      vertex 1.000000 16.328427 -2.828427
      vertex 1.000000 16.964102 -2.000000
    endloop
  endfacet
  facet normal -1.000000 0.000000 0.000000
    outer loop
      vertex 27.000000 13.500000 0.000000
      vertex 27.000000 16.964102 -2.000000
      vertex 27.000000 16.328427 -2.828427
    endloop
  endfacet
  facet normal 0.000000 -0.793353 0.608761
    outer loop
      vertex 27.000000 16.328427 -2.828427
      vertex 27.000000 16.964102 -2.000000
      vertex 1.000000 16.964102 -2.000000
    endloop
  endfacet
  facet normal -0.000000 -0.793353 0.608761
    outer loop
      vertex 27.000000 16.328427 -2.828427
      vertex 1.000000 16.964102 -2.000000
      vertex 1.000000 16.328427 -2.828427
    endloop
  endfacet
  facet normal 1.000000 0.000000 0.000000
    outer loop
      vertex 1.000000 13.500000 0.000000
      vertex 1.000000 16.964102 -2.000000
      vertex 1.000000 17.363703 -1.035276
    endloop
  endfacet
  facet normal -1.000000 0.000000 0.000000
    outer loop
      vertex 27.000000 13.500000 0.000000
      vertex 27.000000 17.363703 -1.035276
      vertex 27.000000 16.964102 -2.000000
    endloop
  endfacet
  facet normal -0.000000 -0.923880 0.382683
    outer loop
      vertex 27.000000 16.964102 -2.000000
      vertex 27.000000 17.363703 -1.035276
      vertex 1.000000 17.363703 -1.035276
    endloop
  endfacet
  facet normal 0.000000 -0.923880 0.382683
    outer loop
      vertex 27.000000 16.964102 -2.000000
      vertex 1.000000 17.363703 -1.035276
      vertex 1.000000 16.964102 -2.000000
    endloop
  endfacet
  facet normal 1.000000 0.000000 0.000000
    outer loop
      vertex 1.000000 13.500000 0.000000
      vertex 1.000000 17.363703 -1.035276
      vertex 1.000000 17.500000 0.000000
    endloop
  endfacet
  facet normal -1.000000 0.000000 0.000000
    outer loop
      vertex 27.000000 13.500000 0.000000
      vertex 27.000000 17.500000 0.000000
      vertex 27.000000 17.363703 -1.035276
    endloop
  endfacet
  facet normal 0.000000 -0.991445 0.130526
    outer loop
      vertex 27.000000 17.363703 -1.035276
      vertex 27.000000 17.500000 0.000000
      vertex 1.000000 17.500000 0.000000
    endloop
  endfacet
  facet normal -0.000000 -0.991445 0.130526
    outer loop
      vertex 27.000000 17.363703 -1.035276
      vertex 1.000000 17.500000 0.000000
      vertex 1.000000 17.363703 -1.035276
    endloop
  endfacet
endsolid solenoid_12v_push_pull