solid dht11_temperature_humidity
  facet normal 0.000000 1.000000 0.000000
    outer loop
      vertex -2.540000 -13.250000 0.000000
      vertex -2.260000 -13.250000 0.000000
      vertex -2.287729 -13.250000 -0.121487
    endloop
  endfacet
  facet normal 0.000000 -1.000000 0.000000
    outer loop
      vertex -2.540000 -2.750000 -0.000000
      vertex -2.287729 -2.750000 -0.121487
      vertex -2.260000 -2.750000 -0.000000
    endloop
  endfacet
  facet normal -0.974928 0.000000 0.222521
    outer loop
      vertex -2.260000 -2.750000 -0.000000
      vertex -2.287729 -2.750000 -0.121487
      vertex -2.287729 -13.250000 -0.121487
    endloop
  endfacet
  facet normal -0.974928 0.000000 0.222521
    outer loop
      vertex -2.260000 -2.750000 -0.000000
      vertex -2.287729 -13.250000 -0.121487
      vertex -2.260000 -13.250000 0.000000
    endloop
  endfacet
  facet normal 0.000000 1.000000 0.000000
    outer loop
      vertex -2.540000 -13.250000 0.000000
      vertex -2.287729 -13.250000 -0.121487
      vertex -2.365423 -13.250000 -0.218913
    endloop
  endfacet
  facet normal 0.000000 -1.000000 0.000000
    outer loop
      vertex -2.540000 -2.750000 -0.000000
      vertex -2.365423 -2.750000 -0.218913
      vertex -2.287729 -2.750000 -0.121487
    endloop
  endfacet
  facet normal -0.781831 0.000000 0.623490
    outer loop
      vertex -2.287729 -2.750000 -0.121487
      vertex -2.365423 -2.750000 -0.218913
      vertex -2.365423 -13.250000 -0.218913
    endloop
  endfacet
  facet normal -0.781831 0.000000 0.623490
    outer loop
      vertex -2.287729 -2.750000 -0.121487
      vertex -2.365423 -13.250000 -0.218913
      vertex -2.287729 -13.250000 -0.121487
    endloop
  endfacet
  facet normal 0.000000 1.000000 0.000000
    outer loop
      vertex -2.540000 -13.250000 0.000000
      vertex -2.365423 -13.250000 -0.218913
      vertex -2.477694 -13.250000 -0.272980
    endloop
  endfacet
  facet normal 0.000000 -1.000000 0.000000
    outer loop
      vertex -2.540000 -2.750000 -0.000000
      vertex -2.477694 -2.750000 -0.272980
      vertex -2.365423 -2.750000 -0.218913
    endloop
  endfacet
  facet normal -0.433884 0.000000 0.900969
    outer loop
      vertex -2.365423 -2.750000 -0.218913
      vertex -2.477694 -2.750000 -0.272980
      vertex -2.477694 -13.250000 -0.272980
    endloop
  endfacet
  facet normal -0.433884 0.000000 0.900969
    outer loop
      vertex -2.365423 -2.750000 -0.218913
      vertex -2.477694 -13.250000 -0.272980
      vertex -2.365423 -13.250000 -0.218913
    endloop
  endfacet
  facet normal 0.000000 1.000000 0.000000
    outer loop
      vertex -2.540000 -13.250000 0.000000
      vertex -2.477694 -13.250000 -0.272980
      vertex -2.602306 -13.250000 -0.272980
    endloop
  endfacet
  facet normal 0.000000 -1.000000 0.000000
    outer loop
      vertex -2.540000 -2.750000 -0.000000
      vertex -2.602306 -2.750000 -0.272980
      vertex -2.477694 -2.750000 -0.272980
    endloop
  endfacet
  facet normal 0.000000 0.000000 1.000000
    outer loop
      vertex -2.477694 -2.750000 -0.272980
      vertex -2.602306 -2.750000 -0.272980
      vertex -2.602306 -13.250000 -0.272980
    endloop
  endfacet
  facet normal 0.000000 0.000000 1.000000
    outer loop
      vertex -2.477694 -2.750000 -0.272980
      vertex -2.602306 -13.250000 -0.272980
      vertex -2.477694 -13.250000 -0.272980
    endloop
  endfacet
  facet normal 0.000000 1.000000 0.000000
    outer loop
      vertex -2.540000 -13.250000 0.000000
      vertex -2.602306 -13.250000 -0.272980
      vertex -2.714577 -13.250000 -0.218913
    endloop
  endfacet
  facet normal 0.000000 -1.000000 0.000000
    outer loop
      vertex -2.540000 -2.750000 -0.000000
      vertex -2.714577 -2.750000 -0.218913
      vertex -2.602306 -2.750000 -0.272980
    endloop
  endfacet
  facet normal 0.433884 0.000000 0.900969
    outer loop
      vertex -2.602306 -2.750000 -0.272980
      vertex -2.714577 -2.750000 -0.218913
      vertex -2.714577 -13.250000 -0.218913
    endloop
  endfacet
  facet normal 0.433884 0.000000 0.900969
    outer loop
      vertex -2.602306 -2.750000 -0.272980
      vertex -2.714577 -13.250000 -0.218913
      vertex -2.602306 -13.250000 -0.272980
    endloop
  endfacet
  facet normal 0.000000 1.000000 0.000000
    outer loop
      vertex -2.540000 -13.250000 0.000000
      vertex -2.714577 -13.250000 -0.218913
      vertex -2.792271 -13.250000 -0.121487
    endloop
  endfacet
  facet normal 0.000000 -1.000000 0.000000
    outer loop
      vertex -2.540000 -2.750000 -0.000000
      vertex -2.792271 -2.750000 -0.121487
      vertex -2.714577 -2.750000 -0.218913
    endloop
  endfacet
  facet normal 0.781831 0.000000 0.623490
    outer loop
      vertex -2.714577 -2.750000 -0.218913
      vertex -2.792271 -2.750000 -0.121487
      vertex -2.792271 -13.250000 -0.121487
    endloop
  endfacet
  facet normal 0.781831 0.000000 0.623490
    outer loop
      vertex -2.714577 -2.750000 -0.218913
      vertex -2.792271 -13.250000 -0.121487
      vertex -2.714577 -13.250000 -0.218913
    endloop
  endfacet
  facet normal 0.000000 1.000000 0.000000
    outer loop
      vertex -2.540000 -13.250000 0.000000
      vertex -2.792271 -13.250000 -0.121487
      vertex -2.820000 -13.250000 0.000000
    endloop
  endfacet
  facet normal 0.000000 -1.000000 0.000000
    outer loop
      vertex -2.540000 -2.750000 -0.000000
      vertex -2.820000 -2.750000 -0.000000
      vertex -2.792271 -2.750000 -0.121487
    endloop
  endfacet
  facet normal 0.974928 0.000000 0.222521
    outer loop
      vertex -2.792271 -2.750000 -0.121487
      vertex -2.820000 -2.750000 -0.000000
      vertex -2.820000 -13.250000 0.000000
    endloop
  endfacet
  facet normal 0.974928 0.000000 0.222521
    outer loop
      vertex -2.792271 -2.750000 -0.121487
      vertex -2.820000 -13.250000 0.000000
      vertex -2.792271 -13.250000 -0.121487
    endloop
  endfacet
  facet normal 0.000000 1.000000 0.000000
    outer loop
      vertex -2.540000 -13.250000 0.000000
      vertex -2.820000 -13.250000 0.000000
      vertex -2.792271 -13.250000 0.121487
    endloop
  endfacet
  facet normal 0.000000 -1.000000 0.000000
    outer loop
      vertex -2.540000 -2.750000 -0.000000
      vertex -2.792271 -2.750000 0.121487
      vertex -2.820000 -2.750000 -0.000000
    endloop
  endfacet
  facet normal 0.974928 -0.000000 -0.222521
    outer loop
      vertex -2.820000 -2.750000 -0.000000
      vertex -2.792271 -2.750000 0.121487
      vertex -2.792271 -13.250000 0.121487
    endloop
  endfacet
  facet normal 0.974928 -0.000000 -0.222521
    outer loop
      vertex -2.820000 -2.750000 -0.000000
      vertex -2.792271 -13.250000 0.121487
      vertex -2.820000 -13.250000 0.000000
    endloop
  endfacet
  facet normal 0.000000 1.000000 0.000000
    outer loop
      vertex -2.540000 -13.250000 0.000000
      vertex -2.792271 -13.250000 0.121487
      vertex -2.714577 -13.250000 0.218913
    endloop
  endfacet
  facet normal 0.000000 -1.000000 0.000000
    outer loop
      vertex -2.540000 -2.750000 -0.000000
      vertex -2.714577 -2.750000 0.218913
      vertex -2.792271 -2.750000 0.121487
    endloop
  endfacet
  facet normal 0.781831 -0.000000 -0.623490
    outer loop
      vertex -2.792271 -2.750000 0.121487
      vertex -2.714577 -2.750000 0.218913
      vertex -2.714577 -13.250000 0.218913
    endloop
  endfacet
  facet normal 0.781831 -0.000000 -0.623490
    outer loop
      vertex -2.792271 -2.750000 0.121487
      vertex -2.714577 -13.250000 0.218913
      vertex -2.792271 -13.250000 0.121487
    endloop
  endfacet
  facet normal 0.000000 1.000000 0.000000
    outer loop
      vertex -2.540000 -13.250000 0.000000
      vertex -2.714577 -13.250000 0.218913
      vertex -2.602306 -13.250000 0.272980
    endloop
  endfacet
  facet normal 0.000000 -1.000000 0.000000
    outer loop
      vertex -2.540000 -2.750000 -0.000000
      vertex -2.602306 -2.750000 0.272980
      vertex -2.714577 -2.750000 0.218913
    endloop
  endfacet
  facet normal 0.433884 -0.000000 -0.900969
    outer loop
      vertex -2.714577 -2.750000 0.218913
      vertex -2.602306 -2.750000 0.272980
      vertex -2.602306 -13.250000 0.272980
    endloop
  endfacet
  facet normal 0.433884 -0.000000 -0.900969
    outer loop
      vertex -2.714577 -2.750000 0.218913
      vertex -2.602306 -13.250000 0.272980
      vertex -2.714577 -13.250000 0.218913
    endloop
  endfacet
  facet normal 0.000000 1.000000 0.000000
    outer loop
      vertex -2.540000 -13.250000 0.000000
      vertex -2.602306 -13.250000 0.272980
      vertex -2.477694 -13.250000 0.272980
    endloop
  endfacet
  facet normal 0.000000 -1.000000 0.000000
    outer loop
      vertex -2.540000 -2.750000 -0.000000
      vertex -2.477694 -2.750000 0.272980
      vertex -2.602306 -2.750000 0.272980
    endloop
  endfacet
  facet normal 0.000000 -0.000000 -1.000000
    outer loop
      vertex -2.602306 -2.750000 0.272980
      vertex -2.477694 -2.750000 0.272980
      vertex -2.477694 -13.250000 0.272980
    endloop
  endfacet
  facet normal 0.000000 -0.000000 -1.000000
    outer loop
      vertex -2.602306 -2.750000 0.272980
      vertex -2.477694 -13.250000 0.272980
      vertex -2.602306 -13.250000 0.272980
    endloop
  endfacet
  facet normal 0.000000 1.000000 0.000000
    outer loop
      vertex -2.540000 -13.250000 0.000000
      vertex -2.477694 -13.250000 0.272980
      vertex -2.365423 -13.250000 0.218913
    endloop
  endfacet
  facet normal 0.000000 -1.000000 0.000000
    outer loop
      vertex -2.540000 -2.750000 -0.000000
      vertex -2.365423 -2.750000 0.218913
      vertex -2.477694 -2.750000 0.272980
    endloop
  endfacet
  facet normal -0.433884 -0.000000 -0.900969
    outer loop
      vertex -2.477694 -2.750000 0.272980
      vertex -2.365423 -2.750000 0.218913
      vertex -2.365423 -13.250000 0.218913
    endloop
  endfacet
  facet normal -0.433884 -0.000000 -0.900969
    outer loop
      vertex -2.477694 -2.750000 0.272980
      vertex -2.365423 -13.250000 0.218913
      vertex -2.477694 -13.250000 0.272980
    endloop
  endfacet
  facet normal 0.000000 1.000000 0.000000
    outer loop
      vertex -2.540000 -13.250000 0.000000
      vertex -2.365423 -13.250000 0.218913
      vertex -2.287729 -13.250000 0.121487
    endloop
  endfacet
  facet normal 0.000000 -1.000000 0.000000
    outer loop
      vertex -2.540000 -2.750000 -0.000000
      vertex -2.287729 -2.750000 0.121487
      vertex -2.365423 -2.750000 0.218913
    endloop
  endfacet
  facet normal -0.781831 -0.000000 -0.623490
    outer loop
      vertex -2.365423 -2.750000 0.218913
      vertex -2.287729 -2.750000 0.121487
      vertex -2.287729 -13.250000 0.121487
    endloop
  endfacet
  facet normal -0.781831 -0.000000 -0.623490
    outer loop
      vertex -2.365423 -2.750000 0.218913
      vertex -2.287729 -13.250000 0.121487
      vertex -2.365423 -13.250000 0.218913
    endloop
  endfacet
  facet normal 0.000000 1.000000 0.000000
    outer loop
      vertex -2.540000 -13.250000 0.000000
      vertex -2.287729 -13.250000 0.121487
      vertex -2.260000 -13.250000 0.000000
    endloop
  endfacet
  facet normal 0.000000 -1.000000 0.000000
    outer loop
      vertex -2.540000 -2.750000 -0.000000
      vertex -2.260000 -2.750000 -0.000000
      vertex -2.287729 -2.750000 0.121487
    endloop
  endfacet
  facet normal -0.974928 -0.000000 -0.222521
    outer loop
      vertex -2.287729 -2.750000 0.121487
      vertex -2.260000 -2.750000 -0.000000
      vertex -2.260000 -13.250000 0.000000
    endloop
  endfacet
  facet normal -0.974928 -0.000000 -0.222521
    outer loop
      vertex -2.287729 -2.750000 0.121487
      vertex -2.260000 -13.250000 0.000000
      vertex -2.287729 -13.250000 0.121487
    endloop
  endfacet
  facet normal 0.000000 1.000000 0.000000
    outer loop
      vertex 0.000000 -13.250000 0.000000
      vertex 0.280000 -13.250000 0.000000
      vertex 0.252271 -13.250000 -0.121487
    endloop
  endfacet
  facet normal 0.000000 -1.000000 0.000000
    outer loop
      vertex 0.000000 -2.750000 -0.000000
      vertex 0.252271 -2.750000 -0.121487
      vertex 0.280000 -2.750000 -0.000000
    endloop
  endfacet
  facet normal -0.974928 0.000000 0.222521
    outer loop
      vertex 0.280000 -2.750000 -0.000000
      vertex 0.252271 -2.750000 -0.121487
      vertex 0.252271 -13.250000 -0.121487
    endloop
  endfacet
  facet normal -0.974928 0.000000 0.222521
    outer loop
      vertex 0.280000 -2.750000 -0.000000
      vertex 0.252271 -13.250000 -0.121487
      vertex 0.280000 -13.250000 0.000000
    endloop
  endfacet
  facet normal 0.000000 1.000000 0.000000
    outer loop
      vertex 0.000000 -13.250000 0.000000
      vertex 0.252271 -13.250000 -0.121487
      vertex 0.174577 -13.250000 -0.218913
    endloop
  endfacet
  facet normal 0.000000 -1.000000 0.000000
    outer loop
      vertex 0.000000 -2.750000 -0.000000
      vertex 0.174577 -2.750000 -0.218913
      vertex 0.252271 -2.750000 -0.121487
    endloop
  endfacet
  facet normal -0.781831 0.000000 0.623490
    outer loop
      vertex 0.252271 -2.750000 -0.121487
      vertex 0.174577 -2.750000 -0.218913
      vertex 0.174577 -13.250000 -0.218913
    endloop
  endfacet
  facet normal -0.781831 0.000000 0.623490
    outer loop
      vertex 0.252271 -2.750000 -0.121487
      vertex 0.174577 -13.250000 -0.218913
      vertex 0.252271 -13.250000 -0.121487
    endloop
  endfacet
  facet normal 0.000000 1.000000 0.000000
    outer loop
      vertex 0.000000 -13.250000 0.000000
      vertex 0.174577 -13.250000 -0.218913
      vertex 0.062306 -13.250000 -0.272980
    endloop
  endfacet
  facet normal 0.000000 -1.000000 0.000000
    outer loop
      vertex 0.000000 -2.750000 -0.000000
      vertex 0.062306 -2.750000 -0.272980
      vertex 0.174577 -2.750000 -0.218913
    endloop
  endfacet
  facet normal -0.433884 0.000000 0.900969
    outer loop
      vertex 0.174577 -2.750000 -0.218913
      vertex 0.062306 -2.750000 -0.272980
      vertex 0.062306 -13.250000 -0.272980
    endloop
  endfacet
  facet normal -0.433884 0.000000 0.900969
    outer loop
      vertex 0.174577 -2.750000 -0.218913
      vertex 0.062306 -13.250000 -0.272980
      vertex 0.174577 -13.250000 -0.218913
    endloop
  endfacet
  facet normal 0.000000 1.000000 0.000000
    outer loop
      vertex 0.000000 -13.250000 0.000000
      vertex 0.062306 -13.250000 -0.272980
      vertex -0.062306 -13.250000 -0.272980
    endloop
  endfacet
  facet normal 0.000000 -1.000000 0.000000
    outer loop
      vertex 0.000000 -2.750000 -0.000000
      vertex -0.062306 -2.750000 -0.272980
      vertex 0.062306 -2.750000 -0.272980
    endloop
  endfacet
  facet normal 0.000000 0.000000 1.000000
    outer loop
      vertex 0.062306 -2.750000 -0.272980
      vertex -0.062306 -2.750000 -0.272980
      vertex -0.062306 -13.250000 -0.272980
    endloop
  endfacet
  facet normal 0.000000 0.000000 1.000000
    outer loop
      vertex 0.062306 -2.750000 -0.272980
      vertex -0.062306 -13.250000 -0.272980
      vertex 0.062306 -13.250000 -0.272980
    endloop
  endfacet
  facet normal 0.000000 1.000000 0.000000
    outer loop
      vertex 0.000000 -13.250000 0.000000
      vertex -0.062306 -13.250000 -0.272980
      vertex -0.174577 -13.250000 -0.218913
    endloop
  endfacet
  facet normal 0.000000 -1.000000 0.000000
    outer loop
      vertex 0.000000 -2.750000 -0.000000
      vertex -0.174577 -2.750000 -0.218913
      vertex -0.062306 -2.750000 -0.272980
    endloop
  endfacet
  facet normal 0.433884 0.000000 0.900969
    outer loop
      vertex -0.062306 -2.750000 -0.272980
      vertex -0.174577 -2.750000 -0.218913
      vertex -0.174577 -13.250000 -0.218913
    endloop
  endfacet
  facet normal 0.433884 0.000000 0.900969
    outer loop
      vertex -0.062306 -2.750000 -0.272980
      vertex -0.174577 -13.250000 -0.218913
      vertex -0.062306 -13.250000 -0.272980
    endloop
  endfacet
  facet normal 0.000000 1.000000 0.000000
    outer loop
      vertex 0.000000 -13.250000 0.000000
      vertex -0.174577 -13.250000 -0.218913
      vertex -0.252271 -13.250000 -0.121487
    endloop
  endfacet
  facet normal 0.000000 -1.000000 0.000000
    outer loop
      vertex 0.000000 -2.750000 -0.000000
      vertex -0.252271 -2.750000 -0.121487
      vertex -0.174577 -2.750000 -0.218913
    endloop
  endfacet
  facet normal 0.781831 0.000000 0.623490
    outer loop
      vertex -0.174577 -2.750000 -0.218913
      vertex -0.252271 -2.750000 -0.121487
      vertex -0.252271 -13.250000 -0.121487
    endloop
  endfacet
  facet normal 0.781831 0.000000 0.623490
    outer loop
      vertex -0.174577 -2.750000 -0.218913
      vertex -0.252271 -13.250000 -0.121487
      vertex -0.174577 -13.250000 -0.218913
    endloop
  endfacet
  facet normal 0.000000 1.000000 0.000000
    outer loop
      vertex 0.000000 -13.250000 0.000000
      vertex -0.252271 -13.250000 -0.121487
      vertex -0.280000 -13.250000 0.000000
    endloop
  endfacet
  facet normal 0.000000 -1.000000 0.000000
    outer loop
      vertex 0.000000 -2.750000 -0.000000
      vertex -0.280000 -2.750000 -0.000000
      vertex -0.252271 -2.750000 -0.121487
    endloop
  endfacet
  facet normal 0.974928 0.000000 0.222521
    outer loop
      vertex -0.252271 -2.750000 -0.121487
      vertex -0.280000 -2.750000 -0.000000
      vertex -0.280000 -13.250000 0.000000
    endloop
  endfacet
  facet normal 0.974928 0.000000 0.222521
    outer loop
      vertex -0.252271 -2.750000 -0.121487
      vertex -0.280000 -13.250000 0.000000
      vertex -0.252271 -13.250000 -0.121487
    endloop
  endfacet
  facet normal 0.000000 1.000000 0.000000
    outer loop
      vertex 0.000000 -13.250000 0.000000
      vertex -0.280000 -13.250000 0.000000
      vertex -0.252271 -13.250000 0.121487
    endloop
  endfacet
  facet normal 0.000000 -1.000000 0.000000
    outer loop
      vertex 0.000000 -2.750000 -0.000000
      vertex -0.252271 -2.750000 0.121487
      vertex -0.280000 -2.750000 -0.000000
    endloop
  endfacet
  facet normal 0.974928 -0.000000 -0.222521
    outer loop
      vertex -0.280000 -2.750000 -0.000000
      vertex -0.252271 -2.750000 0.121487
      vertex -0.252271 -13.250000 0.121487
    endloop
  endfacet
  facet normal 0.974928 -0.000000 -0.222521
    outer loop
      vertex -0.280000 -2.750000 -0.000000
      vertex -0.252271 -13.250000 0.121487
      vertex -0.280000 -13.250000 0.000000
    endloop
  endfacet
  facet normal 0.000000 1.000000 0.000000
    outer loop
      vertex 0.000000 -13.250000 0.000000
      vertex -0.252271 -13.250000 0.121487
      vertex -0.174577 -13.250000 0.218913
    endloop
  endfacet
  facet normal 0.000000 -1.000000 0.000000
    outer loop
      vertex 0.000000 -2.750000 -0.000000
      vertex -0.174577 -2.750000 0.218913
      vertex -0.252271 -2.750000 0.121487
    endloop
  endfacet
  facet normal 0.781831 -0.000000 -0.623490
    outer loop
      vertex -0.252271 -2.750000 0.121487
      vertex -0.174577 -2.750000 0.218913
      vertex -0.174577 -13.250000 0.218913
    endloop
  endfacet
  facet normal 0.781831 -0.000000 -0.623490
    outer loop
      vertex -0.252271 -2.750000 0.121487
      vertex -0.174577 -13.250000 0.218913
      vertex -0.252271 -13.250000 0.121487
    endloop
  endfacet
  facet normal 0.000000 1.000000 0.000000
    outer loop
      vertex 0.000000 -13.250000 0.000000
      vertex -0.174577 -13.250000 0.218913
      vertex -0.062306 -13.250000 0.272980
    endloop
  endfacet
  facet normal 0.000000 -1.000000 0.000000
    outer loop
      vertex 0.000000 -2.750000 -0.000000
      vertex -0.062306 -2.750000 0.272980
      vertex -0.174577 -2.750000 0.218913
    endloop
  endfacet
  facet normal 0.433884 -0.000000 -0.900969
    outer loop
      vertex -0.174577 -2.750000 0.218913
      vertex -0.062306 -2.750000 0.272980
      vertex -0.062306 -13.250000 0.272980
    endloop
  endfacet
  facet normal 0.433884 -0.000000 -0.900969
    outer loop
      vertex -0.174577 -2.750000 0.218913
      vertex -0.062306 -13.250000 0.272980
      vertex -0.174577 -13.250000 0.218913
    endloop
  endfacet
  facet normal 0.000000 1.000000 0.000000
    outer loop
      vertex 0.000000 -13.250000 0.000000
      vertex -0.062306 -13.250000 0.272980
      vertex 0.062306 -13.250000 0.272980
    endloop
  endfacet
  facet normal 0.000000 -1.000000 0.000000
    outer loop
      vertex 0.000000 -2.750000 -0.000000
      vertex 0.062306 -2.750000 0.272980
      vertex -0.062306 -2.750000 0.272980
    endloop
  endfacet
  facet normal 0.000000 -0.000000 -1.000000
    outer loop
      vertex -0.062306 -2.750000 0.272980
      vertex 0.062306 -2.750000 0.272980
      vertex 0.062306 -13.250000 0.272980
    endloop
  endfacet
  facet normal 0.000000 -0.000000 -1.000000
    outer loop
      vertex -0.062306 -2.750000 0.272980
      vertex 0.062306 -13.250000 0.272980
      vertex -0.062306 -13.250000 0.272980
    endloop
  endfacet
  facet normal 0.000000 1.000000 0.000000
    outer loop
      vertex 0.000000 -13.250000 0.000000
      vertex 0.062306 -13.250000 0.272980
      vertex 0.174577 -13.250000 0.218913
    endloop
  endfacet
  facet normal 0.000000 -1.000000 0.000000
    outer loop
      vertex 0.000000 -2.750000 -0.000000
      vertex 0.174577 -2.750000 0.218913
      vertex 0.062306 -2.750000 0.272980
    endloop
  endfacet
  facet normal -0.433884 -0.000000 -0.900969
    outer loop
      vertex 0.062306 -2.750000 0.272980
      vertex 0.174577 -2.750000 0.218913
      vertex 0.174577 -13.250000 0.218913
    endloop
  endfacet
  facet normal -0.433884 -0.000000 -0.900969
    outer loop
      vertex 0.062306 -2.750000 0.272980
      vertex 0.174577 -13.250000 0.218913
      vertex 0.062306 -13.250000 0.272980
    endloop
  endfacet
  facet normal 0.000000 1.000000 0.000000
    outer loop
      vertex 0.000000 -13.250000 0.000000
      vertex 0.174577 -13.250000 0.218913
      vertex 0.252271 -13.250000 0.121487
    endloop
  endfacet
  facet normal 0.000000 -1.000000 0.000000
    outer loop
      vertex 0.000000 -2.750000 -0.000000
      vertex 0.252271 -2.750000 0.121487
      vertex 0.174577 -2.750000 0.218913
    endloop
  endfacet
  facet normal -0.781831 -0.000000 -0.623490
    outer loop
      vertex 0.174577 -2.750000 0.218913
      vertex 0.252271 -2.750000 0.121487
      vertex 0.252271 -13.250000 0.121487
    endloop
  endfacet
  facet normal -0.781831 -0.000000 -0.623490
    outer loop
      vertex 0.174577 -2.750000 0.218913
      vertex 0.252271 -13.250000 0.121487
      vertex 0.174577 -13.250000 0.218913
    endloop
  endfacet
  facet normal 0.000000 1.000000 0.000000
    outer loop
      vertex 0.000000 -13.250000 0.000000
      vertex 0.252271 -13.250000 0.121487
      vertex 0.280000 -13.250000 0.000000
    endloop
  endfacet
  facet normal 0.000000 -1.000000 0.000000
    outer loop
      vertex 0.000000 -2.750000 -0.000000
      vertex 0.280000 -2.750000 -0.000000
      vertex 0.252271 -2.750000 0.121487
    endloop
  endfacet
  facet normal -0.974928 -0.000000 -0.222521
    outer loop
      vertex 0.252271 -2.750000 0.121487
      vertex 0.280000 -2.750000 -0.000000
      vertex 0.280000 -13.250000 0.000000
    endloop
  endfacet
  facet normal -0.974928 -0.000000 -0.222521
    outer loop
      vertex 0.252271 -2.750000 0.121487
      vertex 0.280000 -13.250000 0.000000
      vertex 0.252271 -13.250000 0.121487
    endloop
  endfacet
  facet normal 0.000000 1.000000 0.000000
    outer loop
      vertex 2.540000 -13.250000 0.000000
      vertex 2.820000 -13.250000 0.000000
      vertex 2.792271 -13.250000 -0.121487
    endloop
  endfacet
  facet normal 0.000000 -1.000000 0.000000
    outer loop
      vertex 2.540000 -2.750000 -0.000000
      vertex 2.792271 -2.750000 -0.121487
      vertex 2.820000 -2.750000 -0.000000
    endloop
  endfacet
  facet normal -0.974928 0.000000 0.222521
    outer loop
      vertex 2.820000 -2.750000 -0.000000
      vertex 2.792271 -2.750000 -0.121487
      vertex 2.792271 -13.250000 -0.121487
    endloop
  endfacet
  facet normal -0.974928 0.000000 0.222521
    outer loop
      vertex 2.820000 -2.750000 -0.000000
      vertex 2.792271 -13.250000 -0.121487
      vertex 2.820000 -13.250000 0.000000
    endloop
  endfacet
  facet normal 0.000000 1.000000 0.000000
    outer loop
      vertex 2.540000 -13.250000 0.000000
      vertex 2.792271 -13.250000 -0.121487
      vertex 2.714577 -13.250000 -0.218913
    endloop
  endfacet
  facet normal 0.000000 -1.000000 0.000000
    outer loop
      vertex 2.540000 -2.750000 -0.000000
      vertex 2.714577 -2.750000 -0.218913
      vertex 2.792271 -2.750000 -0.121487
    endloop
  endfacet
  facet normal -0.781831 0.000000 0.623490
    outer loop
      vertex 2.792271 -2.750000 -0.121487
      vertex 2.714577 -2.750000 -0.218913
      vertex 2.714577 -13.250000 -0.218913
    endloop
  endfacet
  facet normal -0.781831 0.000000 0.623490
    outer loop
      vertex 2.792271 -2.750000 -0.121487
      vertex 2.714577 -13.250000 -0.218913
      vertex 2.792271 -13.250000 -0.121487
    endloop
  endfacet
  facet normal 0.000000 1.000000 0.000000
    outer loop
      vertex 2.540000 -13.250000 0.000000
      vertex 2.714577 -13.250000 -0.218913
      vertex 2.602306 -13.250000 -0.272980
    endloop
  endfacet
  facet normal 0.000000 -1.000000 0.000000
    outer loop
      vertex 2.540000 -2.750000 -0.000000
      vertex 2.602306 -2.750000 -0.272980
      vertex 2.714577 -2.750000 -0.218913
    endloop
  endfacet
  facet normal -0.433884 0.000000 0.900969
    outer loop
      vertex 2.714577 -2.750000 -0.218913
      vertex 2.602306 -2.750000 -0.272980
      vertex 2.602306 -13.250000 -0.272980
    endloop
  endfacet
  facet normal -0.433884 0.000000 0.900969
    outer loop
      vertex 2.714577 -2.750000 -0.218913
      vertex 2.602306 -13.250000 -0.272980
      vertex 2.714577 -13.250000 -0.218913
    endloop
  endfacet
  facet normal 0.000000 1.000000 0.000000
    outer loop
      vertex 2.540000 -13.250000 0.000000
      vertex 2.602306 -13.250000 -0.272980
      vertex 2.477694 -13.250000 -0.272980
    endloop
  endfacet
  facet normal 0.000000 -1.000000 0.000000
    outer loop
      vertex 2.540000 -2.750000 -0.000000
      vertex 2.477694 -2.750000 -0.272980
      vertex 2.602306 -2.750000 -0.272980
    endloop
  endfacet
  facet normal 0.000000 0.000000 1.000000
    outer loop
      vertex 2.602306 -2.750000 -0.272980
      vertex 2.477694 -2.750000 -0.272980
      vertex 2.477694 -13.250000 -0.272980
    endloop
  endfacet
  facet normal 0.000000 0.000000 1.000000
    outer loop
      vertex 2.602306 -2.750000 -0.272980
      vertex 2.477694 -13.250000 -0.272980
      vertex 2.602306 -13.250000 -0.272980
    endloop
  endfacet
  facet normal 0.000000 1.000000 0.000000
    outer loop
      vertex 2.540000 -13.250000 0.000000
      vertex 2.477694 -13.250000 -0.272980
      vertex 2.365423 -13.250000 -0.218913
    endloop
  endfacet
  facet normal 0.000000 -1.000000 0.000000
    outer loop
      vertex 2.540000 -2.750000 -0.000000
      vertex 2.365423 -2.750000 -0.218913
      vertex 2.477694 -2.750000 -0.272980
    endloop
  endfacet
  facet normal 0.433884 0.000000 0.900969
    outer loop
      vertex 2.477694 -2.750000 -0.272980
      vertex 2.365423 -2.750000 -0.218913
      vertex 2.365423 -13.250000 -0.218913
    endloop
  endfacet
  facet normal 0.433884 0.000000 0.900969
    outer loop
      vertex 2.477694 -2.750000 -0.272980
      vertex 2.365423 -13.250000 -0.218913
      vertex 2.477694 -13.250000 -0.272980
    endloop
  endfacet
  facet normal 0.000000 1.000000 0.000000
    outer loop
      vertex 2.540000 -13.250000 0.000000
      vertex 2.365423 -13.250000 -0.218913
      vertex 2.287729 -13.250000 -0.121487
    endloop
  endfacet
  facet normal 0.000000 -1.000000 0.000000
    outer loop
      vertex 2.540000 -2.750000 -0.000000
      vertex 2.287729 -2.750000 -0.121487
      vertex 2.365423 -2.750000 -0.218913
    endloop
  endfacet
  facet normal 0.781831 0.000000 0.623490
    outer loop
      vertex 2.365423 -2.750000 -0.218913
      vertex 2.287729 -2.750000 -0.121487
      vertex 2.287729 -13.250000 -0.121487
    endloop
  endfacet
  facet normal 0.781831 0.000000 0.623490
    outer loop
      vertex 2.365423 -2.750000 -0.218913
      vertex 2.287729 -13.250000 -0.121487
      vertex 2.365423 -13.250000 -0.218913
    endloop
  endfacet
  facet normal 0.000000 1.000000 0.000000
    outer loop
      vertex 2.540000 -13.250000 0.000000
      vertex 2.287729 -13.250000 -0.121487
      vertex 2.260000 -13.250000 0.000000
    endloop
  endfacet
  facet normal 0.000000 -1.000000 0.000000
    outer loop
      vertex 2.540000 -2.750000 -0.000000
      vertex 2.260000 -2.750000 -0.000000
      vertex 2.287729 -2.750000 -0.121487
    endloop
  endfacet
  facet normal 0.974928 0.000000 0.222521
    outer loop
      vertex 2.287729 -2.750000 -0.121487
      vertex 2.260000 -2.750000 -0.000000
      vertex 2.260000 -13.250000 0.000000
    endloop
  endfacet
  facet normal 0.974928 0.000000 0.222521
    outer loop
      vertex 2.287729 -2.750000 -0.121487
      vertex 2.260000 -13.250000 0.000000
      vertex 2.287729 -13.250000 -0.121487
    endloop
  endfacet
  facet normal 0.000000 1.000000 0.000000
    outer loop
      vertex 2.540000 -13.250000 0.000000
      vertex 2.260000 -13.250000 0.000000
      vertex 2.287729 -13.250000 0.121487
    endloop
  endfacet
  facet normal 0.000000 -1.000000 0.000000
    outer loop
      vertex 2.540000 -2.750000 -0.000000
      vertex 2.287729 -2.750000 0.121487
      vertex 2.260000 -2.750000 -0.000000
    endloop
  endfacet
  facet normal 0.974928 -0.000000 -0.222521
    outer loop
      vertex 2.260000 -2.750000 -0.000000
      vertex 2.287729 -2.750000 0.121487
      vertex 2.287729 -13.250000 0.121487
    endloop
  endfacet
  facet normal 0.974928 -0.000000 -0.222521
    outer loop
      vertex 2.260000 -2.750000 -0.000000
      vertex 2.287729 -13.250000 0.121487
      vertex 2.260000 -13.250000 0.000000
    endloop
  endfacet
  facet normal 0.000000 1.000000 0.000000
    outer loop
      vertex 2.540000 -13.250000 0.000000
      vertex 2.287729 -13.250000 0.121487
      vertex 2.365423 -13.250000 0.218913
    endloop
  endfacet
  facet normal 0.000000 -1.000000 0.000000
    outer loop
      vertex 2.540000 -2.750000 -0.000000
      vertex 2.365423 -2.750000 0.218913
      vertex 2.287729 -2.750000 0.121487
    endloop
  endfacet
  facet normal 0.781831 -0.000000 -0.623490
    outer loop
      vertex 2.287729 -2.750000 0.121487
      vertex 2.365423 -2.750000 0.218913
      vertex 2.365423 -13.250000 0.218913
    endloop
  endfacet
  facet normal 0.781831 -0.000000 -0.623490
    outer loop
      vertex 2.287729 -2.750000 0.121487
      vertex 2.365423 -13.250000 0.218913
      vertex 2.287729 -13.250000 0.121487
    endloop
  endfacet
  facet normal 0.000000 1.000000 0.000000
    outer loop
      vertex 2.540000 -13.250000 0.000000
      vertex 2.365423 -13.250000 0.218913
      vertex 2.477694 -13.250000 0.272980
    endloop
  endfacet
  facet normal 0.000000 -1.000000 0.000000
    outer loop
      vertex 2.540000 -2.750000 -0.000000
      vertex 2.477694 -2.750000 0.272980
      vertex 2.365423 -2.750000 0.218913
    endloop
  endfacet
  facet normal 0.433884 -0.000000 -0.900969
    outer loop
      vertex 2.365423 -2.750000 0.218913
      vertex 2.477694 -2.750000 0.272980
      vertex 2.477694 -13.250000 0.272980
    endloop
  endfacet
  facet normal 0.433884 -0.000000 -0.900969
    outer loop
      vertex 2.365423 -2.750000 0.218913
      vertex 2.477694 -13.250000 0.272980
      vertex 2.365423 -13.250000 0.218913
    endloop
  endfacet
  facet normal 0.000000 1.000000 0.000000
    outer loop
      vertex 2.540000 -13.250000 0.000000
      vertex 2.477694 -13.250000 0.272980
      vertex 2.602306 -13.250000 0.272980
    endloop
  endfacet
  facet normal 0.000000 -1.000000 0.000000
    outer loop
      vertex 2.540000 -2.750000 -0.000000
      vertex 2.602306 -2.750000 0.272980
      vertex 2.477694 -2.750000 0.272980
    endloop
  endfacet
  facet normal 0.000000 -0.000000 -1.000000
    outer loop
      vertex 2.477694 -2.750000 0.272980
      vertex 2.602306 -2.750000 0.272980
      vertex 2.602306 -13.250000 0.272980
    endloop
  endfacet
  facet normal 0.000000 -0.000000 -1.000000
    outer loop
      vertex 2.477694 -2.750000 0.272980
      vertex 2.602306 -13.250000 0.272980
      vertex 2.477694 -13.250000 0.272980
    endloop
  endfacet
  facet normal 0.000000 1.000000 0.000000
    outer loop
      vertex 2.540000 -13.250000 0.000000
      vertex 2.602306 -13.250000 0.272980
      vertex 2.714577 -13.250000 0.218913
    endloop
  endfacet
  facet normal 0.000000 -1.000000 0.000000
    outer loop
      vertex 2.540000 -2.750000 -0.000000
      vertex 2.714577 -2.750000 0.218913
      vertex 2.602306 -2.750000 0.272980
    endloop
  endfacet
  facet normal -0.433884 -0.000000 -0.900969
    outer loop
      vertex 2.602306 -2.750000 0.272980
      vertex 2.714577 -2.750000 0.218913
      vertex 2.714577 -13.250000 0.218913
    endloop
  endfacet
  facet normal -0.433884 -0.000000 -0.900969
    outer loop
      vertex 2.602306 -2.750000 0.272980
      vertex 2.714577 -13.250000 0.218913
      vertex 2.602306 -13.250000 0.272980
    endloop
  endfacet
  facet normal 0.000000 1.000000 0.000000
    outer loop
      vertex 2.540000 -13.250000 0.000000
      vertex 2.714577 -13.250000 0.218913
      vertex 2.792271 -13.250000 0.121487
    endloop
  endfacet
  facet normal 0.000000 -1.000000 0.000000
    outer loop
      vertex 2.540000 -2.750000 -0.000000
      vertex 2.792271 -2.750000 0.121487
      vertex 2.714577 -2.750000 0.218913
    endloop
  endfacet
  facet normal -0.781831 -0.000000 -0.623490
    outer loop
      vertex 2.714577 -2.750000 0.218913
      vertex 2.792271 -2.750000 0.121487
      vertex 2.792271 -13.250000 0.121487
    endloop
  endfacet
  facet normal -0.781831 -0.000000 -0.623490
    outer loop
      vertex 2.714577 -2.750000 0.218913
      vertex 2.792271 -13.250000 0.121487
      vertex 2.714577 -13.250000 0.218913
    endloop
  endfacet
  facet normal 0.000000 1.000000 0.000000
    outer loop
      vertex 2.540000 -13.250000 0.000000
      vertex 2.792271 -13.250000 0.121487
      vertex 2.820000 -13.250000 0.000000
    endloop
  endfacet
  facet normal 0.000000 -1.000000 0.000000
    outer loop
      vertex 2.540000 -2.750000 -0.000000
      vertex 2.820000 -2.750000 -0.000000
      vertex 2.792271 -2.750000 0.121487
    endloop
  endfacet
  facet normal -0.974928 -0.000000 -0.222521
    outer loop
      vertex 2.792271 -2.750000 0.121487
      vertex 2.820000 -2.750000 -0.000000
      vertex 2.820000 -13.250000 0.000000
    endloop
  endfacet
  facet normal -0.974928 -0.000000 -0.222521
    outer loop
      vertex 2.792271 -2.750000 0.121487
      vertex 2.820000 -13.250000 0.000000
      vertex 2.792271 -13.250000 0.121487
    endloop
  endfacet
  facet normal 0.000000 -1.000000 0.000000
    outer loop
      vertex -7.750000 2.750000 -6.000000
      vertex 7.750000 2.750000 -6.000000
      vertex 7.750000 2.750000 6.000000
    endloop
  endfacet
  facet normal 0.000000 -1.000000 0.000000
    outer loop
      vertex -7.750000 2.750000 -6.000000
      vertex 7.750000 2.750000 6.000000
      vertex -7.750000 2.750000 6.000000
    endloop
  endfacet
  facet normal 0.000000 1.000000 0.000000
    outer loop
      vertex -7.750000 -2.750000 6.000000
      vertex 7.750000 -2.750000 6.000000
      vertex 7.750000 -2.750000 -6.000000
    endloop
  endfacet
  facet normal 0.000000 1.000000 0.000000
    outer loop
      vertex -7.750000 -2.750000 6.000000
      vertex 7.750000 -2.750000 -6.000000
      vertex -7.750000 -2.750000 -6.000000
    endloop
  endfacet
  facet normal 0.000000 0.000000 -1.000000
    outer loop
      vertex -7.750000 2.750000 6.000000
      vertex 7.750000 2.750000 6.000000
      vertex 7.750000 -2.750000 6.000000
    endloop
  endfacet
  facet normal 0.000000 0.000000 -1.000000
    outer loop
      vertex -7.750000 2.750000 6.000000
      vertex 7.750000 -2.750000 6.000000
      vertex -7.750000 -2.750000 6.000000
    endloop
  endfacet
  facet normal 0.000000 0.000000 1.000000
    outer loop
      vertex 7.750000 -2.750000 -6.000000
      vertex 7.750000 2.750000 -6.000000
      vertex -7.750000 2.750000 -6.000000
    endloop
  endfacet
  facet normal 0.000000 0.000000 1.000000
    outer loop
      vertex 7.750000 -2.750000 -6.000000
      vertex -7.750000 2.750000 -6.000000
      vertex -7.750000 -2.750000 -6.000000
    endloop
  endfacet
  facet normal -1.000000 0.000000 0.000000
    outer loop
      vertex 7.750000 -2.750000 6.000000
      vertex 7.750000 2.750000 6.000000
      vertex 7.750000 2.750000 -6.000000
    endloop
  endfacet
  facet normal -1.000000 0.000000 0.000000
    outer loop
      vertex 7.750000 -2.750000 6.000000
      vertex 7.750000 2.750000 -6.000000
      vertex 7.750000 -2.750000 -6.000000
    endloop
  endfacet
  facet normal 1.000000 0.000000 0.000000
    outer loop
      vertex -7.750000 -2.750000 -6.000000
      vertex -7.750000 2.750000 -6.000000
      vertex -7.750000 2.750000 6.000000
    endloop
  endfacet
  facet normal 1.000000 0.000000 0.000000
    outer loop
      vertex -7.750000 -2.750000 -6.000000
      vertex -7.750000 2.750000 6.000000
      vertex -7.750000 -2.750000 6.000000
    endloop
  endfacet
  facet normal 0.000000 -1.000000 0.000000
    outer loop
      vertex -5.580000 0.690000 5.550000
      vertex 5.580000 0.690000 5.550000
      vertex 5.580000 0.690000 6.550000
    endloop
  endfacet
  facet normal 0.000000 -1.000000 0.000000
    outer loop
      vertex -5.580000 0.690000 5.550000
      vertex 5.580000 0.690000 6.550000
      vertex -5.580000 0.690000 6.550000
    endloop
  endfacet
  facet normal 0.000000 1.000000 0.000000
    outer loop
      vertex -5.580000 0.510000 6.550000
      vertex 5.580000 0.510000 6.550000
      vertex 5.580000 0.510000 5.550000
    endloop
  endfacet
  facet normal 0.000000 1.000000 0.000000
    outer loop
      vertex -5.580000 0.510000 6.550000
      vertex 5.580000 0.510000 5.550000
      vertex -5.580000 0.510000 5.550000
    endloop
  endfacet
  facet normal 0.000000 0.000000 -1.000000
    outer loop
      vertex -5.580000 0.690000 6.550000
      vertex 5.580000 0.690000 6.550000
      vertex 5.580000 0.510000 6.550000
    endloop
  endfacet
  facet normal 0.000000 0.000000 -1.000000
    outer loop
      vertex -5.580000 0.690000 6.550000
      vertex 5.580000 0.510000 6.550000
      vertex -5.580000 0.510000 6.550000
    endloop
  endfacet
  facet normal 0.000000 0.000000 1.000000
    outer loop
      vertex 5.580000 0.510000 5.550000
      vertex 5.580000 0.690000 5.550000
      vertex -5.580000 0.690000 5.550000
    endloop
  endfacet
  facet normal 0.000000 0.000000 1.000000
    outer loop
      vertex 5.580000 0.510000 5.550000
      vertex -5.580000 0.690000 5.550000
      vertex -5.580000 0.510000 5.550000
    endloop
  endfacet
  facet normal -1.000000 0.000000 0.000000
    outer loop
      vertex 5.580000 0.510000 6.550000
      vertex 5.580000 0.690000 6.550000
      vertex 5.580000 0.690000 5.550000
    endloop
  endfacet
  facet normal -1.000000 0.000000 0.000000
    outer loop
      vertex 5.580000 0.510000 6.550000
      vertex 5.580000 0.690000 5.550000
      vertex 5.580000 0.510000 5.550000
    endloop
  endfacet
  facet normal 1.000000 0.000000 0.000000
    outer loop
      vertex -5.580000 0.510000 5.550000
      vertex -5.580000 0.690000 5.550000
      vertex -5.580000 0.690000 6.550000
    endloop
  endfacet
  facet normal 1.000000 0.000000 0.000000
    outer loop
      vertex -5.580000 0.510000 5.550000
      vertex -5.580000 0.690000 6.550000
      vertex -5.580000 0.510000 6.550000
    endloop
  endfacet
  facet normal 0.000000 -1.000000 0.000000
    outer loop
      vertex -4.262500 -1.110000 5.010000
      vertex 4.262500 -1.110000 5.010000
      vertex 4.262500 -1.110000 7.110000
    endloop
  endfacet
  facet normal 0.000000 -1.000000 0.000000
    outer loop
      vertex -4.262500 -1.110000 5.010000
      vertex 4.262500 -1.110000 7.110000
      vertex -4.262500 -1.110000 7.110000
    endloop
  endfacet
  facet normal 0.000000 1.000000 0.000000
    outer loop
      vertex -4.262500 -1.290000 7.110000
      vertex 4.262500 -1.290000 7.110000
      vertex 4.262500 -1.290000 5.010000
    endloop
  endfacet
  facet normal 0.000000 1.000000 0.000000
    outer loop
      vertex -4.262500 -1.290000 7.110000
      vertex 4.262500 -1.290000 5.010000
      vertex -4.262500 -1.290000 5.010000
    endloop
  endfacet
  facet normal 0.000000 0.000000 -1.000000
    outer loop
      vertex -4.262500 -1.110000 7.110000
      vertex 4.262500 -1.110000 7.110000
      vertex 4.262500 -1.290000 7.110000
    endloop
  endfacet
  facet normal 0.000000 0.000000 -1.000000
    outer loop
      vertex -4.262500 -1.110000 7.110000
      vertex 4.262500 -1.290000 7.110000
      vertex -4.262500 -1.290000 7.110000
    endloop
  endfacet
  facet normal 0.000000 0.000000 1.000000
    outer loop
      vertex 4.262500 -1.290000 5.010000
      vertex 4.262500 -1.110000 5.010000
      vertex -4.262500 -1.110000 5.010000
    endloop
  endfacet
  facet normal 0.000000 0.000000 1.000000
    outer loop
      vertex 4.262500 -1.290000 5.010000
      vertex -4.262500 -1.110000 5.010000
      vertex -4.262500 -1.290000 5.010000
    endloop
  endfacet
  facet normal -1.000000 0.000000 0.000000
    outer loop
      vertex 4.262500 -1.290000 7.110000
      vertex 4.262500 -1.110000 7.110000
      vertex 4.262500 -1.110000 5.010000
    endloop
  endfacet
  facet normal -1.000000 0.000000 0.000000
    outer loop
      vertex 4.262500 -1.290000 7.110000
      vertex 4.262500 -1.110000 5.010000
      vertex 4.262500 -1.290000 5.010000
    endloop
  endfacet
  facet normal 1.000000 0.000000 0.000000
    outer loop
      vertex -4.262500 -1.290000 5.010000
      vertex -4.262500 -1.110000 5.010000
      vertex -4.262500 -1.110000 7.110000
    endloop
  endfacet
  facet normal 1.000000 0.000000 0.000000
    outer loop
      vertex -4.262500 -1.290000 5.010000
      vertex -4.262500 -1.110000 7.110000
      vertex -4.262500 -1.290000 7.110000
    endloop
  endfacet
endsolid dht11_temperature_humidity