solid diode_1n4007
  facet normal 1.000000 0.000000 0.000000
    outer loop
      vertex -13.900000 0.000000 0.000000
      vertex -13.900000 0.280000 0.000000
      vertex -13.900000 0.252271 0.121487
    endloop
  endfacet
  facet normal -1.000000 0.000000 0.000000
    outer loop
      vertex -3.400000 -0.000000 0.000000
      vertex -3.400000 0.252271 0.121487
      vertex -3.400000 0.280000 0.000000
    endloop
  endfacet
  facet normal -0.000000 -0.974928 -0.222521
    outer loop
      vertex -3.400000 0.280000 0.000000
      vertex -3.400000 0.252271 0.121487
      vertex -13.900000 0.252271 0.121487
    endloop
  endfacet
  facet normal -0.000000 -0.974928 -0.222521
    outer loop
      vertex -3.400000 0.280000 0.000000
      vertex -13.900000 0.252271 0.121487
      vertex -13.900000 0.280000 0.000000
    endloop
  endfacet
  facet normal 1.000000 0.000000 0.000000
    outer loop
      vertex -13.900000 0.000000 0.000000
      vertex -13.900000 0.252271 0.121487
      vertex -13.900000 0.174577 0.218913
    endloop
  endfacet
  facet normal -1.000000 0.000000 0.000000
    outer loop
      vertex -3.400000 -0.000000 0.000000
      vertex -3.400000 0.174577 0.218913
      vertex -3.400000 0.252271 0.121487
    endloop
  endfacet
  facet normal -0.000000 -0.781831 -0.623490
    outer loop
      vertex -3.400000 0.252271 0.121487
      vertex -3.400000 0.174577 0.218913
      vertex -13.900000 0.174577 0.218913
    endloop
  endfacet
  facet normal -0.000000 -0.781831 -0.623490
    outer loop
      vertex -3.400000 0.252271 0.121487
      vertex -13.900000 0.174577 0.218913
      vertex -13.900000 0.252271 0.121487
    endloop
  endfacet
  facet normal 1.000000 0.000000 0.000000
    outer loop
      vertex -13.900000 0.000000 0.000000
      vertex -13.900000 0.174577 0.218913
      vertex -13.900000 0.062306 0.272980
    endloop
  endfacet
  facet normal -1.000000 0.000000 0.000000
    outer loop
      vertex -3.400000 -0.000000 0.000000
      vertex -3.400000 0.062306 0.272980
      vertex -3.400000 0.174577 0.218913
    endloop
  endfacet
  facet normal -0.000000 -0.433884 -0.900969
    outer loop
      vertex -3.400000 0.174577 0.218913
      vertex -3.400000 0.062306 0.272980
      vertex -13.900000 0.062306 0.272980
    endloop
  endfacet
  facet normal -0.000000 -0.433884 -0.900969
    outer loop
      vertex -3.400000 0.174577 0.218913
      vertex -13.900000 0.062306 0.272980
      vertex -13.900000 0.174577 0.218913
    endloop
  endfacet
  facet normal 1.000000 0.000000 0.000000
    outer loop
      vertex -13.900000 0.000000 0.000000
      vertex -13.900000 0.062306 0.272980
      vertex -13.900000 -0.062306 0.272980
    endloop
  endfacet
  facet normal -1.000000 0.000000 0.000000
    outer loop
      vertex -3.400000 -0.000000 0.000000
      vertex -3.400000 -0.062306 0.272980
      vertex -3.400000 0.062306 0.272980
    endloop
  endfacet
  facet normal 0.000000 0.000000 -1.000000
    outer loop
      vertex -3.400000 0.062306 0.272980
      vertex -3.400000 -0.062306 0.272980
      vertex -13.900000 -0.062306 0.272980
    endloop
  endfacet
  facet normal 0.000000 0.000000 -1.000000
    outer loop
      vertex -3.400000 0.062306 0.272980
      vertex -13.900000 -0.062306 0.272980
      vertex -13.900000 0.062306 0.272980
    endloop
  endfacet
  facet normal 1.000000 0.000000 0.000000
    outer loop
      vertex -13.900000 0.000000 0.000000
      vertex -13.900000 -0.062306 0.272980
      vertex -13.900000 -0.174577 0.218913
    endloop
  endfacet
  facet normal -1.000000 0.000000 0.000000
    outer loop
      vertex -3.400000 -0.000000 0.000000
      vertex -3.400000 -0.174577 0.218913
      vertex -3.400000 -0.062306 0.272980
    endloop
  endfacet
  facet normal 0.000000 0.433884 -0.900969
    outer loop
      vertex -3.400000 -0.062306 0.272980
      vertex -3.400000 -0.174577 0.218913
      vertex -13.900000 -0.174577 0.218913
    endloop
  endfacet
  facet normal 0.000000 0.433884 -0.900969
    outer loop
      vertex -3.400000 -0.062306 0.272980
      vertex -13.900000 -0.174577 0.218913
      vertex -13.900000 -0.062306 0.272980
    endloop
  endfacet
  facet normal 1.000000 0.000000 0.000000
    outer loop
      vertex -13.900000 0.000000 0.000000
      vertex -13.900000 -0.174577 0.218913
      vertex -13.900000 -0.252271 0.121487
    endloop
  endfacet
  facet normal -1.000000 0.000000 0.000000
    outer loop
      vertex -3.400000 -0.000000 0.000000
      vertex -3.400000 -0.252271 0.121487
      vertex -3.400000 -0.174577 0.218913
    endloop
  endfacet
  facet normal 0.000000 0.781831 -0.623490
    outer loop
      vertex -3.400000 -0.174577 0.218913
      vertex -3.400000 -0.252271 0.121487
      vertex -13.900000 -0.252271 0.121487
    endloop
  endfacet
  facet normal 0.000000 0.781831 -0.623490
    outer loop
      vertex -3.400000 -0.174577 0.218913
      vertex -13.900000 -0.252271 0.121487
      vertex -13.900000 -0.174577 0.218913
    endloop
  endfacet
  facet normal 1.000000 0.000000 0.000000
    outer loop
      vertex -13.900000 0.000000 0.000000
      vertex -13.900000 -0.252271 0.121487
      vertex -13.900000 -0.280000 0.000000
    endloop
  endfacet
  facet normal -1.000000 0.000000 0.000000
    outer loop
      vertex -3.400000 -0.000000 0.000000
      vertex -3.400000 -0.280000 0.000000
      vertex -3.400000 -0.252271 0.121487
    endloop
  endfacet
  facet normal 0.000000 0.974928 -0.222521
    outer loop
      vertex -3.400000 -0.252271 0.121487
      vertex -3.400000 -0.280000 0.000000
      vertex -13.900000 -0.280000 0.000000
    endloop
  endfacet
  facet normal 0.000000 0.974928 -0.222521
    outer loop
      vertex -3.400000 -0.252271 0.121487
      vertex -13.900000 -0.280000 0.000000
      vertex -13.900000 -0.252271 0.121487
    endloop
  endfacet
  facet normal 1.000000 0.000000 0.000000
    outer loop
      vertex -13.900000 0.000000 0.000000
      vertex -13.900000 -0.280000 0.000000
      vertex -13.900000 -0.252271 -0.121487
    endloop
  endfacet
  facet normal -1.000000 0.000000 0.000000
    outer loop
      vertex -3.400000 -0.000000 0.000000
      vertex -3.400000 -0.252271 -0.121487
      vertex -3.400000 -0.280000 0.000000
    endloop
  endfacet
  facet normal 0.000000 0.974928 0.222521
    outer loop
      vertex -3.400000 -0.280000 0.000000
      vertex -3.400000 -0.252271 -0.121487
      vertex -13.900000 -0.252271 -0.121487
    endloop
  endfacet
  facet normal 0.000000 0.974928 0.222521
    outer loop
      vertex -3.400000 -0.280000 0.000000
      vertex -13.900000 -0.252271 -0.121487
      vertex -13.900000 -0.280000 0.000000
    endloop
  endfacet
  facet normal 1.000000 0.000000 0.000000
    outer loop
      vertex -13.900000 0.000000 0.000000
      vertex -13.900000 -0.252271 -0.121487
      vertex -13.900000 -0.174577 -0.218913
    endloop
  endfacet
  facet normal -1.000000 0.000000 0.000000
    outer loop
      vertex -3.400000 -0.000000 0.000000
      vertex -3.400000 -0.174577 -0.218913
      vertex -3.400000 -0.252271 -0.121487
    endloop
  endfacet
  facet normal 0.000000 0.781831 0.623490
    outer loop
      vertex -3.400000 -0.252271 -0.121487
      vertex -3.400000 -0.174577 -0.218913
      vertex -13.900000 -0.174577 -0.218913
    endloop
  endfacet
  facet normal 0.000000 0.781831 0.623490
    outer loop
      vertex -3.400000 -0.252271 -0.121487
      vertex -13.900000 -0.174577 -0.218913
      vertex -13.900000 -0.252271 -0.121487
    endloop
  endfacet
  facet normal 1.000000 0.000000 0.000000
    outer loop
      vertex -13.900000 0.000000 0.000000
      vertex -13.900000 -0.174577 -0.218913
      vertex -13.900000 -0.062306 -0.272980
    endloop
  endfacet
  facet normal -1.000000 0.000000 0.000000
    outer loop
      vertex -3.400000 -0.000000 0.000000
      vertex -3.400000 -0.062306 -0.272980
      vertex -3.400000 -0.174577 -0.218913
    endloop
  endfacet
  facet normal 0.000000 0.433884 0.900969
    outer loop
      vertex -3.400000 -0.174577 -0.218913
      vertex -3.400000 -0.062306 -0.272980
      vertex -13.900000 -0.062306 -0.272980
    endloop
  endfacet
  facet normal 0.000000 0.433884 0.900969
    outer loop
      vertex -3.400000 -0.174577 -0.218913
      vertex -13.900000 -0.062306 -0.272980
      vertex -13.900000 -0.174577 -0.218913
    endloop
  endfacet
  facet normal 1.000000 0.000000 0.000000
    outer loop
      vertex -13.900000 0.000000 0.000000
      vertex -13.900000 -0.062306 -0.272980
      vertex -13.900000 0.062306 -0.272980
    endloop
  endfacet
  facet normal -1.000000 0.000000 0.000000
    outer loop
      vertex -3.400000 -0.000000 0.000000
      vertex -3.400000 0.062306 -0.272980
      vertex -3.400000 -0.062306 -0.272980
    endloop
  endfacet
  facet normal 0.000000 0.000000 1.000000
    outer loop
      vertex -3.400000 -0.062306 -0.272980
      vertex -3.400000 0.062306 -0.272980
      vertex -13.900000 0.062306 -0.272980
    endloop
  endfacet
  facet normal 0.000000 0.000000 1.000000
    outer loop
      vertex -3.400000 -0.062306 -0.272980
      vertex -13.900000 0.062306 -0.272980
      vertex -13.900000 -0.062306 -0.272980
    endloop
  endfacet
  facet normal 1.000000 0.000000 0.000000
    outer loop
      vertex -13.900000 0.000000 0.000000
      vertex -13.900000 0.062306 -0.272980
      vertex -13.900000 0.174577 -0.218913
    endloop
  endfacet
  facet normal -1.000000 0.000000 0.000000
    outer loop
      vertex -3.400000 -0.000000 0.000000
      vertex -3.400000 0.174577 -0.218913
      vertex -3.400000 0.062306 -0.272980
    endloop
  endfacet
  facet normal -0.000000 -0.433884 0.900969
    outer loop
      vertex -3.400000 0.062306 -0.272980
      vertex -3.400000 0.174577 -0.218913
      vertex -13.900000 0.174577 -0.218913
    endloop
  endfacet
  facet normal -0.000000 -0.433884 0.900969
    outer loop
      vertex -3.400000 0.062306 -0.272980
      vertex -13.900000 0.174577 -0.218913
      vertex -13.900000 0.062306 -0.272980
    endloop
  endfacet
  facet normal 1.000000 0.000000 0.000000
    outer loop
      vertex -13.900000 0.000000 0.000000
      vertex -13.900000 0.174577 -0.218913
      vertex -13.900000 0.252271 -0.121487
    endloop
  endfacet
  facet normal -1.000000 0.000000 0.000000
    outer loop
      vertex -3.400000 -0.000000 0.000000
      vertex -3.400000 0.252271 -0.121487
      vertex -3.400000 0.174577 -0.218913
    endloop
  endfacet
  facet normal -0.000000 -0.781831 0.623490
    outer loop
      vertex -3.400000 0.174577 -0.218913
      vertex -3.400000 0.252271 -0.121487
      vertex -13.900000 0.252271 -0.121487
    endloop
  endfacet
  facet normal -0.000000 -0.781831 0.623490
    outer loop
      vertex -3.400000 0.174577 -0.218913
      vertex -13.900000 0.252271 -0.121487
      vertex -13.900000 0.174577 -0.218913
    endloop
  endfacet
  facet normal 1.000000 0.000000 0.000000
    outer loop
      vertex -13.900000 0.000000 0.000000
      vertex -13.900000 0.252271 -0.121487
      vertex -13.900000 0.280000 0.000000
    endloop
  endfacet
  facet normal -1.000000 0.000000 0.000000
    outer loop
      vertex -3.400000 -0.000000 0.000000
      vertex -3.400000 0.280000 0.000000
      vertex -3.400000 0.252271 -0.121487
    endloop
  endfacet
  facet normal -0.000000 -0.974928 0.222521
    outer loop
      vertex -3.400000 0.252271 -0.121487
      vertex -3.400000 0.280000 0.000000
      vertex -13.900000 0.280000 0.000000
    endloop
  endfacet
  facet normal -0.000000 -0.974928 0.222521
    outer loop
      vertex -3.400000 0.252271 -0.121487
      vertex -13.900000 0.280000 0.000000
      vertex -13.900000 0.252271 -0.121487
    endloop
  endfacet
  facet normal -1.000000 0.000000 0.000000
    outer loop
      vertex 13.900000 0.000000 0.000000
      vertex 13.900000 -0.280000 0.000000
      vertex 13.900000 -0.252271 0.121487
    endloop
  endfacet
  facet normal 1.000000 0.000000 0.000000
    outer loop
      vertex 3.400000 -0.000000 0.000000
      vertex 3.400000 -0.252271 0.121487
      vertex 3.400000 -0.280000 0.000000
    endloop
  endfacet
  facet normal -0.000000 0.974928 -0.222521
    outer loop
      vertex 3.400000 -0.280000 0.000000
      vertex 3.400000 -0.252271 0.121487
      vertex 13.900000 -0.252271 0.121487
    endloop
  endfacet
  facet normal -0.000000 0.974928 -0.222521
    outer loop
      vertex 3.400000 -0.280000 0.000000
      vertex 13.900000 -0.252271 0.121487
      vertex 13.900000 -0.280000 0.000000
    endloop
  endfacet
  facet normal -1.000000 0.000000 0.000000
    outer loop
      vertex 13.900000 0.000000 0.000000
      vertex 13.900000 -0.252271 0.121487
      vertex 13.900000 -0.174577 0.218913
    endloop
  endfacet
  facet normal 1.000000 0.000000 0.000000
    outer loop
      vertex 3.400000 -0.000000 0.000000
      vertex 3.400000 -0.174577 0.218913
      vertex 3.400000 -0.252271 0.121487
    endloop
  endfacet
  facet normal -0.000000 0.781831 -0.623490
    outer loop
      vertex 3.400000 -0.252271 0.121487
      vertex 3.400000 -0.174577 0.218913
      vertex 13.900000 -0.174577 0.218913
    endloop
  endfacet
  facet normal -0.000000 0.781831 -0.623490
    outer loop
      vertex 3.400000 -0.252271 0.121487
      vertex 13.900000 -0.174577 0.218913
      vertex 13.900000 -0.252271 0.121487
    endloop
  endfacet
  facet normal -1.000000 0.000000 0.000000
    outer loop
      vertex 13.900000 0.000000 0.000000
      vertex 13.900000 -0.174577 0.218913
      vertex 13.900000 -0.062306 0.272980
    endloop
  endfacet
  facet normal 1.000000 0.000000 0.000000
    outer loop
      vertex 3.400000 -0.000000 0.000000
      vertex 3.400000 -0.062306 0.272980
      vertex 3.400000 -0.174577 0.218913
    endloop
  endfacet
  facet normal -0.000000 0.433884 -0.900969
    outer loop
      vertex 3.400000 -0.174577 0.218913
      vertex 3.400000 -0.062306 0.272980
      vertex 13.900000 -0.062306 0.272980
    endloop
  endfacet
  facet normal -0.000000 0.433884 -0.900969
    outer loop
      vertex 3.400000 -0.174577 0.218913
      vertex 13.900000 -0.062306 0.272980
      vertex 13.900000 -0.174577 0.218913
    endloop
  endfacet
  facet normal -1.000000 0.000000 0.000000
    outer loop
      vertex 13.900000 0.000000 0.000000
      vertex 13.900000 -0.062306 0.272980
      vertex 13.900000 0.062306 0.272980
    endloop
  endfacet
  facet normal 1.000000 0.000000 0.000000
    outer loop
      vertex 3.400000 -0.000000 0.000000
      vertex 3.400000 0.062306 0.272980
      vertex 3.400000 -0.062306 0.272980
    endloop
  endfacet
  facet normal 0.000000 0.000000 -1.000000
    outer loop
      vertex 3.400000 -0.062306 0.272980
      vertex 3.400000 0.062306 0.272980
      vertex 13.900000 0.062306 0.272980
    endloop
  endfacet
  facet normal 0.000000 0.000000 -1.000000
    outer loop
      vertex 3.400000 -0.062306 0.272980
      vertex 13.900000 0.062306 0.272980
      vertex 13.900000 -0.062306 0.272980
    endloop
  endfacet
  facet normal -1.000000 0.000000 0.000000
    outer loop
      vertex 13.900000 0.000000 0.000000
      vertex 13.900000 0.062306 0.272980
      vertex 13.900000 0.174577 0.218913
    endloop
  endfacet
  facet normal 1.000000 0.000000 0.000000
    outer loop
      vertex 3.400000 -0.000000 0.000000
      vertex 3.400000 0.174577 0.218913
      vertex 3.400000 0.062306 0.272980
    endloop
  endfacet
  facet normal 0.000000 -0.433884 -0.900969
    outer loop
      vertex 3.400000 0.062306 0.272980
      vertex 3.400000 0.174577 0.218913
      vertex 13.900000 0.174577 0.218913
    endloop
  endfacet
  facet normal 0.000000 -0.433884 -0.900969
    outer loop
      vertex 3.400000 0.062306 0.272980
      vertex 13.900000 0.174577 0.218913
      vertex 13.900000 0.062306 0.272980
    endloop
  endfacet
  facet normal -1.000000 0.000000 0.000000
    outer loop
      vertex 13.900000 0.000000 0.000000
      vertex 13.900000 0.174577 0.218913
      vertex 13.900000 0.252271 0.121487
    endloop
  endfacet
  facet normal 1.000000 0.000000 0.000000
    outer loop
      vertex 3.400000 -0.000000 0.000000
      vertex 3.400000 0.252271 0.121487
      vertex 3.400000 0.174577 0.218913
    endloop
  endfacet
  facet normal 0.000000 -0.781831 -0.623490
    outer loop
      vertex 3.400000 0.174577 0.218913
      vertex 3.400000 0.252271 0.121487
      vertex 13.900000 0.252271 0.121487
    endloop
  endfacet
  facet normal 0.000000 -0.781831 -0.623490
    outer loop
      vertex 3.400000 0.174577 0.218913
      vertex 13.900000 0.252271 0.121487
      vertex 13.900000 0.174577 0.218913
    endloop
  endfacet
  facet normal -1.000000 0.000000 0.000000
    outer loop
      vertex 13.900000 0.000000 0.000000
      vertex 13.900000 0.252271 0.121487
      vertex 13.900000 0.280000 0.000000
    endloop
  endfacet
  facet normal 1.000000 0.000000 0.000000
    outer loop
      vertex 3.400000 -0.000000 0.000000
      vertex 3.400000 0.280000 0.000000
      vertex 3.400000 0.252271 0.121487
    endloop
  endfacet
  facet normal 0.000000 -0.974928 -0.222521
    outer loop
      vertex 3.400000 0.252271 0.121487
      vertex 3.400000 0.280000 0.000000
      vertex 13.900000 0.280000 0.000000
    endloop
  endfacet
  facet normal 0.000000 -0.974928 -0.222521
    outer loop
      vertex 3.400000 0.252271 0.121487
      vertex 13.900000 0.280000 0.000000
      vertex 13.900000 0.252271 0.121487
    endloop
  endfacet
  facet normal -1.000000 0.000000 0.000000
    outer loop
      vertex 13.900000 0.000000 0.000000
      vertex 13.900000 0.280000 0.000000
      vertex 13.900000 0.252271 -0.121487
    endloop
  endfacet
  facet normal 1.000000 0.000000 0.000000
    outer loop
      vertex 3.400000 -0.000000 0.000000
      vertex 3.400000 0.252271 -0.121487
      vertex 3.400000 0.280000 0.000000
    endloop
  endfacet
  facet normal 0.000000 -0.974928 0.222521
    outer loop
      vertex 3.400000 0.280000 0.000000
      vertex 3.400000 0.252271 -0.121487
      vertex 13.900000 0.252271 -0.121487
    endloop
  endfacet
  facet normal 0.000000 -0.974928 0.222521
    outer loop
      vertex 3.400000 0.280000 0.000000
      vertex 13.900000 0.252271 -0.121487
      vertex 13.900000 0.280000 0.000000
    endloop
  endfacet
  facet normal -1.000000 0.000000 0.000000
    outer loop
      vertex 13.900000 0.000000 0.000000
      vertex 13.900000 0.252271 -0.121487
      vertex 13.900000 0.174577 -0.218913
    endloop
  endfacet
  facet normal 1.000000 0.000000 0.000000
    outer loop
      vertex 3.400000 -0.000000 0.000000
      vertex 3.400000 0.174577 -0.218913
      vertex 3.400000 0.252271 -0.121487
    endloop
  endfacet
  facet normal 0.000000 -0.781831 0.623490
    outer loop
      vertex 3.400000 0.252271 -0.121487
      vertex 3.400000 0.174577 -0.218913
      vertex 13.900000 0.174577 -0.218913
    endloop
  endfacet
  facet normal 0.000000 -0.781831 0.623490
    outer loop
      vertex 3.400000 0.252271 -0.121487
      vertex 13.900000 0.174577 -0.218913
      vertex 13.900000 0.252271 -0.121487
    endloop
  endfacet
  facet normal -1.000000 0.000000 0.000000
    outer loop
      vertex 13.900000 0.000000 0.000000
      vertex 13.900000 0.174577 -0.218913
      vertex 13.900000 0.062306 -0.272980
    endloop
  endfacet
  facet normal 1.000000 0.000000 0.000000
    outer loop
      vertex 3.400000 -0.000000 0.000000
      vertex 3.400000 0.062306 -0.272980
      vertex 3.400000 0.174577 -0.218913
    endloop
  endfacet
  facet normal 0.000000 -0.433884 0.900969
    outer loop
      vertex 3.400000 0.174577 -0.218913
      vertex 3.400000 0.062306 -0.272980
      vertex 13.900000 0.062306 -0.272980
    endloop
  endfacet
  facet normal 0.000000 -0.433884 0.900969
    outer loop
      vertex 3.400000 0.174577 -0.218913
      vertex 13.900000 0.062306 -0.272980
      vertex 13.900000 0.174577 -0.218913
    endloop
  endfacet
  facet normal -1.000000 0.000000 0.000000
    outer loop
      vertex 13.900000 0.000000 0.000000
      vertex 13.900000 0.062306 -0.272980
      vertex 13.900000 -0.062306 -0.272980
    endloop
  endfacet
  facet normal 1.000000 0.000000 0.000000
    outer loop
      vertex 3.400000 -0.000000 0.000000
      vertex 3.400000 -0.062306 -0.272980
      vertex 3.400000 0.062306 -0.272980
    endloop
  endfacet
  facet normal 0.000000 0.000000 1.000000
    outer loop
      vertex 3.400000 0.062306 -0.272980
      vertex 3.400000 -0.062306 -0.272980
      vertex 13.900000 -0.062306 -0.272980
    endloop
  endfacet
  facet normal 0.000000 0.000000 1.000000
    outer loop
      vertex 3.400000 0.062306 -0.272980
      vertex 13.900000 -0.062306 -0.272980
      vertex 13.900000 0.062306 -0.272980
    endloop
  endfacet
  facet normal -1.000000 0.000000 0.000000
    outer loop
      vertex 13.900000 0.000000 0.000000
      vertex 13.900000 -0.062306 -0.272980
      vertex 13.900000 -0.174577 -0.218913
    endloop
  endfacet
  facet normal 1.000000 0.000000 0.000000
    outer loop
      vertex 3.400000 -0.000000 0.000000
      vertex 3.400000 -0.174577 -0.218913
      vertex 3.400000 -0.062306 -0.272980
    endloop
  endfacet
  facet normal -0.000000 0.433884 0.900969
    outer loop
      vertex 3.400000 -0.062306 -0.272980
      vertex 3.400000 -0.174577 -0.218913
      vertex 13.900000 -0.174577 -0.218913
    endloop
  endfacet
  facet normal -0.000000 0.433884 0.900969
    outer loop
      vertex 3.400000 -0.062306 -0.272980
      vertex 13.900000 -0.174577 -0.218913
      vertex 13.900000 -0.062306 -0.272980
    endloop
  endfacet
  facet normal -1.000000 0.000000 0.000000
    outer loop
      vertex 13.900000 0.000000 0.000000
      vertex 13.900000 -0.174577 -0.218913
      vertex 13.900000 -0.252271 -0.121487
    endloop
  endfacet
  facet normal 1.000000 0.000000 0.000000
    outer loop
      vertex 3.400000 -0.000000 0.000000
      vertex 3.400000 -0.252271 -0.121487
      vertex 3.400000 -0.174577 -0.218913
    endloop
  endfacet
  facet normal -0.000000 0.781831 0.623490
    outer loop
      vertex 3.400000 -0.174577 -0.218913
      vertex 3.400000 -0.252271 -0.121487
      vertex 13.900000 -0.252271 -0.121487
    endloop
  endfacet
  facet normal -0.000000 0.781831 0.623490
    outer loop
      vertex 3.400000 -0.174577 -0.218913
      vertex 13.900000 -0.252271 -0.121487
      vertex 13.900000 -0.174577 -0.218913
    endloop
  endfacet
  facet normal -1.000000 0.000000 0.000000
    outer loop
      vertex 13.900000 0.000000 0.000000
      vertex 13.900000 -0.252271 -0.121487
      vertex 13.900000 -0.280000 0.000000
    endloop
  endfacet
  facet normal 1.000000 0.000000 0.000000
    outer loop
      vertex 3.400000 -0.000000 0.000000
      vertex 3.400000 -0.280000 0.000000
      vertex 3.400000 -0.252271 -0.121487
    endloop
  endfacet
  facet normal -0.000000 0.974928 0.222521
    outer loop
      vertex 3.400000 -0.252271 -0.121487
      vertex 3.400000 -0.280000 0.000000
      vertex 13.900000 -0.280000 0.000000
    endloop
  endfacet
  facet normal -0.000000 0.974928 0.222521
    outer loop
      vertex 3.400000 -0.252271 -0.121487
      vertex 13.900000 -0.280000 0.000000
      vertex 13.900000 -0.252271 -0.121487
    endloop
  endfacet
  facet normal 1.000000 0.000000 0.000000
    outer loop
      vertex -2.600000 0.000000 0.000000
      vertex -2.600000 1.350000 0.000000
      vertex -2.600000 1.304000 0.349406
    endloop
  endfacet
  facet normal -1.000000 0.000000 0.000000
    outer loop
      vertex 2.600000 -0.000000 0.000000
      vertex 2.600000 1.304000 0.349406
      vertex 2.600000 1.350000 0.000000
    endloop
  endfacet
  facet normal -0.000000 -0.991445 -0.130526
    outer loop
      vertex 2.600000 1.350000 0.000000
      vertex 2.600000 1.304000 0.349406
      vertex -2.600000 1.304000 0.349406
    endloop
  endfacet
  facet normal -0.000000 -0.991445 -0.130526
    outer loop
      vertex 2.600000 1.350000 0.000000
      vertex -2.600000 1.304000 0.349406
      vertex -2.600000 1.350000 0.000000
    endloop
  endfacet
  facet normal 1.000000 0.000000 0.000000
    outer loop
      vertex -2.600000 0.000000 0.000000
      vertex -2.600000 1.304000 0.349406
      vertex -2.600000 1.169134 0.675000
    endloop
  endfacet
  facet normal -1.000000 0.000000 0.000000
    outer loop
      vertex 2.600000 -0.000000 0.000000
      vertex 2.600000 1.169134 0.675000
      vertex 2.600000 1.304000 0.349406
    endloop
  endfacet
  facet normal -0.000000 -0.923880 -0.382683
    outer loop
      vertex 2.600000 1.304000 0.349406
      vertex 2.600000 1.169134 0.675000
      vertex -2.600000 1.169134 0.675000
    endloop
  endfacet
  facet normal -0.000000 -0.923880 -0.382683
    outer loop
      vertex 2.600000 1.304000 0.349406
      vertex -2.600000 1.169134 0.675000
      vertex -2.600000 1.304000 0.349406
    endloop
  endfacet
  facet normal 1.000000 0.000000 0.000000
    outer loop
      vertex -2.600000 0.000000 0.000000
      vertex -2.600000 1.169134 0.675000
      vertex -2.600000 0.954594 0.954594
    endloop
  endfacet
  facet normal -1.000000 0.000000 0.000000
    outer loop
      vertex 2.600000 -0.000000 0.000000
      vertex 2.600000 0.954594 0.954594
      vertex 2.600000 1.169134 0.675000
    endloop
  endfacet
  facet normal -0.000000 -0.793353 -0.608761
    outer loop
      vertex 2.600000 1.169134 0.675000
      vertex 2.600000 0.954594 0.954594
      vertex -2.600000 0.954594 0.954594
    endloop
  endfacet
  facet normal -0.000000 -0.793353 -0.608761
    outer loop
      vertex 2.600000 1.169134 0.675000
      vertex -2.600000 0.954594 0.954594
      vertex -2.600000 1.169134 0.675000
    endloop
  endfacet
  facet normal 1.000000 0.000000 0.000000
    outer loop
      vertex -2.600000 0.000000 0.000000
      vertex -2.600000 0.954594 0.954594
      vertex -2.600000 0.675000 1.169134
    endloop
  endfacet
  facet normal -1.000000 0.000000 0.000000
    outer loop
      vertex 2.600000 -0.000000 0.000000
      vertex 2.600000 0.675000 1.169134
      vertex 2.600000 0.954594 0.954594
    endloop
  endfacet
  facet normal -0.000000 -0.608761 -0.793353
    outer loop
      vertex 2.600000 0.954594 0.954594
      vertex 2.600000 0.675000 1.169134
      vertex -2.600000 0.675000 1.169134
    endloop
  endfacet
  facet normal -0.000000 -0.608761 -0.793353
    outer loop
      vertex 2.600000 0.954594 0.954594
      vertex -2.600000 0.675000 1.169134
      vertex -2.600000 0.954594 0.954594
    endloop
  endfacet
  facet normal 1.000000 0.000000 0.000000
    outer loop
      vertex -2.600000 0.000000 0.000000
      vertex -2.600000 0.675000 1.169134
      vertex -2.600000 0.349406 1.304000
    endloop
  endfacet
  facet normal -1.000000 0.000000 0.000000
    outer loop
      vertex 2.600000 -0.000000 0.000000
      vertex 2.600000 0.349406 1.304000
      vertex 2.600000 0.675000 1.169134
    endloop
  endfacet
  facet normal -0.000000 -0.382683 -0.923880
    outer loop
      vertex 2.600000 0.675000 1.169134
      vertex 2.600000 0.349406 1.304000
      vertex -2.600000 0.349406 1.304000
    endloop
  endfacet
  facet normal -0.000000 -0.382683 -0.923880
    outer loop
      vertex 2.600000 0.675000 1.169134
      vertex -2.600000 0.349406 1.304000
      vertex -2.600000 0.675000 1.169134
    endloop
  endfacet
  facet normal 1.000000 0.000000 0.000000
    outer loop
      vertex -2.600000 0.000000 0.000000
      vertex -2.600000 0.349406 1.304000
      vertex -2.600000 0.000000 1.350000
    endloop
  endfacet
  facet normal -1.000000 0.000000 0.000000
    outer loop
      vertex 2.600000 -0.000000 0.000000
      vertex 2.600000 -0.000000 1.350000
      vertex 2.600000 0.349406 1.304000
    endloop
  endfacet
  facet normal -0.000000 -0.130526 -0.991445
    outer loop
      vertex 2.600000 0.349406 1.304000
      vertex 2.600000 -0.000000 1.350000
      vertex -2.600000 0.000000 1.350000
    endloop
  endfacet
  facet normal -0.000000 -0.130526 -0.991445
    outer loop
      vertex 2.600000 0.349406 1.304000
      vertex -2.600000 0.000000 1.350000
      vertex -2.600000 0.349406 1.304000
    endloop
  endfacet
  facet normal 1.000000 0.000000 0.000000
    outer loop
      vertex -2.600000 0.000000 0.000000
      vertex -2.600000 0.000000 1.350000
      vertex -2.600000 -0.349406 1.304000
    endloop
  endfacet
  facet normal -1.000000 0.000000 0.000000
    outer loop
      vertex 2.600000 -0.000000 0.000000
      vertex 2.600000 -0.349406 1.304000
      vertex 2.600000 -0.000000 1.350000
    endloop
  endfacet
  facet normal 0.000000 0.130526 -0.991445
    outer loop
      vertex 2.600000 -0.000000 1.350000
      vertex 2.600000 -0.349406 1.304000
      vertex -2.600000 -0.349406 1.304000
    endloop
  endfacet
  facet normal 0.000000 0.130526 -0.991445
    outer loop
      vertex 2.600000 -0.000000 1.350000
      vertex -2.600000 -0.349406 1.304000
      vertex -2.600000 0.000000 1.350000
    endloop
  endfacet
  facet normal 1.000000 0.000000 0.000000
    outer loop
      vertex -2.600000 0.000000 0.000000
      vertex -2.600000 -0.349406 1.304000
      vertex -2.600000 -0.675000 1.169134
    endloop
  endfacet
  facet normal -1.000000 0.000000 0.000000
    outer loop
      vertex 2.600000 -0.000000 0.000000
      vertex 2.600000 -0.675000 1.169134
      vertex 2.600000 -0.349406 1.304000
    endloop
  endfacet
  facet normal 0.000000 0.382683 -0.923880
    outer loop
      vertex 2.600000 -0.349406 1.304000
      vertex 2.600000 -0.675000 1.169134
      vertex -2.600000 -0.675000 1.169134
    endloop
  endfacet
  facet normal 0.000000 0.382683 -0.923880
    outer loop
      vertex 2.600000 -0.349406 1.304000
      vertex -2.600000 -0.675000 1.169134
      vertex -2.600000 -0.349406 1.304000
    endloop
  endfacet
  facet normal 1.000000 0.000000 0.000000
    outer loop
      vertex -2.600000 0.000000 0.000000
      vertex -2.600000 -0.675000 1.169134
      vertex -2.600000 -0.954594 0.954594
    endloop
  endfacet
  facet normal -1.000000 0.000000 0.000000
    outer loop
      vertex 2.600000 -0.000000 0.000000
      vertex 2.600000 -0.954594 0.954594
      vertex 2.600000 -0.675000 1.169134
    endloop
  endfacet
  facet normal 0.000000 0.608761 -0.793353
    outer loop
      vertex 2.600000 -0.675000 1.169134
      vertex 2.600000 -0.954594 0.954594
      vertex -2.600000 -0.954594 0.954594
    endloop
  endfacet
  facet normal 0.000000 0.608761 -0.793353
    outer loop
      vertex 2.600000 -0.675000 1.169134
      vertex -2.600000 -0.954594 0.954594
      vertex -2.600000 -0.675000 1.169134
    endloop
  endfacet
  facet normal 1.000000 0.000000 0.000000
    outer loop
      vertex -2.600000 0.000000 0.000000
      vertex -2.600000 -0.954594 0.954594
      vertex -2.600000 -1.169134 0.675000
    endloop
  endfacet
  facet normal -1.000000 0.000000 0.000000
    outer loop
      vertex 2.600000 -0.000000 0.000000
      vertex 2.600000 -1.169134 0.675000
      vertex 2.600000 -0.954594 0.954594
    endloop
  endfacet
  facet normal 0.000000 0.793353 -0.608761
    outer loop
      vertex 2.600000 -0.954594 0.954594
      vertex 2.600000 -1.169134 0.675000
      vertex -2.600000 -1.169134 0.675000
    endloop
  endfacet
  facet normal 0.000000 0.793353 -0.608761
    outer loop
      vertex 2.600000 -0.954594 0.954594
      vertex -2.600000 -1.169134 0.675000
      vertex -2.600000 -0.954594 0.954594
    endloop
  endfacet
  facet normal 1.000000 0.000000 0.000000
    outer loop
      vertex -2.600000 0.000000 0.000000
      vertex -2.600000 -1.169134 0.675000
      vertex -2.600000 -1.304000 0.349406
    endloop
  endfacet
  facet normal -1.000000 0.000000 0.000000
    outer loop
      vertex 2.600000 -0.000000 0.000000
      vertex 2.600000 -1.304000 0.349406
      vertex 2.600000 -1.169134 0.675000
    endloop
  endfacet
  facet normal 0.000000 0.923880 -0.382683
    outer loop
      vertex 2.600000 -1.169134 0.675000
      vertex 2.600000 -1.304000 0.349406
      vertex -2.600000 -1.304000 0.349406
    endloop
  endfacet
  facet normal 0.000000 0.923880 -0.382683
    outer loop
      vertex 2.600000 -1.169134 0.675000
      vertex -2.600000 -1.304000 0.349406
      vertex -2.600000 -1.169134 0.675000
    endloop
  endfacet
  facet normal 1.000000 0.000000 0.000000
    outer loop
      vertex -2.600000 0.000000 0.000000
      vertex -2.600000 -1.304000 0.349406
      vertex -2.600000 -1.350000 0.000000
    endloop
  endfacet
  facet normal -1.000000 0.000000 0.000000
    outer loop
      vertex 2.600000 -0.000000 0.000000
      vertex 2.600000 -1.350000 0.000000
      vertex 2.600000 -1.304000 0.349406
    endloop
  endfacet
  facet normal 0.000000 0.991445 -0.130526
    outer loop
      vertex 2.600000 -1.304000 0.349406
      vertex 2.600000 -1.350000 0.000000
      vertex -2.600000 -1.350000 0.000000
    endloop
  endfacet
  facet normal 0.000000 0.991445 -0.130526
    outer loop
      vertex 2.600000 -1.304000 0.349406
      vertex -2.600000 -1.350000 0.000000
      vertex -2.600000 -1.304000 0.349406
    endloop
  endfacet
  facet normal 1.000000 0.000000 0.000000
    outer loop
      vertex -2.600000 0.000000 0.000000
      vertex -2.600000 -1.350000 0.000000
      vertex -2.600000 -1.304000 -0.349406
    endloop
  endfacet
  facet normal -1.000000 0.000000 0.000000
    outer loop
      vertex 2.600000 -0.000000 0.000000
      vertex 2.600000 -1.304000 -0.349406
      vertex 2.600000 -1.350000 0.000000
    endloop
  endfacet
  facet normal 0.000000 0.991445 0.130526
    outer loop
      vertex 2.600000 -1.350000 0.000000
      vertex 2.600000 -1.304000 -0.349406
      vertex -2.600000 -1.304000 -0.349406
    endloop
  endfacet
  facet normal 0.000000 0.991445 0.130526
    outer loop
      vertex 2.600000 -1.350000 0.000000
      vertex -2.600000 -1.304000 -0.349406
      vertex -2.600000 -1.350000 0.000000
    endloop
  endfacet
  facet normal 1.000000 0.000000 0.000000
    outer loop
      vertex -2.600000 0.000000 0.000000
      vertex -2.600000 -1.304000 -0.349406
      vertex -2.600000 -1.169134 -0.675000
    endloop
  endfacet
  facet normal -1.000000 0.000000 0.000000
    outer loop
      vertex 2.600000 -0.000000 0.000000
      vertex 2.600000 -1.169134 -0.675000
      vertex 2.600000 -1.304000 -0.349406
    endloop
  endfacet
  facet normal 0.000000 0.923880 0.382683
    outer loop
      vertex 2.600000 -1.304000 -0.349406
      vertex 2.600000 -1.169134 -0.675000
      vertex -2.600000 -1.169134 -0.675000
    endloop
  endfacet
  facet normal 0.000000 0.923880 0.382683
    outer loop
      vertex 2.600000 -1.304000 -0.349406
      vertex -2.600000 -1.169134 -0.675000
      vertex -2.600000 -1.304000 -0.349406
    endloop
  endfacet
  facet normal 1.000000 0.000000 0.000000
    outer loop
      vertex -2.600000 0.000000 0.000000
      vertex -2.600000 -1.169134 -0.675000
      vertex -2.600000 -0.954594 -0.954594
    endloop
  endfacet
  facet normal -1.000000 0.000000 0.000000
    outer loop
      vertex 2.600000 -0.000000 0.000000
      vertex 2.600000 -0.954594 -0.954594
      vertex 2.600000 -1.169134 -0.675000
    endloop
  endfacet
  facet normal 0.000000 0.793353 0.608761
    outer loop
      vertex 2.600000 -1.169134 -0.675000
      vertex 2.600000 -0.954594 -0.954594
      vertex -2.600000 -0.954594 -0.954594
    endloop
  endfacet
  facet normal 0.000000 0.793353 0.608761
    outer loop
      vertex 2.600000 -1.169134 -0.675000
      vertex -2.600000 -0.954594 -0.954594
      vertex -2.600000 -1.169134 -0.675000
    endloop
  endfacet
  facet normal 1.000000 0.000000 0.000000
    outer loop
      vertex -2.600000 0.000000 0.000000
      vertex -2.600000 -0.954594 -0.954594
      vertex -2.600000 -0.675000 -1.169134
    endloop
  endfacet
  facet normal -1.000000 0.000000 0.000000
    outer loop
      vertex 2.600000 -0.000000 0.000000
      vertex 2.600000 -0.675000 -1.169134
      vertex 2.600000 -0.954594 -0.954594
    endloop
  endfacet
  facet normal 0.000000 0.608761 0.793353
    outer loop
      vertex 2.600000 -0.954594 -0.954594
      vertex 2.600000 -0.675000 -1.169134
      vertex -2.600000 -0.675000 -1.169134
    endloop
  endfacet
  facet normal 0.000000 0.608761 0.793353
    outer loop
      vertex 2.600000 -0.954594 -0.954594
      vertex -2.600000 -0.675000 -1.169134
      vertex -2.600000 -0.954594 -0.954594
    endloop
  endfacet
  facet normal 1.000000 0.000000 0.000000
    outer loop
      vertex -2.600000 0.000000 0.000000
      vertex -2.600000 -0.675000 -1.169134
      vertex -2.600000 -0.349406 -1.304000
    endloop
  endfacet
  facet normal -1.000000 0.000000 0.000000
    outer loop
      vertex 2.600000 -0.000000 0.000000
      vertex 2.600000 -0.349406 -1.304000
      vertex 2.600000 -0.675000 -1.169134
    endloop
  endfacet
  facet normal 0.000000 0.382683 0.923880
    outer loop
      vertex 2.600000 -0.675000 -1.169134
      vertex 2.600000 -0.349406 -1.304000
      vertex -2.600000 -0.349406 -1.304000
    endloop
  endfacet
  facet normal 0.000000 0.382683 0.923880
    outer loop
      vertex 2.600000 -0.675000 -1.169134
      vertex -2.600000 -0.349406 -1.304000
      vertex -2.600000 -0.675000 -1.169134
    endloop
  endfacet
  facet normal 1.000000 0.000000 0.000000
    outer loop
      vertex -2.600000 0.000000 0.000000
      vertex -2.600000 -0.349406 -1.304000
      vertex -2.600000 -0.000000 -1.350000
    endloop
  endfacet
  facet normal -1.000000 0.000000 0.000000
    outer loop
      vertex 2.600000 -0.000000 0.000000
      vertex 2.600000 -0.000000 -1.350000
      vertex 2.600000 -0.349406 -1.304000
    endloop
  endfacet
  facet normal 0.000000 0.130526 0.991445
    outer loop
      vertex 2.600000 -0.349406 -1.304000
      vertex 2.600000 -0.000000 -1.350000
      vertex -2.600000 -0.000000 -1.350000
    endloop
  endfacet
  facet normal 0.000000 0.130526 0.991445
    outer loop
      vertex 2.600000 -0.349406 -1.304000
      vertex -2.600000 -0.000000 -1.350000
      vertex -2.600000 -0.349406 -1.304000
    endloop
  endfacet
  facet normal 1.000000 0.000000 0.000000
    outer loop
      vertex -2.600000 0.000000 0.000000
      vertex -2.600000 -0.000000 -1.350000
      vertex -2.600000 0.349406 -1.304000
    endloop
  endfacet
  facet normal -1.000000 0.000000 0.000000
    outer loop
      vertex 2.600000 -0.000000 0.000000
      vertex 2.600000 0.349406 -1.304000
      vertex 2.600000 -0.000000 -1.350000
    endloop
  endfacet
  facet normal -0.000000 -0.130526 0.991445
    outer loop
      vertex 2.600000 -0.000000 -1.350000
      vertex 2.600000 0.349406 -1.304000
      vertex -2.600000 0.349406 -1.304000
    endloop
  endfacet
  facet normal -0.000000 -0.130526 0.991445
    outer loop
      vertex 2.600000 -0.000000 -1.350000
      vertex -2.600000 0.349406 -1.304000
      vertex -2.600000 -0.000000 -1.350000
    endloop
  endfacet
  facet normal 1.000000 0.000000 0.000000
    outer loop
      vertex -2.600000 0.000000 0.000000
      vertex -2.600000 0.349406 -1.304000
      vertex -2.600000 0.675000 -1.169134
    endloop
  endfacet
  facet normal -1.000000 0.000000 0.000000
    outer loop
      vertex 2.600000 -0.000000 0.000000
      vertex 2.600000 0.675000 -1.169134
      vertex 2.600000 0.349406 -1.304000
    endloop
  endfacet
  facet normal -0.000000 -0.382683 0.923880
    outer loop
      vertex 2.600000 0.349406 -1.304000
      vertex 2.600000 0.675000 -1.169134
      vertex -2.600000 0.675000 -1.169134
    endloop
  endfacet
  facet normal -0.000000 -0.382683 0.923880
    outer loop
      vertex 2.600000 0.349406 -1.304000
      vertex -2.600000 0.675000 -1.169134
      vertex -2.600000 0.349406 -1.304000
    endloop
  endfacet
  facet normal 1.000000 0.000000 0.000000
    outer loop
      vertex -2.600000 0.000000 0.000000
      vertex -2.600000 0.675000 -1.169134
      vertex -2.600000 0.954594 -0.954594
    endloop
  endfacet
  facet normal -1.000000 0.000000 0.000000
    outer loop
      vertex 2.600000 -0.000000 0.000000
      vertex 2.600000 0.954594 -0.954594
      vertex 2.600000 0.675000 -1.169134
    endloop
  endfacet
  facet normal -0.000000 -0.608761 0.793353
    outer loop
      vertex 2.600000 0.675000 -1.169134
      vertex 2.600000 0.954594 -0.954594
      vertex -2.600000 0.954594 -0.954594
    endloop
  endfacet
  facet normal -0.000000 -0.608761 0.793353
    outer loop
      vertex 2.600000 0.675000 -1.169134
      vertex -2.600000 0.954594 -0.954594
      vertex -2.600000 0.675000 -1.169134
    endloop
  endfacet
  facet normal 1.000000 0.000000 0.000000
    outer loop
      vertex -2.600000 0.000000 0.000000
      vertex -2.600000 0.954594 -0.954594
      vertex -2.600000 1.169134 -0.675000
    endloop
  endfacet
  facet normal -1.000000 0.000000 0.000000
    outer loop
      vertex 2.600000 -0.000000 0.000000
      vertex 2.600000 1.169134 -0.675000
      vertex 2.600000 0.954594 -0.954594
    endloop
  endfacet
  facet normal -0.000000 -0.793353 0.608761
    outer loop
      vertex 2.600000 0.954594 -0.954594
      vertex 2.600000 1.169134 -0.675000
      vertex -2.600000 1.169134 -0.675000
    endloop
  endfacet
  facet normal -0.000000 -0.793353 0.608761
    outer loop
      vertex 2.600000 0.954594 -0.954594
      vertex -2.600000 1.169134 -0.675000
      vertex -2.600000 0.954594 -0.954594
    endloop
  endfacet
  facet normal 1.000000 0.000000 0.000000
    outer loop
      vertex -2.600000 0.000000 0.000000
      vertex -2.600000 1.169134 -0.675000
      vertex -2.600000 1.304000 -0.349406
    endloop
  endfacet
  facet normal -1.000000 0.000000 0.000000
    outer loop
      vertex 2.600000 -0.000000 0.000000
      vertex 2.600000 1.304000 -0.349406
      vertex 2.600000 1.169134 -0.675000
    endloop
  endfacet
  facet normal -0.000000 -0.923880 0.382683
    outer loop
      vertex 2.600000 1.169134 -0.675000
      vertex 2.600000 1.304000 -0.349406
      vertex -2.600000 1.304000 -0.349406
    endloop
  endfacet
  facet normal -0.000000 -0.923880 0.382683
    outer loop
      vertex 2.600000 1.169134 -0.675000
      vertex -2.600000 1.304000 -0.349406
      vertex -2.600000 1.169134 -0.675000
    endloop
  endfacet
  facet normal 1.000000 0.000000 0.000000
    outer loop
      vertex -2.600000 0.000000 0.000000
      vertex -2.600000 1.304000 -0.349406
      vertex -2.600000 1.350000 0.000000
    endloop
  endfacet
  facet normal -1.000000 0.000000 0.000000
    outer loop
      vertex 2.600000 -0.000000 0.000000
      vertex 2.600000 1.350000 0.000000
      vertex 2.600000 1.304000 -0.349406
    endloop
  endfacet
  facet normal -0.000000 -0.991445 0.130526
    outer loop
      vertex 2.600000 1.304000 -0.349406
      vertex 2.600000 1.350000 0.000000
      vertex -2.600000 1.350000 0.000000
    endloop
  endfacet
  facet normal -0.000000 -0.991445 0.130526
    outer loop
      vertex 2.600000 1.304000 -0.349406
      vertex -2.600000 1.350000 0.000000
      vertex -2.600000 1.304000 -0.349406
    endloop
  endfacet
  facet normal 1.000000 0.000000 0.000000
    outer loop
      vertex 1.770000 0.000000 0.000000
      vertex 1.770000 1.420000 0.000000
      vertex 1.770000 1.371615 0.367523
    endloop
  endfacet
  facet normal -1.000000 0.000000 0.000000
    outer loop
      vertex 2.230000 -0.000000 0.000000
      vertex 2.230000 1.371615 0.367523
      vertex 2.230000 1.420000 0.000000
    endloop
  endfacet
  facet normal 0.000000 -0.991445 -0.130526
    outer loop
      vertex 2.230000 1.420000 0.000000
      vertex 2.230000 1.371615 0.367523
      vertex 1.770000 1.371615 0.367523
    endloop
  endfacet
  facet normal 0.000000 -0.991445 -0.130526
    outer loop
      vertex 2.230000 1.420000 0.000000
      vertex 1.770000 1.371615 0.367523
      vertex 1.770000 1.420000 0.000000
    endloop
  endfacet
  facet normal 1.000000 0.000000 0.000000
    outer loop
      vertex 1.770000 0.000000 0.000000
      vertex 1.770000 1.371615 0.367523
      vertex 1.770000 1.229756 0.710000
    endloop
  endfacet
  facet normal -1.000000 0.000000 0.000000
    outer loop
      vertex 2.230000 -0.000000 0.000000
      vertex 2.230000 1.229756 0.710000
      vertex 2.230000 1.371615 0.367523
    endloop
  endfacet
  facet normal 0.000000 -0.923880 -0.382683
    outer loop
      vertex 2.230000 1.371615 0.367523
      vertex 2.230000 1.229756 0.710000
      vertex 1.770000 1.229756 0.710000
    endloop
  endfacet
  facet normal 0.000000 -0.923880 -0.382683
    outer loop
      vertex 2.230000 1.371615 0.367523
      vertex 1.770000 1.229756 0.710000
      vertex 1.770000 1.371615 0.367523
    endloop
  endfacet
  facet normal 1.000000 0.000000 0.000000
    outer loop
      vertex 1.770000 0.000000 0.000000
      vertex 1.770000 1.229756 0.710000
      vertex 1.770000 1.004092 1.004092
    endloop
  endfacet
  facet normal -1.000000 0.000000 0.000000
    outer loop
      vertex 2.230000 -0.000000 0.000000
      vertex 2.230000 1.004092 1.004092
      vertex 2.230000 1.229756 0.710000
    endloop
  endfacet
  facet normal 0.000000 -0.793353 -0.608761
    outer loop
      vertex 2.230000 1.229756 0.710000
      vertex 2.230000 1.004092 1.004092
      vertex 1.770000 1.004092 1.004092
    endloop
  endfacet
  facet normal 0.000000 -0.793353 -0.608761
    outer loop
      vertex 2.230000 1.229756 0.710000
      vertex 1.770000 1.004092 1.004092
      vertex 1.770000 1.229756 0.710000
    endloop
  endfacet
  facet normal 1.000000 0.000000 0.000000
    outer loop
      vertex 1.770000 0.000000 0.000000
      vertex 1.770000 1.004092 1.004092
      vertex 1.770000 0.710000 1.229756
    endloop
  endfacet
  facet normal -1.000000 0.000000 0.000000
    outer loop
      vertex 2.230000 -0.000000 0.000000
      vertex 2.230000 0.710000 1.229756
      vertex 2.230000 1.004092 1.004092
    endloop
  endfacet
  facet normal 0.000000 -0.608761 -0.793353
    outer loop
      vertex 2.230000 1.004092 1.004092
      vertex 2.230000 0.710000 1.229756
      vertex 1.770000 0.710000 1.229756
    endloop
  endfacet
  facet normal 0.000000 -0.608761 -0.793353
    outer loop
      vertex 2.230000 1.004092 1.004092
      vertex 1.770000 0.710000 1.229756
      vertex 1.770000 1.004092 1.004092
    endloop
  endfacet
  facet normal 1.000000 0.000000 0.000000
    outer loop
      vertex 1.770000 0.000000 0.000000
      vertex 1.770000 0.710000 1.229756
      vertex 1.770000 0.367523 1.371615
    endloop
  endfacet
  facet normal -1.000000 0.000000 0.000000
    outer loop
      vertex 2.230000 -0.000000 0.000000
      vertex 2.230000 0.367523 1.371615
      vertex 2.230000 0.710000 1.229756
    endloop
  endfacet
  facet normal 0.000000 -0.382683 -0.923880
    outer loop
      vertex 2.230000 0.710000 1.229756
      vertex 2.230000 0.367523 1.371615
      vertex 1.770000 0.367523 1.371615
    endloop
  endfacet
  facet normal 0.000000 -0.382683 -0.923880
    outer loop
      vertex 2.230000 0.710000 1.229756
      vertex 1.770000 0.367523 1.371615
      vertex 1.770000 0.710000 1.229756
    endloop
  endfacet
  facet normal 1.000000 0.000000 0.000000
    outer loop
      vertex 1.770000 0.000000 0.000000
      vertex 1.770000 0.367523 1.371615
      vertex 1.770000 0.000000 1.420000
    endloop
  endfacet
  facet normal -1.000000 0.000000 0.000000
    outer loop
      vertex 2.230000 -0.000000 0.000000
      vertex 2.230000 0.000000 1.420000
      vertex 2.230000 0.367523 1.371615
    endloop
  endfacet
  facet normal -0.000000 -0.130526 -0.991445
    outer loop
      vertex 2.230000 0.367523 1.371615
      vertex 2.230000 0.000000 1.420000
      vertex 1.770000 0.000000 1.420000
    endloop
  endfacet
  facet normal 0.000000 -0.130526 -0.991445
    outer loop
      vertex 2.230000 0.367523 1.371615
      vertex 1.770000 0.000000 1.420000
      vertex 1.770000 0.367523 1.371615
    endloop
  endfacet
  facet normal 1.000000 0.000000 0.000000
    outer loop
      vertex 1.770000 0.000000 0.000000
      vertex 1.770000 0.000000 1.420000
      vertex 1.770000 -0.367523 1.371615
    endloop
  endfacet
  facet normal -1.000000 0.000000 0.000000
    outer loop
      vertex 2.230000 -0.000000 0.000000
      vertex 2.230000 -0.367523 1.371615
      vertex 2.230000 0.000000 1.420000
    endloop
  endfacet
  facet normal 0.000000 0.130526 -0.991445
    outer loop
      vertex 2.230000 0.000000 1.420000
      vertex 2.230000 -0.367523 1.371615
      vertex 1.770000 -0.367523 1.371615
    endloop
  endfacet
  facet normal 0.000000 0.130526 -0.991445
    outer loop
      vertex 2.230000 0.000000 1.420000
      vertex 1.770000 -0.367523 1.371615
      vertex 1.770000 0.000000 1.420000
    endloop
  endfacet
  facet normal 1.000000 0.000000 0.000000
    outer loop
      vertex 1.770000 0.000000 0.000000
      vertex 1.770000 -0.367523 1.371615
      vertex 1.770000 -0.710000 1.229756
    endloop
  endfacet
  facet normal -1.000000 0.000000 0.000000
    outer loop
      vertex 2.230000 -0.000000 0.000000
      vertex 2.230000 -0.710000 1.229756
      vertex 2.230000 -0.367523 1.371615
    endloop
  endfacet
  facet normal 0.000000 0.382683 -0.923880
    outer loop
      vertex 2.230000 -0.367523 1.371615
      vertex 2.230000 -0.710000 1.229756
      vertex 1.770000 -0.710000 1.229756
    endloop
  endfacet
  facet normal 0.000000 0.382683 -0.923880
    outer loop
      vertex 2.230000 -0.367523 1.371615
      vertex 1.770000 -0.710000 1.229756
      vertex 1.770000 -0.367523 1.371615
    endloop
  endfacet
  facet normal 1.000000 0.000000 0.000000
    outer loop
      vertex 1.770000 0.000000 0.000000
      vertex 1.770000 -0.710000 1.229756
      vertex 1.770000 -1.004092 1.004092
    endloop
  endfacet
  facet normal -1.000000 0.000000 0.000000
    outer loop
      vertex 2.230000 -0.000000 0.000000
      vertex 2.230000 -1.004092 1.004092
      vertex 2.230000 -0.710000 1.229756
    endloop
  endfacet
  facet normal 0.000000 0.608761 -0.793353
    outer loop
      vertex 2.230000 -0.710000 1.229756
      vertex 2.230000 -1.004092 1.004092
      vertex 1.770000 -1.004092 1.004092
    endloop
  endfacet
  facet normal 0.000000 0.608761 -0.793353
    outer loop
      vertex 2.230000 -0.710000 1.229756
      vertex 1.770000 -1.004092 1.004092
      vertex 1.770000 -0.710000 1.229756
    endloop
  endfacet
  facet normal 1.000000 0.000000 0.000000
    outer loop
      vertex 1.770000 0.000000 0.000000
      vertex 1.770000 -1.004092 1.004092
      vertex 1.770000 -1.229756 0.710000
    endloop
  endfacet
  facet normal -1.000000 0.000000 0.000000
    outer loop
      vertex 2.230000 -0.000000 0.000000
      vertex 2.230000 -1.229756 0.710000
      vertex 2.230000 -1.004092 1.004092
    endloop
  endfacet
  facet normal 0.000000 0.793353 -0.608761
    outer loop
      vertex 2.230000 -1.004092 1.004092
      vertex 2.230000 -1.229756 0.710000
      vertex 1.770000 -1.229756 0.710000
    endloop
  endfacet
  facet normal 0.000000 0.793353 -0.608761
    outer loop
      vertex 2.230000 -1.004092 1.004092
      vertex 1.770000 -1.229756 0.710000
      vertex 1.770000 -1.004092 1.004092
    endloop
  endfacet
  facet normal 1.000000 0.000000 0.000000
    outer loop
      vertex 1.770000 0.000000 0.000000
      vertex 1.770000 -1.229756 0.710000
      vertex 1.770000 -1.371615 0.367523
    endloop
  endfacet
  facet normal -1.000000 0.000000 0.000000
    outer loop
      vertex 2.230000 -0.000000 0.000000
      vertex 2.230000 -1.371615 0.367523
      vertex 2.230000 -1.229756 0.710000
    endloop
  endfacet
  facet normal 0.000000 0.923880 -0.382683
    outer loop
      vertex 2.230000 -1.229756 0.710000
      vertex 2.230000 -1.371615 0.367523
      vertex 1.770000 -1.371615 0.367523
    endloop
  endfacet
  facet normal 0.000000 0.923880 -0.382683
    outer loop
      vertex 2.230000 -1.229756 0.710000
      vertex 1.770000 -1.371615 0.367523
      vertex 1.770000 -1.229756 0.710000
    endloop
  endfacet
  facet normal 1.000000 0.000000 0.000000
    outer loop
      vertex 1.770000 0.000000 0.000000
      vertex 1.770000 -1.371615 0.367523
      vertex 1.770000 -1.420000 0.000000
    endloop
  endfacet
  facet normal -1.000000 0.000000 0.000000
    outer loop
      vertex 2.230000 -0.000000 0.000000
      vertex 2.230000 -1.420000 0.000000
      vertex 2.230000 -1.371615 0.367523
    endloop
  endfacet
  facet normal 0.000000 0.991445 -0.130526
    outer loop
      vertex 2.230000 -1.371615 0.367523
      vertex 2.230000 -1.420000 0.000000
      vertex 1.770000 -1.420000 0.000000
    endloop
  endfacet
  facet normal 0.000000 0.991445 -0.130526
    outer loop
      vertex 2.230000 -1.371615 0.367523
      vertex 1.770000 -1.420000 0.000000
      vertex 1.770000 -1.371615 0.367523
    endloop
  endfacet
  facet normal 1.000000 0.000000 0.000000
    outer loop
      vertex 1.770000 0.000000 0.000000
      vertex 1.770000 -1.420000 0.000000
      vertex 1.770000 -1.371615 -0.367523
    endloop
  endfacet
  facet normal -1.000000 0.000000 0.000000
    outer loop
      vertex 2.230000 -0.000000 0.000000
      vertex 2.230000 -1.371615 -0.367523
      vertex 2.230000 -1.420000 0.000000
    endloop
  endfacet
  facet normal 0.000000 0.991445 0.130526
    outer loop
      vertex 2.230000 -1.420000 0.000000
      vertex 2.230000 -1.371615 -0.367523
      vertex 1.770000 -1.371615 -0.367523
    endloop
  endfacet
  facet normal 0.000000 0.991445 0.130526
    outer loop
      vertex 2.230000 -1.420000 0.000000
      vertex 1.770000 -1.371615 -0.367523
      vertex 1.770000 -1.420000 0.000000
    endloop
  endfacet
  facet normal 1.000000 0.000000 0.000000
    outer loop
      vertex 1.770000 0.000000 0.000000
      vertex 1.770000 -1.371615 -0.367523
      vertex 1.770000 -1.229756 -0.710000
    endloop
  endfacet
  facet normal -1.000000 0.000000 0.000000
    outer loop
      vertex 2.230000 -0.000000 0.000000
      vertex 2.230000 -1.229756 -0.710000
      vertex 2.230000 -1.371615 -0.367523
    endloop
  endfacet
  facet normal 0.000000 0.923880 0.382683
    outer loop
      vertex 2.230000 -1.371615 -0.367523
      vertex 2.230000 -1.229756 -0.710000
      vertex 1.770000 -1.229756 -0.710000
    endloop
  endfacet
  facet normal 0.000000 0.923880 0.382683
    outer loop
      vertex 2.230000 -1.371615 -0.367523
      vertex 1.770000 -1.229756 -0.710000
      vertex 1.770000 -1.371615 -0.367523
    endloop
  endfacet
  facet normal 1.000000 0.000000 0.000000
    outer loop
      vertex 1.770000 0.000000 0.000000
      vertex 1.770000 -1.229756 -0.710000
      vertex 1.770000 -1.004092 -1.004092
    endloop
  endfacet
  facet normal -1.000000 0.000000 0.000000
    outer loop
      vertex 2.230000 -0.000000 0.000000
      vertex 2.230000 -1.004092 -1.004092
      vertex 2.230000 -1.229756 -0.710000
    endloop
  endfacet
  facet normal 0.000000 0.793353 0.608761
    outer loop
      vertex 2.230000 -1.229756 -0.710000
      vertex 2.230000 -1.004092 -1.004092
      vertex 1.770000 -1.004092 -1.004092
    endloop
  endfacet
  facet normal 0.000000 0.793353 0.608761
    outer loop
      vertex 2.230000 -1.229756 -0.710000
      vertex 1.770000 -1.004092 -1.004092
      vertex 1.770000 -1.229756 -0.710000
    endloop
  endfacet
  facet normal 1.000000 0.000000 0.000000
    outer loop
      vertex 1.770000 0.000000 0.000000
      vertex 1.770000 -1.004092 -1.004092
      vertex 1.770000 -0.710000 -1.229756
    endloop
  endfacet
  facet normal -1.000000 0.000000 0.000000
    outer loop
      vertex 2.230000 -0.000000 0.000000
      vertex 2.230000 -0.710000 -1.229756
      vertex 2.230000 -1.004092 -1.004092
    endloop
  endfacet
  facet normal 0.000000 0.608761 0.793353
    outer loop
      vertex 2.230000 -1.004092 -1.004092
      vertex 2.230000 -0.710000 -1.229756
      vertex 1.770000 -0.710000 -1.229756
    endloop
  endfacet
  facet normal 0.000000 0.608761 0.793353
    outer loop
      vertex 2.230000 -1.004092 -1.004092
      vertex 1.770000 -0.710000 -1.229756
      vertex 1.770000 -1.004092 -1.004092
    endloop
  endfacet
  facet normal 1.000000 0.000000 0.000000
    outer loop
      vertex 1.770000 0.000000 0.000000
      vertex 1.770000 -0.710000 -1.229756
      vertex 1.770000 -0.367523 -1.371615
    endloop
  endfacet
  facet normal -1.000000 0.000000 0.000000
    outer loop
      vertex 2.230000 -0.000000 0.000000
      vertex 2.230000 -0.367523 -1.371615
      vertex 2.230000 -0.710000 -1.229756
    endloop
  endfacet
  facet normal 0.000000 0.382683 0.923880
    outer loop
      vertex 2.230000 -0.710000 -1.229756
      vertex 2.230000 -0.367523 -1.371615
      vertex 1.770000 -0.367523 -1.371615
    endloop
  endfacet
  facet normal 0.000000 0.382683 0.923880
    outer loop
      vertex 2.230000 -0.710000 -1.229756
      vertex 1.770000 -0.367523 -1.371615
      vertex 1.770000 -0.710000 -1.229756
    endloop
  endfacet
  facet normal 1.000000 0.000000 0.000000
    outer loop
      vertex 1.770000 0.000000 0.000000
      vertex 1.770000 -0.367523 -1.371615
      vertex 1.770000 -0.000000 -1.420000
    endloop
  endfacet
  facet normal -1.000000 0.000000 0.000000
    outer loop
      vertex 2.230000 -0.000000 0.000000
      vertex 2.230000 -0.000000 -1.420000
      vertex 2.230000 -0.367523 -1.371615
    endloop
  endfacet
  facet normal 0.000000 0.130526 0.991445
    outer loop
      vertex 2.230000 -0.367523 -1.371615
      vertex 2.230000 -0.000000 -1.420000
      vertex 1.770000 -0.000000 -1.420000
    endloop
  endfacet
  facet normal 0.000000 0.130526 0.991445
    outer loop
      vertex 2.230000 -0.367523 -1.371615
      vertex 1.770000 -0.000000 -1.420000
      vertex 1.770000 -0.367523 -1.371615
    endloop
  endfacet
  facet normal 1.000000 0.000000 0.000000
    outer loop
      vertex 1.770000 0.000000 0.000000
      vertex 1.770000 -0.000000 -1.420000
      vertex 1.770000 0.367523 -1.371615
    endloop
  endfacet
  facet normal -1.000000 0.000000 0.000000
    outer loop
      vertex 2.230000 -0.000000 0.000000
      vertex 2.230000 0.367523 -1.371615
      vertex 2.230000 -0.000000 -1.420000
    endloop
  endfacet
  facet normal 0.000000 -0.130526 0.991445
    outer loop
      vertex 2.230000 -0.000000 -1.420000
      vertex 2.230000 0.367523 -1.371615
      vertex 1.770000 0.367523 -1.371615
    endloop
  endfacet
  facet normal -0.000000 -0.130526 0.991445
    outer loop
      vertex 2.230000 -0.000000 -1.420000
      vertex 1.770000 0.367523 -1.371615
      vertex 1.770000 -0.000000 -1.420000
    endloop
  endfacet
  facet normal 1.000000 0.000000 0.000000
    outer loop
      vertex 1.770000 0.000000 0.000000
      vertex 1.770000 0.367523 -1.371615
      vertex 1.770000 0.710000 -1.229756
    endloop
  endfacet
  facet normal -1.000000 0.000000 0.000000
    outer loop
      vertex 2.230000 -0.000000 0.000000
      vertex 2.230000 0.710000 -1.229756
      vertex 2.230000 0.367523 -1.371615
    endloop
  endfacet
  facet normal 0.000000 -0.382683 0.923880
    outer loop
      vertex 2.230000 0.367523 -1.371615
      vertex 2.230000 0.710000 -1.229756
      vertex 1.770000 0.710000 -1.229756
    endloop
  endfacet
  facet normal 0.000000 -0.382683 0.923880
    outer loop
      vertex 2.230000 0.367523 -1.371615
      vertex 1.770000 0.710000 -1.229756
      vertex 1.770000 0.367523 -1.371615
    endloop
  endfacet
  facet normal 1.000000 0.000000 0.000000
    outer loop
      vertex 1.770000 0.000000 0.000000
      vertex 1.770000 0.710000 -1.229756
      vertex 1.770000 1.004092 -1.004092
    endloop
  endfacet
  facet normal -1.000000 0.000000 0.000000
    outer loop
      vertex 2.230000 -0.000000 0.000000
      vertex 2.230000 1.004092 -1.004092
      vertex 2.230000 0.710000 -1.229756
    endloop
  endfacet
  facet normal 0.000000 -0.608761 0.793353
    outer loop
      vertex 2.230000 0.710000 -1.229756
      vertex 2.230000 1.004092 -1.004092
      vertex 1.770000 1.004092 -1.004092
    endloop
  endfacet
  facet normal 0.000000 -0.608761 0.793353
    outer loop
      vertex 2.230000 0.710000 -1.229756
      vertex 1.770000 1.004092 -1.004092
      vertex 1.770000 0.710000 -1.229756
    endloop
  endfacet
  facet normal 1.000000 0.000000 0.000000
    outer loop
      vertex 1.770000 0.000000 0.000000
      vertex 1.770000 1.004092 -1.004092
      vertex 1.770000 1.229756 -0.710000
    endloop
  endfacet
  facet normal -1.000000 0.000000 0.000000
    outer loop
      vertex 2.230000 -0.000000 0.000000
      vertex 2.230000 1.229756 -0.710000
      vertex 2.230000 1.004092 -1.004092
    endloop
  endfacet
  facet normal 0.000000 -0.793353 0.608761
    outer loop
      vertex 2.230000 1.004092 -1.004092
      vertex 2.230000 1.229756 -0.710000
      vertex 1.770000 1.229756 -0.710000
    endloop
  endfacet
  facet normal 0.000000 -0.793353 0.608761
    outer loop
      vertex 2.230000 1.004092 -1.004092
      vertex 1.770000 1.229756 -0.710000
      vertex 1.770000 1.004092 -1.004092
    endloop
  endfacet
  facet normal 1.000000 0.000000 0.000000
    outer loop
      vertex 1.770000 0.000000 0.000000
      vertex 1.770000 1.229756 -0.710000
      vertex 1.770000 1.371615 -0.367523
    endloop
  endfacet
  facet normal -1.000000 0.000000 0.000000
    outer loop
      vertex 2.230000 -0.000000 0.000000
      vertex 2.230000 1.371615 -0.367523
      vertex 2.230000 1.229756 -0.710000
    endloop
  endfacet
  facet normal 0.000000 -0.923880 0.382683
    outer loop
      vertex 2.230000 1.229756 -0.710000
      vertex 2.230000 1.371615 -0.367523
      vertex 1.770000 1.371615 -0.367523
    endloop
  endfacet
  facet normal 0.000000 -0.923880 0.382683
    outer loop
      vertex 2.230000 1.229756 -0.710000
      vertex 1.770000 1.371615 -0.367523
      vertex 1.770000 1.229756 -0.710000
    endloop
  endfacet
  facet normal 1.000000 0.000000 0.000000
    outer loop
      vertex 1.770000 0.000000 0.000000
      vertex 1.770000 1.371615 -0.367523
      vertex 1.770000 1.420000 0.000000
    endloop
  endfacet
  facet normal -1.000000 0.000000 0.000000
    outer loop
      vertex 2.230000 -0.000000 0.000000
      vertex 2.230000 1.420000 0.000000
      vertex 2.230000 1.371615 -0.367523
    endloop
  endfacet
  facet normal 0.000000 -0.991445 0.130526
    outer loop
      vertex 2.230000 1.371615 -0.367523
      vertex 2.230000 1.420000 0.000000
      vertex 1.770000 1.420000 0.000000
    endloop
  endfacet
  facet normal 0.000000 -0.991445 0.130526
    outer loop
      vertex 2.230000 1.371615 -0.367523
      vertex 1.770000 1.420000 0.000000
      vertex 1.770000 1.371615 -0.367523
    endloop
  endfacet
endsolid diode_1n4007