solid lcd_2004_i2c
  facet normal 0.000000 -1.000000 0.000000
    outer loop
      vertex -13.500000 1.600000 -13.500000
      vertex 13.500000 1.600000 -13.500000
      vertex 13.500000 1.600000 13.500000
    endloop
  endfacet
  facet normal 0.000000 -1.000000 0.000000
    outer loop
      vertex -13.500000 1.600000 -13.500000
      vertex 13.500000 1.600000 13.500000
      vertex -13.500000 1.600000 13.500000
    endloop
  endfacet
  facet normal 0.000000 1.000000 0.000000
    outer loop
      vertex -13.500000 0.000000 13.500000
      vertex 13.500000 0.000000 13.500000
      vertex 13.500000 0.000000 -13.500000
    endloop
  endfacet
  facet normal 0.000000 1.000000 0.000000
    outer loop
      vertex -13.500000 0.000000 13.500000
      vertex 13.500000 0.000000 -13.500000
      vertex -13.500000 0.000000 -13.500000
    endloop
  endfacet
  facet normal 0.000000 0.000000 -1.000000
    outer loop
      vertex -13.500000 1.600000 13.500000
      vertex 13.500000 1.600000 13.500000
      vertex 13.500000 0.000000 13.500000
    endloop
  endfacet
  facet normal 0.000000 0.000000 -1.000000
    outer loop
      vertex -13.500000 1.600000 13.500000
      vertex 13.500000 0.000000 13.500000
      vertex -13.500000 0.000000 13.500000
    endloop
  endfacet
  facet normal 0.000000 0.000000 1.000000
    outer loop
      vertex 13.500000 0.000000 -13.500000
      vertex 13.500000 1.600000 -13.500000
      vertex -13.500000 1.600000 -13.500000
    endloop
  endfacet
  facet normal 0.000000 0.000000 1.000000
    outer loop
      vertex 13.500000 0.000000 -13.500000
      vertex -13.500000 1.600000 -13.500000
      vertex -13.500000 0.000000 -13.500000
    endloop
  endfacet
  facet normal -1.000000 0.000000 0.000000
    outer loop
      vertex 13.500000 0.000000 13.500000
      vertex 13.500000 1.600000 13.500000
      vertex 13.500000 1.600000 -13.500000
    endloop
  endfacet
  facet normal -1.000000 0.000000 0.000000
    outer loop
      vertex 13.500000 0.000000 13.500000
      vertex 13.500000 1.600000 -13.500000
      vertex 13.500000 0.000000 -13.500000
    endloop
  endfacet
  facet normal 1.000000 0.000000 0.000000
    outer loop
      vertex -13.500000 0.000000 -13.500000
      vertex -13.500000 1.600000 -13.500000
      vertex -13.500000 1.600000 13.500000
    endloop
  endfacet
  facet normal 1.000000 0.000000 0.000000
    outer loop
      vertex -13.500000 0.000000 -13.500000
      vertex -13.500000 1.600000 13.500000
      vertex -13.500000 0.000000 13.500000
    endloop
  endfacet
  facet normal 0.000000 -1.000000 0.000000
    outer loop
      vertex -4.910000 7.225000 -12.060000
      vertex -2.710000 7.225000 -12.060000
      vertex -2.710000 7.225000 -9.860000
    endloop
  endfacet
  facet normal 0.000000 -1.000000 0.000000
    outer loop
      vertex -4.910000 7.225000 -12.060000
      vertex -2.710000 7.225000 -9.860000
      vertex -4.910000 7.225000 -9.860000
    endloop
  endfacet
  facet normal 0.000000 1.000000 0.000000
    outer loop
      vertex -4.910000 5.675000 -9.860000
      vertex -2.710000 5.675000 -9.860000
      vertex -2.710000 5.675000 -12.060000
    endloop
  endfacet
  facet normal 0.000000 1.000000 0.000000
    outer loop
      vertex -4.910000 5.675000 -9.860000
      vertex -2.710000 5.675000 -12.060000
      vertex -4.910000 5.675000 -12.060000
    endloop
  endfacet
  facet normal 0.000000 0.000000 -1.000000
    outer loop
      vertex -4.910000 7.225000 -9.860000
      vertex -2.710000 7.225000 -9.860000
      vertex -2.710000 5.675000 -9.860000
    endloop
  endfacet
  facet normal 0.000000 0.000000 -1.000000
    outer loop
      vertex -4.910000 7.225000 -9.860000
      vertex -2.710000 5.675000 -9.860000
      vertex -4.910000 5.675000 -9.860000
    endloop
  endfacet
  facet normal 0.000000 0.000000 1.000000
    outer loop
      vertex -2.710000 5.675000 -12.060000
      vertex -2.710000 7.225000 -12.060000
      vertex -4.910000 7.225000 -12.060000
    endloop
  endfacet
  facet normal 0.000000 0.000000 1.000000
    outer loop
      vertex -2.710000 5.675000 -12.060000
      vertex -4.910000 7.225000 -12.060000
      vertex -4.910000 5.675000 -12.060000
    endloop
  endfacet
  facet normal -1.000000 0.000000 0.000000
    outer loop
      vertex -2.710000 5.675000 -9.860000
      vertex -2.710000 7.225000 -9.860000
      vertex -2.710000 7.225000 -12.060000
    endloop
  endfacet
  facet normal -1.000000 0.000000 0.000000
    outer loop
      vertex -2.710000 5.675000 -9.860000
      vertex -2.710000 7.225000 -12.060000
      vertex -2.710000 5.675000 -12.060000
    endloop
  endfacet
  facet normal 1.000000 0.000000 0.000000
    outer loop
      vertex -4.910000 5.675000 -12.060000
      vertex -4.910000 7.225000 -12.060000
      vertex -4.910000 7.225000 -9.860000
    endloop
  endfacet
  facet normal 1.000000 0.000000 0.000000
    outer loop
      vertex -4.910000 5.675000 -12.060000
      vertex -4.910000 7.225000 -9.860000
      vertex -4.910000 5.675000 -9.860000
    endloop
  endfacet
  facet normal 0.000000 -1.000000 0.000000
    outer loop
      vertex -4.140000 11.200000 -11.290000
      vertex -3.480000 11.200000 -11.290000
      vertex -3.480000 11.200000 -10.630000
    endloop
  endfacet
  facet normal 0.000000 -1.000000 0.000000
    outer loop
      vertex -4.140000 11.200000 -11.290000
      vertex -3.480000 11.200000 -10.630000
      vertex -4.140000 11.200000 -10.630000
    endloop
  endfacet
  facet normal 0.000000 1.000000 0.000000
    outer loop
      vertex -4.140000 6.000000 -10.630000
      vertex -3.480000 6.000000 -10.630000
      vertex -3.480000 6.000000 -11.290000
    endloop
  endfacet
  facet normal 0.000000 1.000000 0.000000
    outer loop
      vertex -4.140000 6.000000 -10.630000
      vertex -3.480000 6.000000 -11.290000
      vertex -4.140000 6.000000 -11.290000
    endloop
  endfacet
  facet normal 0.000000 0.000000 -1.000000
    outer loop
      vertex -4.140000 11.200000 -10.630000
      vertex -3.480000 11.200000 -10.630000
      vertex -3.480000 6.000000 -10.630000
    endloop
  endfacet
  facet normal 0.000000 0.000000 -1.000000
    outer loop
      vertex -4.140000 11.200000 -10.630000
      vertex -3.480000 6.000000 -10.630000
      vertex -4.140000 6.000000 -10.630000
    endloop
  endfacet
  facet normal 0.000000 0.000000 1.000000
    outer loop
      vertex -3.480000 6.000000 -11.290000
      vertex -3.480000 11.200000 -11.290000
      vertex -4.140000 11.200000 -11.290000
    endloop
  endfacet
  facet normal 0.000000 0.000000 1.000000
    outer loop
      vertex -3.480000 6.000000 -11.290000
      vertex -4.140000 11.200000 -11.290000
      vertex -4.140000 6.000000 -11.290000
    endloop
  endfacet
  facet normal -1.000000 0.000000 0.000000
    outer loop
      vertex -3.480000 6.000000 -10.630000
      vertex -3.480000 11.200000 -10.630000
      vertex -3.480000 11.200000 -11.290000
    endloop
  endfacet
  facet normal -1.000000 0.000000 0.000000
    outer loop
      vertex -3.480000 6.000000 -10.630000
      vertex -3.480000 11.200000 -11.290000
      vertex -3.480000 6.000000 -11.290000
    endloop
  endfacet
  facet normal 1.000000 0.000000 0.000000
    outer loop
      vertex -4.140000 6.000000 -11.290000
      vertex -4.140000 11.200000 -11.290000
      vertex -4.140000 11.200000 -10.630000
    endloop
  endfacet
  facet normal 1.000000 0.000000 0.000000
    outer loop
      vertex -4.140000 6.000000 -11.290000
      vertex -4.140000 11.200000 -10.630000
      vertex -4.140000 6.000000 -10.630000
    endloop
  endfacet
  facet normal 0.000000 -1.000000 0.000000
    outer loop
      vertex -2.370000 7.225000 -12.060000
      vertex -0.170000 7.225000 -12.060000
      vertex -0.170000 7.225000 -9.860000
    endloop
  endfacet
  facet normal 0.000000 -1.000000 0.000000
    outer loop
      vertex -2.370000 7.225000 -12.060000
      vertex -0.170000 7.225000 -9.860000
      vertex -2.370000 7.225000 -9.860000
    endloop
  endfacet
  facet normal 0.000000 1.000000 0.000000
    outer loop
      vertex -2.370000 5.675000 -9.860000
      vertex -0.170000 5.675000 -9.860000
      vertex -0.170000 5.675000 -12.060000
    endloop
  endfacet
  facet normal 0.000000 1.000000 0.000000
    outer loop
      vertex -2.370000 5.675000 -9.860000
      vertex -0.170000 5.675000 -12.060000
      vertex -2.370000 5.675000 -12.060000
    endloop
  endfacet
  facet normal 0.000000 0.000000 -1.000000
    outer loop
      vertex -2.370000 7.225000 -9.860000
      vertex -0.170000 7.225000 -9.860000
      vertex -0.170000 5.675000 -9.860000
    endloop
  endfacet
  facet normal 0.000000 0.000000 -1.000000
    outer loop
      vertex -2.370000 7.225000 -9.860000
      vertex -0.170000 5.675000 -9.860000
      vertex -2.370000 5.675000 -9.860000
    endloop
  endfacet
  facet normal 0.000000 0.000000 1.000000
    outer loop
      vertex -0.170000 5.675000 -12.060000
      vertex -0.170000 7.225000 -12.060000
      vertex -2.370000 7.225000 -12.060000
    endloop
  endfacet
  facet normal 0.000000 0.000000 1.000000
    outer loop
      vertex -0.170000 5.675000 -12.060000
      vertex -2.370000 7.225000 -12.060000
      vertex -2.370000 5.675000 -12.060000
    endloop
  endfacet
  facet normal -1.000000 0.000000 0.000000
    outer loop
      vertex -0.170000 5.675000 -9.860000
      vertex -0.170000 7.225000 -9.860000
      vertex -0.170000 7.225000 -12.060000
    endloop
  endfacet
  facet normal -1.000000 0.000000 0.000000
    outer loop
      vertex -0.170000 5.675000 -9.860000
      vertex -0.170000 7.225000 -12.060000
      vertex -0.170000 5.675000 -12.060000
    endloop
  endfacet
  facet normal 1.000000 0.000000 0.000000
    outer loop
      vertex -2.370000 5.675000 -12.060000
      vertex -2.370000 7.225000 -12.060000
      vertex -2.370000 7.225000 -9.860000
    endloop
  endfacet
  facet normal 1.000000 0.000000 0.000000
    outer loop
      vertex -2.370000 5.675000 -12.060000
      vertex -2.370000 7.225000 -9.860000
      vertex -2.370000 5.675000 -9.860000
    endloop
  endfacet
  facet normal 0.000000 -1.000000 0.000000
    outer loop
      vertex -1.600000 11.200000 -11.290000
      vertex -0.940000 11.200000 -11.290000
      vertex -0.940000 11.200000 -10.630000
    endloop
  endfacet
  facet normal 0.000000 -1.000000 0.000000
    outer loop
      vertex -1.600000 11.200000 -11.290000
      vertex -0.940000 11.200000 -10.630000
      vertex -1.600000 11.200000 -10.630000
    endloop
  endfacet
  facet normal 0.000000 1.000000 0.000000
    outer loop
      vertex -1.600000 6.000000 -10.630000
      vertex -0.940000 6.000000 -10.630000
      vertex -0.940000 6.000000 -11.290000
    endloop
  endfacet
  facet normal 0.000000 1.000000 0.000000
    outer loop
      vertex -1.600000 6.000000 -10.630000
      vertex -0.940000 6.000000 -11.290000
      vertex -1.600000 6.000000 -11.290000
    endloop
  endfacet
  facet normal 0.000000 0.000000 -1.000000
    outer loop
      vertex -1.600000 11.200000 -10.630000
      vertex -0.940000 11.200000 -10.630000
      vertex -0.940000 6.000000 -10.630000
    endloop
  endfacet
  facet normal 0.000000 0.000000 -1.000000
    outer loop
      vertex -1.600000 11.200000 -10.630000
      vertex -0.940000 6.000000 -10.630000
      vertex -1.600000 6.000000 -10.630000
    endloop
  endfacet
  facet normal 0.000000 0.000000 1.000000
    outer loop
      vertex -0.940000 6.000000 -11.290000
      vertex -0.940000 11.200000 -11.290000
      vertex -1.600000 11.200000 -11.290000
    endloop
  endfacet
  facet normal 0.000000 0.000000 1.000000
    outer loop
      vertex -0.940000 6.000000 -11.290000
      vertex -1.600000 11.200000 -11.290000
      vertex -1.600000 6.000000 -11.290000
    endloop
  endfacet
  facet normal -1.000000 0.000000 0.000000
    outer loop
      vertex -0.940000 6.000000 -10.630000
      vertex -0.940000 11.200000 -10.630000
      vertex -0.940000 11.200000 -11.290000
    endloop
  endfacet
  facet normal -1.000000 0.000000 0.000000
    outer loop
      vertex -0.940000 6.000000 -10.630000
      vertex -0.940000 11.200000 -11.290000
      vertex -0.940000 6.000000 -11.290000
    endloop
  endfacet
  facet normal 1.000000 0.000000 0.000000
    outer loop
      vertex -1.600000 6.000000 -11.290000
      vertex -1.600000 11.200000 -11.290000
      vertex -1.600000 11.200000 -10.630000
    endloop
  endfacet
  facet normal 1.000000 0.000000 0.000000
    outer loop
      vertex -1.600000 6.000000 -11.290000
      vertex -1.600000 11.200000 -10.630000
      vertex -1.600000 6.000000 -10.630000
    endloop
  endfacet
  facet normal 0.000000 -1.000000 0.000000
    outer loop
      vertex 0.170000 7.225000 -12.060000
      vertex 2.370000 7.225000 -12.060000
      vertex 2.370000 7.225000 -9.860000
    endloop
  endfacet
  facet normal 0.000000 -1.000000 0.000000
    outer loop
      vertex 0.170000 7.225000 -12.060000
      vertex 2.370000 7.225000 -9.860000
      vertex 0.170000 7.225000 -9.860000
    endloop
  endfacet
  facet normal 0.000000 1.000000 0.000000
    outer loop
      vertex 0.170000 5.675000 -9.860000
      vertex 2.370000 5.675000 -9.860000
      vertex 2.370000 5.675000 -12.060000
    endloop
  endfacet
  facet normal 0.000000 1.000000 0.000000
    outer loop
      vertex 0.170000 5.675000 -9.860000
      vertex 2.370000 5.675000 -12.060000
      vertex 0.170000 5.675000 -12.060000
    endloop
  endfacet
  facet normal 0.000000 0.000000 -1.000000
    outer loop
      vertex 0.170000 7.225000 -9.860000
      vertex 2.370000 7.225000 -9.860000
      vertex 2.370000 5.675000 -9.860000
    endloop
  endfacet
  facet normal 0.000000 0.000000 -1.000000
    outer loop
      vertex 0.170000 7.225000 -9.860000
      vertex 2.370000 5.675000 -9.860000
      vertex 0.170000 5.675000 -9.860000
    endloop
  endfacet
  facet normal 0.000000 0.000000 1.000000
    outer loop
      vertex 2.370000 5.675000 -12.060000
      vertex 2.370000 7.225000 -12.060000
      vertex 0.170000 7.225000 -12.060000
    endloop
  endfacet
  facet normal 0.000000 0.000000 1.000000
    outer loop
      vertex 2.370000 5.675000 -12.060000
      vertex 0.170000 7.225000 -12.060000
      vertex 0.170000 5.675000 -12.060000
    endloop
  endfacet
  facet normal -1.000000 0.000000 0.000000
    outer loop
      vertex 2.370000 5.675000 -9.860000
      vertex 2.370000 7.225000 -9.860000
      vertex 2.370000 7.225000 -12.060000
    endloop
  endfacet
  facet normal -1.000000 0.000000 0.000000
    outer loop
      vertex 2.370000 5.675000 -9.860000
      vertex 2.370000 7.225000 -12.060000
      vertex 2.370000 5.675000 -12.060000
    endloop
  endfacet
  facet normal 1.000000 0.000000 0.000000
    outer loop
      vertex 0.170000 5.675000 -12.060000
      vertex 0.170000 7.225000 -12.060000
      vertex 0.170000 7.225000 -9.860000
    endloop
  endfacet
  facet normal 1.000000 0.000000 0.000000
    outer loop
      vertex 0.170000 5.675000 -12.060000
      vertex 0.170000 7.225000 -9.860000
      vertex 0.170000 5.675000 -9.860000
    endloop
  endfacet
  facet normal 0.000000 -1.000000 0.000000
    outer loop
      vertex 0.940000 11.200000 -11.290000
      vertex 1.600000 11.200000 -11.290000
      vertex 1.600000 11.200000 -10.630000
    endloop
  endfacet
  facet normal 0.000000 -1.000000 0.000000
    outer loop
      vertex 0.940000 11.200000 -11.290000
      vertex 1.600000 11.200000 -10.630000
      vertex 0.940000 11.200000 -10.630000
    endloop
  endfacet
  facet normal 0.000000 1.000000 0.000000
    outer loop
      vertex 0.940000 6.000000 -10.630000
      vertex 1.600000 6.000000 -10.630000
      vertex 1.600000 6.000000 -11.290000
    endloop
  endfacet
  facet normal 0.000000 1.000000 0.000000
    outer loop
      vertex 0.940000 6.000000 -10.630000
      vertex 1.600000 6.000000 -11.290000
      vertex 0.940000 6.000000 -11.290000
    endloop
  endfacet
  facet normal 0.000000 0.000000 -1.000000
    outer loop
      vertex 0.940000 11.200000 -10.630000
      vertex 1.600000 11.200000 -10.630000
      vertex 1.600000 6.000000 -10.630000
    endloop
  endfacet
  facet normal 0.000000 0.000000 -1.000000
    outer loop
      vertex 0.940000 11.200000 -10.630000
      vertex 1.600000 6.000000 -10.630000
      vertex 0.940000 6.000000 -10.630000
    endloop
  endfacet
  facet normal 0.000000 0.000000 1.000000
    outer loop
      vertex 1.600000 6.000000 -11.290000
      vertex 1.600000 11.200000 -11.290000
      vertex 0.940000 11.200000 -11.290000
    endloop
  endfacet
  facet normal 0.000000 0.000000 1.000000
    outer loop
      vertex 1.600000 6.000000 -11.290000
      vertex 0.940000 11.200000 -11.290000
      vertex 0.940000 6.000000 -11.290000
    endloop
  endfacet
  facet normal -1.000000 0.000000 0.000000
    outer loop
      vertex 1.600000 6.000000 -10.630000
      vertex 1.600000 11.200000 -10.630000
      vertex 1.600000 11.200000 -11.290000
    endloop
  endfacet
  facet normal -1.000000 0.000000 0.000000
    outer loop
      vertex 1.600000 6.000000 -10.630000
      vertex 1.600000 11.200000 -11.290000
      vertex 1.600000 6.000000 -11.290000
    endloop
  endfacet
  facet normal 1.000000 0.000000 0.000000
    outer loop
      vertex 0.940000 6.000000 -11.290000
      vertex 0.940000 11.200000 -11.290000
      vertex 0.940000 11.200000 -10.630000
    endloop
  endfacet
  facet normal 1.000000 0.000000 0.000000
    outer loop
      vertex 0.940000 6.000000 -11.290000
      vertex 0.940000 11.200000 -10.630000
      vertex 0.940000 6.000000 -10.630000
    endloop
  endfacet
  facet normal 0.000000 -1.000000 0.000000
    outer loop
      vertex 2.710000 7.225000 -12.060000
      vertex 4.910000 7.225000 -12.060000
      vertex 4.910000 7.225000 -9.860000
    endloop
  endfacet
  facet normal 0.000000 -1.000000 0.000000
    outer loop
      vertex 2.710000 7.225000 -12.060000
      vertex 4.910000 7.225000 -9.860000
      vertex 2.710000 7.225000 -9.860000
    endloop
  endfacet
  facet normal 0.000000 1.000000 0.000000
    outer loop
      vertex 2.710000 5.675000 -9.860000
      vertex 4.910000 5.675000 -9.860000
      vertex 4.910000 5.675000 -12.060000
    endloop
  endfacet
  facet normal 0.000000 1.000000 0.000000
    outer loop
      vertex 2.710000 5.675000 -9.860000
      vertex 4.910000 5.675000 -12.060000
      vertex 2.710000 5.675000 -12.060000
    endloop
  endfacet
  facet normal 0.000000 0.000000 -1.000000
    outer loop
      vertex 2.710000 7.225000 -9.860000
      vertex 4.910000 7.225000 -9.860000
      vertex 4.910000 5.675000 -9.860000
    endloop
  endfacet
  facet normal 0.000000 0.000000 -1.000000
    outer loop
      vertex 2.710000 7.225000 -9.860000
      vertex 4.910000 5.675000 -9.860000
      vertex 2.710000 5.675000 -9.860000
    endloop
  endfacet
  facet normal 0.000000 0.000000 1.000000
    outer loop
      vertex 4.910000 5.675000 -12.060000
      vertex 4.910000 7.225000 -12.060000
      vertex 2.710000 7.225000 -12.060000
    endloop
  endfacet
  facet normal 0.000000 0.000000 1.000000
    outer loop
      vertex 4.910000 5.675000 -12.060000
      vertex 2.710000 7.225000 -12.060000
      vertex 2.710000 5.675000 -12.060000
    endloop
  endfacet
  facet normal -1.000000 0.000000 0.000000
    outer loop
      vertex 4.910000 5.675000 -9.860000
      vertex 4.910000 7.225000 -9.860000
      vertex 4.910000 7.225000 -12.060000
    endloop
  endfacet
  facet normal -1.000000 0.000000 0.000000
    outer loop
      vertex 4.910000 5.675000 -9.860000
      vertex 4.910000 7.225000 -12.060000
      vertex 4.910000 5.675000 -12.060000
    endloop
  endfacet
  facet normal 1.000000 0.000000 0.000000
    outer loop
      vertex 2.710000 5.675000 -12.060000
      vertex 2.710000 7.225000 -12.060000
      vertex 2.710000 7.225000 -9.860000
    endloop
  endfacet
  facet normal 1.000000 0.000000 0.000000
    outer loop
      vertex 2.710000 5.675000 -12.060000
      vertex 2.710000 7.225000 -9.860000
      vertex 2.710000 5.675000 -9.860000
    endloop
  endfacet
  facet normal 0.000000 -1.000000 0.000000
    outer loop
      vertex 3.480000 11.200000 -11.290000
      vertex 4.140000 11.200000 -11.290000
      vertex 4.140000 11.200000 -10.630000
    endloop
  endfacet
  facet normal 0.000000 -1.000000 0.000000
    outer loop
      vertex 3.480000 11.200000 -11.290000
      vertex 4.140000 11.200000 -10.630000
      vertex 3.480000 11.200000 -10.630000
    endloop
  endfacet
  facet normal 0.000000 1.000000 0.000000
    outer loop
      vertex 3.480000 6.000000 -10.630000
      vertex 4.140000 6.000000 -10.630000
      vertex 4.140000 6.000000 -11.290000
    endloop
  endfacet
  facet normal 0.000000 1.000000 0.000000
    outer loop
      vertex 3.480000 6.000000 -10.630000
      vertex 4.140000 6.000000 -11.290000
      vertex 3.480000 6.000000 -11.290000
    endloop
  endfacet
  facet normal 0.000000 0.000000 -1.000000
    outer loop
      vertex 3.480000 11.200000 -10.630000
      vertex 4.140000 11.200000 -10.630000
      vertex 4.140000 6.000000 -10.630000
    endloop
  endfacet
  facet normal 0.000000 0.000000 -1.000000
    outer loop
      vertex 3.480000 11.200000 -10.630000
      vertex 4.140000 6.000000 -10.630000
      vertex 3.480000 6.000000 -10.630000
    endloop
  endfacet
  facet normal 0.000000 0.000000 1.000000
    outer loop
      vertex 4.140000 6.000000 -11.290000
      vertex 4.140000 11.200000 -11.290000
      vertex 3.480000 11.200000 -11.290000
    endloop
  endfacet
  facet normal 0.000000 0.000000 1.000000
    outer loop
      vertex 4.140000 6.000000 -11.290000
      vertex 3.480000 11.200000 -11.290000
      vertex 3.480000 6.000000 -11.290000
    endloop
  endfacet
  facet normal -1.000000 0.000000 0.000000
    outer loop
      vertex 4.140000 6.000000 -10.630000
      vertex 4.140000 11.200000 -10.630000
      vertex 4.140000 11.200000 -11.290000
    endloop
  endfacet
  facet normal -1.000000 0.000000 0.000000
    outer loop
      vertex 4.140000 6.000000 -10.630000
      vertex 4.140000 11.200000 -11.290000
      vertex 4.140000 6.000000 -11.290000
    endloop
  endfacet
  facet normal 1.000000 0.000000 0.000000
    outer loop
      vertex 3.480000 6.000000 -11.290000
      vertex 3.480000 11.200000 -11.290000
      vertex 3.480000 11.200000 -10.630000
    endloop
  endfacet
  facet normal 1.000000 0.000000 0.000000
    outer loop
      vertex 3.480000 6.000000 -11.290000
      vertex 3.480000 11.200000 -10.630000
      vertex 3.480000 6.000000 -10.630000
    endloop
  endfacet
  facet normal 0.000000 -1.000000 0.000000
    outer loop
      vertex -5.080000 4.050000 -12.210000
      vertex 5.080000 4.050000 -12.210000
      vertex 5.080000 4.050000 -9.710000
    endloop
  endfacet
  facet normal 0.000000 -1.000000 0.000000
    outer loop
      vertex -5.080000 4.050000 -12.210000
      vertex 5.080000 4.050000 -9.710000
      vertex -5.080000 4.050000 -9.710000
    endloop
  endfacet
  facet normal 0.000000 1.000000 0.000000
    outer loop
      vertex -5.080000 1.550000 -9.710000
      vertex 5.080000 1.550000 -9.710000
      vertex 5.080000 1.550000 -12.210000
    endloop
  endfacet
  facet normal 0.000000 1.000000 0.000000
    outer loop
      vertex -5.080000 1.550000 -9.710000
      vertex 5.080000 1.550000 -12.210000
      vertex -5.080000 1.550000 -12.210000
    endloop
  endfacet
  facet normal 0.000000 0.000000 -1.000000
    outer loop
      vertex -5.080000 4.050000 -9.710000
      vertex 5.080000 4.050000 -9.710000
      vertex 5.080000 1.550000 -9.710000
    endloop
  endfacet
  facet normal 0.000000 0.000000 -1.000000
    outer loop
      vertex -5.080000 4.050000 -9.710000
      vertex 5.080000 1.550000 -9.710000
      vertex -5.080000 1.550000 -9.710000
    endloop
  endfacet
  facet normal 0.000000 0.000000 1.000000
    outer loop
      vertex 5.080000 1.550000 -12.210000
      vertex 5.080000 4.050000 -12.210000
      vertex -5.080000 4.050000 -12.210000
    endloop
  endfacet
  facet normal 0.000000 0.000000 1.000000
    outer loop
      vertex 5.080000 1.550000 -12.210000
      vertex -5.080000 4.050000 -12.210000
      vertex -5.080000 1.550000 -12.210000
    endloop
  endfacet
  facet normal -1.000000 0.000000 0.000000
    outer loop
      vertex 5.080000 1.550000 -9.710000
      vertex 5.080000 4.050000 -9.710000
      vertex 5.080000 4.050000 -12.210000
    endloop
  endfacet
  facet normal -1.000000 0.000000 0.000000
    outer loop
      vertex 5.080000 1.550000 -9.710000
      vertex 5.080000 4.050000 -12.210000
      vertex 5.080000 1.550000 -12.210000
    endloop
  endfacet
  facet normal 1.000000 0.000000 0.000000
    outer loop
      vertex -5.080000 1.550000 -12.210000
      vertex -5.080000 4.050000 -12.210000
      vertex -5.080000 4.050000 -9.710000
    endloop
  endfacet
  facet normal 1.000000 0.000000 0.000000
    outer loop
      vertex -5.080000 1.550000 -12.210000
      vertex -5.080000 4.050000 -9.710000
      vertex -5.080000 1.550000 -9.710000
    endloop
  endfacet
  facet normal 0.000000 -1.000000 0.000000
    outer loop
      vertex -11.475000 3.800000 -4.250000
      vertex 11.475000 3.800000 -4.250000
      vertex 11.475000 3.800000 9.250000
    endloop
  endfacet
  facet normal 0.000000 -1.000000 0.000000
    outer loop
      vertex -11.475000 3.800000 -4.250000
      vertex 11.475000 3.800000 9.250000
      vertex -11.475000 3.800000 9.250000
    endloop
  endfacet
  facet normal 0.000000 1.000000 0.000000
    outer loop
      vertex -11.475000 1.800000 9.250000
      vertex 11.475000 1.800000 9.250000
      vertex 11.475000 1.800000 -4.250000
    endloop
  endfacet
  facet normal 0.000000 1.000000 0.000000
    outer loop
      vertex -11.475000 1.800000 9.250000
      vertex 11.475000 1.800000 -4.250000
      vertex -11.475000 1.800000 -4.250000
    endloop
  endfacet
  facet normal 0.000000 0.000000 -1.000000
    outer loop
      vertex -11.475000 3.800000 9.250000
      vertex 11.475000 3.800000 9.250000
      vertex 11.475000 1.800000 9.250000
    endloop
  endfacet
  facet normal 0.000000 0.000000 -1.000000
    outer loop
      vertex -11.475000 3.800000 9.250000
      vertex 11.475000 1.800000 9.250000
      vertex -11.475000 1.800000 9.250000
    endloop
  endfacet
  facet normal 0.000000 0.000000 1.000000
    outer loop
      vertex 11.475000 1.800000 -4.250000
      vertex 11.475000 3.800000 -4.250000
      vertex -11.475000 3.800000 -4.250000
    endloop
  endfacet
  facet normal 0.000000 0.000000 1.000000
    outer loop
      vertex 11.475000 1.800000 -4.250000
      vertex -11.475000 3.800000 -4.250000
      vertex -11.475000 1.800000 -4.250000
    endloop
  endfacet
  facet normal -1.000000 0.000000 0.000000
    outer loop
      vertex 11.475000 1.800000 9.250000
      vertex 11.475000 3.800000 9.250000
      vertex 11.475000 3.800000 -4.250000
    endloop
  endfacet
  facet normal -1.000000 0.000000 0.000000
    outer loop
      vertex 11.475000 1.800000 9.250000
      vertex 11.475000 3.800000 -4.250000
      vertex 11.475000 1.800000 -4.250000
    endloop
  endfacet
  facet normal 1.000000 0.000000 0.000000
    outer loop
      vertex -11.475000 1.800000 -4.250000
      vertex -11.475000 3.800000 -4.250000
      vertex -11.475000 3.800000 9.250000
    endloop
  endfacet
  facet normal 1.000000 0.000000 0.000000
    outer loop
      vertex -11.475000 1.800000 -4.250000
      vertex -11.475000 3.800000 9.250000
      vertex -11.475000 1.800000 9.250000
    endloop
  endfacet
endsolid lcd_2004_i2c