solid limit_switch_microswitch
  facet normal 0.000000 1.000000 0.000000
    outer loop
      vertex -2.540000 -13.750000 3.800000
      vertex -2.260000 -13.750000 3.800000
      vertex -2.287729 -13.750000 3.678513
    endloop
  endfacet
  facet normal 0.000000 -1.000000 0.000000
    outer loop
      vertex -2.540000 -3.250000 3.800000
      vertex -2.287729 -3.250000 3.678513
      vertex -2.260000 -3.250000 3.800000
    endloop
  endfacet
  facet normal -0.974928 0.000000 0.222521
    outer loop
      vertex -2.260000 -3.250000 3.800000
      vertex -2.287729 -3.250000 3.678513
      vertex -2.287729 -13.750000 3.678513
    endloop
  endfacet
  facet normal -0.974928 0.000000 0.222521
    outer loop
      vertex -2.260000 -3.250000 3.800000
      vertex -2.287729 -13.750000 3.678513
      vertex -2.260000 -13.750000 3.800000
    endloop
  endfacet
  facet normal 0.000000 1.000000 0.000000
    outer loop
      vertex -2.540000 -13.750000 3.800000
      vertex -2.287729 -13.750000 3.678513
      vertex -2.365423 -13.750000 3.581087
    endloop
  endfacet
  facet normal 0.000000 -1.000000 0.000000
    outer loop
      vertex -2.540000 -3.250000 3.800000
      vertex -2.365423 -3.250000 3.581087
      vertex -2.287729 -3.250000 3.678513
    endloop
  endfacet
  facet normal -0.781831 0.000000 0.623490
    outer loop
      vertex -2.287729 -3.250000 3.678513
      vertex -2.365423 -3.250000 3.581087
      vertex -2.365423 -13.750000 3.581087
    endloop
  endfacet
  facet normal -0.781831 0.000000 0.623490
    outer loop
      vertex -2.287729 -3.250000 3.678513
      vertex -2.365423 -13.750000 3.581087
      vertex -2.287729 -13.750000 3.678513
    endloop
  endfacet
  facet normal 0.000000 1.000000 0.000000
    outer loop
      vertex -2.540000 -13.750000 3.800000
      vertex -2.365423 -13.750000 3.581087
      vertex -2.477694 -13.750000 3.527020
    endloop
  endfacet
  facet normal 0.000000 -1.000000 0.000000
    outer loop
      vertex -2.540000 -3.250000 3.800000
      vertex -2.477694 -3.250000 3.527020
      vertex -2.365423 -3.250000 3.581087
    endloop
  endfacet
  facet normal -0.433884 0.000000 0.900969
    outer loop
      vertex -2.365423 -3.250000 3.581087
      vertex -2.477694 -3.250000 3.527020
      vertex -2.477694 -13.750000 3.527020
    endloop
  endfacet
  facet normal -0.433884 0.000000 0.900969
    outer loop
      vertex -2.365423 -3.250000 3.581087
      vertex -2.477694 -13.750000 3.527020
      vertex -2.365423 -13.750000 3.581087
    endloop
  endfacet
  facet normal 0.000000 1.000000 0.000000
    outer loop
      vertex -2.540000 -13.750000 3.800000
      vertex -2.477694 -13.750000 3.527020
      vertex -2.602306 -13.750000 3.527020
    endloop
  endfacet
  facet normal 0.000000 -1.000000 0.000000
    outer loop
      vertex -2.540000 -3.250000 3.800000
      vertex -2.602306 -3.250000 3.527020
      vertex -2.477694 -3.250000 3.527020
    endloop
  endfacet
  facet normal 0.000000 0.000000 1.000000
    outer loop
      vertex -2.477694 -3.250000 3.527020
      vertex -2.602306 -3.250000 3.527020
      vertex -2.602306 -13.750000 3.527020
    endloop
  endfacet
  facet normal 0.000000 0.000000 1.000000
    outer loop
      vertex -2.477694 -3.250000 3.527020
      vertex -2.602306 -13.750000 3.527020
      vertex -2.477694 -13.750000 3.527020
    endloop
  endfacet
  facet normal 0.000000 1.000000 0.000000
    outer loop
      vertex -2.540000 -13.750000 3.800000
      vertex -2.602306 -13.750000 3.527020
      vertex -2.714577 -13.750000 3.581087
    endloop
  endfacet
  facet normal 0.000000 -1.000000 0.000000
    outer loop
      vertex -2.540000 -3.250000 3.800000
      vertex -2.714577 -3.250000 3.581087
      vertex -2.602306 -3.250000 3.527020
    endloop
  endfacet
  facet normal 0.433884 0.000000 0.900969
    outer loop
      vertex -2.602306 -3.250000 3.527020
      vertex -2.714577 -3.250000 3.581087
      vertex -2.714577 -13.750000 3.581087
    endloop
  endfacet
  facet normal 0.433884 0.000000 0.900969
    outer loop
      vertex -2.602306 -3.250000 3.527020
      vertex -2.714577 -13.750000 3.581087
      vertex -2.602306 -13.750000 3.527020
    endloop
  endfacet
  facet normal 0.000000 1.000000 0.000000
    outer loop
      vertex -2.540000 -13.750000 3.800000
      vertex -2.714577 -13.750000 3.581087
      vertex -2.792271 -13.750000 3.678513
    endloop
  endfacet
  facet normal 0.000000 -1.000000 0.000000
    outer loop
      vertex -2.540000 -3.250000 3.800000
      vertex -2.792271 -3.250000 3.678513
      vertex -2.714577 -3.250000 3.581087
    endloop
  endfacet
  facet normal 0.781831 0.000000 0.623490
    outer loop
      vertex -2.714577 -3.250000 3.581087
      vertex -2.792271 -3.250000 3.678513
      vertex -2.792271 -13.750000 3.678513
    endloop
  endfacet
  facet normal 0.781831 0.000000 0.623490
    outer loop
      vertex -2.714577 -3.250000 3.581087
      vertex -2.792271 -13.750000 3.678513
      vertex -2.714577 -13.750000 3.581087
    endloop
  endfacet
  facet normal 0.000000 1.000000 0.000000
    outer loop
      vertex -2.540000 -13.750000 3.800000
      vertex -2.792271 -13.750000 3.678513
      vertex -2.820000 -13.750000 3.800000
    endloop
  endfacet
  facet normal 0.000000 -1.000000 0.000000
    outer loop
      vertex -2.540000 -3.250000 3.800000
      vertex -2.820000 -3.250000 3.800000
      vertex -2.792271 -3.250000 3.678513
    endloop
  endfacet
  facet normal 0.974928 0.000000 0.222521
    outer loop
      vertex -2.792271 -3.250000 3.678513
      vertex -2.820000 -3.250000 3.800000
      vertex -2.820000 -13.750000 3.800000
    endloop
  endfacet
  facet normal 0.974928 0.000000 0.222521
    outer loop
      vertex -2.792271 -3.250000 3.678513
      vertex -2.820000 -13.750000 3.800000
      vertex -2.792271 -13.750000 3.678513
    endloop
  endfacet
  facet normal 0.000000 1.000000 0.000000
    outer loop
      vertex -2.540000 -13.750000 3.800000
      vertex -2.820000 -13.750000 3.800000
      vertex -2.792271 -13.750000 3.921487
    endloop
  endfacet
  facet normal 0.000000 -1.000000 0.000000
    outer loop
      vertex -2.540000 -3.250000 3.800000
      vertex -2.792271 -3.250000 3.921487
      vertex -2.820000 -3.250000 3.800000
    endloop
  endfacet
  facet normal 0.974928 -0.000000 -0.222521
    outer loop
      vertex -2.820000 -3.250000 3.800000
      vertex -2.792271 -3.250000 3.921487
      vertex -2.792271 -13.750000 3.921487
    endloop
  endfacet
  facet normal 0.974928 -0.000000 -0.222521
    outer loop
      vertex -2.820000 -3.250000 3.800000
      vertex -2.792271 -13.750000 3.921487
      vertex -2.820000 -13.750000 3.800000
    endloop
  endfacet
  facet normal 0.000000 1.000000 0.000000
    outer loop
      vertex -2.540000 -13.750000 3.800000
      vertex -2.792271 -13.750000 3.921487
      vertex -2.714577 -13.750000 4.018913
    endloop
  endfacet
  facet normal 0.000000 -1.000000 0.000000
    outer loop
      vertex -2.540000 -3.250000 3.800000
      vertex -2.714577 -3.250000 4.018913
      vertex -2.792271 -3.250000 3.921487
    endloop
  endfacet
  facet normal 0.781831 -0.000000 -0.623490
    outer loop
      vertex -2.792271 -3.250000 3.921487
      vertex -2.714577 -3.250000 4.018913
      vertex -2.714577 -13.750000 4.018913
    endloop
  endfacet
  facet normal 0.781831 -0.000000 -0.623490
    outer loop
      vertex -2.792271 -3.250000 3.921487
      vertex -2.714577 -13.750000 4.018913
      vertex -2.792271 -13.750000 3.921487
    endloop
  endfacet
  facet normal 0.000000 1.000000 0.000000
    outer loop
      vertex -2.540000 -13.750000 3.800000
      vertex -2.714577 -13.750000 4.018913
      vertex -2.602306 -13.750000 4.072980
    endloop
  endfacet
  facet normal 0.000000 -1.000000 0.000000
    outer loop
      vertex -2.540000 -3.250000 3.800000
      vertex -2.602306 -3.250000 4.072980
      vertex -2.714577 -3.250000 4.018913
    endloop
  endfacet
  facet normal 0.433884 -0.000000 -0.900969
    outer loop
      vertex -2.714577 -3.250000 4.018913
      vertex -2.602306 -3.250000 4.072980
      vertex -2.602306 -13.750000 4.072980
    endloop
  endfacet
  facet normal 0.433884 -0.000000 -0.900969
    outer loop
      vertex -2.714577 -3.250000 4.018913
      vertex -2.602306 -13.750000 4.072980
      vertex -2.714577 -13.750000 4.018913
    endloop
  endfacet
  facet normal 0.000000 1.000000 0.000000
    outer loop
      vertex -2.540000 -13.750000 3.800000
      vertex -2.602306 -13.750000 4.072980
      vertex -2.477694 -13.750000 4.072980
    endloop
  endfacet
  facet normal 0.000000 -1.000000 0.000000
    outer loop
      vertex -2.540000 -3.250000 3.800000
      vertex -2.477694 -3.250000 4.072980
      vertex -2.602306 -3.250000 4.072980
    endloop
  endfacet
  facet normal 0.000000 -0.000000 -1.000000
    outer loop
      vertex -2.602306 -3.250000 4.072980
      vertex -2.477694 -3.250000 4.072980
      vertex -2.477694 -13.750000 4.072980
    endloop
  endfacet
  facet normal 0.000000 -0.000000 -1.000000
    outer loop
      vertex -2.602306 -3.250000 4.072980
      vertex -2.477694 -13.750000 4.072980
      vertex -2.602306 -13.750000 4.072980
    endloop
  endfacet
  facet normal 0.000000 1.000000 0.000000
    outer loop
      vertex -2.540000 -13.750000 3.800000
      vertex -2.477694 -13.750000 4.072980
      vertex -2.365423 -13.750000 4.018913
    endloop
  endfacet
  facet normal 0.000000 -1.000000 0.000000
    outer loop
      vertex -2.540000 -3.250000 3.800000
      vertex -2.365423 -3.250000 4.018913
      vertex -2.477694 -3.250000 4.072980
    endloop
  endfacet
  facet normal -0.433884 -0.000000 -0.900969
    outer loop
      vertex -2.477694 -3.250000 4.072980
      vertex -2.365423 -3.250000 4.018913
      vertex -2.365423 -13.750000 4.018913
    endloop
  endfacet
  facet normal -0.433884 -0.000000 -0.900969
    outer loop
      vertex -2.477694 -3.250000 4.072980
      vertex -2.365423 -13.750000 4.018913
      vertex -2.477694 -13.750000 4.072980
    endloop
  endfacet
  facet normal 0.000000 1.000000 0.000000
    outer loop
      vertex -2.540000 -13.750000 3.800000
      vertex -2.365423 -13.750000 4.018913
      vertex -2.287729 -13.750000 3.921487
    endloop
  endfacet
  facet normal 0.000000 -1.000000 0.000000
    outer loop
      vertex -2.540000 -3.250000 3.800000
      vertex -2.287729 -3.250000 3.921487
      vertex -2.365423 -3.250000 4.018913
    endloop
  endfacet
  facet normal -0.781831 -0.000000 -0.623490
    outer loop
      vertex -2.365423 -3.250000 4.018913
      vertex -2.287729 -3.250000 3.921487
      vertex -2.287729 -13.750000 3.921487
    endloop
  endfacet
  facet normal -0.781831 -0.000000 -0.623490
    outer loop
      vertex -2.365423 -3.250000 4.018913
      vertex -2.287729 -13.750000 3.921487
      vertex -2.365423 -13.750000 4.018913
    endloop
  endfacet
  facet normal 0.000000 1.000000 0.000000
    outer loop
      vertex -2.540000 -13.750000 3.800000
      vertex -2.287729 -13.750000 3.921487
      vertex -2.260000 -13.750000 3.800000
    endloop
  endfacet
  facet normal 0.000000 -1.000000 0.000000
    outer loop
      vertex -2.540000 -3.250000 3.800000
      vertex -2.260000 -3.250000 3.800000
      vertex -2.287729 -3.250000 3.921487
    endloop
  endfacet
  facet normal -0.974928 -0.000000 -0.222521
    outer loop
      vertex -2.287729 -3.250000 3.921487
      vertex -2.260000 -3.250000 3.800000
      vertex -2.260000 -13.750000 3.800000
    endloop
  endfacet
  facet normal -0.974928 -0.000000 -0.222521
    outer loop
      vertex -2.287729 -3.250000 3.921487
      vertex -2.260000 -13.750000 3.800000
      vertex -2.287729 -13.750000 3.921487
    endloop
  endfacet
  facet normal 0.000000 1.000000 0.000000
    outer loop
      vertex 0.000000 -13.750000 3.800000
      vertex 0.280000 -13.750000 3.800000
      vertex 0.252271 -13.750000 3.678513
    endloop
  endfacet
  facet normal 0.000000 -1.000000 0.000000
    outer loop
      vertex 0.000000 -3.250000 3.800000
      vertex 0.252271 -3.250000 3.678513
      vertex 0.280000 -3.250000 3.800000
    endloop
  endfacet
  facet normal -0.974928 0.000000 0.222521
    outer loop
      vertex 0.280000 -3.250000 3.800000
      vertex 0.252271 -3.250000 3.678513
      vertex 0.252271 -13.750000 3.678513
    endloop
  endfacet
  facet normal -0.974928 0.000000 0.222521
    outer loop
      vertex 0.280000 -3.250000 3.800000
      vertex 0.252271 -13.750000 3.678513
      vertex 0.280000 -13.750000 3.800000
    endloop
  endfacet
  facet normal 0.000000 1.000000 0.000000
    outer loop
      vertex 0.000000 -13.750000 3.800000
      vertex 0.252271 -13.750000 3.678513
      vertex 0.174577 -13.750000 3.581087
    endloop
  endfacet
  facet normal 0.000000 -1.000000 0.000000
    outer loop
      vertex 0.000000 -3.250000 3.800000
      vertex 0.174577 -3.250000 3.581087
      vertex 0.252271 -3.250000 3.678513
    endloop
  endfacet
  facet normal -0.781831 0.000000 0.623490
    outer loop
      vertex 0.252271 -3.250000 3.678513
      vertex 0.174577 -3.250000 3.581087
      vertex 0.174577 -13.750000 3.581087
    endloop
  endfacet
  facet normal -0.781831 0.000000 0.623490
    outer loop
      vertex 0.252271 -3.250000 3.678513
      vertex 0.174577 -13.750000 3.581087
      vertex 0.252271 -13.750000 3.678513
    endloop
  endfacet
  facet normal 0.000000 1.000000 0.000000
    outer loop
      vertex 0.000000 -13.750000 3.800000
      vertex 0.174577 -13.750000 3.581087
      vertex 0.062306 -13.750000 3.527020
    endloop
  endfacet
  facet normal 0.000000 -1.000000 0.000000
    outer loop
      vertex 0.000000 -3.250000 3.800000
      vertex 0.062306 -3.250000 3.527020
      vertex 0.174577 -3.250000 3.581087
    endloop
  endfacet
  facet normal -0.433884 0.000000 0.900969
    outer loop
      vertex 0.174577 -3.250000 3.581087
      vertex 0.062306 -3.250000 3.527020
      vertex 0.062306 -13.750000 3.527020
    endloop
  endfacet
  facet normal -0.433884 0.000000 0.900969
    outer loop
      vertex 0.174577 -3.250000 3.581087
      vertex 0.062306 -13.750000 3.527020
      vertex 0.174577 -13.750000 3.581087
    endloop
  endfacet
  facet normal 0.000000 1.000000 0.000000
    outer loop
      vertex 0.000000 -13.750000 3.800000
      vertex 0.062306 -13.750000 3.527020
      vertex -0.062306 -13.750000 3.527020
    endloop
  endfacet
  facet normal 0.000000 -1.000000 0.000000
    outer loop
      vertex 0.000000 -3.250000 3.800000
      vertex -0.062306 -3.250000 3.527020
      vertex 0.062306 -3.250000 3.527020
    endloop
  endfacet
  facet normal 0.000000 0.000000 1.000000
    outer loop
      vertex 0.062306 -3.250000 3.527020
      vertex -0.062306 -3.250000 3.527020
      vertex -0.062306 -13.750000 3.527020
    endloop
  endfacet
  facet normal 0.000000 0.000000 1.000000
    outer loop
      vertex 0.062306 -3.250000 3.527020
      vertex -0.062306 -13.750000 3.527020
      vertex 0.062306 -13.750000 3.527020
    endloop
  endfacet
  facet normal 0.000000 1.000000 0.000000
    outer loop
      vertex 0.000000 -13.750000 3.800000
      vertex -0.062306 -13.750000 3.527020
      vertex -0.174577 -13.750000 3.581087
    endloop
  endfacet
  facet normal 0.000000 -1.000000 0.000000
    outer loop
      vertex 0.000000 -3.250000 3.800000
      vertex -0.174577 -3.250000 3.581087
      vertex -0.062306 -3.250000 3.527020
    endloop
  endfacet
  facet normal 0.433884 0.000000 0.900969
    outer loop
      vertex -0.062306 -3.250000 3.527020
      vertex -0.174577 -3.250000 3.581087
      vertex -0.174577 -13.750000 3.581087
    endloop
  endfacet
  facet normal 0.433884 0.000000 0.900969
    outer loop
      vertex -0.062306 -3.250000 3.527020
      vertex -0.174577 -13.750000 3.581087
      vertex -0.062306 -13.750000 3.527020
    endloop
  endfacet
  facet normal 0.000000 1.000000 0.000000
    outer loop
      vertex 0.000000 -13.750000 3.800000
      vertex -0.174577 -13.750000 3.581087
      vertex -0.252271 -13.750000 3.678513
    endloop
  endfacet
  facet normal 0.000000 -1.000000 0.000000
    outer loop
      vertex 0.000000 -3.250000 3.800000
      vertex -0.252271 -3.250000 3.678513
      vertex -0.174577 -3.250000 3.581087
    endloop
  endfacet
  facet normal 0.781831 0.000000 0.623490
    outer loop
      vertex -0.174577 -3.250000 3.581087
      vertex -0.252271 -3.250000 3.678513
      vertex -0.252271 -13.750000 3.678513
    endloop
  endfacet
  facet normal 0.781831 0.000000 0.623490
    outer loop
      vertex -0.174577 -3.250000 3.581087
      vertex -0.252271 -13.750000 3.678513
      vertex -0.174577 -13.750000 3.581087
    endloop
  endfacet
  facet normal 0.000000 1.000000 0.000000
    outer loop
      vertex 0.000000 -13.750000 3.800000
      vertex -0.252271 -13.750000 3.678513
      vertex -0.280000 -13.750000 3.800000
    endloop
  endfacet
  facet normal 0.000000 -1.000000 0.000000
    outer loop
      vertex 0.000000 -3.250000 3.800000
      vertex -0.280000 -3.250000 3.800000
      vertex -0.252271 -3.250000 3.678513
    endloop
  endfacet
  facet normal 0.974928 0.000000 0.222521
    outer loop
      vertex -0.252271 -3.250000 3.678513
      vertex -0.280000 -3.250000 3.800000
      vertex -0.280000 -13.750000 3.800000
    endloop
  endfacet
  facet normal 0.974928 0.000000 0.222521
    outer loop
      vertex -0.252271 -3.250000 3.678513
      vertex -0.280000 -13.750000 3.800000
      vertex -0.252271 -13.750000 3.678513
    endloop
  endfacet
  facet normal 0.000000 1.000000 0.000000
    outer loop
      vertex 0.000000 -13.750000 3.800000
      vertex -0.280000 -13.750000 3.800000
      vertex -0.252271 -13.750000 3.921487
    endloop
  endfacet
  facet normal 0.000000 -1.000000 0.000000
    outer loop
      vertex 0.000000 -3.250000 3.800000
      vertex -0.252271 -3.250000 3.921487
      vertex -0.280000 -3.250000 3.800000
    endloop
  endfacet
  facet normal 0.974928 -0.000000 -0.222521
    outer loop
      vertex -0.280000 -3.250000 3.800000
      vertex -0.252271 -3.250000 3.921487
      vertex -0.252271 -13.750000 3.921487
    endloop
  endfacet
  facet normal 0.974928 -0.000000 -0.222521
    outer loop
      vertex -0.280000 -3.250000 3.800000
      vertex -0.252271 -13.750000 3.921487
      vertex -0.280000 -13.750000 3.800000
    endloop
  endfacet
  facet normal 0.000000 1.000000 0.000000
    outer loop
      vertex 0.000000 -13.750000 3.800000
      vertex -0.252271 -13.750000 3.921487
      vertex -0.174577 -13.750000 4.018913
    endloop
  endfacet
  facet normal 0.000000 -1.000000 0.000000
    outer loop
      vertex 0.000000 -3.250000 3.800000
      vertex -0.174577 -3.250000 4.018913
      vertex -0.252271 -3.250000 3.921487
    endloop
  endfacet
  facet normal 0.781831 -0.000000 -0.623490
    outer loop
      vertex -0.252271 -3.250000 3.921487
      vertex -0.174577 -3.250000 4.018913
      vertex -0.174577 -13.750000 4.018913
    endloop
  endfacet
  facet normal 0.781831 -0.000000 -0.623490
    outer loop
      vertex -0.252271 -3.250000 3.921487
      vertex -0.174577 -13.750000 4.018913
      vertex -0.252271 -13.750000 3.921487
    endloop
  endfacet
  facet normal 0.000000 1.000000 0.000000
    outer loop
      vertex 0.000000 -13.750000 3.800000
      vertex -0.174577 -13.750000 4.018913
      vertex -0.062306 -13.750000 4.072980
    endloop
  endfacet
  facet normal 0.000000 -1.000000 0.000000
    outer loop
      vertex 0.000000 -3.250000 3.800000
      vertex -0.062306 -3.250000 4.072980
      vertex -0.174577 -3.250000 4.018913
    endloop
  endfacet
  facet normal 0.433884 -0.000000 -0.900969
    outer loop
      vertex -0.174577 -3.250000 4.018913
      vertex -0.062306 -3.250000 4.072980
      vertex -0.062306 -13.750000 4.072980
    endloop
  endfacet
  facet normal 0.433884 -0.000000 -0.900969
    outer loop
      vertex -0.174577 -3.250000 4.018913
      vertex -0.062306 -13.750000 4.072980
      vertex -0.174577 -13.750000 4.018913
    endloop
  endfacet
  facet normal 0.000000 1.000000 0.000000
    outer loop
      vertex 0.000000 -13.750000 3.800000
      vertex -0.062306 -13.750000 4.072980
      vertex 0.062306 -13.750000 4.072980
    endloop
  endfacet
  facet normal 0.000000 -1.000000 0.000000
    outer loop
      vertex 0.000000 -3.250000 3.800000
      vertex 0.062306 -3.250000 4.072980
      vertex -0.062306 -3.250000 4.072980
    endloop
  endfacet
  facet normal 0.000000 -0.000000 -1.000000
    outer loop
      vertex -0.062306 -3.250000 4.072980
      vertex 0.062306 -3.250000 4.072980
      vertex 0.062306 -13.750000 4.072980
    endloop
  endfacet
  facet normal 0.000000 -0.000000 -1.000000
    outer loop
      vertex -0.062306 -3.250000 4.072980
      vertex 0.062306 -13.750000 4.072980
      vertex -0.062306 -13.750000 4.072980
    endloop
  endfacet
  facet normal 0.000000 1.000000 0.000000
    outer loop
      vertex 0.000000 -13.750000 3.800000
      vertex 0.062306 -13.750000 4.072980
      vertex 0.174577 -13.750000 4.018913
    endloop
  endfacet
  facet normal 0.000000 -1.000000 0.000000
    outer loop
      vertex 0.000000 -3.250000 3.800000
      vertex 0.174577 -3.250000 4.018913
      vertex 0.062306 -3.250000 4.072980
    endloop
  endfacet
  facet normal -0.433884 -0.000000 -0.900969
    outer loop
      vertex 0.062306 -3.250000 4.072980
      vertex 0.174577 -3.250000 4.018913
      vertex 0.174577 -13.750000 4.018913
    endloop
  endfacet
  facet normal -0.433884 -0.000000 -0.900969
    outer loop
      vertex 0.062306 -3.250000 4.072980
      vertex 0.174577 -13.750000 4.018913
      vertex 0.062306 -13.750000 4.072980
    endloop
  endfacet
  facet normal 0.000000 1.000000 0.000000
    outer loop
      vertex 0.000000 -13.750000 3.800000
      vertex 0.174577 -13.750000 4.018913
      vertex 0.252271 -13.750000 3.921487
    endloop
  endfacet
  facet normal 0.000000 -1.000000 0.000000
    outer loop
      vertex 0.000000 -3.250000 3.800000
      vertex 0.252271 -3.250000 3.921487
      vertex 0.174577 -3.250000 4.018913
    endloop
  endfacet
  facet normal -0.781831 -0.000000 -0.623490
    outer loop
      vertex 0.174577 -3.250000 4.018913
      vertex 0.252271 -3.250000 3.921487
      vertex 0.252271 -13.750000 3.921487
    endloop
  endfacet
  facet normal -0.781831 -0.000000 -0.623490
    outer loop
      vertex 0.174577 -3.250000 4.018913
      vertex 0.252271 -13.750000 3.921487
      vertex 0.174577 -13.750000 4.018913
    endloop
  endfacet
  facet normal 0.000000 1.000000 0.000000
    outer loop
      vertex 0.000000 -13.750000 3.800000
      vertex 0.252271 -13.750000 3.921487
      vertex 0.280000 -13.750000 3.800000
    endloop
  endfacet
  facet normal 0.000000 -1.000000 0.000000
    outer loop
      vertex 0.000000 -3.250000 3.800000
      vertex 0.280000 -3.250000 3.800000
      vertex 0.252271 -3.250000 3.921487
    endloop
  endfacet
  facet normal -0.974928 -0.000000 -0.222521
    outer loop
      vertex 0.252271 -3.250000 3.921487
      vertex 0.280000 -3.250000 3.800000
      vertex 0.280000 -13.750000 3.800000
    endloop
  endfacet
  facet normal -0.974928 -0.000000 -0.222521
    outer loop
      vertex 0.252271 -3.250000 3.921487
      vertex 0.280000 -13.750000 3.800000
      vertex 0.252271 -13.750000 3.921487
    endloop
  endfacet
  facet normal 0.000000 1.000000 0.000000
    outer loop
      vertex 2.540000 -13.750000 3.800000
      vertex 2.820000 -13.750000 3.800000
      vertex 2.792271 -13.750000 3.678513
    endloop
  endfacet
  facet normal 0.000000 -1.000000 0.000000
    outer loop
      vertex 2.540000 -3.250000 3.800000
      vertex 2.792271 -3.250000 3.678513
      vertex 2.820000 -3.250000 3.800000
    endloop
  endfacet
  facet normal -0.974928 0.000000 0.222521
    outer loop
      vertex 2.820000 -3.250000 3.800000
      vertex 2.792271 -3.250000 3.678513
      vertex 2.792271 -13.750000 3.678513
    endloop
  endfacet
  facet normal -0.974928 0.000000 0.222521
    outer loop
      vertex 2.820000 -3.250000 3.800000
      vertex 2.792271 -13.750000 3.678513
      vertex 2.820000 -13.750000 3.800000
    endloop
  endfacet
  facet normal 0.000000 1.000000 0.000000
    outer loop
      vertex 2.540000 -13.750000 3.800000
      vertex 2.792271 -13.750000 3.678513
      vertex 2.714577 -13.750000 3.581087
    endloop
  endfacet
  facet normal 0.000000 -1.000000 0.000000
    outer loop
      vertex 2.540000 -3.250000 3.800000
      vertex 2.714577 -3.250000 3.581087
      vertex 2.792271 -3.250000 3.678513
    endloop
  endfacet
  facet normal -0.781831 0.000000 0.623490
    outer loop
      vertex 2.792271 -3.250000 3.678513
      vertex 2.714577 -3.250000 3.581087
      vertex 2.714577 -13.750000 3.581087
    endloop
  endfacet
  facet normal -0.781831 0.000000 0.623490
    outer loop
      vertex 2.792271 -3.250000 3.678513
      vertex 2.714577 -13.750000 3.581087
      vertex 2.792271 -13.750000 3.678513
    endloop
  endfacet
  facet normal 0.000000 1.000000 0.000000
    outer loop
      vertex 2.540000 -13.750000 3.800000
      vertex 2.714577 -13.750000 3.581087
      vertex 2.602306 -13.750000 3.527020
    endloop
  endfacet
  facet normal 0.000000 -1.000000 0.000000
    outer loop
      vertex 2.540000 -3.250000 3.800000
      vertex 2.602306 -3.250000 3.527020
      vertex 2.714577 -3.250000 3.581087
    endloop
  endfacet
  facet normal -0.433884 0.000000 0.900969
    outer loop
      vertex 2.714577 -3.250000 3.581087
      vertex 2.602306 -3.250000 3.527020
      vertex 2.602306 -13.750000 3.527020
    endloop
  endfacet
  facet normal -0.433884 0.000000 0.900969
    outer loop
      vertex 2.714577 -3.250000 3.581087
      vertex 2.602306 -13.750000 3.527020
      vertex 2.714577 -13.750000 3.581087
    endloop
  endfacet
  facet normal 0.000000 1.000000 0.000000
    outer loop
      vertex 2.540000 -13.750000 3.800000
      vertex 2.602306 -13.750000 3.527020
      vertex 2.477694 -13.750000 3.527020
    endloop
  endfacet
  facet normal 0.000000 -1.000000 0.000000
    outer loop
      vertex 2.540000 -3.250000 3.800000
      vertex 2.477694 -3.250000 3.527020
      vertex 2.602306 -3.250000 3.527020
    endloop
  endfacet
  facet normal 0.000000 0.000000 1.000000
    outer loop
      vertex 2.602306 -3.250000 3.527020
      vertex 2.477694 -3.250000 3.527020
      vertex 2.477694 -13.750000 3.527020
    endloop
  endfacet
  facet normal 0.000000 0.000000 1.000000
    outer loop
      vertex 2.602306 -3.250000 3.527020
      vertex 2.477694 -13.750000 3.527020
      vertex 2.602306 -13.750000 3.527020
    endloop
  endfacet
  facet normal 0.000000 1.000000 0.000000
    outer loop
      vertex 2.540000 -13.750000 3.800000
      vertex 2.477694 -13.750000 3.527020
      vertex 2.365423 -13.750000 3.581087
    endloop
  endfacet
  facet normal 0.000000 -1.000000 0.000000
    outer loop
      vertex 2.540000 -3.250000 3.800000
      vertex 2.365423 -3.250000 3.581087
      vertex 2.477694 -3.250000 3.527020
    endloop
  endfacet
  facet normal 0.433884 0.000000 0.900969
    outer loop
      vertex 2.477694 -3.250000 3.527020
      vertex 2.365423 -3.250000 3.581087
      vertex 2.365423 -13.750000 3.581087
    endloop
  endfacet
  facet normal 0.433884 0.000000 0.900969
    outer loop
      vertex 2.477694 -3.250000 3.527020
      vertex 2.365423 -13.750000 3.581087
      vertex 2.477694 -13.750000 3.527020
    endloop
  endfacet
  facet normal 0.000000 1.000000 0.000000
    outer loop
      vertex 2.540000 -13.750000 3.800000
      vertex 2.365423 -13.750000 3.581087
      vertex 2.287729 -13.750000 3.678513
    endloop
  endfacet
  facet normal 0.000000 -1.000000 0.000000
    outer loop
      vertex 2.540000 -3.250000 3.800000
      vertex 2.287729 -3.250000 3.678513
      vertex 2.365423 -3.250000 3.581087
    endloop
  endfacet
  facet normal 0.781831 0.000000 0.623490
    outer loop
      vertex 2.365423 -3.250000 3.581087
      vertex 2.287729 -3.250000 3.678513
      vertex 2.287729 -13.750000 3.678513
    endloop
  endfacet
  facet normal 0.781831 0.000000 0.623490
    outer loop
      vertex 2.365423 -3.250000 3.581087
      vertex 2.287729 -13.750000 3.678513
      vertex 2.365423 -13.750000 3.581087
    endloop
  endfacet
  facet normal 0.000000 1.000000 0.000000
    outer loop
      vertex 2.540000 -13.750000 3.800000
      vertex 2.287729 -13.750000 3.678513
      vertex 2.260000 -13.750000 3.800000
    endloop
  endfacet
  facet normal 0.000000 -1.000000 0.000000
    outer loop
      vertex 2.540000 -3.250000 3.800000
      vertex 2.260000 -3.250000 3.800000
      vertex 2.287729 -3.250000 3.678513
    endloop
  endfacet
  facet normal 0.974928 0.000000 0.222521
    outer loop
      vertex 2.287729 -3.250000 3.678513
      vertex 2.260000 -3.250000 3.800000
      vertex 2.260000 -13.750000 3.800000
    endloop
  endfacet
  facet normal 0.974928 0.000000 0.222521
    outer loop
      vertex 2.287729 -3.250000 3.678513
      vertex 2.260000 -13.750000 3.800000
      vertex 2.287729 -13.750000 3.678513
    endloop
  endfacet
  facet normal 0.000000 1.000000 0.000000
    outer loop
      vertex 2.540000 -13.750000 3.800000
      vertex 2.260000 -13.750000 3.800000
      vertex 2.287729 -13.750000 3.921487
    endloop
  endfacet
  facet normal 0.000000 -1.000000 0.000000
    outer loop
      vertex 2.540000 -3.250000 3.800000
      vertex 2.287729 -3.250000 3.921487
      vertex 2.260000 -3.250000 3.800000
    endloop
  endfacet
  facet normal 0.974928 -0.000000 -0.222521
    outer loop
      vertex 2.260000 -3.250000 3.800000
      vertex 2.287729 -3.250000 3.921487
      vertex 2.287729 -13.750000 3.921487
    endloop
  endfacet
  facet normal 0.974928 -0.000000 -0.222521
    outer loop
      vertex 2.260000 -3.250000 3.800000
      vertex 2.287729 -13.750000 3.921487
      vertex 2.260000 -13.750000 3.800000
    endloop
  endfacet
  facet normal 0.000000 1.000000 0.000000
    outer loop
      vertex 2.540000 -13.750000 3.800000
      vertex 2.287729 -13.750000 3.921487
      vertex 2.365423 -13.750000 4.018913
    endloop
  endfacet
  facet normal 0.000000 -1.000000 0.000000
    outer loop
      vertex 2.540000 -3.250000 3.800000
      vertex 2.365423 -3.250000 4.018913
      vertex 2.287729 -3.250000 3.921487
    endloop
  endfacet
  facet normal 0.781831 -0.000000 -0.623490
    outer loop
      vertex 2.287729 -3.250000 3.921487
      vertex 2.365423 -3.250000 4.018913
      vertex 2.365423 -13.750000 4.018913
    endloop
  endfacet
  facet normal 0.781831 -0.000000 -0.623490
    outer loop
      vertex 2.287729 -3.250000 3.921487
      vertex 2.365423 -13.750000 4.018913
      vertex 2.287729 -13.750000 3.921487
    endloop
  endfacet
  facet normal 0.000000 1.000000 0.000000
    outer loop
      vertex 2.540000 -13.750000 3.800000
      vertex 2.365423 -13.750000 4.018913
      vertex 2.477694 -13.750000 4.072980
    endloop
  endfacet
  facet normal 0.000000 -1.000000 0.000000
    outer loop
      vertex 2.540000 -3.250000 3.800000
      vertex 2.477694 -3.250000 4.072980
      vertex 2.365423 -3.250000 4.018913
    endloop
  endfacet
  facet normal 0.433884 -0.000000 -0.900969
    outer loop
      vertex 2.365423 -3.250000 4.018913
      vertex 2.477694 -3.250000 4.072980
      vertex 2.477694 -13.750000 4.072980
    endloop
  endfacet
  facet normal 0.433884 -0.000000 -0.900969
    outer loop
      vertex 2.365423 -3.250000 4.018913
      vertex 2.477694 -13.750000 4.072980
      vertex 2.365423 -13.750000 4.018913
    endloop
  endfacet
  facet normal 0.000000 1.000000 0.000000
    outer loop
      vertex 2.540000 -13.750000 3.800000
      vertex 2.477694 -13.750000 4.072980
      vertex 2.602306 -13.750000 4.072980
    endloop
  endfacet
  facet normal 0.000000 -1.000000 0.000000
    outer loop
      vertex 2.540000 -3.250000 3.800000
      vertex 2.602306 -3.250000 4.072980
      vertex 2.477694 -3.250000 4.072980
    endloop
  endfacet
  facet normal 0.000000 -0.000000 -1.000000
    outer loop
      vertex 2.477694 -3.250000 4.072980
      vertex 2.602306 -3.250000 4.072980
      vertex 2.602306 -13.750000 4.072980
    endloop
  endfacet
  facet normal 0.000000 -0.000000 -1.000000
    outer loop
      vertex 2.477694 -3.250000 4.072980
      vertex 2.602306 -13.750000 4.072980
      vertex 2.477694 -13.750000 4.072980
    endloop
  endfacet
  facet normal 0.000000 1.000000 0.000000
    outer loop
      vertex 2.540000 -13.750000 3.800000
      vertex 2.602306 -13.750000 4.072980
      vertex 2.714577 -13.750000 4.018913
    endloop
  endfacet
  facet normal 0.000000 -1.000000 0.000000
    outer loop
      vertex 2.540000 -3.250000 3.800000
      vertex 2.714577 -3.250000 4.018913
      vertex 2.602306 -3.250000 4.072980
    endloop
  endfacet
  facet normal -0.433884 -0.000000 -0.900969
    outer loop
      vertex 2.602306 -3.250000 4.072980
      vertex 2.714577 -3.250000 4.018913
      vertex 2.714577 -13.750000 4.018913
    endloop
  endfacet
  facet normal -0.433884 -0.000000 -0.900969
    outer loop
      vertex 2.602306 -3.250000 4.072980
      vertex 2.714577 -13.750000 4.018913
      vertex 2.602306 -13.750000 4.072980
    endloop
  endfacet
  facet normal 0.000000 1.000000 0.000000
    outer loop
      vertex 2.540000 -13.750000 3.800000
      vertex 2.714577 -13.750000 4.018913
      vertex 2.792271 -13.750000 3.921487
    endloop
  endfacet
  facet normal 0.000000 -1.000000 0.000000
    outer loop
      vertex 2.540000 -3.250000 3.800000
      vertex 2.792271 -3.250000 3.921487
      vertex 2.714577 -3.250000 4.018913
    endloop
  endfacet
  facet normal -0.781831 -0.000000 -0.623490
    outer loop
      vertex 2.714577 -3.250000 4.018913
      vertex 2.792271 -3.250000 3.921487
      vertex 2.792271 -13.750000 3.921487
    endloop
  endfacet
  facet normal -0.781831 -0.000000 -0.623490
    outer loop
      vertex 2.714577 -3.250000 4.018913
      vertex 2.792271 -13.750000 3.921487
      vertex 2.714577 -13.750000 4.018913
    endloop
  endfacet
  facet normal 0.000000 1.000000 0.000000
    outer loop
      vertex 2.540000 -13.750000 3.800000
      vertex 2.792271 -13.750000 3.921487
      vertex 2.820000 -13.750000 3.800000
    endloop
  endfacet
  facet normal 0.000000 -1.000000 0.000000
    outer loop
      vertex 2.540000 -3.250000 3.800000
      vertex 2.820000 -3.250000 3.800000
      vertex 2.792271 -3.250000 3.921487
    endloop
  endfacet
  facet normal -0.974928 -0.000000 -0.222521
    outer loop
      vertex 2.792271 -3.250000 3.921487
      vertex 2.820000 -3.250000 3.800000
      vertex 2.820000 -13.750000 3.800000
    endloop
  endfacet
  facet normal -0.974928 -0.000000 -0.222521
    outer loop
      vertex 2.792271 -3.250000 3.921487
      vertex 2.820000 -13.750000 3.800000
      vertex 2.792271 -13.750000 3.921487
    endloop
  endfacet
  facet normal 0.000000 -1.000000 0.000000
    outer loop
      vertex -10.000000 3.250000 -5.000000
      vertex 10.000000 3.250000 -5.000000
      vertex 10.000000 3.250000 5.000000
    endloop
  endfacet
  facet normal 0.000000 -1.000000 0.000000
    outer loop
      vertex -10.000000 3.250000 -5.000000
      vertex 10.000000 3.250000 5.000000
      vertex -10.000000 3.250000 5.000000
    endloop
  endfacet
  facet normal 0.000000 1.000000 0.000000
    outer loop
      vertex -10.000000 -3.250000 5.000000
      vertex 10.000000 -3.250000 5.000000
      vertex 10.000000 -3.250000 -5.000000
    endloop
  endfacet
  facet normal 0.000000 1.000000 0.000000
    outer loop
      vertex -10.000000 -3.250000 5.000000
      vertex 10.000000 -3.250000 -5.000000
      vertex -10.000000 -3.250000 -5.000000
    endloop
  endfacet
  facet normal 0.000000 0.000000 -1.000000
    outer loop
      vertex -10.000000 3.250000 5.000000
      vertex 10.000000 3.250000 5.000000
      vertex 10.000000 -3.250000 5.000000
    endloop
  endfacet
  facet normal 0.000000 0.000000 -1.000000
    outer loop
      vertex -10.000000 3.250000 5.000000
      vertex 10.000000 -3.250000 5.000000
      vertex -10.000000 -3.250000 5.000000
    endloop
  endfacet
  facet normal 0.000000 0.000000 1.000000
    outer loop
      vertex 10.000000 -3.250000 -5.000000
      vertex 10.000000 3.250000 -5.000000
      vertex -10.000000 3.250000 -5.000000
    endloop
  endfacet
  facet normal 0.000000 0.000000 1.000000
    outer loop
      vertex 10.000000 -3.250000 -5.000000
      vertex -10.000000 3.250000 -5.000000
      vertex -10.000000 -3.250000 -5.000000
    endloop
  endfacet
  facet normal -1.000000 0.000000 0.000000
    outer loop
      vertex 10.000000 -3.250000 5.000000
      vertex 10.000000 3.250000 5.000000
      vertex 10.000000 3.250000 -5.000000
    endloop
  endfacet
  facet normal -1.000000 0.000000 0.000000
    outer loop
      vertex 10.000000 -3.250000 5.000000
      vertex 10.000000 3.250000 -5.000000
      vertex 10.000000 -3.250000 -5.000000
    endloop
  endfacet
  facet normal 1.000000 0.000000 0.000000
    outer loop
      vertex -10.000000 -3.250000 -5.000000
      vertex -10.000000 3.250000 -5.000000
      vertex -10.000000 3.250000 5.000000
    endloop
  endfacet
  facet normal 1.000000 0.000000 0.000000
    outer loop
      vertex -10.000000 -3.250000 -5.000000
      vertex -10.000000 3.250000 5.000000
      vertex -10.000000 -3.250000 5.000000
    endloop
  endfacet
  facet normal -0.207912 -0.978148 0.000000
    outer loop
      vertex -8.735757 6.789103 -4.000000
      vertex 8.870900 3.046693 -4.000000
      vertex 8.870900 3.046693 -2.000000
    endloop
  endfacet
  facet normal -0.207912 -0.978148 0.000000
    outer loop
      vertex -8.735757 6.789103 -4.000000
      vertex 8.870900 3.046693 -2.000000
      vertex -8.735757 6.789103 -2.000000
    endloop
  endfacet
  facet normal 0.207912 0.978148 0.000000
    outer loop
      vertex -8.870900 6.153307 -2.000000
      vertex 8.735757 2.410897 -2.000000
      vertex 8.735757 2.410897 -4.000000
    endloop
  endfacet
  facet normal 0.207912 0.978148 0.000000
    outer loop
      vertex -8.870900 6.153307 -2.000000
      vertex 8.735757 2.410897 -4.000000
      vertex -8.870900 6.153307 -4.000000
    endloop
  endfacet
  facet normal 0.000000 0.000000 -1.000000
    outer loop
      vertex -8.735757 6.789103 -2.000000
      vertex 8.870900 3.046693 -2.000000
      vertex 8.735757 2.410897 -2.000000
    endloop
  endfacet
  facet normal 0.000000 0.000000 -1.000000
    outer loop
      vertex -8.735757 6.789103 -2.000000
      vertex 8.735757 2.410897 -2.000000
      vertex -8.870900 6.153307 -2.000000
    endloop
  endfacet
  facet normal 0.000000 0.000000 1.000000
    outer loop
      vertex 8.735757 2.410897 -4.000000
      vertex 8.870900 3.046693 -4.000000
      vertex -8.735757 6.789103 -4.000000
    endloop
  endfacet
  facet normal 0.000000 0.000000 1.000000
    outer loop
      vertex 8.735757 2.410897 -4.000000
      vertex -8.735757 6.789103 -4.000000
      vertex -8.870900 6.153307 -4.000000
    endloop
  endfacet
  facet normal -0.978148 0.207912 0.000000
    outer loop
      vertex 8.735757 2.410897 -2.000000
      vertex 8.870900 3.046693 -2.000000
      vertex 8.870900 3.046693 -4.000000
    endloop
  endfacet
  facet normal -0.978148 0.207912 0.000000
    outer loop
      vertex 8.735757 2.410897 -2.000000
      vertex 8.870900 3.046693 -4.000000
      vertex 8.735757 2.410897 -4.000000
    endloop
  endfacet
  facet normal 0.978148 -0.207912 0.000000
    outer loop
      vertex -8.870900 6.153307 -4.000000
      vertex -8.735757 6.789103 -4.000000
      vertex -8.735757 6.789103 -2.000000
    endloop
  endfacet
  facet normal 0.978148 -0.207912 0.000000
    outer loop
      vertex -8.870900 6.153307 -4.000000
      vertex -8.735757 6.789103 -2.000000
      vertex -8.870900 6.153307 -2.000000
    endloop
  endfacet
  facet normal 0.000000 0.000000 -1.000000
    outer loop
      vertex 8.200000 5.700000 -3.100000
      vertex 10.000000 5.700000 -3.100000
      vertex 9.938666 5.234126 -3.100000
    endloop
  endfacet
  facet normal 0.000000 0.000000 1.000000
    outer loop
      vertex 8.200000 5.700000 -5.300000
      vertex 9.938666 5.234126 -5.300000
      vertex 10.000000 5.700000 -5.300000
    endloop
  endfacet
  facet normal -0.991445 0.130526 0.000000
    outer loop
      vertex 10.000000 5.700000 -5.300000
      vertex 9.938666 5.234126 -5.300000
      vertex 9.938666 5.234126 -3.100000
    endloop
  endfacet
  facet normal -0.991445 0.130526 0.000000
    outer loop
      vertex 10.000000 5.700000 -5.300000
      vertex 9.938666 5.234126 -3.100000
      vertex 10.000000 5.700000 -3.100000
    endloop
  endfacet
  facet normal 0.000000 0.000000 -1.000000
    outer loop
      vertex 8.200000 5.700000 -3.100000
      vertex 9.938666 5.234126 -3.100000
      vertex 9.758846 4.800000 -3.100000
    endloop
  endfacet
  facet normal 0.000000 0.000000 1.000000
    outer loop
      vertex 8.200000 5.700000 -5.300000
      vertex 9.758846 4.800000 -5.300000
      vertex 9.938666 5.234126 -5.300000
    endloop
  endfacet
  facet normal -0.923880 0.382683 -0.000000
    outer loop
      vertex 9.938666 5.234126 -5.300000
      vertex 9.758846 4.800000 -5.300000
      vertex 9.758846 4.800000 -3.100000
    endloop
  endfacet
  facet normal -0.923880 0.382683 0.000000
    outer loop
      vertex 9.938666 5.234126 -5.300000
      vertex 9.758846 4.800000 -3.100000
      vertex 9.938666 5.234126 -3.100000
    endloop
  endfacet
  facet normal 0.000000 0.000000 -1.000000
    outer loop
      vertex 8.200000 5.700000 -3.100000
      vertex 9.758846 4.800000 -3.100000
      vertex 9.472792 4.427208 -3.100000
    endloop
  endfacet
  facet normal 0.000000 0.000000 1.000000
    outer loop
      vertex 8.200000 5.700000 -5.300000
      vertex 9.472792 4.427208 -5.300000
      vertex 9.758846 4.800000 -5.300000
    endloop
  endfacet
  facet normal -0.793353 0.608761 0.000000
    outer loop
      vertex 9.758846 4.800000 -5.300000
      vertex 9.472792 4.427208 -5.300000
      vertex 9.472792 4.427208 -3.100000
    endloop
  endfacet
  facet normal -0.793353 0.608761 -0.000000
    outer loop
      vertex 9.758846 4.800000 -5.300000
      vertex 9.472792 4.427208 -3.100000
      vertex 9.758846 4.800000 -3.100000
    endloop
  endfacet
  facet normal 0.000000 0.000000 -1.000000
    outer loop
      vertex 8.200000 5.700000 -3.100000
      vertex 9.472792 4.427208 -3.100000
      vertex 9.100000 4.141154 -3.100000
    endloop
  endfacet
  facet normal 0.000000 0.000000 1.000000
    outer loop
      vertex 8.200000 5.700000 -5.300000
      vertex 9.100000 4.141154 -5.300000
      vertex 9.472792 4.427208 -5.300000
    endloop
  endfacet
  facet normal -0.608761 0.793353 0.000000
    outer loop
      vertex 9.472792 4.427208 -5.300000
      vertex 9.100000 4.141154 -5.300000
      vertex 9.100000 4.141154 -3.100000
    endloop
  endfacet
  facet normal -0.608761 0.793353 0.000000
    outer loop
      vertex 9.472792 4.427208 -5.300000
      vertex 9.100000 4.141154 -3.100000
      vertex 9.472792 4.427208 -3.100000
    endloop
  endfacet
  facet normal 0.000000 0.000000 -1.000000
    outer loop
      vertex 8.200000 5.700000 -3.100000
      vertex 9.100000 4.141154 -3.100000
      vertex 8.665874 3.961334 -3.100000
    endloop
  endfacet
  facet normal 0.000000 0.000000 1.000000
    outer loop
      vertex 8.200000 5.700000 -5.300000
      vertex 8.665874 3.961334 -5.300000
      vertex 9.100000 4.141154 -5.300000
    endloop
  endfacet
  facet normal -0.382683 0.923880 0.000000
    outer loop
      vertex 9.100000 4.141154 -5.300000
      vertex 8.665874 3.961334 -5.300000
      vertex 8.665874 3.961334 -3.100000
    endloop
  endfacet
  facet normal -0.382683 0.923880 0.000000
    outer loop
      vertex 9.100000 4.141154 -5.300000
      vertex 8.665874 3.961334 -3.100000
      vertex 9.100000 4.141154 -3.100000
    endloop
  endfacet
  facet normal 0.000000 0.000000 -1.000000
    outer loop
      vertex 8.200000 5.700000 -3.100000
      vertex 8.665874 3.961334 -3.100000
      vertex 8.200000 3.900000 -3.100000
    endloop
  endfacet
  facet normal 0.000000 0.000000 1.000000
    outer loop
      vertex 8.200000 5.700000 -5.300000
      vertex 8.200000 3.900000 -5.300000
      vertex 8.665874 3.961334 -5.300000
    endloop
  endfacet
  facet normal -0.130526 0.991445 0.000000
    outer loop
      vertex 8.665874 3.961334 -5.300000
      vertex 8.200000 3.900000 -5.300000
      vertex 8.200000 3.900000 -3.100000
    endloop
  endfacet
  facet normal -0.130526 0.991445 0.000000
    outer loop
      vertex 8.665874 3.961334 -5.300000
      vertex 8.200000 3.900000 -3.100000
      vertex 8.665874 3.961334 -3.100000
    endloop
  endfacet
  facet normal 0.000000 0.000000 -1.000000
    outer loop
      vertex 8.200000 5.700000 -3.100000
      vertex 8.200000 3.900000 -3.100000
      vertex 7.734126 3.961334 -3.100000
    endloop
  endfacet
  facet normal 0.000000 0.000000 1.000000
    outer loop
      vertex 8.200000 5.700000 -5.300000
      vertex 7.734126 3.961334 -5.300000
      vertex 8.200000 3.900000 -5.300000
    endloop
  endfacet
  facet normal 0.130526 0.991445 0.000000
    outer loop
      vertex 8.200000 3.900000 -5.300000
      vertex 7.734126 3.961334 -5.300000
      vertex 7.734126 3.961334 -3.100000
    endloop
  endfacet
  facet normal 0.130526 0.991445 0.000000
    outer loop
      vertex 8.200000 3.900000 -5.300000
      vertex 7.734126 3.961334 -3.100000
      vertex 8.200000 3.900000 -3.100000
    endloop
  endfacet
  facet normal 0.000000 0.000000 -1.000000
    outer loop
      vertex 8.200000 5.700000 -3.100000
      vertex 7.734126 3.961334 -3.100000
      vertex 7.300000 4.141154 -3.100000
    endloop
  endfacet
  facet normal 0.000000 0.000000 1.000000
    outer loop
      vertex 8.200000 5.700000 -5.300000
      vertex 7.300000 4.141154 -5.300000
      vertex 7.734126 3.961334 -5.300000
    endloop
  endfacet
  facet normal 0.382683 0.923880 0.000000
    outer loop
      vertex 7.734126 3.961334 -5.300000
      vertex 7.300000 4.141154 -5.300000
      vertex 7.300000 4.141154 -3.100000
    endloop
  endfacet
  facet normal 0.382683 0.923880 0.000000
    outer loop
      vertex 7.734126 3.961334 -5.300000
      vertex 7.300000 4.141154 -3.100000
      vertex 7.734126 3.961334 -3.100000
    endloop
  endfacet
  facet normal 0.000000 0.000000 -1.000000
    outer loop
      vertex 8.200000 5.700000 -3.100000
      vertex 7.300000 4.141154 -3.100000
      vertex 6.927208 4.427208 -3.100000
    endloop
  endfacet
  facet normal 0.000000 0.000000 1.000000
    outer loop
      vertex 8.200000 5.700000 -5.300000
      vertex 6.927208 4.427208 -5.300000
      vertex 7.300000 4.141154 -5.300000
    endloop
  endfacet
  facet normal 0.608761 0.793353 0.000000
    outer loop
      vertex 7.300000 4.141154 -5.300000
      vertex 6.927208 4.427208 -5.300000
      vertex 6.927208 4.427208 -3.100000
    endloop
  endfacet
  facet normal 0.608761 0.793353 0.000000
    outer loop
      vertex 7.300000 4.141154 -5.300000
      vertex 6.927208 4.427208 -3.100000
      vertex 7.300000 4.141154 -3.100000
    endloop
  endfacet
  facet normal 0.000000 0.000000 -1.000000
    outer loop
      vertex 8.200000 5.700000 -3.100000
      vertex 6.927208 4.427208 -3.100000
      vertex 6.641154 4.800000 -3.100000
    endloop
  endfacet
  facet normal 0.000000 0.000000 1.000000
    outer loop
      vertex 8.200000 5.700000 -5.300000
      vertex 6.641154 4.800000 -5.300000
      vertex 6.927208 4.427208 -5.300000
    endloop
  endfacet
  facet normal 0.793353 0.608761 -0.000000
    outer loop
      vertex 6.927208 4.427208 -5.300000
      vertex 6.641154 4.800000 -5.300000
      vertex 6.641154 4.800000 -3.100000
    endloop
  endfacet
  facet normal 0.793353 0.608761 0.000000
    outer loop
      vertex 6.927208 4.427208 -5.300000
      vertex 6.641154 4.800000 -3.100000
      vertex 6.927208 4.427208 -3.100000
    endloop
  endfacet
  facet normal 0.000000 0.000000 -1.000000
    outer loop
      vertex 8.200000 5.700000 -3.100000
      vertex 6.641154 4.800000 -3.100000
      vertex 6.461334 5.234126 -3.100000
    endloop
  endfacet
  facet normal 0.000000 0.000000 1.000000
    outer loop
      vertex 8.200000 5.700000 -5.300000
      vertex 6.461334 5.234126 -5.300000
      vertex 6.641154 4.800000 -5.300000
    endloop
  endfacet
  facet normal 0.923880 0.382683 -0.000000
    outer loop
      vertex 6.641154 4.800000 -5.300000
      vertex 6.461334 5.234126 -5.300000
      vertex 6.461334 5.234126 -3.100000
    endloop
  endfacet
  facet normal 0.923880 0.382683 -0.000000
    outer loop
      vertex 6.641154 4.800000 -5.300000
      vertex 6.461334 5.234126 -3.100000
      vertex 6.641154 4.800000 -3.100000
    endloop
  endfacet
  facet normal 0.000000 0.000000 -1.000000
    outer loop
      vertex 8.200000 5.700000 -3.100000
      vertex 6.461334 5.234126 -3.100000
      vertex 6.400000 5.700000 -3.100000
    endloop
  endfacet
  facet normal 0.000000 0.000000 1.000000
    outer loop
      vertex 8.200000 5.700000 -5.300000
      vertex 6.400000 5.700000 -5.300000
      vertex 6.461334 5.234126 -5.300000
    endloop
  endfacet
  facet normal 0.991445 0.130526 0.000000
    outer loop
      vertex 6.461334 5.234126 -5.300000
      vertex 6.400000 5.700000 -5.300000
      vertex 6.400000 5.700000 -3.100000
    endloop
  endfacet
  facet normal 0.991445 0.130526 -0.000000
    outer loop
      vertex 6.461334 5.234126 -5.300000
      vertex 6.400000 5.700000 -3.100000
      vertex 6.461334 5.234126 -3.100000
    endloop
  endfacet
  facet normal 0.000000 0.000000 -1.000000
    outer loop
      vertex 8.200000 5.700000 -3.100000
      vertex 6.400000 5.700000 -3.100000
      vertex 6.461334 6.165874 -3.100000
    endloop
  endfacet
  facet normal 0.000000 0.000000 1.000000
    outer loop
      vertex 8.200000 5.700000 -5.300000
      vertex 6.461334 6.165874 -5.300000
      vertex 6.400000 5.700000 -5.300000
    endloop
  endfacet
  facet normal 0.991445 -0.130526 0.000000
    outer loop
      vertex 6.400000 5.700000 -5.300000
      vertex 6.461334 6.165874 -5.300000
      vertex 6.461334 6.165874 -3.100000
    endloop
  endfacet
  facet normal 0.991445 -0.130526 0.000000
    outer loop
      vertex 6.400000 5.700000 -5.300000
      vertex 6.461334 6.165874 -3.100000
      vertex 6.400000 5.700000 -3.100000
    endloop
  endfacet
  facet normal 0.000000 0.000000 -1.000000
    outer loop
      vertex 8.200000 5.700000 -3.100000
      vertex 6.461334 6.165874 -3.100000
      vertex 6.641154 6.600000 -3.100000
    endloop
  endfacet
  facet normal 0.000000 0.000000 1.000000
    outer loop
      vertex 8.200000 5.700000 -5.300000
      vertex 6.641154 6.600000 -5.300000
      vertex 6.461334 6.165874 -5.300000
    endloop
  endfacet
  facet normal 0.923880 -0.382683 0.000000
    outer loop
      vertex 6.461334 6.165874 -5.300000
      vertex 6.641154 6.600000 -5.300000
      vertex 6.641154 6.600000 -3.100000
    endloop
  endfacet
  facet normal 0.923880 -0.382683 0.000000
    outer loop
      vertex 6.461334 6.165874 -5.300000
      vertex 6.641154 6.600000 -3.100000
      vertex 6.461334 6.165874 -3.100000
    endloop
  endfacet
  facet normal 0.000000 0.000000 -1.000000
    outer loop
      vertex 8.200000 5.700000 -3.100000
      vertex 6.641154 6.600000 -3.100000
      vertex 6.927208 6.972792 -3.100000
    endloop
  endfacet
  facet normal 0.000000 0.000000 1.000000
    outer loop
      vertex 8.200000 5.700000 -5.300000
      vertex 6.927208 6.972792 -5.300000
      vertex 6.641154 6.600000 -5.300000
    endloop
  endfacet
  facet normal 0.793353 -0.608761 0.000000
    outer loop
      vertex 6.641154 6.600000 -5.300000
      vertex 6.927208 6.972792 -5.300000
      vertex 6.927208 6.972792 -3.100000
    endloop
  endfacet
  facet normal 0.793353 -0.608761 0.000000
    outer loop
      vertex 6.641154 6.600000 -5.300000
      vertex 6.927208 6.972792 -3.100000
      vertex 6.641154 6.600000 -3.100000
    endloop
  endfacet
  facet normal 0.000000 0.000000 -1.000000
    outer loop
      vertex 8.200000 5.700000 -3.100000
      vertex 6.927208 6.972792 -3.100000
      vertex 7.300000 7.258846 -3.100000
    endloop
  endfacet
  facet normal 0.000000 0.000000 1.000000
    outer loop
      vertex 8.200000 5.700000 -5.300000
      vertex 7.300000 7.258846 -5.300000
      vertex 6.927208 6.972792 -5.300000
    endloop
  endfacet
  facet normal 0.608761 -0.793353 0.000000
    outer loop
      vertex 6.927208 6.972792 -5.300000
      vertex 7.300000 7.258846 -5.300000
      vertex 7.300000 7.258846 -3.100000
    endloop
  endfacet
  facet normal 0.608761 -0.793353 0.000000
    outer loop
      vertex 6.927208 6.972792 -5.300000
      vertex 7.300000 7.258846 -3.100000
      vertex 6.927208 6.972792 -3.100000
    endloop
  endfacet
  facet normal 0.000000 0.000000 -1.000000
    outer loop
      vertex 8.200000 5.700000 -3.100000
      vertex 7.300000 7.258846 -3.100000
      vertex 7.734126 7.438666 -3.100000
    endloop
  endfacet
  facet normal 0.000000 0.000000 1.000000
    outer loop
      vertex 8.200000 5.700000 -5.300000
      vertex 7.734126 7.438666 -5.300000
      vertex 7.300000 7.258846 -5.300000
    endloop
  endfacet
  facet normal 0.382683 -0.923880 0.000000
    outer loop
      vertex 7.300000 7.258846 -5.300000
      vertex 7.734126 7.438666 -5.300000
      vertex 7.734126 7.438666 -3.100000
    endloop
  endfacet
  facet normal 0.382683 -0.923880 0.000000
    outer loop
      vertex 7.300000 7.258846 -5.300000
      vertex 7.734126 7.438666 -3.100000
      vertex 7.300000 7.258846 -3.100000
    endloop
  endfacet
  facet normal 0.000000 0.000000 -1.000000
    outer loop
      vertex 8.200000 5.700000 -3.100000
      vertex 7.734126 7.438666 -3.100000
      vertex 8.200000 7.500000 -3.100000
    endloop
  endfacet
  facet normal 0.000000 0.000000 1.000000
    outer loop
      vertex 8.200000 5.700000 -5.300000
      vertex 8.200000 7.500000 -5.300000
      vertex 7.734126 7.438666 -5.300000
    endloop
  endfacet
  facet normal 0.130526 -0.991445 0.000000
    outer loop
      vertex 7.734126 7.438666 -5.300000
      vertex 8.200000 7.500000 -5.300000
      vertex 8.200000 7.500000 -3.100000
    endloop
  endfacet
  facet normal 0.130526 -0.991445 0.000000
    outer loop
      vertex 7.734126 7.438666 -5.300000
      vertex 8.200000 7.500000 -3.100000
      vertex 7.734126 7.438666 -3.100000
    endloop
  endfacet
  facet normal 0.000000 0.000000 -1.000000
    outer loop
      vertex 8.200000 5.700000 -3.100000
      vertex 8.200000 7.500000 -3.100000
      vertex 8.665874 7.438666 -3.100000
    endloop
  endfacet
  facet normal 0.000000 0.000000 1.000000
    outer loop
      vertex 8.200000 5.700000 -5.300000
      vertex 8.665874 7.438666 -5.300000
      vertex 8.200000 7.500000 -5.300000
    endloop
  endfacet
  facet normal -0.130526 -0.991445 0.000000
    outer loop
      vertex 8.200000 7.500000 -5.300000
      vertex 8.665874 7.438666 -5.300000
      vertex 8.665874 7.438666 -3.100000
    endloop
  endfacet
  facet normal -0.130526 -0.991445 0.000000
    outer loop
      vertex 8.200000 7.500000 -5.300000
      vertex 8.665874 7.438666 -3.100000
      vertex 8.200000 7.500000 -3.100000
    endloop
  endfacet
  facet normal 0.000000 0.000000 -1.000000
    outer loop
      vertex 8.200000 5.700000 -3.100000
      vertex 8.665874 7.438666 -3.100000
      vertex 9.100000 7.258846 -3.100000
    endloop
  endfacet
  facet normal 0.000000 0.000000 1.000000
    outer loop
      vertex 8.200000 5.700000 -5.300000
      vertex 9.100000 7.258846 -5.300000
      vertex 8.665874 7.438666 -5.300000
    endloop
  endfacet
  facet normal -0.382683 -0.923880 0.000000
    outer loop
      vertex 8.665874 7.438666 -5.300000
      vertex 9.100000 7.258846 -5.300000
      vertex 9.100000 7.258846 -3.100000
    endloop
  endfacet
  facet normal -0.382683 -0.923880 0.000000
    outer loop
      vertex 8.665874 7.438666 -5.300000
      vertex 9.100000 7.258846 -3.100000
      vertex 8.665874 7.438666 -3.100000
    endloop
  endfacet
  facet normal 0.000000 0.000000 -1.000000
    outer loop
      vertex 8.200000 5.700000 -3.100000
      vertex 9.100000 7.258846 -3.100000
      vertex 9.472792 6.972792 -3.100000
    endloop
  endfacet
  facet normal 0.000000 0.000000 1.000000
    outer loop
      vertex 8.200000 5.700000 -5.300000
      vertex 9.472792 6.972792 -5.300000
      vertex 9.100000 7.258846 -5.300000
    endloop
  endfacet
  facet normal -0.608761 -0.793353 0.000000
    outer loop
      vertex 9.100000 7.258846 -5.300000
      vertex 9.472792 6.972792 -5.300000
      vertex 9.472792 6.972792 -3.100000
    endloop
  endfacet
  facet normal -0.608761 -0.793353 0.000000
    outer loop
      vertex 9.100000 7.258846 -5.300000
      vertex 9.472792 6.972792 -3.100000
      vertex 9.100000 7.258846 -3.100000
    endloop
  endfacet
  facet normal 0.000000 0.000000 -1.000000
    outer loop
      vertex 8.200000 5.700000 -3.100000
      vertex 9.472792 6.972792 -3.100000
      vertex 9.758846 6.600000 -3.100000
    endloop
  endfacet
  facet normal 0.000000 0.000000 1.000000
    outer loop
      vertex 8.200000 5.700000 -5.300000
      vertex 9.758846 6.600000 -5.300000
      vertex 9.472792 6.972792 -5.300000
    endloop
  endfacet
  facet normal -0.793353 -0.608761 0.000000
    outer loop
      vertex 9.472792 6.972792 -5.300000
      vertex 9.758846 6.600000 -5.300000
      vertex 9.758846 6.600000 -3.100000
    endloop
  endfacet
  facet normal -0.793353 -0.608761 0.000000
    outer loop
      vertex 9.472792 6.972792 -5.300000
      vertex 9.758846 6.600000 -3.100000
      vertex 9.472792 6.972792 -3.100000
    endloop
  endfacet
  facet normal 0.000000 0.000000 -1.000000
    outer loop
      vertex 8.200000 5.700000 -3.100000
      vertex 9.758846 6.600000 -3.100000
      vertex 9.938666 6.165874 -3.100000
    endloop
  endfacet
  facet normal 0.000000 0.000000 1.000000
    outer loop
      vertex 8.200000 5.700000 -5.300000
      vertex 9.938666 6.165874 -5.300000
      vertex 9.758846 6.600000 -5.300000
    endloop
  endfacet
  facet normal -0.923880 -0.382683 0.000000
    outer loop
      vertex 9.758846 6.600000 -5.300000
      vertex 9.938666 6.165874 -5.300000
      vertex 9.938666 6.165874 -3.100000
    endloop
  endfacet
  facet normal -0.923880 -0.382683 0.000000
    outer loop
      vertex 9.758846 6.600000 -5.300000
      vertex 9.938666 6.165874 -3.100000
      vertex 9.758846 6.600000 -3.100000
    endloop
  endfacet
  facet normal 0.000000 0.000000 -1.000000
    outer loop
      vertex 8.200000 5.700000 -3.100000
      vertex 9.938666 6.165874 -3.100000
      vertex 10.000000 5.700000 -3.100000
    endloop
  endfacet
  facet normal 0.000000 0.000000 1.000000
    outer loop
      vertex 8.200000 5.700000 -5.300000
      vertex 10.000000 5.700000 -5.300000
      vertex 9.938666 6.165874 -5.300000
    endloop
  endfacet
  facet normal -0.991445 -0.130526 0.000000
    outer loop
      vertex 9.938666 6.165874 -5.300000
      vertex 10.000000 5.700000 -5.300000
      vertex 10.000000 5.700000 -3.100000
    endloop
  endfacet
  facet normal -0.991445 -0.130526 0.000000
    outer loop
      vertex 9.938666 6.165874 -5.300000
      vertex 10.000000 5.700000 -3.100000
      vertex 9.938666 6.165874 -3.100000
    endloop
  endfacet
endsolid limit_switch_microswitch