solid toggle_switch_spdt
  facet normal 0.000000 1.000000 0.000000
    outer loop
      vertex -2.540000 -14.500000 2.100000
      vertex -2.260000 -14.500000 2.100000
      vertex -2.287729 -14.500000 1.978513
    endloop
  endfacet
  facet normal 0.000000 -1.000000 0.000000
    outer loop
      vertex -2.540000 -4.000000 2.100000
      vertex -2.287729 -4.000000 1.978513
      vertex -2.260000 -4.000000 2.100000
    endloop
  endfacet
  facet normal -0.974928 0.000000 0.222521
    outer loop
      vertex -2.260000 -4.000000 2.100000
      vertex -2.287729 -4.000000 1.978513
      vertex -2.287729 -14.500000 1.978513
    endloop
  endfacet
  facet normal -0.974928 0.000000 0.222521
    outer loop
      vertex -2.260000 -4.000000 2.100000
      vertex -2.287729 -14.500000 1.978513
      vertex -2.260000 -14.500000 2.100000
    endloop
  endfacet
  facet normal 0.000000 1.000000 0.000000
    outer loop
      vertex -2.540000 -14.500000 2.100000
      vertex -2.287729 -14.500000 1.978513
      vertex -2.365423 -14.500000 1.881087
    endloop
  endfacet
  facet normal 0.000000 -1.000000 0.000000
    outer loop
      vertex -2.540000 -4.000000 2.100000
      vertex -2.365423 -4.000000 1.881087
      vertex -2.287729 -4.000000 1.978513
    endloop
  endfacet
  facet normal -0.781831 0.000000 0.623490
    outer loop
      vertex -2.287729 -4.000000 1.978513
      vertex -2.365423 -4.000000 1.881087
      vertex -2.365423 -14.500000 1.881087
    endloop
  endfacet
  facet normal -0.781831 0.000000 0.623490
    outer loop
      vertex -2.287729 -4.000000 1.978513
      vertex -2.365423 -14.500000 1.881087
      vertex -2.287729 -14.500000 1.978513
    endloop
  endfacet
  facet normal 0.000000 1.000000 0.000000
    outer loop
      vertex -2.540000 -14.500000 2.100000
      vertex -2.365423 -14.500000 1.881087
      vertex -2.477694 -14.500000 1.827020
    endloop
  endfacet
  facet normal 0.000000 -1.000000 0.000000
    outer loop
      vertex -2.540000 -4.000000 2.100000
      vertex -2.477694 -4.000000 1.827020
      vertex -2.365423 -4.000000 1.881087
    endloop
  endfacet
  facet normal -0.433884 0.000000 0.900969
    outer loop
      vertex -2.365423 -4.000000 1.881087
      vertex -2.477694 -4.000000 1.827020
      vertex -2.477694 -14.500000 1.827020
    endloop
  endfacet
  facet normal -0.433884 0.000000 0.900969
    outer loop
      vertex -2.365423 -4.000000 1.881087
      vertex -2.477694 -14.500000 1.827020
      vertex -2.365423 -14.500000 1.881087
    endloop
  endfacet
  facet normal 0.000000 1.000000 0.000000
    outer loop
      vertex -2.540000 -14.500000 2.100000
      vertex -2.477694 -14.500000 1.827020
      vertex -2.602306 -14.500000 1.827020
    endloop
  endfacet
  facet normal 0.000000 -1.000000 0.000000
    outer loop
      vertex -2.540000 -4.000000 2.100000
      vertex -2.602306 -4.000000 1.827020
      vertex -2.477694 -4.000000 1.827020
    endloop
  endfacet
  facet normal 0.000000 0.000000 1.000000
    outer loop
      vertex -2.477694 -4.000000 1.827020
      vertex -2.602306 -4.000000 1.827020
      vertex -2.602306 -14.500000 1.827020
    endloop
  endfacet
  facet normal 0.000000 0.000000 1.000000
    outer loop
      vertex -2.477694 -4.000000 1.827020
      vertex -2.602306 -14.500000 1.827020
      vertex -2.477694 -14.500000 1.827020
    endloop
  endfacet
  facet normal 0.000000 1.000000 0.000000
    outer loop
      vertex -2.540000 -14.500000 2.100000
      vertex -2.602306 -14.500000 1.827020
      vertex -2.714577 -14.500000 1.881087
    endloop
  endfacet
  facet normal 0.000000 -1.000000 0.000000
    outer loop
      vertex -2.540000 -4.000000 2.100000
      vertex -2.714577 -4.000000 1.881087
      vertex -2.602306 -4.000000 1.827020
    endloop
  endfacet
  facet normal 0.433884 0.000000 0.900969
    outer loop
      vertex -2.602306 -4.000000 1.827020
      vertex -2.714577 -4.000000 1.881087
      vertex -2.714577 -14.500000 1.881087
    endloop
  endfacet
  facet normal 0.433884 0.000000 0.900969
    outer loop
      vertex -2.602306 -4.000000 1.827020
      vertex -2.714577 -14.500000 1.881087
      vertex -2.602306 -14.500000 1.827020
    endloop
  endfacet
  facet normal 0.000000 1.000000 0.000000
    outer loop
      vertex -2.540000 -14.500000 2.100000
      vertex -2.714577 -14.500000 1.881087
      vertex -2.792271 -14.500000 1.978513
    endloop
  endfacet
  facet normal 0.000000 -1.000000 0.000000
    outer loop
      vertex -2.540000 -4.000000 2.100000
      vertex -2.792271 -4.000000 1.978513
      vertex -2.714577 -4.000000 1.881087
    endloop
  endfacet
  facet normal 0.781831 0.000000 0.623490
    outer loop
      vertex -2.714577 -4.000000 1.881087
      vertex -2.792271 -4.000000 1.978513
      vertex -2.792271 -14.500000 1.978513
    endloop
  endfacet
  facet normal 0.781831 0.000000 0.623490
    outer loop
      vertex -2.714577 -4.000000 1.881087
      vertex -2.792271 -14.500000 1.978513
      vertex -2.714577 -14.500000 1.881087
    endloop
  endfacet
  facet normal 0.000000 1.000000 0.000000
    outer loop
      vertex -2.540000 -14.500000 2.100000
      vertex -2.792271 -14.500000 1.978513
      vertex -2.820000 -14.500000 2.100000
    endloop
  endfacet
  facet normal 0.000000 -1.000000 0.000000
    outer loop
      vertex -2.540000 -4.000000 2.100000
      vertex -2.820000 -4.000000 2.100000
      vertex -2.792271 -4.000000 1.978513
    endloop
  endfacet
  facet normal 0.974928 0.000000 0.222521
    outer loop
      vertex -2.792271 -4.000000 1.978513
      vertex -2.820000 -4.000000 2.100000
      vertex -2.820000 -14.500000 2.100000
    endloop
  endfacet
  facet normal 0.974928 0.000000 0.222521
    outer loop
      vertex -2.792271 -4.000000 1.978513
      vertex -2.820000 -14.500000 2.100000
      vertex -2.792271 -14.500000 1.978513
    endloop
  endfacet
  facet normal 0.000000 1.000000 0.000000
    outer loop
      vertex -2.540000 -14.500000 2.100000
      vertex -2.820000 -14.500000 2.100000
      vertex -2.792271 -14.500000 2.221487
    endloop
  endfacet
  facet normal 0.000000 -1.000000 0.000000
    outer loop
      vertex -2.540000 -4.000000 2.100000
      vertex -2.792271 -4.000000 2.221487
      vertex -2.820000 -4.000000 2.100000
    endloop
  endfacet
  facet normal 0.974928 -0.000000 -0.222521
    outer loop
      vertex -2.820000 -4.000000 2.100000
      vertex -2.792271 -4.000000 2.221487
      vertex -2.792271 -14.500000 2.221487
    endloop
  endfacet
  facet normal 0.974928 -0.000000 -0.222521
    outer loop
      vertex -2.820000 -4.000000 2.100000
      vertex -2.792271 -14.500000 2.221487
      vertex -2.820000 -14.500000 2.100000
    endloop
  endfacet
  facet normal 0.000000 1.000000 0.000000
    outer loop
      vertex -2.540000 -14.500000 2.100000
      vertex -2.792271 -14.500000 2.221487
      vertex -2.714577 -14.500000 2.318913
    endloop
  endfacet
  facet normal 0.000000 -1.000000 0.000000
    outer loop
      vertex -2.540000 -4.000000 2.100000
      vertex -2.714577 -4.000000 2.318913
      vertex -2.792271 -4.000000 2.221487
    endloop
  endfacet
  facet normal 0.781831 -0.000000 -0.623490
    outer loop
      vertex -2.792271 -4.000000 2.221487
      vertex -2.714577 -4.000000 2.318913
      vertex -2.714577 -14.500000 2.318913
    endloop
  endfacet
  facet normal 0.781831 -0.000000 -0.623490
    outer loop
      vertex -2.792271 -4.000000 2.221487
      vertex -2.714577 -14.500000 2.318913
      vertex -2.792271 -14.500000 2.221487
    endloop
  endfacet
  facet normal 0.000000 1.000000 0.000000
    outer loop
      vertex -2.540000 -14.500000 2.100000
      vertex -2.714577 -14.500000 2.318913
      vertex -2.602306 -14.500000 2.372980
    endloop
  endfacet
  facet normal 0.000000 -1.000000 0.000000
    outer loop
      vertex -2.540000 -4.000000 2.100000
      vertex -2.602306 -4.000000 2.372980
      vertex -2.714577 -4.000000 2.318913
    endloop
  endfacet
  facet normal 0.433884 -0.000000 -0.900969
    outer loop
      vertex -2.714577 -4.000000 2.318913
      vertex -2.602306 -4.000000 2.372980
      vertex -2.602306 -14.500000 2.372980
    endloop
  endfacet
  facet normal 0.433884 -0.000000 -0.900969
    outer loop
      vertex -2.714577 -4.000000 2.318913
      vertex -2.602306 -14.500000 2.372980
      vertex -2.714577 -14.500000 2.318913
    endloop
  endfacet
  facet normal 0.000000 1.000000 0.000000
    outer loop
      vertex -2.540000 -14.500000 2.100000
      vertex -2.602306 -14.500000 2.372980
      vertex -2.477694 -14.500000 2.372980
    endloop
  endfacet
  facet normal 0.000000 -1.000000 0.000000
    outer loop
      vertex -2.540000 -4.000000 2.100000
      vertex -2.477694 -4.000000 2.372980
      vertex -2.602306 -4.000000 2.372980
    endloop
  endfacet
  facet normal 0.000000 -0.000000 -1.000000
    outer loop
      vertex -2.602306 -4.000000 2.372980
      vertex -2.477694 -4.000000 2.372980
      vertex -2.477694 -14.500000 2.372980
    endloop
  endfacet
  facet normal 0.000000 -0.000000 -1.000000
    outer loop
      vertex -2.602306 -4.000000 2.372980
      vertex -2.477694 -14.500000 2.372980
      vertex -2.602306 -14.500000 2.372980
    endloop
  endfacet
  facet normal 0.000000 1.000000 0.000000
    outer loop
      vertex -2.540000 -14.500000 2.100000
      vertex -2.477694 -14.500000 2.372980
      vertex -2.365423 -14.500000 2.318913
    endloop
  endfacet
  facet normal 0.000000 -1.000000 0.000000
    outer loop
      vertex -2.540000 -4.000000 2.100000
      vertex -2.365423 -4.000000 2.318913
      vertex -2.477694 -4.000000 2.372980
    endloop
  endfacet
  facet normal -0.433884 -0.000000 -0.900969
    outer loop
      vertex -2.477694 -4.000000 2.372980
      vertex -2.365423 -4.000000 2.318913
      vertex -2.365423 -14.500000 2.318913
    endloop
  endfacet
  facet normal -0.433884 -0.000000 -0.900969
    outer loop
      vertex -2.477694 -4.000000 2.372980
      vertex -2.365423 -14.500000 2.318913
      vertex -2.477694 -14.500000 2.372980
    endloop
  endfacet
  facet normal 0.000000 1.000000 0.000000
    outer loop
      vertex -2.540000 -14.500000 2.100000
      vertex -2.365423 -14.500000 2.318913
      vertex -2.287729 -14.500000 2.221487
    endloop
  endfacet
  facet normal 0.000000 -1.000000 0.000000
    outer loop
      vertex -2.540000 -4.000000 2.100000
      vertex -2.287729 -4.000000 2.221487
      vertex -2.365423 -4.000000 2.318913
    endloop
  endfacet
  facet normal -0.781831 -0.000000 -0.623490
    outer loop
      vertex -2.365423 -4.000000 2.318913
      vertex -2.287729 -4.000000 2.221487
      vertex -2.287729 -14.500000 2.221487
    endloop
  endfacet
  facet normal -0.781831 -0.000000 -0.623490
    outer loop
      vertex -2.365423 -4.000000 2.318913
      vertex -2.287729 -14.500000 2.221487
      vertex -2.365423 -14.500000 2.318913
    endloop
  endfacet
  facet normal 0.000000 1.000000 0.000000
    outer loop
      vertex -2.540000 -14.500000 2.100000
      vertex -2.287729 -14.500000 2.221487
      vertex -2.260000 -14.500000 2.100000
    endloop
  endfacet
  facet normal 0.000000 -1.000000 0.000000
    outer loop
      vertex -2.540000 -4.000000 2.100000
      vertex -2.260000 -4.000000 2.100000
      vertex -2.287729 -4.000000 2.221487
    endloop
  endfacet
  facet normal -0.974928 -0.000000 -0.222521
    outer loop
      vertex -2.287729 -4.000000 2.221487
      vertex -2.260000 -4.000000 2.100000
      vertex -2.260000 -14.500000 2.100000
    endloop
  endfacet
  facet normal -0.974928 -0.000000 -0.222521
    outer loop
      vertex -2.287729 -4.000000 2.221487
      vertex -2.260000 -14.500000 2.100000
      vertex -2.287729 -14.500000 2.221487
    endloop
  endfacet
  facet normal 0.000000 1.000000 0.000000
    outer loop
      vertex 0.000000 -14.500000 2.100000
      vertex 0.280000 -14.500000 2.100000
      vertex 0.252271 -14.500000 1.978513
    endloop
  endfacet
  facet normal 0.000000 -1.000000 0.000000
    outer loop
      vertex 0.000000 -4.000000 2.100000
      vertex 0.252271 -4.000000 1.978513
      vertex 0.280000 -4.000000 2.100000
    endloop
  endfacet
  facet normal -0.974928 0.000000 0.222521
    outer loop
      vertex 0.280000 -4.000000 2.100000
      vertex 0.252271 -4.000000 1.978513
      vertex 0.252271 -14.500000 1.978513
    endloop
  endfacet
  facet normal -0.974928 0.000000 0.222521
    outer loop
      vertex 0.280000 -4.000000 2.100000
      vertex 0.252271 -14.500000 1.978513
      vertex 0.280000 -14.500000 2.100000
    endloop
  endfacet
  facet normal 0.000000 1.000000 0.000000
    outer loop
      vertex 0.000000 -14.500000 2.100000
      vertex 0.252271 -14.500000 1.978513
      vertex 0.174577 -14.500000 1.881087
    endloop
  endfacet
  facet normal 0.000000 -1.000000 0.000000
    outer loop
      vertex 0.000000 -4.000000 2.100000
      vertex 0.174577 -4.000000 1.881087
      vertex 0.252271 -4.000000 1.978513
    endloop
  endfacet
  facet normal -0.781831 0.000000 0.623490
    outer loop
      vertex 0.252271 -4.000000 1.978513
      vertex 0.174577 -4.000000 1.881087
      vertex 0.174577 -14.500000 1.881087
    endloop
  endfacet
  facet normal -0.781831 0.000000 0.623490
    outer loop
      vertex 0.252271 -4.000000 1.978513
      vertex 0.174577 -14.500000 1.881087
      vertex 0.252271 -14.500000 1.978513
    endloop
  endfacet
  facet normal 0.000000 1.000000 0.000000
    outer loop
      vertex 0.000000 -14.500000 2.100000
      vertex 0.174577 -14.500000 1.881087
      vertex 0.062306 -14.500000 1.827020
    endloop
  endfacet
  facet normal 0.000000 -1.000000 0.000000
    outer loop
      vertex 0.000000 -4.000000 2.100000
      vertex 0.062306 -4.000000 1.827020
      vertex 0.174577 -4.000000 1.881087
    endloop
  endfacet
  facet normal -0.433884 0.000000 0.900969
    outer loop
      vertex 0.174577 -4.000000 1.881087
      vertex 0.062306 -4.000000 1.827020
      vertex 0.062306 -14.500000 1.827020
    endloop
  endfacet
  facet normal -0.433884 0.000000 0.900969
    outer loop
      vertex 0.174577 -4.000000 1.881087
      vertex 0.062306 -14.500000 1.827020
      vertex 0.174577 -14.500000 1.881087
    endloop
  endfacet
  facet normal 0.000000 1.000000 0.000000
    outer loop
      vertex 0.000000 -14.500000 2.100000
      vertex 0.062306 -14.500000 1.827020
      vertex -0.062306 -14.500000 1.827020
    endloop
  endfacet
  facet normal 0.000000 -1.000000 0.000000
    outer loop
      vertex 0.000000 -4.000000 2.100000
      vertex -0.062306 -4.000000 1.827020
      vertex 0.062306 -4.000000 1.827020
    endloop
  endfacet
  facet normal 0.000000 0.000000 1.000000
    outer loop
      vertex 0.062306 -4.000000 1.827020
      vertex -0.062306 -4.000000 1.827020
      vertex -0.062306 -14.500000 1.827020
    endloop
  endfacet
  facet normal 0.000000 0.000000 1.000000
    outer loop
      vertex 0.062306 -4.000000 1.827020
      vertex -0.062306 -14.500000 1.827020
      vertex 0.062306 -14.500000 1.827020
    endloop
  endfacet
  facet normal 0.000000 1.000000 0.000000
    outer loop
      vertex 0.000000 -14.500000 2.100000
      vertex -0.062306 -14.500000 1.827020
      vertex -0.174577 -14.500000 1.881087
    endloop
  endfacet
  facet normal 0.000000 -1.000000 0.000000
    outer loop
      vertex 0.000000 -4.000000 2.100000
      vertex -0.174577 -4.000000 1.881087
      vertex -0.062306 -4.000000 1.827020
    endloop
  endfacet
  facet normal 0.433884 0.000000 0.900969
    outer loop
      vertex -0.062306 -4.000000 1.827020
      vertex -0.174577 -4.000000 1.881087
      vertex -0.174577 -14.500000 1.881087
    endloop
  endfacet
  facet normal 0.433884 0.000000 0.900969
    outer loop
      vertex -0.062306 -4.000000 1.827020
      vertex -0.174577 -14.500000 1.881087
      vertex -0.062306 -14.500000 1.827020
    endloop
  endfacet
  facet normal 0.000000 1.000000 0.000000
    outer loop
      vertex 0.000000 -14.500000 2.100000
      vertex -0.174577 -14.500000 1.881087
      vertex -0.252271 -14.500000 1.978513
    endloop
  endfacet
  facet normal 0.000000 -1.000000 0.000000
    outer loop
      vertex 0.000000 -4.000000 2.100000
      vertex -0.252271 -4.000000 1.978513
      vertex -0.174577 -4.000000 1.881087
    endloop
  endfacet
  facet normal 0.781831 0.000000 0.623490
    outer loop
      vertex -0.174577 -4.000000 1.881087
      vertex -0.252271 -4.000000 1.978513
      vertex -0.252271 -14.500000 1.978513
    endloop
  endfacet
  facet normal 0.781831 0.000000 0.623490
    outer loop
      vertex -0.174577 -4.000000 1.881087
      vertex -0.252271 -14.500000 1.978513
      vertex -0.174577 -14.500000 1.881087
    endloop
  endfacet
  facet normal 0.000000 1.000000 0.000000
    outer loop
      vertex 0.000000 -14.500000 2.100000
      vertex -0.252271 -14.500000 1.978513
      vertex -0.280000 -14.500000 2.100000
    endloop
  endfacet
  facet normal 0.000000 -1.000000 0.000000
    outer loop
      vertex 0.000000 -4.000000 2.100000
      vertex -0.280000 -4.000000 2.100000
      vertex -0.252271 -4.000000 1.978513
    endloop
  endfacet
  facet normal 0.974928 0.000000 0.222521
    outer loop
      vertex -0.252271 -4.000000 1.978513
      vertex -0.280000 -4.000000 2.100000
      vertex -0.280000 -14.500000 2.100000
    endloop
  endfacet
  facet normal 0.974928 0.000000 0.222521
    outer loop
      vertex -0.252271 -4.000000 1.978513
      vertex -0.280000 -14.500000 2.100000
      vertex -0.252271 -14.500000 1.978513
    endloop
  endfacet
  facet normal 0.000000 1.000000 0.000000
    outer loop
      vertex 0.000000 -14.500000 2.100000
      vertex -0.280000 -14.500000 2.100000
      vertex -0.252271 -14.500000 2.221487
    endloop
  endfacet
  facet normal 0.000000 -1.000000 0.000000
    outer loop
      vertex 0.000000 -4.000000 2.100000
      vertex -0.252271 -4.000000 2.221487
      vertex -0.280000 -4.000000 2.100000
    endloop
  endfacet
  facet normal 0.974928 -0.000000 -0.222521
    outer loop
      vertex -0.280000 -4.000000 2.100000
      vertex -0.252271 -4.000000 2.221487
      vertex -0.252271 -14.500000 2.221487
    endloop
  endfacet
  facet normal 0.974928 -0.000000 -0.222521
    outer loop
      vertex -0.280000 -4.000000 2.100000
      vertex -0.252271 -14.500000 2.221487
      vertex -0.280000 -14.500000 2.100000
    endloop
  endfacet
  facet normal 0.000000 1.000000 0.000000
    outer loop
      vertex 0.000000 -14.500000 2.100000
      vertex -0.252271 -14.500000 2.221487
      vertex -0.174577 -14.500000 2.318913
    endloop
  endfacet
  facet normal 0.000000 -1.000000 0.000000
    outer loop
      vertex 0.000000 -4.000000 2.100000
      vertex -0.174577 -4.000000 2.318913
      vertex -0.252271 -4.000000 2.221487
    endloop
  endfacet
  facet normal 0.781831 -0.000000 -0.623490
    outer loop
      vertex -0.252271 -4.000000 2.221487
      vertex -0.174577 -4.000000 2.318913
      vertex -0.174577 -14.500000 2.318913
    endloop
  endfacet
  facet normal 0.781831 -0.000000 -0.623490
    outer loop
      vertex -0.252271 -4.000000 2.221487
      vertex -0.174577 -14.500000 2.318913
      vertex -0.252271 -14.500000 2.221487
    endloop
  endfacet
  facet normal 0.000000 1.000000 0.000000
    outer loop
      vertex 0.000000 -14.500000 2.100000
      vertex -0.174577 -14.500000 2.318913
      vertex -0.062306 -14.500000 2.372980
    endloop
  endfacet
  facet normal 0.000000 -1.000000 0.000000
    outer loop
      vertex 0.000000 -4.000000 2.100000
      vertex -0.062306 -4.000000 2.372980
      vertex -0.174577 -4.000000 2.318913
    endloop
  endfacet
  facet normal 0.433884 -0.000000 -0.900969
    outer loop
      vertex -0.174577 -4.000000 2.318913
      vertex -0.062306 -4.000000 2.372980
      vertex -0.062306 -14.500000 2.372980
    endloop
  endfacet
  facet normal 0.433884 -0.000000 -0.900969
    outer loop
      vertex -0.174577 -4.000000 2.318913
      vertex -0.062306 -14.500000 2.372980
      vertex -0.174577 -14.500000 2.318913
    endloop
  endfacet
  facet normal 0.000000 1.000000 0.000000
    outer loop
      vertex 0.000000 -14.500000 2.100000
      vertex -0.062306 -14.500000 2.372980
      vertex 0.062306 -14.500000 2.372980
    endloop
  endfacet
  facet normal 0.000000 -1.000000 0.000000
    outer loop
      vertex 0.000000 -4.000000 2.100000
      vertex 0.062306 -4.000000 2.372980
      vertex -0.062306 -4.000000 2.372980
    endloop
  endfacet
  facet normal 0.000000 -0.000000 -1.000000
    outer loop
      vertex -0.062306 -4.000000 2.372980
      vertex 0.062306 -4.000000 2.372980
      vertex 0.062306 -14.500000 2.372980
    endloop
  endfacet
  facet normal 0.000000 -0.000000 -1.000000
    outer loop
      vertex -0.062306 -4.000000 2.372980
      vertex 0.062306 -14.500000 2.372980
      vertex -0.062306 -14.500000 2.372980
    endloop
  endfacet
  facet normal 0.000000 1.000000 0.000000
    outer loop
      vertex 0.000000 -14.500000 2.100000
      vertex 0.062306 -14.500000 2.372980
      vertex 0.174577 -14.500000 2.318913
    endloop
  endfacet
  facet normal 0.000000 -1.000000 0.000000
    outer loop
      vertex 0.000000 -4.000000 2.100000
      vertex 0.174577 -4.000000 2.318913
      vertex 0.062306 -4.000000 2.372980
    endloop
  endfacet
  facet normal -0.433884 -0.000000 -0.900969
    outer loop
      vertex 0.062306 -4.000000 2.372980
      vertex 0.174577 -4.000000 2.318913
      vertex 0.174577 -14.500000 2.318913
    endloop
  endfacet
  facet normal -0.433884 -0.000000 -0.900969
    outer loop
      vertex 0.062306 -4.000000 2.372980
      vertex 0.174577 -14.500000 2.318913
      vertex 0.062306 -14.500000 2.372980
    endloop
  endfacet
  facet normal 0.000000 1.000000 0.000000
    outer loop
      vertex 0.000000 -14.500000 2.100000
      vertex 0.174577 -14.500000 2.318913
      vertex 0.252271 -14.500000 2.221487
    endloop
  endfacet
  facet normal 0.000000 -1.000000 0.000000
    outer loop
      vertex 0.000000 -4.000000 2.100000
      vertex 0.252271 -4.000000 2.221487
      vertex 0.174577 -4.000000 2.318913
    endloop
  endfacet
  facet normal -0.781831 -0.000000 -0.623490
    outer loop
      vertex 0.174577 -4.000000 2.318913
      vertex 0.252271 -4.000000 2.221487
      vertex 0.252271 -14.500000 2.221487
    endloop
  endfacet
  facet normal -0.781831 -0.000000 -0.623490
    outer loop
      vertex 0.174577 -4.000000 2.318913
      vertex 0.252271 -14.500000 2.221487
      vertex 0.174577 -14.500000 2.318913
    endloop
  endfacet
  facet normal 0.000000 1.000000 0.000000
    outer loop
      vertex 0.000000 -14.500000 2.100000
      vertex 0.252271 -14.500000 2.221487
      vertex 0.280000 -14.500000 2.100000
    endloop
  endfacet
  facet normal 0.000000 -1.000000 0.000000
    outer loop
      vertex 0.000000 -4.000000 2.100000
      vertex 0.280000 -4.000000 2.100000
      vertex 0.252271 -4.000000 2.221487
    endloop
  endfacet
  facet normal -0.974928 -0.000000 -0.222521
    outer loop
      vertex 0.252271 -4.000000 2.221487
      vertex 0.280000 -4.000000 2.100000
      vertex 0.280000 -14.500000 2.100000
    endloop
  endfacet
  facet normal -0.974928 -0.000000 -0.222521
    outer loop
      vertex 0.252271 -4.000000 2.221487
      vertex 0.280000 -14.500000 2.100000
      vertex 0.252271 -14.500000 2.221487
    endloop
  endfacet
  facet normal 0.000000 1.000000 0.000000
    outer loop
      vertex 2.540000 -14.500000 2.100000
      vertex 2.820000 -14.500000 2.100000
      vertex 2.792271 -14.500000 1.978513
    endloop
  endfacet
  facet normal 0.000000 -1.000000 0.000000
    outer loop
      vertex 2.540000 -4.000000 2.100000
      vertex 2.792271 -4.000000 1.978513
      vertex 2.820000 -4.000000 2.100000
    endloop
  endfacet
  facet normal -0.974928 0.000000 0.222521
    outer loop
      vertex 2.820000 -4.000000 2.100000
      vertex 2.792271 -4.000000 1.978513
      vertex 2.792271 -14.500000 1.978513
    endloop
  endfacet
  facet normal -0.974928 0.000000 0.222521
    outer loop
      vertex 2.820000 -4.000000 2.100000
      vertex 2.792271 -14.500000 1.978513
      vertex 2.820000 -14.500000 2.100000
    endloop
  endfacet
  facet normal 0.000000 1.000000 0.000000
    outer loop
      vertex 2.540000 -14.500000 2.100000
      vertex 2.792271 -14.500000 1.978513
      vertex 2.714577 -14.500000 1.881087
    endloop
  endfacet
  facet normal 0.000000 -1.000000 0.000000
    outer loop
      vertex 2.540000 -4.000000 2.100000
      vertex 2.714577 -4.000000 1.881087
      vertex 2.792271 -4.000000 1.978513
    endloop
  endfacet
  facet normal -0.781831 0.000000 0.623490
    outer loop
      vertex 2.792271 -4.000000 1.978513
      vertex 2.714577 -4.000000 1.881087
      vertex 2.714577 -14.500000 1.881087
    endloop
  endfacet
  facet normal -0.781831 0.000000 0.623490
    outer loop
      vertex 2.792271 -4.000000 1.978513
      vertex 2.714577 -14.500000 1.881087
      vertex 2.792271 -14.500000 1.978513
    endloop
  endfacet
  facet normal 0.000000 1.000000 0.000000
    outer loop
      vertex 2.540000 -14.500000 2.100000
      vertex 2.714577 -14.500000 1.881087
      vertex 2.602306 -14.500000 1.827020
    endloop
  endfacet
  facet normal 0.000000 -1.000000 0.000000
    outer loop
      vertex 2.540000 -4.000000 2.100000
      vertex 2.602306 -4.000000 1.827020
      vertex 2.714577 -4.000000 1.881087
    endloop
  endfacet
  facet normal -0.433884 0.000000 0.900969
    outer loop
      vertex 2.714577 -4.000000 1.881087
      vertex 2.602306 -4.000000 1.827020
      vertex 2.602306 -14.500000 1.827020
    endloop
  endfacet
  facet normal -0.433884 0.000000 0.900969
    outer loop
      vertex 2.714577 -4.000000 1.881087
      vertex 2.602306 -14.500000 1.827020
      vertex 2.714577 -14.500000 1.881087
    endloop
  endfacet
  facet normal 0.000000 1.000000 0.000000
    outer loop
      vertex 2.540000 -14.500000 2.100000
      vertex 2.602306 -14.500000 1.827020
      vertex 2.477694 -14.500000 1.827020
    endloop
  endfacet
  facet normal 0.000000 -1.000000 0.000000
    outer loop
      vertex 2.540000 -4.000000 2.100000
      vertex 2.477694 -4.000000 1.827020
      vertex 2.602306 -4.000000 1.827020
    endloop
  endfacet
  facet normal 0.000000 0.000000 1.000000
    outer loop
      vertex 2.602306 -4.000000 1.827020
      vertex 2.477694 -4.000000 1.827020
      vertex 2.477694 -14.500000 1.827020
    endloop
  endfacet
  facet normal 0.000000 0.000000 1.000000
    outer loop
      vertex 2.602306 -4.000000 1.827020
      vertex 2.477694 -14.500000 1.827020
      vertex 2.602306 -14.500000 1.827020
    endloop
  endfacet
  facet normal 0.000000 1.000000 0.000000
    outer loop
      vertex 2.540000 -14.500000 2.100000
      vertex 2.477694 -14.500000 1.827020
      vertex 2.365423 -14.500000 1.881087
    endloop
  endfacet
  facet normal 0.000000 -1.000000 0.000000
    outer loop
      vertex 2.540000 -4.000000 2.100000
      vertex 2.365423 -4.000000 1.881087
      vertex 2.477694 -4.000000 1.827020
    endloop
  endfacet
  facet normal 0.433884 0.000000 0.900969
    outer loop
      vertex 2.477694 -4.000000 1.827020
      vertex 2.365423 -4.000000 1.881087
      vertex 2.365423 -14.500000 1.881087
    endloop
  endfacet
  facet normal 0.433884 0.000000 0.900969
    outer loop
      vertex 2.477694 -4.000000 1.827020
      vertex 2.365423 -14.500000 1.881087
      vertex 2.477694 -14.500000 1.827020
    endloop
  endfacet
  facet normal 0.000000 1.000000 0.000000
    outer loop
      vertex 2.540000 -14.500000 2.100000
      vertex 2.365423 -14.500000 1.881087
      vertex 2.287729 -14.500000 1.978513
    endloop
  endfacet
  facet normal 0.000000 -1.000000 0.000000
    outer loop
      vertex 2.540000 -4.000000 2.100000
      vertex 2.287729 -4.000000 1.978513
      vertex 2.365423 -4.000000 1.881087
    endloop
  endfacet
  facet normal 0.781831 0.000000 0.623490
    outer loop
      vertex 2.365423 -4.000000 1.881087
      vertex 2.287729 -4.000000 1.978513
      vertex 2.287729 -14.500000 1.978513
    endloop
  endfacet
  facet normal 0.781831 0.000000 0.623490
    outer loop
      vertex 2.365423 -4.000000 1.881087
      vertex 2.287729 -14.500000 1.978513
      vertex 2.365423 -14.500000 1.881087
    endloop
  endfacet
  facet normal 0.000000 1.000000 0.000000
    outer loop
      vertex 2.540000 -14.500000 2.100000
      vertex 2.287729 -14.500000 1.978513
      vertex 2.260000 -14.500000 2.100000
    endloop
  endfacet
  facet normal 0.000000 -1.000000 0.000000
    outer loop
      vertex 2.540000 -4.000000 2.100000
      vertex 2.260000 -4.000000 2.100000
      vertex 2.287729 -4.000000 1.978513
    endloop
  endfacet
  facet normal 0.974928 0.000000 0.222521
    outer loop
      vertex 2.287729 -4.000000 1.978513
      vertex 2.260000 -4.000000 2.100000
      vertex 2.260000 -14.500000 2.100000
    endloop
  endfacet
  facet normal 0.974928 0.000000 0.222521
    outer loop
      vertex 2.287729 -4.000000 1.978513
      vertex 2.260000 -14.500000 2.100000
      vertex 2.287729 -14.500000 1.978513
    endloop
  endfacet
  facet normal 0.000000 1.000000 0.000000
    outer loop
      vertex 2.540000 -14.500000 2.100000
      vertex 2.260000 -14.500000 2.100000
      vertex 2.287729 -14.500000 2.221487
    endloop
  endfacet
  facet normal 0.000000 -1.000000 0.000000
    outer loop
      vertex 2.540000 -4.000000 2.100000
      vertex 2.287729 -4.000000 2.221487
      vertex 2.260000 -4.000000 2.100000
    endloop
  endfacet
  facet normal 0.974928 -0.000000 -0.222521
    outer loop
      vertex 2.260000 -4.000000 2.100000
      vertex 2.287729 -4.000000 2.221487
      vertex 2.287729 -14.500000 2.221487
    endloop
  endfacet
  facet normal 0.974928 -0.000000 -0.222521
    outer loop
      vertex 2.260000 -4.000000 2.100000
      vertex 2.287729 -14.500000 2.221487
      vertex 2.260000 -14.500000 2.100000
    endloop
  endfacet
  facet normal 0.000000 1.000000 0.000000
    outer loop
      vertex 2.540000 -14.500000 2.100000
      vertex 2.287729 -14.500000 2.221487
      vertex 2.365423 -14.500000 2.318913
    endloop
  endfacet
  facet normal 0.000000 -1.000000 0.000000
    outer loop
      vertex 2.540000 -4.000000 2.100000
      vertex 2.365423 -4.000000 2.318913
      vertex 2.287729 -4.000000 2.221487
    endloop
  endfacet
  facet normal 0.781831 -0.000000 -0.623490
    outer loop
      vertex 2.287729 -4.000000 2.221487
      vertex 2.365423 -4.000000 2.318913
      vertex 2.365423 -14.500000 2.318913
    endloop
  endfacet
  facet normal 0.781831 -0.000000 -0.623490
    outer loop
      vertex 2.287729 -4.000000 2.221487
      vertex 2.365423 -14.500000 2.318913
      vertex 2.287729 -14.500000 2.221487
    endloop
  endfacet
  facet normal 0.000000 1.000000 0.000000
    outer loop
      vertex 2.540000 -14.500000 2.100000
      vertex 2.365423 -14.500000 2.318913
      vertex 2.477694 -14.500000 2.372980
    endloop
  endfacet
  facet normal 0.000000 -1.000000 0.000000
    outer loop
      vertex 2.540000 -4.000000 2.100000
      vertex 2.477694 -4.000000 2.372980
      vertex 2.365423 -4.000000 2.318913
    endloop
  endfacet
  facet normal 0.433884 -0.000000 -0.900969
    outer loop
      vertex 2.365423 -4.000000 2.318913
      vertex 2.477694 -4.000000 2.372980
      vertex 2.477694 -14.500000 2.372980
    endloop
  endfacet
  facet normal 0.433884 -0.000000 -0.900969
    outer loop
      vertex 2.365423 -4.000000 2.318913
      vertex 2.477694 -14.500000 2.372980
      vertex 2.365423 -14.500000 2.318913
    endloop
  endfacet
  facet normal 0.000000 1.000000 0.000000
    outer loop
      vertex 2.540000 -14.500000 2.100000
      vertex 2.477694 -14.500000 2.372980
      vertex 2.602306 -14.500000 2.372980
    endloop
  endfacet
  facet normal 0.000000 -1.000000 0.000000
    outer loop
      vertex 2.540000 -4.000000 2.100000
      vertex 2.602306 -4.000000 2.372980
      vertex 2.477694 -4.000000 2.372980
    endloop
  endfacet
  facet normal 0.000000 -0.000000 -1.000000
    outer loop
      vertex 2.477694 -4.000000 2.372980
      vertex 2.602306 -4.000000 2.372980
      vertex 2.602306 -14.500000 2.372980
    endloop
  endfacet
  facet normal 0.000000 -0.000000 -1.000000
    outer loop
      vertex 2.477694 -4.000000 2.372980
      vertex 2.602306 -14.500000 2.372980
      vertex 2.477694 -14.500000 2.372980
    endloop
  endfacet
  facet normal 0.000000 1.000000 0.000000
    outer loop
      vertex 2.540000 -14.500000 2.100000
      vertex 2.602306 -14.500000 2.372980
      vertex 2.714577 -14.500000 2.318913
    endloop
  endfacet
  facet normal 0.000000 -1.000000 0.000000
    outer loop
      vertex 2.540000 -4.000000 2.100000
      vertex 2.714577 -4.000000 2.318913
      vertex 2.602306 -4.000000 2.372980
    endloop
  endfacet
  facet normal -0.433884 -0.000000 -0.900969
    outer loop
      vertex 2.602306 -4.000000 2.372980
      vertex 2.714577 -4.000000 2.318913
      vertex 2.714577 -14.500000 2.318913
    endloop
  endfacet
  facet normal -0.433884 -0.000000 -0.900969
    outer loop
      vertex 2.602306 -4.000000 2.372980
      vertex 2.714577 -14.500000 2.318913
      vertex 2.602306 -14.500000 2.372980
    endloop
  endfacet
  facet normal 0.000000 1.000000 0.000000
    outer loop
      vertex 2.540000 -14.500000 2.100000
      vertex 2.714577 -14.500000 2.318913
      vertex 2.792271 -14.500000 2.221487
    endloop
  endfacet
  facet normal 0.000000 -1.000000 0.000000
    outer loop
      vertex 2.540000 -4.000000 2.100000
      vertex 2.792271 -4.000000 2.221487
      vertex 2.714577 -4.000000 2.318913
    endloop
  endfacet
  facet normal -0.781831 -0.000000 -0.623490
    outer loop
      vertex 2.714577 -4.000000 2.318913
      vertex 2.792271 -4.000000 2.221487
      vertex 2.792271 -14.500000 2.221487
    endloop
  endfacet
  facet normal -0.781831 -0.000000 -0.623490
    outer loop
      vertex 2.714577 -4.000000 2.318913
      vertex 2.792271 -14.500000 2.221487
      vertex 2.714577 -14.500000 2.318913
    endloop
  endfacet
  facet normal 0.000000 1.000000 0.000000
    outer loop
      vertex 2.540000 -14.500000 2.100000
      vertex 2.792271 -14.500000 2.221487
      vertex 2.820000 -14.500000 2.100000
    endloop
  endfacet
  facet normal 0.000000 -1.000000 0.000000
    outer loop
      vertex 2.540000 -4.000000 2.100000
      vertex 2.820000 -4.000000 2.100000
      vertex 2.792271 -4.000000 2.221487
    endloop
  endfacet
  facet normal -0.974928 -0.000000 -0.222521
    outer loop
      vertex 2.792271 -4.000000 2.221487
      vertex 2.820000 -4.000000 2.100000
      vertex 2.820000 -14.500000 2.100000
    endloop
  endfacet
  facet normal -0.974928 -0.000000 -0.222521
    outer loop
      vertex 2.792271 -4.000000 2.221487
      vertex 2.820000 -14.500000 2.100000
      vertex 2.792271 -14.500000 2.221487
    endloop
  endfacet
  facet normal 0.000000 -1.000000 0.000000
    outer loop
      vertex -6.350000 2.400000 -3.300000
      vertex 6.350000 2.400000 -3.300000
      vertex 6.350000 2.400000 3.300000
    endloop
  endfacet
  facet normal 0.000000 -1.000000 0.000000
    outer loop
      vertex -6.350000 2.400000 -3.300000
      vertex 6.350000 2.400000 3.300000
      vertex -6.350000 2.400000 3.300000
    endloop
  endfacet
  facet normal 0.000000 1.000000 0.000000
    outer loop
      vertex -6.350000 -2.400000 3.300000
      vertex 6.350000 -2.400000 3.300000
      vertex 6.350000 -2.400000 -3.300000
    endloop
  endfacet
  facet normal 0.000000 1.000000 0.000000
    outer loop
      vertex -6.350000 -2.400000 3.300000
      vertex 6.350000 -2.400000 -3.300000
      vertex -6.350000 -2.400000 -3.300000
    endloop
  endfacet
  facet normal 0.000000 0.000000 -1.000000
    outer loop
      vertex -6.350000 2.400000 3.300000
      vertex 6.350000 2.400000 3.300000
      vertex 6.350000 -2.400000 3.300000
    endloop
  endfacet
  facet normal 0.000000 0.000000 -1.000000
    outer loop
      vertex -6.350000 2.400000 3.300000
      vertex 6.350000 -2.400000 3.300000
      vertex -6.350000 -2.400000 3.300000
    endloop
  endfacet
  facet normal 0.000000 0.000000 1.000000
    outer loop
      vertex 6.350000 -2.400000 -3.300000
      vertex 6.350000 2.400000 -3.300000
      vertex -6.350000 2.400000 -3.300000
    endloop
  endfacet
  facet normal 0.000000 0.000000 1.000000
    outer loop
      vertex 6.350000 -2.400000 -3.300000
      vertex -6.350000 2.400000 -3.300000
      vertex -6.350000 -2.400000 -3.300000
    endloop
  endfacet
  facet normal -1.000000 0.000000 0.000000
    outer loop
      vertex 6.350000 -2.400000 3.300000
      vertex 6.350000 2.400000 3.300000
      vertex 6.350000 2.400000 -3.300000
    endloop
  endfacet
  facet normal -1.000000 0.000000 0.000000
    outer loop
      vertex 6.350000 -2.400000 3.300000
      vertex 6.350000 2.400000 -3.300000
      vertex 6.350000 -2.400000 -3.300000
    endloop
  endfacet
  facet normal 1.000000 0.000000 0.000000
    outer loop
      vertex -6.350000 -2.400000 -3.300000
      vertex -6.350000 2.400000 -3.300000
      vertex -6.350000 2.400000 3.300000
    endloop
  endfacet
  facet normal 1.000000 0.000000 0.000000
    outer loop
      vertex -6.350000 -2.400000 -3.300000
      vertex -6.350000 2.400000 3.300000
      vertex -6.350000 -2.400000 3.300000
    endloop
  endfacet
  facet normal -0.309017 -0.951057 0.000000
    outer loop
      vertex 1.236068 8.804226 0.000000
      vertex 1.901808 8.587914 0.000000
      vertex 1.879123 8.595285 0.181173
    endloop
  endfacet
  facet normal 0.309017 0.951057 0.000000
    outer loop
      vertex -1.236068 1.195774 0.000000
      vertex -0.593013 0.986833 0.181173
      vertex -0.570328 0.979462 0.000000
    endloop
  endfacet
  facet normal -0.942920 0.306373 -0.130526
    outer loop
      vertex -0.570328 0.979462 0.000000
      vertex -0.593013 0.986833 0.181173
      vertex 1.879123 8.595285 0.181173
    endloop
  endfacet
  facet normal -0.942920 0.306373 -0.130526
    outer loop
      vertex -0.570328 0.979462 0.000000
      vertex 1.879123 8.595285 0.181173
      vertex 1.901808 8.587914 0.000000
    endloop
  endfacet
  facet normal -0.309017 -0.951057 -0.000000
    outer loop
      vertex 1.236068 8.804226 0.000000
      vertex 1.879123 8.595285 0.181173
      vertex 1.812615 8.616894 0.350000
    endloop
  endfacet
  facet normal 0.309017 0.951057 -0.000000
    outer loop
      vertex -1.236068 1.195774 0.000000
      vertex -0.659521 1.008442 0.350000
      vertex -0.593013 0.986833 0.181173
    endloop
  endfacet
  facet normal -0.878662 0.285494 -0.382683
    outer loop
      vertex -0.593013 0.986833 0.181173
      vertex -0.659521 1.008442 0.350000
      vertex 1.812615 8.616894 0.350000
    endloop
  endfacet
  facet normal -0.878662 0.285494 -0.382683
    outer loop
      vertex -0.593013 0.986833 0.181173
      vertex 1.812615 8.616894 0.350000
      vertex 1.879123 8.595285 0.181173
    endloop
  endfacet
  facet normal -0.309017 -0.951057 0.000000
    outer loop
      vertex 1.236068 8.804226 0.000000
      vertex 1.812615 8.616894 0.350000
      vertex 1.706817 8.651270 0.494975
    endloop
  endfacet
  facet normal 0.309017 0.951057 -0.000000
    outer loop
      vertex -1.236068 1.195774 0.000000
      vertex -0.765319 1.042818 0.494975
      vertex -0.659521 1.008442 0.350000
    endloop
  endfacet
  facet normal -0.754524 0.245160 -0.608761
    outer loop
      vertex -0.659521 1.008442 0.350000
      vertex -0.765319 1.042818 0.494975
      vertex 1.706817 8.651270 0.494975
    endloop
  endfacet
  facet normal -0.754524 0.245160 -0.608761
    outer loop
      vertex -0.659521 1.008442 0.350000
      vertex 1.706817 8.651270 0.494975
      vertex 1.812615 8.616894 0.350000
    endloop
  endfacet
  facet normal -0.309017 -0.951057 -0.000000
    outer loop
      vertex 1.236068 8.804226 0.000000
      vertex 1.706817 8.651270 0.494975
      vertex 1.568938 8.696070 0.606218
    endloop
  endfacet
  facet normal 0.309017 0.951057 0.000000
    outer loop
      vertex -1.236068 1.195774 0.000000
      vertex -0.903198 1.087618 0.606218
      vertex -0.765319 1.042818 0.494975
    endloop
  endfacet
  facet normal -0.578967 0.188118 -0.793353
    outer loop
      vertex -0.765319 1.042818 0.494975
      vertex -0.903198 1.087618 0.606218
      vertex 1.568938 8.696070 0.606218
    endloop
  endfacet
  facet normal -0.578967 0.188118 -0.793353
    outer loop
      vertex -0.765319 1.042818 0.494975
      vertex 1.568938 8.696070 0.606218
      vertex 1.706817 8.651270 0.494975
    endloop
  endfacet
  facet normal -0.309017 -0.951057 0.000000
    outer loop
      vertex 1.236068 8.804226 0.000000
      vertex 1.568938 8.696070 0.606218
      vertex 1.408374 8.748240 0.676148
    endloop
  endfacet
  facet normal 0.309017 0.951057 -0.000000
    outer loop
      vertex -1.236068 1.195774 0.000000
      vertex -1.063762 1.139788 0.676148
      vertex -0.903198 1.087618 0.606218
    endloop
  endfacet
  facet normal -0.363954 0.118256 -0.923880
    outer loop
      vertex -0.903198 1.087618 0.606218
      vertex -1.063762 1.139788 0.676148
      vertex 1.408374 8.748240 0.676148
    endloop
  endfacet
  facet normal -0.363954 0.118256 -0.923880
    outer loop
      vertex -0.903198 1.087618 0.606218
      vertex 1.408374 8.748240 0.676148
      vertex 1.568938 8.696070 0.606218
    endloop
  endfacet
  facet normal -0.309017 -0.951057 0.000000
    outer loop
      vertex 1.236068 8.804226 0.000000
      vertex 1.408374 8.748240 0.676148
      vertex 1.236068 8.804226 0.700000
    endloop
  endfacet
  facet normal 0.309017 0.951057 0.000000
    outer loop
      vertex -1.236068 1.195774 0.000000
      vertex -1.236068 1.195774 0.700000
      vertex -1.063762 1.139788 0.676148
    endloop
  endfacet
  facet normal -0.124138 0.040335 -0.991445
    outer loop
      vertex -1.063762 1.139788 0.676148
      vertex -1.236068 1.195774 0.700000
      vertex 1.236068 8.804226 0.700000
    endloop
  endfacet
  facet normal -0.124138 0.040335 -0.991445
    outer loop
      vertex -1.063762 1.139788 0.676148
      vertex 1.236068 8.804226 0.700000
      vertex 1.408374 8.748240 0.676148
    endloop
  endfacet
  facet normal -0.309017 -0.951057 0.000000
    outer loop
      vertex 1.236068 8.804226 0.000000
      vertex 1.236068 8.804226 0.700000
      vertex 1.063762 8.860212 0.676148
    endloop
  endfacet
  facet normal 0.309017 0.951057 0.000000
    outer loop
      vertex -1.236068 1.195774 0.000000
      vertex -1.408374 1.251760 0.676148
      vertex -1.236068 1.195774 0.700000
    endloop
  endfacet
  facet normal 0.124138 -0.040335 -0.991445
    outer loop
      vertex -1.236068 1.195774 0.700000
      vertex -1.408374 1.251760 0.676148
      vertex 1.063762 8.860212 0.676148
    endloop
  endfacet
  facet normal 0.124138 -0.040335 -0.991445
    outer loop
      vertex -1.236068 1.195774 0.700000
      vertex 1.063762 8.860212 0.676148
      vertex 1.236068 8.804226 0.700000
    endloop
  endfacet
  facet normal -0.309017 -0.951057 -0.000000
    outer loop
      vertex 1.236068 8.804226 0.000000
      vertex 1.063762 8.860212 0.676148
      vertex 0.903198 8.912382 0.606218
    endloop
  endfacet
  facet normal 0.309017 0.951057 0.000000
    outer loop
      vertex -1.236068 1.195774 0.000000
      vertex -1.568938 1.303930 0.606218
      vertex -1.408374 1.251760 0.676148
    endloop
  endfacet
  facet normal 0.363954 -0.118256 -0.923880
    outer loop
      vertex -1.408374 1.251760 0.676148
      vertex -1.568938 1.303930 0.606218
      vertex 0.903198 8.912382 0.606218
    endloop
  endfacet
  facet normal 0.363954 -0.118256 -0.923880
    outer loop
      vertex -1.408374 1.251760 0.676148
      vertex 0.903198 8.912382 0.606218
      vertex 1.063762 8.860212 0.676148
    endloop
  endfacet
  facet normal -0.309017 -0.951057 0.000000
    outer loop
      vertex 1.236068 8.804226 0.000000
      vertex 0.903198 8.912382 0.606218
      vertex 0.765319 8.957182 0.494975
    endloop
  endfacet
  facet normal 0.309017 0.951057 -0.000000
    outer loop
      vertex -1.236068 1.195774 0.000000
      vertex -1.706817 1.348730 0.494975
      vertex -1.568938 1.303930 0.606218
    endloop
  endfacet
  facet normal 0.578967 -0.188118 -0.793353
    outer loop
      vertex -1.568938 1.303930 0.606218
      vertex -1.706817 1.348730 0.494975
      vertex 0.765319 8.957182 0.494975
    endloop
  endfacet
  facet normal 0.578967 -0.188118 -0.793353
    outer loop
      vertex -1.568938 1.303930 0.606218
      vertex 0.765319 8.957182 0.494975
      vertex 0.903198 8.912382 0.606218
    endloop
  endfacet
  facet normal -0.309017 -0.951057 -0.000000
    outer loop
      vertex 1.236068 8.804226 0.000000
      vertex 0.765319 8.957182 0.494975
      vertex 0.659521 8.991558 0.350000
    endloop
  endfacet
  facet normal 0.309017 0.951057 -0.000000
    outer loop
      vertex -1.236068 1.195774 0.000000
      vertex -1.812615 1.383106 0.350000
      vertex -1.706817 1.348730 0.494975
    endloop
  endfacet
  facet normal 0.754524 -0.245160 -0.608761
    outer loop
      vertex -1.706817 1.348730 0.494975
      vertex -1.812615 1.383106 0.350000
      vertex 0.659521 8.991558 0.350000
    endloop
  endfacet
  facet normal 0.754524 -0.245160 -0.608761
    outer loop
      vertex -1.706817 1.348730 0.494975
      vertex 0.659521 8.991558 0.350000
      vertex 0.765319 8.957182 0.494975
    endloop
  endfacet
  facet normal -0.309017 -0.951057 0.000000
    outer loop
      vertex 1.236068 8.804226 0.000000
      vertex 0.659521 8.991558 0.350000
      vertex 0.593013 9.013167 0.181173
    endloop
  endfacet
  facet normal 0.309017 0.951057 0.000000
    outer loop
      vertex -1.236068 1.195774 0.000000
      vertex -1.879123 1.404715 0.181173
      vertex -1.812615 1.383106 0.350000
    endloop
  endfacet
  facet normal 0.878662 -0.285494 -0.382683
    outer loop
      vertex -1.812615 1.383106 0.350000
      vertex -1.879123 1.404715 0.181173
      vertex 0.593013 9.013167 0.181173
    endloop
  endfacet
  facet normal 0.878662 -0.285494 -0.382683
    outer loop
      vertex -1.812615 1.383106 0.350000
      vertex 0.593013 9.013167 0.181173
      vertex 0.659521 8.991558 0.350000
    endloop
  endfacet
  facet normal -0.309017 -0.951057 -0.000000
    outer loop
      vertex 1.236068 8.804226 0.000000
      vertex 0.593013 9.013167 0.181173
      vertex 0.570328 9.020538 0.000000
    endloop
  endfacet
  facet normal 0.309017 0.951057 -0.000000
    outer loop
      vertex -1.236068 1.195774 0.000000
      vertex -1.901808 1.412086 0.000000
      vertex -1.879123 1.404715 0.181173
    endloop
  endfacet
  facet normal 0.942920 -0.306373 -0.130526
    outer loop
      vertex -1.879123 1.404715 0.181173
      vertex -1.901808 1.412086 0.000000
      vertex 0.570328 9.020538 0.000000
    endloop
  endfacet
  facet normal 0.942920 -0.306373 -0.130526
    outer loop
      vertex -1.879123 1.404715 0.181173
      vertex 0.570328 9.020538 0.000000
      vertex 0.593013 9.013167 0.181173
    endloop
  endfacet
  facet normal -0.309017 -0.951057 -0.000000
    outer loop
      vertex 1.236068 8.804226 0.000000
      vertex 0.570328 9.020538 0.000000
      vertex 0.593013 9.013167 -0.181173
    endloop
  endfacet
  facet normal 0.309017 0.951057 0.000000
    outer loop
      vertex -1.236068 1.195774 0.000000
      vertex -1.879123 1.404715 -0.181173
      vertex -1.901808 1.412086 0.000000
    endloop
  endfacet
  facet normal 0.942920 -0.306373 0.130526
    outer loop
      vertex -1.901808 1.412086 0.000000
      vertex -1.879123 1.404715 -0.181173
      vertex 0.593013 9.013167 -0.181173
    endloop
  endfacet
  facet normal 0.942920 -0.306373 0.130526
    outer loop
      vertex -1.901808 1.412086 0.000000
      vertex 0.593013 9.013167 -0.181173
      vertex 0.570328 9.020538 0.000000
    endloop
  endfacet
  facet normal -0.309017 -0.951057 0.000000
    outer loop
      vertex 1.236068 8.804226 0.000000
      vertex 0.593013 9.013167 -0.181173
      vertex 0.659521 8.991558 -0.350000
    endloop
  endfacet
  facet normal 0.309017 0.951057 -0.000000
    outer loop
      vertex -1.236068 1.195774 0.000000
      vertex -1.812615 1.383106 -0.350000
      vertex -1.879123 1.404715 -0.181173
    endloop
  endfacet
  facet normal 0.878662 -0.285494 0.382683
    outer loop
      vertex -1.879123 1.404715 -0.181173
      vertex -1.812615 1.383106 -0.350000
      vertex 0.659521 8.991558 -0.350000
    endloop
  endfacet
  facet normal 0.878662 -0.285494 0.382683
    outer loop
      vertex -1.879123 1.404715 -0.181173
      vertex 0.659521 8.991558 -0.350000
      vertex 0.593013 9.013167 -0.181173
    endloop
  endfacet
  facet normal -0.309017 -0.951057 0.000000
    outer loop
      vertex 1.236068 8.804226 0.000000
      vertex 0.659521 8.991558 -0.350000
      vertex 0.765319 8.957182 -0.494975
    endloop
  endfacet
  facet normal 0.309017 0.951057 -0.000000
    outer loop
      vertex -1.236068 1.195774 0.000000
      vertex -1.706817 1.348730 -0.494975
      vertex -1.812615 1.383106 -0.350000
    endloop
  endfacet
  facet normal 0.754524 -0.245160 0.608761
    outer loop
      vertex -1.812615 1.383106 -0.350000
      vertex -1.706817 1.348730 -0.494975
      vertex 0.765319 8.957182 -0.494975
    endloop
  endfacet
  facet normal 0.754524 -0.245160 0.608761
    outer loop
      vertex -1.812615 1.383106 -0.350000
      vertex 0.765319 8.957182 -0.494975
      vertex 0.659521 8.991558 -0.350000
    endloop
  endfacet
  facet normal -0.309017 -0.951057 -0.000000
    outer loop
      vertex 1.236068 8.804226 0.000000
      vertex 0.765319 8.957182 -0.494975
      vertex 0.903198 8.912382 -0.606218
    endloop
  endfacet
  facet normal 0.309017 0.951057 0.000000
    outer loop
      vertex -1.236068 1.195774 0.000000
      vertex -1.568938 1.303930 -0.606218
      vertex -1.706817 1.348730 -0.494975
    endloop
  endfacet
  facet normal 0.578967 -0.188118 0.793353
    outer loop
      vertex -1.706817 1.348730 -0.494975
      vertex -1.568938 1.303930 -0.606218
      vertex 0.903198 8.912382 -0.606218
    endloop
  endfacet
  facet normal 0.578967 -0.188118 0.793353
    outer loop
      vertex -1.706817 1.348730 -0.494975
      vertex 0.903198 8.912382 -0.606218
      vertex 0.765319 8.957182 -0.494975
    endloop
  endfacet
  facet normal -0.309017 -0.951057 0.000000
    outer loop
      vertex 1.236068 8.804226 0.000000
      vertex 0.903198 8.912382 -0.606218
      vertex 1.063762 8.860212 -0.676148
    endloop
  endfacet
  facet normal 0.309017 0.951057 0.000000
    outer loop
      vertex -1.236068 1.195774 0.000000
      vertex -1.408374 1.251760 -0.676148
      vertex -1.568938 1.303930 -0.606218
    endloop
  endfacet
  facet normal 0.363954 -0.118256 0.923880
    outer loop
      vertex -1.568938 1.303930 -0.606218
      vertex -1.408374 1.251760 -0.676148
      vertex 1.063762 8.860212 -0.676148
    endloop
  endfacet
  facet normal 0.363954 -0.118256 0.923880
    outer loop
      vertex -1.568938 1.303930 -0.606218
      vertex 1.063762 8.860212 -0.676148
      vertex 0.903198 8.912382 -0.606218
    endloop
  endfacet
  facet normal -0.309017 -0.951057 0.000000
    outer loop
      vertex 1.236068 8.804226 0.000000
      vertex 1.063762 8.860212 -0.676148
      vertex 1.236068 8.804226 -0.700000
    endloop
  endfacet
  facet normal 0.309017 0.951057 -0.000000
    outer loop
      vertex -1.236068 1.195774 0.000000
      vertex -1.236068 1.195774 -0.700000
      vertex -1.408374 1.251760 -0.676148
    endloop
  endfacet
  facet normal 0.124138 -0.040335 0.991445
    outer loop
      vertex -1.408374 1.251760 -0.676148
      vertex -1.236068 1.195774 -0.700000
      vertex 1.236068 8.804226 -0.700000
    endloop
  endfacet
  facet normal 0.124138 -0.040335 0.991445
    outer loop
      vertex -1.408374 1.251760 -0.676148
      vertex 1.236068 8.804226 -0.700000
      vertex 1.063762 8.860212 -0.676148
    endloop
  endfacet
  facet normal -0.309017 -0.951057 0.000000
    outer loop
      vertex 1.236068 8.804226 0.000000
      vertex 1.236068 8.804226 -0.700000
      vertex 1.408374 8.748240 -0.676148
    endloop
  endfacet
  facet normal 0.309017 0.951057 -0.000000
    outer loop
      vertex -1.236068 1.195774 0.000000
      vertex -1.063762 1.139788 -0.676148
      vertex -1.236068 1.195774 -0.700000
    endloop
  endfacet
  facet normal -0.124138 0.040335 0.991445
    outer loop
      vertex -1.236068 1.195774 -0.700000
      vertex -1.063762 1.139788 -0.676148
      vertex 1.408374 8.748240 -0.676148
    endloop
  endfacet
  facet normal -0.124138 0.040335 0.991445
    outer loop
      vertex -1.236068 1.195774 -0.700000
      vertex 1.408374 8.748240 -0.676148
      vertex 1.236068 8.804226 -0.700000
    endloop
  endfacet
  facet normal -0.309017 -0.951057 -0.000000
    outer loop
      vertex 1.236068 8.804226 0.000000
      vertex 1.408374 8.748240 -0.676148
      vertex 1.568938 8.696070 -0.606218
    endloop
  endfacet
  facet normal 0.309017 0.951057 -0.000000
    outer loop
      vertex -1.236068 1.195774 0.000000
      vertex -0.903198 1.087618 -0.606218
      vertex -1.063762 1.139788 -0.676148
    endloop
  endfacet
  facet normal -0.363954 0.118256 0.923880
    outer loop
      vertex -1.063762 1.139788 -0.676148
      vertex -0.903198 1.087618 -0.606218
      vertex 1.568938 8.696070 -0.606218
    endloop
  endfacet
  facet normal -0.363954 0.118256 0.923880
    outer loop
      vertex -1.063762 1.139788 -0.676148
      vertex 1.568938 8.696070 -0.606218
      vertex 1.408374 8.748240 -0.676148
    endloop
  endfacet
  facet normal -0.309017 -0.951057 0.000000
    outer loop
      vertex 1.236068 8.804226 0.000000
      vertex 1.568938 8.696070 -0.606218
      vertex 1.706817 8.651270 -0.494975
    endloop
  endfacet
  facet normal 0.309017 0.951057 -0.000000
    outer loop
      vertex -1.236068 1.195774 0.000000
      vertex -0.765319 1.042818 -0.494975
      vertex -0.903198 1.087618 -0.606218
    endloop
  endfacet
  facet normal -0.578967 0.188118 0.793353
    outer loop
      vertex -0.903198 1.087618 -0.606218
      vertex -0.765319 1.042818 -0.494975
      vertex 1.706817 8.651270 -0.494975
    endloop
  endfacet
  facet normal -0.578967 0.188118 0.793353
    outer loop
      vertex -0.903198 1.087618 -0.606218
      vertex 1.706817 8.651270 -0.494975
      vertex 1.568938 8.696070 -0.606218
    endloop
  endfacet
  facet normal -0.309017 -0.951057 -0.000000
    outer loop
      vertex 1.236068 8.804226 0.000000
      vertex 1.706817 8.651270 -0.494975
      vertex 1.812615 8.616894 -0.350000
    endloop
  endfacet
  facet normal 0.309017 0.951057 0.000000
    outer loop
      vertex -1.236068 1.195774 0.000000
      vertex -0.659521 1.008442 -0.350000
      vertex -0.765319 1.042818 -0.494975
    endloop
  endfacet
  facet normal -0.754524 0.245160 0.608761
    outer loop
      vertex -0.765319 1.042818 -0.494975
      vertex -0.659521 1.008442 -0.350000
      vertex 1.812615 8.616894 -0.350000
    endloop
  endfacet
  facet normal -0.754524 0.245160 0.608761
    outer loop
      vertex -0.765319 1.042818 -0.494975
      vertex 1.812615 8.616894 -0.350000
      vertex 1.706817 8.651270 -0.494975
    endloop
  endfacet
  facet normal -0.309017 -0.951057 0.000000
    outer loop
      vertex 1.236068 8.804226 0.000000
      vertex 1.812615 8.616894 -0.350000
      vertex 1.879123 8.595285 -0.181173
    endloop
  endfacet
  facet normal 0.309017 0.951057 0.000000
    outer loop
      vertex -1.236068 1.195774 0.000000
      vertex -0.593013 0.986833 -0.181173
      vertex -0.659521 1.008442 -0.350000
    endloop
  endfacet
  facet normal -0.878662 0.285494 0.382683
    outer loop
      vertex -0.659521 1.008442 -0.350000
      vertex -0.593013 0.986833 -0.181173
      vertex 1.879123 8.595285 -0.181173
    endloop
  endfacet
  facet normal -0.878662 0.285494 0.382683
    outer loop
      vertex -0.659521 1.008442 -0.350000
      vertex 1.879123 8.595285 -0.181173
      vertex 1.812615 8.616894 -0.350000
    endloop
  endfacet
  facet normal -0.309017 -0.951057 -0.000000
    outer loop
      vertex 1.236068 8.804226 0.000000
      vertex 1.879123 8.595285 -0.181173
      vertex 1.901808 8.587914 0.000000
    endloop
  endfacet
  facet normal 0.309017 0.951057 -0.000000
    outer loop
      vertex -1.236068 1.195774 0.000000
      vertex -0.570328 0.979462 0.000000
      vertex -0.593013 0.986833 -0.181173
    endloop
  endfacet
  facet normal -0.942920 0.306373 0.130526
    outer loop
      vertex -0.593013 0.986833 -0.181173
      vertex -0.570328 0.979462 0.000000
      vertex 1.901808 8.587914 0.000000
    endloop
  endfacet
  facet normal -0.942920 0.306373 0.130526
    outer loop
      vertex -0.593013 0.986833 -0.181173
      vertex 1.901808 8.587914 0.000000
      vertex 1.879123 8.595285 -0.181173
    endloop
  endfacet
endsolid toggle_switch_spdt