solid mpu6050_imu
  facet normal 0.000000 -1.000000 0.000000
    outer loop
      vertex -10.500000 1.600000 -8.000000
      vertex 10.500000 1.600000 -8.000000
      vertex 10.500000 1.600000 8.000000
    endloop
  endfacet
  facet normal 0.000000 -1.000000 0.000000
    outer loop
      vertex -10.500000 1.600000 -8.000000
      vertex 10.500000 1.600000 8.000000
      vertex -10.500000 1.600000 8.000000
    endloop
  endfacet
  facet normal 0.000000 1.000000 0.000000
    outer loop
      vertex -10.500000 0.000000 8.000000
      vertex 10.500000 0.000000 8.000000
      vertex 10.500000 0.000000 -8.000000
    endloop
  endfacet
  facet normal 0.000000 1.000000 0.000000
    outer loop
      vertex -10.500000 0.000000 8.000000
      vertex 10.500000 0.000000 -8.000000
      vertex -10.500000 0.000000 -8.000000
    endloop
  endfacet
  facet normal 0.000000 0.000000 -1.000000
    outer loop
      vertex -10.500000 1.600000 8.000000
      vertex 10.500000 1.600000 8.000000
      vertex 10.500000 0.000000 8.000000
    endloop
  endfacet
  facet normal 0.000000 0.000000 -1.000000
    outer loop
      vertex -10.500000 1.600000 8.000000
      vertex 10.500000 0.000000 8.000000
      vertex -10.500000 0.000000 8.000000
    endloop
  endfacet
  facet normal 0.000000 0.000000 1.000000
    outer loop
      vertex 10.500000 0.000000 -8.000000
      vertex 10.500000 1.600000 -8.000000
      vertex -10.500000 1.600000 -8.000000
    endloop
  endfacet
  facet normal 0.000000 0.000000 1.000000
    outer loop
      vertex 10.500000 0.000000 -8.000000
      vertex -10.500000 1.600000 -8.000000
      vertex -10.500000 0.000000 -8.000000
    endloop
  endfacet
  facet normal -1.000000 0.000000 0.000000
    outer loop
      vertex 10.500000 0.000000 8.000000
      vertex 10.500000 1.600000 8.000000
      vertex 10.500000 1.600000 -8.000000
    endloop
  endfacet
  facet normal -1.000000 0.000000 0.000000
    outer loop
      vertex 10.500000 0.000000 8.000000
      vertex 10.500000 1.600000 -8.000000
      vertex 10.500000 0.000000 -8.000000
    endloop
  endfacet
  facet normal 1.000000 0.000000 0.000000
    outer loop
      vertex -10.500000 0.000000 -8.000000
      vertex -10.500000 1.600000 -8.000000
      vertex -10.500000 1.600000 8.000000
    endloop
  endfacet
  facet normal 1.000000 0.000000 0.000000
    outer loop
      vertex -10.500000 0.000000 -8.000000
      vertex -10.500000 1.600000 8.000000
      vertex -10.500000 0.000000 8.000000
    endloop
  endfacet
  facet normal 0.000000 -1.000000 0.000000
    outer loop
      vertex -9.990000 7.225000 -7.100000
      vertex -7.790000 7.225000 -7.100000
      vertex -7.790000 7.225000 -4.900000
    endloop
  endfacet
  facet normal 0.000000 -1.000000 0.000000
    outer loop
      vertex -9.990000 7.225000 -7.100000
      vertex -7.790000 7.225000 -4.900000
      vertex -9.990000 7.225000 -4.900000
    endloop
  endfacet
  facet normal 0.000000 1.000000 0.000000
    outer loop
      vertex -9.990000 5.675000 -4.900000
      vertex -7.790000 5.675000 -4.900000
      vertex -7.790000 5.675000 -7.100000
    endloop
  endfacet
  facet normal 0.000000 1.000000 0.000000
    outer loop
      vertex -9.990000 5.675000 -4.900000
      vertex -7.790000 5.675000 -7.100000
      vertex -9.990000 5.675000 -7.100000
    endloop
  endfacet
  facet normal 0.000000 0.000000 -1.000000
    outer loop
      vertex -9.990000 7.225000 -4.900000
      vertex -7.790000 7.225000 -4.900000
      vertex -7.790000 5.675000 -4.900000
    endloop
  endfacet
  facet normal 0.000000 0.000000 -1.000000
    outer loop
      vertex -9.990000 7.225000 -4.900000
      vertex -7.790000 5.675000 -4.900000
      vertex -9.990000 5.675000 -4.900000
    endloop
  endfacet
  facet normal 0.000000 0.000000 1.000000
    outer loop
      vertex -7.790000 5.675000 -7.100000
      vertex -7.790000 7.225000 -7.100000
      vertex -9.990000 7.225000 -7.100000
    endloop
  endfacet
  facet normal 0.000000 0.000000 1.000000
    outer loop
      vertex -7.790000 5.675000 -7.100000
      vertex -9.990000 7.225000 -7.100000
      vertex -9.990000 5.675000 -7.100000
    endloop
  endfacet
  facet normal -1.000000 0.000000 0.000000
    outer loop
      vertex -7.790000 5.675000 -4.900000
      vertex -7.790000 7.225000 -4.900000
      vertex -7.790000 7.225000 -7.100000
    endloop
  endfacet
  facet normal -1.000000 0.000000 0.000000
    outer loop
      vertex -7.790000 5.675000 -4.900000
      vertex -7.790000 7.225000 -7.100000
      vertex -7.790000 5.675000 -7.100000
    endloop
  endfacet
  facet normal 1.000000 0.000000 0.000000
    outer loop
      vertex -9.990000 5.675000 -7.100000
      vertex -9.990000 7.225000 -7.100000
      vertex -9.990000 7.225000 -4.900000
    endloop
  endfacet
  facet normal 1.000000 0.000000 0.000000
    outer loop
      vertex -9.990000 5.675000 -7.100000
      vertex -9.990000 7.225000 -4.900000
      vertex -9.990000 5.675000 -4.900000
    endloop
  endfacet
  facet normal 0.000000 -1.000000 0.000000
    outer loop
      vertex -9.220000 11.200000 -6.330000
      vertex -8.560000 11.200000 -6.330000
      vertex -8.560000 11.200000 -5.670000
    endloop
  endfacet
  facet normal 0.000000 -1.000000 0.000000
    outer loop
      vertex -9.220000 11.200000 -6.330000
      vertex -8.560000 11.200000 -5.670000
      vertex -9.220000 11.200000 -5.670000
    endloop
  endfacet
  facet normal 0.000000 1.000000 0.000000
    outer loop
      vertex -9.220000 6.000000 -5.670000
      vertex -8.560000 6.000000 -5.670000
      vertex -8.560000 6.000000 -6.330000
    endloop
  endfacet
  facet normal 0.000000 1.000000 0.000000
    outer loop
      vertex -9.220000 6.000000 -5.670000
      vertex -8.560000 6.000000 -6.330000
      vertex -9.220000 6.000000 -6.330000
    endloop
  endfacet
  facet normal 0.000000 0.000000 -1.000000
    outer loop
      vertex -9.220000 11.200000 -5.670000
      vertex -8.560000 11.200000 -5.670000
      vertex -8.560000 6.000000 -5.670000
    endloop
  endfacet
  facet normal 0.000000 0.000000 -1.000000
    outer loop
      vertex -9.220000 11.200000 -5.670000
      vertex -8.560000 6.000000 -5.670000
      vertex -9.220000 6.000000 -5.670000
    endloop
  endfacet
  facet normal 0.000000 0.000000 1.000000
    outer loop
      vertex -8.560000 6.000000 -6.330000
      vertex -8.560000 11.200000 -6.330000
      vertex -9.220000 11.200000 -6.330000
    endloop
  endfacet
  facet normal 0.000000 0.000000 1.000000
    outer loop
      vertex -8.560000 6.000000 -6.330000
      vertex -9.220000 11.200000 -6.330000
      vertex -9.220000 6.000000 -6.330000
    endloop
  endfacet
  facet normal -1.000000 0.000000 0.000000
    outer loop
      vertex -8.560000 6.000000 -5.670000
      vertex -8.560000 11.200000 -5.670000
      vertex -8.560000 11.200000 -6.330000
    endloop
  endfacet
  facet normal -1.000000 0.000000 0.000000
    outer loop
      vertex -8.560000 6.000000 -5.670000
      vertex -8.560000 11.200000 -6.330000
      vertex -8.560000 6.000000 -6.330000
    endloop
  endfacet
  facet normal 1.000000 0.000000 0.000000
    outer loop
      vertex -9.220000 6.000000 -6.330000
      vertex -9.220000 11.200000 -6.330000
      vertex -9.220000 11.200000 -5.670000
    endloop
  endfacet
  facet normal 1.000000 0.000000 0.000000
    outer loop
      vertex -9.220000 6.000000 -6.330000
      vertex -9.220000 11.200000 -5.670000
      vertex -9.220000 6.000000 -5.670000
    endloop
  endfacet
  facet normal 0.000000 -1.000000 0.000000
    outer loop
      vertex -7.450000 7.225000 -7.100000
      vertex -5.250000 7.225000 -7.100000
      vertex -5.250000 7.225000 -4.900000
    endloop
  endfacet
  facet normal 0.000000 -1.000000 0.000000
    outer loop
      vertex -7.450000 7.225000 -7.100000
      vertex -5.250000 7.225000 -4.900000
      vertex -7.450000 7.225000 -4.900000
    endloop
  endfacet
  facet normal 0.000000 1.000000 0.000000
    outer loop
      vertex -7.450000 5.675000 -4.900000
      vertex -5.250000 5.675000 -4.900000
      vertex -5.250000 5.675000 -7.100000
    endloop
  endfacet
  facet normal 0.000000 1.000000 0.000000
    outer loop
      vertex -7.450000 5.675000 -4.900000
      vertex -5.250000 5.675000 -7.100000
      vertex -7.450000 5.675000 -7.100000
    endloop
  endfacet
  facet normal 0.000000 0.000000 -1.000000
    outer loop
      vertex -7.450000 7.225000 -4.900000
      vertex -5.250000 7.225000 -4.900000
      vertex -5.250000 5.675000 -4.900000
    endloop
  endfacet
  facet normal 0.000000 0.000000 -1.000000
    outer loop
      vertex -7.450000 7.225000 -4.900000
      vertex -5.250000 5.675000 -4.900000
      vertex -7.450000 5.675000 -4.900000
    endloop
  endfacet
  facet normal 0.000000 0.000000 1.000000
    outer loop
      vertex -5.250000 5.675000 -7.100000
      vertex -5.250000 7.225000 -7.100000
      vertex -7.450000 7.225000 -7.100000
    endloop
  endfacet
  facet normal 0.000000 0.000000 1.000000
    outer loop
      vertex -5.250000 5.675000 -7.100000
      vertex -7.450000 7.225000 -7.100000
      vertex -7.450000 5.675000 -7.100000
    endloop
  endfacet
  facet normal -1.000000 0.000000 0.000000
    outer loop
      vertex -5.250000 5.675000 -4.900000
      vertex -5.250000 7.225000 -4.900000
      vertex -5.250000 7.225000 -7.100000
    endloop
  endfacet
  facet normal -1.000000 0.000000 0.000000
    outer loop
      vertex -5.250000 5.675000 -4.900000
      vertex -5.250000 7.225000 -7.100000
      vertex -5.250000 5.675000 -7.100000
    endloop
  endfacet
  facet normal 1.000000 0.000000 0.000000
    outer loop
      vertex -7.450000 5.675000 -7.100000
      vertex -7.450000 7.225000 -7.100000
      vertex -7.450000 7.225000 -4.900000
    endloop
  endfacet
  facet normal 1.000000 0.000000 0.000000
    outer loop
      vertex -7.450000 5.675000 -7.100000
      vertex -7.450000 7.225000 -4.900000
      vertex -7.450000 5.675000 -4.900000
    endloop
  endfacet
  facet normal 0.000000 -1.000000 0.000000
    outer loop
      vertex -6.680000 11.200000 -6.330000
      vertex -6.020000 11.200000 -6.330000
      vertex -6.020000 11.200000 -5.670000
    endloop
  endfacet
  facet normal 0.000000 -1.000000 0.000000
    outer loop
      vertex -6.680000 11.200000 -6.330000
      vertex -6.020000 11.200000 -5.670000
      vertex -6.680000 11.200000 -5.670000
    endloop
  endfacet
  facet normal 0.000000 1.000000 0.000000
    outer loop
      vertex -6.680000 6.000000 -5.670000
      vertex -6.020000 6.000000 -5.670000
      vertex -6.020000 6.000000 -6.330000
    endloop
  endfacet
  facet normal 0.000000 1.000000 0.000000
    outer loop
      vertex -6.680000 6.000000 -5.670000
      vertex -6.020000 6.000000 -6.330000
      vertex -6.680000 6.000000 -6.330000
    endloop
  endfacet
  facet normal 0.000000 0.000000 -1.000000
    outer loop
      vertex -6.680000 11.200000 -5.670000
      vertex -6.020000 11.200000 -5.670000
      vertex -6.020000 6.000000 -5.670000
    endloop
  endfacet
  facet normal 0.000000 0.000000 -1.000000
    outer loop
      vertex -6.680000 11.200000 -5.670000
      vertex -6.020000 6.000000 -5.670000
      vertex -6.680000 6.000000 -5.670000
    endloop
  endfacet
  facet normal 0.000000 0.000000 1.000000
    outer loop
      vertex -6.020000 6.000000 -6.330000
      vertex -6.020000 11.200000 -6.330000
      vertex -6.680000 11.200000 -6.330000
    endloop
  endfacet
  facet normal 0.000000 0.000000 1.000000
    outer loop
      vertex -6.020000 6.000000 -6.330000
      vertex -6.680000 11.200000 -6.330000
      vertex -6.680000 6.000000 -6.330000
    endloop
  endfacet
  facet normal -1.000000 0.000000 0.000000
    outer loop
      vertex -6.020000 6.000000 -5.670000
      vertex -6.020000 11.200000 -5.670000
      vertex -6.020000 11.200000 -6.330000
    endloop
  endfacet
  facet normal -1.000000 0.000000 0.000000
    outer loop
      vertex -6.020000 6.000000 -5.670000
      vertex -6.020000 11.200000 -6.330000
      vertex -6.020000 6.000000 -6.330000
    endloop
  endfacet
  facet normal 1.000000 0.000000 0.000000
    outer loop
      vertex -6.680000 6.000000 -6.330000
      vertex -6.680000 11.200000 -6.330000
      vertex -6.680000 11.200000 -5.670000
    endloop
  endfacet
  facet normal 1.000000 0.000000 0.000000
    outer loop
      vertex -6.680000 6.000000 -6.330000
      vertex -6.680000 11.200000 -5.670000
      vertex -6.680000 6.000000 -5.670000
    endloop
  endfacet
  facet normal 0.000000 -1.000000 0.000000
    outer loop
      vertex -4.910000 7.225000 -7.100000
      vertex -2.710000 7.225000 -7.100000
      vertex -2.710000 7.225000 -4.900000
    endloop
  endfacet
  facet normal 0.000000 -1.000000 0.000000
    outer loop
      vertex -4.910000 7.225000 -7.100000
      vertex -2.710000 7.225000 -4.900000
      vertex -4.910000 7.225000 -4.900000
    endloop
  endfacet
  facet normal 0.000000 1.000000 0.000000
    outer loop
      vertex -4.910000 5.675000 -4.900000
      vertex -2.710000 5.675000 -4.900000
      vertex -2.710000 5.675000 -7.100000
    endloop
  endfacet
  facet normal 0.000000 1.000000 0.000000
    outer loop
      vertex -4.910000 5.675000 -4.900000
      vertex -2.710000 5.675000 -7.100000
      vertex -4.910000 5.675000 -7.100000
    endloop
  endfacet
  facet normal 0.000000 0.000000 -1.000000
    outer loop
      vertex -4.910000 7.225000 -4.900000
      vertex -2.710000 7.225000 -4.900000
      vertex -2.710000 5.675000 -4.900000
    endloop
  endfacet
  facet normal 0.000000 0.000000 -1.000000
    outer loop
      vertex -4.910000 7.225000 -4.900000
      vertex -2.710000 5.675000 -4.900000
      vertex -4.910000 5.675000 -4.900000
    endloop
  endfacet
  facet normal 0.000000 0.000000 1.000000
    outer loop
      vertex -2.710000 5.675000 -7.100000
      vertex -2.710000 7.225000 -7.100000
      vertex -4.910000 7.225000 -7.100000
    endloop
  endfacet
  facet normal 0.000000 0.000000 1.000000
    outer loop
      vertex -2.710000 5.675000 -7.100000
      vertex -4.910000 7.225000 -7.100000
      vertex -4.910000 5.675000 -7.100000
    endloop
  endfacet
  facet normal -1.000000 0.000000 0.000000
    outer loop
      vertex -2.710000 5.675000 -4.900000
      vertex -2.710000 7.225000 -4.900000
      vertex -2.710000 7.225000 -7.100000
    endloop
  endfacet
  facet normal -1.000000 0.000000 0.000000
    outer loop
      vertex -2.710000 5.675000 -4.900000
      vertex -2.710000 7.225000 -7.100000
      vertex -2.710000 5.675000 -7.100000
    endloop
  endfacet
  facet normal 1.000000 0.000000 0.000000
    outer loop
      vertex -4.910000 5.675000 -7.100000
      vertex -4.910000 7.225000 -7.100000
      vertex -4.910000 7.225000 -4.900000
    endloop
  endfacet
  facet normal 1.000000 0.000000 0.000000
    outer loop
      vertex -4.910000 5.675000 -7.100000
      vertex -4.910000 7.225000 -4.900000
      vertex -4.910000 5.675000 -4.900000
    endloop
  endfacet
  facet normal 0.000000 -1.000000 0.000000
    outer loop
      vertex -4.140000 11.200000 -6.330000
      vertex -3.480000 11.200000 -6.330000
      vertex -3.480000 11.200000 -5.670000
    endloop
  endfacet
  facet normal 0.000000 -1.000000 0.000000
    outer loop
      vertex -4.140000 11.200000 -6.330000
      vertex -3.480000 11.200000 -5.670000
      vertex -4.140000 11.200000 -5.670000
    endloop
  endfacet
  facet normal 0.000000 1.000000 0.000000
    outer loop
      vertex -4.140000 6.000000 -5.670000
      vertex -3.480000 6.000000 -5.670000
      vertex -3.480000 6.000000 -6.330000
    endloop
  endfacet
  facet normal 0.000000 1.000000 0.000000
    outer loop
      vertex -4.140000 6.000000 -5.670000
      vertex -3.480000 6.000000 -6.330000
      vertex -4.140000 6.000000 -6.330000
    endloop
  endfacet
  facet normal 0.000000 0.000000 -1.000000
    outer loop
      vertex -4.140000 11.200000 -5.670000
      vertex -3.480000 11.200000 -5.670000
      vertex -3.480000 6.000000 -5.670000
    endloop
  endfacet
  facet normal 0.000000 0.000000 -1.000000
    outer loop
      vertex -4.140000 11.200000 -5.670000
      vertex -3.480000 6.000000 -5.670000
      vertex -4.140000 6.000000 -5.670000
    endloop
  endfacet
  facet normal 0.000000 0.000000 1.000000
    outer loop
      vertex -3.480000 6.000000 -6.330000
      vertex -3.480000 11.200000 -6.330000
      vertex -4.140000 11.200000 -6.330000
    endloop
  endfacet
  facet normal 0.000000 0.000000 1.000000
    outer loop
      vertex -3.480000 6.000000 -6.330000
      vertex -4.140000 11.200000 -6.330000
      vertex -4.140000 6.000000 -6.330000
    endloop
  endfacet
  facet normal -1.000000 0.000000 0.000000
    outer loop
      vertex -3.480000 6.000000 -5.670000
      vertex -3.480000 11.200000 -5.670000
      vertex -3.480000 11.200000 -6.330000
    endloop
  endfacet
  facet normal -1.000000 0.000000 0.000000
    outer loop
      vertex -3.480000 6.000000 -5.670000
      vertex -3.480000 11.200000 -6.330000
      vertex -3.480000 6.000000 -6.330000
    endloop
  endfacet
  facet normal 1.000000 0.000000 0.000000
    outer loop
      vertex -4.140000 6.000000 -6.330000
      vertex -4.140000 11.200000 -6.330000
      vertex -4.140000 11.200000 -5.670000
    endloop
  endfacet
  facet normal 1.000000 0.000000 0.000000
    outer loop
      vertex -4.140000 6.000000 -6.330000
      vertex -4.140000 11.200000 -5.670000
      vertex -4.140000 6.000000 -5.670000
    endloop
  endfacet
  facet normal 0.000000 -1.000000 0.000000
    outer loop
      vertex -2.370000 7.225000 -7.100000
      vertex -0.170000 7.225000 -7.100000
      vertex -0.170000 7.225000 -4.900000
    endloop
  endfacet
  facet normal 0.000000 -1.000000 0.000000
    outer loop
      vertex -2.370000 7.225000 -7.100000
      vertex -0.170000 7.225000 -4.900000
      vertex -2.370000 7.225000 -4.900000
    endloop
  endfacet
  facet normal 0.000000 1.000000 0.000000
    outer loop
      vertex -2.370000 5.675000 -4.900000
      vertex -0.170000 5.675000 -4.900000
      vertex -0.170000 5.675000 -7.100000
    endloop
  endfacet
  facet normal 0.000000 1.000000 0.000000
    outer loop
      vertex -2.370000 5.675000 -4.900000
      vertex -0.170000 5.675000 -7.100000
      vertex -2.370000 5.675000 -7.100000
    endloop
  endfacet
  facet normal 0.000000 0.000000 -1.000000
    outer loop
      vertex -2.370000 7.225000 -4.900000
      vertex -0.170000 7.225000 -4.900000
      vertex -0.170000 5.675000 -4.900000
    endloop
  endfacet
  facet normal 0.000000 0.000000 -1.000000
    outer loop
      vertex -2.370000 7.225000 -4.900000
      vertex -0.170000 5.675000 -4.900000
      vertex -2.370000 5.675000 -4.900000
    endloop
  endfacet
  facet normal 0.000000 0.000000 1.000000
    outer loop
      vertex -0.170000 5.675000 -7.100000
      vertex -0.170000 7.225000 -7.100000
      vertex -2.370000 7.225000 -7.100000
    endloop
  endfacet
  facet normal 0.000000 0.000000 1.000000
    outer loop
      vertex -0.170000 5.675000 -7.100000
      vertex -2.370000 7.225000 -7.100000
      vertex -2.370000 5.675000 -7.100000
    endloop
  endfacet
  facet normal -1.000000 0.000000 0.000000
    outer loop
      vertex -0.170000 5.675000 -4.900000
      vertex -0.170000 7.225000 -4.900000
      vertex -0.170000 7.225000 -7.100000
    endloop
  endfacet
  facet normal -1.000000 0.000000 0.000000
    outer loop
      vertex -0.170000 5.675000 -4.900000
      vertex -0.170000 7.225000 -7.100000
      vertex -0.170000 5.675000 -7.100000
    endloop
  endfacet
  facet normal 1.000000 0.000000 0.000000
    outer loop
      vertex -2.370000 5.675000 -7.100000
      vertex -2.370000 7.225000 -7.100000
      vertex -2.370000 7.225000 -4.900000
    endloop
  endfacet
  facet normal 1.000000 0.000000 0.000000
    outer loop
      vertex -2.370000 5.675000 -7.100000
      vertex -2.370000 7.225000 -4.900000
      vertex -2.370000 5.675000 -4.900000
    endloop
  endfacet
  facet normal 0.000000 -1.000000 0.000000
    outer loop
      vertex -1.600000 11.200000 -6.330000
      vertex -0.940000 11.200000 -6.330000
      vertex -0.940000 11.200000 -5.670000
    endloop
  endfacet
  facet normal 0.000000 -1.000000 0.000000
    outer loop
      vertex -1.600000 11.200000 -6.330000
      vertex -0.940000 11.200000 -5.670000
      vertex -1.600000 11.200000 -5.670000
    endloop
  endfacet
  facet normal 0.000000 1.000000 0.000000
    outer loop
      vertex -1.600000 6.000000 -5.670000
      vertex -0.940000 6.000000 -5.670000
      vertex -0.940000 6.000000 -6.330000
    endloop
  endfacet
  facet normal 0.000000 1.000000 0.000000
    outer loop
      vertex -1.600000 6.000000 -5.670000
      vertex -0.940000 6.000000 -6.330000
      vertex -1.600000 6.000000 -6.330000
    endloop
  endfacet
  facet normal 0.000000 0.000000 -1.000000
    outer loop
      vertex -1.600000 11.200000 -5.670000
      vertex -0.940000 11.200000 -5.670000
      vertex -0.940000 6.000000 -5.670000
    endloop
  endfacet
  facet normal 0.000000 0.000000 -1.000000
    outer loop
      vertex -1.600000 11.200000 -5.670000
      vertex -0.940000 6.000000 -5.670000
      vertex -1.600000 6.000000 -5.670000
    endloop
  endfacet
  facet normal 0.000000 0.000000 1.000000
    outer loop
      vertex -0.940000 6.000000 -6.330000
      vertex -0.940000 11.200000 -6.330000
      vertex -1.600000 11.200000 -6.330000
    endloop
  endfacet
  facet normal 0.000000 0.000000 1.000000
    outer loop
      vertex -0.940000 6.000000 -6.330000
      vertex -1.600000 11.200000 -6.330000
      vertex -1.600000 6.000000 -6.330000
    endloop
  endfacet
  facet normal -1.000000 0.000000 0.000000
    outer loop
      vertex -0.940000 6.000000 -5.670000
      vertex -0.940000 11.200000 -5.670000
      vertex -0.940000 11.200000 -6.330000
    endloop
  endfacet
  facet normal -1.000000 0.000000 0.000000
    outer loop
      vertex -0.940000 6.000000 -5.670000
      vertex -0.940000 11.200000 -6.330000
      vertex -0.940000 6.000000 -6.330000
    endloop
  endfacet
  facet normal 1.000000 0.000000 0.000000
    outer loop
      vertex -1.600000 6.000000 -6.330000
      vertex -1.600000 11.200000 -6.330000
      vertex -1.600000 11.200000 -5.670000
    endloop
  endfacet
  facet normal 1.000000 0.000000 0.000000
    outer loop
      vertex -1.600000 6.000000 -6.330000
      vertex -1.600000 11.200000 -5.670000
      vertex -1.600000 6.000000 -5.670000
    endloop
  endfacet
  facet normal 0.000000 -1.000000 0.000000
    outer loop
      vertex 0.170000 7.225000 -7.100000
      vertex 2.370000 7.225000 -7.100000
      vertex 2.370000 7.225000 -4.900000
    endloop
  endfacet
  facet normal 0.000000 -1.000000 0.000000
    outer loop
      vertex 0.170000 7.225000 -7.100000
      vertex 2.370000 7.225000 -4.900000
      vertex 0.170000 7.225000 -4.900000
    endloop
  endfacet
  facet normal 0.000000 1.000000 0.000000
    outer loop
      vertex 0.170000 5.675000 -4.900000
      vertex 2.370000 5.675000 -4.900000
      vertex 2.370000 5.675000 -7.100000
    endloop
  endfacet
  facet normal 0.000000 1.000000 0.000000
    outer loop
      vertex 0.170000 5.675000 -4.900000
      vertex 2.370000 5.675000 -7.100000
      vertex 0.170000 5.675000 -7.100000
    endloop
  endfacet
  facet normal 0.000000 0.000000 -1.000000
    outer loop
      vertex 0.170000 7.225000 -4.900000
      vertex 2.370000 7.225000 -4.900000
      vertex 2.370000 5.675000 -4.900000
    endloop
  endfacet
  facet normal 0.000000 0.000000 -1.000000
    outer loop
      vertex 0.170000 7.225000 -4.900000
      vertex 2.370000 5.675000 -4.900000
      vertex 0.170000 5.675000 -4.900000
    endloop
  endfacet
  facet normal 0.000000 0.000000 1.000000
    outer loop
      vertex 2.370000 5.675000 -7.100000
      vertex 2.370000 7.225000 -7.100000
      vertex 0.170000 7.225000 -7.100000
    endloop
  endfacet
  facet normal 0.000000 0.000000 1.000000
    outer loop
      vertex 2.370000 5.675000 -7.100000
      vertex 0.170000 7.225000 -7.100000
      vertex 0.170000 5.675000 -7.100000
    endloop
  endfacet
  facet normal -1.000000 0.000000 0.000000
    outer loop
      vertex 2.370000 5.675000 -4.900000
      vertex 2.370000 7.225000 -4.900000
      vertex 2.370000 7.225000 -7.100000
    endloop
  endfacet
  facet normal -1.000000 0.000000 0.000000
    outer loop
      vertex 2.370000 5.675000 -4.900000
      vertex 2.370000 7.225000 -7.100000
      vertex 2.370000 5.675000 -7.100000
    endloop
  endfacet
  facet normal 1.000000 0.000000 0.000000
    outer loop
      vertex 0.170000 5.675000 -7.100000
      vertex 0.170000 7.225000 -7.100000
      vertex 0.170000 7.225000 -4.900000
    endloop
  endfacet
  facet normal 1.000000 0.000000 0.000000
    outer loop
      vertex 0.170000 5.675000 -7.100000
      vertex 0.170000 7.225000 -4.900000
      vertex 0.170000 5.675000 -4.900000
    endloop
  endfacet
  facet normal 0.000000 -1.000000 0.000000
    outer loop
      vertex 0.940000 11.200000 -6.330000
      vertex 1.600000 11.200000 -6.330000
      vertex 1.600000 11.200000 -5.670000
    endloop
  endfacet
  facet normal 0.000000 -1.000000 0.000000
    outer loop
      vertex 0.940000 11.200000 -6.330000
      vertex 1.600000 11.200000 -5.670000
      vertex 0.940000 11.200000 -5.670000
    endloop
  endfacet
  facet normal 0.000000 1.000000 0.000000
    outer loop
      vertex 0.940000 6.000000 -5.670000
      vertex 1.600000 6.000000 -5.670000
      vertex 1.600000 6.000000 -6.330000
    endloop
  endfacet
  facet normal 0.000000 1.000000 0.000000
    outer loop
      vertex 0.940000 6.000000 -5.670000
      vertex 1.600000 6.000000 -6.330000
      vertex 0.940000 6.000000 -6.330000
    endloop
  endfacet
  facet normal 0.000000 0.000000 -1.000000
    outer loop
      vertex 0.940000 11.200000 -5.670000
      vertex 1.600000 11.200000 -5.670000
      vertex 1.600000 6.000000 -5.670000
    endloop
  endfacet
  facet normal 0.000000 0.000000 -1.000000
    outer loop
      vertex 0.940000 11.200000 -5.670000
      vertex 1.600000 6.000000 -5.670000
      vertex 0.940000 6.000000 -5.670000
    endloop
  endfacet
  facet normal 0.000000 0.000000 1.000000
    outer loop
      vertex 1.600000 6.000000 -6.330000
      vertex 1.600000 11.200000 -6.330000
      vertex 0.940000 11.200000 -6.330000
    endloop
  endfacet
  facet normal 0.000000 0.000000 1.000000
    outer loop
      vertex 1.600000 6.000000 -6.330000
      vertex 0.940000 11.200000 -6.330000
      vertex 0.940000 6.000000 -6.330000
    endloop
  endfacet
  facet normal -1.000000 0.000000 0.000000
    outer loop
      vertex 1.600000 6.000000 -5.670000
      vertex 1.600000 11.200000 -5.670000
      vertex 1.600000 11.200000 -6.330000
    endloop
  endfacet
  facet normal -1.000000 0.000000 0.000000
    outer loop
      vertex 1.600000 6.000000 -5.670000
      vertex 1.600000 11.200000 -6.330000
      vertex 1.600000 6.000000 -6.330000
    endloop
  endfacet
  facet normal 1.000000 0.000000 0.000000
    outer loop
      vertex 0.940000 6.000000 -6.330000
      vertex 0.940000 11.200000 -6.330000
      vertex 0.940000 11.200000 -5.670000
    endloop
  endfacet
  facet normal 1.000000 0.000000 0.000000
    outer loop
      vertex 0.940000 6.000000 -6.330000
      vertex 0.940000 11.200000 -5.670000
      vertex 0.940000 6.000000 -5.670000
    endloop
  endfacet
  facet normal 0.000000 -1.000000 0.000000
    outer loop
      vertex 2.710000 7.225000 -7.100000
      vertex 4.910000 7.225000 -7.100000
      vertex 4.910000 7.225000 -4.900000
    endloop
  endfacet
  facet normal 0.000000 -1.000000 0.000000
    outer loop
      vertex 2.710000 7.225000 -7.100000
      vertex 4.910000 7.225000 -4.900000
      vertex 2.710000 7.225000 -4.900000
    endloop
  endfacet
  facet normal 0.000000 1.000000 0.000000
    outer loop
      vertex 2.710000 5.675000 -4.900000
      vertex 4.910000 5.675000 -4.900000
      vertex 4.910000 5.675000 -7.100000
    endloop
  endfacet
  facet normal 0.000000 1.000000 0.000000
    outer loop
      vertex 2.710000 5.675000 -4.900000
      vertex 4.910000 5.675000 -7.100000
      vertex 2.710000 5.675000 -7.100000
    endloop
  endfacet
  facet normal 0.000000 0.000000 -1.000000
    outer loop
      vertex 2.710000 7.225000 -4.900000
      vertex 4.910000 7.225000 -4.900000
      vertex 4.910000 5.675000 -4.900000
    endloop
  endfacet
  facet normal 0.000000 0.000000 -1.000000
    outer loop
      vertex 2.710000 7.225000 -4.900000
      vertex 4.910000 5.675000 -4.900000
      vertex 2.710000 5.675000 -4.900000
    endloop
  endfacet
  facet normal 0.000000 0.000000 1.000000
    outer loop
      vertex 4.910000 5.675000 -7.100000
      vertex 4.910000 7.225000 -7.100000
      vertex 2.710000 7.225000 -7.100000
    endloop
  endfacet
  facet normal 0.000000 0.000000 1.000000
    outer loop
      vertex 4.910000 5.675000 -7.100000
      vertex 2.710000 7.225000 -7.100000
      vertex 2.710000 5.675000 -7.100000
    endloop
  endfacet
  facet normal -1.000000 0.000000 0.000000
    outer loop
      vertex 4.910000 5.675000 -4.900000
      vertex 4.910000 7.225000 -4.900000
      vertex 4.910000 7.225000 -7.100000
    endloop
  endfacet
  facet normal -1.000000 0.000000 0.000000
    outer loop
      vertex 4.910000 5.675000 -4.900000
      vertex 4.910000 7.225000 -7.100000
      vertex 4.910000 5.675000 -7.100000
    endloop
  endfacet
  facet normal 1.000000 0.000000 0.000000
    outer loop
      vertex 2.710000 5.675000 -7.100000
      vertex 2.710000 7.225000 -7.100000
      vertex 2.710000 7.225000 -4.900000
    endloop
  endfacet
  facet normal 1.000000 0.000000 0.000000
    outer loop
      vertex 2.710000 5.675000 -7.100000
      vertex 2.710000 7.225000 -4.900000
      vertex 2.710000 5.675000 -4.900000
    endloop
  endfacet
  facet normal 0.000000 -1.000000 0.000000
    outer loop
      vertex 3.480000 11.200000 -6.330000
      vertex 4.140000 11.200000 -6.330000
      vertex 4.140000 11.200000 -5.670000
    endloop
  endfacet
  facet normal 0.000000 -1.000000 0.000000
    outer loop
      vertex 3.480000 11.200000 -6.330000
      vertex 4.140000 11.200000 -5.670000
      vertex 3.480000 11.200000 -5.670000
    endloop
  endfacet
  facet normal 0.000000 1.000000 0.000000
    outer loop
      vertex 3.480000 6.000000 -5.670000
      vertex 4.140000 6.000000 -5.670000
      vertex 4.140000 6.000000 -6.330000
    endloop
  endfacet
  facet normal 0.000000 1.000000 0.000000
    outer loop
      vertex 3.480000 6.000000 -5.670000
      vertex 4.140000 6.000000 -6.330000
      vertex 3.480000 6.000000 -6.330000
    endloop
  endfacet
  facet normal 0.000000 0.000000 -1.000000
    outer loop
      vertex 3.480000 11.200000 -5.670000
      vertex 4.140000 11.200000 -5.670000
      vertex 4.140000 6.000000 -5.670000
    endloop
  endfacet
  facet normal 0.000000 0.000000 -1.000000
    outer loop
      vertex 3.480000 11.200000 -5.670000
      vertex 4.140000 6.000000 -5.670000
      vertex 3.480000 6.000000 -5.670000
    endloop
  endfacet
  facet normal 0.000000 0.000000 1.000000
    outer loop
      vertex 4.140000 6.000000 -6.330000
      vertex 4.140000 11.200000 -6.330000
      vertex 3.480000 11.200000 -6.330000
    endloop
  endfacet
  facet normal 0.000000 0.000000 1.000000
    outer loop
      vertex 4.140000 6.000000 -6.330000
      vertex 3.480000 11.200000 -6.330000
      vertex 3.480000 6.000000 -6.330000
    endloop
  endfacet
  facet normal -1.000000 0.000000 0.000000
    outer loop
      vertex 4.140000 6.000000 -5.670000
      vertex 4.140000 11.200000 -5.670000
      vertex 4.140000 11.200000 -6.330000
    endloop
  endfacet
  facet normal -1.000000 0.000000 0.000000
    outer loop
      vertex 4.140000 6.000000 -5.670000
      vertex 4.140000 11.200000 -6.330000
      vertex 4.140000 6.000000 -6.330000
    endloop
  endfacet
  facet normal 1.000000 0.000000 0.000000
    outer loop
      vertex 3.480000 6.000000 -6.330000
      vertex 3.480000 11.200000 -6.330000
      vertex 3.480000 11.200000 -5.670000
    endloop
  endfacet
  facet normal 1.000000 0.000000 0.000000
    outer loop
      vertex 3.480000 6.000000 -6.330000
      vertex 3.480000 11.200000 -5.670000
      vertex 3.480000 6.000000 -5.670000
    endloop
  endfacet
  facet normal 0.000000 -1.000000 0.000000
    outer loop
      vertex 5.250000 7.225000 -7.100000
      vertex 7.450000 7.225000 -7.100000
      vertex 7.450000 7.225000 -4.900000
    endloop
  endfacet
  facet normal 0.000000 -1.000000 0.000000
    outer loop
      vertex 5.250000 7.225000 -7.100000
      vertex 7.450000 7.225000 -4.900000
      vertex 5.250000 7.225000 -4.900000
    endloop
  endfacet
  facet normal 0.000000 1.000000 0.000000
    outer loop
      vertex 5.250000 5.675000 -4.900000
      vertex 7.450000 5.675000 -4.900000
      vertex 7.450000 5.675000 -7.100000
    endloop
  endfacet
  facet normal 0.000000 1.000000 0.000000
    outer loop
      vertex 5.250000 5.675000 -4.900000
      vertex 7.450000 5.675000 -7.100000
      vertex 5.250000 5.675000 -7.100000
    endloop
  endfacet
  facet normal 0.000000 0.000000 -1.000000
    outer loop
      vertex 5.250000 7.225000 -4.900000
      vertex 7.450000 7.225000 -4.900000
      vertex 7.450000 5.675000 -4.900000
    endloop
  endfacet
  facet normal 0.000000 0.000000 -1.000000
    outer loop
      vertex 5.250000 7.225000 -4.900000
      vertex 7.450000 5.675000 -4.900000
      vertex 5.250000 5.675000 -4.900000
    endloop
  endfacet
  facet normal 0.000000 0.000000 1.000000
    outer loop
      vertex 7.450000 5.675000 -7.100000
      vertex 7.450000 7.225000 -7.100000
      vertex 5.250000 7.225000 -7.100000
    endloop
  endfacet
  facet normal 0.000000 0.000000 1.000000
    outer loop
      vertex 7.450000 5.675000 -7.100000
      vertex 5.250000 7.225000 -7.100000
      vertex 5.250000 5.675000 -7.100000
    endloop
  endfacet
  facet normal -1.000000 0.000000 0.000000
    outer loop
      vertex 7.450000 5.675000 -4.900000
      vertex 7.450000 7.225000 -4.900000
      vertex 7.450000 7.225000 -7.100000
    endloop
  endfacet
  facet normal -1.000000 0.000000 0.000000
    outer loop
      vertex 7.450000 5.675000 -4.900000
      vertex 7.450000 7.225000 -7.100000
      vertex 7.450000 5.675000 -7.100000
    endloop
  endfacet
  facet normal 1.000000 0.000000 0.000000
    outer loop
      vertex 5.250000 5.675000 -7.100000
      vertex 5.250000 7.225000 -7.100000
      vertex 5.250000 7.225000 -4.900000
    endloop
  endfacet
  facet normal 1.000000 0.000000 0.000000
    outer loop
      vertex 5.250000 5.675000 -7.100000
      vertex 5.250000 7.225000 -4.900000
      vertex 5.250000 5.675000 -4.900000
    endloop
  endfacet
  facet normal 0.000000 -1.000000 0.000000
    outer loop
      vertex 6.020000 11.200000 -6.330000
      vertex 6.680000 11.200000 -6.330000
      vertex 6.680000 11.200000 -5.670000
    endloop
  endfacet
  facet normal 0.000000 -1.000000 0.000000
    outer loop
      vertex 6.020000 11.200000 -6.330000
      vertex 6.680000 11.200000 -5.670000
      vertex 6.020000 11.200000 -5.670000
    endloop
  endfacet
  facet normal 0.000000 1.000000 0.000000
    outer loop
      vertex 6.020000 6.000000 -5.670000
      vertex 6.680000 6.000000 -5.670000
      vertex 6.680000 6.000000 -6.330000
    endloop
  endfacet
  facet normal 0.000000 1.000000 0.000000
    outer loop
      vertex 6.020000 6.000000 -5.670000
      vertex 6.680000 6.000000 -6.330000
      vertex 6.020000 6.000000 -6.330000
    endloop
  endfacet
  facet normal 0.000000 0.000000 -1.000000
    outer loop
      vertex 6.020000 11.200000 -5.670000
      vertex 6.680000 11.200000 -5.670000
      vertex 6.680000 6.000000 -5.670000
    endloop
  endfacet
  facet normal 0.000000 0.000000 -1.000000
    outer loop
      vertex 6.020000 11.200000 -5.670000
      vertex 6.680000 6.000000 -5.670000
      vertex 6.020000 6.000000 -5.670000
    endloop
  endfacet
  facet normal 0.000000 0.000000 1.000000
    outer loop
      vertex 6.680000 6.000000 -6.330000
      vertex 6.680000 11.200000 -6.330000
      vertex 6.020000 11.200000 -6.330000
    endloop
  endfacet
  facet normal 0.000000 0.000000 1.000000
    outer loop
      vertex 6.680000 6.000000 -6.330000
      vertex 6.020000 11.200000 -6.330000
      vertex 6.020000 6.000000 -6.330000
    endloop
  endfacet
  facet normal -1.000000 0.000000 0.000000
    outer loop
      vertex 6.680000 6.000000 -5.670000
      vertex 6.680000 11.200000 -5.670000
      vertex 6.680000 11.200000 -6.330000
    endloop
  endfacet
  facet normal -1.000000 0.000000 0.000000
    outer loop
      vertex 6.680000 6.000000 -5.670000
      vertex 6.680000 11.200000 -6.330000
      vertex 6.680000 6.000000 -6.330000
    endloop
  endfacet
  facet normal 1.000000 0.000000 0.000000
    outer loop
      vertex 6.020000 6.000000 -6.330000
      vertex 6.020000 11.200000 -6.330000
      vertex 6.020000 11.200000 -5.670000
    endloop
  endfacet
  facet normal 1.000000 0.000000 0.000000
    outer loop
      vertex 6.020000 6.000000 -6.330000
      vertex 6.020000 11.200000 -5.670000
      vertex 6.020000 6.000000 -5.670000
    endloop
  endfacet
  facet normal 0.000000 -1.000000 0.000000
    outer loop
      vertex 7.790000 7.225000 -7.100000
      vertex 9.990000 7.225000 -7.100000
      vertex 9.990000 7.225000 -4.900000
    endloop
  endfacet
  facet normal 0.000000 -1.000000 0.000000
    outer loop
      vertex 7.790000 7.225000 -7.100000
      vertex 9.990000 7.225000 -4.900000
      vertex 7.790000 7.225000 -4.900000
    endloop
  endfacet
  facet normal 0.000000 1.000000 0.000000
    outer loop
      vertex 7.790000 5.675000 -4.900000
      vertex 9.990000 5.675000 -4.900000
      vertex 9.990000 5.675000 -7.100000
    endloop
  endfacet
  facet normal 0.000000 1.000000 0.000000
    outer loop
      vertex 7.790000 5.675000 -4.900000
      vertex 9.990000 5.675000 -7.100000
      vertex 7.790000 5.675000 -7.100000
    endloop
  endfacet
  facet normal 0.000000 0.000000 -1.000000
    outer loop
      vertex 7.790000 7.225000 -4.900000
      vertex 9.990000 7.225000 -4.900000
      vertex 9.990000 5.675000 -4.900000
    endloop
  endfacet
  facet normal 0.000000 0.000000 -1.000000
    outer loop
      vertex 7.790000 7.225000 -4.900000
      vertex 9.990000 5.675000 -4.900000
      vertex 7.790000 5.675000 -4.900000
    endloop
  endfacet
  facet normal 0.000000 0.000000 1.000000
    outer loop
      vertex 9.990000 5.675000 -7.100000
      vertex 9.990000 7.225000 -7.100000
      vertex 7.790000 7.225000 -7.100000
    endloop
  endfacet
  facet normal 0.000000 0.000000 1.000000
    outer loop
      vertex 9.990000 5.675000 -7.100000
      vertex 7.790000 7.225000 -7.100000
      vertex 7.790000 5.675000 -7.100000
    endloop
  endfacet
  facet normal -1.000000 0.000000 0.000000
    outer loop
      vertex 9.990000 5.675000 -4.900000
      vertex 9.990000 7.225000 -4.900000
      vertex 9.990000 7.225000 -7.100000
    endloop
  endfacet
  facet normal -1.000000 0.000000 0.000000
    outer loop
      vertex 9.990000 5.675000 -4.900000
      vertex 9.990000 7.225000 -7.100000
      vertex 9.990000 5.675000 -7.100000
    endloop
  endfacet
  facet normal 1.000000 0.000000 0.000000
    outer loop
      vertex 7.790000 5.675000 -7.100000
      vertex 7.790000 7.225000 -7.100000
      vertex 7.790000 7.225000 -4.900000
    endloop
  endfacet
  facet normal 1.000000 0.000000 0.000000
    outer loop
      vertex 7.790000 5.675000 -7.100000
      vertex 7.790000 7.225000 -4.900000
      vertex 7.790000 5.675000 -4.900000
    endloop
  endfacet
  facet normal 0.000000 -1.000000 0.000000
    outer loop
      vertex 8.560000 11.200000 -6.330000
      vertex 9.220000 11.200000 -6.330000
      vertex 9.220000 11.200000 -5.670000
    endloop
  endfacet
  facet normal 0.000000 -1.000000 0.000000
    outer loop
      vertex 8.560000 11.200000 -6.330000
      vertex 9.220000 11.200000 -5.670000
      vertex 8.560000 11.200000 -5.670000
    endloop
  endfacet
  facet normal 0.000000 1.000000 0.000000
    outer loop
      vertex 8.560000 6.000000 -5.670000
      vertex 9.220000 6.000000 -5.670000
      vertex 9.220000 6.000000 -6.330000
    endloop
  endfacet
  facet normal 0.000000 1.000000 0.000000
    outer loop
      vertex 8.560000 6.000000 -5.670000
      vertex 9.220000 6.000000 -6.330000
      vertex 8.560000 6.000000 -6.330000
    endloop
  endfacet
  facet normal 0.000000 0.000000 -1.000000
    outer loop
      vertex 8.560000 11.200000 -5.670000
      vertex 9.220000 11.200000 -5.670000
      vertex 9.220000 6.000000 -5.670000
    endloop
  endfacet
  facet normal 0.000000 0.000000 -1.000000
    outer loop
      vertex 8.560000 11.200000 -5.670000
      vertex 9.220000 6.000000 -5.670000
      vertex 8.560000 6.000000 -5.670000
    endloop
  endfacet
  facet normal 0.000000 0.000000 1.000000
    outer loop
      vertex 9.220000 6.000000 -6.330000
      vertex 9.220000 11.200000 -6.330000
      vertex 8.560000 11.200000 -6.330000
    endloop
  endfacet
  facet normal 0.000000 0.000000 1.000000
    outer loop
      vertex 9.220000 6.000000 -6.330000
      vertex 8.560000 11.200000 -6.330000
      vertex 8.560000 6.000000 -6.330000
    endloop
  endfacet
  facet normal -1.000000 0.000000 0.000000
    outer loop
      vertex 9.220000 6.000000 -5.670000
      vertex 9.220000 11.200000 -5.670000
      vertex 9.220000 11.200000 -6.330000
    endloop
  endfacet
  facet normal -1.000000 0.000000 0.000000
    outer loop
      vertex 9.220000 6.000000 -5.670000
      vertex 9.220000 11.200000 -6.330000
      vertex 9.220000 6.000000 -6.330000
    endloop
  endfacet
  facet normal 1.000000 0.000000 0.000000
    outer loop
      vertex 8.560000 6.000000 -6.330000
      vertex 8.560000 11.200000 -6.330000
      vertex 8.560000 11.200000 -5.670000
    endloop
  endfacet
  facet normal 1.000000 0.000000 0.000000
    outer loop
      vertex 8.560000 6.000000 -6.330000
      vertex 8.560000 11.200000 -5.670000
      vertex 8.560000 6.000000 -5.670000
    endloop
  endfacet
  facet normal 0.000000 -1.000000 0.000000
    outer loop
      vertex -2.000000 1.900000 -0.500000
      vertex 2.000000 1.900000 -0.500000
      vertex 2.000000 1.900000 3.500000
    endloop
  endfacet
  facet normal 0.000000 -1.000000 0.000000
    outer loop
      vertex -2.000000 1.900000 -0.500000
      vertex 2.000000 1.900000 3.500000
      vertex -2.000000 1.900000 3.500000
    endloop
  endfacet
  facet normal 0.000000 1.000000 0.000000
    outer loop
      vertex -2.000000 0.900000 3.500000
      vertex 2.000000 0.900000 3.500000
      vertex 2.000000 0.900000 -0.500000
    endloop
  endfacet
  facet normal 0.000000 1.000000 0.000000
    outer loop
      vertex -2.000000 0.900000 3.500000
      vertex 2.000000 0.900000 -0.500000
      vertex -2.000000 0.900000 -0.500000
    endloop
  endfacet
  facet normal 0.000000 0.000000 -1.000000
    outer loop
      vertex -2.000000 1.900000 3.500000
      vertex 2.000000 1.900000 3.500000
      vertex 2.000000 0.900000 3.500000
    endloop
  endfacet
  facet normal 0.000000 0.000000 -1.000000
    outer loop
      vertex -2.000000 1.900000 3.500000
      vertex 2.000000 0.900000 3.500000
      vertex -2.000000 0.900000 3.500000
    endloop
  endfacet
  facet normal 0.000000 0.000000 1.000000
    outer loop
      vertex 2.000000 0.900000 -0.500000
      vertex 2.000000 1.900000 -0.500000
      vertex -2.000000 1.900000 -0.500000
    endloop
  endfacet
  facet normal 0.000000 0.000000 1.000000
    outer loop
      vertex 2.000000 0.900000 -0.500000
      vertex -2.000000 1.900000 -0.500000
      vertex -2.000000 0.900000 -0.500000
    endloop
  endfacet
  facet normal -1.000000 0.000000 0.000000
    outer loop
      vertex 2.000000 0.900000 3.500000
      vertex 2.000000 1.900000 3.500000
      vertex 2.000000 1.900000 -0.500000
    endloop
  endfacet
  facet normal -1.000000 0.000000 0.000000
    outer loop
      vertex 2.000000 0.900000 3.500000
      vertex 2.000000 1.900000 -0.500000
      vertex 2.000000 0.900000 -0.500000
    endloop
  endfacet
  facet normal 1.000000 0.000000 0.000000
    outer loop
      vertex -2.000000 0.900000 -0.500000
      vertex -2.000000 1.900000 -0.500000
      vertex -2.000000 1.900000 3.500000
    endloop
  endfacet
  facet normal 1.000000 0.000000 0.000000
    outer loop
      vertex -2.000000 0.900000 -0.500000
      vertex -2.000000 1.900000 3.500000
      vertex -2.000000 0.900000 3.500000
    endloop
  endfacet
  facet normal 0.000000 -1.000000 0.000000
    outer loop
      vertex -7.500000 1.900000 1.250000
      vertex -4.500000 1.900000 1.250000
      vertex -4.500000 1.900000 2.750000
    endloop
  endfacet
  facet normal 0.000000 -1.000000 0.000000
    outer loop
      vertex -7.500000 1.900000 1.250000
      vertex -4.500000 1.900000 2.750000
      vertex -7.500000 1.900000 2.750000
    endloop
  endfacet
  facet normal 0.000000 1.000000 0.000000
    outer loop
      vertex -7.500000 0.900000 2.750000
      vertex -4.500000 0.900000 2.750000
      vertex -4.500000 0.900000 1.250000
    endloop
  endfacet
  facet normal 0.000000 1.000000 0.000000
    outer loop
      vertex -7.500000 0.900000 2.750000
      vertex -4.500000 0.900000 1.250000
      vertex -7.500000 0.900000 1.250000
    endloop
  endfacet
  facet normal 0.000000 0.000000 -1.000000
    outer loop
      vertex -7.500000 1.900000 2.750000
      vertex -4.500000 1.900000 2.750000
      vertex -4.500000 0.900000 2.750000
    endloop
  endfacet
  facet normal 0.000000 0.000000 -1.000000
    outer loop
      vertex -7.500000 1.900000 2.750000
      vertex -4.500000 0.900000 2.750000
      vertex -7.500000 0.900000 2.750000
    endloop
  endfacet
  facet normal 0.000000 0.000000 1.000000
    outer loop
      vertex -4.500000 0.900000 1.250000
      vertex -4.500000 1.900000 1.250000
      vertex -7.500000 1.900000 1.250000
    endloop
  endfacet
  facet normal 0.000000 0.000000 1.000000
    outer loop
      vertex -4.500000 0.900000 1.250000
      vertex -7.500000 1.900000 1.250000
      vertex -7.500000 0.900000 1.250000
    endloop
  endfacet
  facet normal -1.000000 0.000000 0.000000
    outer loop
      vertex -4.500000 0.900000 2.750000
      vertex -4.500000 1.900000 2.750000
      vertex -4.500000 1.900000 1.250000
    endloop
  endfacet
  facet normal -1.000000 0.000000 0.000000
    outer loop
      vertex -4.500000 0.900000 2.750000
      vertex -4.500000 1.900000 1.250000
      vertex -4.500000 0.900000 1.250000
    endloop
  endfacet
  facet normal 1.000000 0.000000 0.000000
    outer loop
      vertex -7.500000 0.900000 1.250000
      vertex -7.500000 1.900000 1.250000
      vertex -7.500000 1.900000 2.750000
    endloop
  endfacet
  facet normal 1.000000 0.000000 0.000000
    outer loop
      vertex -7.500000 0.900000 1.250000
      vertex -7.500000 1.900000 2.750000
      vertex -7.500000 0.900000 2.750000
    endloop
  endfacet
  facet normal 0.000000 -1.000000 0.000000
    outer loop
      vertex -10.160000 3.250000 -7.250000
      vertex 10.160000 3.250000 -7.250000
      vertex 10.160000 3.250000 -4.750000
    endloop
  endfacet
  facet normal 0.000000 -1.000000 0.000000
    outer loop
      vertex -10.160000 3.250000 -7.250000
      vertex 10.160000 3.250000 -4.750000
      vertex -10.160000 3.250000 -4.750000
    endloop
  endfacet
  facet normal 0.000000 1.000000 0.000000
    outer loop
      vertex -10.160000 0.750000 -4.750000
      vertex 10.160000 0.750000 -4.750000
      vertex 10.160000 0.750000 -7.250000
    endloop
  endfacet
  facet normal 0.000000 1.000000 0.000000
    outer loop
      vertex -10.160000 0.750000 -4.750000
      vertex 10.160000 0.750000 -7.250000
      vertex -10.160000 0.750000 -7.250000
    endloop
  endfacet
  facet normal 0.000000 0.000000 -1.000000
    outer loop
      vertex -10.160000 3.250000 -4.750000
      vertex 10.160000 3.250000 -4.750000
      vertex 10.160000 0.750000 -4.750000
    endloop
  endfacet
  facet normal 0.000000 0.000000 -1.000000
    outer loop
      vertex -10.160000 3.250000 -4.750000
      vertex 10.160000 0.750000 -4.750000
      vertex -10.160000 0.750000 -4.750000
    endloop
  endfacet
  facet normal 0.000000 0.000000 1.000000
    outer loop
      vertex 10.160000 0.750000 -7.250000
      vertex 10.160000 3.250000 -7.250000
      vertex -10.160000 3.250000 -7.250000
    endloop
  endfacet
  facet normal 0.000000 0.000000 1.000000
    outer loop
      vertex 10.160000 0.750000 -7.250000
      vertex -10.160000 3.250000 -7.250000
      vertex -10.160000 0.750000 -7.250000
    endloop
  endfacet
  facet normal -1.000000 0.000000 0.000000
    outer loop
      vertex 10.160000 0.750000 -4.750000
      vertex 10.160000 3.250000 -4.750000
      vertex 10.160000 3.250000 -7.250000
    endloop
  endfacet
  facet normal -1.000000 0.000000 0.000000
    outer loop
      vertex 10.160000 0.750000 -4.750000
      vertex 10.160000 3.250000 -7.250000
      vertex 10.160000 0.750000 -7.250000
    endloop
  endfacet
  facet normal 1.000000 0.000000 0.000000
    outer loop
      vertex -10.160000 0.750000 -7.250000
      vertex -10.160000 3.250000 -7.250000
      vertex -10.160000 3.250000 -4.750000
    endloop
  endfacet
  facet normal 1.000000 0.000000 0.000000
    outer loop
      vertex -10.160000 0.750000 -7.250000
      vertex -10.160000 3.250000 -4.750000
      vertex -10.160000 0.750000 -4.750000
    endloop
  endfacet
endsolid mpu6050_imu