solid ina219_current_sensor
  facet normal 0.000000 -1.000000 0.000000
    outer loop
      vertex -12.500000 1.600000 -11.000000
      vertex 12.500000 1.600000 -11.000000
      vertex 12.500000 1.600000 11.000000
    endloop
  endfacet
  facet normal 0.000000 -1.000000 0.000000
    outer loop
      vertex -12.500000 1.600000 -11.000000
      vertex 12.500000 1.600000 11.000000
      vertex -12.500000 1.600000 11.000000
    endloop
  endfacet
  facet normal 0.000000 1.000000 0.000000
    outer loop
      vertex -12.500000 0.000000 11.000000
      vertex 12.500000 0.000000 11.000000
      vertex 12.500000 0.000000 -11.000000
    endloop
  endfacet
  facet normal 0.000000 1.000000 0.000000
    outer loop
      vertex -12.500000 0.000000 11.000000
      vertex 12.500000 0.000000 -11.000000
      vertex -12.500000 0.000000 -11.000000
    endloop
  endfacet
  facet normal 0.000000 0.000000 -1.000000
    outer loop
      vertex -12.500000 1.600000 11.000000
      vertex 12.500000 1.600000 11.000000
      vertex 12.500000 0.000000 11.000000
    endloop
  endfacet
  facet normal 0.000000 0.000000 -1.000000
    outer loop
      vertex -12.500000 1.600000 11.000000
      vertex 12.500000 0.000000 11.000000
      vertex -12.500000 0.000000 11.000000
    endloop
  endfacet
  facet normal 0.000000 0.000000 1.000000
    outer loop
      vertex 12.500000 0.000000 -11.000000
      vertex 12.500000 1.600000 -11.000000
      vertex -12.500000 1.600000 -11.000000
    endloop
  endfacet
  facet normal 0.000000 0.000000 1.000000
    outer loop
      vertex 12.500000 0.000000 -11.000000
      vertex -12.500000 1.600000 -11.000000
      vertex -12.500000 0.000000 -11.000000
    endloop
  endfacet
  facet normal -1.000000 0.000000 0.000000
    outer loop
      vertex 12.500000 0.000000 11.000000
      vertex 12.500000 1.600000 11.000000
      vertex 12.500000 1.600000 -11.000000
    endloop
  endfacet
  facet normal -1.000000 0.000000 0.000000
    outer loop
      vertex 12.500000 0.000000 11.000000
      vertex 12.500000 1.600000 -11.000000
      vertex 12.500000 0.000000 -11.000000
    endloop
  endfacet
  facet normal 1.000000 0.000000 0.000000
    outer loop
      vertex -12.500000 0.000000 -11.000000
      vertex -12.500000 1.600000 -11.000000
      vertex -12.500000 1.600000 11.000000
    endloop
  endfacet
  facet normal 1.000000 0.000000 0.000000
    outer loop
      vertex -12.500000 0.000000 -11.000000
      vertex -12.500000 1.600000 11.000000
      vertex -12.500000 0.000000 11.000000
    endloop
  endfacet
  facet normal 0.000000 -1.000000 0.000000
    outer loop
      vertex -7.450000 7.225000 -9.560000
      vertex -5.250000 7.225000 -9.560000
      vertex -5.250000 7.225000 -7.360000
    endloop
  endfacet
  facet normal 0.000000 -1.000000 0.000000
    outer loop
      vertex -7.450000 7.225000 -9.560000
      vertex -5.250000 7.225000 -7.360000
      vertex -7.450000 7.225000 -7.360000
    endloop
  endfacet
  facet normal 0.000000 1.000000 0.000000
    outer loop
      vertex -7.450000 5.675000 -7.360000
      vertex -5.250000 5.675000 -7.360000
      vertex -5.250000 5.675000 -9.560000
    endloop
  endfacet
  facet normal 0.000000 1.000000 0.000000
    outer loop
      vertex -7.450000 5.675000 -7.360000
      vertex -5.250000 5.675000 -9.560000
      vertex -7.450000 5.675000 -9.560000
    endloop
  endfacet
  facet normal 0.000000 0.000000 -1.000000
    outer loop
      vertex -7.450000 7.225000 -7.360000
      vertex -5.250000 7.225000 -7.360000
      vertex -5.250000 5.675000 -7.360000
    endloop
  endfacet
  facet normal 0.000000 0.000000 -1.000000
    outer loop
      vertex -7.450000 7.225000 -7.360000
      vertex -5.250000 5.675000 -7.360000
      vertex -7.450000 5.675000 -7.360000
    endloop
  endfacet
  facet normal 0.000000 0.000000 1.000000
    outer loop
      vertex -5.250000 5.675000 -9.560000
      vertex -5.250000 7.225000 -9.560000
      vertex -7.450000 7.225000 -9.560000
    endloop
  endfacet
  facet normal 0.000000 0.000000 1.000000
    outer loop
      vertex -5.250000 5.675000 -9.560000
      vertex -7.450000 7.225000 -9.560000
      vertex -7.450000 5.675000 -9.560000
    endloop
  endfacet
  facet normal -1.000000 0.000000 0.000000
    outer loop
      vertex -5.250000 5.675000 -7.360000
      vertex -5.250000 7.225000 -7.360000
      vertex -5.250000 7.225000 -9.560000
    endloop
  endfacet
  facet normal -1.000000 0.000000 0.000000
    outer loop
      vertex -5.250000 5.675000 -7.360000
      vertex -5.250000 7.225000 -9.560000
      vertex -5.250000 5.675000 -9.560000
    endloop
  endfacet
  facet normal 1.000000 0.000000 0.000000
    outer loop
      vertex -7.450000 5.675000 -9.560000
      vertex -7.450000 7.225000 -9.560000
      vertex -7.450000 7.225000 -7.360000
    endloop
  endfacet
  facet normal 1.000000 0.000000 0.000000
    outer loop
      vertex -7.450000 5.675000 -9.560000
      vertex -7.450000 7.225000 -7.360000
      vertex -7.450000 5.675000 -7.360000
    endloop
  endfacet
  facet normal 0.000000 -1.000000 0.000000
    outer loop
      vertex -6.680000 11.200000 -8.790000
      vertex -6.020000 11.200000 -8.790000
      vertex -6.020000 11.200000 -8.130000
    endloop
  endfacet
  facet normal 0.000000 -1.000000 0.000000
    outer loop
      vertex -6.680000 11.200000 -8.790000
      vertex -6.020000 11.200000 -8.130000
      vertex -6.680000 11.200000 -8.130000
    endloop
  endfacet
  facet normal 0.000000 1.000000 0.000000
    outer loop
      vertex -6.680000 6.000000 -8.130000
      vertex -6.020000 6.000000 -8.130000
      vertex -6.020000 6.000000 -8.790000
    endloop
  endfacet
  facet normal 0.000000 1.000000 0.000000
    outer loop
      vertex -6.680000 6.000000 -8.130000
      vertex -6.020000 6.000000 -8.790000
      vertex -6.680000 6.000000 -8.790000
    endloop
  endfacet
  facet normal 0.000000 0.000000 -1.000000
    outer loop
      vertex -6.680000 11.200000 -8.130000
      vertex -6.020000 11.200000 -8.130000
      vertex -6.020000 6.000000 -8.130000
    endloop
  endfacet
  facet normal 0.000000 0.000000 -1.000000
    outer loop
      vertex -6.680000 11.200000 -8.130000
      vertex -6.020000 6.000000 -8.130000
      vertex -6.680000 6.000000 -8.130000
    endloop
  endfacet
  facet normal 0.000000 0.000000 1.000000
    outer loop
      vertex -6.020000 6.000000 -8.790000
      vertex -6.020000 11.200000 -8.790000
      vertex -6.680000 11.200000 -8.790000
    endloop
  endfacet
  facet normal 0.000000 0.000000 1.000000
    outer loop
      vertex -6.020000 6.000000 -8.790000
      vertex -6.680000 11.200000 -8.790000
      vertex -6.680000 6.000000 -8.790000
    endloop
  endfacet
  facet normal -1.000000 0.000000 0.000000
    outer loop
      vertex -6.020000 6.000000 -8.130000
      vertex -6.020000 11.200000 -8.130000
      vertex -6.020000 11.200000 -8.790000
    endloop
  endfacet
  facet normal -1.000000 0.000000 0.000000
    outer loop
      vertex -6.020000 6.000000 -8.130000
      vertex -6.020000 11.200000 -8.790000
      vertex -6.020000 6.000000 -8.790000
    endloop
  endfacet
  facet normal 1.000000 0.000000 0.000000
    outer loop
      vertex -6.680000 6.000000 -8.790000
      vertex -6.680000 11.200000 -8.790000
      vertex -6.680000 11.200000 -8.130000
    endloop
  endfacet
  facet normal 1.000000 0.000000 0.000000
    outer loop
      vertex -6.680000 6.000000 -8.790000
      vertex -6.680000 11.200000 -8.130000
      vertex -6.680000 6.000000 -8.130000
    endloop
  endfacet
  facet normal 0.000000 -1.000000 0.000000
    outer loop
      vertex -4.910000 7.225000 -9.560000
      vertex -2.710000 7.225000 -9.560000
      vertex -2.710000 7.225000 -7.360000
    endloop
  endfacet
  facet normal 0.000000 -1.000000 0.000000
    outer loop
      vertex -4.910000 7.225000 -9.560000
      vertex -2.710000 7.225000 -7.360000
      vertex -4.910000 7.225000 -7.360000
    endloop
  endfacet
  facet normal 0.000000 1.000000 0.000000
    outer loop
      vertex -4.910000 5.675000 -7.360000
      vertex -2.710000 5.675000 -7.360000
      vertex -2.710000 5.675000 -9.560000
    endloop
  endfacet
  facet normal 0.000000 1.000000 0.000000
    outer loop
      vertex -4.910000 5.675000 -7.360000
      vertex -2.710000 5.675000 -9.560000
      vertex -4.910000 5.675000 -9.560000
    endloop
  endfacet
  facet normal 0.000000 0.000000 -1.000000
    outer loop
      vertex -4.910000 7.225000 -7.360000
      vertex -2.710000 7.225000 -7.360000
      vertex -2.710000 5.675000 -7.360000
    endloop
  endfacet
  facet normal 0.000000 0.000000 -1.000000
    outer loop
      vertex -4.910000 7.225000 -7.360000
      vertex -2.710000 5.675000 -7.360000
      vertex -4.910000 5.675000 -7.360000
    endloop
  endfacet
  facet normal 0.000000 0.000000 1.000000
    outer loop
      vertex -2.710000 5.675000 -9.560000
      vertex -2.710000 7.225000 -9.560000
      vertex -4.910000 7.225000 -9.560000
    endloop
  endfacet
  facet normal 0.000000 0.000000 1.000000
    outer loop
      vertex -2.710000 5.675000 -9.560000
      vertex -4.910000 7.225000 -9.560000
      vertex -4.910000 5.675000 -9.560000
    endloop
  endfacet
  facet normal -1.000000 0.000000 0.000000
    outer loop
      vertex -2.710000 5.675000 -7.360000
      vertex -2.710000 7.225000 -7.360000
      vertex -2.710000 7.225000 -9.560000
    endloop
  endfacet
  facet normal -1.000000 0.000000 0.000000
    outer loop
      vertex -2.710000 5.675000 -7.360000
      vertex -2.710000 7.225000 -9.560000
      vertex -2.710000 5.675000 -9.560000
    endloop
  endfacet
  facet normal 1.000000 0.000000 0.000000
    outer loop
      vertex -4.910000 5.675000 -9.560000
      vertex -4.910000 7.225000 -9.560000
      vertex -4.910000 7.225000 -7.360000
    endloop
  endfacet
  facet normal 1.000000 0.000000 0.000000
    outer loop
      vertex -4.910000 5.675000 -9.560000
      vertex -4.910000 7.225000 -7.360000
      vertex -4.910000 5.675000 -7.360000
    endloop
  endfacet
  facet normal 0.000000 -1.000000 0.000000
    outer loop
      vertex -4.140000 11.200000 -8.790000
      vertex -3.480000 11.200000 -8.790000
      vertex -3.480000 11.200000 -8.130000
    endloop
  endfacet
  facet normal 0.000000 -1.000000 0.000000
    outer loop
      vertex -4.140000 11.200000 -8.790000
      vertex -3.480000 11.200000 -8.130000
      vertex -4.140000 11.200000 -8.130000
    endloop
  endfacet
  facet normal 0.000000 1.000000 0.000000
    outer loop
      vertex -4.140000 6.000000 -8.130000
      vertex -3.480000 6.000000 -8.130000
      vertex -3.480000 6.000000 -8.790000
    endloop
  endfacet
  facet normal 0.000000 1.000000 0.000000
    outer loop
      vertex -4.140000 6.000000 -8.130000
      vertex -3.480000 6.000000 -8.790000
      vertex -4.140000 6.000000 -8.790000
    endloop
  endfacet
  facet normal 0.000000 0.000000 -1.000000
    outer loop
      vertex -4.140000 11.200000 -8.130000
      vertex -3.480000 11.200000 -8.130000
      vertex -3.480000 6.000000 -8.130000
    endloop
  endfacet
  facet normal 0.000000 0.000000 -1.000000
    outer loop
      vertex -4.140000 11.200000 -8.130000
      vertex -3.480000 6.000000 -8.130000
      vertex -4.140000 6.000000 -8.130000
    endloop
  endfacet
  facet normal 0.000000 0.000000 1.000000
    outer loop
      vertex -3.480000 6.000000 -8.790000
      vertex -3.480000 11.200000 -8.790000
      vertex -4.140000 11.200000 -8.790000
    endloop
  endfacet
  facet normal 0.000000 0.000000 1.000000
    outer loop
      vertex -3.480000 6.000000 -8.790000
      vertex -4.140000 11.200000 -8.790000
      vertex -4.140000 6.000000 -8.790000
    endloop
  endfacet
  facet normal -1.000000 0.000000 0.000000
    outer loop
      vertex -3.480000 6.000000 -8.130000
      vertex -3.480000 11.200000 -8.130000
      vertex -3.480000 11.200000 -8.790000
    endloop
  endfacet
  facet normal -1.000000 0.000000 0.000000
    outer loop
      vertex -3.480000 6.000000 -8.130000
      vertex -3.480000 11.200000 -8.790000
      vertex -3.480000 6.000000 -8.790000
    endloop
  endfacet
  facet normal 1.000000 0.000000 0.000000
    outer loop
      vertex -4.140000 6.000000 -8.790000
      vertex -4.140000 11.200000 -8.790000
      vertex -4.140000 11.200000 -8.130000
    endloop
  endfacet
  facet normal 1.000000 0.000000 0.000000
    outer loop
      vertex -4.140000 6.000000 -8.790000
      vertex -4.140000 11.200000 -8.130000
      vertex -4.140000 6.000000 -8.130000
    endloop
  endfacet
  facet normal 0.000000 -1.000000 0.000000
    outer loop
      vertex -2.370000 7.225000 -9.560000
      vertex -0.170000 7.225000 -9.560000
      vertex -0.170000 7.225000 -7.360000
    endloop
  endfacet
  facet normal 0.000000 -1.000000 0.000000
    outer loop
      vertex -2.370000 7.225000 -9.560000
      vertex -0.170000 7.225000 -7.360000
      vertex -2.370000 7.225000 -7.360000
    endloop
  endfacet
  facet normal 0.000000 1.000000 0.000000
    outer loop
      vertex -2.370000 5.675000 -7.360000
      vertex -0.170000 5.675000 -7.360000
      vertex -0.170000 5.675000 -9.560000
    endloop
  endfacet
  facet normal 0.000000 1.000000 0.000000
    outer loop
      vertex -2.370000 5.675000 -7.360000
      vertex -0.170000 5.675000 -9.560000
      vertex -2.370000 5.675000 -9.560000
    endloop
  endfacet
  facet normal 0.000000 0.000000 -1.000000
    outer loop
      vertex -2.370000 7.225000 -7.360000
      vertex -0.170000 7.225000 -7.360000
      vertex -0.170000 5.675000 -7.360000
    endloop
  endfacet
  facet normal 0.000000 0.000000 -1.000000
    outer loop
      vertex -2.370000 7.225000 -7.360000
      vertex -0.170000 5.675000 -7.360000
      vertex -2.370000 5.675000 -7.360000
    endloop
  endfacet
  facet normal 0.000000 0.000000 1.000000
    outer loop
      vertex -0.170000 5.675000 -9.560000
      vertex -0.170000 7.225000 -9.560000
      vertex -2.370000 7.225000 -9.560000
    endloop
  endfacet
  facet normal 0.000000 0.000000 1.000000
    outer loop
      vertex -0.170000 5.675000 -9.560000
      vertex -2.370000 7.225000 -9.560000
      vertex -2.370000 5.675000 -9.560000
    endloop
  endfacet
  facet normal -1.000000 0.000000 0.000000
    outer loop
      vertex -0.170000 5.675000 -7.360000
      vertex -0.170000 7.225000 -7.360000
      vertex -0.170000 7.225000 -9.560000
    endloop
  endfacet
  facet normal -1.000000 0.000000 0.000000
    outer loop
      vertex -0.170000 5.675000 -7.360000
      vertex -0.170000 7.225000 -9.560000
      vertex -0.170000 5.675000 -9.560000
    endloop
  endfacet
  facet normal 1.000000 0.000000 0.000000
    outer loop
      vertex -2.370000 5.675000 -9.560000
      vertex -2.370000 7.225000 -9.560000
      vertex -2.370000 7.225000 -7.360000
    endloop
  endfacet
  facet normal 1.000000 0.000000 0.000000
    outer loop
      vertex -2.370000 5.675000 -9.560000
      vertex -2.370000 7.225000 -7.360000
      vertex -2.370000 5.675000 -7.360000
    endloop
  endfacet
  facet normal 0.000000 -1.000000 0.000000
    outer loop
      vertex -1.600000 11.200000 -8.790000
      vertex -0.940000 11.200000 -8.790000
      vertex -0.940000 11.200000 -8.130000
    endloop
  endfacet
  facet normal 0.000000 -1.000000 0.000000
    outer loop
      vertex -1.600000 11.200000 -8.790000
      vertex -0.940000 11.200000 -8.130000
      vertex -1.600000 11.200000 -8.130000
    endloop
  endfacet
  facet normal 0.000000 1.000000 0.000000
    outer loop
      vertex -1.600000 6.000000 -8.130000
      vertex -0.940000 6.000000 -8.130000
      vertex -0.940000 6.000000 -8.790000
    endloop
  endfacet
  facet normal 0.000000 1.000000 0.000000
    outer loop
      vertex -1.600000 6.000000 -8.130000
      vertex -0.940000 6.000000 -8.790000
      vertex -1.600000 6.000000 -8.790000
    endloop
  endfacet
  facet normal 0.000000 0.000000 -1.000000
    outer loop
      vertex -1.600000 11.200000 -8.130000
      vertex -0.940000 11.200000 -8.130000
      vertex -0.940000 6.000000 -8.130000
    endloop
  endfacet
  facet normal 0.000000 0.000000 -1.000000
    outer loop
      vertex -1.600000 11.200000 -8.130000
      vertex -0.940000 6.000000 -8.130000
      vertex -1.600000 6.000000 -8.130000
    endloop
  endfacet
  facet normal 0.000000 0.000000 1.000000
    outer loop
      vertex -0.940000 6.000000 -8.790000
      vertex -0.940000 11.200000 -8.790000
      vertex -1.600000 11.200000 -8.790000
    endloop
  endfacet
  facet normal 0.000000 0.000000 1.000000
    outer loop
      vertex -0.940000 6.000000 -8.790000
      vertex -1.600000 11.200000 -8.790000
      vertex -1.600000 6.000000 -8.790000
    endloop
  endfacet
  facet normal -1.000000 0.000000 0.000000
    outer loop
      vertex -0.940000 6.000000 -8.130000
      vertex -0.940000 11.200000 -8.130000
      vertex -0.940000 11.200000 -8.790000
    endloop
  endfacet
  facet normal -1.000000 0.000000 0.000000
    outer loop
      vertex -0.940000 6.000000 -8.130000
      vertex -0.940000 11.200000 -8.790000
      vertex -0.940000 6.000000 -8.790000
    endloop
  endfacet
  facet normal 1.000000 0.000000 0.000000
    outer loop
      vertex -1.600000 6.000000 -8.790000
      vertex -1.600000 11.200000 -8.790000
      vertex -1.600000 11.200000 -8.130000
    endloop
  endfacet
  facet normal 1.000000 0.000000 0.000000
    outer loop
      vertex -1.600000 6.000000 -8.790000
      vertex -1.600000 11.200000 -8.130000
      vertex -1.600000 6.000000 -8.130000
    endloop
  endfacet
  facet normal 0.000000 -1.000000 0.000000
    outer loop
      vertex 0.170000 7.225000 -9.560000
      vertex 2.370000 7.225000 -9.560000
      vertex 2.370000 7.225000 -7.360000
    endloop
  endfacet
  facet normal 0.000000 -1.000000 0.000000
    outer loop
      vertex 0.170000 7.225000 -9.560000
      vertex 2.370000 7.225000 -7.360000
      vertex 0.170000 7.225000 -7.360000
    endloop
  endfacet
  facet normal 0.000000 1.000000 0.000000
    outer loop
      vertex 0.170000 5.675000 -7.360000
      vertex 2.370000 5.675000 -7.360000
      vertex 2.370000 5.675000 -9.560000
    endloop
  endfacet
  facet normal 0.000000 1.000000 0.000000
    outer loop
      vertex 0.170000 5.675000 -7.360000
      vertex 2.370000 5.675000 -9.560000
      vertex 0.170000 5.675000 -9.560000
    endloop
  endfacet
  facet normal 0.000000 0.000000 -1.000000
    outer loop
      vertex 0.170000 7.225000 -7.360000
      vertex 2.370000 7.225000 -7.360000
      vertex 2.370000 5.675000 -7.360000
    endloop
  endfacet
  facet normal 0.000000 0.000000 -1.000000
    outer loop
      vertex 0.170000 7.225000 -7.360000
      vertex 2.370000 5.675000 -7.360000
      vertex 0.170000 5.675000 -7.360000
    endloop
  endfacet
  facet normal 0.000000 0.000000 1.000000
    outer loop
      vertex 2.370000 5.675000 -9.560000
      vertex 2.370000 7.225000 -9.560000
      vertex 0.170000 7.225000 -9.560000
    endloop
  endfacet
  facet normal 0.000000 0.000000 1.000000
    outer loop
      vertex 2.370000 5.675000 -9.560000
      vertex 0.170000 7.225000 -9.560000
      vertex 0.170000 5.675000 -9.560000
    endloop
  endfacet
  facet normal -1.000000 0.000000 0.000000
    outer loop
      vertex 2.370000 5.675000 -7.360000
      vertex 2.370000 7.225000 -7.360000
      vertex 2.370000 7.225000 -9.560000
    endloop
  endfacet
  facet normal -1.000000 0.000000 0.000000
    outer loop
      vertex 2.370000 5.675000 -7.360000
      vertex 2.370000 7.225000 -9.560000
      vertex 2.370000 5.675000 -9.560000
    endloop
  endfacet
  facet normal 1.000000 0.000000 0.000000
    outer loop
      vertex 0.170000 5.675000 -9.560000
      vertex 0.170000 7.225000 -9.560000
      vertex 0.170000 7.225000 -7.360000
    endloop
  endfacet
  facet normal 1.000000 0.000000 0.000000
    outer loop
      vertex 0.170000 5.675000 -9.560000
      vertex 0.170000 7.225000 -7.360000
      vertex 0.170000 5.675000 -7.360000
    endloop
  endfacet
  facet normal 0.000000 -1.000000 0.000000
    outer loop
      vertex 0.940000 11.200000 -8.790000
      vertex 1.600000 11.200000 -8.790000
      vertex 1.600000 11.200000 -8.130000
    endloop
  endfacet
  facet normal 0.000000 -1.000000 0.000000
    outer loop
      vertex 0.940000 11.200000 -8.790000
      vertex 1.600000 11.200000 -8.130000
      vertex 0.940000 11.200000 -8.130000
    endloop
  endfacet
  facet normal 0.000000 1.000000 0.000000
    outer loop
      vertex 0.940000 6.000000 -8.130000
      vertex 1.600000 6.000000 -8.130000
      vertex 1.600000 6.000000 -8.790000
    endloop
  endfacet
  facet normal 0.000000 1.000000 0.000000
    outer loop
      vertex 0.940000 6.000000 -8.130000
      vertex 1.600000 6.000000 -8.790000
      vertex 0.940000 6.000000 -8.790000
    endloop
  endfacet
  facet normal 0.000000 0.000000 -1.000000
    outer loop
      vertex 0.940000 11.200000 -8.130000
      vertex 1.600000 11.200000 -8.130000
      vertex 1.600000 6.000000 -8.130000
    endloop
  endfacet
  facet normal 0.000000 0.000000 -1.000000
    outer loop
      vertex 0.940000 11.200000 -8.130000
      vertex 1.600000 6.000000 -8.130000
      vertex 0.940000 6.000000 -8.130000
    endloop
  endfacet
  facet normal 0.000000 0.000000 1.000000
    outer loop
      vertex 1.600000 6.000000 -8.790000
      vertex 1.600000 11.200000 -8.790000
      vertex 0.940000 11.200000 -8.790000
    endloop
  endfacet
  facet normal 0.000000 0.000000 1.000000
    outer loop
      vertex 1.600000 6.000000 -8.790000
      vertex 0.940000 11.200000 -8.790000
      vertex 0.940000 6.000000 -8.790000
    endloop
  endfacet
  facet normal -1.000000 0.000000 0.000000
    outer loop
      vertex 1.600000 6.000000 -8.130000
      vertex 1.600000 11.200000 -8.130000
      vertex 1.600000 11.200000 -8.790000
    endloop
  endfacet
  facet normal -1.000000 0.000000 0.000000
    outer loop
      vertex 1.600000 6.000000 -8.130000
      vertex 1.600000 11.200000 -8.790000
      vertex 1.600000 6.000000 -8.790000
    endloop
  endfacet
  facet normal 1.000000 0.000000 0.000000
    outer loop
      vertex 0.940000 6.000000 -8.790000
      vertex 0.940000 11.200000 -8.790000
      vertex 0.940000 11.200000 -8.130000
    endloop
  endfacet
  facet normal 1.000000 0.000000 0.000000
    outer loop
      vertex 0.940000 6.000000 -8.790000
      vertex 0.940000 11.200000 -8.130000
      vertex 0.940000 6.000000 -8.130000
    endloop
  endfacet
  facet normal 0.000000 -1.000000 0.000000
    outer loop
      vertex 2.710000 7.225000 -9.560000
      vertex 4.910000 7.225000 -9.560000
      vertex 4.910000 7.225000 -7.360000
    endloop
  endfacet
  facet normal 0.000000 -1.000000 0.000000
    outer loop
      vertex 2.710000 7.225000 -9.560000
      vertex 4.910000 7.225000 -7.360000
      vertex 2.710000 7.225000 -7.360000
    endloop
  endfacet
  facet normal 0.000000 1.000000 0.000000
    outer loop
      vertex 2.710000 5.675000 -7.360000
      vertex 4.910000 5.675000 -7.360000
      vertex 4.910000 5.675000 -9.560000
    endloop
  endfacet
  facet normal 0.000000 1.000000 0.000000
    outer loop
      vertex 2.710000 5.675000 -7.360000
      vertex 4.910000 5.675000 -9.560000
      vertex 2.710000 5.675000 -9.560000
    endloop
  endfacet
  facet normal 0.000000 0.000000 -1.000000
    outer loop
      vertex 2.710000 7.225000 -7.360000
      vertex 4.910000 7.225000 -7.360000
      vertex 4.910000 5.675000 -7.360000
    endloop
  endfacet
  facet normal 0.000000 0.000000 -1.000000
    outer loop
      vertex 2.710000 7.225000 -7.360000
      vertex 4.910000 5.675000 -7.360000
      vertex 2.710000 5.675000 -7.360000
    endloop
  endfacet
  facet normal 0.000000 0.000000 1.000000
    outer loop
      vertex 4.910000 5.675000 -9.560000
      vertex 4.910000 7.225000 -9.560000
      vertex 2.710000 7.225000 -9.560000
    endloop
  endfacet
  facet normal 0.000000 0.000000 1.000000
    outer loop
      vertex 4.910000 5.675000 -9.560000
      vertex 2.710000 7.225000 -9.560000
      vertex 2.710000 5.675000 -9.560000
    endloop
  endfacet
  facet normal -1.000000 0.000000 0.000000
    outer loop
      vertex 4.910000 5.675000 -7.360000
      vertex 4.910000 7.225000 -7.360000
      vertex 4.910000 7.225000 -9.560000
    endloop
  endfacet
  facet normal -1.000000 0.000000 0.000000
    outer loop
      vertex 4.910000 5.675000 -7.360000
      vertex 4.910000 7.225000 -9.560000
      vertex 4.910000 5.675000 -9.560000
    endloop
  endfacet
  facet normal 1.000000 0.000000 0.000000
    outer loop
      vertex 2.710000 5.675000 -9.560000
      vertex 2.710000 7.225000 -9.560000
      vertex 2.710000 7.225000 -7.360000
    endloop
  endfacet
  facet normal 1.000000 0.000000 0.000000
    outer loop
      vertex 2.710000 5.675000 -9.560000
      vertex 2.710000 7.225000 -7.360000
      vertex 2.710000 5.675000 -7.360000
    endloop
  endfacet
  facet normal 0.000000 -1.000000 0.000000
    outer loop
      vertex 3.480000 11.200000 -8.790000
      vertex 4.140000 11.200000 -8.790000
      vertex 4.140000 11.200000 -8.130000
    endloop
  endfacet
  facet normal 0.000000 -1.000000 0.000000
    outer loop
      vertex 3.480000 11.200000 -8.790000
      vertex 4.140000 11.200000 -8.130000
      vertex 3.480000 11.200000 -8.130000
    endloop
  endfacet
  facet normal 0.000000 1.000000 0.000000
    outer loop
      vertex 3.480000 6.000000 -8.130000
      vertex 4.140000 6.000000 -8.130000
      vertex 4.140000 6.000000 -8.790000
    endloop
  endfacet
  facet normal 0.000000 1.000000 0.000000
    outer loop
      vertex 3.480000 6.000000 -8.130000
      vertex 4.140000 6.000000 -8.790000
      vertex 3.480000 6.000000 -8.790000
    endloop
  endfacet
  facet normal 0.000000 0.000000 -1.000000
    outer loop
      vertex 3.480000 11.200000 -8.130000
      vertex 4.140000 11.200000 -8.130000
      vertex 4.140000 6.000000 -8.130000
    endloop
  endfacet
  facet normal 0.000000 0.000000 -1.000000
    outer loop
      vertex 3.480000 11.200000 -8.130000
      vertex 4.140000 6.000000 -8.130000
      vertex 3.480000 6.000000 -8.130000
    endloop
  endfacet
  facet normal 0.000000 0.000000 1.000000
    outer loop
      vertex 4.140000 6.000000 -8.790000
      vertex 4.140000 11.200000 -8.790000
      vertex 3.480000 11.200000 -8.790000
    endloop
  endfacet
  facet normal 0.000000 0.000000 1.000000
    outer loop
      vertex 4.140000 6.000000 -8.790000
      vertex 3.480000 11.200000 -8.790000
      vertex 3.480000 6.000000 -8.790000
    endloop
  endfacet
  facet normal -1.000000 0.000000 0.000000
    outer loop
      vertex 4.140000 6.000000 -8.130000
      vertex 4.140000 11.200000 -8.130000
      vertex 4.140000 11.200000 -8.790000
    endloop
  endfacet
  facet normal -1.000000 0.000000 0.000000
    outer loop
      vertex 4.140000 6.000000 -8.130000
      vertex 4.140000 11.200000 -8.790000
      vertex 4.140000 6.000000 -8.790000
    endloop
  endfacet
  facet normal 1.000000 0.000000 0.000000
    outer loop
      vertex 3.480000 6.000000 -8.790000
      vertex 3.480000 11.200000 -8.790000
      vertex 3.480000 11.200000 -8.130000
    endloop
  endfacet
  facet normal 1.000000 0.000000 0.000000
    outer loop
      vertex 3.480000 6.000000 -8.790000
      vertex 3.480000 11.200000 -8.130000
      vertex 3.480000 6.000000 -8.130000
    endloop
  endfacet
  facet normal 0.000000 -1.000000 0.000000
    outer loop
      vertex 5.250000 7.225000 -9.560000
      vertex 7.450000 7.225000 -9.560000
      vertex 7.450000 7.225000 -7.360000
    endloop
  endfacet
  facet normal 0.000000 -1.000000 0.000000
    outer loop
      vertex 5.250000 7.225000 -9.560000
      vertex 7.450000 7.225000 -7.360000
      vertex 5.250000 7.225000 -7.360000
    endloop
  endfacet
  facet normal 0.000000 1.000000 0.000000
    outer loop
      vertex 5.250000 5.675000 -7.360000
      vertex 7.450000 5.675000 -7.360000
      vertex 7.450000 5.675000 -9.560000
    endloop
  endfacet
  facet normal 0.000000 1.000000 0.000000
    outer loop
      vertex 5.250000 5.675000 -7.360000
      vertex 7.450000 5.675000 -9.560000
      vertex 5.250000 5.675000 -9.560000
    endloop
  endfacet
  facet normal 0.000000 0.000000 -1.000000
    outer loop
      vertex 5.250000 7.225000 -7.360000
      vertex 7.450000 7.225000 -7.360000
      vertex 7.450000 5.675000 -7.360000
    endloop
  endfacet
  facet normal 0.000000 0.000000 -1.000000
    outer loop
      vertex 5.250000 7.225000 -7.360000
      vertex 7.450000 5.675000 -7.360000
      vertex 5.250000 5.675000 -7.360000
    endloop
  endfacet
  facet normal 0.000000 0.000000 1.000000
    outer loop
      vertex 7.450000 5.675000 -9.560000
      vertex 7.450000 7.225000 -9.560000
      vertex 5.250000 7.225000 -9.560000
    endloop
  endfacet
  facet normal 0.000000 0.000000 1.000000
    outer loop
      vertex 7.450000 5.675000 -9.560000
      vertex 5.250000 7.225000 -9.560000
      vertex 5.250000 5.675000 -9.560000
    endloop
  endfacet
  facet normal -1.000000 0.000000 0.000000
    outer loop
      vertex 7.450000 5.675000 -7.360000
      vertex 7.450000 7.225000 -7.360000
      vertex 7.450000 7.225000 -9.560000
    endloop
  endfacet
  facet normal -1.000000 0.000000 0.000000
    outer loop
      vertex 7.450000 5.675000 -7.360000
      vertex 7.450000 7.225000 -9.560000
      vertex 7.450000 5.675000 -9.560000
    endloop
  endfacet
  facet normal 1.000000 0.000000 0.000000
    outer loop
      vertex 5.250000 5.675000 -9.560000
      vertex 5.250000 7.225000 -9.560000
      vertex 5.250000 7.225000 -7.360000
    endloop
  endfacet
  facet normal 1.000000 0.000000 0.000000
    outer loop
      vertex 5.250000 5.675000 -9.560000
      vertex 5.250000 7.225000 -7.360000
      vertex 5.250000 5.675000 -7.360000
    endloop
  endfacet
  facet normal 0.000000 -1.000000 0.000000
    outer loop
      vertex 6.020000 11.200000 -8.790000
      vertex 6.680000 11.200000 -8.790000
      vertex 6.680000 11.200000 -8.130000
    endloop
  endfacet
  facet normal 0.000000 -1.000000 0.000000
    outer loop
      vertex 6.020000 11.200000 -8.790000
      vertex 6.680000 11.200000 -8.130000
      vertex 6.020000 11.200000 -8.130000
    endloop
  endfacet
  facet normal 0.000000 1.000000 0.000000
    outer loop
      vertex 6.020000 6.000000 -8.130000
      vertex 6.680000 6.000000 -8.130000
      vertex 6.680000 6.000000 -8.790000
    endloop
  endfacet
  facet normal 0.000000 1.000000 0.000000
    outer loop
      vertex 6.020000 6.000000 -8.130000
      vertex 6.680000 6.000000 -8.790000
      vertex 6.020000 6.000000 -8.790000
    endloop
  endfacet
  facet normal 0.000000 0.000000 -1.000000
    outer loop
      vertex 6.020000 11.200000 -8.130000
      vertex 6.680000 11.200000 -8.130000
      vertex 6.680000 6.000000 -8.130000
    endloop
  endfacet
  facet normal 0.000000 0.000000 -1.000000
    outer loop
      vertex 6.020000 11.200000 -8.130000
      vertex 6.680000 6.000000 -8.130000
      vertex 6.020000 6.000000 -8.130000
    endloop
  endfacet
  facet normal 0.000000 0.000000 1.000000
    outer loop
      vertex 6.680000 6.000000 -8.790000
      vertex 6.680000 11.200000 -8.790000
      vertex 6.020000 11.200000 -8.790000
    endloop
  endfacet
  facet normal 0.000000 0.000000 1.000000
    outer loop
      vertex 6.680000 6.000000 -8.790000
      vertex 6.020000 11.200000 -8.790000
      vertex 6.020000 6.000000 -8.790000
    endloop
  endfacet
  facet normal -1.000000 0.000000 0.000000
    outer loop
      vertex 6.680000 6.000000 -8.130000
      vertex 6.680000 11.200000 -8.130000
      vertex 6.680000 11.200000 -8.790000
    endloop
  endfacet
  facet normal -1.000000 0.000000 0.000000
    outer loop
      vertex 6.680000 6.000000 -8.130000
      vertex 6.680000 11.200000 -8.790000
      vertex 6.680000 6.000000 -8.790000
    endloop
  endfacet
  facet normal 1.000000 0.000000 0.000000
    outer loop
      vertex 6.020000 6.000000 -8.790000
      vertex 6.020000 11.200000 -8.790000
      vertex 6.020000 11.200000 -8.130000
    endloop
  endfacet
  facet normal 1.000000 0.000000 0.000000
    outer loop
      vertex 6.020000 6.000000 -8.790000
      vertex 6.020000 11.200000 -8.130000
      vertex 6.020000 6.000000 -8.130000
    endloop
  endfacet
  facet normal 0.000000 -1.000000 0.000000
    outer loop
      vertex -2.600000 3.250000 -1.100000
      vertex 2.600000 3.250000 -1.100000
      vertex 2.600000 3.250000 4.100000
    endloop
  endfacet
  facet normal 0.000000 -1.000000 0.000000
    outer loop
      vertex -2.600000 3.250000 -1.100000
      vertex 2.600000 3.250000 4.100000
      vertex -2.600000 3.250000 4.100000
    endloop
  endfacet
  facet normal 0.000000 1.000000 0.000000
    outer loop
      vertex -2.600000 2.150000 4.100000
      vertex 2.600000 2.150000 4.100000
      vertex 2.600000 2.150000 -1.100000
    endloop
  endfacet
  facet normal 0.000000 1.000000 0.000000
    outer loop
      vertex -2.600000 2.150000 4.100000
      vertex 2.600000 2.150000 -1.100000
      vertex -2.600000 2.150000 -1.100000
    endloop
  endfacet
  facet normal 0.000000 0.000000 -1.000000
    outer loop
      vertex -2.600000 3.250000 4.100000
      vertex 2.600000 3.250000 4.100000
      vertex 2.600000 2.150000 4.100000
    endloop
  endfacet
  facet normal 0.000000 0.000000 -1.000000
    outer loop
      vertex -2.600000 3.250000 4.100000
      vertex 2.600000 2.150000 4.100000
      vertex -2.600000 2.150000 4.100000
    endloop
  endfacet
  facet normal 0.000000 0.000000 1.000000
    outer loop
      vertex 2.600000 2.150000 -1.100000
      vertex 2.600000 3.250000 -1.100000
      vertex -2.600000 3.250000 -1.100000
    endloop
  endfacet
  facet normal 0.000000 0.000000 1.000000
    outer loop
      vertex 2.600000 2.150000 -1.100000
      vertex -2.600000 3.250000 -1.100000
      vertex -2.600000 2.150000 -1.100000
    endloop
  endfacet
  facet normal -1.000000 0.000000 0.000000
    outer loop
      vertex 2.600000 2.150000 4.100000
      vertex 2.600000 3.250000 4.100000
      vertex 2.600000 3.250000 -1.100000
    endloop
  endfacet
  facet normal -1.000000 0.000000 0.000000
    outer loop
      vertex 2.600000 2.150000 4.100000
      vertex 2.600000 3.250000 -1.100000
      vertex 2.600000 2.150000 -1.100000
    endloop
  endfacet
  facet normal 1.000000 0.000000 0.000000
    outer loop
      vertex -2.600000 2.150000 -1.100000
      vertex -2.600000 3.250000 -1.100000
      vertex -2.600000 3.250000 4.100000
    endloop
  endfacet
  facet normal 1.000000 0.000000 0.000000
    outer loop
      vertex -2.600000 2.150000 -1.100000
      vertex -2.600000 3.250000 4.100000
      vertex -2.600000 2.150000 4.100000
    endloop
  endfacet
  facet normal 0.000000 -1.000000 0.000000
    outer loop
      vertex -7.620000 4.050000 -9.710000
      vertex 7.620000 4.050000 -9.710000
      vertex 7.620000 4.050000 -7.210000
    endloop
  endfacet
  facet normal 0.000000 -1.000000 0.000000
    outer loop
      vertex -7.620000 4.050000 -9.710000
      vertex 7.620000 4.050000 -7.210000
      vertex -7.620000 4.050000 -7.210000
    endloop
  endfacet
  facet normal 0.000000 1.000000 0.000000
    outer loop
      vertex -7.620000 1.550000 -7.210000
      vertex 7.620000 1.550000 -7.210000
      vertex 7.620000 1.550000 -9.710000
    endloop
  endfacet
  facet normal 0.000000 1.000000 0.000000
    outer loop
      vertex -7.620000 1.550000 -7.210000
      vertex 7.620000 1.550000 -9.710000
      vertex -7.620000 1.550000 -9.710000
    endloop
  endfacet
  facet normal 0.000000 0.000000 -1.000000
    outer loop
      vertex -7.620000 4.050000 -7.210000
      vertex 7.620000 4.050000 -7.210000
      vertex 7.620000 1.550000 -7.210000
    endloop
  endfacet
  facet normal 0.000000 0.000000 -1.000000
    outer loop
      vertex -7.620000 4.050000 -7.210000
      vertex 7.620000 1.550000 -7.210000
      vertex -7.620000 1.550000 -7.210000
    endloop
  endfacet
  facet normal 0.000000 0.000000 1.000000
    outer loop
      vertex 7.620000 1.550000 -9.710000
      vertex 7.620000 4.050000 -9.710000
      vertex -7.620000 4.050000 -9.710000
    endloop
  endfacet
  facet normal 0.000000 0.000000 1.000000
    outer loop
      vertex 7.620000 1.550000 -9.710000
      vertex -7.620000 4.050000 -9.710000
      vertex -7.620000 1.550000 -9.710000
    endloop
  endfacet
  facet normal -1.000000 0.000000 0.000000
    outer loop
      vertex 7.620000 1.550000 -7.210000
      vertex 7.620000 4.050000 -7.210000
      vertex 7.620000 4.050000 -9.710000
    endloop
  endfacet
  facet normal -1.000000 0.000000 0.000000
    outer loop
      vertex 7.620000 1.550000 -7.210000
      vertex 7.620000 4.050000 -9.710000
      vertex 7.620000 1.550000 -9.710000
    endloop
  endfacet
  facet normal 1.000000 0.000000 0.000000
    outer loop
      vertex -7.620000 1.550000 -9.710000
      vertex -7.620000 4.050000 -9.710000
      vertex -7.620000 4.050000 -7.210000
    endloop
  endfacet
  facet normal 1.000000 0.000000 0.000000
    outer loop
      vertex -7.620000 1.550000 -9.710000
      vertex -7.620000 4.050000 -7.210000
      vertex -7.620000 1.550000 -7.210000
    endloop
  endfacet
  facet normal 0.000000 -1.000000 0.000000
    outer loop
      vertex 3.000000 3.500000 0.000000
      vertex 11.000000 3.500000 0.000000
      vertex 11.000000 3.500000 3.000000
    endloop
  endfacet
  facet normal 0.000000 -1.000000 0.000000
    outer loop
      vertex 3.000000 3.500000 0.000000
      vertex 11.000000 3.500000 3.000000
      vertex 3.000000 3.500000 3.000000
    endloop
  endfacet
  facet normal 0.000000 1.000000 0.000000
    outer loop
      vertex 3.000000 2.300000 3.000000
      vertex 11.000000 2.300000 3.000000
      vertex 11.000000 2.300000 0.000000
    endloop
  endfacet
  facet normal 0.000000 1.000000 0.000000
    outer loop
      vertex 3.000000 2.300000 3.000000
      vertex 11.000000 2.300000 0.000000
      vertex 3.000000 2.300000 0.000000
    endloop
  endfacet
  facet normal 0.000000 0.000000 -1.000000
    outer loop
      vertex 3.000000 3.500000 3.000000
      vertex 11.000000 3.500000 3.000000
      vertex 11.000000 2.300000 3.000000
    endloop
  endfacet
  facet normal 0.000000 0.000000 -1.000000
    outer loop
      vertex 3.000000 3.500000 3.000000
      vertex 11.000000 2.300000 3.000000
      vertex 3.000000 2.300000 3.000000
    endloop
  endfacet
  facet normal 0.000000 0.000000 1.000000
    outer loop
      vertex 11.000000 2.300000 0.000000
      vertex 11.000000 3.500000 0.000000
      vertex 3.000000 3.500000 0.000000
    endloop
  endfacet
  facet normal 0.000000 0.000000 1.000000
    outer loop
      vertex 11.000000 2.300000 0.000000
      vertex 3.000000 3.500000 0.000000
      vertex 3.000000 2.300000 0.000000
    endloop
  endfacet
  facet normal -1.000000 0.000000 0.000000
    outer loop
      vertex 11.000000 2.300000 3.000000
      vertex 11.000000 3.500000 3.000000
      vertex 11.000000 3.500000 0.000000
    endloop
  endfacet
  facet normal -1.000000 0.000000 0.000000
    outer loop
      vertex 11.000000 2.300000 3.000000
      vertex 11.000000 3.500000 0.000000
      vertex 11.000000 2.300000 0.000000
    endloop
  endfacet
  facet normal 1.000000 0.000000 0.000000
    outer loop
      vertex 3.000000 2.300000 0.000000
      vertex 3.000000 3.500000 0.000000
      vertex 3.000000 3.500000 3.000000
    endloop
  endfacet
  facet normal 1.000000 0.000000 0.000000
    outer loop
      vertex 3.000000 2.300000 0.000000
      vertex 3.000000 3.500000 3.000000
      vertex 3.000000 2.300000 3.000000
    endloop
  endfacet
endsolid ina219_current_sensor