solid regulator_lm7805
  facet normal 0.000000 1.000000 0.000000
    outer loop
      vertex -2.540000 -15.100000 0.000000
      vertex -2.260000 -15.100000 0.000000
      vertex -2.287729 -15.100000 -0.121487
    endloop
  endfacet
  facet normal 0.000000 -1.000000 0.000000
    outer loop
      vertex -2.540000 -4.600000 -0.000000
      vertex -2.287729 -4.600000 -0.121487
      vertex -2.260000 -4.600000 -0.000000
    endloop
  endfacet
  facet normal -0.974928 0.000000 0.222521
    outer loop
      vertex -2.260000 -4.600000 -0.000000
      vertex -2.287729 -4.600000 -0.121487
      vertex -2.287729 -15.100000 -0.121487
    endloop
  endfacet
  facet normal -0.974928 0.000000 0.222521
    outer loop
      vertex -2.260000 -4.600000 -0.000000
      vertex -2.287729 -15.100000 -0.121487
      vertex -2.260000 -15.100000 0.000000
    endloop
  endfacet
  facet normal 0.000000 1.000000 0.000000
    outer loop
      vertex -2.540000 -15.100000 0.000000
      vertex -2.287729 -15.100000 -0.121487
      vertex -2.365423 -15.100000 -0.218913
    endloop
  endfacet
  facet normal 0.000000 -1.000000 0.000000
    outer loop
      vertex -2.540000 -4.600000 -0.000000
      vertex -2.365423 -4.600000 -0.218913
      vertex -2.287729 -4.600000 -0.121487
    endloop
  endfacet
  facet normal -0.781831 0.000000 0.623490
    outer loop
      vertex -2.287729 -4.600000 -0.121487
      vertex -2.365423 -4.600000 -0.218913
      vertex -2.365423 -15.100000 -0.218913
    endloop
  endfacet
  facet normal -0.781831 0.000000 0.623490
    outer loop
      vertex -2.287729 -4.600000 -0.121487
      vertex -2.365423 -15.100000 -0.218913
      vertex -2.287729 -15.100000 -0.121487
    endloop
  endfacet
  facet normal 0.000000 1.000000 0.000000
    outer loop
      vertex -2.540000 -15.100000 0.000000
      vertex -2.365423 -15.100000 -0.218913
      vertex -2.477694 -15.100000 -0.272980
    endloop
  endfacet
  facet normal 0.000000 -1.000000 0.000000
    outer loop
      vertex -2.540000 -4.600000 -0.000000
      vertex -2.477694 -4.600000 -0.272980
      vertex -2.365423 -4.600000 -0.218913
    endloop
  endfacet
  facet normal -0.433884 0.000000 0.900969
    outer loop
      vertex -2.365423 -4.600000 -0.218913
      vertex -2.477694 -4.600000 -0.272980
      vertex -2.477694 -15.100000 -0.272980
    endloop
  endfacet
  facet normal -0.433884 0.000000 0.900969
    outer loop
      vertex -2.365423 -4.600000 -0.218913
      vertex -2.477694 -15.100000 -0.272980
      vertex -2.365423 -15.100000 -0.218913
    endloop
  endfacet
  facet normal 0.000000 1.000000 0.000000
    outer loop
      vertex -2.540000 -15.100000 0.000000
      vertex -2.477694 -15.100000 -0.272980
      vertex -2.602306 -15.100000 -0.272980
    endloop
  endfacet
  facet normal 0.000000 -1.000000 0.000000
    outer loop
      vertex -2.540000 -4.600000 -0.000000
      vertex -2.602306 -4.600000 -0.272980
      vertex -2.477694 -4.600000 -0.272980
    endloop
  endfacet
  facet normal 0.000000 0.000000 1.000000
    outer loop
      vertex -2.477694 -4.600000 -0.272980
      vertex -2.602306 -4.600000 -0.272980
      vertex -2.602306 -15.100000 -0.272980
    endloop
  endfacet
  facet normal 0.000000 0.000000 1.000000
    outer loop
      vertex -2.477694 -4.600000 -0.272980
      vertex -2.602306 -15.100000 -0.272980
      vertex -2.477694 -15.100000 -0.272980
    endloop
  endfacet
  facet normal 0.000000 1.000000 0.000000
    outer loop
      vertex -2.540000 -15.100000 0.000000
      vertex -2.602306 -15.100000 -0.272980
      vertex -2.714577 -15.100000 -0.218913
    endloop
  endfacet
  facet normal 0.000000 -1.000000 0.000000
    outer loop
      vertex -2.540000 -4.600000 -0.000000
      vertex -2.714577 -4.600000 -0.218913
      vertex -2.602306 -4.600000 -0.272980
    endloop
  endfacet
  facet normal 0.433884 0.000000 0.900969
    outer loop
      vertex -2.602306 -4.600000 -0.272980
      vertex -2.714577 -4.600000 -0.218913
      vertex -2.714577 -15.100000 -0.218913
    endloop
  endfacet
  facet normal 0.433884 0.000000 0.900969
    outer loop
      vertex -2.602306 -4.600000 -0.272980
      vertex -2.714577 -15.100000 -0.218913
      vertex -2.602306 -15.100000 -0.272980
    endloop
  endfacet
  facet normal 0.000000 1.000000 0.000000
    outer loop
      vertex -2.540000 -15.100000 0.000000
      vertex -2.714577 -15.100000 -0.218913
      vertex -2.792271 -15.100000 -0.121487
    endloop
  endfacet
  facet normal 0.000000 -1.000000 0.000000
    outer loop
      vertex -2.540000 -4.600000 -0.000000
      vertex -2.792271 -4.600000 -0.121487
      vertex -2.714577 -4.600000 -0.218913
    endloop
  endfacet
  facet normal 0.781831 0.000000 0.623490
    outer loop
      vertex -2.714577 -4.600000 -0.218913
      vertex -2.792271 -4.600000 -0.121487
      vertex -2.792271 -15.100000 -0.121487
    endloop
  endfacet
  facet normal 0.781831 0.000000 0.623490
    outer loop
      vertex -2.714577 -4.600000 -0.218913
      vertex -2.792271 -15.100000 -0.121487
      vertex -2.714577 -15.100000 -0.218913
    endloop
  endfacet
  facet normal 0.000000 1.000000 0.000000
    outer loop
      vertex -2.540000 -15.100000 0.000000
      vertex -2.792271 -15.100000 -0.121487
      vertex -2.820000 -15.100000 0.000000
    endloop
  endfacet
  facet normal 0.000000 -1.000000 0.000000
    outer loop
      vertex -2.540000 -4.600000 -0.000000
      vertex -2.820000 -4.600000 -0.000000
      vertex -2.792271 -4.600000 -0.121487
    endloop
  endfacet
  facet normal 0.974928 0.000000 0.222521
    outer loop
      vertex -2.792271 -4.600000 -0.121487
      vertex -2.820000 -4.600000 -0.000000
      vertex -2.820000 -15.100000 0.000000
    endloop
  endfacet
  facet normal 0.974928 0.000000 0.222521
    outer loop
      vertex -2.792271 -4.600000 -0.121487
      vertex -2.820000 -15.100000 0.000000
      vertex -2.792271 -15.100000 -0.121487
    endloop
  endfacet
  facet normal 0.000000 1.000000 0.000000
    outer loop
      vertex -2.540000 -15.100000 0.000000
      vertex -2.820000 -15.100000 0.000000
      vertex -2.792271 -15.100000 0.121487
    endloop
  endfacet
  facet normal 0.000000 -1.000000 0.000000
    outer loop
      vertex -2.540000 -4.600000 -0.000000
      vertex -2.792271 -4.600000 0.121487
      vertex -2.820000 -4.600000 -0.000000
    endloop
  endfacet
  facet normal 0.974928 -0.000000 -0.222521
    outer loop
      vertex -2.820000 -4.600000 -0.000000
      vertex -2.792271 -4.600000 0.121487
      vertex -2.792271 -15.100000 0.121487
    endloop
  endfacet
  facet normal 0.974928 -0.000000 -0.222521
    outer loop
      vertex -2.820000 -4.600000 -0.000000
      vertex -2.792271 -15.100000 0.121487
      vertex -2.820000 -15.100000 0.000000
    endloop
  endfacet
  facet normal 0.000000 1.000000 0.000000
    outer loop
      vertex -2.540000 -15.100000 0.000000
      vertex -2.792271 -15.100000 0.121487
      vertex -2.714577 -15.100000 0.218913
    endloop
  endfacet
  facet normal 0.000000 -1.000000 0.000000
    outer loop
      vertex -2.540000 -4.600000 -0.000000
      vertex -2.714577 -4.600000 0.218913
      vertex -2.792271 -4.600000 0.121487
    endloop
  endfacet
  facet normal 0.781831 -0.000000 -0.623490
    outer loop
      vertex -2.792271 -4.600000 0.121487
      vertex -2.714577 -4.600000 0.218913
      vertex -2.714577 -15.100000 0.218913
    endloop
  endfacet
  facet normal 0.781831 -0.000000 -0.623490
    outer loop
      vertex -2.792271 -4.600000 0.121487
      vertex -2.714577 -15.100000 0.218913
      vertex -2.792271 -15.100000 0.121487
    endloop
  endfacet
  facet normal 0.000000 1.000000 0.000000
    outer loop
      vertex -2.540000 -15.100000 0.000000
      vertex -2.714577 -15.100000 0.218913
      vertex -2.602306 -15.100000 0.272980
    endloop
  endfacet
  facet normal 0.000000 -1.000000 0.000000
    outer loop
      vertex -2.540000 -4.600000 -0.000000
      vertex -2.602306 -4.600000 0.272980
      vertex -2.714577 -4.600000 0.218913
    endloop
  endfacet
  facet normal 0.433884 -0.000000 -0.900969
    outer loop
      vertex -2.714577 -4.600000 0.218913
      vertex -2.602306 -4.600000 0.272980
      vertex -2.602306 -15.100000 0.272980
    endloop
  endfacet
  facet normal 0.433884 -0.000000 -0.900969
    outer loop
      vertex -2.714577 -4.600000 0.218913
      vertex -2.602306 -15.100000 0.272980
      vertex -2.714577 -15.100000 0.218913
    endloop
  endfacet
  facet normal 0.000000 1.000000 0.000000
    outer loop
      vertex -2.540000 -15.100000 0.000000
      vertex -2.602306 -15.100000 0.272980
      vertex -2.477694 -15.100000 0.272980
    endloop
  endfacet
  facet normal 0.000000 -1.000000 0.000000
    outer loop
      vertex -2.540000 -4.600000 -0.000000
      vertex -2.477694 -4.600000 0.272980
      vertex -2.602306 -4.600000 0.272980
    endloop
  endfacet
  facet normal 0.000000 -0.000000 -1.000000
    outer loop
      vertex -2.602306 -4.600000 0.272980
      vertex -2.477694 -4.600000 0.272980
      vertex -2.477694 -15.100000 0.272980
    endloop
  endfacet
  facet normal 0.000000 -0.000000 -1.000000
    outer loop
      vertex -2.602306 -4.600000 0.272980
      vertex -2.477694 -15.100000 0.272980
      vertex -2.602306 -15.100000 0.272980
    endloop
  endfacet
  facet normal 0.000000 1.000000 0.000000
    outer loop
      vertex -2.540000 -15.100000 0.000000
      vertex -2.477694 -15.100000 0.272980
      vertex -2.365423 -15.100000 0.218913
    endloop
  endfacet
  facet normal 0.000000 -1.000000 0.000000
    outer loop
      vertex -2.540000 -4.600000 -0.000000
      vertex -2.365423 -4.600000 0.218913
      vertex -2.477694 -4.600000 0.272980
    endloop
  endfacet
  facet normal -0.433884 -0.000000 -0.900969
    outer loop
      vertex -2.477694 -4.600000 0.272980
      vertex -2.365423 -4.600000 0.218913
      vertex -2.365423 -15.100000 0.218913
    endloop
  endfacet
  facet normal -0.433884 -0.000000 -0.900969
    outer loop
      vertex -2.477694 -4.600000 0.272980
      vertex -2.365423 -15.100000 0.218913
      vertex -2.477694 -15.100000 0.272980
    endloop
  endfacet
  facet normal 0.000000 1.000000 0.000000
    outer loop
      vertex -2.540000 -15.100000 0.000000
      vertex -2.365423 -15.100000 0.218913
      vertex -2.287729 -15.100000 0.121487
    endloop
  endfacet
  facet normal 0.000000 -1.000000 0.000000
    outer loop
      vertex -2.540000 -4.600000 -0.000000
      vertex -2.287729 -4.600000 0.121487
      vertex -2.365423 -4.600000 0.218913
    endloop
  endfacet
  facet normal -0.781831 -0.000000 -0.623490
    outer loop
      vertex -2.365423 -4.600000 0.218913
      vertex -2.287729 -4.600000 0.121487
      vertex -2.287729 -15.100000 0.121487
    endloop
  endfacet
  facet normal -0.781831 -0.000000 -0.623490
    outer loop
      vertex -2.365423 -4.600000 0.218913
      vertex -2.287729 -15.100000 0.121487
      vertex -2.365423 -15.100000 0.218913
    endloop
  endfacet
  facet normal 0.000000 1.000000 0.000000
    outer loop
      vertex -2.540000 -15.100000 0.000000
      vertex -2.287729 -15.100000 0.121487
      vertex -2.260000 -15.100000 0.000000
    endloop
  endfacet
  facet normal 0.000000 -1.000000 0.000000
    outer loop
      vertex -2.540000 -4.600000 -0.000000
      vertex -2.260000 -4.600000 -0.000000
      vertex -2.287729 -4.600000 0.121487
    endloop
  endfacet
  facet normal -0.974928 -0.000000 -0.222521
    outer loop
      vertex -2.287729 -4.600000 0.121487
      vertex -2.260000 -4.600000 -0.000000
      vertex -2.260000 -15.100000 0.000000
    endloop
  endfacet
  facet normal -0.974928 -0.000000 -0.222521
    outer loop
      vertex -2.287729 -4.600000 0.121487
      vertex -2.260000 -15.100000 0.000000
      vertex -2.287729 -15.100000 0.121487
    endloop
  endfacet
  facet normal 0.000000 1.000000 0.000000
    outer loop
      vertex 0.000000 -15.100000 0.000000
      vertex 0.280000 -15.100000 0.000000
      vertex 0.252271 -15.100000 -0.121487
    endloop
  endfacet
  facet normal 0.000000 -1.000000 0.000000
    outer loop
      vertex 0.000000 -4.600000 -0.000000
      vertex 0.252271 -4.600000 -0.121487
      vertex 0.280000 -4.600000 -0.000000
    endloop
  endfacet
  facet normal -0.974928 0.000000 0.222521
    outer loop
      vertex 0.280000 -4.600000 -0.000000
      vertex 0.252271 -4.600000 -0.121487
      vertex 0.252271 -15.100000 -0.121487
    endloop
  endfacet
  facet normal -0.974928 0.000000 0.222521
    outer loop
      vertex 0.280000 -4.600000 -0.000000
      vertex 0.252271 -15.100000 -0.121487
      vertex 0.280000 -15.100000 0.000000
    endloop
  endfacet
  facet normal 0.000000 1.000000 0.000000
    outer loop
      vertex 0.000000 -15.100000 0.000000
      vertex 0.252271 -15.100000 -0.121487
      vertex 0.174577 -15.100000 -0.218913
    endloop
  endfacet
  facet normal 0.000000 -1.000000 0.000000
    outer loop
      vertex 0.000000 -4.600000 -0.000000
      vertex 0.174577 -4.600000 -0.218913
      vertex 0.252271 -4.600000 -0.121487
    endloop
  endfacet
  facet normal -0.781831 0.000000 0.623490
    outer loop
      vertex 0.252271 -4.600000 -0.121487
      vertex 0.174577 -4.600000 -0.218913
      vertex 0.174577 -15.100000 -0.218913
    endloop
  endfacet
  facet normal -0.781831 0.000000 0.623490
    outer loop
      vertex 0.252271 -4.600000 -0.121487
      vertex 0.174577 -15.100000 -0.218913
      vertex 0.252271 -15.100000 -0.121487
    endloop
  endfacet
  facet normal 0.000000 1.000000 0.000000
    outer loop
      vertex 0.000000 -15.100000 0.000000
      vertex 0.174577 -15.100000 -0.218913
      vertex 0.062306 -15.100000 -0.272980
    endloop
  endfacet
  facet normal 0.000000 -1.000000 0.000000
    outer loop
      vertex 0.000000 -4.600000 -0.000000
      vertex 0.062306 -4.600000 -0.272980
      vertex 0.174577 -4.600000 -0.218913
    endloop
  endfacet
  facet normal -0.433884 0.000000 0.900969
    outer loop
      vertex 0.174577 -4.600000 -0.218913
      vertex 0.062306 -4.600000 -0.272980
      vertex 0.062306 -15.100000 -0.272980
    endloop
  endfacet
  facet normal -0.433884 0.000000 0.900969
    outer loop
      vertex 0.174577 -4.600000 -0.218913
      vertex 0.062306 -15.100000 -0.272980
      vertex 0.174577 -15.100000 -0.218913
    endloop
  endfacet
  facet normal 0.000000 1.000000 0.000000
    outer loop
      vertex 0.000000 -15.100000 0.000000
      vertex 0.062306 -15.100000 -0.272980
      vertex -0.062306 -15.100000 -0.272980
    endloop
  endfacet
  facet normal 0.000000 -1.000000 0.000000
    outer loop
      vertex 0.000000 -4.600000 -0.000000
      vertex -0.062306 -4.600000 -0.272980
      vertex 0.062306 -4.600000 -0.272980
    endloop
  endfacet
  facet normal 0.000000 0.000000 1.000000
    outer loop
      vertex 0.062306 -4.600000 -0.272980
      vertex -0.062306 -4.600000 -0.272980
      vertex -0.062306 -15.100000 -0.272980
    endloop
  endfacet
  facet normal 0.000000 0.000000 1.000000
    outer loop
      vertex 0.062306 -4.600000 -0.272980
      vertex -0.062306 -15.100000 -0.272980
      vertex 0.062306 -15.100000 -0.272980
    endloop
  endfacet
  facet normal 0.000000 1.000000 0.000000
    outer loop
      vertex 0.000000 -15.100000 0.000000
      vertex -0.062306 -15.100000 -0.272980
      vertex -0.174577 -15.100000 -0.218913
    endloop
  endfacet
  facet normal 0.000000 -1.000000 0.000000
    outer loop
      vertex 0.000000 -4.600000 -0.000000
      vertex -0.174577 -4.600000 -0.218913
      vertex -0.062306 -4.600000 -0.272980
    endloop
  endfacet
  facet normal 0.433884 0.000000 0.900969
    outer loop
      vertex -0.062306 -4.600000 -0.272980
      vertex -0.174577 -4.600000 -0.218913
      vertex -0.174577 -15.100000 -0.218913
    endloop
  endfacet
  facet normal 0.433884 0.000000 0.900969
    outer loop
      vertex -0.062306 -4.600000 -0.272980
      vertex -0.174577 -15.100000 -0.218913
      vertex -0.062306 -15.100000 -0.272980
    endloop
  endfacet
  facet normal 0.000000 1.000000 0.000000
    outer loop
      vertex 0.000000 -15.100000 0.000000
      vertex -0.174577 -15.100000 -0.218913
      vertex -0.252271 -15.100000 -0.121487
    endloop
  endfacet
  facet normal 0.000000 -1.000000 0.000000
    outer loop
      vertex 0.000000 -4.600000 -0.000000
      vertex -0.252271 -4.600000 -0.121487
      vertex -0.174577 -4.600000 -0.218913
    endloop
  endfacet
  facet normal 0.781831 0.000000 0.623490
    outer loop
      vertex -0.174577 -4.600000 -0.218913
      vertex -0.252271 -4.600000 -0.121487
      vertex -0.252271 -15.100000 -0.121487
    endloop
  endfacet
  facet normal 0.781831 0.000000 0.623490
    outer loop
      vertex -0.174577 -4.600000 -0.218913
      vertex -0.252271 -15.100000 -0.121487
      vertex -0.174577 -15.100000 -0.218913
    endloop
  endfacet
  facet normal 0.000000 1.000000 0.000000
    outer loop
      vertex 0.000000 -15.100000 0.000000
      vertex -0.252271 -15.100000 -0.121487
      vertex -0.280000 -15.100000 0.000000
    endloop
  endfacet
  facet normal 0.000000 -1.000000 0.000000
    outer loop
      vertex 0.000000 -4.600000 -0.000000
      vertex -0.280000 -4.600000 -0.000000
      vertex -0.252271 -4.600000 -0.121487
    endloop
  endfacet
  facet normal 0.974928 0.000000 0.222521
    outer loop
      vertex -0.252271 -4.600000 -0.121487
      vertex -0.280000 -4.600000 -0.000000
      vertex -0.280000 -15.100000 0.000000
    endloop
  endfacet
  facet normal 0.974928 0.000000 0.222521
    outer loop
      vertex -0.252271 -4.600000 -0.121487
      vertex -0.280000 -15.100000 0.000000
      vertex -0.252271 -15.100000 -0.121487
    endloop
  endfacet
  facet normal 0.000000 1.000000 0.000000
    outer loop
      vertex 0.000000 -15.100000 0.000000
      vertex -0.280000 -15.100000 0.000000
      vertex -0.252271 -15.100000 0.121487
    endloop
  endfacet
  facet normal 0.000000 -1.000000 0.000000
    outer loop
      vertex 0.000000 -4.600000 -0.000000
      vertex -0.252271 -4.600000 0.121487
      vertex -0.280000 -4.600000 -0.000000
    endloop
  endfacet
  facet normal 0.974928 -0.000000 -0.222521
    outer loop
      vertex -0.280000 -4.600000 -0.000000
      vertex -0.252271 -4.600000 0.121487
      vertex -0.252271 -15.100000 0.121487
    endloop
  endfacet
  facet normal 0.974928 -0.000000 -0.222521
    outer loop
      vertex -0.280000 -4.600000 -0.000000
      vertex -0.252271 -15.100000 0.121487
      vertex -0.280000 -15.100000 0.000000
    endloop
  endfacet
  facet normal 0.000000 1.000000 0.000000
    outer loop
      vertex 0.000000 -15.100000 0.000000
      vertex -0.252271 -15.100000 0.121487
      vertex -0.174577 -15.100000 0.218913
    endloop
  endfacet
  facet normal 0.000000 -1.000000 0.000000
    outer loop
      vertex 0.000000 -4.600000 -0.000000
      vertex -0.174577 -4.600000 0.218913
      vertex -0.252271 -4.600000 0.121487
    endloop
  endfacet
  facet normal 0.781831 -0.000000 -0.623490
    outer loop
      vertex -0.252271 -4.600000 0.121487
      vertex -0.174577 -4.600000 0.218913
      vertex -0.174577 -15.100000 0.218913
    endloop
  endfacet
  facet normal 0.781831 -0.000000 -0.623490
    outer loop
      vertex -0.252271 -4.600000 0.121487
      vertex -0.174577 -15.100000 0.218913
      vertex -0.252271 -15.100000 0.121487
    endloop
  endfacet
  facet normal 0.000000 1.000000 0.000000
    outer loop
      vertex 0.000000 -15.100000 0.000000
      vertex -0.174577 -15.100000 0.218913
      vertex -0.062306 -15.100000 0.272980
    endloop
  endfacet
  facet normal 0.000000 -1.000000 0.000000
    outer loop
      vertex 0.000000 -4.600000 -0.000000
      vertex -0.062306 -4.600000 0.272980
      vertex -0.174577 -4.600000 0.218913
    endloop
  endfacet
  facet normal 0.433884 -0.000000 -0.900969
    outer loop
      vertex -0.174577 -4.600000 0.218913
      vertex -0.062306 -4.600000 0.272980
      vertex -0.062306 -15.100000 0.272980
    endloop
  endfacet
  facet normal 0.433884 -0.000000 -0.900969
    outer loop
      vertex -0.174577 -4.600000 0.218913
      vertex -0.062306 -15.100000 0.272980
      vertex -0.174577 -15.100000 0.218913
    endloop
  endfacet
  facet normal 0.000000 1.000000 0.000000
    outer loop
      vertex 0.000000 -15.100000 0.000000
      vertex -0.062306 -15.100000 0.272980
      vertex 0.062306 -15.100000 0.272980
    endloop
  endfacet
  facet normal 0.000000 -1.000000 0.000000
    outer loop
      vertex 0.000000 -4.600000 -0.000000
      vertex 0.062306 -4.600000 0.272980
      vertex -0.062306 -4.600000 0.272980
    endloop
  endfacet
  facet normal 0.000000 -0.000000 -1.000000
    outer loop
      vertex -0.062306 -4.600000 0.272980
      vertex 0.062306 -4.600000 0.272980
      vertex 0.062306 -15.100000 0.272980
    endloop
  endfacet
  facet normal 0.000000 -0.000000 -1.000000
    outer loop
      vertex -0.062306 -4.600000 0.272980
      vertex 0.062306 -15.100000 0.272980
      vertex -0.062306 -15.100000 0.272980
    endloop
  endfacet
  facet normal 0.000000 1.000000 0.000000
    outer loop
      vertex 0.000000 -15.100000 0.000000
      vertex 0.062306 -15.100000 0.272980
      vertex 0.174577 -15.100000 0.218913
    endloop
  endfacet
  facet normal 0.000000 -1.000000 0.000000
    outer loop
      vertex 0.000000 -4.600000 -0.000000
      vertex 0.174577 -4.600000 0.218913
      vertex 0.062306 -4.600000 0.272980
    endloop
  endfacet
  facet normal -0.433884 -0.000000 -0.900969
    outer loop
      vertex 0.062306 -4.600000 0.272980
      vertex 0.174577 -4.600000 0.218913
      vertex 0.174577 -15.100000 0.218913
    endloop
  endfacet
  facet normal -0.433884 -0.000000 -0.900969
    outer loop
      vertex 0.062306 -4.600000 0.272980
      vertex 0.174577 -15.100000 0.218913
      vertex 0.062306 -15.100000 0.272980
    endloop
  endfacet
  facet normal 0.000000 1.000000 0.000000
    outer loop
      vertex 0.000000 -15.100000 0.000000
      vertex 0.174577 -15.100000 0.218913
      vertex 0.252271 -15.100000 0.121487
    endloop
  endfacet
  facet normal 0.000000 -1.000000 0.000000
    outer loop
      vertex 0.000000 -4.600000 -0.000000
      vertex 0.252271 -4.600000 0.121487
      vertex 0.174577 -4.600000 0.218913
    endloop
  endfacet
  facet normal -0.781831 -0.000000 -0.623490
    outer loop
      vertex 0.174577 -4.600000 0.218913
      vertex 0.252271 -4.600000 0.121487
      vertex 0.252271 -15.100000 0.121487
    endloop
  endfacet
  facet normal -0.781831 -0.000000 -0.623490
    outer loop
      vertex 0.174577 -4.600000 0.218913
      vertex 0.252271 -15.100000 0.121487
      vertex 0.174577 -15.100000 0.218913
    endloop
  endfacet
  facet normal 0.000000 1.000000 0.000000
    outer loop
      vertex 0.000000 -15.100000 0.000000
      vertex 0.252271 -15.100000 0.121487
      vertex 0.280000 -15.100000 0.000000
    endloop
  endfacet
  facet normal 0.000000 -1.000000 0.000000
    outer loop
      vertex 0.000000 -4.600000 -0.000000
      vertex 0.280000 -4.600000 -0.000000
      vertex 0.252271 -4.600000 0.121487
    endloop
  endfacet
  facet normal -0.974928 -0.000000 -0.222521
    outer loop
      vertex 0.252271 -4.600000 0.121487
      vertex 0.280000 -4.600000 -0.000000
      vertex 0.280000 -15.100000 0.000000
    endloop
  endfacet
  facet normal -0.974928 -0.000000 -0.222521
    outer loop
      vertex 0.252271 -4.600000 0.121487
      vertex 0.280000 -15.100000 0.000000
      vertex 0.252271 -15.100000 0.121487
    endloop
  endfacet
  facet normal 0.000000 1.000000 0.000000
    outer loop
      vertex 2.540000 -15.100000 0.000000
      vertex 2.820000 -15.100000 0.000000
      vertex 2.792271 -15.100000 -0.121487
    endloop
  endfacet
  facet normal 0.000000 -1.000000 0.000000
    outer loop
      vertex 2.540000 -4.600000 -0.000000
      vertex 2.792271 -4.600000 -0.121487
      vertex 2.820000 -4.600000 -0.000000
    endloop
  endfacet
  facet normal -0.974928 0.000000 0.222521
    outer loop
      vertex 2.820000 -4.600000 -0.000000
      vertex 2.792271 -4.600000 -0.121487
      vertex 2.792271 -15.100000 -0.121487
    endloop
  endfacet
  facet normal -0.974928 0.000000 0.222521
    outer loop
      vertex 2.820000 -4.600000 -0.000000
      vertex 2.792271 -15.100000 -0.121487
      vertex 2.820000 -15.100000 0.000000
    endloop
  endfacet
  facet normal 0.000000 1.000000 0.000000
    outer loop
      vertex 2.540000 -15.100000 0.000000
      vertex 2.792271 -15.100000 -0.121487
      vertex 2.714577 -15.100000 -0.218913
    endloop
  endfacet
  facet normal 0.000000 -1.000000 0.000000
    outer loop
      vertex 2.540000 -4.600000 -0.000000
      vertex 2.714577 -4.600000 -0.218913
      vertex 2.792271 -4.600000 -0.121487
    endloop
  endfacet
  facet normal -0.781831 0.000000 0.623490
    outer loop
      vertex 2.792271 -4.600000 -0.121487
      vertex 2.714577 -4.600000 -0.218913
      vertex 2.714577 -15.100000 -0.218913
    endloop
  endfacet
  facet normal -0.781831 0.000000 0.623490
    outer loop
      vertex 2.792271 -4.600000 -0.121487
      vertex 2.714577 -15.100000 -0.218913
      vertex 2.792271 -15.100000 -0.121487
    endloop
  endfacet
  facet normal 0.000000 1.000000 0.000000
    outer loop
      vertex 2.540000 -15.100000 0.000000
      vertex 2.714577 -15.100000 -0.218913
      vertex 2.602306 -15.100000 -0.272980
    endloop
  endfacet
  facet normal 0.000000 -1.000000 0.000000
    outer loop
      vertex 2.540000 -4.600000 -0.000000
      vertex 2.602306 -4.600000 -0.272980
      vertex 2.714577 -4.600000 -0.218913
    endloop
  endfacet
  facet normal -0.433884 0.000000 0.900969
    outer loop
      vertex 2.714577 -4.600000 -0.218913
      vertex 2.602306 -4.600000 -0.272980
      vertex 2.602306 -15.100000 -0.272980
    endloop
  endfacet
  facet normal -0.433884 0.000000 0.900969
    outer loop
      vertex 2.714577 -4.600000 -0.218913
      vertex 2.602306 -15.100000 -0.272980
      vertex 2.714577 -15.100000 -0.218913
    endloop
  endfacet
  facet normal 0.000000 1.000000 0.000000
    outer loop
      vertex 2.540000 -15.100000 0.000000
      vertex 2.602306 -15.100000 -0.272980
      vertex 2.477694 -15.100000 -0.272980
    endloop
  endfacet
  facet normal 0.000000 -1.000000 0.000000
    outer loop
      vertex 2.540000 -4.600000 -0.000000
      vertex 2.477694 -4.600000 -0.272980
      vertex 2.602306 -4.600000 -0.272980
    endloop
  endfacet
  facet normal 0.000000 0.000000 1.000000
    outer loop
      vertex 2.602306 -4.600000 -0.272980
      vertex 2.477694 -4.600000 -0.272980
      vertex 2.477694 -15.100000 -0.272980
    endloop
  endfacet
  facet normal 0.000000 0.000000 1.000000
    outer loop
      vertex 2.602306 -4.600000 -0.272980
      vertex 2.477694 -15.100000 -0.272980
      vertex 2.602306 -15.100000 -0.272980
    endloop
  endfacet
  facet normal 0.000000 1.000000 0.000000
    outer loop
      vertex 2.540000 -15.100000 0.000000
      vertex 2.477694 -15.100000 -0.272980
      vertex 2.365423 -15.100000 -0.218913
    endloop
  endfacet
  facet normal 0.000000 -1.000000 0.000000
    outer loop
      vertex 2.540000 -4.600000 -0.000000
      vertex 2.365423 -4.600000 -0.218913
      vertex 2.477694 -4.600000 -0.272980
    endloop
  endfacet
  facet normal 0.433884 0.000000 0.900969
    outer loop
      vertex 2.477694 -4.600000 -0.272980
      vertex 2.365423 -4.600000 -0.218913
      vertex 2.365423 -15.100000 -0.218913
    endloop
  endfacet
  facet normal 0.433884 0.000000 0.900969
    outer loop
      vertex 2.477694 -4.600000 -0.272980
      vertex 2.365423 -15.100000 -0.218913
      vertex 2.477694 -15.100000 -0.272980
    endloop
  endfacet
  facet normal 0.000000 1.000000 0.000000
    outer loop
      vertex 2.540000 -15.100000 0.000000
      vertex 2.365423 -15.100000 -0.218913
      vertex 2.287729 -15.100000 -0.121487
    endloop
  endfacet
  facet normal 0.000000 -1.000000 0.000000
    outer loop
      vertex 2.540000 -4.600000 -0.000000
      vertex 2.287729 -4.600000 -0.121487
      vertex 2.365423 -4.600000 -0.218913
    endloop
  endfacet
  facet normal 0.781831 0.000000 0.623490
    outer loop
      vertex 2.365423 -4.600000 -0.218913
      vertex 2.287729 -4.600000 -0.121487
      vertex 2.287729 -15.100000 -0.121487
    endloop
  endfacet
  facet normal 0.781831 0.000000 0.623490
    outer loop
      vertex 2.365423 -4.600000 -0.218913
      vertex 2.287729 -15.100000 -0.121487
      vertex 2.365423 -15.100000 -0.218913
    endloop
  endfacet
  facet normal 0.000000 1.000000 0.000000
    outer loop
      vertex 2.540000 -15.100000 0.000000
      vertex 2.287729 -15.100000 -0.121487
      vertex 2.260000 -15.100000 0.000000
    endloop
  endfacet
  facet normal 0.000000 -1.000000 0.000000
    outer loop
      vertex 2.540000 -4.600000 -0.000000
      vertex 2.260000 -4.600000 -0.000000
      vertex 2.287729 -4.600000 -0.121487
    endloop
  endfacet
  facet normal 0.974928 0.000000 0.222521
    outer loop
      vertex 2.287729 -4.600000 -0.121487
      vertex 2.260000 -4.600000 -0.000000
      vertex 2.260000 -15.100000 0.000000
    endloop
  endfacet
  facet normal 0.974928 0.000000 0.222521
    outer loop
      vertex 2.287729 -4.600000 -0.121487
      vertex 2.260000 -15.100000 0.000000
      vertex 2.287729 -15.100000 -0.121487
    endloop
  endfacet
  facet normal 0.000000 1.000000 0.000000
    outer loop
      vertex 2.540000 -15.100000 0.000000
      vertex 2.260000 -15.100000 0.000000
      vertex 2.287729 -15.100000 0.121487
    endloop
  endfacet
  facet normal 0.000000 -1.000000 0.000000
    outer loop
      vertex 2.540000 -4.600000 -0.000000
      vertex 2.287729 -4.600000 0.121487
      vertex 2.260000 -4.600000 -0.000000
    endloop
  endfacet
  facet normal 0.974928 -0.000000 -0.222521
    outer loop
      vertex 2.260000 -4.600000 -0.000000
      vertex 2.287729 -4.600000 0.121487
      vertex 2.287729 -15.100000 0.121487
    endloop
  endfacet
  facet normal 0.974928 -0.000000 -0.222521
    outer loop
      vertex 2.260000 -4.600000 -0.000000
      vertex 2.287729 -15.100000 0.121487
      vertex 2.260000 -15.100000 0.000000
    endloop
  endfacet
  facet normal 0.000000 1.000000 0.000000
    outer loop
      vertex 2.540000 -15.100000 0.000000
      vertex 2.287729 -15.100000 0.121487
      vertex 2.365423 -15.100000 0.218913
    endloop
  endfacet
  facet normal 0.000000 -1.000000 0.000000
    outer loop
      vertex 2.540000 -4.600000 -0.000000
      vertex 2.365423 -4.600000 0.218913
      vertex 2.287729 -4.600000 0.121487
    endloop
  endfacet
  facet normal 0.781831 -0.000000 -0.623490
    outer loop
      vertex 2.287729 -4.600000 0.121487
      vertex 2.365423 -4.600000 0.218913
      vertex 2.365423 -15.100000 0.218913
    endloop
  endfacet
  facet normal 0.781831 -0.000000 -0.623490
    outer loop
      vertex 2.287729 -4.600000 0.121487
      vertex 2.365423 -15.100000 0.218913
      vertex 2.287729 -15.100000 0.121487
    endloop
  endfacet
  facet normal 0.000000 1.000000 0.000000
    outer loop
      vertex 2.540000 -15.100000 0.000000
      vertex 2.365423 -15.100000 0.218913
      vertex 2.477694 -15.100000 0.272980
    endloop
  endfacet
  facet normal 0.000000 -1.000000 0.000000
    outer loop
      vertex 2.540000 -4.600000 -0.000000
      vertex 2.477694 -4.600000 0.272980
      vertex 2.365423 -4.600000 0.218913
    endloop
  endfacet
  facet normal 0.433884 -0.000000 -0.900969
    outer loop
      vertex 2.365423 -4.600000 0.218913
      vertex 2.477694 -4.600000 0.272980
      vertex 2.477694 -15.100000 0.272980
    endloop
  endfacet
  facet normal 0.433884 -0.000000 -0.900969
    outer loop
      vertex 2.365423 -4.600000 0.218913
      vertex 2.477694 -15.100000 0.272980
      vertex 2.365423 -15.100000 0.218913
    endloop
  endfacet
  facet normal 0.000000 1.000000 0.000000
    outer loop
      vertex 2.540000 -15.100000 0.000000
      vertex 2.477694 -15.100000 0.272980
      vertex 2.602306 -15.100000 0.272980
    endloop
  endfacet
  facet normal 0.000000 -1.000000 0.000000
    outer loop
      vertex 2.540000 -4.600000 -0.000000
      vertex 2.602306 -4.600000 0.272980
      vertex 2.477694 -4.600000 0.272980
    endloop
  endfacet
  facet normal 0.000000 -0.000000 -1.000000
    outer loop
      vertex 2.477694 -4.600000 0.272980
      vertex 2.602306 -4.600000 0.272980
      vertex 2.602306 -15.100000 0.272980
    endloop
  endfacet
  facet normal 0.000000 -0.000000 -1.000000
    outer loop
      vertex 2.477694 -4.600000 0.272980
      vertex 2.602306 -15.100000 0.272980
      vertex 2.477694 -15.100000 0.272980
    endloop
  endfacet
  facet normal 0.000000 1.000000 0.000000
    outer loop
      vertex 2.540000 -15.100000 0.000000
      vertex 2.602306 -15.100000 0.272980
      vertex 2.714577 -15.100000 0.218913
    endloop
  endfacet
  facet normal 0.000000 -1.000000 0.000000
    outer loop
      vertex 2.540000 -4.600000 -0.000000
      vertex 2.714577 -4.600000 0.218913
      vertex 2.602306 -4.600000 0.272980
    endloop
  endfacet
  facet normal -0.433884 -0.000000 -0.900969
    outer loop
      vertex 2.602306 -4.600000 0.272980
      vertex 2.714577 -4.600000 0.218913
      vertex 2.714577 -15.100000 0.218913
    endloop
  endfacet
  facet normal -0.433884 -0.000000 -0.900969
    outer loop
      vertex 2.602306 -4.600000 0.272980
      vertex 2.714577 -15.100000 0.218913
      vertex 2.602306 -15.100000 0.272980
    endloop
  endfacet
  facet normal 0.000000 1.000000 0.000000
    outer loop
      vertex 2.540000 -15.100000 0.000000
      vertex 2.714577 -15.100000 0.218913
      vertex 2.792271 -15.100000 0.121487
    endloop
  endfacet
  facet normal 0.000000 -1.000000 0.000000
    outer loop
      vertex 2.540000 -4.600000 -0.000000
      vertex 2.792271 -4.600000 0.121487
      vertex 2.714577 -4.600000 0.218913
    endloop
  endfacet
  facet normal -0.781831 -0.000000 -0.623490
    outer loop
      vertex 2.714577 -4.600000 0.218913
      vertex 2.792271 -4.600000 0.121487
      vertex 2.792271 -15.100000 0.121487
    endloop
  endfacet
  facet normal -0.781831 -0.000000 -0.623490
    outer loop
      vertex 2.714577 -4.600000 0.218913
      vertex 2.792271 -15.100000 0.121487
      vertex 2.714577 -15.100000 0.218913
    endloop
  endfacet
  facet normal 0.000000 1.000000 0.000000
    outer loop
      vertex 2.540000 -15.100000 0.000000
      vertex 2.792271 -15.100000 0.121487
      vertex 2.820000 -15.100000 0.000000
    endloop
  endfacet
  facet normal 0.000000 -1.000000 0.000000
    outer loop
      vertex 2.540000 -4.600000 -0.000000
      vertex 2.820000 -4.600000 -0.000000
      vertex 2.792271 -4.600000 0.121487
    endloop
  endfacet
  facet normal -0.974928 -0.000000 -0.222521
    outer loop
      vertex 2.792271 -4.600000 0.121487
      vertex 2.820000 -4.600000 -0.000000
      vertex 2.820000 -15.100000 0.000000
    endloop
  endfacet
  facet normal -0.974928 -0.000000 -0.222521
    outer loop
      vertex 2.792271 -4.600000 0.121487
      vertex 2.820000 -15.100000 0.000000
      vertex 2.792271 -15.100000 0.121487
    endloop
  endfacet
  facet normal 0.000000 -1.000000 0.000000
    outer loop
      vertex -5.000000 4.600000 -2.300000
      vertex 5.000000 4.600000 -2.300000
      vertex 5.000000 4.600000 2.300000
    endloop
  endfacet
  facet normal 0.000000 -1.000000 0.000000
    outer loop
      vertex -5.000000 4.600000 -2.300000
      vertex 5.000000 4.600000 2.300000
      vertex -5.000000 4.600000 2.300000
    endloop
  endfacet
  facet normal 0.000000 1.000000 0.000000
    outer loop
      vertex -5.000000 -4.600000 2.300000
      vertex 5.000000 -4.600000 2.300000
      vertex 5.000000 -4.600000 -2.300000
    endloop
  endfacet
  facet normal 0.000000 1.000000 0.000000
    outer loop
      vertex -5.000000 -4.600000 2.300000
      vertex 5.000000 -4.600000 -2.300000
      vertex -5.000000 -4.600000 -2.300000
    endloop
  endfacet
  facet normal 0.000000 0.000000 -1.000000
    outer loop
      vertex -5.000000 4.600000 2.300000
      vertex 5.000000 4.600000 2.300000
      vertex 5.000000 -4.600000 2.300000
    endloop
  endfacet
  facet normal 0.000000 0.000000 -1.000000
    outer loop
      vertex -5.000000 4.600000 2.300000
      vertex 5.000000 -4.600000 2.300000
      vertex -5.000000 -4.600000 2.300000
    endloop
  endfacet
  facet normal 0.000000 0.000000 1.000000
    outer loop
      vertex 5.000000 -4.600000 -2.300000
      vertex 5.000000 4.600000 -2.300000
      vertex -5.000000 4.600000 -2.300000
    endloop
  endfacet
  facet normal 0.000000 0.000000 1.000000
    outer loop
      vertex 5.000000 -4.600000 -2.300000
      vertex -5.000000 4.600000 -2.300000
      vertex -5.000000 -4.600000 -2.300000
    endloop
  endfacet
  facet normal -1.000000 0.000000 0.000000
    outer loop
      vertex 5.000000 -4.600000 2.300000
      vertex 5.000000 4.600000 2.300000
      vertex 5.000000 4.600000 -2.300000
    endloop
  endfacet
  facet normal -1.000000 0.000000 0.000000
    outer loop
      vertex 5.000000 -4.600000 2.300000
      vertex 5.000000 4.600000 -2.300000
      vertex 5.000000 -4.600000 -2.300000
    endloop
  endfacet
  facet normal 1.000000 0.000000 0.000000
    outer loop
      vertex -5.000000 -4.600000 -2.300000
      vertex -5.000000 4.600000 -2.300000
      vertex -5.000000 4.600000 2.300000
    endloop
  endfacet
  facet normal 1.000000 0.000000 0.000000
    outer loop
      vertex -5.000000 -4.600000 -2.300000
      vertex -5.000000 4.600000 2.300000
      vertex -5.000000 -4.600000 2.300000
    endloop
  endfacet
  facet normal 0.000000 -1.000000 0.000000
    outer loop
      vertex -5.000000 7.200000 -0.400000
      vertex 5.000000 7.200000 -0.400000
      vertex 5.000000 7.200000 0.400000
    endloop
  endfacet
  facet normal 0.000000 -1.000000 0.000000
    outer loop
      vertex -5.000000 7.200000 -0.400000
      vertex 5.000000 7.200000 0.400000
      vertex -5.000000 7.200000 0.400000
    endloop
  endfacet
  facet normal 0.000000 1.000000 0.000000
    outer loop
      vertex -5.000000 4.200000 0.400000
      vertex 5.000000 4.200000 0.400000
      vertex 5.000000 4.200000 -0.400000
    endloop
  endfacet
  facet normal 0.000000 1.000000 0.000000
    outer loop
      vertex -5.000000 4.200000 0.400000
      vertex 5.000000 4.200000 -0.400000
      vertex -5.000000 4.200000 -0.400000
    endloop
  endfacet
  facet normal 0.000000 0.000000 -1.000000
    outer loop
      vertex -5.000000 7.200000 0.400000
      vertex 5.000000 7.200000 0.400000
      vertex 5.000000 4.200000 0.400000
    endloop
  endfacet
  facet normal 0.000000 0.000000 -1.000000
    outer loop
      vertex -5.000000 7.200000 0.400000
      vertex 5.000000 4.200000 0.400000
      vertex -5.000000 4.200000 0.400000
    endloop
  endfacet
  facet normal 0.000000 0.000000 1.000000
    outer loop
      vertex 5.000000 4.200000 -0.400000
      vertex 5.000000 7.200000 -0.400000
      vertex -5.000000 7.200000 -0.400000
    endloop
  endfacet
  facet normal 0.000000 0.000000 1.000000
    outer loop
      vertex 5.000000 4.200000 -0.400000
      vertex -5.000000 7.200000 -0.400000
      vertex -5.000000 4.200000 -0.400000
    endloop
  endfacet
  facet normal -1.000000 0.000000 0.000000
    outer loop
      vertex 5.000000 4.200000 0.400000
      vertex 5.000000 7.200000 0.400000
      vertex 5.000000 7.200000 -0.400000
    endloop
  endfacet
  facet normal -1.000000 0.000000 0.000000
    outer loop
      vertex 5.000000 4.200000 0.400000
      vertex 5.000000 7.200000 -0.400000
      vertex 5.000000 4.200000 -0.400000
    endloop
  endfacet
  facet normal 1.000000 0.000000 0.000000
    outer loop
      vertex -5.000000 4.200000 -0.400000
      vertex -5.000000 7.200000 -0.400000
      vertex -5.000000 7.200000 0.400000
    endloop
  endfacet
  facet normal 1.000000 0.000000 0.000000
    outer loop
      vertex -5.000000 4.200000 -0.400000
      vertex -5.000000 7.200000 0.400000
      vertex -5.000000 4.200000 0.400000
    endloop
  endfacet
  facet normal 0.000000 0.000000 -1.000000
    outer loop
      vertex 0.000000 6.000000 0.550000
      vertex 1.600000 6.000000 0.550000
      vertex 1.545481 5.585890 0.550000
    endloop
  endfacet
  facet normal 0.000000 0.000000 1.000000
    outer loop
      vertex 0.000000 6.000000 -0.350000
      vertex 1.545481 5.585890 -0.350000
      vertex 1.600000 6.000000 -0.350000
    endloop
  endfacet
  facet normal -0.991445 0.130526 0.000000
    outer loop
      vertex 1.600000 6.000000 -0.350000
      vertex 1.545481 5.585890 -0.350000
      vertex 1.545481 5.585890 0.550000
    endloop
  endfacet
  facet normal -0.991445 0.130526 0.000000
    outer loop
      vertex 1.600000 6.000000 -0.350000
      vertex 1.545481 5.585890 0.550000
      vertex 1.600000 6.000000 0.550000
    endloop
  endfacet
  facet normal 0.000000 0.000000 -1.000000
    outer loop
      vertex 0.000000 6.000000 0.550000
      vertex 1.545481 5.585890 0.550000
      vertex 1.385641 5.200000 0.550000
    endloop
  endfacet
  facet normal 0.000000 0.000000 1.000000
    outer loop
      vertex 0.000000 6.000000 -0.350000
      vertex 1.385641 5.200000 -0.350000
      vertex 1.545481 5.585890 -0.350000
    endloop
  endfacet
  facet normal -0.923880 0.382683 0.000000
    outer loop
      vertex 1.545481 5.585890 -0.350000
      vertex 1.385641 5.200000 -0.350000
      vertex 1.385641 5.200000 0.550000
    endloop
  endfacet
  facet normal -0.923880 0.382683 0.000000
    outer loop
      vertex 1.545481 5.585890 -0.350000
      vertex 1.385641 5.200000 0.550000
      vertex 1.545481 5.585890 0.550000
    endloop
  endfacet
  facet normal 0.000000 0.000000 -1.000000
    outer loop
      vertex 0.000000 6.000000 0.550000
      vertex 1.385641 5.200000 0.550000
      vertex 1.131371 4.868629 0.550000
    endloop
  endfacet
  facet normal 0.000000 0.000000 1.000000
    outer loop
      vertex 0.000000 6.000000 -0.350000
      vertex 1.131371 4.868629 -0.350000
      vertex 1.385641 5.200000 -0.350000
    endloop
  endfacet
  facet normal -0.793353 0.608761 0.000000
    outer loop
      vertex 1.385641 5.200000 -0.350000
      vertex 1.131371 4.868629 -0.350000
      vertex 1.131371 4.868629 0.550000
    endloop
  endfacet
  facet normal -0.793353 0.608761 0.000000
    outer loop
      vertex 1.385641 5.200000 -0.350000
      vertex 1.131371 4.868629 0.550000
      vertex 1.385641 5.200000 0.550000
    endloop
  endfacet
  facet normal -0.000000 -0.000000 -1.000000
    outer loop
      vertex 0.000000 6.000000 0.550000
      vertex 1.131371 4.868629 0.550000
      vertex 0.800000 4.614359 0.550000
    endloop
  endfacet
  facet normal 0.000000 0.000000 1.000000
    outer loop
      vertex 0.000000 6.000000 -0.350000
      vertex 0.800000 4.614359 -0.350000
      vertex 1.131371 4.868629 -0.350000
    endloop
  endfacet
  facet normal -0.608761 0.793353 0.000000
    outer loop
      vertex 1.131371 4.868629 -0.350000
      vertex 0.800000 4.614359 -0.350000
      vertex 0.800000 4.614359 0.550000
    endloop
  endfacet
  facet normal -0.608761 0.793353 0.000000
    outer loop
      vertex 1.131371 4.868629 -0.350000
      vertex 0.800000 4.614359 0.550000
      vertex 1.131371 4.868629 0.550000
    endloop
  endfacet
  facet normal 0.000000 -0.000000 -1.000000
    outer loop
      vertex 0.000000 6.000000 0.550000
      vertex 0.800000 4.614359 0.550000
      vertex 0.414110 4.454519 0.550000
    endloop
  endfacet
  facet normal -0.000000 0.000000 1.000000
    outer loop
      vertex 0.000000 6.000000 -0.350000
      vertex 0.414110 4.454519 -0.350000
      vertex 0.800000 4.614359 -0.350000
    endloop
  endfacet
  facet normal -0.382683 0.923880 0.000000
    outer loop
      vertex 0.800000 4.614359 -0.350000
      vertex 0.414110 4.454519 -0.350000
      vertex 0.414110 4.454519 0.550000
    endloop
  endfacet
  facet normal -0.382683 0.923880 0.000000
    outer loop
      vertex 0.800000 4.614359 -0.350000
      vertex 0.414110 4.454519 0.550000
      vertex 0.800000 4.614359 0.550000
    endloop
  endfacet
  facet normal 0.000000 -0.000000 -1.000000
    outer loop
      vertex 0.000000 6.000000 0.550000
      vertex 0.414110 4.454519 0.550000
      vertex 0.000000 4.400000 0.550000
    endloop
  endfacet
  facet normal -0.000000 0.000000 1.000000
    outer loop
      vertex 0.000000 6.000000 -0.350000
      vertex 0.000000 4.400000 -0.350000
      vertex 0.414110 4.454519 -0.350000
    endloop
  endfacet
  facet normal -0.130526 0.991445 0.000000
    outer loop
      vertex 0.414110 4.454519 -0.350000
      vertex 0.000000 4.400000 -0.350000
      vertex 0.000000 4.400000 0.550000
    endloop
  endfacet
  facet normal -0.130526 0.991445 0.000000
    outer loop
      vertex 0.414110 4.454519 -0.350000
      vertex 0.000000 4.400000 0.550000
      vertex 0.414110 4.454519 0.550000
    endloop
  endfacet
  facet normal -0.000000 -0.000000 -1.000000
    outer loop
      vertex 0.000000 6.000000 0.550000
      vertex 0.000000 4.400000 0.550000
      vertex -0.414110 4.454519 0.550000
    endloop
  endfacet
  facet normal 0.000000 0.000000 1.000000
    outer loop
      vertex 0.000000 6.000000 -0.350000
      vertex -0.414110 4.454519 -0.350000
      vertex 0.000000 4.400000 -0.350000
    endloop
  endfacet
  facet normal 0.130526 0.991445 0.000000
    outer loop
      vertex 0.000000 4.400000 -0.350000
      vertex -0.414110 4.454519 -0.350000
      vertex -0.414110 4.454519 0.550000
    endloop
  endfacet
  facet normal 0.130526 0.991445 0.000000
    outer loop
      vertex 0.000000 4.400000 -0.350000
      vertex -0.414110 4.454519 0.550000
      vertex 0.000000 4.400000 0.550000
    endloop
  endfacet
  facet normal -0.000000 -0.000000 -1.000000
    outer loop
      vertex 0.000000 6.000000 0.550000
      vertex -0.414110 4.454519 0.550000
      vertex -0.800000 4.614359 0.550000
    endloop
  endfacet
  facet normal 0.000000 0.000000 1.000000
    outer loop
      vertex 0.000000 6.000000 -0.350000
      vertex -0.800000 4.614359 -0.350000
      vertex -0.414110 4.454519 -0.350000
    endloop
  endfacet
  facet normal 0.382683 0.923880 0.000000
    outer loop
      vertex -0.414110 4.454519 -0.350000
      vertex -0.800000 4.614359 -0.350000
      vertex -0.800000 4.614359 0.550000
    endloop
  endfacet
  facet normal 0.382683 0.923880 0.000000
    outer loop
      vertex -0.414110 4.454519 -0.350000
      vertex -0.800000 4.614359 0.550000
      vertex -0.414110 4.454519 0.550000
    endloop
  endfacet
  facet normal 0.000000 -0.000000 -1.000000
    outer loop
      vertex 0.000000 6.000000 0.550000
      vertex -0.800000 4.614359 0.550000
      vertex -1.131371 4.868629 0.550000
    endloop
  endfacet
  facet normal -0.000000 0.000000 1.000000
    outer loop
      vertex 0.000000 6.000000 -0.350000
      vertex -1.131371 4.868629 -0.350000
      vertex -0.800000 4.614359 -0.350000
    endloop
  endfacet
  facet normal 0.608761 0.793353 0.000000
    outer loop
      vertex -0.800000 4.614359 -0.350000
      vertex -1.131371 4.868629 -0.350000
      vertex -1.131371 4.868629 0.550000
    endloop
  endfacet
  facet normal 0.608761 0.793353 0.000000
    outer loop
      vertex -0.800000 4.614359 -0.350000
      vertex -1.131371 4.868629 0.550000
      vertex -0.800000 4.614359 0.550000
    endloop
  endfacet
  facet normal 0.000000 0.000000 -1.000000
    outer loop
      vertex 0.000000 6.000000 0.550000
      vertex -1.131371 4.868629 0.550000
      vertex -1.385641 5.200000 0.550000
    endloop
  endfacet
  facet normal 0.000000 0.000000 1.000000
    outer loop
      vertex 0.000000 6.000000 -0.350000
      vertex -1.385641 5.200000 -0.350000
      vertex -1.131371 4.868629 -0.350000
    endloop
  endfacet
  facet normal 0.793353 0.608761 0.000000
    outer loop
      vertex -1.131371 4.868629 -0.350000
      vertex -1.385641 5.200000 -0.350000
      vertex -1.385641 5.200000 0.550000
    endloop
  endfacet
  facet normal 0.793353 0.608761 0.000000
    outer loop
      vertex -1.131371 4.868629 -0.350000
      vertex -1.385641 5.200000 0.550000
      vertex -1.131371 4.868629 0.550000
    endloop
  endfacet
  facet normal 0.000000 0.000000 -1.000000
    outer loop
      vertex 0.000000 6.000000 0.550000
      vertex -1.385641 5.200000 0.550000
      vertex -1.545481 5.585890 0.550000
    endloop
  endfacet
  facet normal 0.000000 0.000000 1.000000
    outer loop
      vertex 0.000000 6.000000 -0.350000
      vertex -1.545481 5.585890 -0.350000
      vertex -1.385641 5.200000 -0.350000
    endloop
  endfacet
  facet normal 0.923880 0.382683 0.000000
    outer loop
      vertex -1.385641 5.200000 -0.350000
      vertex -1.545481 5.585890 -0.350000
      vertex -1.545481 5.585890 0.550000
    endloop
  endfacet
  facet normal 0.923880 0.382683 0.000000
    outer loop
      vertex -1.385641 5.200000 -0.350000
      vertex -1.545481 5.585890 0.550000
      vertex -1.385641 5.200000 0.550000
    endloop
  endfacet
  facet normal 0.000000 0.000000 -1.000000
    outer loop
      vertex 0.000000 6.000000 0.550000
      vertex -1.545481 5.585890 0.550000
      vertex -1.600000 6.000000 0.550000
    endloop
  endfacet
  facet normal 0.000000 0.000000 1.000000
    outer loop
      vertex 0.000000 6.000000 -0.350000
      vertex -1.600000 6.000000 -0.350000
      vertex -1.545481 5.585890 -0.350000
    endloop
  endfacet
  facet normal 0.991445 0.130526 0.000000
    outer loop
      vertex -1.545481 5.585890 -0.350000
      vertex -1.600000 6.000000 -0.350000
      vertex -1.600000 6.000000 0.550000
    endloop
  endfacet
  facet normal 0.991445 0.130526 0.000000
    outer loop
      vertex -1.545481 5.585890 -0.350000
      vertex -1.600000 6.000000 0.550000
      vertex -1.545481 5.585890 0.550000
    endloop
  endfacet
  facet normal 0.000000 0.000000 -1.000000
    outer loop
      vertex 0.000000 6.000000 0.550000
      vertex -1.600000 6.000000 0.550000
      vertex -1.545481 6.414110 0.550000
    endloop
  endfacet
  facet normal 0.000000 0.000000 1.000000
    outer loop
      vertex 0.000000 6.000000 -0.350000
      vertex -1.545481 6.414110 -0.350000
      vertex -1.600000 6.000000 -0.350000
    endloop
  endfacet
  facet normal 0.991445 -0.130526 0.000000
    outer loop
      vertex -1.600000 6.000000 -0.350000
      vertex -1.545481 6.414110 -0.350000
      vertex -1.545481 6.414110 0.550000
    endloop
  endfacet
  facet normal 0.991445 -0.130526 0.000000
    outer loop
      vertex -1.600000 6.000000 -0.350000
      vertex -1.545481 6.414110 0.550000
      vertex -1.600000 6.000000 0.550000
    endloop
  endfacet
  facet normal -0.000000 -0.000000 -1.000000
    outer loop
      vertex 0.000000 6.000000 0.550000
      vertex -1.545481 6.414110 0.550000
      vertex -1.385641 6.800000 0.550000
    endloop
  endfacet
  facet normal 0.000000 0.000000 1.000000
    outer loop
      vertex 0.000000 6.000000 -0.350000
      vertex -1.385641 6.800000 -0.350000
      vertex -1.545481 6.414110 -0.350000
    endloop
  endfacet
  facet normal 0.923880 -0.382683 0.000000
    outer loop
      vertex -1.545481 6.414110 -0.350000
      vertex -1.385641 6.800000 -0.350000
      vertex -1.385641 6.800000 0.550000
    endloop
  endfacet
  facet normal 0.923880 -0.382683 0.000000
    outer loop
      vertex -1.545481 6.414110 -0.350000
      vertex -1.385641 6.800000 0.550000
      vertex -1.545481 6.414110 0.550000
    endloop
  endfacet
  facet normal 0.000000 -0.000000 -1.000000
    outer loop
      vertex 0.000000 6.000000 0.550000
      vertex -1.385641 6.800000 0.550000
      vertex -1.131371 7.131371 0.550000
    endloop
  endfacet
  facet normal -0.000000 0.000000 1.000000
    outer loop
      vertex 0.000000 6.000000 -0.350000
      vertex -1.131371 7.131371 -0.350000
      vertex -1.385641 6.800000 -0.350000
    endloop
  endfacet
  facet normal 0.793353 -0.608761 0.000000
    outer loop
      vertex -1.385641 6.800000 -0.350000
      vertex -1.131371 7.131371 -0.350000
      vertex -1.131371 7.131371 0.550000
    endloop
  endfacet
  facet normal 0.793353 -0.608761 0.000000
    outer loop
      vertex -1.385641 6.800000 -0.350000
      vertex -1.131371 7.131371 0.550000
      vertex -1.385641 6.800000 0.550000
    endloop
  endfacet
  facet normal 0.000000 -0.000000 -1.000000
    outer loop
      vertex 0.000000 6.000000 0.550000
      vertex -1.131371 7.131371 0.550000
      vertex -0.800000 7.385641 0.550000
    endloop
  endfacet
  facet normal -0.000000 0.000000 1.000000
    outer loop
      vertex 0.000000 6.000000 -0.350000
      vertex -0.800000 7.385641 -0.350000
      vertex -1.131371 7.131371 -0.350000
    endloop
  endfacet
  facet normal 0.608761 -0.793353 0.000000
    outer loop
      vertex -1.131371 7.131371 -0.350000
      vertex -0.800000 7.385641 -0.350000
      vertex -0.800000 7.385641 0.550000
    endloop
  endfacet
  facet normal 0.608761 -0.793353 0.000000
    outer loop
      vertex -1.131371 7.131371 -0.350000
      vertex -0.800000 7.385641 0.550000
      vertex -1.131371 7.131371 0.550000
    endloop
  endfacet
  facet normal 0.000000 -0.000000 -1.000000
    outer loop
      vertex 0.000000 6.000000 0.550000
      vertex -0.800000 7.385641 0.550000
      vertex -0.414110 7.545481 0.550000
    endloop
  endfacet
  facet normal -0.000000 0.000000 1.000000
    outer loop
      vertex 0.000000 6.000000 -0.350000
      vertex -0.414110 7.545481 -0.350000
      vertex -0.800000 7.385641 -0.350000
    endloop
  endfacet
  facet normal 0.382683 -0.923880 0.000000
    outer loop
      vertex -0.800000 7.385641 -0.350000
      vertex -0.414110 7.545481 -0.350000
      vertex -0.414110 7.545481 0.550000
    endloop
  endfacet
  facet normal 0.382683 -0.923880 0.000000
    outer loop
      vertex -0.800000 7.385641 -0.350000
      vertex -0.414110 7.545481 0.550000
      vertex -0.800000 7.385641 0.550000
    endloop
  endfacet
  facet normal 0.000000 -0.000000 -1.000000
    outer loop
      vertex 0.000000 6.000000 0.550000
      vertex -0.414110 7.545481 0.550000
      vertex -0.000000 7.600000 0.550000
    endloop
  endfacet
  facet normal -0.000000 0.000000 1.000000
    outer loop
      vertex 0.000000 6.000000 -0.350000
      vertex -0.000000 7.600000 -0.350000
      vertex -0.414110 7.545481 -0.350000
    endloop
  endfacet
  facet normal 0.130526 -0.991445 0.000000
    outer loop
      vertex -0.414110 7.545481 -0.350000
      vertex -0.000000 7.600000 -0.350000
      vertex -0.000000 7.600000 0.550000
    endloop
  endfacet
  facet normal 0.130526 -0.991445 0.000000
    outer loop
      vertex -0.414110 7.545481 -0.350000
      vertex -0.000000 7.600000 0.550000
      vertex -0.414110 7.545481 0.550000
    endloop
  endfacet
  facet normal -0.000000 -0.000000 -1.000000
    outer loop
      vertex 0.000000 6.000000 0.550000
      vertex -0.000000 7.600000 0.550000
      vertex 0.414110 7.545481 0.550000
    endloop
  endfacet
  facet normal 0.000000 0.000000 1.000000
    outer loop
      vertex 0.000000 6.000000 -0.350000
      vertex 0.414110 7.545481 -0.350000
      vertex -0.000000 7.600000 -0.350000
    endloop
  endfacet
  facet normal -0.130526 -0.991445 0.000000
    outer loop
      vertex -0.000000 7.600000 -0.350000
      vertex 0.414110 7.545481 -0.350000
      vertex 0.414110 7.545481 0.550000
    endloop
  endfacet
  facet normal -0.130526 -0.991445 0.000000
    outer loop
      vertex -0.000000 7.600000 -0.350000
      vertex 0.414110 7.545481 0.550000
      vertex -0.000000 7.600000 0.550000
    endloop
  endfacet
  facet normal -0.000000 -0.000000 -1.000000
    outer loop
      vertex 0.000000 6.000000 0.550000
      vertex 0.414110 7.545481 0.550000
      vertex 0.800000 7.385641 0.550000
    endloop
  endfacet
  facet normal 0.000000 0.000000 1.000000
    outer loop
      vertex 0.000000 6.000000 -0.350000
      vertex 0.800000 7.385641 -0.350000
      vertex 0.414110 7.545481 -0.350000
    endloop
  endfacet
  facet normal -0.382683 -0.923880 0.000000
    outer loop
      vertex 0.414110 7.545481 -0.350000
      vertex 0.800000 7.385641 -0.350000
      vertex 0.800000 7.385641 0.550000
    endloop
  endfacet
  facet normal -0.382683 -0.923880 0.000000
    outer loop
      vertex 0.414110 7.545481 -0.350000
      vertex 0.800000 7.385641 0.550000
      vertex 0.414110 7.545481 0.550000
    endloop
  endfacet
  facet normal -0.000000 -0.000000 -1.000000
    outer loop
      vertex 0.000000 6.000000 0.550000
      vertex 0.800000 7.385641 0.550000
      vertex 1.131371 7.131371 0.550000
    endloop
  endfacet
  facet normal 0.000000 0.000000 1.000000
    outer loop
      vertex 0.000000 6.000000 -0.350000
      vertex 1.131371 7.131371 -0.350000
      vertex 0.800000 7.385641 -0.350000
    endloop
  endfacet
  facet normal -0.608761 -0.793353 0.000000
    outer loop
      vertex 0.800000 7.385641 -0.350000
      vertex 1.131371 7.131371 -0.350000
      vertex 1.131371 7.131371 0.550000
    endloop
  endfacet
  facet normal -0.608761 -0.793353 0.000000
    outer loop
      vertex 0.800000 7.385641 -0.350000
      vertex 1.131371 7.131371 0.550000
      vertex 0.800000 7.385641 0.550000
    endloop
  endfacet
  facet normal -0.000000 -0.000000 -1.000000
    outer loop
      vertex 0.000000 6.000000 0.550000
      vertex 1.131371 7.131371 0.550000
      vertex 1.385641 6.800000 0.550000
    endloop
  endfacet
  facet normal 0.000000 0.000000 1.000000
    outer loop
      vertex 0.000000 6.000000 -0.350000
      vertex 1.385641 6.800000 -0.350000
      vertex 1.131371 7.131371 -0.350000
    endloop
  endfacet
  facet normal -0.793353 -0.608761 0.000000
    outer loop
      vertex 1.131371 7.131371 -0.350000
      vertex 1.385641 6.800000 -0.350000
      vertex 1.385641 6.800000 0.550000
    endloop
  endfacet
  facet normal -0.793353 -0.608761 0.000000
    outer loop
      vertex 1.131371 7.131371 -0.350000
      vertex 1.385641 6.800000 0.550000
      vertex 1.131371 7.131371 0.550000
    endloop
  endfacet
  facet normal 0.000000 -0.000000 -1.000000
    outer loop
      vertex 0.000000 6.000000 0.550000
      vertex 1.385641 6.800000 0.550000
      vertex 1.545481 6.414110 0.550000
    endloop
  endfacet
  facet normal -0.000000 0.000000 1.000000
    outer loop
      vertex 0.000000 6.000000 -0.350000
      vertex 1.545481 6.414110 -0.350000
      vertex 1.385641 6.800000 -0.350000
    endloop
  endfacet
  facet normal -0.923880 -0.382683 0.000000
    outer loop
      vertex 1.385641 6.800000 -0.350000
      vertex 1.545481 6.414110 -0.350000
      vertex 1.545481 6.414110 0.550000
    endloop
  endfacet
  facet normal -0.923880 -0.382683 0.000000
    outer loop
      vertex 1.385641 6.800000 -0.350000
      vertex 1.545481 6.414110 0.550000
      vertex 1.385641 6.800000 0.550000
    endloop
  endfacet
  facet normal 0.000000 0.000000 -1.000000
    outer loop
      vertex 0.000000 6.000000 0.550000
      vertex 1.545481 6.414110 0.550000
      vertex 1.600000 6.000000 0.550000
    endloop
  endfacet
  facet normal 0.000000 0.000000 1.000000
    outer loop
      vertex 0.000000 6.000000 -0.350000
      vertex 1.600000 6.000000 -0.350000
      vertex 1.545481 6.414110 -0.350000
    endloop
  endfacet
  facet normal -0.991445 -0.130526 0.000000
    outer loop
      vertex 1.545481 6.414110 -0.350000
      vertex 1.600000 6.000000 -0.350000
      vertex 1.600000 6.000000 0.550000
    endloop
  endfacet
  facet normal -0.991445 -0.130526 0.000000
    outer loop
      vertex 1.545481 6.414110 -0.350000
      vertex 1.600000 6.000000 0.550000
      vertex 1.545481 6.414110 0.550000
    endloop
  endfacet
endsolid regulator_lm7805