solid ds18b20_temperature
  facet normal 0.000000 -1.000000 0.000000
    outer loop
      vertex -2.150000 5.200000 -2.150000
      vertex 2.150000 5.200000 -2.150000
      vertex 2.150000 5.200000 2.150000
    endloop
  endfacet
  facet normal 0.000000 -1.000000 0.000000
    outer loop
      vertex -2.150000 5.200000 -2.150000
      vertex 2.150000 5.200000 2.150000
      vertex -2.150000 5.200000 2.150000
    endloop
  endfacet
  facet normal 0.000000 1.000000 0.000000
    outer loop
      vertex -2.150000 0.000000 2.150000
      vertex 2.150000 0.000000 2.150000
      vertex 2.150000 0.000000 -2.150000
    endloop
  endfacet
  facet normal 0.000000 1.000000 0.000000
    outer loop
      vertex -2.150000 0.000000 2.150000
      vertex 2.150000 0.000000 -2.150000
      vertex -2.150000 0.000000 -2.150000
    endloop
  endfacet
  facet normal 0.000000 0.000000 -1.000000
    outer loop
      vertex -2.150000 5.200000 2.150000
      vertex 2.150000 5.200000 2.150000
      vertex 2.150000 0.000000 2.150000
    endloop
  endfacet
  facet normal 0.000000 0.000000 -1.000000
    outer loop
      vertex -2.150000 5.200000 2.150000
      vertex 2.150000 0.000000 2.150000
      vertex -2.150000 0.000000 2.150000
    endloop
  endfacet
  facet normal 0.000000 0.000000 1.000000
    outer loop
      vertex 2.150000 0.000000 -2.150000
      vertex 2.150000 5.200000 -2.150000
      vertex -2.150000 5.200000 -2.150000
    endloop
  endfacet
  facet normal 0.000000 0.000000 1.000000
    outer loop
      vertex 2.150000 0.000000 -2.150000
      vertex -2.150000 5.200000 -2.150000
      vertex -2.150000 0.000000 -2.150000
    endloop
  endfacet
  facet normal -1.000000 0.000000 0.000000
    outer loop
      vertex 2.150000 0.000000 2.150000
      vertex 2.150000 5.200000 2.150000
      vertex 2.150000 5.200000 -2.150000
    endloop
  endfacet
  facet normal -1.000000 0.000000 0.000000
    outer loop
      vertex 2.150000 0.000000 2.150000
      vertex 2.150000 5.200000 -2.150000
      vertex 2.150000 0.000000 -2.150000
    endloop
  endfacet
  facet normal 1.000000 0.000000 0.000000
    outer loop
      vertex -2.150000 0.000000 -2.150000
      vertex -2.150000 5.200000 -2.150000
      vertex -2.150000 5.200000 2.150000
    endloop
  endfacet
  facet normal 1.000000 0.000000 0.000000
    outer loop
      vertex -2.150000 0.000000 -2.150000
      vertex -2.150000 5.200000 2.150000
      vertex -2.150000 0.000000 2.150000
    endloop
  endfacet
  facet normal 0.000000 1.000000 -0.000000
    outer loop
      vertex -2.370000 -1.225000 1.100000
      vertex -0.170000 -1.225000 1.100000
      vertex -0.170000 -1.225000 -1.100000
    endloop
  endfacet
  facet normal 0.000000 1.000000 -0.000000
    outer loop
      vertex -2.370000 -1.225000 1.100000
      vertex -0.170000 -1.225000 -1.100000
      vertex -2.370000 -1.225000 -1.100000
    endloop
  endfacet
  facet normal 0.000000 -1.000000 0.000000
    outer loop
      vertex -2.370000 0.325000 -1.100000
      vertex -0.170000 0.325000 -1.100000
      vertex -0.170000 0.325000 1.100000
    endloop
  endfacet
  facet normal 0.000000 -1.000000 0.000000
    outer loop
      vertex -2.370000 0.325000 -1.100000
      vertex -0.170000 0.325000 1.100000
      vertex -2.370000 0.325000 1.100000
    endloop
  endfacet
  facet normal 0.000000 0.000000 1.000000
    outer loop
      vertex -2.370000 -1.225000 -1.100000
      vertex -0.170000 -1.225000 -1.100000
      vertex -0.170000 0.325000 -1.100000
    endloop
  endfacet
  facet normal 0.000000 0.000000 1.000000
    outer loop
      vertex -2.370000 -1.225000 -1.100000
      vertex -0.170000 0.325000 -1.100000
      vertex -2.370000 0.325000 -1.100000
    endloop
  endfacet
  facet normal 0.000000 0.000000 -1.000000
    outer loop
      vertex -0.170000 0.325000 1.100000
      vertex -0.170000 -1.225000 1.100000
      vertex -2.370000 -1.225000 1.100000
    endloop
  endfacet
  facet normal 0.000000 0.000000 -1.000000
    outer loop
      vertex -0.170000 0.325000 1.100000
      vertex -2.370000 -1.225000 1.100000
      vertex -2.370000 0.325000 1.100000
    endloop
  endfacet
  facet normal -1.000000 0.000000 0.000000
    outer loop
      vertex -0.170000 0.325000 -1.100000
      vertex -0.170000 -1.225000 -1.100000
      vertex -0.170000 -1.225000 1.100000
    endloop
  endfacet
  facet normal -1.000000 0.000000 0.000000
    outer loop
      vertex -0.170000 0.325000 -1.100000
      vertex -0.170000 -1.225000 1.100000
      vertex -0.170000 0.325000 1.100000
    endloop
  endfacet
  facet normal 1.000000 0.000000 0.000000
    outer loop
      vertex -2.370000 0.325000 1.100000
      vertex -2.370000 -1.225000 1.100000
      vertex -2.370000 -1.225000 -1.100000
    endloop
  endfacet
  facet normal 1.000000 0.000000 0.000000
    outer loop
      vertex -2.370000 0.325000 1.100000
      vertex -2.370000 -1.225000 -1.100000
      vertex -2.370000 0.325000 -1.100000
    endloop
  endfacet
  facet normal 0.000000 1.000000 0.000000
    outer loop
      vertex -1.600000 -5.200000 0.330000
      vertex -0.940000 -5.200000 0.330000
      vertex -0.940000 -5.200000 -0.330000
    endloop
  endfacet
  facet normal 0.000000 1.000000 0.000000
    outer loop
      vertex -1.600000 -5.200000 0.330000
      vertex -0.940000 -5.200000 -0.330000
      vertex -1.600000 -5.200000 -0.330000
    endloop
  endfacet
  facet normal 0.000000 -1.000000 0.000000
    outer loop
      vertex -1.600000 0.000000 -0.330000
      vertex -0.940000 0.000000 -0.330000
      vertex -0.940000 0.000000 0.330000
    endloop
  endfacet
  facet normal 0.000000 -1.000000 0.000000
    outer loop
      vertex -1.600000 0.000000 -0.330000
      vertex -0.940000 0.000000 0.330000
      vertex -1.600000 0.000000 0.330000
    endloop
  endfacet
  facet normal 0.000000 0.000000 1.000000
    outer loop
      vertex -1.600000 -5.200000 -0.330000
      vertex -0.940000 -5.200000 -0.330000
      vertex -0.940000 0.000000 -0.330000
    endloop
  endfacet
  facet normal 0.000000 0.000000 1.000000
    outer loop
      vertex -1.600000 -5.200000 -0.330000
      vertex -0.940000 0.000000 -0.330000
      vertex -1.600000 0.000000 -0.330000
    endloop
  endfacet
  facet normal 0.000000 -0.000000 -1.000000
    outer loop
      vertex -0.940000 0.000000 0.330000
      vertex -0.940000 -5.200000 0.330000
      vertex -1.600000 -5.200000 0.330000
    endloop
  endfacet
  facet normal 0.000000 -0.000000 -1.000000
    outer loop
      vertex -0.940000 0.000000 0.330000
      vertex -1.600000 -5.200000 0.330000
      vertex -1.600000 0.000000 0.330000
    endloop
  endfacet
  facet normal -1.000000 0.000000 0.000000
    outer loop
      vertex -0.940000 0.000000 -0.330000
      vertex -0.940000 -5.200000 -0.330000
      vertex -0.940000 -5.200000 0.330000
    endloop
  endfacet
  facet normal -1.000000 0.000000 0.000000
    outer loop
      vertex -0.940000 0.000000 -0.330000
      vertex -0.940000 -5.200000 0.330000
      vertex -0.940000 0.000000 0.330000
    endloop
  endfacet
  facet normal 1.000000 0.000000 0.000000
    outer loop
      vertex -1.600000 0.000000 0.330000
      vertex -1.600000 -5.200000 0.330000
      vertex -1.600000 -5.200000 -0.330000
    endloop
  endfacet
  facet normal 1.000000 0.000000 0.000000
    outer loop
      vertex -1.600000 0.000000 0.330000
      vertex -1.600000 -5.200000 -0.330000
      vertex -1.600000 0.000000 -0.330000
    endloop
  endfacet
  facet normal 0.000000 1.000000 -0.000000
    outer loop
      vertex -1.100000 -1.225000 1.100000
      vertex 1.100000 -1.225000 1.100000
      vertex 1.100000 -1.225000 -1.100000
    endloop
  endfacet
  facet normal 0.000000 1.000000 -0.000000
    outer loop
      vertex -1.100000 -1.225000 1.100000
      vertex 1.100000 -1.225000 -1.100000
      vertex -1.100000 -1.225000 -1.100000
    endloop
  endfacet
  facet normal 0.000000 -1.000000 0.000000
    outer loop
      vertex -1.100000 0.325000 -1.100000
      vertex 1.100000 0.325000 -1.100000
      vertex 1.100000 0.325000 1.100000
    endloop
  endfacet
  facet normal 0.000000 -1.000000 0.000000
    outer loop
      vertex -1.100000 0.325000 -1.100000
      vertex 1.100000 0.325000 1.100000
      vertex -1.100000 0.325000 1.100000
    endloop
  endfacet
  facet normal 0.000000 0.000000 1.000000
    outer loop
      vertex -1.100000 -1.225000 -1.100000
      vertex 1.100000 -1.225000 -1.100000
      vertex 1.100000 0.325000 -1.100000
    endloop
  endfacet
  facet normal 0.000000 0.000000 1.000000
    outer loop
      vertex -1.100000 -1.225000 -1.100000
      vertex 1.100000 0.325000 -1.100000
      vertex -1.100000 0.325000 -1.100000
    endloop
  endfacet
  facet normal 0.000000 0.000000 -1.000000
    outer loop
      vertex 1.100000 0.325000 1.100000
      vertex 1.100000 -1.225000 1.100000
      vertex -1.100000 -1.225000 1.100000
    endloop
  endfacet
  facet normal 0.000000 0.000000 -1.000000
    outer loop
      vertex 1.100000 0.325000 1.100000
      vertex -1.100000 -1.225000 1.100000
      vertex -1.100000 0.325000 1.100000
    endloop
  endfacet
  facet normal -1.000000 0.000000 0.000000
    outer loop
      vertex 1.100000 0.325000 -1.100000
      vertex 1.100000 -1.225000 -1.100000
      vertex 1.100000 -1.225000 1.100000
    endloop
  endfacet
  facet normal -1.000000 0.000000 0.000000
    outer loop
      vertex 1.100000 0.325000 -1.100000
      vertex 1.100000 -1.225000 1.100000
      vertex 1.100000 0.325000 1.100000
    endloop
  endfacet
  facet normal 1.000000 0.000000 0.000000
    outer loop
      vertex -1.100000 0.325000 1.100000
      vertex -1.100000 -1.225000 1.100000
      vertex -1.100000 -1.225000 -1.100000
    endloop
  endfacet
  facet normal 1.000000 0.000000 0.000000
    outer loop
      vertex -1.100000 0.325000 1.100000
      vertex -1.100000 -1.225000 -1.100000
      vertex -1.100000 0.325000 -1.100000
    endloop
  endfacet
  facet normal 0.000000 1.000000 0.000000
    outer loop
      vertex -0.330000 -5.200000 0.330000
      vertex 0.330000 -5.200000 0.330000
      vertex 0.330000 -5.200000 -0.330000
    endloop
  endfacet
  facet normal 0.000000 1.000000 0.000000
    outer loop
      vertex -0.330000 -5.200000 0.330000
      vertex 0.330000 -5.200000 -0.330000
      vertex -0.330000 -5.200000 -0.330000
    endloop
  endfacet
  facet normal 0.000000 -1.000000 0.000000
    outer loop
      vertex -0.330000 0.000000 -0.330000
      vertex 0.330000 0.000000 -0.330000
      vertex 0.330000 0.000000 0.330000
    endloop
  endfacet
  facet normal 0.000000 -1.000000 0.000000
    outer loop
      vertex -0.330000 0.000000 -0.330000
      vertex 0.330000 0.000000 0.330000
      vertex -0.330000 0.000000 0.330000
    endloop
  endfacet
  facet normal 0.000000 0.000000 1.000000
    outer loop
      vertex -0.330000 -5.200000 -0.330000
      vertex 0.330000 -5.200000 -0.330000
      vertex 0.330000 0.000000 -0.330000
    endloop
  endfacet
  facet normal 0.000000 0.000000 1.000000
    outer loop
      vertex -0.330000 -5.200000 -0.330000
      vertex 0.330000 0.000000 -0.330000
      vertex -0.330000 0.000000 -0.330000
    endloop
  endfacet
  facet normal 0.000000 -0.000000 -1.000000
    outer loop
      vertex 0.330000 0.000000 0.330000
      vertex 0.330000 -5.200000 0.330000
      vertex -0.330000 -5.200000 0.330000
    endloop
  endfacet
  facet normal 0.000000 -0.000000 -1.000000
    outer loop
      vertex 0.330000 0.000000 0.330000
      vertex -0.330000 -5.200000 0.330000
      vertex -0.330000 0.000000 0.330000
    endloop
  endfacet
  facet normal -1.000000 0.000000 0.000000
    outer loop
      vertex 0.330000 0.000000 -0.330000
      vertex 0.330000 -5.200000 -0.330000
      vertex 0.330000 -5.200000 0.330000
    endloop
  endfacet
  facet normal -1.000000 0.000000 0.000000
    outer loop
      vertex 0.330000 0.000000 -0.330000
      vertex 0.330000 -5.200000 0.330000
      vertex 0.330000 0.000000 0.330000
    endloop
  endfacet
  facet normal 1.000000 0.000000 0.000000
    outer loop
      vertex -0.330000 0.000000 0.330000
      vertex -0.330000 -5.200000 0.330000
      vertex -0.330000 -5.200000 -0.330000
    endloop
  endfacet
  facet normal 1.000000 0.000000 0.000000
    outer loop
      vertex -0.330000 0.000000 0.330000
      vertex -0.330000 -5.200000 -0.330000
      vertex -0.330000 0.000000 -0.330000
    endloop
  endfacet
  facet normal 0.000000 1.000000 -0.000000
    outer loop
      vertex 0.170000 -1.225000 1.100000
      vertex 2.370000 -1.225000 1.100000
      vertex 2.370000 -1.225000 -1.100000
    endloop
  endfacet
  facet normal 0.000000 1.000000 -0.000000
    outer loop
      vertex 0.170000 -1.225000 1.100000
      vertex 2.370000 -1.225000 -1.100000
      vertex 0.170000 -1.225000 -1.100000
    endloop
  endfacet
  facet normal 0.000000 -1.000000 0.000000
    outer loop
      vertex 0.170000 0.325000 -1.100000
      vertex 2.370000 0.325000 -1.100000
      vertex 2.370000 0.325000 1.100000
    endloop
  endfacet
  facet normal 0.000000 -1.000000 0.000000
    outer loop
      vertex 0.170000 0.325000 -1.100000
      vertex 2.370000 0.325000 1.100000
      vertex 0.170000 0.325000 1.100000
    endloop
  endfacet
  facet normal 0.000000 0.000000 1.000000
    outer loop
      vertex 0.170000 -1.225000 -1.100000
      vertex 2.370000 -1.225000 -1.100000
      vertex 2.370000 0.325000 -1.100000
    endloop
  endfacet
  facet normal 0.000000 0.000000 1.000000
    outer loop
      vertex 0.170000 -1.225000 -1.100000
      vertex 2.370000 0.325000 -1.100000
      vertex 0.170000 0.325000 -1.100000
    endloop
  endfacet
  facet normal 0.000000 0.000000 -1.000000
    outer loop
      vertex 2.370000 0.325000 1.100000
      vertex 2.370000 -1.225000 1.100000
      vertex 0.170000 -1.225000 1.100000
    endloop
  endfacet
  facet normal 0.000000 0.000000 -1.000000
    outer loop
      vertex 2.370000 0.325000 1.100000
      vertex 0.170000 -1.225000 1.100000
      vertex 0.170000 0.325000 1.100000
    endloop
  endfacet
  facet normal -1.000000 0.000000 0.000000
    outer loop
      vertex 2.370000 0.325000 -1.100000
      vertex 2.370000 -1.225000 -1.100000
      vertex 2.370000 -1.225000 1.100000
    endloop
  endfacet
  facet normal -1.000000 0.000000 0.000000
    outer loop
      vertex 2.370000 0.325000 -1.100000
      vertex 2.370000 -1.225000 1.100000
      vertex 2.370000 0.325000 1.100000
    endloop
  endfacet
  facet normal 1.000000 0.000000 0.000000
    outer loop
      vertex 0.170000 0.325000 1.100000
      vertex 0.170000 -1.225000 1.100000
      vertex 0.170000 -1.225000 -1.100000
    endloop
  endfacet
  facet normal 1.000000 0.000000 0.000000
    outer loop
      vertex 0.170000 0.325000 1.100000
      vertex 0.170000 -1.225000 -1.100000
      vertex 0.170000 0.325000 -1.100000
    endloop
  endfacet
  facet normal 0.000000 1.000000 0.000000
    outer loop
      vertex 0.940000 -5.200000 0.330000
      vertex 1.600000 -5.200000 0.330000
      vertex 1.600000 -5.200000 -0.330000
    endloop
  endfacet
  facet normal 0.000000 1.000000 0.000000
    outer loop
      vertex 0.940000 -5.200000 0.330000
      vertex 1.600000 -5.200000 -0.330000
      vertex 0.940000 -5.200000 -0.330000
    endloop
  endfacet
  facet normal 0.000000 -1.000000 0.000000
    outer loop
      vertex 0.940000 0.000000 -0.330000
      vertex 1.600000 0.000000 -0.330000
      vertex 1.600000 0.000000 0.330000
    endloop
  endfacet
  facet normal 0.000000 -1.000000 0.000000
    outer loop
      vertex 0.940000 0.000000 -0.330000
      vertex 1.600000 0.000000 0.330000
      vertex 0.940000 0.000000 0.330000
    endloop
  endfacet
  facet normal 0.000000 0.000000 1.000000
    outer loop
      vertex 0.940000 -5.200000 -0.330000
      vertex 1.600000 -5.200000 -0.330000
      vertex 1.600000 0.000000 -0.330000
    endloop
  endfacet
  facet normal 0.000000 0.000000 1.000000
    outer loop
      vertex 0.940000 -5.200000 -0.330000
      vertex 1.600000 0.000000 -0.330000
      vertex 0.940000 0.000000 -0.330000
    endloop
  endfacet
  facet normal 0.000000 -0.000000 -1.000000
    outer loop
      vertex 1.600000 0.000000 0.330000
      vertex 1.600000 -5.200000 0.330000
      vertex 0.940000 -5.200000 0.330000
    endloop
  endfacet
  facet normal 0.000000 -0.000000 -1.000000
    outer loop
      vertex 1.600000 0.000000 0.330000
      vertex 0.940000 -5.200000 0.330000
      vertex 0.940000 0.000000 0.330000
    endloop
  endfacet
  facet normal -1.000000 0.000000 0.000000
    outer loop
      vertex 1.600000 0.000000 -0.330000
      vertex 1.600000 -5.200000 -0.330000
      vertex 1.600000 -5.200000 0.330000
    endloop
  endfacet
  facet normal -1.000000 0.000000 0.000000
    outer loop
      vertex 1.600000 0.000000 -0.330000
      vertex 1.600000 -5.200000 0.330000
      vertex 1.600000 0.000000 0.330000
    endloop
  endfacet
  facet normal 1.000000 0.000000 0.000000
    outer loop
      vertex 0.940000 0.000000 0.330000
      vertex 0.940000 -5.200000 0.330000
      vertex 0.940000 -5.200000 -0.330000
    endloop
  endfacet
  facet normal 1.000000 0.000000 0.000000
    outer loop
      vertex 0.940000 0.000000 0.330000
      vertex 0.940000 -5.200000 -0.330000
      vertex 0.940000 0.000000 -0.330000
    endloop
  endfacet
  facet normal 0.000000 -1.000000 0.000000
    outer loop
      vertex 0.000000 5.200000 0.000000
      vertex 2.300000 5.200000 0.000000
      vertex 2.221629 5.200000 0.595284
    endloop
  endfacet
  facet normal 0.000000 1.000000 0.000000
    outer loop
      vertex 0.000000 0.000000 0.000000
      vertex 2.221629 0.000000 0.595284
      vertex 2.300000 0.000000 0.000000
    endloop
  endfacet
  facet normal -0.991445 0.000000 -0.130526
    outer loop
      vertex 2.300000 0.000000 0.000000
      vertex 2.221629 0.000000 0.595284
      vertex 2.221629 5.200000 0.595284
    endloop
  endfacet
  facet normal -0.991445 0.000000 -0.130526
    outer loop
      vertex 2.300000 0.000000 0.000000
      vertex 2.221629 5.200000 0.595284
      vertex 2.300000 5.200000 0.000000
    endloop
  endfacet
  facet normal 0.000000 -1.000000 0.000000
    outer loop
      vertex 0.000000 5.200000 0.000000
      vertex 2.221629 5.200000 0.595284
      vertex 1.991858 5.200000 1.150000
    endloop
  endfacet
  facet normal 0.000000 1.000000 0.000000
    outer loop
      vertex 0.000000 0.000000 0.000000
      vertex 1.991858 0.000000 1.150000
      vertex 2.221629 0.000000 0.595284
    endloop
  endfacet
  facet normal -0.923880 0.000000 -0.382683
    outer loop
      vertex 2.221629 0.000000 0.595284
      vertex 1.991858 0.000000 1.150000
      vertex 1.991858 5.200000 1.150000
    endloop
  endfacet
  facet normal -0.923880 0.000000 -0.382683
    outer loop
      vertex 2.221629 0.000000 0.595284
      vertex 1.991858 5.200000 1.150000
      vertex 2.221629 5.200000 0.595284
    endloop
  endfacet
  facet normal 0.000000 -1.000000 0.000000
    outer loop
      vertex 0.000000 5.200000 0.000000
      vertex 1.991858 5.200000 1.150000
      vertex 1.626346 5.200000 1.626346
    endloop
  endfacet
  facet normal 0.000000 1.000000 0.000000
    outer loop
      vertex 0.000000 0.000000 0.000000
      vertex 1.626346 0.000000 1.626346
      vertex 1.991858 0.000000 1.150000
    endloop
  endfacet
  facet normal -0.793353 0.000000 -0.608761
    outer loop
      vertex 1.991858 0.000000 1.150000
      vertex 1.626346 0.000000 1.626346
      vertex 1.626346 5.200000 1.626346
    endloop
  endfacet
  facet normal -0.793353 0.000000 -0.608761
    outer loop
      vertex 1.991858 0.000000 1.150000
      vertex 1.626346 5.200000 1.626346
      vertex 1.991858 5.200000 1.150000
    endloop
  endfacet
  facet normal 0.000000 -1.000000 0.000000
    outer loop
      vertex 0.000000 5.200000 0.000000
      vertex 1.626346 5.200000 1.626346
      vertex 1.150000 5.200000 1.991858
    endloop
  endfacet
  facet normal 0.000000 1.000000 0.000000
    outer loop
      vertex 0.000000 0.000000 0.000000
      vertex 1.150000 0.000000 1.991858
      vertex 1.626346 0.000000 1.626346
    endloop
  endfacet
  facet normal -0.608761 0.000000 -0.793353
    outer loop
      vertex 1.626346 0.000000 1.626346
      vertex 1.150000 0.000000 1.991858
      vertex 1.150000 5.200000 1.991858
    endloop
  endfacet
  facet normal -0.608761 0.000000 -0.793353
    outer loop
      vertex 1.626346 0.000000 1.626346
      vertex 1.150000 5.200000 1.991858
      vertex 1.626346 5.200000 1.626346
    endloop
  endfacet
  facet normal 0.000000 -1.000000 0.000000
    outer loop
      vertex 0.000000 5.200000 0.000000
      vertex 1.150000 5.200000 1.991858
      vertex 0.595284 5.200000 2.221629
    endloop
  endfacet
  facet normal 0.000000 1.000000 0.000000
    outer loop
      vertex 0.000000 0.000000 0.000000
      vertex 0.595284 0.000000 2.221629
      vertex 1.150000 0.000000 1.991858
    endloop
  endfacet
  facet normal -0.382683 0.000000 -0.923880
    outer loop
      vertex 1.150000 0.000000 1.991858
      vertex 0.595284 0.000000 2.221629
      vertex 0.595284 5.200000 2.221629
    endloop
  endfacet
  facet normal -0.382683 0.000000 -0.923880
    outer loop
      vertex 1.150000 0.000000 1.991858
      vertex 0.595284 5.200000 2.221629
      vertex 1.150000 5.200000 1.991858
    endloop
  endfacet
  facet normal 0.000000 -1.000000 0.000000
    outer loop
      vertex 0.000000 5.200000 0.000000
      vertex 0.595284 5.200000 2.221629
      vertex 0.000000 5.200000 2.300000
    endloop
  endfacet
  facet normal 0.000000 1.000000 0.000000
    outer loop
      vertex 0.000000 0.000000 0.000000
      vertex 0.000000 0.000000 2.300000
      vertex 0.595284 0.000000 2.221629
    endloop
  endfacet
  facet normal -0.130526 0.000000 -0.991445
    outer loop
      vertex 0.595284 0.000000 2.221629
      vertex 0.000000 0.000000 2.300000
      vertex 0.000000 5.200000 2.300000
    endloop
  endfacet
  facet normal -0.130526 0.000000 -0.991445
    outer loop
      vertex 0.595284 0.000000 2.221629
      vertex 0.000000 5.200000 2.300000
      vertex 0.595284 5.200000 2.221629
    endloop
  endfacet
  facet normal 0.000000 -1.000000 0.000000
    outer loop
      vertex 0.000000 5.200000 0.000000
      vertex 0.000000 5.200000 2.300000
      vertex -0.595284 5.200000 2.221629
    endloop
  endfacet
  facet normal 0.000000 1.000000 0.000000
    outer loop
      vertex 0.000000 0.000000 0.000000
      vertex -0.595284 0.000000 2.221629
      vertex 0.000000 0.000000 2.300000
    endloop
  endfacet
  facet normal 0.130526 0.000000 -0.991445
    outer loop
      vertex 0.000000 0.000000 2.300000
      vertex -0.595284 0.000000 2.221629
      vertex -0.595284 5.200000 2.221629
    endloop
  endfacet
  facet normal 0.130526 0.000000 -0.991445
    outer loop
      vertex 0.000000 0.000000 2.300000
      vertex -0.595284 5.200000 2.221629
      vertex 0.000000 5.200000 2.300000
    endloop
  endfacet
  facet normal 0.000000 -1.000000 0.000000
    outer loop
      vertex 0.000000 5.200000 0.000000
      vertex -0.595284 5.200000 2.221629
      vertex -1.150000 5.200000 1.991858
    endloop
  endfacet
  facet normal 0.000000 1.000000 0.000000
    outer loop
      vertex 0.000000 0.000000 0.000000
      vertex -1.150000 0.000000 1.991858
      vertex -0.595284 0.000000 2.221629
    endloop
  endfacet
  facet normal 0.382683 0.000000 -0.923880
    outer loop
      vertex -0.595284 0.000000 2.221629
      vertex -1.150000 0.000000 1.991858
      vertex -1.150000 5.200000 1.991858
    endloop
  endfacet
  facet normal 0.382683 0.000000 -0.923880
    outer loop
      vertex -0.595284 0.000000 2.221629
      vertex -1.150000 5.200000 1.991858
      vertex -0.595284 5.200000 2.221629
    endloop
  endfacet
  facet normal 0.000000 -1.000000 0.000000
    outer loop
      vertex 0.000000 5.200000 0.000000
      vertex -1.150000 5.200000 1.991858
      vertex -1.626346 5.200000 1.626346
    endloop
  endfacet
  facet normal 0.000000 1.000000 0.000000
    outer loop
      vertex 0.000000 0.000000 0.000000
      vertex -1.626346 0.000000 1.626346
      vertex -1.150000 0.000000 1.991858
    endloop
  endfacet
  facet normal 0.608761 0.000000 -0.793353
    outer loop
      vertex -1.150000 0.000000 1.991858
      vertex -1.626346 0.000000 1.626346
      vertex -1.626346 5.200000 1.626346
    endloop
  endfacet
  facet normal 0.608761 0.000000 -0.793353
    outer loop
      vertex -1.150000 0.000000 1.991858
      vertex -1.626346 5.200000 1.626346
      vertex -1.150000 5.200000 1.991858
    endloop
  endfacet
  facet normal 0.000000 -1.000000 0.000000
    outer loop
      vertex 0.000000 5.200000 0.000000
      vertex -1.626346 5.200000 1.626346
      vertex -1.991858 5.200000 1.150000
    endloop
  endfacet
  facet normal 0.000000 1.000000 0.000000
    outer loop
      vertex 0.000000 0.000000 0.000000
      vertex -1.991858 0.000000 1.150000
      vertex -1.626346 0.000000 1.626346
    endloop
  endfacet
  facet normal 0.793353 0.000000 -0.608761
    outer loop
      vertex -1.626346 0.000000 1.626346
      vertex -1.991858 0.000000 1.150000
      vertex -1.991858 5.200000 1.150000
    endloop
  endfacet
  facet normal 0.793353 0.000000 -0.608761
    outer loop
      vertex -1.626346 0.000000 1.626346
      vertex -1.991858 5.200000 1.150000
      vertex -1.626346 5.200000 1.626346
    endloop
  endfacet
  facet normal 0.000000 -1.000000 0.000000
    outer loop
      vertex 0.000000 5.200000 0.000000
      vertex -1.991858 5.200000 1.150000
      vertex -2.221629 5.200000 0.595284
    endloop
  endfacet
  facet normal 0.000000 1.000000 0.000000
    outer loop
      vertex 0.000000 0.000000 0.000000
      vertex -2.221629 0.000000 0.595284
      vertex -1.991858 0.000000 1.150000
    endloop
  endfacet
  facet normal 0.923880 0.000000 -0.382683
    outer loop
      vertex -1.991858 0.000000 1.150000
      vertex -2.221629 0.000000 0.595284
      vertex -2.221629 5.200000 0.595284
    endloop
  endfacet
  facet normal 0.923880 0.000000 -0.382683
    outer loop
      vertex -1.991858 0.000000 1.150000
      vertex -2.221629 5.200000 0.595284
      vertex -1.991858 5.200000 1.150000
    endloop
  endfacet
  facet normal 0.000000 -1.000000 0.000000
    outer loop
      vertex 0.000000 5.200000 0.000000
      vertex -2.221629 5.200000 0.595284
      vertex -2.300000 5.200000 0.000000
    endloop
  endfacet
  facet normal 0.000000 1.000000 0.000000
    outer loop
      vertex 0.000000 0.000000 0.000000
      vertex -2.300000 0.000000 0.000000
      vertex -2.221629 0.000000 0.595284
    endloop
  endfacet
  facet normal 0.991445 0.000000 -0.130526
    outer loop
      vertex -2.221629 0.000000 0.595284
      vertex -2.300000 0.000000 0.000000
      vertex -2.300000 5.200000 0.000000
    endloop
  endfacet
  facet normal 0.991445 0.000000 -0.130526
    outer loop
      vertex -2.221629 0.000000 0.595284
      vertex -2.300000 5.200000 0.000000
      vertex -2.221629 5.200000 0.595284
    endloop
  endfacet
  facet normal 0.000000 -1.000000 0.000000
    outer loop
      vertex 0.000000 5.200000 0.000000
      vertex -2.300000 5.200000 0.000000
      vertex -2.221629 5.200000 -0.595284
    endloop
  endfacet
  facet normal 0.000000 1.000000 0.000000
    outer loop
      vertex 0.000000 0.000000 0.000000
      vertex -2.221629 0.000000 -0.595284
      vertex -2.300000 0.000000 0.000000
    endloop
  endfacet
  facet normal 0.991445 0.000000 0.130526
    outer loop
      vertex -2.300000 0.000000 0.000000
      vertex -2.221629 0.000000 -0.595284
      vertex -2.221629 5.200000 -0.595284
    endloop
  endfacet
  facet normal 0.991445 0.000000 0.130526
    outer loop
      vertex -2.300000 0.000000 0.000000
      vertex -2.221629 5.200000 -0.595284
      vertex -2.300000 5.200000 0.000000
    endloop
  endfacet
  facet normal 0.000000 -1.000000 0.000000
    outer loop
      vertex 0.000000 5.200000 0.000000
      vertex -2.221629 5.200000 -0.595284
      vertex -1.991858 5.200000 -1.150000
    endloop
  endfacet
  facet normal 0.000000 1.000000 0.000000
    outer loop
      vertex 0.000000 0.000000 0.000000
      vertex -1.991858 0.000000 -1.150000
      vertex -2.221629 0.000000 -0.595284
    endloop
  endfacet
  facet normal 0.923880 0.000000 0.382683
    outer loop
      vertex -2.221629 0.000000 -0.595284
      vertex -1.991858 0.000000 -1.150000
      vertex -1.991858 5.200000 -1.150000
    endloop
  endfacet
  facet normal 0.923880 0.000000 0.382683
    outer loop
      vertex -2.221629 0.000000 -0.595284
      vertex -1.991858 5.200000 -1.150000
      vertex -2.221629 5.200000 -0.595284
    endloop
  endfacet
  facet normal 0.000000 -1.000000 0.000000
    outer loop
      vertex 0.000000 5.200000 0.000000
      vertex -1.991858 5.200000 -1.150000
      vertex -1.626346 5.200000 -1.626346
    endloop
  endfacet
  facet normal 0.000000 1.000000 0.000000
    outer loop
      vertex 0.000000 0.000000 0.000000
      vertex -1.626346 0.000000 -1.626346
      vertex -1.991858 0.000000 -1.150000
    endloop
  endfacet
  facet normal 0.793353 0.000000 0.608761
    outer loop
      vertex -1.991858 0.000000 -1.150000
      vertex -1.626346 0.000000 -1.626346
      vertex -1.626346 5.200000 -1.626346
    endloop
  endfacet
  facet normal 0.793353 0.000000 0.608761
    outer loop
      vertex -1.991858 0.000000 -1.150000
      vertex -1.626346 5.200000 -1.626346
      vertex -1.991858 5.200000 -1.150000
    endloop
  endfacet
  facet normal 0.000000 -1.000000 0.000000
    outer loop
      vertex 0.000000 5.200000 0.000000
      vertex -1.626346 5.200000 -1.626346
      vertex -1.150000 5.200000 -1.991858
    endloop
  endfacet
  facet normal 0.000000 1.000000 0.000000
    outer loop
      vertex 0.000000 0.000000 0.000000
      vertex -1.150000 0.000000 -1.991858
      vertex -1.626346 0.000000 -1.626346
    endloop
  endfacet
  facet normal 0.608761 0.000000 0.793353
    outer loop
      vertex -1.626346 0.000000 -1.626346
      vertex -1.150000 0.000000 -1.991858
      vertex -1.150000 5.200000 -1.991858
    endloop
  endfacet
  facet normal 0.608761 0.000000 0.793353
    outer loop
      vertex -1.626346 0.000000 -1.626346
      vertex -1.150000 5.200000 -1.991858
      vertex -1.626346 5.200000 -1.626346
    endloop
  endfacet
  facet normal 0.000000 -1.000000 0.000000
    outer loop
      vertex 0.000000 5.200000 0.000000
      vertex -1.150000 5.200000 -1.991858
      vertex -0.595284 5.200000 -2.221629
    endloop
  endfacet
  facet normal 0.000000 1.000000 0.000000
    outer loop
      vertex 0.000000 0.000000 0.000000
      vertex -0.595284 0.000000 -2.221629
      vertex -1.150000 0.000000 -1.991858
    endloop
  endfacet
  facet normal 0.382683 0.000000 0.923880
    outer loop
      vertex -1.150000 0.000000 -1.991858
      vertex -0.595284 0.000000 -2.221629
      vertex -0.595284 5.200000 -2.221629
    endloop
  endfacet
  facet normal 0.382683 0.000000 0.923880
    outer loop
      vertex -1.150000 0.000000 -1.991858
      vertex -0.595284 5.200000 -2.221629
      vertex -1.150000 5.200000 -1.991858
    endloop
  endfacet
  facet normal 0.000000 -1.000000 0.000000
    outer loop
      vertex 0.000000 5.200000 0.000000
      vertex -0.595284 5.200000 -2.221629
      vertex -0.000000 5.200000 -2.300000
    endloop
  endfacet
  facet normal 0.000000 1.000000 0.000000
    outer loop
      vertex 0.000000 0.000000 0.000000
      vertex -0.000000 0.000000 -2.300000
      vertex -0.595284 0.000000 -2.221629
    endloop
  endfacet
  facet normal 0.130526 0.000000 0.991445
    outer loop
      vertex -0.595284 0.000000 -2.221629
      vertex -0.000000 0.000000 -2.300000
      vertex -0.000000 5.200000 -2.300000
    endloop
  endfacet
  facet normal 0.130526 0.000000 0.991445
    outer loop
      vertex -0.595284 0.000000 -2.221629
      vertex -0.000000 5.200000 -2.300000
      vertex -0.595284 5.200000 -2.221629
    endloop
  endfacet
  facet normal 0.000000 -1.000000 0.000000
    outer loop
      vertex 0.000000 5.200000 0.000000
      vertex -0.000000 5.200000 -2.300000
      vertex 0.595284 5.200000 -2.221629
    endloop
  endfacet
  facet normal 0.000000 1.000000 0.000000
    outer loop
      vertex 0.000000 0.000000 0.000000
      vertex 0.595284 0.000000 -2.221629
      vertex -0.000000 0.000000 -2.300000
    endloop
  endfacet
  facet normal -0.130526 0.000000 0.991445
    outer loop
      vertex -0.000000 0.000000 -2.300000
      vertex 0.595284 0.000000 -2.221629
      vertex 0.595284 5.200000 -2.221629
    endloop
  endfacet
  facet normal -0.130526 0.000000 0.991445
    outer loop
      vertex -0.000000 0.000000 -2.300000
      vertex 0.595284 5.200000 -2.221629
      vertex -0.000000 5.200000 -2.300000
    endloop
  endfacet
  facet normal 0.000000 -1.000000 0.000000
    outer loop
      vertex 0.000000 5.200000 0.000000
      vertex 0.595284 5.200000 -2.221629
      vertex 1.150000 5.200000 -1.991858
    endloop
  endfacet
  facet normal 0.000000 1.000000 0.000000
    outer loop
      vertex 0.000000 0.000000 0.000000
      vertex 1.150000 0.000000 -1.991858
      vertex 0.595284 0.000000 -2.221629
    endloop
  endfacet
  facet normal -0.382683 0.000000 0.923880
    outer loop
      vertex 0.595284 0.000000 -2.221629
      vertex 1.150000 0.000000 -1.991858
      vertex 1.150000 5.200000 -1.991858
    endloop
  endfacet
  facet normal -0.382683 0.000000 0.923880
    outer loop
      vertex 0.595284 0.000000 -2.221629
      vertex 1.150000 5.200000 -1.991858
      vertex 0.595284 5.200000 -2.221629
    endloop
  endfacet
  facet normal 0.000000 -1.000000 0.000000
    outer loop
      vertex 0.000000 5.200000 0.000000
      vertex 1.150000 5.200000 -1.991858
      vertex 1.626346 5.200000 -1.626346
    endloop
  endfacet
  facet normal 0.000000 1.000000 0.000000
    outer loop
      vertex 0.000000 0.000000 0.000000
      vertex 1.626346 0.000000 -1.626346
      vertex 1.150000 0.000000 -1.991858
    endloop
  endfacet
  facet normal -0.608761 0.000000 0.793353
    outer loop
      vertex 1.150000 0.000000 -1.991858
      vertex 1.626346 0.000000 -1.626346
      vertex 1.626346 5.200000 -1.626346
    endloop
  endfacet
  facet normal -0.608761 0.000000 0.793353
    outer loop
      vertex 1.150000 0.000000 -1.991858
      vertex 1.626346 5.200000 -1.626346
      vertex 1.150000 5.200000 -1.991858
    endloop
  endfacet
  facet normal 0.000000 -1.000000 0.000000
    outer loop
      vertex 0.000000 5.200000 0.000000
      vertex 1.626346 5.200000 -1.626346
      vertex 1.991858 5.200000 -1.150000
    endloop
  endfacet
  facet normal 0.000000 1.000000 0.000000
    outer loop
      vertex 0.000000 0.000000 0.000000
      vertex 1.991858 0.000000 -1.150000
      vertex 1.626346 0.000000 -1.626346
    endloop
  endfacet
  facet normal -0.793353 0.000000 0.608761
    outer loop
      vertex 1.626346 0.000000 -1.626346
      vertex 1.991858 0.000000 -1.150000
      vertex 1.991858 5.200000 -1.150000
    endloop
  endfacet
  facet normal -0.793353 0.000000 0.608761
    outer loop
      vertex 1.626346 0.000000 -1.626346
      vertex 1.991858 5.200000 -1.150000
      vertex 1.626346 5.200000 -1.626346
    endloop
  endfacet
  facet normal 0.000000 -1.000000 0.000000
    outer loop
      vertex 0.000000 5.200000 0.000000
      vertex 1.991858 5.200000 -1.150000
      vertex 2.221629 5.200000 -0.595284
    endloop
  endfacet
  facet normal 0.000000 1.000000 0.000000
    outer loop
      vertex 0.000000 0.000000 0.000000
      vertex 2.221629 0.000000 -0.595284
      vertex 1.991858 0.000000 -1.150000
    endloop
  endfacet
  facet normal -0.923880 0.000000 0.382683
    outer loop
      vertex 1.991858 0.000000 -1.150000
      vertex 2.221629 0.000000 -0.595284
      vertex 2.221629 5.200000 -0.595284
    endloop
  endfacet
  facet normal -0.923880 0.000000 0.382683
    outer loop
      vertex 1.991858 0.000000 -1.150000
      vertex 2.221629 5.200000 -0.595284
      vertex 1.991858 5.200000 -1.150000
    endloop
  endfacet
  facet normal 0.000000 -1.000000 0.000000
    outer loop
      vertex 0.000000 5.200000 0.000000
      vertex 2.221629 5.200000 -0.595284
      vertex 2.300000 5.200000 0.000000
    endloop
  endfacet
  facet normal 0.000000 1.000000 0.000000
    outer loop
      vertex 0.000000 0.000000 0.000000
      vertex 2.300000 0.000000 0.000000
      vertex 2.221629 0.000000 -0.595284
    endloop
  endfacet
  facet normal -0.991445 0.000000 0.130526
    outer loop
      vertex 2.221629 0.000000 -0.595284
      vertex 2.300000 0.000000 0.000000
      vertex 2.300000 5.200000 0.000000
    endloop
  endfacet
  facet normal -0.991445 0.000000 0.130526
    outer loop
      vertex 2.221629 0.000000 -0.595284
      vertex 2.300000 5.200000 0.000000
      vertex 2.221629 5.200000 -0.595284
    endloop
  endfacet
  facet normal 0.000000 -1.000000 0.000000
    outer loop
      vertex -2.150000 5.200000 1.200000
      vertex 2.150000 5.200000 1.200000
      vertex 2.150000 5.200000 2.000000
    endloop
  endfacet
  facet normal 0.000000 -1.000000 0.000000
    outer loop
      vertex -2.150000 5.200000 1.200000
      vertex 2.150000 5.200000 2.000000
      vertex -2.150000 5.200000 2.000000
    endloop
  endfacet
  facet normal 0.000000 1.000000 0.000000
    outer loop
      vertex -2.150000 0.000000 2.000000
      vertex 2.150000 0.000000 2.000000
      vertex 2.150000 0.000000 1.200000
    endloop
  endfacet
  facet normal 0.000000 1.000000 0.000000
    outer loop
      vertex -2.150000 0.000000 2.000000
      vertex 2.150000 0.000000 1.200000
      vertex -2.150000 0.000000 1.200000
    endloop
  endfacet
  facet normal 0.000000 0.000000 -1.000000
    outer loop
      vertex -2.150000 5.200000 2.000000
      vertex 2.150000 5.200000 2.000000
      vertex 2.150000 0.000000 2.000000
    endloop
  endfacet
  facet normal 0.000000 0.000000 -1.000000
    outer loop
      vertex -2.150000 5.200000 2.000000
      vertex 2.150000 0.000000 2.000000
      vertex -2.150000 0.000000 2.000000
    endloop
  endfacet
  facet normal 0.000000 0.000000 1.000000
    outer loop
      vertex 2.150000 0.000000 1.200000
      vertex 2.150000 5.200000 1.200000
      vertex -2.150000 5.200000 1.200000
    endloop
  endfacet
  facet normal 0.000000 0.000000 1.000000
    outer loop
      vertex 2.150000 0.000000 1.200000
      vertex -2.150000 5.200000 1.200000
      vertex -2.150000 0.000000 1.200000
    endloop
  endfacet
  facet normal -1.000000 0.000000 0.000000
    outer loop
      vertex 2.150000 0.000000 2.000000
      vertex 2.150000 5.200000 2.000000
      vertex 2.150000 5.200000 1.200000
    endloop
  endfacet
  facet normal -1.000000 0.000000 0.000000
    outer loop
      vertex 2.150000 0.000000 2.000000
      vertex 2.150000 5.200000 1.200000
      vertex 2.150000 0.000000 1.200000
    endloop
  endfacet
  facet normal 1.000000 0.000000 0.000000
    outer loop
      vertex -2.150000 0.000000 1.200000
      vertex -2.150000 5.200000 1.200000
      vertex -2.150000 5.200000 2.000000
    endloop
  endfacet
  facet normal 1.000000 0.000000 0.000000
    outer loop
      vertex -2.150000 0.000000 1.200000
      vertex -2.150000 5.200000 2.000000
      vertex -2.150000 0.000000 2.000000
    endloop
  endfacet
endsolid ds18b20_temperature