solid logic_level_shifter_4ch
  facet normal 0.000000 -1.000000 0.000000
    outer loop
      vertex -8.000000 1.600000 -6.500000
      vertex 8.000000 1.600000 -6.500000
      vertex 8.000000 1.600000 6.500000
    endloop
  endfacet
  facet normal 0.000000 -1.000000 0.000000
    outer loop
      vertex -8.000000 1.600000 -6.500000
      vertex 8.000000 1.600000 6.500000
      vertex -8.000000 1.600000 6.500000
    endloop
  endfacet
  facet normal 0.000000 1.000000 0.000000
    outer loop
      vertex -8.000000 0.000000 6.500000
      vertex 8.000000 0.000000 6.500000
      vertex 8.000000 0.000000 -6.500000
    endloop
  endfacet
  facet normal 0.000000 1.000000 0.000000
    outer loop
      vertex -8.000000 0.000000 6.500000
      vertex 8.000000 0.000000 -6.500000
      vertex -8.000000 0.000000 -6.500000
    endloop
  endfacet
  facet normal 0.000000 0.000000 -1.000000
    outer loop
      vertex -8.000000 1.600000 6.500000
      vertex 8.000000 1.600000 6.500000
      vertex 8.000000 0.000000 6.500000
    endloop
  endfacet
  facet normal 0.000000 0.000000 -1.000000
    outer loop
      vertex -8.000000 1.600000 6.500000
      vertex 8.000000 0.000000 6.500000
      vertex -8.000000 0.000000 6.500000
    endloop
  endfacet
  facet normal 0.000000 0.000000 1.000000
    outer loop
      vertex 8.000000 0.000000 -6.500000
      vertex 8.000000 1.600000 -6.500000
      vertex -8.000000 1.600000 -6.500000
    endloop
  endfacet
  facet normal 0.000000 0.000000 1.000000
    outer loop
      vertex 8.000000 0.000000 -6.500000
      vertex -8.000000 1.600000 -6.500000
      vertex -8.000000 0.000000 -6.500000
    endloop
  endfacet
  facet normal -1.000000 0.000000 0.000000
    outer loop
      vertex 8.000000 0.000000 6.500000
      vertex 8.000000 1.600000 6.500000
      vertex 8.000000 1.600000 -6.500000
    endloop
  endfacet
  facet normal -1.000000 0.000000 0.000000
    outer loop
      vertex 8.000000 0.000000 6.500000
      vertex 8.000000 1.600000 -6.500000
      vertex 8.000000 0.000000 -6.500000
    endloop
  endfacet
  facet normal 1.000000 0.000000 0.000000
    outer loop
      vertex -8.000000 0.000000 -6.500000
      vertex -8.000000 1.600000 -6.500000
      vertex -8.000000 1.600000 6.500000
    endloop
  endfacet
  facet normal 1.000000 0.000000 0.000000
    outer loop
      vertex -8.000000 0.000000 -6.500000
      vertex -8.000000 1.600000 6.500000
      vertex -8.000000 0.000000 6.500000
    endloop
  endfacet
  facet normal 0.000000 -1.000000 0.000000
    outer loop
      vertex -6.180000 7.225000 -5.060000
      vertex -3.980000 7.225000 -5.060000
      vertex -3.980000 7.225000 -2.860000
    endloop
  endfacet
  facet normal 0.000000 -1.000000 0.000000
    outer loop
      vertex -6.180000 7.225000 -5.060000
      vertex -3.980000 7.225000 -2.860000
      vertex -6.180000 7.225000 -2.860000
    endloop
  endfacet
  facet normal 0.000000 1.000000 0.000000
    outer loop
      vertex -6.180000 5.675000 -2.860000
      vertex -3.980000 5.675000 -2.860000
      vertex -3.980000 5.675000 -5.060000
    endloop
  endfacet
  facet normal 0.000000 1.000000 0.000000
    outer loop
      vertex -6.180000 5.675000 -2.860000
      vertex -3.980000 5.675000 -5.060000
      vertex -6.180000 5.675000 -5.060000
    endloop
  endfacet
  facet normal 0.000000 0.000000 -1.000000
    outer loop
      vertex -6.180000 7.225000 -2.860000
      vertex -3.980000 7.225000 -2.860000
      vertex -3.980000 5.675000 -2.860000
    endloop
  endfacet
  facet normal 0.000000 0.000000 -1.000000
    outer loop
      vertex -6.180000 7.225000 -2.860000
      vertex -3.980000 5.675000 -2.860000
      vertex -6.180000 5.675000 -2.860000
    endloop
  endfacet
  facet normal 0.000000 0.000000 1.000000
    outer loop
      vertex -3.980000 5.675000 -5.060000
      vertex -3.980000 7.225000 -5.060000
      vertex -6.180000 7.225000 -5.060000
    endloop
  endfacet
  facet normal 0.000000 0.000000 1.000000
    outer loop
      vertex -3.980000 5.675000 -5.060000
      vertex -6.180000 7.225000 -5.060000
      vertex -6.180000 5.675000 -5.060000
    endloop
  endfacet
  facet normal -1.000000 0.000000 0.000000
    outer loop
      vertex -3.980000 5.675000 -2.860000
      vertex -3.980000 7.225000 -2.860000
      vertex -3.980000 7.225000 -5.060000
    endloop
  endfacet
  facet normal -1.000000 0.000000 0.000000
    outer loop
      vertex -3.980000 5.675000 -2.860000
      vertex -3.980000 7.225000 -5.060000
      vertex -3.980000 5.675000 -5.060000
    endloop
  endfacet
  facet normal 1.000000 0.000000 0.000000
    outer loop
      vertex -6.180000 5.675000 -5.060000
      vertex -6.180000 7.225000 -5.060000
      vertex -6.180000 7.225000 -2.860000
    endloop
  endfacet
  facet normal 1.000000 0.000000 0.000000
    outer loop
      vertex -6.180000 5.675000 -5.060000
      vertex -6.180000 7.225000 -2.860000
      vertex -6.180000 5.675000 -2.860000
    endloop
  endfacet
  facet normal 0.000000 -1.000000 0.000000
    outer loop
      vertex -5.410000 11.200000 -4.290000
      vertex -4.750000 11.200000 -4.290000
      vertex -4.750000 11.200000 -3.630000
    endloop
  endfacet
  facet normal 0.000000 -1.000000 0.000000
    outer loop
      vertex -5.410000 11.200000 -4.290000
      vertex -4.750000 11.200000 -3.630000
      vertex -5.410000 11.200000 -3.630000
    endloop
  endfacet
  facet normal 0.000000 1.000000 0.000000
    outer loop
      vertex -5.410000 6.000000 -3.630000
      vertex -4.750000 6.000000 -3.630000
      vertex -4.750000 6.000000 -4.290000
    endloop
  endfacet
  facet normal 0.000000 1.000000 0.000000
    outer loop
      vertex -5.410000 6.000000 -3.630000
      vertex -4.750000 6.000000 -4.290000
      vertex -5.410000 6.000000 -4.290000
    endloop
  endfacet
  facet normal 0.000000 0.000000 -1.000000
    outer loop
      vertex -5.410000 11.200000 -3.630000
      vertex -4.750000 11.200000 -3.630000
      vertex -4.750000 6.000000 -3.630000
    endloop
  endfacet
  facet normal 0.000000 0.000000 -1.000000
    outer loop
      vertex -5.410000 11.200000 -3.630000
      vertex -4.750000 6.000000 -3.630000
      vertex -5.410000 6.000000 -3.630000
    endloop
  endfacet
  facet normal 0.000000 0.000000 1.000000
    outer loop
      vertex -4.750000 6.000000 -4.290000
      vertex -4.750000 11.200000 -4.290000
      vertex -5.410000 11.200000 -4.290000
    endloop
  endfacet
  facet normal 0.000000 0.000000 1.000000
    outer loop
      vertex -4.750000 6.000000 -4.290000
      vertex -5.410000 11.200000 -4.290000
      vertex -5.410000 6.000000 -4.290000
    endloop
  endfacet
  facet normal -1.000000 0.000000 0.000000
    outer loop
      vertex -4.750000 6.000000 -3.630000
      vertex -4.750000 11.200000 -3.630000
      vertex -4.750000 11.200000 -4.290000
    endloop
  endfacet
  facet normal -1.000000 0.000000 0.000000
    outer loop
      vertex -4.750000 6.000000 -3.630000
      vertex -4.750000 11.200000 -4.290000
      vertex -4.750000 6.000000 -4.290000
    endloop
  endfacet
  facet normal 1.000000 0.000000 0.000000
    outer loop
      vertex -5.410000 6.000000 -4.290000
      vertex -5.410000 11.200000 -4.290000
      vertex -5.410000 11.200000 -3.630000
    endloop
  endfacet
  facet normal 1.000000 0.000000 0.000000
    outer loop
      vertex -5.410000 6.000000 -4.290000
      vertex -5.410000 11.200000 -3.630000
      vertex -5.410000 6.000000 -3.630000
    endloop
  endfacet
  facet normal 0.000000 -1.000000 0.000000
    outer loop
      vertex -3.640000 7.225000 -5.060000
      vertex -1.440000 7.225000 -5.060000
      vertex -1.440000 7.225000 -2.860000
    endloop
  endfacet
  facet normal 0.000000 -1.000000 0.000000
    outer loop
      vertex -3.640000 7.225000 -5.060000
      vertex -1.440000 7.225000 -2.860000
      vertex -3.640000 7.225000 -2.860000
    endloop
  endfacet
  facet normal 0.000000 1.000000 0.000000
    outer loop
      vertex -3.640000 5.675000 -2.860000
      vertex -1.440000 5.675000 -2.860000
      vertex -1.440000 5.675000 -5.060000
    endloop
  endfacet
  facet normal 0.000000 1.000000 0.000000
    outer loop
      vertex -3.640000 5.675000 -2.860000
      vertex -1.440000 5.675000 -5.060000
      vertex -3.640000 5.675000 -5.060000
    endloop
  endfacet
  facet normal 0.000000 0.000000 -1.000000
    outer loop
      vertex -3.640000 7.225000 -2.860000
      vertex -1.440000 7.225000 -2.860000
      vertex -1.440000 5.675000 -2.860000
    endloop
  endfacet
  facet normal 0.000000 0.000000 -1.000000
    outer loop
      vertex -3.640000 7.225000 -2.860000
      vertex -1.440000 5.675000 -2.860000
      vertex -3.640000 5.675000 -2.860000
    endloop
  endfacet
  facet normal 0.000000 0.000000 1.000000
    outer loop
      vertex -1.440000 5.675000 -5.060000
      vertex -1.440000 7.225000 -5.060000
      vertex -3.640000 7.225000 -5.060000
    endloop
  endfacet
  facet normal 0.000000 0.000000 1.000000
    outer loop
      vertex -1.440000 5.675000 -5.060000
      vertex -3.640000 7.225000 -5.060000
      vertex -3.640000 5.675000 -5.060000
    endloop
  endfacet
  facet normal -1.000000 0.000000 0.000000
    outer loop
      vertex -1.440000 5.675000 -2.860000
      vertex -1.440000 7.225000 -2.860000
      vertex -1.440000 7.225000 -5.060000
    endloop
  endfacet
  facet normal -1.000000 0.000000 0.000000
    outer loop
      vertex -1.440000 5.675000 -2.860000
      vertex -1.440000 7.225000 -5.060000
      vertex -1.440000 5.675000 -5.060000
    endloop
  endfacet
  facet normal 1.000000 0.000000 0.000000
    outer loop
      vertex -3.640000 5.675000 -5.060000
      vertex -3.640000 7.225000 -5.060000
      vertex -3.640000 7.225000 -2.860000
    endloop
  endfacet
  facet normal 1.000000 0.000000 0.000000
    outer loop
      vertex -3.640000 5.675000 -5.060000
      vertex -3.640000 7.225000 -2.860000
      vertex -3.640000 5.675000 -2.860000
    endloop
  endfacet
  facet normal 0.000000 -1.000000 0.000000
    outer loop
      vertex -2.870000 11.200000 -4.290000
      vertex -2.210000 11.200000 -4.290000
      vertex -2.210000 11.200000 -3.630000
    endloop
  endfacet
  facet normal 0.000000 -1.000000 0.000000
    outer loop
      vertex -2.870000 11.200000 -4.290000
      vertex -2.210000 11.200000 -3.630000
      vertex -2.870000 11.200000 -3.630000
    endloop
  endfacet
  facet normal 0.000000 1.000000 0.000000
    outer loop
      vertex -2.870000 6.000000 -3.630000
      vertex -2.210000 6.000000 -3.630000
      vertex -2.210000 6.000000 -4.290000
    endloop
  endfacet
  facet normal 0.000000 1.000000 0.000000
    outer loop
      vertex -2.870000 6.000000 -3.630000
      vertex -2.210000 6.000000 -4.290000
      vertex -2.870000 6.000000 -4.290000
    endloop
  endfacet
  facet normal 0.000000 0.000000 -1.000000
    outer loop
      vertex -2.870000 11.200000 -3.630000
      vertex -2.210000 11.200000 -3.630000
      vertex -2.210000 6.000000 -3.630000
    endloop
  endfacet
  facet normal 0.000000 0.000000 -1.000000
    outer loop
      vertex -2.870000 11.200000 -3.630000
      vertex -2.210000 6.000000 -3.630000
      vertex -2.870000 6.000000 -3.630000
    endloop
  endfacet
  facet normal 0.000000 0.000000 1.000000
    outer loop
      vertex -2.210000 6.000000 -4.290000
      vertex -2.210000 11.200000 -4.290000
      vertex -2.870000 11.200000 -4.290000
    endloop
  endfacet
  facet normal 0.000000 0.000000 1.000000
    outer loop
      vertex -2.210000 6.000000 -4.290000
      vertex -2.870000 11.200000 -4.290000
      vertex -2.870000 6.000000 -4.290000
    endloop
  endfacet
  facet normal -1.000000 0.000000 0.000000
    outer loop
      vertex -2.210000 6.000000 -3.630000
      vertex -2.210000 11.200000 -3.630000
      vertex -2.210000 11.200000 -4.290000
    endloop
  endfacet
  facet normal -1.000000 0.000000 0.000000
    outer loop
      vertex -2.210000 6.000000 -3.630000
      vertex -2.210000 11.200000 -4.290000
      vertex -2.210000 6.000000 -4.290000
    endloop
  endfacet
  facet normal 1.000000 0.000000 0.000000
    outer loop
      vertex -2.870000 6.000000 -4.290000
      vertex -2.870000 11.200000 -4.290000
      vertex -2.870000 11.200000 -3.630000
    endloop
  endfacet
  facet normal 1.000000 0.000000 0.000000
    outer loop
      vertex -2.870000 6.000000 -4.290000
      vertex -2.870000 11.200000 -3.630000
      vertex -2.870000 6.000000 -3.630000
    endloop
  endfacet
  facet normal 0.000000 -1.000000 0.000000
    outer loop
      vertex -1.100000 7.225000 -5.060000
      vertex 1.100000 7.225000 -5.060000
      vertex 1.100000 7.225000 -2.860000
    endloop
  endfacet
  facet normal 0.000000 -1.000000 0.000000
    outer loop
      vertex -1.100000 7.225000 -5.060000
      vertex 1.100000 7.225000 -2.860000
      vertex -1.100000 7.225000 -2.860000
    endloop
  endfacet
  facet normal 0.000000 1.000000 0.000000
    outer loop
      vertex -1.100000 5.675000 -2.860000
      vertex 1.100000 5.675000 -2.860000
      vertex 1.100000 5.675000 -5.060000
    endloop
  endfacet
  facet normal 0.000000 1.000000 0.000000
    outer loop
      vertex -1.100000 5.675000 -2.860000
      vertex 1.100000 5.675000 -5.060000
      vertex -1.100000 5.675000 -5.060000
    endloop
  endfacet
  facet normal 0.000000 0.000000 -1.000000
    outer loop
      vertex -1.100000 7.225000 -2.860000
      vertex 1.100000 7.225000 -2.860000
      vertex 1.100000 5.675000 -2.860000
    endloop
  endfacet
  facet normal 0.000000 0.000000 -1.000000
    outer loop
      vertex -1.100000 7.225000 -2.860000
      vertex 1.100000 5.675000 -2.860000
      vertex -1.100000 5.675000 -2.860000
    endloop
  endfacet
  facet normal 0.000000 0.000000 1.000000
    outer loop
      vertex 1.100000 5.675000 -5.060000
      vertex 1.100000 7.225000 -5.060000
      vertex -1.100000 7.225000 -5.060000
    endloop
  endfacet
  facet normal 0.000000 0.000000 1.000000
    outer loop
      vertex 1.100000 5.675000 -5.060000
      vertex -1.100000 7.225000 -5.060000
      vertex -1.100000 5.675000 -5.060000
    endloop
  endfacet
  facet normal -1.000000 0.000000 0.000000
    outer loop
      vertex 1.100000 5.675000 -2.860000
      vertex 1.100000 7.225000 -2.860000
      vertex 1.100000 7.225000 -5.060000
    endloop
  endfacet
  facet normal -1.000000 0.000000 0.000000
    outer loop
      vertex 1.100000 5.675000 -2.860000
      vertex 1.100000 7.225000 -5.060000
      vertex 1.100000 5.675000 -5.060000
    endloop
  endfacet
  facet normal 1.000000 0.000000 0.000000
    outer loop
      vertex -1.100000 5.675000 -5.060000
      vertex -1.100000 7.225000 -5.060000
      vertex -1.100000 7.225000 -2.860000
    endloop
  endfacet
  facet normal 1.000000 0.000000 0.000000
    outer loop
      vertex -1.100000 5.675000 -5.060000
      vertex -1.100000 7.225000 -2.860000
      vertex -1.100000 5.675000 -2.860000
    endloop
  endfacet
  facet normal 0.000000 -1.000000 0.000000
    outer loop
      vertex -0.330000 11.200000 -4.290000
      vertex 0.330000 11.200000 -4.290000
      vertex 0.330000 11.200000 -3.630000
    endloop
  endfacet
  facet normal 0.000000 -1.000000 0.000000
    outer loop
      vertex -0.330000 11.200000 -4.290000
      vertex 0.330000 11.200000 -3.630000
      vertex -0.330000 11.200000 -3.630000
    endloop
  endfacet
  facet normal 0.000000 1.000000 0.000000
    outer loop
      vertex -0.330000 6.000000 -3.630000
      vertex 0.330000 6.000000 -3.630000
      vertex 0.330000 6.000000 -4.290000
    endloop
  endfacet
  facet normal 0.000000 1.000000 0.000000
    outer loop
      vertex -0.330000 6.000000 -3.630000
      vertex 0.330000 6.000000 -4.290000
      vertex -0.330000 6.000000 -4.290000
    endloop
  endfacet
  facet normal 0.000000 0.000000 -1.000000
    outer loop
      vertex -0.330000 11.200000 -3.630000
      vertex 0.330000 11.200000 -3.630000
      vertex 0.330000 6.000000 -3.630000
    endloop
  endfacet
  facet normal 0.000000 0.000000 -1.000000
    outer loop
      vertex -0.330000 11.200000 -3.630000
      vertex 0.330000 6.000000 -3.630000
      vertex -0.330000 6.000000 -3.630000
    endloop
  endfacet
  facet normal 0.000000 0.000000 1.000000
    outer loop
      vertex 0.330000 6.000000 -4.290000
      vertex 0.330000 11.200000 -4.290000
      vertex -0.330000 11.200000 -4.290000
    endloop
  endfacet
  facet normal 0.000000 0.000000 1.000000
    outer loop
      vertex 0.330000 6.000000 -4.290000
      vertex -0.330000 11.200000 -4.290000
      vertex -0.330000 6.000000 -4.290000
    endloop
  endfacet
  facet normal -1.000000 0.000000 0.000000
    outer loop
      vertex 0.330000 6.000000 -3.630000
      vertex 0.330000 11.200000 -3.630000
      vertex 0.330000 11.200000 -4.290000
    endloop
  endfacet
  facet normal -1.000000 0.000000 0.000000
    outer loop
      vertex 0.330000 6.000000 -3.630000
      vertex 0.330000 11.200000 -4.290000
      vertex 0.330000 6.000000 -4.290000
    endloop
  endfacet
  facet normal 1.000000 0.000000 0.000000
    outer loop
      vertex -0.330000 6.000000 -4.290000
      vertex -0.330000 11.200000 -4.290000
      vertex -0.330000 11.200000 -3.630000
    endloop
  endfacet
  facet normal 1.000000 0.000000 0.000000
    outer loop
      vertex -0.330000 6.000000 -4.290000
      vertex -0.330000 11.200000 -3.630000
      vertex -0.330000 6.000000 -3.630000
    endloop
  endfacet
  facet normal 0.000000 -1.000000 0.000000
    outer loop
      vertex 1.440000 7.225000 -5.060000
      vertex 3.640000 7.225000 -5.060000
      vertex 3.640000 7.225000 -2.860000
    endloop
  endfacet
  facet normal 0.000000 -1.000000 0.000000
    outer loop
      vertex 1.440000 7.225000 -5.060000
      vertex 3.640000 7.225000 -2.860000
      vertex 1.440000 7.225000 -2.860000
    endloop
  endfacet
  facet normal 0.000000 1.000000 0.000000
    outer loop
      vertex 1.440000 5.675000 -2.860000
      vertex 3.640000 5.675000 -2.860000
      vertex 3.640000 5.675000 -5.060000
    endloop
  endfacet
  facet normal 0.000000 1.000000 0.000000
    outer loop
      vertex 1.440000 5.675000 -2.860000
      vertex 3.640000 5.675000 -5.060000
      vertex 1.440000 5.675000 -5.060000
    endloop
  endfacet
  facet normal 0.000000 0.000000 -1.000000
    outer loop
      vertex 1.440000 7.225000 -2.860000
      vertex 3.640000 7.225000 -2.860000
      vertex 3.640000 5.675000 -2.860000
    endloop
  endfacet
  facet normal 0.000000 0.000000 -1.000000
    outer loop
      vertex 1.440000 7.225000 -2.860000
      vertex 3.640000 5.675000 -2.860000
      vertex 1.440000 5.675000 -2.860000
    endloop
  endfacet
  facet normal 0.000000 0.000000 1.000000
    outer loop
      vertex 3.640000 5.675000 -5.060000
      vertex 3.640000 7.225000 -5.060000
      vertex 1.440000 7.225000 -5.060000
    endloop
  endfacet
  facet normal 0.000000 0.000000 1.000000
    outer loop
      vertex 3.640000 5.675000 -5.060000
      vertex 1.440000 7.225000 -5.060000
      vertex 1.440000 5.675000 -5.060000
    endloop
  endfacet
  facet normal -1.000000 0.000000 0.000000
    outer loop
      vertex 3.640000 5.675000 -2.860000
      vertex 3.640000 7.225000 -2.860000
      vertex 3.640000 7.225000 -5.060000
    endloop
  endfacet
  facet normal -1.000000 0.000000 0.000000
    outer loop
      vertex 3.640000 5.675000 -2.860000
      vertex 3.640000 7.225000 -5.060000
      vertex 3.640000 5.675000 -5.060000
    endloop
  endfacet
  facet normal 1.000000 0.000000 0.000000
    outer loop
      vertex 1.440000 5.675000 -5.060000
      vertex 1.440000 7.225000 -5.060000
      vertex 1.440000 7.225000 -2.860000
    endloop
  endfacet
  facet normal 1.000000 0.000000 0.000000
    outer loop
      vertex 1.440000 5.675000 -5.060000
      vertex 1.440000 7.225000 -2.860000
      vertex 1.440000 5.675000 -2.860000
    endloop
  endfacet
  facet normal 0.000000 -1.000000 0.000000
    outer loop
      vertex 2.210000 11.200000 -4.290000
      vertex 2.870000 11.200000 -4.290000
      vertex 2.870000 11.200000 -3.630000
    endloop
  endfacet
  facet normal 0.000000 -1.000000 0.000000
    outer loop
      vertex 2.210000 11.200000 -4.290000
      vertex 2.870000 11.200000 -3.630000
      vertex 2.210000 11.200000 -3.630000
    endloop
  endfacet
  facet normal 0.000000 1.000000 0.000000
    outer loop
      vertex 2.210000 6.000000 -3.630000
      vertex 2.870000 6.000000 -3.630000
      vertex 2.870000 6.000000 -4.290000
    endloop
  endfacet
  facet normal 0.000000 1.000000 0.000000
    outer loop
      vertex 2.210000 6.000000 -3.630000
      vertex 2.870000 6.000000 -4.290000
      vertex 2.210000 6.000000 -4.290000
    endloop
  endfacet
  facet normal 0.000000 0.000000 -1.000000
    outer loop
      vertex 2.210000 11.200000 -3.630000
      vertex 2.870000 11.200000 -3.630000
      vertex 2.870000 6.000000 -3.630000
    endloop
  endfacet
  facet normal 0.000000 0.000000 -1.000000
    outer loop
      vertex 2.210000 11.200000 -3.630000
      vertex 2.870000 6.000000 -3.630000
      vertex 2.210000 6.000000 -3.630000
    endloop
  endfacet
  facet normal 0.000000 0.000000 1.000000
    outer loop
      vertex 2.870000 6.000000 -4.290000
      vertex 2.870000 11.200000 -4.290000
      vertex 2.210000 11.200000 -4.290000
    endloop
  endfacet
  facet normal 0.000000 0.000000 1.000000
    outer loop
      vertex 2.870000 6.000000 -4.290000
      vertex 2.210000 11.200000 -4.290000
      vertex 2.210000 6.000000 -4.290000
    endloop
  endfacet
  facet normal -1.000000 0.000000 0.000000
    outer loop
      vertex 2.870000 6.000000 -3.630000
      vertex 2.870000 11.200000 -3.630000
      vertex 2.870000 11.200000 -4.290000
    endloop
  endfacet
  facet normal -1.000000 0.000000 0.000000
    outer loop
      vertex 2.870000 6.000000 -3.630000
      vertex 2.870000 11.200000 -4.290000
      vertex 2.870000 6.000000 -4.290000
    endloop
  endfacet
  facet normal 1.000000 0.000000 0.000000
    outer loop
      vertex 2.210000 6.000000 -4.290000
      vertex 2.210000 11.200000 -4.290000
      vertex 2.210000 11.200000 -3.630000
    endloop
  endfacet
  facet normal 1.000000 0.000000 0.000000
    outer loop
      vertex 2.210000 6.000000 -4.290000
      vertex 2.210000 11.200000 -3.630000
      vertex 2.210000 6.000000 -3.630000
    endloop
  endfacet
  facet normal 0.000000 -1.000000 0.000000
    outer loop
      vertex 3.980000 7.225000 -5.060000
      vertex 6.180000 7.225000 -5.060000
      vertex 6.180000 7.225000 -2.860000
    endloop
  endfacet
  facet normal 0.000000 -1.000000 0.000000
    outer loop
      vertex 3.980000 7.225000 -5.060000
      vertex 6.180000 7.225000 -2.860000
      vertex 3.980000 7.225000 -2.860000
    endloop
  endfacet
  facet normal 0.000000 1.000000 0.000000
    outer loop
      vertex 3.980000 5.675000 -2.860000
      vertex 6.180000 5.675000 -2.860000
      vertex 6.180000 5.675000 -5.060000
    endloop
  endfacet
  facet normal 0.000000 1.000000 0.000000
    outer loop
      vertex 3.980000 5.675000 -2.860000
      vertex 6.180000 5.675000 -5.060000
      vertex 3.980000 5.675000 -5.060000
    endloop
  endfacet
  facet normal 0.000000 0.000000 -1.000000
    outer loop
      vertex 3.980000 7.225000 -2.860000
      vertex 6.180000 7.225000 -2.860000
      vertex 6.180000 5.675000 -2.860000
    endloop
  endfacet
  facet normal 0.000000 0.000000 -1.000000
    outer loop
      vertex 3.980000 7.225000 -2.860000
      vertex 6.180000 5.675000 -2.860000
      vertex 3.980000 5.675000 -2.860000
    endloop
  endfacet
  facet normal 0.000000 0.000000 1.000000
    outer loop
      vertex 6.180000 5.675000 -5.060000
      vertex 6.180000 7.225000 -5.060000
      vertex 3.980000 7.225000 -5.060000
    endloop
  endfacet
  facet normal 0.000000 0.000000 1.000000
    outer loop
      vertex 6.180000 5.675000 -5.060000
      vertex 3.980000 7.225000 -5.060000
      vertex 3.980000 5.675000 -5.060000
    endloop
  endfacet
  facet normal -1.000000 0.000000 0.000000
    outer loop
      vertex 6.180000 5.675000 -2.860000
      vertex 6.180000 7.225000 -2.860000
      vertex 6.180000 7.225000 -5.060000
    endloop
  endfacet
  facet normal -1.000000 0.000000 0.000000
    outer loop
      vertex 6.180000 5.675000 -2.860000
      vertex 6.180000 7.225000 -5.060000
      vertex 6.180000 5.675000 -5.060000
    endloop
  endfacet
  facet normal 1.000000 0.000000 0.000000
    outer loop
      vertex 3.980000 5.675000 -5.060000
      vertex 3.980000 7.225000 -5.060000
      vertex 3.980000 7.225000 -2.860000
    endloop
  endfacet
  facet normal 1.000000 0.000000 0.000000
    outer loop
      vertex 3.980000 5.675000 -5.060000
      vertex 3.980000 7.225000 -2.860000
      vertex 3.980000 5.675000 -2.860000
    endloop
  endfacet
  facet normal 0.000000 -1.000000 0.000000
    outer loop
      vertex 4.750000 11.200000 -4.290000
      vertex 5.410000 11.200000 -4.290000
      vertex 5.410000 11.200000 -3.630000
    endloop
  endfacet
  facet normal 0.000000 -1.000000 0.000000
    outer loop
      vertex 4.750000 11.200000 -4.290000
      vertex 5.410000 11.200000 -3.630000
      vertex 4.750000 11.200000 -3.630000
    endloop
  endfacet
  facet normal 0.000000 1.000000 0.000000
    outer loop
      vertex 4.750000 6.000000 -3.630000
      vertex 5.410000 6.000000 -3.630000
      vertex 5.410000 6.000000 -4.290000
    endloop
  endfacet
  facet normal 0.000000 1.000000 0.000000
    outer loop
      vertex 4.750000 6.000000 -3.630000
      vertex 5.410000 6.000000 -4.290000
      vertex 4.750000 6.000000 -4.290000
    endloop
  endfacet
  facet normal 0.000000 0.000000 -1.000000
    outer loop
      vertex 4.750000 11.200000 -3.630000
      vertex 5.410000 11.200000 -3.630000
      vertex 5.410000 6.000000 -3.630000
    endloop
  endfacet
  facet normal 0.000000 0.000000 -1.000000
    outer loop
      vertex 4.750000 11.200000 -3.630000
      vertex 5.410000 6.000000 -3.630000
      vertex 4.750000 6.000000 -3.630000
    endloop
  endfacet
  facet normal 0.000000 0.000000 1.000000
    outer loop
      vertex 5.410000 6.000000 -4.290000
      vertex 5.410000 11.200000 -4.290000
      vertex 4.750000 11.200000 -4.290000
    endloop
  endfacet
  facet normal 0.000000 0.000000 1.000000
    outer loop
      vertex 5.410000 6.000000 -4.290000
      vertex 4.750000 11.200000 -4.290000
      vertex 4.750000 6.000000 -4.290000
    endloop
  endfacet
  facet normal -1.000000 0.000000 0.000000
    outer loop
      vertex 5.410000 6.000000 -3.630000
      vertex 5.410000 11.200000 -3.630000
      vertex 5.410000 11.200000 -4.290000
    endloop
  endfacet
  facet normal -1.000000 0.000000 0.000000
    outer loop
      vertex 5.410000 6.000000 -3.630000
      vertex 5.410000 11.200000 -4.290000
      vertex 5.410000 6.000000 -4.290000
    endloop
  endfacet
  facet normal 1.000000 0.000000 0.000000
    outer loop
      vertex 4.750000 6.000000 -4.290000
      vertex 4.750000 11.200000 -4.290000
      vertex 4.750000 11.200000 -3.630000
    endloop
  endfacet
  facet normal 1.000000 0.000000 0.000000
    outer loop
      vertex 4.750000 6.000000 -4.290000
      vertex 4.750000 11.200000 -3.630000
      vertex 4.750000 6.000000 -3.630000
    endloop
  endfacet
  facet normal 0.000000 -1.000000 0.000000
    outer loop
      vertex -6.180000 7.225000 -2.520000
      vertex -3.980000 7.225000 -2.520000
      vertex -3.980000 7.225000 -0.320000
    endloop
  endfacet
  facet normal 0.000000 -1.000000 0.000000
    outer loop
      vertex -6.180000 7.225000 -2.520000
      vertex -3.980000 7.225000 -0.320000
      vertex -6.180000 7.225000 -0.320000
    endloop
  endfacet
  facet normal 0.000000 1.000000 0.000000
    outer loop
      vertex -6.180000 5.675000 -0.320000
      vertex -3.980000 5.675000 -0.320000
      vertex -3.980000 5.675000 -2.520000
    endloop
  endfacet
  facet normal 0.000000 1.000000 0.000000
    outer loop
      vertex -6.180000 5.675000 -0.320000
      vertex -3.980000 5.675000 -2.520000
      vertex -6.180000 5.675000 -2.520000
    endloop
  endfacet
  facet normal 0.000000 0.000000 -1.000000
    outer loop
      vertex -6.180000 7.225000 -0.320000
      vertex -3.980000 7.225000 -0.320000
      vertex -3.980000 5.675000 -0.320000
    endloop
  endfacet
  facet normal 0.000000 0.000000 -1.000000
    outer loop
      vertex -6.180000 7.225000 -0.320000
      vertex -3.980000 5.675000 -0.320000
      vertex -6.180000 5.675000 -0.320000
    endloop
  endfacet
  facet normal 0.000000 0.000000 1.000000
    outer loop
      vertex -3.980000 5.675000 -2.520000
      vertex -3.980000 7.225000 -2.520000
      vertex -6.180000 7.225000 -2.520000
    endloop
  endfacet
  facet normal 0.000000 0.000000 1.000000
    outer loop
      vertex -3.980000 5.675000 -2.520000
      vertex -6.180000 7.225000 -2.520000
      vertex -6.180000 5.675000 -2.520000
    endloop
  endfacet
  facet normal -1.000000 0.000000 0.000000
    outer loop
      vertex -3.980000 5.675000 -0.320000
      vertex -3.980000 7.225000 -0.320000
      vertex -3.980000 7.225000 -2.520000
    endloop
  endfacet
  facet normal -1.000000 0.000000 0.000000
    outer loop
      vertex -3.980000 5.675000 -0.320000
      vertex -3.980000 7.225000 -2.520000
      vertex -3.980000 5.675000 -2.520000
    endloop
  endfacet
  facet normal 1.000000 0.000000 0.000000
    outer loop
      vertex -6.180000 5.675000 -2.520000
      vertex -6.180000 7.225000 -2.520000
      vertex -6.180000 7.225000 -0.320000
    endloop
  endfacet
  facet normal 1.000000 0.000000 0.000000
    outer loop
      vertex -6.180000 5.675000 -2.520000
      vertex -6.180000 7.225000 -0.320000
      vertex -6.180000 5.675000 -0.320000
    endloop
  endfacet
  facet normal 0.000000 -1.000000 0.000000
    outer loop
      vertex -5.410000 11.200000 -1.750000
      vertex -4.750000 11.200000 -1.750000
      vertex -4.750000 11.200000 -1.090000
    endloop
  endfacet
  facet normal 0.000000 -1.000000 0.000000
    outer loop
      vertex -5.410000 11.200000 -1.750000
      vertex -4.750000 11.200000 -1.090000
      vertex -5.410000 11.200000 -1.090000
    endloop
  endfacet
  facet normal 0.000000 1.000000 0.000000
    outer loop
      vertex -5.410000 6.000000 -1.090000
      vertex -4.750000 6.000000 -1.090000
      vertex -4.750000 6.000000 -1.750000
    endloop
  endfacet
  facet normal 0.000000 1.000000 0.000000
    outer loop
      vertex -5.410000 6.000000 -1.090000
      vertex -4.750000 6.000000 -1.750000
      vertex -5.410000 6.000000 -1.750000
    endloop
  endfacet
  facet normal 0.000000 0.000000 -1.000000
    outer loop
      vertex -5.410000 11.200000 -1.090000
      vertex -4.750000 11.200000 -1.090000
      vertex -4.750000 6.000000 -1.090000
    endloop
  endfacet
  facet normal 0.000000 0.000000 -1.000000
    outer loop
      vertex -5.410000 11.200000 -1.090000
      vertex -4.750000 6.000000 -1.090000
      vertex -5.410000 6.000000 -1.090000
    endloop
  endfacet
  facet normal 0.000000 0.000000 1.000000
    outer loop
      vertex -4.750000 6.000000 -1.750000
      vertex -4.750000 11.200000 -1.750000
      vertex -5.410000 11.200000 -1.750000
    endloop
  endfacet
  facet normal 0.000000 0.000000 1.000000
    outer loop
      vertex -4.750000 6.000000 -1.750000
      vertex -5.410000 11.200000 -1.750000
      vertex -5.410000 6.000000 -1.750000
    endloop
  endfacet
  facet normal -1.000000 0.000000 0.000000
    outer loop
      vertex -4.750000 6.000000 -1.090000
      vertex -4.750000 11.200000 -1.090000
      vertex -4.750000 11.200000 -1.750000
    endloop
  endfacet
  facet normal -1.000000 0.000000 0.000000
    outer loop
      vertex -4.750000 6.000000 -1.090000
      vertex -4.750000 11.200000 -1.750000
      vertex -4.750000 6.000000 -1.750000
    endloop
  endfacet
  facet normal 1.000000 0.000000 0.000000
    outer loop
      vertex -5.410000 6.000000 -1.750000
      vertex -5.410000 11.200000 -1.750000
      vertex -5.410000 11.200000 -1.090000
    endloop
  endfacet
  facet normal 1.000000 0.000000 0.000000
    outer loop
      vertex -5.410000 6.000000 -1.750000
      vertex -5.410000 11.200000 -1.090000
      vertex -5.410000 6.000000 -1.090000
    endloop
  endfacet
  facet normal 0.000000 -1.000000 0.000000
    outer loop
      vertex -3.640000 7.225000 -2.520000
      vertex -1.440000 7.225000 -2.520000
      vertex -1.440000 7.225000 -0.320000
    endloop
  endfacet
  facet normal 0.000000 -1.000000 0.000000
    outer loop
      vertex -3.640000 7.225000 -2.520000
      vertex -1.440000 7.225000 -0.320000
      vertex -3.640000 7.225000 -0.320000
    endloop
  endfacet
  facet normal 0.000000 1.000000 0.000000
    outer loop
      vertex -3.640000 5.675000 -0.320000
      vertex -1.440000 5.675000 -0.320000
      vertex -1.440000 5.675000 -2.520000
    endloop
  endfacet
  facet normal 0.000000 1.000000 0.000000
    outer loop
      vertex -3.640000 5.675000 -0.320000
      vertex -1.440000 5.675000 -2.520000
      vertex -3.640000 5.675000 -2.520000
    endloop
  endfacet
  facet normal 0.000000 0.000000 -1.000000
    outer loop
      vertex -3.640000 7.225000 -0.320000
      vertex -1.440000 7.225000 -0.320000
      vertex -1.440000 5.675000 -0.320000
    endloop
  endfacet
  facet normal 0.000000 0.000000 -1.000000
    outer loop
      vertex -3.640000 7.225000 -0.320000
      vertex -1.440000 5.675000 -0.320000
      vertex -3.640000 5.675000 -0.320000
    endloop
  endfacet
  facet normal 0.000000 0.000000 1.000000
    outer loop
      vertex -1.440000 5.675000 -2.520000
      vertex -1.440000 7.225000 -2.520000
      vertex -3.640000 7.225000 -2.520000
    endloop
  endfacet
  facet normal 0.000000 0.000000 1.000000
    outer loop
      vertex -1.440000 5.675000 -2.520000
      vertex -3.640000 7.225000 -2.520000
      vertex -3.640000 5.675000 -2.520000
    endloop
  endfacet
  facet normal -1.000000 0.000000 0.000000
    outer loop
      vertex -1.440000 5.675000 -0.320000
      vertex -1.440000 7.225000 -0.320000
      vertex -1.440000 7.225000 -2.520000
    endloop
  endfacet
  facet normal -1.000000 0.000000 0.000000
    outer loop
      vertex -1.440000 5.675000 -0.320000
      vertex -1.440000 7.225000 -2.520000
      vertex -1.440000 5.675000 -2.520000
    endloop
  endfacet
  facet normal 1.000000 0.000000 0.000000
    outer loop
      vertex -3.640000 5.675000 -2.520000
      vertex -3.640000 7.225000 -2.520000
      vertex -3.640000 7.225000 -0.320000
    endloop
  endfacet
  facet normal 1.000000 0.000000 0.000000
    outer loop
      vertex -3.640000 5.675000 -2.520000
      vertex -3.640000 7.225000 -0.320000
      vertex -3.640000 5.675000 -0.320000
    endloop
  endfacet
  facet normal 0.000000 -1.000000 0.000000
    outer loop
      vertex -2.870000 11.200000 -1.750000
      vertex -2.210000 11.200000 -1.750000
      vertex -2.210000 11.200000 -1.090000
    endloop
  endfacet
  facet normal 0.000000 -1.000000 0.000000
    outer loop
      vertex -2.870000 11.200000 -1.750000
      vertex -2.210000 11.200000 -1.090000
      vertex -2.870000 11.200000 -1.090000
    endloop
  endfacet
  facet normal 0.000000 1.000000 0.000000
    outer loop
      vertex -2.870000 6.000000 -1.090000
      vertex -2.210000 6.000000 -1.090000
      vertex -2.210000 6.000000 -1.750000
    endloop
  endfacet
  facet normal 0.000000 1.000000 0.000000
    outer loop
      vertex -2.870000 6.000000 -1.090000
      vertex -2.210000 6.000000 -1.750000
      vertex -2.870000 6.000000 -1.750000
    endloop
  endfacet
  facet normal 0.000000 0.000000 -1.000000
    outer loop
      vertex -2.870000 11.200000 -1.090000
      vertex -2.210000 11.200000 -1.090000
      vertex -2.210000 6.000000 -1.090000
    endloop
  endfacet
  facet normal 0.000000 0.000000 -1.000000
    outer loop
      vertex -2.870000 11.200000 -1.090000
      vertex -2.210000 6.000000 -1.090000
      vertex -2.870000 6.000000 -1.090000
    endloop
  endfacet
  facet normal 0.000000 0.000000 1.000000
    outer loop
      vertex -2.210000 6.000000 -1.750000
      vertex -2.210000 11.200000 -1.750000
      vertex -2.870000 11.200000 -1.750000
    endloop
  endfacet
  facet normal 0.000000 0.000000 1.000000
    outer loop
      vertex -2.210000 6.000000 -1.750000
      vertex -2.870000 11.200000 -1.750000
      vertex -2.870000 6.000000 -1.750000
    endloop
  endfacet
  facet normal -1.000000 0.000000 0.000000
    outer loop
      vertex -2.210000 6.000000 -1.090000
      vertex -2.210000 11.200000 -1.090000
      vertex -2.210000 11.200000 -1.750000
    endloop
  endfacet
  facet normal -1.000000 0.000000 0.000000
    outer loop
      vertex -2.210000 6.000000 -1.090000
      vertex -2.210000 11.200000 -1.750000
      vertex -2.210000 6.000000 -1.750000
    endloop
  endfacet
  facet normal 1.000000 0.000000 0.000000
    outer loop
      vertex -2.870000 6.000000 -1.750000
      vertex -2.870000 11.200000 -1.750000
      vertex -2.870000 11.200000 -1.090000
    endloop
  endfacet
  facet normal 1.000000 0.000000 0.000000
    outer loop
      vertex -2.870000 6.000000 -1.750000
      vertex -2.870000 11.200000 -1.090000
      vertex -2.870000 6.000000 -1.090000
    endloop
  endfacet
  facet normal 0.000000 -1.000000 0.000000
    outer loop
      vertex -1.100000 7.225000 -2.520000
      vertex 1.100000 7.225000 -2.520000
      vertex 1.100000 7.225000 -0.320000
    endloop
  endfacet
  facet normal 0.000000 -1.000000 0.000000
    outer loop
      vertex -1.100000 7.225000 -2.520000
      vertex 1.100000 7.225000 -0.320000
      vertex -1.100000 7.225000 -0.320000
    endloop
  endfacet
  facet normal 0.000000 1.000000 0.000000
    outer loop
      vertex -1.100000 5.675000 -0.320000
      vertex 1.100000 5.675000 -0.320000
      vertex 1.100000 5.675000 -2.520000
    endloop
  endfacet
  facet normal 0.000000 1.000000 0.000000
    outer loop
      vertex -1.100000 5.675000 -0.320000
      vertex 1.100000 5.675000 -2.520000
      vertex -1.100000 5.675000 -2.520000
    endloop
  endfacet
  facet normal 0.000000 0.000000 -1.000000
    outer loop
      vertex -1.100000 7.225000 -0.320000
      vertex 1.100000 7.225000 -0.320000
      vertex 1.100000 5.675000 -0.320000
    endloop
  endfacet
  facet normal 0.000000 0.000000 -1.000000
    outer loop
      vertex -1.100000 7.225000 -0.320000
      vertex 1.100000 5.675000 -0.320000
      vertex -1.100000 5.675000 -0.320000
    endloop
  endfacet
  facet normal 0.000000 0.000000 1.000000
    outer loop
      vertex 1.100000 5.675000 -2.520000
      vertex 1.100000 7.225000 -2.520000
      vertex -1.100000 7.225000 -2.520000
    endloop
  endfacet
  facet normal 0.000000 0.000000 1.000000
    outer loop
      vertex 1.100000 5.675000 -2.520000
      vertex -1.100000 7.225000 -2.520000
      vertex -1.100000 5.675000 -2.520000
    endloop
  endfacet
  facet normal -1.000000 0.000000 0.000000
    outer loop
      vertex 1.100000 5.675000 -0.320000
      vertex 1.100000 7.225000 -0.320000
      vertex 1.100000 7.225000 -2.520000
    endloop
  endfacet
  facet normal -1.000000 0.000000 0.000000
    outer loop
      vertex 1.100000 5.675000 -0.320000
      vertex 1.100000 7.225000 -2.520000
      vertex 1.100000 5.675000 -2.520000
    endloop
  endfacet
  facet normal 1.000000 0.000000 0.000000
    outer loop
      vertex -1.100000 5.675000 -2.520000
      vertex -1.100000 7.225000 -2.520000
      vertex -1.100000 7.225000 -0.320000
    endloop
  endfacet
  facet normal 1.000000 0.000000 0.000000
    outer loop
      vertex -1.100000 5.675000 -2.520000
      vertex -1.100000 7.225000 -0.320000
      vertex -1.100000 5.675000 -0.320000
    endloop
  endfacet
  facet normal 0.000000 -1.000000 0.000000
    outer loop
      vertex -0.330000 11.200000 -1.750000
      vertex 0.330000 11.200000 -1.750000
      vertex 0.330000 11.200000 -1.090000
    endloop
  endfacet
  facet normal 0.000000 -1.000000 0.000000
    outer loop
      vertex -0.330000 11.200000 -1.750000
      vertex 0.330000 11.200000 -1.090000
      vertex -0.330000 11.200000 -1.090000
    endloop
  endfacet
  facet normal 0.000000 1.000000 0.000000
    outer loop
      vertex -0.330000 6.000000 -1.090000
      vertex 0.330000 6.000000 -1.090000
      vertex 0.330000 6.000000 -1.750000
    endloop
  endfacet
  facet normal 0.000000 1.000000 0.000000
    outer loop
      vertex -0.330000 6.000000 -1.090000
      vertex 0.330000 6.000000 -1.750000
      vertex -0.330000 6.000000 -1.750000
    endloop
  endfacet
  facet normal 0.000000 0.000000 -1.000000
    outer loop
      vertex -0.330000 11.200000 -1.090000
      vertex 0.330000 11.200000 -1.090000
      vertex 0.330000 6.000000 -1.090000
    endloop
  endfacet
  facet normal 0.000000 0.000000 -1.000000
    outer loop
      vertex -0.330000 11.200000 -1.090000
      vertex 0.330000 6.000000 -1.090000
      vertex -0.330000 6.000000 -1.090000
    endloop
  endfacet
  facet normal 0.000000 0.000000 1.000000
    outer loop
      vertex 0.330000 6.000000 -1.750000
      vertex 0.330000 11.200000 -1.750000
      vertex -0.330000 11.200000 -1.750000
    endloop
  endfacet
  facet normal 0.000000 0.000000 1.000000
    outer loop
      vertex 0.330000 6.000000 -1.750000
      vertex -0.330000 11.200000 -1.750000
      vertex -0.330000 6.000000 -1.750000
    endloop
  endfacet
  facet normal -1.000000 0.000000 0.000000
    outer loop
      vertex 0.330000 6.000000 -1.090000
      vertex 0.330000 11.200000 -1.090000
      vertex 0.330000 11.200000 -1.750000
    endloop
  endfacet
  facet normal -1.000000 0.000000 0.000000
    outer loop
      vertex 0.330000 6.000000 -1.090000
      vertex 0.330000 11.200000 -1.750000
      vertex 0.330000 6.000000 -1.750000
    endloop
  endfacet
  facet normal 1.000000 0.000000 0.000000
    outer loop
      vertex -0.330000 6.000000 -1.750000
      vertex -0.330000 11.200000 -1.750000
      vertex -0.330000 11.200000 -1.090000
    endloop
  endfacet
  facet normal 1.000000 0.000000 0.000000
    outer loop
      vertex -0.330000 6.000000 -1.750000
      vertex -0.330000 11.200000 -1.090000
      vertex -0.330000 6.000000 -1.090000
    endloop
  endfacet
  facet normal 0.000000 -1.000000 0.000000
    outer loop
      vertex 1.440000 7.225000 -2.520000
      vertex 3.640000 7.225000 -2.520000
      vertex 3.640000 7.225000 -0.320000
    endloop
  endfacet
  facet normal 0.000000 -1.000000 0.000000
    outer loop
      vertex 1.440000 7.225000 -2.520000
      vertex 3.640000 7.225000 -0.320000
      vertex 1.440000 7.225000 -0.320000
    endloop
  endfacet
  facet normal 0.000000 1.000000 0.000000
    outer loop
      vertex 1.440000 5.675000 -0.320000
      vertex 3.640000 5.675000 -0.320000
      vertex 3.640000 5.675000 -2.520000
    endloop
  endfacet
  facet normal 0.000000 1.000000 0.000000
    outer loop
      vertex 1.440000 5.675000 -0.320000
      vertex 3.640000 5.675000 -2.520000
      vertex 1.440000 5.675000 -2.520000
    endloop
  endfacet
  facet normal 0.000000 0.000000 -1.000000
    outer loop
      vertex 1.440000 7.225000 -0.320000
      vertex 3.640000 7.225000 -0.320000
      vertex 3.640000 5.675000 -0.320000
    endloop
  endfacet
  facet normal 0.000000 0.000000 -1.000000
    outer loop
      vertex 1.440000 7.225000 -0.320000
      vertex 3.640000 5.675000 -0.320000
      vertex 1.440000 5.675000 -0.320000
    endloop
  endfacet
  facet normal 0.000000 0.000000 1.000000
    outer loop
      vertex 3.640000 5.675000 -2.520000
      vertex 3.640000 7.225000 -2.520000
      vertex 1.440000 7.225000 -2.520000
    endloop
  endfacet
  facet normal 0.000000 0.000000 1.000000
    outer loop
      vertex 3.640000 5.675000 -2.520000
      vertex 1.440000 7.225000 -2.520000
      vertex 1.440000 5.675000 -2.520000
    endloop
  endfacet
  facet normal -1.000000 0.000000 0.000000
    outer loop
      vertex 3.640000 5.675000 -0.320000
      vertex 3.640000 7.225000 -0.320000
      vertex 3.640000 7.225000 -2.520000
    endloop
  endfacet
  facet normal -1.000000 0.000000 0.000000
    outer loop
      vertex 3.640000 5.675000 -0.320000
      vertex 3.640000 7.225000 -2.520000
      vertex 3.640000 5.675000 -2.520000
    endloop
  endfacet
  facet normal 1.000000 0.000000 0.000000
    outer loop
      vertex 1.440000 5.675000 -2.520000
      vertex 1.440000 7.225000 -2.520000
      vertex 1.440000 7.225000 -0.320000
    endloop
  endfacet
  facet normal 1.000000 0.000000 0.000000
    outer loop
      vertex 1.440000 5.675000 -2.520000
      vertex 1.440000 7.225000 -0.320000
      vertex 1.440000 5.675000 -0.320000
    endloop
  endfacet
  facet normal 0.000000 -1.000000 0.000000
    outer loop
      vertex 2.210000 11.200000 -1.750000
      vertex 2.870000 11.200000 -1.750000
      vertex 2.870000 11.200000 -1.090000
    endloop
  endfacet
  facet normal 0.000000 -1.000000 0.000000
    outer loop
      vertex 2.210000 11.200000 -1.750000
      vertex 2.870000 11.200000 -1.090000
      vertex 2.210000 11.200000 -1.090000
    endloop
  endfacet
  facet normal 0.000000 1.000000 0.000000
    outer loop
      vertex 2.210000 6.000000 -1.090000
      vertex 2.870000 6.000000 -1.090000
      vertex 2.870000 6.000000 -1.750000
    endloop
  endfacet
  facet normal 0.000000 1.000000 0.000000
    outer loop
      vertex 2.210000 6.000000 -1.090000
      vertex 2.870000 6.000000 -1.750000
      vertex 2.210000 6.000000 -1.750000
    endloop
  endfacet
  facet normal 0.000000 0.000000 -1.000000
    outer loop
      vertex 2.210000 11.200000 -1.090000
      vertex 2.870000 11.200000 -1.090000
      vertex 2.870000 6.000000 -1.090000
    endloop
  endfacet
  facet normal 0.000000 0.000000 -1.000000
    outer loop
      vertex 2.210000 11.200000 -1.090000
      vertex 2.870000 6.000000 -1.090000
      vertex 2.210000 6.000000 -1.090000
    endloop
  endfacet
  facet normal 0.000000 0.000000 1.000000
    outer loop
      vertex 2.870000 6.000000 -1.750000
      vertex 2.870000 11.200000 -1.750000
      vertex 2.210000 11.200000 -1.750000
    endloop
  endfacet
  facet normal 0.000000 0.000000 1.000000
    outer loop
      vertex 2.870000 6.000000 -1.750000
      vertex 2.210000 11.200000 -1.750000
      vertex 2.210000 6.000000 -1.750000
    endloop
  endfacet
  facet normal -1.000000 0.000000 0.000000
    outer loop
      vertex 2.870000 6.000000 -1.090000
      vertex 2.870000 11.200000 -1.090000
      vertex 2.870000 11.200000 -1.750000
    endloop
  endfacet
  facet normal -1.000000 0.000000 0.000000
    outer loop
      vertex 2.870000 6.000000 -1.090000
      vertex 2.870000 11.200000 -1.750000
      vertex 2.870000 6.000000 -1.750000
    endloop
  endfacet
  facet normal 1.000000 0.000000 0.000000
    outer loop
      vertex 2.210000 6.000000 -1.750000
      vertex 2.210000 11.200000 -1.750000
      vertex 2.210000 11.200000 -1.090000
    endloop
  endfacet
  facet normal 1.000000 0.000000 0.000000
    outer loop
      vertex 2.210000 6.000000 -1.750000
      vertex 2.210000 11.200000 -1.090000
      vertex 2.210000 6.000000 -1.090000
    endloop
  endfacet
  facet normal 0.000000 -1.000000 0.000000
    outer loop
      vertex 3.980000 7.225000 -2.520000
      vertex 6.180000 7.225000 -2.520000
      vertex 6.180000 7.225000 -0.320000
    endloop
  endfacet
  facet normal 0.000000 -1.000000 0.000000
    outer loop
      vertex 3.980000 7.225000 -2.520000
      vertex 6.180000 7.225000 -0.320000
      vertex 3.980000 7.225000 -0.320000
    endloop
  endfacet
  facet normal 0.000000 1.000000 0.000000
    outer loop
      vertex 3.980000 5.675000 -0.320000
      vertex 6.180000 5.675000 -0.320000
      vertex 6.180000 5.675000 -2.520000
    endloop
  endfacet
  facet normal 0.000000 1.000000 0.000000
    outer loop
      vertex 3.980000 5.675000 -0.320000
      vertex 6.180000 5.675000 -2.520000
      vertex 3.980000 5.675000 -2.520000
    endloop
  endfacet
  facet normal 0.000000 0.000000 -1.000000
    outer loop
      vertex 3.980000 7.225000 -0.320000
      vertex 6.180000 7.225000 -0.320000
      vertex 6.180000 5.675000 -0.320000
    endloop
  endfacet
  facet normal 0.000000 0.000000 -1.000000
    outer loop
      vertex 3.980000 7.225000 -0.320000
      vertex 6.180000 5.675000 -0.320000
      vertex 3.980000 5.675000 -0.320000
    endloop
  endfacet
  facet normal 0.000000 0.000000 1.000000
    outer loop
      vertex 6.180000 5.675000 -2.520000
      vertex 6.180000 7.225000 -2.520000
      vertex 3.980000 7.225000 -2.520000
    endloop
  endfacet
  facet normal 0.000000 0.000000 1.000000
    outer loop
      vertex 6.180000 5.675000 -2.520000
      vertex 3.980000 7.225000 -2.520000
      vertex 3.980000 5.675000 -2.520000
    endloop
  endfacet
  facet normal -1.000000 0.000000 0.000000
    outer loop
      vertex 6.180000 5.675000 -0.320000
      vertex 6.180000 7.225000 -0.320000
      vertex 6.180000 7.225000 -2.520000
    endloop
  endfacet
  facet normal -1.000000 0.000000 0.000000
    outer loop
      vertex 6.180000 5.675000 -0.320000
      vertex 6.180000 7.225000 -2.520000
      vertex 6.180000 5.675000 -2.520000
    endloop
  endfacet
  facet normal 1.000000 0.000000 0.000000
    outer loop
      vertex 3.980000 5.675000 -2.520000
      vertex 3.980000 7.225000 -2.520000
      vertex 3.980000 7.225000 -0.320000
    endloop
  endfacet
  facet normal 1.000000 0.000000 0.000000
    outer loop
      vertex 3.980000 5.675000 -2.520000
      vertex 3.980000 7.225000 -0.320000
      vertex 3.980000 5.675000 -0.320000
    endloop
  endfacet
  facet normal 0.000000 -1.000000 0.000000
    outer loop
      vertex 4.750000 11.200000 -1.750000
      vertex 5.410000 11.200000 -1.750000
      vertex 5.410000 11.200000 -1.090000
    endloop
  endfacet
  facet normal 0.000000 -1.000000 0.000000
    outer loop
      vertex 4.750000 11.200000 -1.750000
      vertex 5.410000 11.200000 -1.090000
      vertex 4.750000 11.200000 -1.090000
    endloop
  endfacet
  facet normal 0.000000 1.000000 0.000000
    outer loop
      vertex 4.750000 6.000000 -1.090000
      vertex 5.410000 6.000000 -1.090000
      vertex 5.410000 6.000000 -1.750000
    endloop
  endfacet
  facet normal 0.000000 1.000000 0.000000
    outer loop
      vertex 4.750000 6.000000 -1.090000
      vertex 5.410000 6.000000 -1.750000
      vertex 4.750000 6.000000 -1.750000
    endloop
  endfacet
  facet normal 0.000000 0.000000 -1.000000
    outer loop
      vertex 4.750000 11.200000 -1.090000
      vertex 5.410000 11.200000 -1.090000
      vertex 5.410000 6.000000 -1.090000
    endloop
  endfacet
  facet normal 0.000000 0.000000 -1.000000
    outer loop
      vertex 4.750000 11.200000 -1.090000
      vertex 5.410000 6.000000 -1.090000
      vertex 4.750000 6.000000 -1.090000
    endloop
  endfacet
  facet normal 0.000000 0.000000 1.000000
    outer loop
      vertex 5.410000 6.000000 -1.750000
      vertex 5.410000 11.200000 -1.750000
      vertex 4.750000 11.200000 -1.750000
    endloop
  endfacet
  facet normal 0.000000 0.000000 1.000000
    outer loop
      vertex 5.410000 6.000000 -1.750000
      vertex 4.750000 11.200000 -1.750000
      vertex 4.750000 6.000000 -1.750000
    endloop
  endfacet
  facet normal -1.000000 0.000000 0.000000
    outer loop
      vertex 5.410000 6.000000 -1.090000
      vertex 5.410000 11.200000 -1.090000
      vertex 5.410000 11.200000 -1.750000
    endloop
  endfacet
  facet normal -1.000000 0.000000 0.000000
    outer loop
      vertex 5.410000 6.000000 -1.090000
      vertex 5.410000 11.200000 -1.750000
      vertex 5.410000 6.000000 -1.750000
    endloop
  endfacet
  facet normal 1.000000 0.000000 0.000000
    outer loop
      vertex 4.750000 6.000000 -1.750000
      vertex 4.750000 11.200000 -1.750000
      vertex 4.750000 11.200000 -1.090000
    endloop
  endfacet
  facet normal 1.000000 0.000000 0.000000
    outer loop
      vertex 4.750000 6.000000 -1.750000
      vertex 4.750000 11.200000 -1.090000
      vertex 4.750000 6.000000 -1.090000
    endloop
  endfacet
  facet normal 0.000000 -1.000000 0.000000
    outer loop
      vertex -1.100000 7.225000 0.020000
      vertex 1.100000 7.225000 0.020000
      vertex 1.100000 7.225000 2.220000
    endloop
  endfacet
  facet normal 0.000000 -1.000000 0.000000
    outer loop
      vertex -1.100000 7.225000 0.020000
      vertex 1.100000 7.225000 2.220000
      vertex -1.100000 7.225000 2.220000
    endloop
  endfacet
  facet normal 0.000000 1.000000 0.000000
    outer loop
      vertex -1.100000 5.675000 2.220000
      vertex 1.100000 5.675000 2.220000
      vertex 1.100000 5.675000 0.020000
    endloop
  endfacet
  facet normal 0.000000 1.000000 0.000000
    outer loop
      vertex -1.100000 5.675000 2.220000
      vertex 1.100000 5.675000 0.020000
      vertex -1.100000 5.675000 0.020000
    endloop
  endfacet
  facet normal 0.000000 0.000000 -1.000000
    outer loop
      vertex -1.100000 7.225000 2.220000
      vertex 1.100000 7.225000 2.220000
      vertex 1.100000 5.675000 2.220000
    endloop
  endfacet
  facet normal 0.000000 0.000000 -1.000000
    outer loop
      vertex -1.100000 7.225000 2.220000
      vertex 1.100000 5.675000 2.220000
      vertex -1.100000 5.675000 2.220000
    endloop
  endfacet
  facet normal 0.000000 0.000000 1.000000
    outer loop
      vertex 1.100000 5.675000 0.020000
      vertex 1.100000 7.225000 0.020000
      vertex -1.100000 7.225000 0.020000
    endloop
  endfacet
  facet normal 0.000000 0.000000 1.000000
    outer loop
      vertex 1.100000 5.675000 0.020000
      vertex -1.100000 7.225000 0.020000
      vertex -1.100000 5.675000 0.020000
    endloop
  endfacet
  facet normal -1.000000 0.000000 0.000000
    outer loop
      vertex 1.100000 5.675000 2.220000
      vertex 1.100000 7.225000 2.220000
      vertex 1.100000 7.225000 0.020000
    endloop
  endfacet
  facet normal -1.000000 0.000000 0.000000
    outer loop
      vertex 1.100000 5.675000 2.220000
      vertex 1.100000 7.225000 0.020000
      vertex 1.100000 5.675000 0.020000
    endloop
  endfacet
  facet normal 1.000000 0.000000 0.000000
    outer loop
      vertex -1.100000 5.675000 0.020000
      vertex -1.100000 7.225000 0.020000
      vertex -1.100000 7.225000 2.220000
    endloop
  endfacet
  facet normal 1.000000 0.000000 0.000000
    outer loop
      vertex -1.100000 5.675000 0.020000
      vertex -1.100000 7.225000 2.220000
      vertex -1.100000 5.675000 2.220000
    endloop
  endfacet
  facet normal 0.000000 -1.000000 0.000000
    outer loop
      vertex -0.330000 11.200000 0.790000
      vertex 0.330000 11.200000 0.790000
      vertex 0.330000 11.200000 1.450000
    endloop
  endfacet
  facet normal 0.000000 -1.000000 0.000000
    outer loop
      vertex -0.330000 11.200000 0.790000
      vertex 0.330000 11.200000 1.450000
      vertex -0.330000 11.200000 1.450000
    endloop
  endfacet
  facet normal 0.000000 1.000000 0.000000
    outer loop
      vertex -0.330000 6.000000 1.450000
      vertex 0.330000 6.000000 1.450000
      vertex 0.330000 6.000000 0.790000
    endloop
  endfacet
  facet normal 0.000000 1.000000 0.000000
    outer loop
      vertex -0.330000 6.000000 1.450000
      vertex 0.330000 6.000000 0.790000
      vertex -0.330000 6.000000 0.790000
    endloop
  endfacet
  facet normal 0.000000 0.000000 -1.000000
    outer loop
      vertex -0.330000 11.200000 1.450000
      vertex 0.330000 11.200000 1.450000
      vertex 0.330000 6.000000 1.450000
    endloop
  endfacet
  facet normal 0.000000 0.000000 -1.000000
    outer loop
      vertex -0.330000 11.200000 1.450000
      vertex 0.330000 6.000000 1.450000
      vertex -0.330000 6.000000 1.450000
    endloop
  endfacet
  facet normal 0.000000 0.000000 1.000000
    outer loop
      vertex 0.330000 6.000000 0.790000
      vertex 0.330000 11.200000 0.790000
      vertex -0.330000 11.200000 0.790000
    endloop
  endfacet
  facet normal 0.000000 0.000000 1.000000
    outer loop
      vertex 0.330000 6.000000 0.790000
      vertex -0.330000 11.200000 0.790000
      vertex -0.330000 6.000000 0.790000
    endloop
  endfacet
  facet normal -1.000000 0.000000 0.000000
    outer loop
      vertex 0.330000 6.000000 1.450000
      vertex 0.330000 11.200000 1.450000
      vertex 0.330000 11.200000 0.790000
    endloop
  endfacet
  facet normal -1.000000 0.000000 0.000000
    outer loop
      vertex 0.330000 6.000000 1.450000
      vertex 0.330000 11.200000 0.790000
      vertex 0.330000 6.000000 0.790000
    endloop
  endfacet
  facet normal 1.000000 0.000000 0.000000
    outer loop
      vertex -0.330000 6.000000 0.790000
      vertex -0.330000 11.200000 0.790000
      vertex -0.330000 11.200000 1.450000
    endloop
  endfacet
  facet normal 1.000000 0.000000 0.000000
    outer loop
      vertex -0.330000 6.000000 0.790000
      vertex -0.330000 11.200000 1.450000
      vertex -0.330000 6.000000 1.450000
    endloop
  endfacet
  facet normal 0.000000 -1.000000 0.000000
    outer loop
      vertex -4.500000 3.350000 -3.000000
      vertex 4.500000 3.350000 -3.000000
      vertex 4.500000 3.350000 3.000000
    endloop
  endfacet
  facet normal 0.000000 -1.000000 0.000000
    outer loop
      vertex -4.500000 3.350000 -3.000000
      vertex 4.500000 3.350000 3.000000
      vertex -4.500000 3.350000 3.000000
    endloop
  endfacet
  facet normal 0.000000 1.000000 0.000000
    outer loop
      vertex -4.500000 2.250000 3.000000
      vertex 4.500000 2.250000 3.000000
      vertex 4.500000 2.250000 -3.000000
    endloop
  endfacet
  facet normal 0.000000 1.000000 0.000000
    outer loop
      vertex -4.500000 2.250000 3.000000
      vertex 4.500000 2.250000 -3.000000
      vertex -4.500000 2.250000 -3.000000
    endloop
  endfacet
  facet normal 0.000000 0.000000 -1.000000
    outer loop
      vertex -4.500000 3.350000 3.000000
      vertex 4.500000 3.350000 3.000000
      vertex 4.500000 2.250000 3.000000
    endloop
  endfacet
  facet normal 0.000000 0.000000 -1.000000
    outer loop
      vertex -4.500000 3.350000 3.000000
      vertex 4.500000 2.250000 3.000000
      vertex -4.500000 2.250000 3.000000
    endloop
  endfacet
  facet normal 0.000000 0.000000 1.000000
    outer loop
      vertex 4.500000 2.250000 -3.000000
      vertex 4.500000 3.350000 -3.000000
      vertex -4.500000 3.350000 -3.000000
    endloop
  endfacet
  facet normal 0.000000 0.000000 1.000000
    outer loop
      vertex 4.500000 2.250000 -3.000000
      vertex -4.500000 3.350000 -3.000000
      vertex -4.500000 2.250000 -3.000000
    endloop
  endfacet
  facet normal -1.000000 0.000000 0.000000
    outer loop
      vertex 4.500000 2.250000 3.000000
      vertex 4.500000 3.350000 3.000000
      vertex 4.500000 3.350000 -3.000000
    endloop
  endfacet
  facet normal -1.000000 0.000000 0.000000
    outer loop
      vertex 4.500000 2.250000 3.000000
      vertex 4.500000 3.350000 -3.000000
      vertex 4.500000 2.250000 -3.000000
    endloop
  endfacet
  facet normal 1.000000 0.000000 0.000000
    outer loop
      vertex -4.500000 2.250000 -3.000000
      vertex -4.500000 3.350000 -3.000000
      vertex -4.500000 3.350000 3.000000
    endloop
  endfacet
  facet normal 1.000000 0.000000 0.000000
    outer loop
      vertex -4.500000 2.250000 -3.000000
      vertex -4.500000 3.350000 3.000000
      vertex -4.500000 2.250000 3.000000
    endloop
  endfacet
  facet normal 0.000000 -1.000000 0.000000
    outer loop
      vertex -11.350000 4.000000 -6.200000
      vertex 1.350000 4.000000 -6.200000
      vertex 1.350000 4.000000 -3.800000
    endloop
  endfacet
  facet normal 0.000000 -1.000000 0.000000
    outer loop
      vertex -11.350000 4.000000 -6.200000
      vertex 1.350000 4.000000 -3.800000
      vertex -11.350000 4.000000 -3.800000
    endloop
  endfacet
  facet normal 0.000000 1.000000 0.000000
    outer loop
      vertex -11.350000 1.600000 -3.800000
      vertex 1.350000 1.600000 -3.800000
      vertex 1.350000 1.600000 -6.200000
    endloop
  endfacet
  facet normal 0.000000 1.000000 0.000000
    outer loop
      vertex -11.350000 1.600000 -3.800000
      vertex 1.350000 1.600000 -6.200000
      vertex -11.350000 1.600000 -6.200000
    endloop
  endfacet
  facet normal 0.000000 0.000000 -1.000000
    outer loop
      vertex -11.350000 4.000000 -3.800000
      vertex 1.350000 4.000000 -3.800000
      vertex 1.350000 1.600000 -3.800000
    endloop
  endfacet
  facet normal 0.000000 0.000000 -1.000000
    outer loop
      vertex -11.350000 4.000000 -3.800000
      vertex 1.350000 1.600000 -3.800000
      vertex -11.350000 1.600000 -3.800000
    endloop
  endfacet
  facet normal 0.000000 0.000000 1.000000
    outer loop
      vertex 1.350000 1.600000 -6.200000
      vertex 1.350000 4.000000 -6.200000
      vertex -11.350000 4.000000 -6.200000
    endloop
  endfacet
  facet normal 0.000000 0.000000 1.000000
    outer loop
      vertex 1.350000 1.600000 -6.200000
      vertex -11.350000 4.000000 -6.200000
      vertex -11.350000 1.600000 -6.200000
    endloop
  endfacet
  facet normal -1.000000 0.000000 0.000000
    outer loop
      vertex 1.350000 1.600000 -3.800000
      vertex 1.350000 4.000000 -3.800000
      vertex 1.350000 4.000000 -6.200000
    endloop
  endfacet
  facet normal -1.000000 0.000000 0.000000
    outer loop
      vertex 1.350000 1.600000 -3.800000
      vertex 1.350000 4.000000 -6.200000
      vertex 1.350000 1.600000 -6.200000
    endloop
  endfacet
  facet normal 1.000000 0.000000 0.000000
    outer loop
      vertex -11.350000 1.600000 -6.200000
      vertex -11.350000 4.000000 -6.200000
      vertex -11.350000 4.000000 -3.800000
    endloop
  endfacet
  facet normal 1.000000 0.000000 0.000000
    outer loop
      vertex -11.350000 1.600000 -6.200000
      vertex -11.350000 4.000000 -3.800000
      vertex -11.350000 1.600000 -3.800000
    endloop
  endfacet
  facet normal 0.000000 -1.000000 0.000000
    outer loop
      vertex -1.350000 4.000000 3.800000
      vertex 11.350000 4.000000 3.800000
      vertex 11.350000 4.000000 6.200000
    endloop
  endfacet
  facet normal 0.000000 -1.000000 0.000000
    outer loop
      vertex -1.350000 4.000000 3.800000
      vertex 11.350000 4.000000 6.200000
      vertex -1.350000 4.000000 6.200000
    endloop
  endfacet
  facet normal 0.000000 1.000000 0.000000
    outer loop
      vertex -1.350000 1.600000 6.200000
      vertex 11.350000 1.600000 6.200000
      vertex 11.350000 1.600000 3.800000
    endloop
  endfacet
  facet normal 0.000000 1.000000 0.000000
    outer loop
      vertex -1.350000 1.600000 6.200000
      vertex 11.350000 1.600000 3.800000
      vertex -1.350000 1.600000 3.800000
    endloop
  endfacet
  facet normal 0.000000 0.000000 -1.000000
    outer loop
      vertex -1.350000 4.000000 6.200000
      vertex 11.350000 4.000000 6.200000
      vertex 11.350000 1.600000 6.200000
    endloop
  endfacet
  facet normal 0.000000 0.000000 -1.000000
    outer loop
      vertex -1.350000 4.000000 6.200000
      vertex 11.350000 1.600000 6.200000
      vertex -1.350000 1.600000 6.200000
    endloop
  endfacet
  facet normal 0.000000 0.000000 1.000000
    outer loop
      vertex 11.350000 1.600000 3.800000
      vertex 11.350000 4.000000 3.800000
      vertex -1.350000 4.000000 3.800000
    endloop
  endfacet
  facet normal 0.000000 0.000000 1.000000
    outer loop
      vertex 11.350000 1.600000 3.800000
      vertex -1.350000 4.000000 3.800000
      vertex -1.350000 1.600000 3.800000
    endloop
  endfacet
  facet normal -1.000000 0.000000 0.000000
    outer loop
      vertex 11.350000 1.600000 6.200000
      vertex 11.350000 4.000000 6.200000
      vertex 11.350000 4.000000 3.800000
    endloop
  endfacet
  facet normal -1.000000 0.000000 0.000000
    outer loop
      vertex 11.350000 1.600000 6.200000
      vertex 11.350000 4.000000 3.800000
      vertex 11.350000 1.600000 3.800000
    endloop
  endfacet
  facet normal 1.000000 0.000000 0.000000
    outer loop
      vertex -1.350000 1.600000 3.800000
      vertex -1.350000 4.000000 3.800000
      vertex -1.350000 4.000000 6.200000
    endloop
  endfacet
  facet normal 1.000000 0.000000 0.000000
    outer loop
      vertex -1.350000 1.600000 3.800000
      vertex -1.350000 4.000000 6.200000
      vertex -1.350000 1.600000 6.200000
    endloop
  endfacet
endsolid logic_level_shifter_4ch