solid buck_converter_lm2596
  facet normal 0.000000 -1.000000 0.000000
    outer loop
      vertex -21.500000 1.600000 -10.500000
      vertex 21.500000 1.600000 -10.500000
      vertex 21.500000 1.600000 10.500000
    endloop
  endfacet
  facet normal 0.000000 -1.000000 0.000000
    outer loop
      vertex -21.500000 1.600000 -10.500000
      vertex 21.500000 1.600000 10.500000
      vertex -21.500000 1.600000 10.500000
    endloop
  endfacet
  facet normal 0.000000 1.000000 0.000000
    outer loop
      vertex -21.500000 0.000000 10.500000
      vertex 21.500000 0.000000 10.500000
      vertex 21.500000 0.000000 -10.500000
    endloop
  endfacet
  facet normal 0.000000 1.000000 0.000000
    outer loop
      vertex -21.500000 0.000000 10.500000
      vertex 21.500000 0.000000 -10.500000
      vertex -21.500000 0.000000 -10.500000
    endloop
  endfacet
  facet normal 0.000000 0.000000 -1.000000
    outer loop
      vertex -21.500000 1.600000 10.500000
      vertex 21.500000 1.600000 10.500000
      vertex 21.500000 0.000000 10.500000
    endloop
  endfacet
  facet normal 0.000000 0.000000 -1.000000
    outer loop
      vertex -21.500000 1.600000 10.500000
      vertex 21.500000 0.000000 10.500000
      vertex -21.500000 0.000000 10.500000
    endloop
  endfacet
  facet normal 0.000000 0.000000 1.000000
    outer loop
      vertex 21.500000 0.000000 -10.500000
      vertex 21.500000 1.600000 -10.500000
      vertex -21.500000 1.600000 -10.500000
    endloop
  endfacet
  facet normal 0.000000 0.000000 1.000000
    outer loop
      vertex 21.500000 0.000000 -10.500000
      vertex -21.500000 1.600000 -10.500000
      vertex -21.500000 0.000000 -10.500000
    endloop
  endfacet
  facet normal -1.000000 0.000000 0.000000
    outer loop
      vertex 21.500000 0.000000 10.500000
      vertex 21.500000 1.600000 10.500000
      vertex 21.500000 1.600000 -10.500000
    endloop
  endfacet
  facet normal -1.000000 0.000000 0.000000
    outer loop
      vertex 21.500000 0.000000 10.500000
      vertex 21.500000 1.600000 -10.500000
      vertex 21.500000 0.000000 -10.500000
    endloop
  endfacet
  facet normal 1.000000 0.000000 0.000000
    outer loop
      vertex -21.500000 0.000000 -10.500000
      vertex -21.500000 1.600000 -10.500000
      vertex -21.500000 1.600000 10.500000
    endloop
  endfacet
  facet normal 1.000000 0.000000 0.000000
    outer loop
      vertex -21.500000 0.000000 -10.500000
      vertex -21.500000 1.600000 10.500000
      vertex -21.500000 0.000000 10.500000
    endloop
  endfacet
  facet normal 0.000000 -1.000000 0.000000
    outer loop
      vertex -4.910000 7.225000 -9.060000
      vertex -2.710000 7.225000 -9.060000
      vertex -2.710000 7.225000 -6.860000
    endloop
  endfacet
  facet normal 0.000000 -1.000000 0.000000
    outer loop
      vertex -4.910000 7.225000 -9.060000
      vertex -2.710000 7.225000 -6.860000
      vertex -4.910000 7.225000 -6.860000
    endloop
  endfacet
  facet normal 0.000000 1.000000 0.000000
    outer loop
      vertex -4.910000 5.675000 -6.860000
      vertex -2.710000 5.675000 -6.860000
      vertex -2.710000 5.675000 -9.060000
    endloop
  endfacet
  facet normal 0.000000 1.000000 0.000000
    outer loop
      vertex -4.910000 5.675000 -6.860000
      vertex -2.710000 5.675000 -9.060000
      vertex -4.910000 5.675000 -9.060000
    endloop
  endfacet
  facet normal 0.000000 0.000000 -1.000000
    outer loop
      vertex -4.910000 7.225000 -6.860000
      vertex -2.710000 7.225000 -6.860000
      vertex -2.710000 5.675000 -6.860000
    endloop
  endfacet
  facet normal 0.000000 0.000000 -1.000000
    outer loop
      vertex -4.910000 7.225000 -6.860000
      vertex -2.710000 5.675000 -6.860000
      vertex -4.910000 5.675000 -6.860000
    endloop
  endfacet
  facet normal 0.000000 0.000000 1.000000
    outer loop
      vertex -2.710000 5.675000 -9.060000
      vertex -2.710000 7.225000 -9.060000
      vertex -4.910000 7.225000 -9.060000
    endloop
  endfacet
  facet normal 0.000000 0.000000 1.000000
    outer loop
      vertex -2.710000 5.675000 -9.060000
      vertex -4.910000 7.225000 -9.060000
      vertex -4.910000 5.675000 -9.060000
    endloop
  endfacet
  facet normal -1.000000 0.000000 0.000000
    outer loop
      vertex -2.710000 5.675000 -6.860000
      vertex -2.710000 7.225000 -6.860000
      vertex -2.710000 7.225000 -9.060000
    endloop
  endfacet
  facet normal -1.000000 0.000000 0.000000
    outer loop
      vertex -2.710000 5.675000 -6.860000
      vertex -2.710000 7.225000 -9.060000
      vertex -2.710000 5.675000 -9.060000
    endloop
  endfacet
  facet normal 1.000000 0.000000 0.000000
    outer loop
      vertex -4.910000 5.675000 -9.060000
      vertex -4.910000 7.225000 -9.060000
      vertex -4.910000 7.225000 -6.860000
    endloop
  endfacet
  facet normal 1.000000 0.000000 0.000000
    outer loop
      vertex -4.910000 5.675000 -9.060000
      vertex -4.910000 7.225000 -6.860000
      vertex -4.910000 5.675000 -6.860000
    endloop
  endfacet
  facet normal 0.000000 -1.000000 0.000000
    outer loop
      vertex -4.140000 11.200000 -8.290000
      vertex -3.480000 11.200000 -8.290000
      vertex -3.480000 11.200000 -7.630000
    endloop
  endfacet
  facet normal 0.000000 -1.000000 0.000000
    outer loop
      vertex -4.140000 11.200000 -8.290000
      vertex -3.480000 11.200000 -7.630000
      vertex -4.140000 11.200000 -7.630000
    endloop
  endfacet
  facet normal 0.000000 1.000000 0.000000
    outer loop
      vertex -4.140000 6.000000 -7.630000
      vertex -3.480000 6.000000 -7.630000
      vertex -3.480000 6.000000 -8.290000
    endloop
  endfacet
  facet normal 0.000000 1.000000 0.000000
    outer loop
      vertex -4.140000 6.000000 -7.630000
      vertex -3.480000 6.000000 -8.290000
      vertex -4.140000 6.000000 -8.290000
    endloop
  endfacet
  facet normal 0.000000 0.000000 -1.000000
    outer loop
      vertex -4.140000 11.200000 -7.630000
      vertex -3.480000 11.200000 -7.630000
      vertex -3.480000 6.000000 -7.630000
    endloop
  endfacet
  facet normal 0.000000 0.000000 -1.000000
    outer loop
      vertex -4.140000 11.200000 -7.630000
      vertex -3.480000 6.000000 -7.630000
      vertex -4.140000 6.000000 -7.630000
    endloop
  endfacet
  facet normal 0.000000 0.000000 1.000000
    outer loop
      vertex -3.480000 6.000000 -8.290000
      vertex -3.480000 11.200000 -8.290000
      vertex -4.140000 11.200000 -8.290000
    endloop
  endfacet
  facet normal 0.000000 0.000000 1.000000
    outer loop
      vertex -3.480000 6.000000 -8.290000
      vertex -4.140000 11.200000 -8.290000
      vertex -4.140000 6.000000 -8.290000
    endloop
  endfacet
  facet normal -1.000000 0.000000 0.000000
    outer loop
      vertex -3.480000 6.000000 -7.630000
      vertex -3.480000 11.200000 -7.630000
      vertex -3.480000 11.200000 -8.290000
    endloop
  endfacet
  facet normal -1.000000 0.000000 0.000000
    outer loop
      vertex -3.480000 6.000000 -7.630000
      vertex -3.480000 11.200000 -8.290000
      vertex -3.480000 6.000000 -8.290000
    endloop
  endfacet
  facet normal 1.000000 0.000000 0.000000
    outer loop
      vertex -4.140000 6.000000 -8.290000
      vertex -4.140000 11.200000 -8.290000
      vertex -4.140000 11.200000 -7.630000
    endloop
  endfacet
  facet normal 1.000000 0.000000 0.000000
    outer loop
      vertex -4.140000 6.000000 -8.290000
      vertex -4.140000 11.200000 -7.630000
      vertex -4.140000 6.000000 -7.630000
    endloop
  endfacet
  facet normal 0.000000 -1.000000 0.000000
    outer loop
      vertex -2.370000 7.225000 -9.060000
      vertex -0.170000 7.225000 -9.060000
      vertex -0.170000 7.225000 -6.860000
    endloop
  endfacet
  facet normal 0.000000 -1.000000 0.000000
    outer loop
      vertex -2.370000 7.225000 -9.060000
      vertex -0.170000 7.225000 -6.860000
      vertex -2.370000 7.225000 -6.860000
    endloop
  endfacet
  facet normal 0.000000 1.000000 0.000000
    outer loop
      vertex -2.370000 5.675000 -6.860000
      vertex -0.170000 5.675000 -6.860000
      vertex -0.170000 5.675000 -9.060000
    endloop
  endfacet
  facet normal 0.000000 1.000000 0.000000
    outer loop
      vertex -2.370000 5.675000 -6.860000
      vertex -0.170000 5.675000 -9.060000
      vertex -2.370000 5.675000 -9.060000
    endloop
  endfacet
  facet normal 0.000000 0.000000 -1.000000
    outer loop
      vertex -2.370000 7.225000 -6.860000
      vertex -0.170000 7.225000 -6.860000
      vertex -0.170000 5.675000 -6.860000
    endloop
  endfacet
  facet normal 0.000000 0.000000 -1.000000
    outer loop
      vertex -2.370000 7.225000 -6.860000
      vertex -0.170000 5.675000 -6.860000
      vertex -2.370000 5.675000 -6.860000
    endloop
  endfacet
  facet normal 0.000000 0.000000 1.000000
    outer loop
      vertex -0.170000 5.675000 -9.060000
      vertex -0.170000 7.225000 -9.060000
      vertex -2.370000 7.225000 -9.060000
    endloop
  endfacet
  facet normal 0.000000 0.000000 1.000000
    outer loop
      vertex -0.170000 5.675000 -9.060000
      vertex -2.370000 7.225000 -9.060000
      vertex -2.370000 5.675000 -9.060000
    endloop
  endfacet
  facet normal -1.000000 0.000000 0.000000
    outer loop
      vertex -0.170000 5.675000 -6.860000
      vertex -0.170000 7.225000 -6.860000
      vertex -0.170000 7.225000 -9.060000
    endloop
  endfacet
  facet normal -1.000000 0.000000 0.000000
    outer loop
      vertex -0.170000 5.675000 -6.860000
      vertex -0.170000 7.225000 -9.060000
      vertex -0.170000 5.675000 -9.060000
    endloop
  endfacet
  facet normal 1.000000 0.000000 0.000000
    outer loop
      vertex -2.370000 5.675000 -9.060000
      vertex -2.370000 7.225000 -9.060000
      vertex -2.370000 7.225000 -6.860000
    endloop
  endfacet
  facet normal 1.000000 0.000000 0.000000
    outer loop
      vertex -2.370000 5.675000 -9.060000
      vertex -2.370000 7.225000 -6.860000
      vertex -2.370000 5.675000 -6.860000
    endloop
  endfacet
  facet normal 0.000000 -1.000000 0.000000
    outer loop
      vertex -1.600000 11.200000 -8.290000
      vertex -0.940000 11.200000 -8.290000
      vertex -0.940000 11.200000 -7.630000
    endloop
  endfacet
  facet normal 0.000000 -1.000000 0.000000
    outer loop
      vertex -1.600000 11.200000 -8.290000
      vertex -0.940000 11.200000 -7.630000
      vertex -1.600000 11.200000 -7.630000
    endloop
  endfacet
  facet normal 0.000000 1.000000 0.000000
    outer loop
      vertex -1.600000 6.000000 -7.630000
      vertex -0.940000 6.000000 -7.630000
      vertex -0.940000 6.000000 -8.290000
    endloop
  endfacet
  facet normal 0.000000 1.000000 0.000000
    outer loop
      vertex -1.600000 6.000000 -7.630000
      vertex -0.940000 6.000000 -8.290000
      vertex -1.600000 6.000000 -8.290000
    endloop
  endfacet
  facet normal 0.000000 0.000000 -1.000000
    outer loop
      vertex -1.600000 11.200000 -7.630000
      vertex -0.940000 11.200000 -7.630000
      vertex -0.940000 6.000000 -7.630000
    endloop
  endfacet
  facet normal 0.000000 0.000000 -1.000000
    outer loop
      vertex -1.600000 11.200000 -7.630000
      vertex -0.940000 6.000000 -7.630000
      vertex -1.600000 6.000000 -7.630000
    endloop
  endfacet
  facet normal 0.000000 0.000000 1.000000
    outer loop
      vertex -0.940000 6.000000 -8.290000
      vertex -0.940000 11.200000 -8.290000
      vertex -1.600000 11.200000 -8.290000
    endloop
  endfacet
  facet normal 0.000000 0.000000 1.000000
    outer loop
      vertex -0.940000 6.000000 -8.290000
      vertex -1.600000 11.200000 -8.290000
      vertex -1.600000 6.000000 -8.290000
    endloop
  endfacet
  facet normal -1.000000 0.000000 0.000000
    outer loop
      vertex -0.940000 6.000000 -7.630000
      vertex -0.940000 11.200000 -7.630000
      vertex -0.940000 11.200000 -8.290000
    endloop
  endfacet
  facet normal -1.000000 0.000000 0.000000
    outer loop
      vertex -0.940000 6.000000 -7.630000
      vertex -0.940000 11.200000 -8.290000
      vertex -0.940000 6.000000 -8.290000
    endloop
  endfacet
  facet normal 1.000000 0.000000 0.000000
    outer loop
      vertex -1.600000 6.000000 -8.290000
      vertex -1.600000 11.200000 -8.290000
      vertex -1.600000 11.200000 -7.630000
    endloop
  endfacet
  facet normal 1.000000 0.000000 0.000000
    outer loop
      vertex -1.600000 6.000000 -8.290000
      vertex -1.600000 11.200000 -7.630000
      vertex -1.600000 6.000000 -7.630000
    endloop
  endfacet
  facet normal 0.000000 -1.000000 0.000000
    outer loop
      vertex 0.170000 7.225000 -9.060000
      vertex 2.370000 7.225000 -9.060000
      vertex 2.370000 7.225000 -6.860000
    endloop
  endfacet
  facet normal 0.000000 -1.000000 0.000000
    outer loop
      vertex 0.170000 7.225000 -9.060000
      vertex 2.370000 7.225000 -6.860000
      vertex 0.170000 7.225000 -6.860000
    endloop
  endfacet
  facet normal 0.000000 1.000000 0.000000
    outer loop
      vertex 0.170000 5.675000 -6.860000
      vertex 2.370000 5.675000 -6.860000
      vertex 2.370000 5.675000 -9.060000
    endloop
  endfacet
  facet normal 0.000000 1.000000 0.000000
    outer loop
      vertex 0.170000 5.675000 -6.860000
      vertex 2.370000 5.675000 -9.060000
      vertex 0.170000 5.675000 -9.060000
    endloop
  endfacet
  facet normal 0.000000 0.000000 -1.000000
    outer loop
      vertex 0.170000 7.225000 -6.860000
      vertex 2.370000 7.225000 -6.860000
      vertex 2.370000 5.675000 -6.860000
    endloop
  endfacet
  facet normal 0.000000 0.000000 -1.000000
    outer loop
      vertex 0.170000 7.225000 -6.860000
      vertex 2.370000 5.675000 -6.860000
      vertex 0.170000 5.675000 -6.860000
    endloop
  endfacet
  facet normal 0.000000 0.000000 1.000000
    outer loop
      vertex 2.370000 5.675000 -9.060000
      vertex 2.370000 7.225000 -9.060000
      vertex 0.170000 7.225000 -9.060000
    endloop
  endfacet
  facet normal 0.000000 0.000000 1.000000
    outer loop
      vertex 2.370000 5.675000 -9.060000
      vertex 0.170000 7.225000 -9.060000
      vertex 0.170000 5.675000 -9.060000
    endloop
  endfacet
  facet normal -1.000000 0.000000 0.000000
    outer loop
      vertex 2.370000 5.675000 -6.860000
      vertex 2.370000 7.225000 -6.860000
      vertex 2.370000 7.225000 -9.060000
    endloop
  endfacet
  facet normal -1.000000 0.000000 0.000000
    outer loop
      vertex 2.370000 5.675000 -6.860000
      vertex 2.370000 7.225000 -9.060000
      vertex 2.370000 5.675000 -9.060000
    endloop
  endfacet
  facet normal 1.000000 0.000000 0.000000
    outer loop
      vertex 0.170000 5.675000 -9.060000
      vertex 0.170000 7.225000 -9.060000
      vertex 0.170000 7.225000 -6.860000
    endloop
  endfacet
  facet normal 1.000000 0.000000 0.000000
    outer loop
      vertex 0.170000 5.675000 -9.060000
      vertex 0.170000 7.225000 -6.860000
      vertex 0.170000 5.675000 -6.860000
    endloop
  endfacet
  facet normal 0.000000 -1.000000 0.000000
    outer loop
      vertex 0.940000 11.200000 -8.290000
      vertex 1.600000 11.200000 -8.290000
      vertex 1.600000 11.200000 -7.630000
    endloop
  endfacet
  facet normal 0.000000 -1.000000 0.000000
    outer loop
      vertex 0.940000 11.200000 -8.290000
      vertex 1.600000 11.200000 -7.630000
      vertex 0.940000 11.200000 -7.630000
    endloop
  endfacet
  facet normal 0.000000 1.000000 0.000000
    outer loop
      vertex 0.940000 6.000000 -7.630000
      vertex 1.600000 6.000000 -7.630000
      vertex 1.600000 6.000000 -8.290000
    endloop
  endfacet
  facet normal 0.000000 1.000000 0.000000
    outer loop
      vertex 0.940000 6.000000 -7.630000
      vertex 1.600000 6.000000 -8.290000
      vertex 0.940000 6.000000 -8.290000
    endloop
  endfacet
  facet normal 0.000000 0.000000 -1.000000
    outer loop
      vertex 0.940000 11.200000 -7.630000
      vertex 1.600000 11.200000 -7.630000
      vertex 1.600000 6.000000 -7.630000
    endloop
  endfacet
  facet normal 0.000000 0.000000 -1.000000
    outer loop
      vertex 0.940000 11.200000 -7.630000
      vertex 1.600000 6.000000 -7.630000
      vertex 0.940000 6.000000 -7.630000
    endloop
  endfacet
  facet normal 0.000000 0.000000 1.000000
    outer loop
      vertex 1.600000 6.000000 -8.290000
      vertex 1.600000 11.200000 -8.290000
      vertex 0.940000 11.200000 -8.290000
    endloop
  endfacet
  facet normal 0.000000 0.000000 1.000000
    outer loop
      vertex 1.600000 6.000000 -8.290000
      vertex 0.940000 11.200000 -8.290000
      vertex 0.940000 6.000000 -8.290000
    endloop
  endfacet
  facet normal -1.000000 0.000000 0.000000
    outer loop
      vertex 1.600000 6.000000 -7.630000
      vertex 1.600000 11.200000 -7.630000
      vertex 1.600000 11.200000 -8.290000
    endloop
  endfacet
  facet normal -1.000000 0.000000 0.000000
    outer loop
      vertex 1.600000 6.000000 -7.630000
      vertex 1.600000 11.200000 -8.290000
      vertex 1.600000 6.000000 -8.290000
    endloop
  endfacet
  facet normal 1.000000 0.000000 0.000000
    outer loop
      vertex 0.940000 6.000000 -8.290000
      vertex 0.940000 11.200000 -8.290000
      vertex 0.940000 11.200000 -7.630000
    endloop
  endfacet
  facet normal 1.000000 0.000000 0.000000
    outer loop
      vertex 0.940000 6.000000 -8.290000
      vertex 0.940000 11.200000 -7.630000
      vertex 0.940000 6.000000 -7.630000
    endloop
  endfacet
  facet normal 0.000000 -1.000000 0.000000
    outer loop
      vertex 2.710000 7.225000 -9.060000
      vertex 4.910000 7.225000 -9.060000
      vertex 4.910000 7.225000 -6.860000
    endloop
  endfacet
  facet normal 0.000000 -1.000000 0.000000
    outer loop
      vertex 2.710000 7.225000 -9.060000
      vertex 4.910000 7.225000 -6.860000
      vertex 2.710000 7.225000 -6.860000
    endloop
  endfacet
  facet normal 0.000000 1.000000 0.000000
    outer loop
      vertex 2.710000 5.675000 -6.860000
      vertex 4.910000 5.675000 -6.860000
      vertex 4.910000 5.675000 -9.060000
    endloop
  endfacet
  facet normal 0.000000 1.000000 0.000000
    outer loop
      vertex 2.710000 5.675000 -6.860000
      vertex 4.910000 5.675000 -9.060000
      vertex 2.710000 5.675000 -9.060000
    endloop
  endfacet
  facet normal 0.000000 0.000000 -1.000000
    outer loop
      vertex 2.710000 7.225000 -6.860000
      vertex 4.910000 7.225000 -6.860000
      vertex 4.910000 5.675000 -6.860000
    endloop
  endfacet
  facet normal 0.000000 0.000000 -1.000000
    outer loop
      vertex 2.710000 7.225000 -6.860000
      vertex 4.910000 5.675000 -6.860000
      vertex 2.710000 5.675000 -6.860000
    endloop
  endfacet
  facet normal 0.000000 0.000000 1.000000
    outer loop
      vertex 4.910000 5.675000 -9.060000
      vertex 4.910000 7.225000 -9.060000
      vertex 2.710000 7.225000 -9.060000
    endloop
  endfacet
  facet normal 0.000000 0.000000 1.000000
    outer loop
      vertex 4.910000 5.675000 -9.060000
      vertex 2.710000 7.225000 -9.060000
      vertex 2.710000 5.675000 -9.060000
    endloop
  endfacet
  facet normal -1.000000 0.000000 0.000000
    outer loop
      vertex 4.910000 5.675000 -6.860000
      vertex 4.910000 7.225000 -6.860000
      vertex 4.910000 7.225000 -9.060000
    endloop
  endfacet
  facet normal -1.000000 0.000000 0.000000
    outer loop
      vertex 4.910000 5.675000 -6.860000
      vertex 4.910000 7.225000 -9.060000
      vertex 4.910000 5.675000 -9.060000
    endloop
  endfacet
  facet normal 1.000000 0.000000 0.000000
    outer loop
      vertex 2.710000 5.675000 -9.060000
      vertex 2.710000 7.225000 -9.060000
      vertex 2.710000 7.225000 -6.860000
    endloop
  endfacet
  facet normal 1.000000 0.000000 0.000000
    outer loop
      vertex 2.710000 5.675000 -9.060000
      vertex 2.710000 7.225000 -6.860000
      vertex 2.710000 5.675000 -6.860000
    endloop
  endfacet
  facet normal 0.000000 -1.000000 0.000000
    outer loop
      vertex 3.480000 11.200000 -8.290000
      vertex 4.140000 11.200000 -8.290000
      vertex 4.140000 11.200000 -7.630000
    endloop
  endfacet
  facet normal 0.000000 -1.000000 0.000000
    outer loop
      vertex 3.480000 11.200000 -8.290000
      vertex 4.140000 11.200000 -7.630000
      vertex 3.480000 11.200000 -7.630000
    endloop
  endfacet
  facet normal 0.000000 1.000000 0.000000
    outer loop
      vertex 3.480000 6.000000 -7.630000
      vertex 4.140000 6.000000 -7.630000
      vertex 4.140000 6.000000 -8.290000
    endloop
  endfacet
  facet normal 0.000000 1.000000 0.000000
    outer loop
      vertex 3.480000 6.000000 -7.630000
      vertex 4.140000 6.000000 -8.290000
      vertex 3.480000 6.000000 -8.290000
    endloop
  endfacet
  facet normal 0.000000 0.000000 -1.000000
    outer loop
      vertex 3.480000 11.200000 -7.630000
      vertex 4.140000 11.200000 -7.630000
      vertex 4.140000 6.000000 -7.630000
    endloop
  endfacet
  facet normal 0.000000 0.000000 -1.000000
    outer loop
      vertex 3.480000 11.200000 -7.630000
      vertex 4.140000 6.000000 -7.630000
      vertex 3.480000 6.000000 -7.630000
    endloop
  endfacet
  facet normal 0.000000 0.000000 1.000000
    outer loop
      vertex 4.140000 6.000000 -8.290000
      vertex 4.140000 11.200000 -8.290000
      vertex 3.480000 11.200000 -8.290000
    endloop
  endfacet
  facet normal 0.000000 0.000000 1.000000
    outer loop
      vertex 4.140000 6.000000 -8.290000
      vertex 3.480000 11.200000 -8.290000
      vertex 3.480000 6.000000 -8.290000
    endloop
  endfacet
  facet normal -1.000000 0.000000 0.000000
    outer loop
      vertex 4.140000 6.000000 -7.630000
      vertex 4.140000 11.200000 -7.630000
      vertex 4.140000 11.200000 -8.290000
    endloop
  endfacet
  facet normal -1.000000 0.000000 0.000000
    outer loop
      vertex 4.140000 6.000000 -7.630000
      vertex 4.140000 11.200000 -8.290000
      vertex 4.140000 6.000000 -8.290000
    endloop
  endfacet
  facet normal 1.000000 0.000000 0.000000
    outer loop
      vertex 3.480000 6.000000 -8.290000
      vertex 3.480000 11.200000 -8.290000
      vertex 3.480000 11.200000 -7.630000
    endloop
  endfacet
  facet normal 1.000000 0.000000 0.000000
    outer loop
      vertex 3.480000 6.000000 -8.290000
      vertex 3.480000 11.200000 -7.630000
      vertex 3.480000 6.000000 -7.630000
    endloop
  endfacet
  facet normal 0.000000 -1.000000 0.000000
    outer loop
      vertex -10.000000 5.100000 -4.000000
      vertex 0.000000 5.100000 -4.000000
      vertex 0.000000 5.100000 4.000000
    endloop
  endfacet
  facet normal 0.000000 -1.000000 0.000000
    outer loop
      vertex -10.000000 5.100000 -4.000000
      vertex 0.000000 5.100000 4.000000
      vertex -10.000000 5.100000 4.000000
    endloop
  endfacet
  facet normal 0.000000 1.000000 0.000000
    outer loop
      vertex -10.000000 2.100000 4.000000
      vertex 0.000000 2.100000 4.000000
      vertex 0.000000 2.100000 -4.000000
    endloop
  endfacet
  facet normal 0.000000 1.000000 0.000000
    outer loop
      vertex -10.000000 2.100000 4.000000
      vertex 0.000000 2.100000 -4.000000
      vertex -10.000000 2.100000 -4.000000
    endloop
  endfacet
  facet normal 0.000000 0.000000 -1.000000
    outer loop
      vertex -10.000000 5.100000 4.000000
      vertex 0.000000 5.100000 4.000000
      vertex 0.000000 2.100000 4.000000
    endloop
  endfacet
  facet normal 0.000000 0.000000 -1.000000
    outer loop
      vertex -10.000000 5.100000 4.000000
      vertex 0.000000 2.100000 4.000000
      vertex -10.000000 2.100000 4.000000
    endloop
  endfacet
  facet normal 0.000000 0.000000 1.000000
    outer loop
      vertex 0.000000 2.100000 -4.000000
      vertex 0.000000 5.100000 -4.000000
      vertex -10.000000 5.100000 -4.000000
    endloop
  endfacet
  facet normal 0.000000 0.000000 1.000000
    outer loop
      vertex 0.000000 2.100000 -4.000000
      vertex -10.000000 5.100000 -4.000000
      vertex -10.000000 2.100000 -4.000000
    endloop
  endfacet
  facet normal -1.000000 0.000000 0.000000
    outer loop
      vertex 0.000000 2.100000 4.000000
      vertex 0.000000 5.100000 4.000000
      vertex 0.000000 5.100000 -4.000000
    endloop
  endfacet
  facet normal -1.000000 0.000000 0.000000
    outer loop
      vertex 0.000000 2.100000 4.000000
      vertex 0.000000 5.100000 -4.000000
      vertex 0.000000 2.100000 -4.000000
    endloop
  endfacet
  facet normal 1.000000 0.000000 0.000000
    outer loop
      vertex -10.000000 2.100000 -4.000000
      vertex -10.000000 5.100000 -4.000000
      vertex -10.000000 5.100000 4.000000
    endloop
  endfacet
  facet normal 1.000000 0.000000 0.000000
    outer loop
      vertex -10.000000 2.100000 -4.000000
      vertex -10.000000 5.100000 4.000000
      vertex -10.000000 2.100000 4.000000
    endloop
  endfacet
  facet normal 0.000000 -1.000000 0.000000
    outer loop
      vertex 8.500000 8.800000 0.000000
      vertex 14.000000 8.800000 0.000000
      vertex 13.812592 8.800000 1.423505
    endloop
  endfacet
  facet normal 0.000000 1.000000 0.000000
    outer loop
      vertex 8.500000 2.800000 0.000000
      vertex 13.812592 2.800000 1.423505
      vertex 14.000000 2.800000 0.000000
    endloop
  endfacet
  facet normal -0.991445 0.000000 -0.130526
    outer loop
      vertex 14.000000 2.800000 0.000000
      vertex 13.812592 2.800000 1.423505
      vertex 13.812592 8.800000 1.423505
    endloop
  endfacet
  facet normal -0.991445 0.000000 -0.130526
    outer loop
      vertex 14.000000 2.800000 0.000000
      vertex 13.812592 8.800000 1.423505
      vertex 14.000000 8.800000 0.000000
    endloop
  endfacet
  facet normal 0.000000 -1.000000 0.000000
    outer loop
      vertex 8.500000 8.800000 0.000000
      vertex 13.812592 8.800000 1.423505
      vertex 13.263140 8.800000 2.750000
    endloop
  endfacet
  facet normal 0.000000 1.000000 0.000000
    outer loop
      vertex 8.500000 2.800000 0.000000
      vertex 13.263140 2.800000 2.750000
      vertex 13.812592 2.800000 1.423505
    endloop
  endfacet
  facet normal -0.923880 0.000000 -0.382683
    outer loop
      vertex 13.812592 2.800000 1.423505
      vertex 13.263140 2.800000 2.750000
      vertex 13.263140 8.800000 2.750000
    endloop
  endfacet
  facet normal -0.923880 0.000000 -0.382683
    outer loop
      vertex 13.812592 2.800000 1.423505
      vertex 13.263140 8.800000 2.750000
      vertex 13.812592 8.800000 1.423505
    endloop
  endfacet
  facet normal 0.000000 -1.000000 0.000000
    outer loop
      vertex 8.500000 8.800000 0.000000
      vertex 13.263140 8.800000 2.750000
      vertex 12.389087 8.800000 3.889087
    endloop
  endfacet
  facet normal 0.000000 1.000000 0.000000
    outer loop
      vertex 8.500000 2.800000 0.000000
      vertex 12.389087 2.800000 3.889087
      vertex 13.263140 2.800000 2.750000
    endloop
  endfacet
  facet normal -0.793353 0.000000 -0.608761
    outer loop
      vertex 13.263140 2.800000 2.750000
      vertex 12.389087 2.800000 3.889087
      vertex 12.389087 8.800000 3.889087
    endloop
  endfacet
  facet normal -0.793353 0.000000 -0.608761
    outer loop
      vertex 13.263140 2.800000 2.750000
      vertex 12.389087 8.800000 3.889087
      vertex 13.263140 8.800000 2.750000
    endloop
  endfacet
  facet normal 0.000000 -1.000000 0.000000
    outer loop
      vertex 8.500000 8.800000 0.000000
      vertex 12.389087 8.800000 3.889087
      vertex 11.250000 8.800000 4.763140
    endloop
  endfacet
  facet normal 0.000000 1.000000 0.000000
    outer loop
      vertex 8.500000 2.800000 0.000000
      vertex 11.250000 2.800000 4.763140
      vertex 12.389087 2.800000 3.889087
    endloop
  endfacet
  facet normal -0.608761 0.000000 -0.793353
    outer loop
      vertex 12.389087 2.800000 3.889087
      vertex 11.250000 2.800000 4.763140
      vertex 11.250000 8.800000 4.763140
    endloop
  endfacet
  facet normal -0.608761 0.000000 -0.793353
    outer loop
      vertex 12.389087 2.800000 3.889087
      vertex 11.250000 8.800000 4.763140
      vertex 12.389087 8.800000 3.889087
    endloop
  endfacet
  facet normal 0.000000 -1.000000 0.000000
    outer loop
      vertex 8.500000 8.800000 0.000000
      vertex 11.250000 8.800000 4.763140
      vertex 9.923505 8.800000 5.312592
    endloop
  endfacet
  facet normal 0.000000 1.000000 0.000000
    outer loop
      vertex 8.500000 2.800000 0.000000
      vertex 9.923505 2.800000 5.312592
      vertex 11.250000 2.800000 4.763140
    endloop
  endfacet
  facet normal -0.382683 0.000000 -0.923880
    outer loop
      vertex 11.250000 2.800000 4.763140
      vertex 9.923505 2.800000 5.312592
      vertex 9.923505 8.800000 5.312592
    endloop
  endfacet
  facet normal -0.382683 0.000000 -0.923880
    outer loop
      vertex 11.250000 2.800000 4.763140
      vertex 9.923505 8.800000 5.312592
      vertex 11.250000 8.800000 4.763140
    endloop
  endfacet
  facet normal 0.000000 -1.000000 0.000000
    outer loop
      vertex 8.500000 8.800000 0.000000
      vertex 9.923505 8.800000 5.312592
      vertex 8.500000 8.800000 5.500000
    endloop
  endfacet
  facet normal 0.000000 1.000000 0.000000
    outer loop
      vertex 8.500000 2.800000 0.000000
      vertex 8.500000 2.800000 5.500000
      vertex 9.923505 2.800000 5.312592
    endloop
  endfacet
  facet normal -0.130526 0.000000 -0.991445
    outer loop
      vertex 9.923505 2.800000 5.312592
      vertex 8.500000 2.800000 5.500000
      vertex 8.500000 8.800000 5.500000
    endloop
  endfacet
  facet normal -0.130526 0.000000 -0.991445
    outer loop
      vertex 9.923505 2.800000 5.312592
      vertex 8.500000 8.800000 5.500000
      vertex 9.923505 8.800000 5.312592
    endloop
  endfacet
  facet normal 0.000000 -1.000000 0.000000
    outer loop
      vertex 8.500000 8.800000 0.000000
      vertex 8.500000 8.800000 5.500000
      vertex 7.076495 8.800000 5.312592
    endloop
  endfacet
  facet normal 0.000000 1.000000 0.000000
    outer loop
      vertex 8.500000 2.800000 0.000000
      vertex 7.076495 2.800000 5.312592
      vertex 8.500000 2.800000 5.500000
    endloop
  endfacet
  facet normal 0.130526 0.000000 -0.991445
    outer loop
      vertex 8.500000 2.800000 5.500000
      vertex 7.076495 2.800000 5.312592
      vertex 7.076495 8.800000 5.312592
    endloop
  endfacet
  facet normal 0.130526 0.000000 -0.991445
    outer loop
      vertex 8.500000 2.800000 5.500000
      vertex 7.076495 8.800000 5.312592
      vertex 8.500000 8.800000 5.500000
    endloop
  endfacet
  facet normal 0.000000 -1.000000 0.000000
    outer loop
      vertex 8.500000 8.800000 0.000000
      vertex 7.076495 8.800000 5.312592
      vertex 5.750000 8.800000 4.763140
    endloop
  endfacet
  facet normal 0.000000 1.000000 0.000000
    outer loop
      vertex 8.500000 2.800000 0.000000
      vertex 5.750000 2.800000 4.763140
      vertex 7.076495 2.800000 5.312592
    endloop
  endfacet
  facet normal 0.382683 0.000000 -0.923880
    outer loop
      vertex 7.076495 2.800000 5.312592
      vertex 5.750000 2.800000 4.763140
      vertex 5.750000 8.800000 4.763140
    endloop
  endfacet
  facet normal 0.382683 0.000000 -0.923880
    outer loop
      vertex 7.076495 2.800000 5.312592
      vertex 5.750000 8.800000 4.763140
      vertex 7.076495 8.800000 5.312592
    endloop
  endfacet
  facet normal 0.000000 -1.000000 0.000000
    outer loop
      vertex 8.500000 8.800000 0.000000
      vertex 5.750000 8.800000 4.763140
      vertex 4.610913 8.800000 3.889087
    endloop
  endfacet
  facet normal 0.000000 1.000000 0.000000
    outer loop
      vertex 8.500000 2.800000 0.000000
      vertex 4.610913 2.800000 3.889087
      vertex 5.750000 2.800000 4.763140
    endloop
  endfacet
  facet normal 0.608761 0.000000 -0.793353
    outer loop
      vertex 5.750000 2.800000 4.763140
      vertex 4.610913 2.800000 3.889087
      vertex 4.610913 8.800000 3.889087
    endloop
  endfacet
  facet normal 0.608761 0.000000 -0.793353
    outer loop
      vertex 5.750000 2.800000 4.763140
      vertex 4.610913 8.800000 3.889087
      vertex 5.750000 8.800000 4.763140
    endloop
  endfacet
  facet normal 0.000000 -1.000000 0.000000
    outer loop
      vertex 8.500000 8.800000 0.000000
      vertex 4.610913 8.800000 3.889087
      vertex 3.736860 8.800000 2.750000
    endloop
  endfacet
  facet normal 0.000000 1.000000 0.000000
    outer loop
      vertex 8.500000 2.800000 0.000000
      vertex 3.736860 2.800000 2.750000
      vertex 4.610913 2.800000 3.889087
    endloop
  endfacet
  facet normal 0.793353 0.000000 -0.608761
    outer loop
      vertex 4.610913 2.800000 3.889087
      vertex 3.736860 2.800000 2.750000
      vertex 3.736860 8.800000 2.750000
    endloop
  endfacet
  facet normal 0.793353 0.000000 -0.608761
    outer loop
      vertex 4.610913 2.800000 3.889087
      vertex 3.736860 8.800000 2.750000
      vertex 4.610913 8.800000 3.889087
    endloop
  endfacet
  facet normal 0.000000 -1.000000 0.000000
    outer loop
      vertex 8.500000 8.800000 0.000000
      vertex 3.736860 8.800000 2.750000
      vertex 3.187408 8.800000 1.423505
    endloop
  endfacet
  facet normal 0.000000 1.000000 0.000000
    outer loop
      vertex 8.500000 2.800000 0.000000
      vertex 3.187408 2.800000 1.423505
      vertex 3.736860 2.800000 2.750000
    endloop
  endfacet
  facet normal 0.923880 0.000000 -0.382683
    outer loop
      vertex 3.736860 2.800000 2.750000
      vertex 3.187408 2.800000 1.423505
      vertex 3.187408 8.800000 1.423505
    endloop
  endfacet
  facet normal 0.923880 0.000000 -0.382683
    outer loop
      vertex 3.736860 2.800000 2.750000
      vertex 3.187408 8.800000 1.423505
      vertex 3.736860 8.800000 2.750000
    endloop
  endfacet
  facet normal 0.000000 -1.000000 0.000000
    outer loop
      vertex 8.500000 8.800000 0.000000
      vertex 3.187408 8.800000 1.423505
      vertex 3.000000 8.800000 0.000000
    endloop
  endfacet
  facet normal 0.000000 1.000000 0.000000
    outer loop
      vertex 8.500000 2.800000 0.000000
      vertex 3.000000 2.800000 0.000000
      vertex 3.187408 2.800000 1.423505
    endloop
  endfacet
  facet normal 0.991445 0.000000 -0.130526
    outer loop
      vertex 3.187408 2.800000 1.423505
      vertex 3.000000 2.800000 0.000000
      vertex 3.000000 8.800000 0.000000
    endloop
  endfacet
  facet normal 0.991445 0.000000 -0.130526
    outer loop
      vertex 3.187408 2.800000 1.423505
      vertex 3.000000 8.800000 0.000000
      vertex 3.187408 8.800000 1.423505
    endloop
  endfacet
  facet normal 0.000000 -1.000000 0.000000
    outer loop
      vertex 8.500000 8.800000 0.000000
      vertex 3.000000 8.800000 0.000000
      vertex 3.187408 8.800000 -1.423505
    endloop
  endfacet
  facet normal 0.000000 1.000000 0.000000
    outer loop
      vertex 8.500000 2.800000 0.000000
      vertex 3.187408 2.800000 -1.423505
      vertex 3.000000 2.800000 0.000000
    endloop
  endfacet
  facet normal 0.991445 0.000000 0.130526
    outer loop
      vertex 3.000000 2.800000 0.000000
      vertex 3.187408 2.800000 -1.423505
      vertex 3.187408 8.800000 -1.423505
    endloop
  endfacet
  facet normal 0.991445 0.000000 0.130526
    outer loop
      vertex 3.000000 2.800000 0.000000
      vertex 3.187408 8.800000 -1.423505
      vertex 3.000000 8.800000 0.000000
    endloop
  endfacet
  facet normal 0.000000 -1.000000 0.000000
    outer loop
      vertex 8.500000 8.800000 0.000000
      vertex 3.187408 8.800000 -1.423505
      vertex 3.736860 8.800000 -2.750000
    endloop
  endfacet
  facet normal 0.000000 1.000000 0.000000
    outer loop
      vertex 8.500000 2.800000 0.000000
      vertex 3.736860 2.800000 -2.750000
      vertex 3.187408 2.800000 -1.423505
    endloop
  endfacet
  facet normal 0.923880 0.000000 0.382683
    outer loop
      vertex 3.187408 2.800000 -1.423505
      vertex 3.736860 2.800000 -2.750000
      vertex 3.736860 8.800000 -2.750000
    endloop
  endfacet
  facet normal 0.923880 0.000000 0.382683
    outer loop
      vertex 3.187408 2.800000 -1.423505
      vertex 3.736860 8.800000 -2.750000
      vertex 3.187408 8.800000 -1.423505
    endloop
  endfacet
  facet normal 0.000000 -1.000000 0.000000
    outer loop
      vertex 8.500000 8.800000 0.000000
      vertex 3.736860 8.800000 -2.750000
      vertex 4.610913 8.800000 -3.889087
    endloop
  endfacet
  facet normal 0.000000 1.000000 0.000000
    outer loop
      vertex 8.500000 2.800000 0.000000
      vertex 4.610913 2.800000 -3.889087
      vertex 3.736860 2.800000 -2.750000
    endloop
  endfacet
  facet normal 0.793353 0.000000 0.608761
    outer loop
      vertex 3.736860 2.800000 -2.750000
      vertex 4.610913 2.800000 -3.889087
      vertex 4.610913 8.800000 -3.889087
    endloop
  endfacet
  facet normal 0.793353 0.000000 0.608761
    outer loop
      vertex 3.736860 2.800000 -2.750000
      vertex 4.610913 8.800000 -3.889087
      vertex 3.736860 8.800000 -2.750000
    endloop
  endfacet
  facet normal 0.000000 -1.000000 0.000000
    outer loop
      vertex 8.500000 8.800000 0.000000
      vertex 4.610913 8.800000 -3.889087
      vertex 5.750000 8.800000 -4.763140
    endloop
  endfacet
  facet normal 0.000000 1.000000 0.000000
    outer loop
      vertex 8.500000 2.800000 0.000000
      vertex 5.750000 2.800000 -4.763140
      vertex 4.610913 2.800000 -3.889087
    endloop
  endfacet
  facet normal 0.608761 0.000000 0.793353
    outer loop
      vertex 4.610913 2.800000 -3.889087
      vertex 5.750000 2.800000 -4.763140
      vertex 5.750000 8.800000 -4.763140
    endloop
  endfacet
  facet normal 0.608761 0.000000 0.793353
    outer loop
      vertex 4.610913 2.800000 -3.889087
      vertex 5.750000 8.800000 -4.763140
      vertex 4.610913 8.800000 -3.889087
    endloop
  endfacet
  facet normal 0.000000 -1.000000 0.000000
    outer loop
      vertex 8.500000 8.800000 0.000000
      vertex 5.750000 8.800000 -4.763140
      vertex 7.076495 8.800000 -5.312592
    endloop
  endfacet
  facet normal 0.000000 1.000000 0.000000
    outer loop
      vertex 8.500000 2.800000 0.000000
      vertex 7.076495 2.800000 -5.312592
      vertex 5.750000 2.800000 -4.763140
    endloop
  endfacet
  facet normal 0.382683 0.000000 0.923880
    outer loop
      vertex 5.750000 2.800000 -4.763140
      vertex 7.076495 2.800000 -5.312592
      vertex 7.076495 8.800000 -5.312592
    endloop
  endfacet
  facet normal 0.382683 0.000000 0.923880
    outer loop
      vertex 5.750000 2.800000 -4.763140
      vertex 7.076495 8.800000 -5.312592
      vertex 5.750000 8.800000 -4.763140
    endloop
  endfacet
  facet normal 0.000000 -1.000000 0.000000
    outer loop
      vertex 8.500000 8.800000 0.000000
      vertex 7.076495 8.800000 -5.312592
      vertex 8.500000 8.800000 -5.500000
    endloop
  endfacet
  facet normal 0.000000 1.000000 0.000000
    outer loop
      vertex 8.500000 2.800000 0.000000
      vertex 8.500000 2.800000 -5.500000
      vertex 7.076495 2.800000 -5.312592
    endloop
  endfacet
  facet normal 0.130526 0.000000 0.991445
    outer loop
      vertex 7.076495 2.800000 -5.312592
      vertex 8.500000 2.800000 -5.500000
      vertex 8.500000 8.800000 -5.500000
    endloop
  endfacet
  facet normal 0.130526 0.000000 0.991445
    outer loop
      vertex 7.076495 2.800000 -5.312592
      vertex 8.500000 8.800000 -5.500000
      vertex 7.076495 8.800000 -5.312592
    endloop
  endfacet
  facet normal 0.000000 -1.000000 0.000000
    outer loop
      vertex 8.500000 8.800000 0.000000
      vertex 8.500000 8.800000 -5.500000
      vertex 9.923505 8.800000 -5.312592
    endloop
  endfacet
  facet normal 0.000000 1.000000 0.000000
    outer loop
      vertex 8.500000 2.800000 0.000000
      vertex 9.923505 2.800000 -5.312592
      vertex 8.500000 2.800000 -5.500000
    endloop
  endfacet
  facet normal -0.130526 0.000000 0.991445
    outer loop
      vertex 8.500000 2.800000 -5.500000
      vertex 9.923505 2.800000 -5.312592
      vertex 9.923505 8.800000 -5.312592
    endloop
  endfacet
  facet normal -0.130526 0.000000 0.991445
    outer loop
      vertex 8.500000 2.800000 -5.500000
      vertex 9.923505 8.800000 -5.312592
      vertex 8.500000 8.800000 -5.500000
    endloop
  endfacet
  facet normal 0.000000 -1.000000 0.000000
    outer loop
      vertex 8.500000 8.800000 0.000000
      vertex 9.923505 8.800000 -5.312592
      vertex 11.250000 8.800000 -4.763140
    endloop
  endfacet
  facet normal 0.000000 1.000000 0.000000
    outer loop
      vertex 8.500000 2.800000 0.000000
      vertex 11.250000 2.800000 -4.763140
      vertex 9.923505 2.800000 -5.312592
    endloop
  endfacet
  facet normal -0.382683 0.000000 0.923880
    outer loop
      vertex 9.923505 2.800000 -5.312592
      vertex 11.250000 2.800000 -4.763140
      vertex 11.250000 8.800000 -4.763140
    endloop
  endfacet
  facet normal -0.382683 0.000000 0.923880
    outer loop
      vertex 9.923505 2.800000 -5.312592
      vertex 11.250000 8.800000 -4.763140
      vertex 9.923505 8.800000 -5.312592
    endloop
  endfacet
  facet normal 0.000000 -1.000000 0.000000
    outer loop
      vertex 8.500000 8.800000 0.000000
      vertex 11.250000 8.800000 -4.763140
      vertex 12.389087 8.800000 -3.889087
    endloop
  endfacet
  facet normal 0.000000 1.000000 0.000000
    outer loop
      vertex 8.500000 2.800000 0.000000
      vertex 12.389087 2.800000 -3.889087
      vertex 11.250000 2.800000 -4.763140
    endloop
  endfacet
  facet normal -0.608761 0.000000 0.793353
    outer loop
      vertex 11.250000 2.800000 -4.763140
      vertex 12.389087 2.800000 -3.889087
      vertex 12.389087 8.800000 -3.889087
    endloop
  endfacet
  facet normal -0.608761 0.000000 0.793353
    outer loop
      vertex 11.250000 2.800000 -4.763140
      vertex 12.389087 8.800000 -3.889087
      vertex 11.250000 8.800000 -4.763140
    endloop
  endfacet
  facet normal 0.000000 -1.000000 0.000000
    outer loop
      vertex 8.500000 8.800000 0.000000
      vertex 12.389087 8.800000 -3.889087
      vertex 13.263140 8.800000 -2.750000
    endloop
  endfacet
  facet normal 0.000000 1.000000 0.000000
    outer loop
      vertex 8.500000 2.800000 0.000000
      vertex 13.263140 2.800000 -2.750000
      vertex 12.389087 2.800000 -3.889087
    endloop
  endfacet
  facet normal -0.793353 0.000000 0.608761
    outer loop
      vertex 12.389087 2.800000 -3.889087
      vertex 13.263140 2.800000 -2.750000
      vertex 13.263140 8.800000 -2.750000
    endloop
  endfacet
  facet normal -0.793353 0.000000 0.608761
    outer loop
      vertex 12.389087 2.800000 -3.889087
      vertex 13.263140 8.800000 -2.750000
      vertex 12.389087 8.800000 -3.889087
    endloop
  endfacet
  facet normal 0.000000 -1.000000 0.000000
    outer loop
      vertex 8.500000 8.800000 0.000000
      vertex 13.263140 8.800000 -2.750000
      vertex 13.812592 8.800000 -1.423505
    endloop
  endfacet
  facet normal 0.000000 1.000000 0.000000
    outer loop
      vertex 8.500000 2.800000 0.000000
      vertex 13.812592 2.800000 -1.423505
      vertex 13.263140 2.800000 -2.750000
    endloop
  endfacet
  facet normal -0.923880 0.000000 0.382683
    outer loop
      vertex 13.263140 2.800000 -2.750000
      vertex 13.812592 2.800000 -1.423505
      vertex 13.812592 8.800000 -1.423505
    endloop
  endfacet
  facet normal -0.923880 0.000000 0.382683
    outer loop
      vertex 13.263140 2.800000 -2.750000
      vertex 13.812592 8.800000 -1.423505
      vertex 13.263140 8.800000 -2.750000
    endloop
  endfacet
  facet normal 0.000000 -1.000000 0.000000
    outer loop
      vertex 8.500000 8.800000 0.000000
      vertex 13.812592 8.800000 -1.423505
      vertex 14.000000 8.800000 0.000000
    endloop
  endfacet
  facet normal 0.000000 1.000000 0.000000
    outer loop
      vertex 8.500000 2.800000 0.000000
      vertex 14.000000 2.800000 0.000000
      vertex 13.812592 2.800000 -1.423505
    endloop
  endfacet
  facet normal -0.991445 0.000000 0.130526
    outer loop
      vertex 13.812592 2.800000 -1.423505
      vertex 14.000000 2.800000 0.000000
      vertex 14.000000 8.800000 0.000000
    endloop
  endfacet
  facet normal -0.991445 0.000000 0.130526
    outer loop
      vertex 13.812592 2.800000 -1.423505
      vertex 14.000000 8.800000 0.000000
      vertex 13.812592 8.800000 -1.423505
    endloop
  endfacet
  facet normal 0.000000 -1.000000 0.000000
    outer loop
      vertex 11.000000 6.600000 -9.000000
      vertex 17.000000 6.600000 -9.000000
      vertex 17.000000 6.600000 -3.000000
    endloop
  endfacet
  facet normal 0.000000 -1.000000 0.000000
    outer loop
      vertex 11.000000 6.600000 -9.000000
      vertex 17.000000 6.600000 -3.000000
      vertex 11.000000 6.600000 -3.000000
    endloop
  endfacet
  facet normal 0.000000 1.000000 0.000000
    outer loop
      vertex 11.000000 2.600000 -3.000000
      vertex 17.000000 2.600000 -3.000000
      vertex 17.000000 2.600000 -9.000000
    endloop
  endfacet
  facet normal 0.000000 1.000000 0.000000
    outer loop
      vertex 11.000000 2.600000 -3.000000
      vertex 17.000000 2.600000 -9.000000
      vertex 11.000000 2.600000 -9.000000
    endloop
  endfacet
  facet normal 0.000000 0.000000 -1.000000
    outer loop
      vertex 11.000000 6.600000 -3.000000
      vertex 17.000000 6.600000 -3.000000
      vertex 17.000000 2.600000 -3.000000
    endloop
  endfacet
  facet normal 0.000000 0.000000 -1.000000
    outer loop
      vertex 11.000000 6.600000 -3.000000
      vertex 17.000000 2.600000 -3.000000
      vertex 11.000000 2.600000 -3.000000
    endloop
  endfacet
  facet normal 0.000000 0.000000 1.000000
    outer loop
      vertex 17.000000 2.600000 -9.000000
      vertex 17.000000 6.600000 -9.000000
      vertex 11.000000 6.600000 -9.000000
    endloop
  endfacet
  facet normal 0.000000 0.000000 1.000000
    outer loop
      vertex 17.000000 2.600000 -9.000000
      vertex 11.000000 6.600000 -9.000000
      vertex 11.000000 2.600000 -9.000000
    endloop
  endfacet
  facet normal -1.000000 0.000000 0.000000
    outer loop
      vertex 17.000000 2.600000 -3.000000
      vertex 17.000000 6.600000 -3.000000
      vertex 17.000000 6.600000 -9.000000
    endloop
  endfacet
  facet normal -1.000000 0.000000 0.000000
    outer loop
      vertex 17.000000 2.600000 -3.000000
      vertex 17.000000 6.600000 -9.000000
      vertex 17.000000 2.600000 -9.000000
    endloop
  endfacet
  facet normal 1.000000 0.000000 0.000000
    outer loop
      vertex 11.000000 2.600000 -9.000000
      vertex 11.000000 6.600000 -9.000000
      vertex 11.000000 6.600000 -3.000000
    endloop
  endfacet
  facet normal 1.000000 0.000000 0.000000
    outer loop
      vertex 11.000000 2.600000 -9.000000
      vertex 11.000000 6.600000 -3.000000
      vertex 11.000000 2.600000 -3.000000
    endloop
  endfacet
  facet normal 0.000000 -1.000000 0.000000
    outer loop
      vertex -22.000000 10.600000 3.000000
      vertex -12.000000 10.600000 3.000000
      vertex -12.000000 10.600000 11.000000
    endloop
  endfacet
  facet normal 0.000000 -1.000000 0.000000
    outer loop
      vertex -22.000000 10.600000 3.000000
      vertex -12.000000 10.600000 11.000000
      vertex -22.000000 10.600000 11.000000
    endloop
  endfacet
  facet normal 0.000000 1.000000 0.000000
    outer loop
      vertex -22.000000 1.600000 11.000000
      vertex -12.000000 1.600000 11.000000
      vertex -12.000000 1.600000 3.000000
    endloop
  endfacet
  facet normal 0.000000 1.000000 0.000000
    outer loop
      vertex -22.000000 1.600000 11.000000
      vertex -12.000000 1.600000 3.000000
      vertex -22.000000 1.600000 3.000000
    endloop
  endfacet
  facet normal 0.000000 0.000000 -1.000000
    outer loop
      vertex -22.000000 10.600000 11.000000
      vertex -12.000000 10.600000 11.000000
      vertex -12.000000 1.600000 11.000000
    endloop
  endfacet
  facet normal 0.000000 0.000000 -1.000000
    outer loop
      vertex -22.000000 10.600000 11.000000
      vertex -12.000000 1.600000 11.000000
      vertex -22.000000 1.600000 11.000000
    endloop
  endfacet
  facet normal 0.000000 0.000000 1.000000
    outer loop
      vertex -12.000000 1.600000 3.000000
      vertex -12.000000 10.600000 3.000000
      vertex -22.000000 10.600000 3.000000
    endloop
  endfacet
  facet normal 0.000000 0.000000 1.000000
    outer loop
      vertex -12.000000 1.600000 3.000000
      vertex -22.000000 10.600000 3.000000
      vertex -22.000000 1.600000 3.000000
    endloop
  endfacet
  facet normal -1.000000 0.000000 0.000000
    outer loop
      vertex -12.000000 1.600000 11.000000
      vertex -12.000000 10.600000 11.000000
      vertex -12.000000 10.600000 3.000000
    endloop
  endfacet
  facet normal -1.000000 0.000000 0.000000
    outer loop
      vertex -12.000000 1.600000 11.000000
      vertex -12.000000 10.600000 3.000000
      vertex -12.000000 1.600000 3.000000
    endloop
  endfacet
  facet normal 1.000000 0.000000 0.000000
    outer loop
      vertex -22.000000 1.600000 3.000000
      vertex -22.000000 10.600000 3.000000
      vertex -22.000000 10.600000 11.000000
    endloop
  endfacet
  facet normal 1.000000 0.000000 0.000000
    outer loop
      vertex -22.000000 1.600000 3.000000
      vertex -22.000000 10.600000 11.000000
      vertex -22.000000 1.600000 11.000000
    endloop
  endfacet
  facet normal 0.000000 -1.000000 0.000000
    outer loop
      vertex 12.000000 10.600000 3.000000
      vertex 22.000000 10.600000 3.000000
      vertex 22.000000 10.600000 11.000000
    endloop
  endfacet
  facet normal 0.000000 -1.000000 0.000000
    outer loop
      vertex 12.000000 10.600000 3.000000
      vertex 22.000000 10.600000 11.000000
      vertex 12.000000 10.600000 11.000000
    endloop
  endfacet
  facet normal 0.000000 1.000000 0.000000
    outer loop
      vertex 12.000000 1.600000 11.000000
      vertex 22.000000 1.600000 11.000000
      vertex 22.000000 1.600000 3.000000
    endloop
  endfacet
  facet normal 0.000000 1.000000 0.000000
    outer loop
      vertex 12.000000 1.600000 11.000000
      vertex 22.000000 1.600000 3.000000
      vertex 12.000000 1.600000 3.000000
    endloop
  endfacet
  facet normal 0.000000 0.000000 -1.000000
    outer loop
      vertex 12.000000 10.600000 11.000000
      vertex 22.000000 10.600000 11.000000
      vertex 22.000000 1.600000 11.000000
    endloop
  endfacet
  facet normal 0.000000 0.000000 -1.000000
    outer loop
      vertex 12.000000 10.600000 11.000000
      vertex 22.000000 1.600000 11.000000
      vertex 12.000000 1.600000 11.000000
    endloop
  endfacet
  facet normal 0.000000 0.000000 1.000000
    outer loop
      vertex 22.000000 1.600000 3.000000
      vertex 22.000000 10.600000 3.000000
      vertex 12.000000 10.600000 3.000000
    endloop
  endfacet
  facet normal 0.000000 0.000000 1.000000
    outer loop
      vertex 22.000000 1.600000 3.000000
      vertex 12.000000 10.600000 3.000000
      vertex 12.000000 1.600000 3.000000
    endloop
  endfacet
  facet normal -1.000000 0.000000 0.000000
    outer loop
      vertex 22.000000 1.600000 11.000000
      vertex 22.000000 10.600000 11.000000
      vertex 22.000000 10.600000 3.000000
    endloop
  endfacet
  facet normal -1.000000 0.000000 0.000000
    outer loop
      vertex 22.000000 1.600000 11.000000
      vertex 22.000000 10.600000 3.000000
      vertex 22.000000 1.600000 3.000000
    endloop
  endfacet
  facet normal 1.000000 0.000000 0.000000
    outer loop
      vertex 12.000000 1.600000 3.000000
      vertex 12.000000 10.600000 3.000000
      vertex 12.000000 10.600000 11.000000
    endloop
  endfacet
  facet normal 1.000000 0.000000 0.000000
    outer loop
      vertex 12.000000 1.600000 3.000000
      vertex 12.000000 10.600000 11.000000
      vertex 12.000000 1.600000 11.000000
    endloop
  endfacet
endsolid buck_converter_lm2596