solid load_cell_hx711
  facet normal 0.000000 -1.000000 0.000000
    outer loop
      vertex -17.000000 1.600000 -10.000000
      vertex 17.000000 1.600000 -10.000000
      vertex 17.000000 1.600000 10.000000
    endloop
  endfacet
  facet normal 0.000000 -1.000000 0.000000
    outer loop
      vertex -17.000000 1.600000 -10.000000
      vertex 17.000000 1.600000 10.000000
      vertex -17.000000 1.600000 10.000000
    endloop
  endfacet
  facet normal 0.000000 1.000000 0.000000
    outer loop
      vertex -17.000000 0.000000 10.000000
      vertex 17.000000 0.000000 10.000000
      vertex 17.000000 0.000000 -10.000000
    endloop
  endfacet
  facet normal 0.000000 1.000000 0.000000
    outer loop
      vertex -17.000000 0.000000 10.000000
      vertex 17.000000 0.000000 -10.000000
      vertex -17.000000 0.000000 -10.000000
    endloop
  endfacet
  facet normal 0.000000 0.000000 -1.000000
    outer loop
      vertex -17.000000 1.600000 10.000000
      vertex 17.000000 1.600000 10.000000
      vertex 17.000000 0.000000 10.000000
    endloop
  endfacet
  facet normal 0.000000 0.000000 -1.000000
    outer loop
      vertex -17.000000 1.600000 10.000000
      vertex 17.000000 0.000000 10.000000
      vertex -17.000000 0.000000 10.000000
    endloop
  endfacet
  facet normal 0.000000 0.000000 1.000000
    outer loop
      vertex 17.000000 0.000000 -10.000000
      vertex 17.000000 1.600000 -10.000000
      vertex -17.000000 1.600000 -10.000000
    endloop
  endfacet
  facet normal 0.000000 0.000000 1.000000
    outer loop
      vertex 17.000000 0.000000 -10.000000
      vertex -17.000000 1.600000 -10.000000
      vertex -17.000000 0.000000 -10.000000
    endloop
  endfacet
  facet normal -1.000000 0.000000 0.000000
    outer loop
      vertex 17.000000 0.000000 10.000000
      vertex 17.000000 1.600000 10.000000
      vertex 17.000000 1.600000 -10.000000
    endloop
  endfacet
  facet normal -1.000000 0.000000 0.000000
    outer loop
      vertex 17.000000 0.000000 10.000000
      vertex 17.000000 1.600000 -10.000000
      vertex 17.000000 0.000000 -10.000000
    endloop
  endfacet
  facet normal 1.000000 0.000000 0.000000
    outer loop
      vertex -17.000000 0.000000 -10.000000
      vertex -17.000000 1.600000 -10.000000
      vertex -17.000000 1.600000 10.000000
    endloop
  endfacet
  facet normal 1.000000 0.000000 0.000000
    outer loop
      vertex -17.000000 0.000000 -10.000000
      vertex -17.000000 1.600000 10.000000
      vertex -17.000000 0.000000 10.000000
    endloop
  endfacet
  facet normal 0.000000 -1.000000 0.000000
    outer loop
      vertex -12.530000 7.225000 -8.560000
      vertex -10.330000 7.225000 -8.560000
      vertex -10.330000 7.225000 -6.360000
    endloop
  endfacet
  facet normal 0.000000 -1.000000 0.000000
    outer loop
      vertex -12.530000 7.225000 -8.560000
      vertex -10.330000 7.225000 -6.360000
      vertex -12.530000 7.225000 -6.360000
    endloop
  endfacet
  facet normal 0.000000 1.000000 0.000000
    outer loop
      vertex -12.530000 5.675000 -6.360000
      vertex -10.330000 5.675000 -6.360000
      vertex -10.330000 5.675000 -8.560000
    endloop
  endfacet
  facet normal 0.000000 1.000000 0.000000
    outer loop
      vertex -12.530000 5.675000 -6.360000
      vertex -10.330000 5.675000 -8.560000
      vertex -12.530000 5.675000 -8.560000
    endloop
  endfacet
  facet normal 0.000000 0.000000 -1.000000
    outer loop
      vertex -12.530000 7.225000 -6.360000
      vertex -10.330000 7.225000 -6.360000
      vertex -10.330000 5.675000 -6.360000
    endloop
  endfacet
  facet normal 0.000000 0.000000 -1.000000
    outer loop
      vertex -12.530000 7.225000 -6.360000
      vertex -10.330000 5.675000 -6.360000
      vertex -12.530000 5.675000 -6.360000
    endloop
  endfacet
  facet normal 0.000000 0.000000 1.000000
    outer loop
      vertex -10.330000 5.675000 -8.560000
      vertex -10.330000 7.225000 -8.560000
      vertex -12.530000 7.225000 -8.560000
    endloop
  endfacet
  facet normal 0.000000 0.000000 1.000000
    outer loop
      vertex -10.330000 5.675000 -8.560000
      vertex -12.530000 7.225000 -8.560000
      vertex -12.530000 5.675000 -8.560000
    endloop
  endfacet
  facet normal -1.000000 0.000000 0.000000
    outer loop
      vertex -10.330000 5.675000 -6.360000
      vertex -10.330000 7.225000 -6.360000
      vertex -10.330000 7.225000 -8.560000
    endloop
  endfacet
  facet normal -1.000000 0.000000 0.000000
    outer loop
      vertex -10.330000 5.675000 -6.360000
      vertex -10.330000 7.225000 -8.560000
      vertex -10.330000 5.675000 -8.560000
    endloop
  endfacet
  facet normal 1.000000 0.000000 0.000000
    outer loop
      vertex -12.530000 5.675000 -8.560000
      vertex -12.530000 7.225000 -8.560000
      vertex -12.530000 7.225000 -6.360000
    endloop
  endfacet
  facet normal 1.000000 0.000000 0.000000
    outer loop
      vertex -12.530000 5.675000 -8.560000
      vertex -12.530000 7.225000 -6.360000
      vertex -12.530000 5.675000 -6.360000
    endloop
  endfacet
  facet normal 0.000000 -1.000000 0.000000
    outer loop
      vertex -11.760000 11.200000 -7.790000
      vertex -11.100000 11.200000 -7.790000
      vertex -11.100000 11.200000 -7.130000
    endloop
  endfacet
  facet normal 0.000000 -1.000000 0.000000
    outer loop
      vertex -11.760000 11.200000 -7.790000
      vertex -11.100000 11.200000 -7.130000
      vertex -11.760000 11.200000 -7.130000
    endloop
  endfacet
  facet normal 0.000000 1.000000 0.000000
    outer loop
      vertex -11.760000 6.000000 -7.130000
      vertex -11.100000 6.000000 -7.130000
      vertex -11.100000 6.000000 -7.790000
    endloop
  endfacet
  facet normal 0.000000 1.000000 0.000000
    outer loop
      vertex -11.760000 6.000000 -7.130000
      vertex -11.100000 6.000000 -7.790000
      vertex -11.760000 6.000000 -7.790000
    endloop
  endfacet
  facet normal 0.000000 0.000000 -1.000000
    outer loop
      vertex -11.760000 11.200000 -7.130000
      vertex -11.100000 11.200000 -7.130000
      vertex -11.100000 6.000000 -7.130000
    endloop
  endfacet
  facet normal 0.000000 0.000000 -1.000000
    outer loop
      vertex -11.760000 11.200000 -7.130000
      vertex -11.100000 6.000000 -7.130000
      vertex -11.760000 6.000000 -7.130000
    endloop
  endfacet
  facet normal 0.000000 0.000000 1.000000
    outer loop
      vertex -11.100000 6.000000 -7.790000
      vertex -11.100000 11.200000 -7.790000
      vertex -11.760000 11.200000 -7.790000
    endloop
  endfacet
  facet normal 0.000000 0.000000 1.000000
    outer loop
      vertex -11.100000 6.000000 -7.790000
      vertex -11.760000 11.200000 -7.790000
      vertex -11.760000 6.000000 -7.790000
    endloop
  endfacet
  facet normal -1.000000 0.000000 0.000000
    outer loop
      vertex -11.100000 6.000000 -7.130000
      vertex -11.100000 11.200000 -7.130000
      vertex -11.100000 11.200000 -7.790000
    endloop
  endfacet
  facet normal -1.000000 0.000000 0.000000
    outer loop
      vertex -11.100000 6.000000 -7.130000
      vertex -11.100000 11.200000 -7.790000
      vertex -11.100000 6.000000 -7.790000
    endloop
  endfacet
  facet normal 1.000000 0.000000 0.000000
    outer loop
      vertex -11.760000 6.000000 -7.790000
      vertex -11.760000 11.200000 -7.790000
      vertex -11.760000 11.200000 -7.130000
    endloop
  endfacet
  facet normal 1.000000 0.000000 0.000000
    outer loop
      vertex -11.760000 6.000000 -7.790000
      vertex -11.760000 11.200000 -7.130000
      vertex -11.760000 6.000000 -7.130000
    endloop
  endfacet
  facet normal 0.000000 -1.000000 0.000000
    outer loop
      vertex -9.990000 7.225000 -8.560000
      vertex -7.790000 7.225000 -8.560000
      vertex -7.790000 7.225000 -6.360000
    endloop
  endfacet
  facet normal 0.000000 -1.000000 0.000000
    outer loop
      vertex -9.990000 7.225000 -8.560000
      vertex -7.790000 7.225000 -6.360000
      vertex -9.990000 7.225000 -6.360000
    endloop
  endfacet
  facet normal 0.000000 1.000000 0.000000
    outer loop
      vertex -9.990000 5.675000 -6.360000
      vertex -7.790000 5.675000 -6.360000
      vertex -7.790000 5.675000 -8.560000
    endloop
  endfacet
  facet normal 0.000000 1.000000 0.000000
    outer loop
      vertex -9.990000 5.675000 -6.360000
      vertex -7.790000 5.675000 -8.560000
      vertex -9.990000 5.675000 -8.560000
    endloop
  endfacet
  facet normal 0.000000 0.000000 -1.000000
    outer loop
      vertex -9.990000 7.225000 -6.360000
      vertex -7.790000 7.225000 -6.360000
      vertex -7.790000 5.675000 -6.360000
    endloop
  endfacet
  facet normal 0.000000 0.000000 -1.000000
    outer loop
      vertex -9.990000 7.225000 -6.360000
      vertex -7.790000 5.675000 -6.360000
      vertex -9.990000 5.675000 -6.360000
    endloop
  endfacet
  facet normal 0.000000 0.000000 1.000000
    outer loop
      vertex -7.790000 5.675000 -8.560000
      vertex -7.790000 7.225000 -8.560000
      vertex -9.990000 7.225000 -8.560000
    endloop
  endfacet
  facet normal 0.000000 0.000000 1.000000
    outer loop
      vertex -7.790000 5.675000 -8.560000
      vertex -9.990000 7.225000 -8.560000
      vertex -9.990000 5.675000 -8.560000
    endloop
  endfacet
  facet normal -1.000000 0.000000 0.000000
    outer loop
      vertex -7.790000 5.675000 -6.360000
      vertex -7.790000 7.225000 -6.360000
      vertex -7.790000 7.225000 -8.560000
    endloop
  endfacet
  facet normal -1.000000 0.000000 0.000000
    outer loop
      vertex -7.790000 5.675000 -6.360000
      vertex -7.790000 7.225000 -8.560000
      vertex -7.790000 5.675000 -8.560000
    endloop
  endfacet
  facet normal 1.000000 0.000000 0.000000
    outer loop
      vertex -9.990000 5.675000 -8.560000
      vertex -9.990000 7.225000 -8.560000
      vertex -9.990000 7.225000 -6.360000
    endloop
  endfacet
  facet normal 1.000000 0.000000 0.000000
    outer loop
      vertex -9.990000 5.675000 -8.560000
      vertex -9.990000 7.225000 -6.360000
      vertex -9.990000 5.675000 -6.360000
    endloop
  endfacet
  facet normal 0.000000 -1.000000 0.000000
    outer loop
      vertex -9.220000 11.200000 -7.790000
      vertex -8.560000 11.200000 -7.790000
      vertex -8.560000 11.200000 -7.130000
    endloop
  endfacet
  facet normal 0.000000 -1.000000 0.000000
    outer loop
      vertex -9.220000 11.200000 -7.790000
      vertex -8.560000 11.200000 -7.130000
      vertex -9.220000 11.200000 -7.130000
    endloop
  endfacet
  facet normal 0.000000 1.000000 0.000000
    outer loop
      vertex -9.220000 6.000000 -7.130000
      vertex -8.560000 6.000000 -7.130000
      vertex -8.560000 6.000000 -7.790000
    endloop
  endfacet
  facet normal 0.000000 1.000000 0.000000
    outer loop
      vertex -9.220000 6.000000 -7.130000
      vertex -8.560000 6.000000 -7.790000
      vertex -9.220000 6.000000 -7.790000
    endloop
  endfacet
  facet normal 0.000000 0.000000 -1.000000
    outer loop
      vertex -9.220000 11.200000 -7.130000
      vertex -8.560000 11.200000 -7.130000
      vertex -8.560000 6.000000 -7.130000
    endloop
  endfacet
  facet normal 0.000000 0.000000 -1.000000
    outer loop
      vertex -9.220000 11.200000 -7.130000
      vertex -8.560000 6.000000 -7.130000
      vertex -9.220000 6.000000 -7.130000
    endloop
  endfacet
  facet normal 0.000000 0.000000 1.000000
    outer loop
      vertex -8.560000 6.000000 -7.790000
      vertex -8.560000 11.200000 -7.790000
      vertex -9.220000 11.200000 -7.790000
    endloop
  endfacet
  facet normal 0.000000 0.000000 1.000000
    outer loop
      vertex -8.560000 6.000000 -7.790000
      vertex -9.220000 11.200000 -7.790000
      vertex -9.220000 6.000000 -7.790000
    endloop
  endfacet
  facet normal -1.000000 0.000000 0.000000
    outer loop
      vertex -8.560000 6.000000 -7.130000
      vertex -8.560000 11.200000 -7.130000
      vertex -8.560000 11.200000 -7.790000
    endloop
  endfacet
  facet normal -1.000000 0.000000 0.000000
    outer loop
      vertex -8.560000 6.000000 -7.130000
      vertex -8.560000 11.200000 -7.790000
      vertex -8.560000 6.000000 -7.790000
    endloop
  endfacet
  facet normal 1.000000 0.000000 0.000000
    outer loop
      vertex -9.220000 6.000000 -7.790000
      vertex -9.220000 11.200000 -7.790000
      vertex -9.220000 11.200000 -7.130000
    endloop
  endfacet
  facet normal 1.000000 0.000000 0.000000
    outer loop
      vertex -9.220000 6.000000 -7.790000
      vertex -9.220000 11.200000 -7.130000
      vertex -9.220000 6.000000 -7.130000
    endloop
  endfacet
  facet normal 0.000000 -1.000000 0.000000
    outer loop
      vertex -7.450000 7.225000 -8.560000
      vertex -5.250000 7.225000 -8.560000
      vertex -5.250000 7.225000 -6.360000
    endloop
  endfacet
  facet normal 0.000000 -1.000000 0.000000
    outer loop
      vertex -7.450000 7.225000 -8.560000
      vertex -5.250000 7.225000 -6.360000
      vertex -7.450000 7.225000 -6.360000
    endloop
  endfacet
  facet normal 0.000000 1.000000 0.000000
    outer loop
      vertex -7.450000 5.675000 -6.360000
      vertex -5.250000 5.675000 -6.360000
      vertex -5.250000 5.675000 -8.560000
    endloop
  endfacet
  facet normal 0.000000 1.000000 0.000000
    outer loop
      vertex -7.450000 5.675000 -6.360000
      vertex -5.250000 5.675000 -8.560000
      vertex -7.450000 5.675000 -8.560000
    endloop
  endfacet
  facet normal 0.000000 0.000000 -1.000000
    outer loop
      vertex -7.450000 7.225000 -6.360000
      vertex -5.250000 7.225000 -6.360000
      vertex -5.250000 5.675000 -6.360000
    endloop
  endfacet
  facet normal 0.000000 0.000000 -1.000000
    outer loop
      vertex -7.450000 7.225000 -6.360000
      vertex -5.250000 5.675000 -6.360000
      vertex -7.450000 5.675000 -6.360000
    endloop
  endfacet
  facet normal 0.000000 0.000000 1.000000
    outer loop
      vertex -5.250000 5.675000 -8.560000
      vertex -5.250000 7.225000 -8.560000
      vertex -7.450000 7.225000 -8.560000
    endloop
  endfacet
  facet normal 0.000000 0.000000 1.000000
    outer loop
      vertex -5.250000 5.675000 -8.560000
      vertex -7.450000 7.225000 -8.560000
      vertex -7.450000 5.675000 -8.560000
    endloop
  endfacet
  facet normal -1.000000 0.000000 0.000000
    outer loop
      vertex -5.250000 5.675000 -6.360000
      vertex -5.250000 7.225000 -6.360000
      vertex -5.250000 7.225000 -8.560000
    endloop
  endfacet
  facet normal -1.000000 0.000000 0.000000
    outer loop
      vertex -5.250000 5.675000 -6.360000
      vertex -5.250000 7.225000 -8.560000
      vertex -5.250000 5.675000 -8.560000
    endloop
  endfacet
  facet normal 1.000000 0.000000 0.000000
    outer loop
      vertex -7.450000 5.675000 -8.560000
      vertex -7.450000 7.225000 -8.560000
      vertex -7.450000 7.225000 -6.360000
    endloop
  endfacet
  facet normal 1.000000 0.000000 0.000000
    outer loop
      vertex -7.450000 5.675000 -8.560000
      vertex -7.450000 7.225000 -6.360000
      vertex -7.450000 5.675000 -6.360000
    endloop
  endfacet
  facet normal 0.000000 -1.000000 0.000000
    outer loop
      vertex -6.680000 11.200000 -7.790000
      vertex -6.020000 11.200000 -7.790000
      vertex -6.020000 11.200000 -7.130000
    endloop
  endfacet
  facet normal 0.000000 -1.000000 0.000000
    outer loop
      vertex -6.680000 11.200000 -7.790000
      vertex -6.020000 11.200000 -7.130000
      vertex -6.680000 11.200000 -7.130000
    endloop
  endfacet
  facet normal 0.000000 1.000000 0.000000
    outer loop
      vertex -6.680000 6.000000 -7.130000
      vertex -6.020000 6.000000 -7.130000
      vertex -6.020000 6.000000 -7.790000
    endloop
  endfacet
  facet normal 0.000000 1.000000 0.000000
    outer loop
      vertex -6.680000 6.000000 -7.130000
      vertex -6.020000 6.000000 -7.790000
      vertex -6.680000 6.000000 -7.790000
    endloop
  endfacet
  facet normal 0.000000 0.000000 -1.000000
    outer loop
      vertex -6.680000 11.200000 -7.130000
      vertex -6.020000 11.200000 -7.130000
      vertex -6.020000 6.000000 -7.130000
    endloop
  endfacet
  facet normal 0.000000 0.000000 -1.000000
    outer loop
      vertex -6.680000 11.200000 -7.130000
      vertex -6.020000 6.000000 -7.130000
      vertex -6.680000 6.000000 -7.130000
    endloop
  endfacet
  facet normal 0.000000 0.000000 1.000000
    outer loop
      vertex -6.020000 6.000000 -7.790000
      vertex -6.020000 11.200000 -7.790000
      vertex -6.680000 11.200000 -7.790000
    endloop
  endfacet
  facet normal 0.000000 0.000000 1.000000
    outer loop
      vertex -6.020000 6.000000 -7.790000
      vertex -6.680000 11.200000 -7.790000
      vertex -6.680000 6.000000 -7.790000
    endloop
  endfacet
  facet normal -1.000000 0.000000 0.000000
    outer loop
      vertex -6.020000 6.000000 -7.130000
      vertex -6.020000 11.200000 -7.130000
      vertex -6.020000 11.200000 -7.790000
    endloop
  endfacet
  facet normal -1.000000 0.000000 0.000000
    outer loop
      vertex -6.020000 6.000000 -7.130000
      vertex -6.020000 11.200000 -7.790000
      vertex -6.020000 6.000000 -7.790000
    endloop
  endfacet
  facet normal 1.000000 0.000000 0.000000
    outer loop
      vertex -6.680000 6.000000 -7.790000
      vertex -6.680000 11.200000 -7.790000
      vertex -6.680000 11.200000 -7.130000
    endloop
  endfacet
  facet normal 1.000000 0.000000 0.000000
    outer loop
      vertex -6.680000 6.000000 -7.790000
      vertex -6.680000 11.200000 -7.130000
      vertex -6.680000 6.000000 -7.130000
    endloop
  endfacet
  facet normal 0.000000 -1.000000 0.000000
    outer loop
      vertex -4.910000 7.225000 -8.560000
      vertex -2.710000 7.225000 -8.560000
      vertex -2.710000 7.225000 -6.360000
    endloop
  endfacet
  facet normal 0.000000 -1.000000 0.000000
    outer loop
      vertex -4.910000 7.225000 -8.560000
      vertex -2.710000 7.225000 -6.360000
      vertex -4.910000 7.225000 -6.360000
    endloop
  endfacet
  facet normal 0.000000 1.000000 0.000000
    outer loop
      vertex -4.910000 5.675000 -6.360000
      vertex -2.710000 5.675000 -6.360000
      vertex -2.710000 5.675000 -8.560000
    endloop
  endfacet
  facet normal 0.000000 1.000000 0.000000
    outer loop
      vertex -4.910000 5.675000 -6.360000
      vertex -2.710000 5.675000 -8.560000
      vertex -4.910000 5.675000 -8.560000
    endloop
  endfacet
  facet normal 0.000000 0.000000 -1.000000
    outer loop
      vertex -4.910000 7.225000 -6.360000
      vertex -2.710000 7.225000 -6.360000
      vertex -2.710000 5.675000 -6.360000
    endloop
  endfacet
  facet normal 0.000000 0.000000 -1.000000
    outer loop
      vertex -4.910000 7.225000 -6.360000
      vertex -2.710000 5.675000 -6.360000
      vertex -4.910000 5.675000 -6.360000
    endloop
  endfacet
  facet normal 0.000000 0.000000 1.000000
    outer loop
      vertex -2.710000 5.675000 -8.560000
      vertex -2.710000 7.225000 -8.560000
      vertex -4.910000 7.225000 -8.560000
    endloop
  endfacet
  facet normal 0.000000 0.000000 1.000000
    outer loop
      vertex -2.710000 5.675000 -8.560000
      vertex -4.910000 7.225000 -8.560000
      vertex -4.910000 5.675000 -8.560000
    endloop
  endfacet
  facet normal -1.000000 0.000000 0.000000
    outer loop
      vertex -2.710000 5.675000 -6.360000
      vertex -2.710000 7.225000 -6.360000
      vertex -2.710000 7.225000 -8.560000
    endloop
  endfacet
  facet normal -1.000000 0.000000 0.000000
    outer loop
      vertex -2.710000 5.675000 -6.360000
      vertex -2.710000 7.225000 -8.560000
      vertex -2.710000 5.675000 -8.560000
    endloop
  endfacet
  facet normal 1.000000 0.000000 0.000000
    outer loop
      vertex -4.910000 5.675000 -8.560000
      vertex -4.910000 7.225000 -8.560000
      vertex -4.910000 7.225000 -6.360000
    endloop
  endfacet
  facet normal 1.000000 0.000000 0.000000
    outer loop
      vertex -4.910000 5.675000 -8.560000
      vertex -4.910000 7.225000 -6.360000
      vertex -4.910000 5.675000 -6.360000
    endloop
  endfacet
  facet normal 0.000000 -1.000000 0.000000
    outer loop
      vertex -4.140000 11.200000 -7.790000
      vertex -3.480000 11.200000 -7.790000
      vertex -3.480000 11.200000 -7.130000
    endloop
  endfacet
  facet normal 0.000000 -1.000000 0.000000
    outer loop
      vertex -4.140000 11.200000 -7.790000
      vertex -3.480000 11.200000 -7.130000
      vertex -4.140000 11.200000 -7.130000
    endloop
  endfacet
  facet normal 0.000000 1.000000 0.000000
    outer loop
      vertex -4.140000 6.000000 -7.130000
      vertex -3.480000 6.000000 -7.130000
      vertex -3.480000 6.000000 -7.790000
    endloop
  endfacet
  facet normal 0.000000 1.000000 0.000000
    outer loop
      vertex -4.140000 6.000000 -7.130000
      vertex -3.480000 6.000000 -7.790000
      vertex -4.140000 6.000000 -7.790000
    endloop
  endfacet
  facet normal 0.000000 0.000000 -1.000000
    outer loop
      vertex -4.140000 11.200000 -7.130000
      vertex -3.480000 11.200000 -7.130000
      vertex -3.480000 6.000000 -7.130000
    endloop
  endfacet
  facet normal 0.000000 0.000000 -1.000000
    outer loop
      vertex -4.140000 11.200000 -7.130000
      vertex -3.480000 6.000000 -7.130000
      vertex -4.140000 6.000000 -7.130000
    endloop
  endfacet
  facet normal 0.000000 0.000000 1.000000
    outer loop
      vertex -3.480000 6.000000 -7.790000
      vertex -3.480000 11.200000 -7.790000
      vertex -4.140000 11.200000 -7.790000
    endloop
  endfacet
  facet normal 0.000000 0.000000 1.000000
    outer loop
      vertex -3.480000 6.000000 -7.790000
      vertex -4.140000 11.200000 -7.790000
      vertex -4.140000 6.000000 -7.790000
    endloop
  endfacet
  facet normal -1.000000 0.000000 0.000000
    outer loop
      vertex -3.480000 6.000000 -7.130000
      vertex -3.480000 11.200000 -7.130000
      vertex -3.480000 11.200000 -7.790000
    endloop
  endfacet
  facet normal -1.000000 0.000000 0.000000
    outer loop
      vertex -3.480000 6.000000 -7.130000
      vertex -3.480000 11.200000 -7.790000
      vertex -3.480000 6.000000 -7.790000
    endloop
  endfacet
  facet normal 1.000000 0.000000 0.000000
    outer loop
      vertex -4.140000 6.000000 -7.790000
      vertex -4.140000 11.200000 -7.790000
      vertex -4.140000 11.200000 -7.130000
    endloop
  endfacet
  facet normal 1.000000 0.000000 0.000000
    outer loop
      vertex -4.140000 6.000000 -7.790000
      vertex -4.140000 11.200000 -7.130000
      vertex -4.140000 6.000000 -7.130000
    endloop
  endfacet
  facet normal 0.000000 -1.000000 0.000000
    outer loop
      vertex -2.370000 7.225000 -8.560000
      vertex -0.170000 7.225000 -8.560000
      vertex -0.170000 7.225000 -6.360000
    endloop
  endfacet
  facet normal 0.000000 -1.000000 0.000000
    outer loop
      vertex -2.370000 7.225000 -8.560000
      vertex -0.170000 7.225000 -6.360000
      vertex -2.370000 7.225000 -6.360000
    endloop
  endfacet
  facet normal 0.000000 1.000000 0.000000
    outer loop
      vertex -2.370000 5.675000 -6.360000
      vertex -0.170000 5.675000 -6.360000
      vertex -0.170000 5.675000 -8.560000
    endloop
  endfacet
  facet normal 0.000000 1.000000 0.000000
    outer loop
      vertex -2.370000 5.675000 -6.360000
      vertex -0.170000 5.675000 -8.560000
      vertex -2.370000 5.675000 -8.560000
    endloop
  endfacet
  facet normal 0.000000 0.000000 -1.000000
    outer loop
      vertex -2.370000 7.225000 -6.360000
      vertex -0.170000 7.225000 -6.360000
      vertex -0.170000 5.675000 -6.360000
    endloop
  endfacet
  facet normal 0.000000 0.000000 -1.000000
    outer loop
      vertex -2.370000 7.225000 -6.360000
      vertex -0.170000 5.675000 -6.360000
      vertex -2.370000 5.675000 -6.360000
    endloop
  endfacet
  facet normal 0.000000 0.000000 1.000000
    outer loop
      vertex -0.170000 5.675000 -8.560000
      vertex -0.170000 7.225000 -8.560000
      vertex -2.370000 7.225000 -8.560000
    endloop
  endfacet
  facet normal 0.000000 0.000000 1.000000
    outer loop
      vertex -0.170000 5.675000 -8.560000
      vertex -2.370000 7.225000 -8.560000
      vertex -2.370000 5.675000 -8.560000
    endloop
  endfacet
  facet normal -1.000000 0.000000 0.000000
    outer loop
      vertex -0.170000 5.675000 -6.360000
      vertex -0.170000 7.225000 -6.360000
      vertex -0.170000 7.225000 -8.560000
    endloop
  endfacet
  facet normal -1.000000 0.000000 0.000000
    outer loop
      vertex -0.170000 5.675000 -6.360000
      vertex -0.170000 7.225000 -8.560000
      vertex -0.170000 5.675000 -8.560000
    endloop
  endfacet
  facet normal 1.000000 0.000000 0.000000
    outer loop
      vertex -2.370000 5.675000 -8.560000
      vertex -2.370000 7.225000 -8.560000
      vertex -2.370000 7.225000 -6.360000
    endloop
  endfacet
  facet normal 1.000000 0.000000 0.000000
    outer loop
      vertex -2.370000 5.675000 -8.560000
      vertex -2.370000 7.225000 -6.360000
      vertex -2.370000 5.675000 -6.360000
    endloop
  endfacet
  facet normal 0.000000 -1.000000 0.000000
    outer loop
      vertex -1.600000 11.200000 -7.790000
      vertex -0.940000 11.200000 -7.790000
      vertex -0.940000 11.200000 -7.130000
    endloop
  endfacet
  facet normal 0.000000 -1.000000 0.000000
    outer loop
      vertex -1.600000 11.200000 -7.790000
      vertex -0.940000 11.200000 -7.130000
      vertex -1.600000 11.200000 -7.130000
    endloop
  endfacet
  facet normal 0.000000 1.000000 0.000000
    outer loop
      vertex -1.600000 6.000000 -7.130000
      vertex -0.940000 6.000000 -7.130000
      vertex -0.940000 6.000000 -7.790000
    endloop
  endfacet
  facet normal 0.000000 1.000000 0.000000
    outer loop
      vertex -1.600000 6.000000 -7.130000
      vertex -0.940000 6.000000 -7.790000
      vertex -1.600000 6.000000 -7.790000
    endloop
  endfacet
  facet normal 0.000000 0.000000 -1.000000
    outer loop
      vertex -1.600000 11.200000 -7.130000
      vertex -0.940000 11.200000 -7.130000
      vertex -0.940000 6.000000 -7.130000
    endloop
  endfacet
  facet normal 0.000000 0.000000 -1.000000
    outer loop
      vertex -1.600000 11.200000 -7.130000
      vertex -0.940000 6.000000 -7.130000
      vertex -1.600000 6.000000 -7.130000
    endloop
  endfacet
  facet normal 0.000000 0.000000 1.000000
    outer loop
      vertex -0.940000 6.000000 -7.790000
      vertex -0.940000 11.200000 -7.790000
      vertex -1.600000 11.200000 -7.790000
    endloop
  endfacet
  facet normal 0.000000 0.000000 1.000000
    outer loop
      vertex -0.940000 6.000000 -7.790000
      vertex -1.600000 11.200000 -7.790000
      vertex -1.600000 6.000000 -7.790000
    endloop
  endfacet
  facet normal -1.000000 0.000000 0.000000
    outer loop
      vertex -0.940000 6.000000 -7.130000
      vertex -0.940000 11.200000 -7.130000
      vertex -0.940000 11.200000 -7.790000
    endloop
  endfacet
  facet normal -1.000000 0.000000 0.000000
    outer loop
      vertex -0.940000 6.000000 -7.130000
      vertex -0.940000 11.200000 -7.790000
      vertex -0.940000 6.000000 -7.790000
    endloop
  endfacet
  facet normal 1.000000 0.000000 0.000000
    outer loop
      vertex -1.600000 6.000000 -7.790000
      vertex -1.600000 11.200000 -7.790000
      vertex -1.600000 11.200000 -7.130000
    endloop
  endfacet
  facet normal 1.000000 0.000000 0.000000
    outer loop
      vertex -1.600000 6.000000 -7.790000
      vertex -1.600000 11.200000 -7.130000
      vertex -1.600000 6.000000 -7.130000
    endloop
  endfacet
  facet normal 0.000000 -1.000000 0.000000
    outer loop
      vertex 0.170000 7.225000 -8.560000
      vertex 2.370000 7.225000 -8.560000
      vertex 2.370000 7.225000 -6.360000
    endloop
  endfacet
  facet normal 0.000000 -1.000000 0.000000
    outer loop
      vertex 0.170000 7.225000 -8.560000
      vertex 2.370000 7.225000 -6.360000
      vertex 0.170000 7.225000 -6.360000
    endloop
  endfacet
  facet normal 0.000000 1.000000 0.000000
    outer loop
      vertex 0.170000 5.675000 -6.360000
      vertex 2.370000 5.675000 -6.360000
      vertex 2.370000 5.675000 -8.560000
    endloop
  endfacet
  facet normal 0.000000 1.000000 0.000000
    outer loop
      vertex 0.170000 5.675000 -6.360000
      vertex 2.370000 5.675000 -8.560000
      vertex 0.170000 5.675000 -8.560000
    endloop
  endfacet
  facet normal 0.000000 0.000000 -1.000000
    outer loop
      vertex 0.170000 7.225000 -6.360000
      vertex 2.370000 7.225000 -6.360000
      vertex 2.370000 5.675000 -6.360000
    endloop
  endfacet
  facet normal 0.000000 0.000000 -1.000000
    outer loop
      vertex 0.170000 7.225000 -6.360000
      vertex 2.370000 5.675000 -6.360000
      vertex 0.170000 5.675000 -6.360000
    endloop
  endfacet
  facet normal 0.000000 0.000000 1.000000
    outer loop
      vertex 2.370000 5.675000 -8.560000
      vertex 2.370000 7.225000 -8.560000
      vertex 0.170000 7.225000 -8.560000
    endloop
  endfacet
  facet normal 0.000000 0.000000 1.000000
    outer loop
      vertex 2.370000 5.675000 -8.560000
      vertex 0.170000 7.225000 -8.560000
      vertex 0.170000 5.675000 -8.560000
    endloop
  endfacet
  facet normal -1.000000 0.000000 0.000000
    outer loop
      vertex 2.370000 5.675000 -6.360000
      vertex 2.370000 7.225000 -6.360000
      vertex 2.370000 7.225000 -8.560000
    endloop
  endfacet
  facet normal -1.000000 0.000000 0.000000
    outer loop
      vertex 2.370000 5.675000 -6.360000
      vertex 2.370000 7.225000 -8.560000
      vertex 2.370000 5.675000 -8.560000
    endloop
  endfacet
  facet normal 1.000000 0.000000 0.000000
    outer loop
      vertex 0.170000 5.675000 -8.560000
      vertex 0.170000 7.225000 -8.560000
      vertex 0.170000 7.225000 -6.360000
    endloop
  endfacet
  facet normal 1.000000 0.000000 0.000000
    outer loop
      vertex 0.170000 5.675000 -8.560000
      vertex 0.170000 7.225000 -6.360000
      vertex 0.170000 5.675000 -6.360000
    endloop
  endfacet
  facet normal 0.000000 -1.000000 0.000000
    outer loop
      vertex 0.940000 11.200000 -7.790000
      vertex 1.600000 11.200000 -7.790000
      vertex 1.600000 11.200000 -7.130000
    endloop
  endfacet
  facet normal 0.000000 -1.000000 0.000000
    outer loop
      vertex 0.940000 11.200000 -7.790000
      vertex 1.600000 11.200000 -7.130000
      vertex 0.940000 11.200000 -7.130000
    endloop
  endfacet
  facet normal 0.000000 1.000000 0.000000
    outer loop
      vertex 0.940000 6.000000 -7.130000
      vertex 1.600000 6.000000 -7.130000
      vertex 1.600000 6.000000 -7.790000
    endloop
  endfacet
  facet normal 0.000000 1.000000 0.000000
    outer loop
      vertex 0.940000 6.000000 -7.130000
      vertex 1.600000 6.000000 -7.790000
      vertex 0.940000 6.000000 -7.790000
    endloop
  endfacet
  facet normal 0.000000 0.000000 -1.000000
    outer loop
      vertex 0.940000 11.200000 -7.130000
      vertex 1.600000 11.200000 -7.130000
      vertex 1.600000 6.000000 -7.130000
    endloop
  endfacet
  facet normal 0.000000 0.000000 -1.000000
    outer loop
      vertex 0.940000 11.200000 -7.130000
      vertex 1.600000 6.000000 -7.130000
      vertex 0.940000 6.000000 -7.130000
    endloop
  endfacet
  facet normal 0.000000 0.000000 1.000000
    outer loop
      vertex 1.600000 6.000000 -7.790000
      vertex 1.600000 11.200000 -7.790000
      vertex 0.940000 11.200000 -7.790000
    endloop
  endfacet
  facet normal 0.000000 0.000000 1.000000
    outer loop
      vertex 1.600000 6.000000 -7.790000
      vertex 0.940000 11.200000 -7.790000
      vertex 0.940000 6.000000 -7.790000
    endloop
  endfacet
  facet normal -1.000000 0.000000 0.000000
    outer loop
      vertex 1.600000 6.000000 -7.130000
      vertex 1.600000 11.200000 -7.130000
      vertex 1.600000 11.200000 -7.790000
    endloop
  endfacet
  facet normal -1.000000 0.000000 0.000000
    outer loop
      vertex 1.600000 6.000000 -7.130000
      vertex 1.600000 11.200000 -7.790000
      vertex 1.600000 6.000000 -7.790000
    endloop
  endfacet
  facet normal 1.000000 0.000000 0.000000
    outer loop
      vertex 0.940000 6.000000 -7.790000
      vertex 0.940000 11.200000 -7.790000
      vertex 0.940000 11.200000 -7.130000
    endloop
  endfacet
  facet normal 1.000000 0.000000 0.000000
    outer loop
      vertex 0.940000 6.000000 -7.790000
      vertex 0.940000 11.200000 -7.130000
      vertex 0.940000 6.000000 -7.130000
    endloop
  endfacet
  facet normal 0.000000 -1.000000 0.000000
    outer loop
      vertex 2.710000 7.225000 -8.560000
      vertex 4.910000 7.225000 -8.560000
      vertex 4.910000 7.225000 -6.360000
    endloop
  endfacet
  facet normal 0.000000 -1.000000 0.000000
    outer loop
      vertex 2.710000 7.225000 -8.560000
      vertex 4.910000 7.225000 -6.360000
      vertex 2.710000 7.225000 -6.360000
    endloop
  endfacet
  facet normal 0.000000 1.000000 0.000000
    outer loop
      vertex 2.710000 5.675000 -6.360000
      vertex 4.910000 5.675000 -6.360000
      vertex 4.910000 5.675000 -8.560000
    endloop
  endfacet
  facet normal 0.000000 1.000000 0.000000
    outer loop
      vertex 2.710000 5.675000 -6.360000
      vertex 4.910000 5.675000 -8.560000
      vertex 2.710000 5.675000 -8.560000
    endloop
  endfacet
  facet normal 0.000000 0.000000 -1.000000
    outer loop
      vertex 2.710000 7.225000 -6.360000
      vertex 4.910000 7.225000 -6.360000
      vertex 4.910000 5.675000 -6.360000
    endloop
  endfacet
  facet normal 0.000000 0.000000 -1.000000
    outer loop
      vertex 2.710000 7.225000 -6.360000
      vertex 4.910000 5.675000 -6.360000
      vertex 2.710000 5.675000 -6.360000
    endloop
  endfacet
  facet normal 0.000000 0.000000 1.000000
    outer loop
      vertex 4.910000 5.675000 -8.560000
      vertex 4.910000 7.225000 -8.560000
      vertex 2.710000 7.225000 -8.560000
    endloop
  endfacet
  facet normal 0.000000 0.000000 1.000000
    outer loop
      vertex 4.910000 5.675000 -8.560000
      vertex 2.710000 7.225000 -8.560000
      vertex 2.710000 5.675000 -8.560000
    endloop
  endfacet
  facet normal -1.000000 0.000000 0.000000
    outer loop
      vertex 4.910000 5.675000 -6.360000
      vertex 4.910000 7.225000 -6.360000
      vertex 4.910000 7.225000 -8.560000
    endloop
  endfacet
  facet normal -1.000000 0.000000 0.000000
    outer loop
      vertex 4.910000 5.675000 -6.360000
      vertex 4.910000 7.225000 -8.560000
      vertex 4.910000 5.675000 -8.560000
    endloop
  endfacet
  facet normal 1.000000 0.000000 0.000000
    outer loop
      vertex 2.710000 5.675000 -8.560000
      vertex 2.710000 7.225000 -8.560000
      vertex 2.710000 7.225000 -6.360000
    endloop
  endfacet
  facet normal 1.000000 0.000000 0.000000
    outer loop
      vertex 2.710000 5.675000 -8.560000
      vertex 2.710000 7.225000 -6.360000
      vertex 2.710000 5.675000 -6.360000
    endloop
  endfacet
  facet normal 0.000000 -1.000000 0.000000
    outer loop
      vertex 3.480000 11.200000 -7.790000
      vertex 4.140000 11.200000 -7.790000
      vertex 4.140000 11.200000 -7.130000
    endloop
  endfacet
  facet normal 0.000000 -1.000000 0.000000
    outer loop
      vertex 3.480000 11.200000 -7.790000
      vertex 4.140000 11.200000 -7.130000
      vertex 3.480000 11.200000 -7.130000
    endloop
  endfacet
  facet normal 0.000000 1.000000 0.000000
    outer loop
      vertex 3.480000 6.000000 -7.130000
      vertex 4.140000 6.000000 -7.130000
      vertex 4.140000 6.000000 -7.790000
    endloop
  endfacet
  facet normal 0.000000 1.000000 0.000000
    outer loop
      vertex 3.480000 6.000000 -7.130000
      vertex 4.140000 6.000000 -7.790000
      vertex 3.480000 6.000000 -7.790000
    endloop
  endfacet
  facet normal 0.000000 0.000000 -1.000000
    outer loop
      vertex 3.480000 11.200000 -7.130000
      vertex 4.140000 11.200000 -7.130000
      vertex 4.140000 6.000000 -7.130000
    endloop
  endfacet
  facet normal 0.000000 0.000000 -1.000000
    outer loop
      vertex 3.480000 11.200000 -7.130000
      vertex 4.140000 6.000000 -7.130000
      vertex 3.480000 6.000000 -7.130000
    endloop
  endfacet
  facet normal 0.000000 0.000000 1.000000
    outer loop
      vertex 4.140000 6.000000 -7.790000
      vertex 4.140000 11.200000 -7.790000
      vertex 3.480000 11.200000 -7.790000
    endloop
  endfacet
  facet normal 0.000000 0.000000 1.000000
    outer loop
      vertex 4.140000 6.000000 -7.790000
      vertex 3.480000 11.200000 -7.790000
      vertex 3.480000 6.000000 -7.790000
    endloop
  endfacet
  facet normal -1.000000 0.000000 0.000000
    outer loop
      vertex 4.140000 6.000000 -7.130000
      vertex 4.140000 11.200000 -7.130000
      vertex 4.140000 11.200000 -7.790000
    endloop
  endfacet
  facet normal -1.000000 0.000000 0.000000
    outer loop
      vertex 4.140000 6.000000 -7.130000
      vertex 4.140000 11.200000 -7.790000
      vertex 4.140000 6.000000 -7.790000
    endloop
  endfacet
  facet normal 1.000000 0.000000 0.000000
    outer loop
      vertex 3.480000 6.000000 -7.790000
      vertex 3.480000 11.200000 -7.790000
      vertex 3.480000 11.200000 -7.130000
    endloop
  endfacet
  facet normal 1.000000 0.000000 0.000000
    outer loop
      vertex 3.480000 6.000000 -7.790000
      vertex 3.480000 11.200000 -7.130000
      vertex 3.480000 6.000000 -7.130000
    endloop
  endfacet
  facet normal 0.000000 -1.000000 0.000000
    outer loop
      vertex 5.250000 7.225000 -8.560000
      vertex 7.450000 7.225000 -8.560000
      vertex 7.450000 7.225000 -6.360000
    endloop
  endfacet
  facet normal 0.000000 -1.000000 0.000000
    outer loop
      vertex 5.250000 7.225000 -8.560000
      vertex 7.450000 7.225000 -6.360000
      vertex 5.250000 7.225000 -6.360000
    endloop
  endfacet
  facet normal 0.000000 1.000000 0.000000
    outer loop
      vertex 5.250000 5.675000 -6.360000
      vertex 7.450000 5.675000 -6.360000
      vertex 7.450000 5.675000 -8.560000
    endloop
  endfacet
  facet normal 0.000000 1.000000 0.000000
    outer loop
      vertex 5.250000 5.675000 -6.360000
      vertex 7.450000 5.675000 -8.560000
      vertex 5.250000 5.675000 -8.560000
    endloop
  endfacet
  facet normal 0.000000 0.000000 -1.000000
    outer loop
      vertex 5.250000 7.225000 -6.360000
      vertex 7.450000 7.225000 -6.360000
      vertex 7.450000 5.675000 -6.360000
    endloop
  endfacet
  facet normal 0.000000 0.000000 -1.000000
    outer loop
      vertex 5.250000 7.225000 -6.360000
      vertex 7.450000 5.675000 -6.360000
      vertex 5.250000 5.675000 -6.360000
    endloop
  endfacet
  facet normal 0.000000 0.000000 1.000000
    outer loop
      vertex 7.450000 5.675000 -8.560000
      vertex 7.450000 7.225000 -8.560000
      vertex 5.250000 7.225000 -8.560000
    endloop
  endfacet
  facet normal 0.000000 0.000000 1.000000
    outer loop
      vertex 7.450000 5.675000 -8.560000
      vertex 5.250000 7.225000 -8.560000
      vertex 5.250000 5.675000 -8.560000
    endloop
  endfacet
  facet normal -1.000000 0.000000 0.000000
    outer loop
      vertex 7.450000 5.675000 -6.360000
      vertex 7.450000 7.225000 -6.360000
      vertex 7.450000 7.225000 -8.560000
    endloop
  endfacet
  facet normal -1.000000 0.000000 0.000000
    outer loop
      vertex 7.450000 5.675000 -6.360000
      vertex 7.450000 7.225000 -8.560000
      vertex 7.450000 5.675000 -8.560000
    endloop
  endfacet
  facet normal 1.000000 0.000000 0.000000
    outer loop
      vertex 5.250000 5.675000 -8.560000
      vertex 5.250000 7.225000 -8.560000
      vertex 5.250000 7.225000 -6.360000
    endloop
  endfacet
  facet normal 1.000000 0.000000 0.000000
    outer loop
      vertex 5.250000 5.675000 -8.560000
      vertex 5.250000 7.225000 -6.360000
      vertex 5.250000 5.675000 -6.360000
    endloop
  endfacet
  facet normal 0.000000 -1.000000 0.000000
    outer loop
      vertex 6.020000 11.200000 -7.790000
      vertex 6.680000 11.200000 -7.790000
      vertex 6.680000 11.200000 -7.130000
    endloop
  endfacet
  facet normal 0.000000 -1.000000 0.000000
    outer loop
      vertex 6.020000 11.200000 -7.790000
      vertex 6.680000 11.200000 -7.130000
      vertex 6.020000 11.200000 -7.130000
    endloop
  endfacet
  facet normal 0.000000 1.000000 0.000000
    outer loop
      vertex 6.020000 6.000000 -7.130000
      vertex 6.680000 6.000000 -7.130000
      vertex 6.680000 6.000000 -7.790000
    endloop
  endfacet
  facet normal 0.000000 1.000000 0.000000
    outer loop
      vertex 6.020000 6.000000 -7.130000
      vertex 6.680000 6.000000 -7.790000
      vertex 6.020000 6.000000 -7.790000
    endloop
  endfacet
  facet normal 0.000000 0.000000 -1.000000
    outer loop
      vertex 6.020000 11.200000 -7.130000
      vertex 6.680000 11.200000 -7.130000
      vertex 6.680000 6.000000 -7.130000
    endloop
  endfacet
  facet normal 0.000000 0.000000 -1.000000
    outer loop
      vertex 6.020000 11.200000 -7.130000
      vertex 6.680000 6.000000 -7.130000
      vertex 6.020000 6.000000 -7.130000
    endloop
  endfacet
  facet normal 0.000000 0.000000 1.000000
    outer loop
      vertex 6.680000 6.000000 -7.790000
      vertex 6.680000 11.200000 -7.790000
      vertex 6.020000 11.200000 -7.790000
    endloop
  endfacet
  facet normal 0.000000 0.000000 1.000000
    outer loop
      vertex 6.680000 6.000000 -7.790000
      vertex 6.020000 11.200000 -7.790000
      vertex 6.020000 6.000000 -7.790000
    endloop
  endfacet
  facet normal -1.000000 0.000000 0.000000
    outer loop
      vertex 6.680000 6.000000 -7.130000
      vertex 6.680000 11.200000 -7.130000
      vertex 6.680000 11.200000 -7.790000
    endloop
  endfacet
  facet normal -1.000000 0.000000 0.000000
    outer loop
      vertex 6.680000 6.000000 -7.130000
      vertex 6.680000 11.200000 -7.790000
      vertex 6.680000 6.000000 -7.790000
    endloop
  endfacet
  facet normal 1.000000 0.000000 0.000000
    outer loop
      vertex 6.020000 6.000000 -7.790000
      vertex 6.020000 11.200000 -7.790000
      vertex 6.020000 11.200000 -7.130000
    endloop
  endfacet
  facet normal 1.000000 0.000000 0.000000
    outer loop
      vertex 6.020000 6.000000 -7.790000
      vertex 6.020000 11.200000 -7.130000
      vertex 6.020000 6.000000 -7.130000
    endloop
  endfacet
  facet normal 0.000000 -1.000000 0.000000
    outer loop
      vertex 7.790000 7.225000 -8.560000
      vertex 9.990000 7.225000 -8.560000
      vertex 9.990000 7.225000 -6.360000
    endloop
  endfacet
  facet normal 0.000000 -1.000000 0.000000
    outer loop
      vertex 7.790000 7.225000 -8.560000
      vertex 9.990000 7.225000 -6.360000
      vertex 7.790000 7.225000 -6.360000
    endloop
  endfacet
  facet normal 0.000000 1.000000 0.000000
    outer loop
      vertex 7.790000 5.675000 -6.360000
      vertex 9.990000 5.675000 -6.360000
      vertex 9.990000 5.675000 -8.560000
    endloop
  endfacet
  facet normal 0.000000 1.000000 0.000000
    outer loop
      vertex 7.790000 5.675000 -6.360000
      vertex 9.990000 5.675000 -8.560000
      vertex 7.790000 5.675000 -8.560000
    endloop
  endfacet
  facet normal 0.000000 0.000000 -1.000000
    outer loop
      vertex 7.790000 7.225000 -6.360000
      vertex 9.990000 7.225000 -6.360000
      vertex 9.990000 5.675000 -6.360000
    endloop
  endfacet
  facet normal 0.000000 0.000000 -1.000000
    outer loop
      vertex 7.790000 7.225000 -6.360000
      vertex 9.990000 5.675000 -6.360000
      vertex 7.790000 5.675000 -6.360000
    endloop
  endfacet
  facet normal 0.000000 0.000000 1.000000
    outer loop
      vertex 9.990000 5.675000 -8.560000
      vertex 9.990000 7.225000 -8.560000
      vertex 7.790000 7.225000 -8.560000
    endloop
  endfacet
  facet normal 0.000000 0.000000 1.000000
    outer loop
      vertex 9.990000 5.675000 -8.560000
      vertex 7.790000 7.225000 -8.560000
      vertex 7.790000 5.675000 -8.560000
    endloop
  endfacet
  facet normal -1.000000 0.000000 0.000000
    outer loop
      vertex 9.990000 5.675000 -6.360000
      vertex 9.990000 7.225000 -6.360000
      vertex 9.990000 7.225000 -8.560000
    endloop
  endfacet
  facet normal -1.000000 0.000000 0.000000
    outer loop
      vertex 9.990000 5.675000 -6.360000
      vertex 9.990000 7.225000 -8.560000
      vertex 9.990000 5.675000 -8.560000
    endloop
  endfacet
  facet normal 1.000000 0.000000 0.000000
    outer loop
      vertex 7.790000 5.675000 -8.560000
      vertex 7.790000 7.225000 -8.560000
      vertex 7.790000 7.225000 -6.360000
    endloop
  endfacet
  facet normal 1.000000 0.000000 0.000000
    outer loop
      vertex 7.790000 5.675000 -8.560000
      vertex 7.790000 7.225000 -6.360000
      vertex 7.790000 5.675000 -6.360000
    endloop
  endfacet
  facet normal 0.000000 -1.000000 0.000000
    outer loop
      vertex 8.560000 11.200000 -7.790000
      vertex 9.220000 11.200000 -7.790000
      vertex 9.220000 11.200000 -7.130000
    endloop
  endfacet
  facet normal 0.000000 -1.000000 0.000000
    outer loop
      vertex 8.560000 11.200000 -7.790000
      vertex 9.220000 11.200000 -7.130000
      vertex 8.560000 11.200000 -7.130000
    endloop
  endfacet
  facet normal 0.000000 1.000000 0.000000
    outer loop
      vertex 8.560000 6.000000 -7.130000
      vertex 9.220000 6.000000 -7.130000
      vertex 9.220000 6.000000 -7.790000
    endloop
  endfacet
  facet normal 0.000000 1.000000 0.000000
    outer loop
      vertex 8.560000 6.000000 -7.130000
      vertex 9.220000 6.000000 -7.790000
      vertex 8.560000 6.000000 -7.790000
    endloop
  endfacet
  facet normal 0.000000 0.000000 -1.000000
    outer loop
      vertex 8.560000 11.200000 -7.130000
      vertex 9.220000 11.200000 -7.130000
      vertex 9.220000 6.000000 -7.130000
    endloop
  endfacet
  facet normal 0.000000 0.000000 -1.000000
    outer loop
      vertex 8.560000 11.200000 -7.130000
      vertex 9.220000 6.000000 -7.130000
      vertex 8.560000 6.000000 -7.130000
    endloop
  endfacet
  facet normal 0.000000 0.000000 1.000000
    outer loop
      vertex 9.220000 6.000000 -7.790000
      vertex 9.220000 11.200000 -7.790000
      vertex 8.560000 11.200000 -7.790000
    endloop
  endfacet
  facet normal 0.000000 0.000000 1.000000
    outer loop
      vertex 9.220000 6.000000 -7.790000
      vertex 8.560000 11.200000 -7.790000
      vertex 8.560000 6.000000 -7.790000
    endloop
  endfacet
  facet normal -1.000000 0.000000 0.000000
    outer loop
      vertex 9.220000 6.000000 -7.130000
      vertex 9.220000 11.200000 -7.130000
      vertex 9.220000 11.200000 -7.790000
    endloop
  endfacet
  facet normal -1.000000 0.000000 0.000000
    outer loop
      vertex 9.220000 6.000000 -7.130000
      vertex 9.220000 11.200000 -7.790000
      vertex 9.220000 6.000000 -7.790000
    endloop
  endfacet
  facet normal 1.000000 0.000000 0.000000
    outer loop
      vertex 8.560000 6.000000 -7.790000
      vertex 8.560000 11.200000 -7.790000
      vertex 8.560000 11.200000 -7.130000
    endloop
  endfacet
  facet normal 1.000000 0.000000 0.000000
    outer loop
      vertex 8.560000 6.000000 -7.790000
      vertex 8.560000 11.200000 -7.130000
      vertex 8.560000 6.000000 -7.130000
    endloop
  endfacet
  facet normal 0.000000 -1.000000 0.000000
    outer loop
      vertex 10.330000 7.225000 -8.560000
      vertex 12.530000 7.225000 -8.560000
      vertex 12.530000 7.225000 -6.360000
    endloop
  endfacet
  facet normal 0.000000 -1.000000 0.000000
    outer loop
      vertex 10.330000 7.225000 -8.560000
      vertex 12.530000 7.225000 -6.360000
      vertex 10.330000 7.225000 -6.360000
    endloop
  endfacet
  facet normal 0.000000 1.000000 0.000000
    outer loop
      vertex 10.330000 5.675000 -6.360000
      vertex 12.530000 5.675000 -6.360000
      vertex 12.530000 5.675000 -8.560000
    endloop
  endfacet
  facet normal 0.000000 1.000000 0.000000
    outer loop
      vertex 10.330000 5.675000 -6.360000
      vertex 12.530000 5.675000 -8.560000
      vertex 10.330000 5.675000 -8.560000
    endloop
  endfacet
  facet normal 0.000000 0.000000 -1.000000
    outer loop
      vertex 10.330000 7.225000 -6.360000
      vertex 12.530000 7.225000 -6.360000
      vertex 12.530000 5.675000 -6.360000
    endloop
  endfacet
  facet normal 0.000000 0.000000 -1.000000
    outer loop
      vertex 10.330000 7.225000 -6.360000
      vertex 12.530000 5.675000 -6.360000
      vertex 10.330000 5.675000 -6.360000
    endloop
  endfacet
  facet normal 0.000000 0.000000 1.000000
    outer loop
      vertex 12.530000 5.675000 -8.560000
      vertex 12.530000 7.225000 -8.560000
      vertex 10.330000 7.225000 -8.560000
    endloop
  endfacet
  facet normal 0.000000 0.000000 1.000000
    outer loop
      vertex 12.530000 5.675000 -8.560000
      vertex 10.330000 7.225000 -8.560000
      vertex 10.330000 5.675000 -8.560000
    endloop
  endfacet
  facet normal -1.000000 0.000000 0.000000
    outer loop
      vertex 12.530000 5.675000 -6.360000
      vertex 12.530000 7.225000 -6.360000
      vertex 12.530000 7.225000 -8.560000
    endloop
  endfacet
  facet normal -1.000000 0.000000 0.000000
    outer loop
      vertex 12.530000 5.675000 -6.360000
      vertex 12.530000 7.225000 -8.560000
      vertex 12.530000 5.675000 -8.560000
    endloop
  endfacet
  facet normal 1.000000 0.000000 0.000000
    outer loop
      vertex 10.330000 5.675000 -8.560000
      vertex 10.330000 7.225000 -8.560000
      vertex 10.330000 7.225000 -6.360000
    endloop
  endfacet
  facet normal 1.000000 0.000000 0.000000
    outer loop
      vertex 10.330000 5.675000 -8.560000
      vertex 10.330000 7.225000 -6.360000
      vertex 10.330000 5.675000 -6.360000
    endloop
  endfacet
  facet normal 0.000000 -1.000000 0.000000
    outer loop
      vertex 11.100000 11.200000 -7.790000
      vertex 11.760000 11.200000 -7.790000
      vertex 11.760000 11.200000 -7.130000
    endloop
  endfacet
  facet normal 0.000000 -1.000000 0.000000
    outer loop
      vertex 11.100000 11.200000 -7.790000
      vertex 11.760000 11.200000 -7.130000
      vertex 11.100000 11.200000 -7.130000
    endloop
  endfacet
  facet normal 0.000000 1.000000 0.000000
    outer loop
      vertex 11.100000 6.000000 -7.130000
      vertex 11.760000 6.000000 -7.130000
      vertex 11.760000 6.000000 -7.790000
    endloop
  endfacet
  facet normal 0.000000 1.000000 0.000000
    outer loop
      vertex 11.100000 6.000000 -7.130000
      vertex 11.760000 6.000000 -7.790000
      vertex 11.100000 6.000000 -7.790000
    endloop
  endfacet
  facet normal 0.000000 0.000000 -1.000000
    outer loop
      vertex 11.100000 11.200000 -7.130000
      vertex 11.760000 11.200000 -7.130000
      vertex 11.760000 6.000000 -7.130000
    endloop
  endfacet
  facet normal 0.000000 0.000000 -1.000000
    outer loop
      vertex 11.100000 11.200000 -7.130000
      vertex 11.760000 6.000000 -7.130000
      vertex 11.100000 6.000000 -7.130000
    endloop
  endfacet
  facet normal 0.000000 0.000000 1.000000
    outer loop
      vertex 11.760000 6.000000 -7.790000
      vertex 11.760000 11.200000 -7.790000
      vertex 11.100000 11.200000 -7.790000
    endloop
  endfacet
  facet normal 0.000000 0.000000 1.000000
    outer loop
      vertex 11.760000 6.000000 -7.790000
      vertex 11.100000 11.200000 -7.790000
      vertex 11.100000 6.000000 -7.790000
    endloop
  endfacet
  facet normal -1.000000 0.000000 0.000000
    outer loop
      vertex 11.760000 6.000000 -7.130000
      vertex 11.760000 11.200000 -7.130000
      vertex 11.760000 11.200000 -7.790000
    endloop
  endfacet
  facet normal -1.000000 0.000000 0.000000
    outer loop
      vertex 11.760000 6.000000 -7.130000
      vertex 11.760000 11.200000 -7.790000
      vertex 11.760000 6.000000 -7.790000
    endloop
  endfacet
  facet normal 1.000000 0.000000 0.000000
    outer loop
      vertex 11.100000 6.000000 -7.790000
      vertex 11.100000 11.200000 -7.790000
      vertex 11.100000 11.200000 -7.130000
    endloop
  endfacet
  facet normal 1.000000 0.000000 0.000000
    outer loop
      vertex 11.100000 6.000000 -7.790000
      vertex 11.100000 11.200000 -7.130000
      vertex 11.100000 6.000000 -7.130000
    endloop
  endfacet
  facet normal 0.000000 -1.000000 0.000000
    outer loop
      vertex -2.500000 3.400000 -2.500000
      vertex 2.500000 3.400000 -2.500000
      vertex 2.500000 3.400000 2.500000
    endloop
  endfacet
  facet normal 0.000000 -1.000000 0.000000
    outer loop
      vertex -2.500000 3.400000 -2.500000
      vertex 2.500000 3.400000 2.500000
      vertex -2.500000 3.400000 2.500000
    endloop
  endfacet
  facet normal 0.000000 1.000000 0.000000
    outer loop
      vertex -2.500000 2.200000 2.500000
      vertex 2.500000 2.200000 2.500000
      vertex 2.500000 2.200000 -2.500000
    endloop
  endfacet
  facet normal 0.000000 1.000000 0.000000
    outer loop
      vertex -2.500000 2.200000 2.500000
      vertex 2.500000 2.200000 -2.500000
      vertex -2.500000 2.200000 -2.500000
    endloop
  endfacet
  facet normal 0.000000 0.000000 -1.000000
    outer loop
      vertex -2.500000 3.400000 2.500000
      vertex 2.500000 3.400000 2.500000
      vertex 2.500000 2.200000 2.500000
    endloop
  endfacet
  facet normal 0.000000 0.000000 -1.000000
    outer loop
      vertex -2.500000 3.400000 2.500000
      vertex 2.500000 2.200000 2.500000
      vertex -2.500000 2.200000 2.500000
    endloop
  endfacet
  facet normal 0.000000 0.000000 1.000000
    outer loop
      vertex 2.500000 2.200000 -2.500000
      vertex 2.500000 3.400000 -2.500000
      vertex -2.500000 3.400000 -2.500000
    endloop
  endfacet
  facet normal 0.000000 0.000000 1.000000
    outer loop
      vertex 2.500000 2.200000 -2.500000
      vertex -2.500000 3.400000 -2.500000
      vertex -2.500000 2.200000 -2.500000
    endloop
  endfacet
  facet normal -1.000000 0.000000 0.000000
    outer loop
      vertex 2.500000 2.200000 2.500000
      vertex 2.500000 3.400000 2.500000
      vertex 2.500000 3.400000 -2.500000
    endloop
  endfacet
  facet normal -1.000000 0.000000 0.000000
    outer loop
      vertex 2.500000 2.200000 2.500000
      vertex 2.500000 3.400000 -2.500000
      vertex 2.500000 2.200000 -2.500000
    endloop
  endfacet
  facet normal 1.000000 0.000000 0.000000
    outer loop
      vertex -2.500000 2.200000 -2.500000
      vertex -2.500000 3.400000 -2.500000
      vertex -2.500000 3.400000 2.500000
    endloop
  endfacet
  facet normal 1.000000 0.000000 0.000000
    outer loop
      vertex -2.500000 2.200000 -2.500000
      vertex -2.500000 3.400000 2.500000
      vertex -2.500000 2.200000 2.500000
    endloop
  endfacet
  facet normal 0.000000 -1.000000 0.000000
    outer loop
      vertex -15.080000 4.050000 -8.250000
      vertex -4.920000 4.050000 -8.250000
      vertex -4.920000 4.050000 -5.750000
    endloop
  endfacet
  facet normal 0.000000 -1.000000 0.000000
    outer loop
      vertex -15.080000 4.050000 -8.250000
      vertex -4.920000 4.050000 -5.750000
      vertex -15.080000 4.050000 -5.750000
    endloop
  endfacet
  facet normal 0.000000 1.000000 0.000000
    outer loop
      vertex -15.080000 1.550000 -5.750000
      vertex -4.920000 1.550000 -5.750000
      vertex -4.920000 1.550000 -8.250000
    endloop
  endfacet
  facet normal 0.000000 1.000000 0.000000
    outer loop
      vertex -15.080000 1.550000 -5.750000
      vertex -4.920000 1.550000 -8.250000
      vertex -15.080000 1.550000 -8.250000
    endloop
  endfacet
  facet normal 0.000000 0.000000 -1.000000
    outer loop
      vertex -15.080000 4.050000 -5.750000
      vertex -4.920000 4.050000 -5.750000
      vertex -4.920000 1.550000 -5.750000
    endloop
  endfacet
  facet normal 0.000000 0.000000 -1.000000
    outer loop
      vertex -15.080000 4.050000 -5.750000
      vertex -4.920000 1.550000 -5.750000
      vertex -15.080000 1.550000 -5.750000
    endloop
  endfacet
  facet normal 0.000000 0.000000 1.000000
    outer loop
      vertex -4.920000 1.550000 -8.250000
      vertex -4.920000 4.050000 -8.250000
      vertex -15.080000 4.050000 -8.250000
    endloop
  endfacet
  facet normal 0.000000 0.000000 1.000000
    outer loop
      vertex -4.920000 1.550000 -8.250000
      vertex -15.080000 4.050000 -8.250000
      vertex -15.080000 1.550000 -8.250000
    endloop
  endfacet
  facet normal -1.000000 0.000000 0.000000
    outer loop
      vertex -4.920000 1.550000 -5.750000
      vertex -4.920000 4.050000 -5.750000
      vertex -4.920000 4.050000 -8.250000
    endloop
  endfacet
  facet normal -1.000000 0.000000 0.000000
    outer loop
      vertex -4.920000 1.550000 -5.750000
      vertex -4.920000 4.050000 -8.250000
      vertex -4.920000 1.550000 -8.250000
    endloop
  endfacet
  facet normal 1.000000 0.000000 0.000000
    outer loop
      vertex -15.080000 1.550000 -8.250000
      vertex -15.080000 4.050000 -8.250000
      vertex -15.080000 4.050000 -5.750000
    endloop
  endfacet
  facet normal 1.000000 0.000000 0.000000
    outer loop
      vertex -15.080000 1.550000 -8.250000
      vertex -15.080000 4.050000 -5.750000
      vertex -15.080000 1.550000 -5.750000
    endloop
  endfacet
  facet normal 0.000000 -1.000000 0.000000
    outer loop
      vertex 4.920000 4.050000 -8.250000
      vertex 15.080000 4.050000 -8.250000
      vertex 15.080000 4.050000 -5.750000
    endloop
  endfacet
  facet normal 0.000000 -1.000000 0.000000
    outer loop
      vertex 4.920000 4.050000 -8.250000
      vertex 15.080000 4.050000 -5.750000
      vertex 4.920000 4.050000 -5.750000
    endloop
  endfacet
  facet normal 0.000000 1.000000 0.000000
    outer loop
      vertex 4.920000 1.550000 -5.750000
      vertex 15.080000 1.550000 -5.750000
      vertex 15.080000 1.550000 -8.250000
    endloop
  endfacet
  facet normal 0.000000 1.000000 0.000000
    outer loop
      vertex 4.920000 1.550000 -5.750000
      vertex 15.080000 1.550000 -8.250000
      vertex 4.920000 1.550000 -8.250000
    endloop
  endfacet
  facet normal 0.000000 0.000000 -1.000000
    outer loop
      vertex 4.920000 4.050000 -5.750000
      vertex 15.080000 4.050000 -5.750000
      vertex 15.080000 1.550000 -5.750000
    endloop
  endfacet
  facet normal 0.000000 0.000000 -1.000000
    outer loop
      vertex 4.920000 4.050000 -5.750000
      vertex 15.080000 1.550000 -5.750000
      vertex 4.920000 1.550000 -5.750000
    endloop
  endfacet
  facet normal 0.000000 0.000000 1.000000
    outer loop
      vertex 15.080000 1.550000 -8.250000
      vertex 15.080000 4.050000 -8.250000
      vertex 4.920000 4.050000 -8.250000
    endloop
  endfacet
  facet normal 0.000000 0.000000 1.000000
    outer loop
      vertex 15.080000 1.550000 -8.250000
      vertex 4.920000 4.050000 -8.250000
      vertex 4.920000 1.550000 -8.250000
    endloop
  endfacet
  facet normal -1.000000 0.000000 0.000000
    outer loop
      vertex 15.080000 1.550000 -5.750000
      vertex 15.080000 4.050000 -5.750000
      vertex 15.080000 4.050000 -8.250000
    endloop
  endfacet
  facet normal -1.000000 0.000000 0.000000
    outer loop
      vertex 15.080000 1.550000 -5.750000
      vertex 15.080000 4.050000 -8.250000
      vertex 15.080000 1.550000 -8.250000
    endloop
  endfacet
  facet normal 1.000000 0.000000 0.000000
    outer loop
      vertex 4.920000 1.550000 -8.250000
      vertex 4.920000 4.050000 -8.250000
      vertex 4.920000 4.050000 -5.750000
    endloop
  endfacet
  facet normal 1.000000 0.000000 0.000000
    outer loop
      vertex 4.920000 1.550000 -8.250000
      vertex 4.920000 4.050000 -5.750000
      vertex 4.920000 1.550000 -5.750000
    endloop
  endfacet
  facet normal 0.000000 -1.000000 0.000000
    outer loop
      vertex -8.000000 2.950000 4.900000
      vertex 8.000000 2.950000 4.900000
      vertex 8.000000 2.950000 7.100000
    endloop
  endfacet
  facet normal 0.000000 -1.000000 0.000000
    outer loop
      vertex -8.000000 2.950000 4.900000
      vertex 8.000000 2.950000 7.100000
      vertex -8.000000 2.950000 7.100000
    endloop
  endfacet
  facet normal 0.000000 1.000000 0.000000
    outer loop
      vertex -8.000000 2.250000 7.100000
      vertex 8.000000 2.250000 7.100000
      vertex 8.000000 2.250000 4.900000
    endloop
  endfacet
  facet normal 0.000000 1.000000 0.000000
    outer loop
      vertex -8.000000 2.250000 7.100000
      vertex 8.000000 2.250000 4.900000
      vertex -8.000000 2.250000 4.900000
    endloop
  endfacet
  facet normal 0.000000 0.000000 -1.000000
    outer loop
      vertex -8.000000 2.950000 7.100000
      vertex 8.000000 2.950000 7.100000
      vertex 8.000000 2.250000 7.100000
    endloop
  endfacet
  facet normal 0.000000 0.000000 -1.000000
    outer loop
      vertex -8.000000 2.950000 7.100000
      vertex 8.000000 2.250000 7.100000
      vertex -8.000000 2.250000 7.100000
    endloop
  endfacet
  facet normal 0.000000 0.000000 1.000000
    outer loop
      vertex 8.000000 2.250000 4.900000
      vertex 8.000000 2.950000 4.900000
      vertex -8.000000 2.950000 4.900000
    endloop
  endfacet
  facet normal 0.000000 0.000000 1.000000
    outer loop
      vertex 8.000000 2.250000 4.900000
      vertex -8.000000 2.950000 4.900000
      vertex -8.000000 2.250000 4.900000
    endloop
  endfacet
  facet normal -1.000000 0.000000 0.000000
    outer loop
      vertex 8.000000 2.250000 7.100000
      vertex 8.000000 2.950000 7.100000
      vertex 8.000000 2.950000 4.900000
    endloop
  endfacet
  facet normal -1.000000 0.000000 0.000000
    outer loop
      vertex 8.000000 2.250000 7.100000
      vertex 8.000000 2.950000 4.900000
      vertex 8.000000 2.250000 4.900000
    endloop
  endfacet
  facet normal 1.000000 0.000000 0.000000
    outer loop
      vertex -8.000000 2.250000 4.900000
      vertex -8.000000 2.950000 4.900000
      vertex -8.000000 2.950000 7.100000
    endloop
  endfacet
  facet normal 1.000000 0.000000 0.000000
    outer loop
      vertex -8.000000 2.250000 4.900000
      vertex -8.000000 2.950000 7.100000
      vertex -8.000000 2.250000 7.100000
    endloop
  endfacet
endsolid load_cell_hx711