solid linear_actuator_12v_100mm
  facet normal 0.000000 -1.000000 0.000000
    outer loop
      vertex -12.000000 12.000000 -15.000000
      vertex 12.000000 12.000000 -15.000000
      vertex 12.000000 12.000000 15.000000
    endloop
  endfacet
  facet normal 0.000000 -1.000000 0.000000
    outer loop
      vertex -12.000000 12.000000 -15.000000
      vertex 12.000000 12.000000 15.000000
      vertex -12.000000 12.000000 15.000000
    endloop
  endfacet
  facet normal 0.000000 1.000000 0.000000
    outer loop
      vertex -12.000000 0.000000 15.000000
      vertex 12.000000 0.000000 15.000000
      vertex 12.000000 0.000000 -15.000000
    endloop
  endfacet
  facet normal 0.000000 1.000000 0.000000
    outer loop
      vertex -12.000000 0.000000 15.000000
      vertex 12.000000 0.000000 -15.000000
      vertex -12.000000 0.000000 -15.000000
    endloop
  endfacet
  facet normal 0.000000 0.000000 -1.000000
    outer loop
      vertex -12.000000 12.000000 15.000000
      vertex 12.000000 12.000000 15.000000
      vertex 12.000000 0.000000 15.000000
    endloop
  endfacet
  facet normal 0.000000 0.000000 -1.000000
    outer loop
      vertex -12.000000 12.000000 15.000000
      vertex 12.000000 0.000000 15.000000
      vertex -12.000000 0.000000 15.000000
    endloop
  endfacet
  facet normal 0.000000 0.000000 1.000000
    outer loop
      vertex 12.000000 0.000000 -15.000000
      vertex 12.000000 12.000000 -15.000000
      vertex -12.000000 12.000000 -15.000000
    endloop
  endfacet
  facet normal 0.000000 0.000000 1.000000
    outer loop
      vertex 12.000000 0.000000 -15.000000
      vertex -12.000000 12.000000 -15.000000
      vertex -12.000000 0.000000 -15.000000
    endloop
  endfacet
  facet normal -1.000000 0.000000 0.000000
    outer loop
      vertex 12.000000 0.000000 15.000000
      vertex 12.000000 12.000000 15.000000
      vertex 12.000000 12.000000 -15.000000
    endloop
  endfacet
  facet normal -1.000000 0.000000 0.000000
    outer loop
      vertex 12.000000 0.000000 15.000000
      vertex 12.000000 12.000000 -15.000000
      vertex 12.000000 0.000000 -15.000000
    endloop
  endfacet
  facet normal 1.000000 0.000000 0.000000
    outer loop
      vertex -12.000000 0.000000 -15.000000
      vertex -12.000000 12.000000 -15.000000
      vertex -12.000000 12.000000 15.000000
    endloop
  endfacet
  facet normal 1.000000 0.000000 0.000000
    outer loop
      vertex -12.000000 0.000000 -15.000000
      vertex -12.000000 12.000000 15.000000
      vertex -12.000000 0.000000 15.000000
    endloop
  endfacet
  facet normal 0.000000 -1.000000 0.000000
    outer loop
      vertex -2.370000 17.625000 -13.560000
      vertex -0.170000 17.625000 -13.560000
      vertex -0.170000 17.625000 -11.360000
    endloop
  endfacet
  facet normal 0.000000 -1.000000 0.000000
    outer loop
      vertex -2.370000 17.625000 -13.560000
      vertex -0.170000 17.625000 -11.360000
      vertex -2.370000 17.625000 -11.360000
    endloop
  endfacet
  facet normal 0.000000 1.000000 0.000000
    outer loop
      vertex -2.370000 16.075000 -11.360000
      vertex -0.170000 16.075000 -11.360000
      vertex -0.170000 16.075000 -13.560000
    endloop
  endfacet
  facet normal 0.000000 1.000000 0.000000
    outer loop
      vertex -2.370000 16.075000 -11.360000
      vertex -0.170000 16.075000 -13.560000
      vertex -2.370000 16.075000 -13.560000
    endloop
  endfacet
  facet normal 0.000000 0.000000 -1.000000
    outer loop
      vertex -2.370000 17.625000 -11.360000
      vertex -0.170000 17.625000 -11.360000
      vertex -0.170000 16.075000 -11.360000
    endloop
  endfacet
  facet normal 0.000000 0.000000 -1.000000
    outer loop
      vertex -2.370000 17.625000 -11.360000
      vertex -0.170000 16.075000 -11.360000
      vertex -2.370000 16.075000 -11.360000
    endloop
  endfacet
  facet normal 0.000000 0.000000 1.000000
    outer loop
      vertex -0.170000 16.075000 -13.560000
      vertex -0.170000 17.625000 -13.560000
      vertex -2.370000 17.625000 -13.560000
    endloop
  endfacet
  facet normal 0.000000 0.000000 1.000000
    outer loop
      vertex -0.170000 16.075000 -13.560000
      vertex -2.370000 17.625000 -13.560000
      vertex -2.370000 16.075000 -13.560000
    endloop
  endfacet
  facet normal -1.000000 0.000000 0.000000
    outer loop
      vertex -0.170000 16.075000 -11.360000
      vertex -0.170000 17.625000 -11.360000
      vertex -0.170000 17.625000 -13.560000
    endloop
  endfacet
  facet normal -1.000000 0.000000 0.000000
    outer loop
      vertex -0.170000 16.075000 -11.360000
      vertex -0.170000 17.625000 -13.560000
      vertex -0.170000 16.075000 -13.560000
    endloop
  endfacet
  facet normal 1.000000 0.000000 0.000000
    outer loop
      vertex -2.370000 16.075000 -13.560000
      vertex -2.370000 17.625000 -13.560000
      vertex -2.370000 17.625000 -11.360000
    endloop
  endfacet
  facet normal 1.000000 0.000000 0.000000
    outer loop
      vertex -2.370000 16.075000 -13.560000
      vertex -2.370000 17.625000 -11.360000
      vertex -2.370000 16.075000 -11.360000
    endloop
  endfacet
  facet normal 0.000000 -1.000000 0.000000
    outer loop
      vertex -1.600000 21.600000 -12.790000
      vertex -0.940000 21.600000 -12.790000
      vertex -0.940000 21.600000 -12.130000
    endloop
  endfacet
  facet normal 0.000000 -1.000000 0.000000
    outer loop
      vertex -1.600000 21.600000 -12.790000
      vertex -0.940000 21.600000 -12.130000
      vertex -1.600000 21.600000 -12.130000
    endloop
  endfacet
  facet normal 0.000000 1.000000 0.000000
    outer loop
      vertex -1.600000 16.400000 -12.130000
      vertex -0.940000 16.400000 -12.130000
      vertex -0.940000 16.400000 -12.790000
    endloop
  endfacet
  facet normal 0.000000 1.000000 0.000000
    outer loop
      vertex -1.600000 16.400000 -12.130000
      vertex -0.940000 16.400000 -12.790000
      vertex -1.600000 16.400000 -12.790000
    endloop
  endfacet
  facet normal 0.000000 0.000000 -1.000000
    outer loop
      vertex -1.600000 21.600000 -12.130000
      vertex -0.940000 21.600000 -12.130000
      vertex -0.940000 16.400000 -12.130000
    endloop
  endfacet
  facet normal 0.000000 0.000000 -1.000000
    outer loop
      vertex -1.600000 21.600000 -12.130000
      vertex -0.940000 16.400000 -12.130000
      vertex -1.600000 16.400000 -12.130000
    endloop
  endfacet
  facet normal 0.000000 0.000000 1.000000
    outer loop
      vertex -0.940000 16.400000 -12.790000
      vertex -0.940000 21.600000 -12.790000
      vertex -1.600000 21.600000 -12.790000
    endloop
  endfacet
  facet normal 0.000000 0.000000 1.000000
    outer loop
      vertex -0.940000 16.400000 -12.790000
      vertex -1.600000 21.600000 -12.790000
      vertex -1.600000 16.400000 -12.790000
    endloop
  endfacet
  facet normal -1.000000 0.000000 0.000000
    outer loop
      vertex -0.940000 16.400000 -12.130000
      vertex -0.940000 21.600000 -12.130000
      vertex -0.940000 21.600000 -12.790000
    endloop
  endfacet
  facet normal -1.000000 0.000000 0.000000
    outer loop
      vertex -0.940000 16.400000 -12.130000
      vertex -0.940000 21.600000 -12.790000
      vertex -0.940000 16.400000 -12.790000
    endloop
  endfacet
  facet normal 1.000000 0.000000 0.000000
    outer loop
      vertex -1.600000 16.400000 -12.790000
      vertex -1.600000 21.600000 -12.790000
      vertex -1.600000 21.600000 -12.130000
    endloop
  endfacet
  facet normal 1.000000 0.000000 0.000000
    outer loop
      vertex -1.600000 16.400000 -12.790000
      vertex -1.600000 21.600000 -12.130000
      vertex -1.600000 16.400000 -12.130000
    endloop
  endfacet
  facet normal 0.000000 -1.000000 0.000000
    outer loop
      vertex 0.170000 17.625000 -13.560000
      vertex 2.370000 17.625000 -13.560000
      vertex 2.370000 17.625000 -11.360000
    endloop
  endfacet
  facet normal 0.000000 -1.000000 0.000000
    outer loop
      vertex 0.170000 17.625000 -13.560000
      vertex 2.370000 17.625000 -11.360000
      vertex 0.170000 17.625000 -11.360000
    endloop
  endfacet
  facet normal 0.000000 1.000000 0.000000
    outer loop
      vertex 0.170000 16.075000 -11.360000
      vertex 2.370000 16.075000 -11.360000
      vertex 2.370000 16.075000 -13.560000
    endloop
  endfacet
  facet normal 0.000000 1.000000 0.000000
    outer loop
      vertex 0.170000 16.075000 -11.360000
      vertex 2.370000 16.075000 -13.560000
      vertex 0.170000 16.075000 -13.560000
    endloop
  endfacet
  facet normal 0.000000 0.000000 -1.000000
    outer loop
      vertex 0.170000 17.625000 -11.360000
      vertex 2.370000 17.625000 -11.360000
      vertex 2.370000 16.075000 -11.360000
    endloop
  endfacet
  facet normal 0.000000 0.000000 -1.000000
    outer loop
      vertex 0.170000 17.625000 -11.360000
      vertex 2.370000 16.075000 -11.360000
      vertex 0.170000 16.075000 -11.360000
    endloop
  endfacet
  facet normal 0.000000 0.000000 1.000000
    outer loop
      vertex 2.370000 16.075000 -13.560000
      vertex 2.370000 17.625000 -13.560000
      vertex 0.170000 17.625000 -13.560000
    endloop
  endfacet
  facet normal 0.000000 0.000000 1.000000
    outer loop
      vertex 2.370000 16.075000 -13.560000
      vertex 0.170000 17.625000 -13.560000
      vertex 0.170000 16.075000 -13.560000
    endloop
  endfacet
  facet normal -1.000000 0.000000 0.000000
    outer loop
      vertex 2.370000 16.075000 -11.360000
      vertex 2.370000 17.625000 -11.360000
      vertex 2.370000 17.625000 -13.560000
    endloop
  endfacet
  facet normal -1.000000 0.000000 0.000000
    outer loop
      vertex 2.370000 16.075000 -11.360000
      vertex 2.370000 17.625000 -13.560000
      vertex 2.370000 16.075000 -13.560000
    endloop
  endfacet
  facet normal 1.000000 0.000000 0.000000
    outer loop
      vertex 0.170000 16.075000 -13.560000
      vertex 0.170000 17.625000 -13.560000
      vertex 0.170000 17.625000 -11.360000
    endloop
  endfacet
  facet normal 1.000000 0.000000 0.000000
    outer loop
      vertex 0.170000 16.075000 -13.560000
      vertex 0.170000 17.625000 -11.360000
      vertex 0.170000 16.075000 -11.360000
    endloop
  endfacet
  facet normal 0.000000 -1.000000 0.000000
    outer loop
      vertex 0.940000 21.600000 -12.790000
      vertex 1.600000 21.600000 -12.790000
      vertex 1.600000 21.600000 -12.130000
    endloop
  endfacet
  facet normal 0.000000 -1.000000 0.000000
    outer loop
      vertex 0.940000 21.600000 -12.790000
      vertex 1.600000 21.600000 -12.130000
      vertex 0.940000 21.600000 -12.130000
    endloop
  endfacet
  facet normal 0.000000 1.000000 0.000000
    outer loop
      vertex 0.940000 16.400000 -12.130000
      vertex 1.600000 16.400000 -12.130000
      vertex 1.600000 16.400000 -12.790000
    endloop
  endfacet
  facet normal 0.000000 1.000000 0.000000
    outer loop
      vertex 0.940000 16.400000 -12.130000
      vertex 1.600000 16.400000 -12.790000
      vertex 0.940000 16.400000 -12.790000
    endloop
  endfacet
  facet normal 0.000000 0.000000 -1.000000
    outer loop
      vertex 0.940000 21.600000 -12.130000
      vertex 1.600000 21.600000 -12.130000
      vertex 1.600000 16.400000 -12.130000
    endloop
  endfacet
  facet normal 0.000000 0.000000 -1.000000
    outer loop
      vertex 0.940000 21.600000 -12.130000
      vertex 1.600000 16.400000 -12.130000
      vertex 0.940000 16.400000 -12.130000
    endloop
  endfacet
  facet normal 0.000000 0.000000 1.000000
    outer loop
      vertex 1.600000 16.400000 -12.790000
      vertex 1.600000 21.600000 -12.790000
      vertex 0.940000 21.600000 -12.790000
    endloop
  endfacet
  facet normal 0.000000 0.000000 1.000000
    outer loop
      vertex 1.600000 16.400000 -12.790000
      vertex 0.940000 21.600000 -12.790000
      vertex 0.940000 16.400000 -12.790000
    endloop
  endfacet
  facet normal -1.000000 0.000000 0.000000
    outer loop
      vertex 1.600000 16.400000 -12.130000
      vertex 1.600000 21.600000 -12.130000
      vertex 1.600000 21.600000 -12.790000
    endloop
  endfacet
  facet normal -1.000000 0.000000 0.000000
    outer loop
      vertex 1.600000 16.400000 -12.130000
      vertex 1.600000 21.600000 -12.790000
      vertex 1.600000 16.400000 -12.790000
    endloop
  endfacet
  facet normal 1.000000 0.000000 0.000000
    outer loop
      vertex 0.940000 16.400000 -12.790000
      vertex 0.940000 21.600000 -12.790000
      vertex 0.940000 21.600000 -12.130000
    endloop
  endfacet
  facet normal 1.000000 0.000000 0.000000
    outer loop
      vertex 0.940000 16.400000 -12.790000
      vertex 0.940000 21.600000 -12.130000
      vertex 0.940000 16.400000 -12.130000
    endloop
  endfacet
  facet normal 0.000000 -1.000000 0.000000
    outer loop
      vertex -2.540000 14.450000 -13.710000
      vertex 2.540000 14.450000 -13.710000
      vertex 2.540000 14.450000 -11.210000
    endloop
  endfacet
  facet normal 0.000000 -1.000000 0.000000
    outer loop
      vertex -2.540000 14.450000 -13.710000
      vertex 2.540000 14.450000 -11.210000
      vertex -2.540000 14.450000 -11.210000
    endloop
  endfacet
  facet normal 0.000000 1.000000 0.000000
    outer loop
      vertex -2.540000 11.950000 -11.210000
      vertex 2.540000 11.950000 -11.210000
      vertex 2.540000 11.950000 -13.710000
    endloop
  endfacet
  facet normal 0.000000 1.000000 0.000000
    outer loop
      vertex -2.540000 11.950000 -11.210000
      vertex 2.540000 11.950000 -13.710000
      vertex -2.540000 11.950000 -13.710000
    endloop
  endfacet
  facet normal 0.000000 0.000000 -1.000000
    outer loop
      vertex -2.540000 14.450000 -11.210000
      vertex 2.540000 14.450000 -11.210000
      vertex 2.540000 11.950000 -11.210000
    endloop
  endfacet
  facet normal 0.000000 0.000000 -1.000000
    outer loop
      vertex -2.540000 14.450000 -11.210000
      vertex 2.540000 11.950000 -11.210000
      vertex -2.540000 11.950000 -11.210000
    endloop
  endfacet
  facet normal 0.000000 0.000000 1.000000
    outer loop
      vertex 2.540000 11.950000 -13.710000
      vertex 2.540000 14.450000 -13.710000
      vertex -2.540000 14.450000 -13.710000
    endloop
  endfacet
  facet normal 0.000000 0.000000 1.000000
    outer loop
      vertex 2.540000 11.950000 -13.710000
      vertex -2.540000 14.450000 -13.710000
      vertex -2.540000 11.950000 -13.710000
    endloop
  endfacet
  facet normal -1.000000 0.000000 0.000000
    outer loop
      vertex 2.540000 11.950000 -11.210000
      vertex 2.540000 14.450000 -11.210000
      vertex 2.540000 14.450000 -13.710000
    endloop
  endfacet
  facet normal -1.000000 0.000000 0.000000
    outer loop
      vertex 2.540000 11.950000 -11.210000
      vertex 2.540000 14.450000 -13.710000
      vertex 2.540000 11.950000 -13.710000
    endloop
  endfacet
  facet normal 1.000000 0.000000 0.000000
    outer loop
      vertex -2.540000 11.950000 -13.710000
      vertex -2.540000 14.450000 -13.710000
      vertex -2.540000 14.450000 -11.210000
    endloop
  endfacet
  facet normal 1.000000 0.000000 0.000000
    outer loop
      vertex -2.540000 11.950000 -13.710000
      vertex -2.540000 14.450000 -11.210000
      vertex -2.540000 11.950000 -11.210000
    endloop
  endfacet
  facet normal 0.000000 -1.000000 0.000000
    outer loop
      vertex -9.600000 22.500000 -10.500000
      vertex 9.600000 22.500000 -10.500000
      vertex 9.600000 22.500000 10.500000
    endloop
  endfacet
  facet normal 0.000000 -1.000000 0.000000
    outer loop
      vertex -9.600000 22.500000 -10.500000
      vertex 9.600000 22.500000 10.500000
      vertex -9.600000 22.500000 10.500000
    endloop
  endfacet
  facet normal 0.000000 1.000000 0.000000
    outer loop
      vertex -9.600000 12.500000 10.500000
      vertex 9.600000 12.500000 10.500000
      vertex 9.600000 12.500000 -10.500000
    endloop
  endfacet
  facet normal 0.000000 1.000000 0.000000
    outer loop
      vertex -9.600000 12.500000 10.500000
      vertex 9.600000 12.500000 -10.500000
      vertex -9.600000 12.500000 -10.500000
    endloop
  endfacet
  facet normal 0.000000 0.000000 -1.000000
    outer loop
      vertex -9.600000 22.500000 10.500000
      vertex 9.600000 22.500000 10.500000
      vertex 9.600000 12.500000 10.500000
    endloop
  endfacet
  facet normal 0.000000 0.000000 -1.000000
    outer loop
      vertex -9.600000 22.500000 10.500000
      vertex 9.600000 12.500000 10.500000
      vertex -9.600000 12.500000 10.500000
    endloop
  endfacet
  facet normal 0.000000 0.000000 1.000000
    outer loop
      vertex 9.600000 12.500000 -10.500000
      vertex 9.600000 22.500000 -10.500000
      vertex -9.600000 22.500000 -10.500000
    endloop
  endfacet
  facet normal 0.000000 0.000000 1.000000
    outer loop
      vertex 9.600000 12.500000 -10.500000
      vertex -9.600000 22.500000 -10.500000
      vertex -9.600000 12.500000 -10.500000
    endloop
  endfacet
  facet normal -1.000000 0.000000 0.000000
    outer loop
      vertex 9.600000 12.500000 10.500000
      vertex 9.600000 22.500000 10.500000
      vertex 9.600000 22.500000 -10.500000
    endloop
  endfacet
  facet normal -1.000000 0.000000 0.000000
    outer loop
      vertex 9.600000 12.500000 10.500000
      vertex 9.600000 22.500000 -10.500000
      vertex 9.600000 12.500000 -10.500000
    endloop
  endfacet
  facet normal 1.000000 0.000000 0.000000
    outer loop
      vertex -9.600000 12.500000 -10.500000
      vertex -9.600000 22.500000 -10.500000
      vertex -9.600000 22.500000 10.500000
    endloop
  endfacet
  facet normal 1.000000 0.000000 0.000000
    outer loop
      vertex -9.600000 12.500000 -10.500000
      vertex -9.600000 22.500000 10.500000
      vertex -9.600000 12.500000 10.500000
    endloop
  endfacet
endsolid linear_actuator_12v_100mm