solid diode_1n4148
  facet normal 0.000000 -1.000000 0.000000
    outer loop
      vertex -21.500000 1.600000 -10.500000
      vertex 21.500000 1.600000 -10.500000
      vertex 21.500000 1.600000 10.500000
    endloop
  endfacet
  facet normal 0.000000 -1.000000 0.000000
    outer loop
      vertex -21.500000 1.600000 -10.500000
      vertex 21.500000 1.600000 10.500000
      vertex -21.500000 1.600000 10.500000
    endloop
  endfacet
  facet normal 0.000000 1.000000 0.000000
    outer loop
      vertex -21.500000 0.000000 10.500000
      vertex 21.500000 0.000000 10.500000
      vertex 21.500000 0.000000 -10.500000
    endloop
  endfacet
  facet normal 0.000000 1.000000 0.000000
    outer loop
      vertex -21.500000 0.000000 10.500000
      vertex 21.500000 0.000000 -10.500000
      vertex -21.500000 0.000000 -10.500000
    endloop
  endfacet
  facet normal 0.000000 0.000000 -1.000000
    outer loop
      vertex -21.500000 1.600000 10.500000
      vertex 21.500000 1.600000 10.500000
      vertex 21.500000 0.000000 10.500000
    endloop
  endfacet
  facet normal 0.000000 0.000000 -1.000000
    outer loop
      vertex -21.500000 1.600000 10.500000
      vertex 21.500000 0.000000 10.500000
      vertex -21.500000 0.000000 10.500000
    endloop
  endfacet
  facet normal 0.000000 0.000000 1.000000
    outer loop
      vertex 21.500000 0.000000 -10.500000
      vertex 21.500000 1.600000 -10.500000
      vertex -21.500000 1.600000 -10.500000
    endloop
  endfacet
  facet normal 0.000000 0.000000 1.000000
    outer loop
      vertex 21.500000 0.000000 -10.500000
      vertex -21.500000 1.600000 -10.500000
      vertex -21.500000 0.000000 -10.500000
    endloop
  endfacet
  facet normal -1.000000 0.000000 0.000000
    outer loop
      vertex 21.500000 0.000000 10.500000
      vertex 21.500000 1.600000 10.500000
      vertex 21.500000 1.600000 -10.500000
    endloop
  endfacet
  facet normal -1.000000 0.000000 0.000000
    outer loop
      vertex 21.500000 0.000000 10.500000
      vertex 21.500000 1.600000 -10.500000
      vertex 21.500000 0.000000 -10.500000
    endloop
  endfacet
  facet normal 1.000000 0.000000 0.000000
    outer loop
      vertex -21.500000 0.000000 -10.500000
      vertex -21.500000 1.600000 -10.500000
      vertex -21.500000 1.600000 10.500000
    endloop
  endfacet
  facet normal 1.000000 0.000000 0.000000
    outer loop
      vertex -21.500000 0.000000 -10.500000
      vertex -21.500000 1.600000 10.500000
      vertex -21.500000 0.000000 10.500000
    endloop
  endfacet
  facet normal 0.000000 -1.000000 0.000000
    outer loop
      vertex -2.370000 7.225000 -9.060000
      vertex -0.170000 7.225000 -9.060000
      vertex -0.170000 7.225000 -6.860000
    endloop
  endfacet
  facet normal 0.000000 -1.000000 0.000000
    outer loop
      vertex -2.370000 7.225000 -9.060000
      vertex -0.170000 7.225000 -6.860000
      vertex -2.370000 7.225000 -6.860000
    endloop
  endfacet
  facet normal 0.000000 1.000000 0.000000
    outer loop
      vertex -2.370000 5.675000 -6.860000
      vertex -0.170000 5.675000 -6.860000
      vertex -0.170000 5.675000 -9.060000
    endloop
  endfacet
  facet normal 0.000000 1.000000 0.000000
    outer loop
      vertex -2.370000 5.675000 -6.860000
      vertex -0.170000 5.675000 -9.060000
      vertex -2.370000 5.675000 -9.060000
    endloop
  endfacet
  facet normal 0.000000 0.000000 -1.000000
    outer loop
      vertex -2.370000 7.225000 -6.860000
      vertex -0.170000 7.225000 -6.860000
      vertex -0.170000 5.675000 -6.860000
    endloop
  endfacet
  facet normal 0.000000 0.000000 -1.000000
    outer loop
      vertex -2.370000 7.225000 -6.860000
      vertex -0.170000 5.675000 -6.860000
      vertex -2.370000 5.675000 -6.860000
    endloop
  endfacet
  facet normal 0.000000 0.000000 1.000000
    outer loop
      vertex -0.170000 5.675000 -9.060000
      vertex -0.170000 7.225000 -9.060000
      vertex -2.370000 7.225000 -9.060000
    endloop
  endfacet
  facet normal 0.000000 0.000000 1.000000
    outer loop
      vertex -0.170000 5.675000 -9.060000
      vertex -2.370000 7.225000 -9.060000
      vertex -2.370000 5.675000 -9.060000
    endloop
  endfacet
  facet normal -1.000000 0.000000 0.000000
    outer loop
      vertex -0.170000 5.675000 -6.860000
      vertex -0.170000 7.225000 -6.860000
      vertex -0.170000 7.225000 -9.060000
    endloop
  endfacet
  facet normal -1.000000 0.000000 0.000000
    outer loop
      vertex -0.170000 5.675000 -6.860000
      vertex -0.170000 7.225000 -9.060000
      vertex -0.170000 5.675000 -9.060000
    endloop
  endfacet
  facet normal 1.000000 0.000000 0.000000
    outer loop
      vertex -2.370000 5.675000 -9.060000
      vertex -2.370000 7.225000 -9.060000
      vertex -2.370000 7.225000 -6.860000
    endloop
  endfacet
  facet normal 1.000000 0.000000 0.000000
    outer loop
      vertex -2.370000 5.675000 -9.060000
      vertex -2.370000 7.225000 -6.860000
      vertex -2.370000 5.675000 -6.860000
    endloop
  endfacet
  facet normal 0.000000 -1.000000 0.000000
    outer loop
      vertex -1.600000 11.200000 -8.290000
      vertex -0.940000 11.200000 -8.290000
      vertex -0.940000 11.200000 -7.630000
    endloop
  endfacet
  facet normal 0.000000 -1.000000 0.000000
    outer loop
      vertex -1.600000 11.200000 -8.290000
      vertex -0.940000 11.200000 -7.630000
      vertex -1.600000 11.200000 -7.630000
    endloop
  endfacet
  facet normal 0.000000 1.000000 0.000000
    outer loop
      vertex -1.600000 6.000000 -7.630000
      vertex -0.940000 6.000000 -7.630000
      vertex -0.940000 6.000000 -8.290000
    endloop
  endfacet
  facet normal 0.000000 1.000000 0.000000
    outer loop
      vertex -1.600000 6.000000 -7.630000
      vertex -0.940000 6.000000 -8.290000
      vertex -1.600000 6.000000 -8.290000
    endloop
  endfacet
  facet normal 0.000000 0.000000 -1.000000
    outer loop
      vertex -1.600000 11.200000 -7.630000
      vertex -0.940000 11.200000 -7.630000
      vertex -0.940000 6.000000 -7.630000
    endloop
  endfacet
  facet normal 0.000000 0.000000 -1.000000
    outer loop
      vertex -1.600000 11.200000 -7.630000
      vertex -0.940000 6.000000 -7.630000
      vertex -1.600000 6.000000 -7.630000
    endloop
  endfacet
  facet normal 0.000000 0.000000 1.000000
    outer loop
      vertex -0.940000 6.000000 -8.290000
      vertex -0.940000 11.200000 -8.290000
      vertex -1.600000 11.200000 -8.290000
    endloop
  endfacet
  facet normal 0.000000 0.000000 1.000000
    outer loop
      vertex -0.940000 6.000000 -8.290000
      vertex -1.600000 11.200000 -8.290000
      vertex -1.600000 6.000000 -8.290000
    endloop
  endfacet
  facet normal -1.000000 0.000000 0.000000
    outer loop
      vertex -0.940000 6.000000 -7.630000
      vertex -0.940000 11.200000 -7.630000
      vertex -0.940000 11.200000 -8.290000
    endloop
  endfacet
  facet normal -1.000000 0.000000 0.000000
    outer loop
      vertex -0.940000 6.000000 -7.630000
      vertex -0.940000 11.200000 -8.290000
      vertex -0.940000 6.000000 -8.290000
    endloop
  endfacet
  facet normal 1.000000 0.000000 0.000000
    outer loop
      vertex -1.600000 6.000000 -8.290000
      vertex -1.600000 11.200000 -8.290000
      vertex -1.600000 11.200000 -7.630000
    endloop
  endfacet
  facet normal 1.000000 0.000000 0.000000
    outer loop
      vertex -1.600000 6.000000 -8.290000
      vertex -1.600000 11.200000 -7.630000
      vertex -1.600000 6.000000 -7.630000
    endloop
  endfacet
  facet normal 0.000000 -1.000000 0.000000
    outer loop
      vertex 0.170000 7.225000 -9.060000
      vertex 2.370000 7.225000 -9.060000
      vertex 2.370000 7.225000 -6.860000
    endloop
  endfacet
  facet normal 0.000000 -1.000000 0.000000
    outer loop
      vertex 0.170000 7.225000 -9.060000
      vertex 2.370000 7.225000 -6.860000
      vertex 0.170000 7.225000 -6.860000
    endloop
  endfacet
  facet normal 0.000000 1.000000 0.000000
    outer loop
      vertex 0.170000 5.675000 -6.860000
      vertex 2.370000 5.675000 -6.860000
      vertex 2.370000 5.675000 -9.060000
    endloop
  endfacet
  facet normal 0.000000 1.000000 0.000000
    outer loop
      vertex 0.170000 5.675000 -6.860000
      vertex 2.370000 5.675000 -9.060000
      vertex 0.170000 5.675000 -9.060000
    endloop
  endfacet
  facet normal 0.000000 0.000000 -1.000000
    outer loop
      vertex 0.170000 7.225000 -6.860000
      vertex 2.370000 7.225000 -6.860000
      vertex 2.370000 5.675000 -6.860000
    endloop
  endfacet
  facet normal 0.000000 0.000000 -1.000000
    outer loop
      vertex 0.170000 7.225000 -6.860000
      vertex 2.370000 5.675000 -6.860000
      vertex 0.170000 5.675000 -6.860000
    endloop
  endfacet
  facet normal 0.000000 0.000000 1.000000
    outer loop
      vertex 2.370000 5.675000 -9.060000
      vertex 2.370000 7.225000 -9.060000
      vertex 0.170000 7.225000 -9.060000
    endloop
  endfacet
  facet normal 0.000000 0.000000 1.000000
    outer loop
      vertex 2.370000 5.675000 -9.060000
      vertex 0.170000 7.225000 -9.060000
      vertex 0.170000 5.675000 -9.060000
    endloop
  endfacet
  facet normal -1.000000 0.000000 0.000000
    outer loop
      vertex 2.370000 5.675000 -6.860000
      vertex 2.370000 7.225000 -6.860000
      vertex 2.370000 7.225000 -9.060000
    endloop
  endfacet
  facet normal -1.000000 0.000000 0.000000
    outer loop
      vertex 2.370000 5.675000 -6.860000
      vertex 2.370000 7.225000 -9.060000
      vertex 2.370000 5.675000 -9.060000
    endloop
  endfacet
  facet normal 1.000000 0.000000 0.000000
    outer loop
      vertex 0.170000 5.675000 -9.060000
      vertex 0.170000 7.225000 -9.060000
      vertex 0.170000 7.225000 -6.860000
    endloop
  endfacet
  facet normal 1.000000 0.000000 0.000000
    outer loop
      vertex 0.170000 5.675000 -9.060000
      vertex 0.170000 7.225000 -6.860000
      vertex 0.170000 5.675000 -6.860000
    endloop
  endfacet
  facet normal 0.000000 -1.000000 0.000000
    outer loop
      vertex 0.940000 11.200000 -8.290000
      vertex 1.600000 11.200000 -8.290000
      vertex 1.600000 11.200000 -7.630000
    endloop
  endfacet
  facet normal 0.000000 -1.000000 0.000000
    outer loop
      vertex 0.940000 11.200000 -8.290000
      vertex 1.600000 11.200000 -7.630000
      vertex 0.940000 11.200000 -7.630000
    endloop
  endfacet
  facet normal 0.000000 1.000000 0.000000
    outer loop
      vertex 0.940000 6.000000 -7.630000
      vertex 1.600000 6.000000 -7.630000
      vertex 1.600000 6.000000 -8.290000
    endloop
  endfacet
  facet normal 0.000000 1.000000 0.000000
    outer loop
      vertex 0.940000 6.000000 -7.630000
      vertex 1.600000 6.000000 -8.290000
      vertex 0.940000 6.000000 -8.290000
    endloop
  endfacet
  facet normal 0.000000 0.000000 -1.000000
    outer loop
      vertex 0.940000 11.200000 -7.630000
      vertex 1.600000 11.200000 -7.630000
      vertex 1.600000 6.000000 -7.630000
    endloop
  endfacet
  facet normal 0.000000 0.000000 -1.000000
    outer loop
      vertex 0.940000 11.200000 -7.630000
      vertex 1.600000 6.000000 -7.630000
      vertex 0.940000 6.000000 -7.630000
    endloop
  endfacet
  facet normal 0.000000 0.000000 1.000000
    outer loop
      vertex 1.600000 6.000000 -8.290000
      vertex 1.600000 11.200000 -8.290000
      vertex 0.940000 11.200000 -8.290000
    endloop
  endfacet
  facet normal 0.000000 0.000000 1.000000
    outer loop
      vertex 1.600000 6.000000 -8.290000
      vertex 0.940000 11.200000 -8.290000
      vertex 0.940000 6.000000 -8.290000
    endloop
  endfacet
  facet normal -1.000000 0.000000 0.000000
    outer loop
      vertex 1.600000 6.000000 -7.630000
      vertex 1.600000 11.200000 -7.630000
      vertex 1.600000 11.200000 -8.290000
    endloop
  endfacet
  facet normal -1.000000 0.000000 0.000000
    outer loop
      vertex 1.600000 6.000000 -7.630000
      vertex 1.600000 11.200000 -8.290000
      vertex 1.600000 6.000000 -8.290000
    endloop
  endfacet
  facet normal 1.000000 0.000000 0.000000
    outer loop
      vertex 0.940000 6.000000 -8.290000
      vertex 0.940000 11.200000 -8.290000
      vertex 0.940000 11.200000 -7.630000
    endloop
  endfacet
  facet normal 1.000000 0.000000 0.000000
    outer loop
      vertex 0.940000 6.000000 -8.290000
      vertex 0.940000 11.200000 -7.630000
      vertex 0.940000 6.000000 -7.630000
    endloop
  endfacet
  facet normal 0.000000 -1.000000 0.000000
    outer loop
      vertex -2.540000 4.050000 -9.210000
      vertex 2.540000 4.050000 -9.210000
      vertex 2.540000 4.050000 -6.710000
    endloop
  endfacet
  facet normal 0.000000 -1.000000 0.000000
    outer loop
      vertex -2.540000 4.050000 -9.210000
      vertex 2.540000 4.050000 -6.710000
      vertex -2.540000 4.050000 -6.710000
    endloop
  endfacet
  facet normal 0.000000 1.000000 0.000000
    outer loop
      vertex -2.540000 1.550000 -6.710000
      vertex 2.540000 1.550000 -6.710000
      vertex 2.540000 1.550000 -9.210000
    endloop
  endfacet
  facet normal 0.000000 1.000000 0.000000
    outer loop
      vertex -2.540000 1.550000 -6.710000
      vertex 2.540000 1.550000 -9.210000
      vertex -2.540000 1.550000 -9.210000
    endloop
  endfacet
  facet normal 0.000000 0.000000 -1.000000
    outer loop
      vertex -2.540000 4.050000 -6.710000
      vertex 2.540000 4.050000 -6.710000
      vertex 2.540000 1.550000 -6.710000
    endloop
  endfacet
  facet normal 0.000000 0.000000 -1.000000
    outer loop
      vertex -2.540000 4.050000 -6.710000
      vertex 2.540000 1.550000 -6.710000
      vertex -2.540000 1.550000 -6.710000
    endloop
  endfacet
  facet normal 0.000000 0.000000 1.000000
    outer loop
      vertex 2.540000 1.550000 -9.210000
      vertex 2.540000 4.050000 -9.210000
      vertex -2.540000 4.050000 -9.210000
    endloop
  endfacet
  facet normal 0.000000 0.000000 1.000000
    outer loop
      vertex 2.540000 1.550000 -9.210000
      vertex -2.540000 4.050000 -9.210000
      vertex -2.540000 1.550000 -9.210000
    endloop
  endfacet
  facet normal -1.000000 0.000000 0.000000
    outer loop
      vertex 2.540000 1.550000 -6.710000
      vertex 2.540000 4.050000 -6.710000
      vertex 2.540000 4.050000 -9.210000
    endloop
  endfacet
  facet normal -1.000000 0.000000 0.000000
    outer loop
      vertex 2.540000 1.550000 -6.710000
      vertex 2.540000 4.050000 -9.210000
      vertex 2.540000 1.550000 -9.210000
    endloop
  endfacet
  facet normal 1.000000 0.000000 0.000000
    outer loop
      vertex -2.540000 1.550000 -9.210000
      vertex -2.540000 4.050000 -9.210000
      vertex -2.540000 4.050000 -6.710000
    endloop
  endfacet
  facet normal 1.000000 0.000000 0.000000
    outer loop
      vertex -2.540000 1.550000 -9.210000
      vertex -2.540000 4.050000 -6.710000
      vertex -2.540000 1.550000 -6.710000
    endloop
  endfacet
  facet normal 0.000000 -1.000000 0.000000
    outer loop
      vertex -12.600000 4.900000 -3.000000
      vertex -4.600000 4.900000 -3.000000
      vertex -4.600000 4.900000 3.000000
    endloop
  endfacet
  facet normal 0.000000 -1.000000 0.000000
    outer loop
      vertex -12.600000 4.900000 -3.000000
      vertex -4.600000 4.900000 3.000000
      vertex -12.600000 4.900000 3.000000
    endloop
  endfacet
  facet normal 0.000000 1.000000 0.000000
    outer loop
      vertex -12.600000 1.900000 3.000000
      vertex -4.600000 1.900000 3.000000
      vertex -4.600000 1.900000 -3.000000
    endloop
  endfacet
  facet normal 0.000000 1.000000 0.000000
    outer loop
      vertex -12.600000 1.900000 3.000000
      vertex -4.600000 1.900000 -3.000000
      vertex -12.600000 1.900000 -3.000000
    endloop
  endfacet
  facet normal 0.000000 0.000000 -1.000000
    outer loop
      vertex -12.600000 4.900000 3.000000
      vertex -4.600000 4.900000 3.000000
      vertex -4.600000 1.900000 3.000000
    endloop
  endfacet
  facet normal 0.000000 0.000000 -1.000000
    outer loop
      vertex -12.600000 4.900000 3.000000
      vertex -4.600000 1.900000 3.000000
      vertex -12.600000 1.900000 3.000000
    endloop
  endfacet
  facet normal 0.000000 0.000000 1.000000
    outer loop
      vertex -4.600000 1.900000 -3.000000
      vertex -4.600000 4.900000 -3.000000
      vertex -12.600000 4.900000 -3.000000
    endloop
  endfacet
  facet normal 0.000000 0.000000 1.000000
    outer loop
      vertex -4.600000 1.900000 -3.000000
      vertex -12.600000 4.900000 -3.000000
      vertex -12.600000 1.900000 -3.000000
    endloop
  endfacet
  facet normal -1.000000 0.000000 0.000000
    outer loop
      vertex -4.600000 1.900000 3.000000
      vertex -4.600000 4.900000 3.000000
      vertex -4.600000 4.900000 -3.000000
    endloop
  endfacet
  facet normal -1.000000 0.000000 0.000000
    outer loop
      vertex -4.600000 1.900000 3.000000
      vertex -4.600000 4.900000 -3.000000
      vertex -4.600000 1.900000 -3.000000
    endloop
  endfacet
  facet normal 1.000000 0.000000 0.000000
    outer loop
      vertex -12.600000 1.900000 -3.000000
      vertex -12.600000 4.900000 -3.000000
      vertex -12.600000 4.900000 3.000000
    endloop
  endfacet
  facet normal 1.000000 0.000000 0.000000
    outer loop
      vertex -12.600000 1.900000 -3.000000
      vertex -12.600000 4.900000 3.000000
      vertex -12.600000 1.900000 3.000000
    endloop
  endfacet
  facet normal 0.000000 -1.000000 0.000000
    outer loop
      vertex 8.600000 11.800000 0.000000
      vertex 12.600000 11.800000 0.000000
      vertex 12.463703 11.800000 1.035276
    endloop
  endfacet
  facet normal 0.000000 1.000000 0.000000
    outer loop
      vertex 8.600000 1.800000 0.000000
      vertex 12.463703 1.800000 1.035276
      vertex 12.600000 1.800000 0.000000
    endloop
  endfacet
  facet normal -0.991445 0.000000 -0.130526
    outer loop
      vertex 12.600000 1.800000 0.000000
      vertex 12.463703 1.800000 1.035276
      vertex 12.463703 11.800000 1.035276
    endloop
  endfacet
  facet normal -0.991445 0.000000 -0.130526
    outer loop
      vertex 12.600000 1.800000 0.000000
      vertex 12.463703 11.800000 1.035276
      vertex 12.600000 11.800000 0.000000
    endloop
  endfacet
  facet normal 0.000000 -1.000000 0.000000
    outer loop
      vertex 8.600000 11.800000 0.000000
      vertex 12.463703 11.800000 1.035276
      vertex 12.064102 11.800000 2.000000
    endloop
  endfacet
  facet normal 0.000000 1.000000 0.000000
    outer loop
      vertex 8.600000 1.800000 0.000000
      vertex 12.064102 1.800000 2.000000
      vertex 12.463703 1.800000 1.035276
    endloop
  endfacet
  facet normal -0.923880 0.000000 -0.382683
    outer loop
      vertex 12.463703 1.800000 1.035276
      vertex 12.064102 1.800000 2.000000
      vertex 12.064102 11.800000 2.000000
    endloop
  endfacet
  facet normal -0.923880 0.000000 -0.382683
    outer loop
      vertex 12.463703 1.800000 1.035276
      vertex 12.064102 11.800000 2.000000
      vertex 12.463703 11.800000 1.035276
    endloop
  endfacet
  facet normal 0.000000 -1.000000 0.000000
    outer loop
      vertex 8.600000 11.800000 0.000000
      vertex 12.064102 11.800000 2.000000
      vertex 11.428427 11.800000 2.828427
    endloop
  endfacet
  facet normal 0.000000 1.000000 0.000000
    outer loop
      vertex 8.600000 1.800000 0.000000
      vertex 11.428427 1.800000 2.828427
      vertex 12.064102 1.800000 2.000000
    endloop
  endfacet
  facet normal -0.793353 0.000000 -0.608761
    outer loop
      vertex 12.064102 1.800000 2.000000
      vertex 11.428427 1.800000 2.828427
      vertex 11.428427 11.800000 2.828427
    endloop
  endfacet
  facet normal -0.793353 0.000000 -0.608761
    outer loop
      vertex 12.064102 1.800000 2.000000
      vertex 11.428427 11.800000 2.828427
      vertex 12.064102 11.800000 2.000000
    endloop
  endfacet
  facet normal 0.000000 -1.000000 0.000000
    outer loop
      vertex 8.600000 11.800000 0.000000
      vertex 11.428427 11.800000 2.828427
      vertex 10.600000 11.800000 3.464102
    endloop
  endfacet
  facet normal 0.000000 1.000000 0.000000
    outer loop
      vertex 8.600000 1.800000 0.000000
      vertex 10.600000 1.800000 3.464102
      vertex 11.428427 1.800000 2.828427
    endloop
  endfacet
  facet normal -0.608761 0.000000 -0.793353
    outer loop
      vertex 11.428427 1.800000 2.828427
      vertex 10.600000 1.800000 3.464102
      vertex 10.600000 11.800000 3.464102
    endloop
  endfacet
  facet normal -0.608761 0.000000 -0.793353
    outer loop
      vertex 11.428427 1.800000 2.828427
      vertex 10.600000 11.800000 3.464102
      vertex 11.428427 11.800000 2.828427
    endloop
  endfacet
  facet normal 0.000000 -1.000000 0.000000
    outer loop
      vertex 8.600000 11.800000 0.000000
      vertex 10.600000 11.800000 3.464102
      vertex 9.635276 11.800000 3.863703
    endloop
  endfacet
  facet normal 0.000000 1.000000 0.000000
    outer loop
      vertex 8.600000 1.800000 0.000000
      vertex 9.635276 1.800000 3.863703
      vertex 10.600000 1.800000 3.464102
    endloop
  endfacet
  facet normal -0.382683 0.000000 -0.923880
    outer loop
      vertex 10.600000 1.800000 3.464102
      vertex 9.635276 1.800000 3.863703
      vertex 9.635276 11.800000 3.863703
    endloop
  endfacet
  facet normal -0.382683 0.000000 -0.923880
    outer loop
      vertex 10.600000 1.800000 3.464102
      vertex 9.635276 11.800000 3.863703
      vertex 10.600000 11.800000 3.464102
    endloop
  endfacet
  facet normal 0.000000 -1.000000 0.000000
    outer loop
      vertex 8.600000 11.800000 0.000000
      vertex 9.635276 11.800000 3.863703
      vertex 8.600000 11.800000 4.000000
    endloop
  endfacet
  facet normal 0.000000 1.000000 0.000000
    outer loop
      vertex 8.600000 1.800000 0.000000
      vertex 8.600000 1.800000 4.000000
      vertex 9.635276 1.800000 3.863703
    endloop
  endfacet
  facet normal -0.130526 0.000000 -0.991445
    outer loop
      vertex 9.635276 1.800000 3.863703
      vertex 8.600000 1.800000 4.000000
      vertex 8.600000 11.800000 4.000000
    endloop
  endfacet
  facet normal -0.130526 0.000000 -0.991445
    outer loop
      vertex 9.635276 1.800000 3.863703
      vertex 8.600000 11.800000 4.000000
      vertex 9.635276 11.800000 3.863703
    endloop
  endfacet
  facet normal 0.000000 -1.000000 0.000000
    outer loop
      vertex 8.600000 11.800000 0.000000
      vertex 8.600000 11.800000 4.000000
      vertex 7.564724 11.800000 3.863703
    endloop
  endfacet
  facet normal 0.000000 1.000000 0.000000
    outer loop
      vertex 8.600000 1.800000 0.000000
      vertex 7.564724 1.800000 3.863703
      vertex 8.600000 1.800000 4.000000
    endloop
  endfacet
  facet normal 0.130526 0.000000 -0.991445
    outer loop
      vertex 8.600000 1.800000 4.000000
      vertex 7.564724 1.800000 3.863703
      vertex 7.564724 11.800000 3.863703
    endloop
  endfacet
  facet normal 0.130526 0.000000 -0.991445
    outer loop
      vertex 8.600000 1.800000 4.000000
      vertex 7.564724 11.800000 3.863703
      vertex 8.600000 11.800000 4.000000
    endloop
  endfacet
  facet normal 0.000000 -1.000000 0.000000
    outer loop
      vertex 8.600000 11.800000 0.000000
      vertex 7.564724 11.800000 3.863703
      vertex 6.600000 11.800000 3.464102
    endloop
  endfacet
  facet normal 0.000000 1.000000 0.000000
    outer loop
      vertex 8.600000 1.800000 0.000000
      vertex 6.600000 1.800000 3.464102
      vertex 7.564724 1.800000 3.863703
    endloop
  endfacet
  facet normal 0.382683 0.000000 -0.923880
    outer loop
      vertex 7.564724 1.800000 3.863703
      vertex 6.600000 1.800000 3.464102
      vertex 6.600000 11.800000 3.464102
    endloop
  endfacet
  facet normal 0.382683 0.000000 -0.923880
    outer loop
      vertex 7.564724 1.800000 3.863703
      vertex 6.600000 11.800000 3.464102
      vertex 7.564724 11.800000 3.863703
    endloop
  endfacet
  facet normal 0.000000 -1.000000 0.000000
    outer loop
      vertex 8.600000 11.800000 0.000000
      vertex 6.600000 11.800000 3.464102
      vertex 5.771573 11.800000 2.828427
    endloop
  endfacet
  facet normal 0.000000 1.000000 0.000000
    outer loop
      vertex 8.600000 1.800000 0.000000
      vertex 5.771573 1.800000 2.828427
      vertex 6.600000 1.800000 3.464102
    endloop
  endfacet
  facet normal 0.608761 0.000000 -0.793353
    outer loop
      vertex 6.600000 1.800000 3.464102
      vertex 5.771573 1.800000 2.828427
      vertex 5.771573 11.800000 2.828427
    endloop
  endfacet
  facet normal 0.608761 0.000000 -0.793353
    outer loop
      vertex 6.600000 1.800000 3.464102
      vertex 5.771573 11.800000 2.828427
      vertex 6.600000 11.800000 3.464102
    endloop
  endfacet
  facet normal 0.000000 -1.000000 0.000000
    outer loop
      vertex 8.600000 11.800000 0.000000
      vertex 5.771573 11.800000 2.828427
      vertex 5.135898 11.800000 2.000000
    endloop
  endfacet
  facet normal 0.000000 1.000000 0.000000
    outer loop
      vertex 8.600000 1.800000 0.000000
      vertex 5.135898 1.800000 2.000000
      vertex 5.771573 1.800000 2.828427
    endloop
  endfacet
  facet normal 0.793353 0.000000 -0.608761
    outer loop
      vertex 5.771573 1.800000 2.828427
      vertex 5.135898 1.800000 2.000000
      vertex 5.135898 11.800000 2.000000
    endloop
  endfacet
  facet normal 0.793353 0.000000 -0.608761
    outer loop
      vertex 5.771573 1.800000 2.828427
      vertex 5.135898 11.800000 2.000000
      vertex 5.771573 11.800000 2.828427
    endloop
  endfacet
  facet normal 0.000000 -1.000000 0.000000
    outer loop
      vertex 8.600000 11.800000 0.000000
      vertex 5.135898 11.800000 2.000000
      vertex 4.736297 11.800000 1.035276
    endloop
  endfacet
  facet normal 0.000000 1.000000 0.000000
    outer loop
      vertex 8.600000 1.800000 0.000000
      vertex 4.736297 1.800000 1.035276
      vertex 5.135898 1.800000 2.000000
    endloop
  endfacet
  facet normal 0.923880 0.000000 -0.382683
    outer loop
      vertex 5.135898 1.800000 2.000000
      vertex 4.736297 1.800000 1.035276
      vertex 4.736297 11.800000 1.035276
    endloop
  endfacet
  facet normal 0.923880 0.000000 -0.382683
    outer loop
      vertex 5.135898 1.800000 2.000000
      vertex 4.736297 11.800000 1.035276
      vertex 5.135898 11.800000 2.000000
    endloop
  endfacet
  facet normal 0.000000 -1.000000 0.000000
    outer loop
      vertex 8.600000 11.800000 0.000000
      vertex 4.736297 11.800000 1.035276
      vertex 4.600000 11.800000 0.000000
    endloop
  endfacet
  facet normal 0.000000 1.000000 0.000000
    outer loop
      vertex 8.600000 1.800000 0.000000
      vertex 4.600000 1.800000 0.000000
      vertex 4.736297 1.800000 1.035276
    endloop
  endfacet
  facet normal 0.991445 0.000000 -0.130526
    outer loop
      vertex 4.736297 1.800000 1.035276
      vertex 4.600000 1.800000 0.000000
      vertex 4.600000 11.800000 0.000000
    endloop
  endfacet
  facet normal 0.991445 0.000000 -0.130526
    outer loop
      vertex 4.736297 1.800000 1.035276
      vertex 4.600000 11.800000 0.000000
      vertex 4.736297 11.800000 1.035276
    endloop
  endfacet
  facet normal 0.000000 -1.000000 0.000000
    outer loop
      vertex 8.600000 11.800000 0.000000
      vertex 4.600000 11.800000 0.000000
      vertex 4.736297 11.800000 -1.035276
    endloop
  endfacet
  facet normal 0.000000 1.000000 0.000000
    outer loop
      vertex 8.600000 1.800000 0.000000
      vertex 4.736297 1.800000 -1.035276
      vertex 4.600000 1.800000 0.000000
    endloop
  endfacet
  facet normal 0.991445 0.000000 0.130526
    outer loop
      vertex 4.600000 1.800000 0.000000
      vertex 4.736297 1.800000 -1.035276
      vertex 4.736297 11.800000 -1.035276
    endloop
  endfacet
  facet normal 0.991445 0.000000 0.130526
    outer loop
      vertex 4.600000 1.800000 0.000000
      vertex 4.736297 11.800000 -1.035276
      vertex 4.600000 11.800000 0.000000
    endloop
  endfacet
  facet normal 0.000000 -1.000000 0.000000
    outer loop
      vertex 8.600000 11.800000 0.000000
      vertex 4.736297 11.800000 -1.035276
      vertex 5.135898 11.800000 -2.000000
    endloop
  endfacet
  facet normal 0.000000 1.000000 0.000000
    outer loop
      vertex 8.600000 1.800000 0.000000
      vertex 5.135898 1.800000 -2.000000
      vertex 4.736297 1.800000 -1.035276
    endloop
  endfacet
  facet normal 0.923880 0.000000 0.382683
    outer loop
      vertex 4.736297 1.800000 -1.035276
      vertex 5.135898 1.800000 -2.000000
      vertex 5.135898 11.800000 -2.000000
    endloop
  endfacet
  facet normal 0.923880 0.000000 0.382683
    outer loop
      vertex 4.736297 1.800000 -1.035276
      vertex 5.135898 11.800000 -2.000000
      vertex 4.736297 11.800000 -1.035276
    endloop
  endfacet
  facet normal 0.000000 -1.000000 0.000000
    outer loop
      vertex 8.600000 11.800000 0.000000
      vertex 5.135898 11.800000 -2.000000
      vertex 5.771573 11.800000 -2.828427
    endloop
  endfacet
  facet normal 0.000000 1.000000 0.000000
    outer loop
      vertex 8.600000 1.800000 0.000000
      vertex 5.771573 1.800000 -2.828427
      vertex 5.135898 1.800000 -2.000000
    endloop
  endfacet
  facet normal 0.793353 0.000000 0.608761
    outer loop
      vertex 5.135898 1.800000 -2.000000
      vertex 5.771573 1.800000 -2.828427
      vertex 5.771573 11.800000 -2.828427
    endloop
  endfacet
  facet normal 0.793353 0.000000 0.608761
    outer loop
      vertex 5.135898 1.800000 -2.000000
      vertex 5.771573 11.800000 -2.828427
      vertex 5.135898 11.800000 -2.000000
    endloop
  endfacet
  facet normal 0.000000 -1.000000 0.000000
    outer loop
      vertex 8.600000 11.800000 0.000000
      vertex 5.771573 11.800000 -2.828427
      vertex 6.600000 11.800000 -3.464102
    endloop
  endfacet
  facet normal 0.000000 1.000000 0.000000
    outer loop
      vertex 8.600000 1.800000 0.000000
      vertex 6.600000 1.800000 -3.464102
      vertex 5.771573 1.800000 -2.828427
    endloop
  endfacet
  facet normal 0.608761 0.000000 0.793353
    outer loop
      vertex 5.771573 1.800000 -2.828427
      vertex 6.600000 1.800000 -3.464102
      vertex 6.600000 11.800000 -3.464102
    endloop
  endfacet
  facet normal 0.608761 0.000000 0.793353
    outer loop
      vertex 5.771573 1.800000 -2.828427
      vertex 6.600000 11.800000 -3.464102
      vertex 5.771573 11.800000 -2.828427
    endloop
  endfacet
  facet normal 0.000000 -1.000000 0.000000
    outer loop
      vertex 8.600000 11.800000 0.000000
      vertex 6.600000 11.800000 -3.464102
      vertex 7.564724 11.800000 -3.863703
    endloop
  endfacet
  facet normal 0.000000 1.000000 0.000000
    outer loop
      vertex 8.600000 1.800000 0.000000
      vertex 7.564724 1.800000 -3.863703
      vertex 6.600000 1.800000 -3.464102
    endloop
  endfacet
  facet normal 0.382683 0.000000 0.923880
    outer loop
      vertex 6.600000 1.800000 -3.464102
      vertex 7.564724 1.800000 -3.863703
      vertex 7.564724 11.800000 -3.863703
    endloop
  endfacet
  facet normal 0.382683 0.000000 0.923880
    outer loop
      vertex 6.600000 1.800000 -3.464102
      vertex 7.564724 11.800000 -3.863703
      vertex 6.600000 11.800000 -3.464102
    endloop
  endfacet
  facet normal 0.000000 -1.000000 0.000000
    outer loop
      vertex 8.600000 11.800000 0.000000
      vertex 7.564724 11.800000 -3.863703
      vertex 8.600000 11.800000 -4.000000
    endloop
  endfacet
  facet normal 0.000000 1.000000 0.000000
    outer loop
      vertex 8.600000 1.800000 0.000000
      vertex 8.600000 1.800000 -4.000000
      vertex 7.564724 1.800000 -3.863703
    endloop
  endfacet
  facet normal 0.130526 0.000000 0.991445
    outer loop
      vertex 7.564724 1.800000 -3.863703
      vertex 8.600000 1.800000 -4.000000
      vertex 8.600000 11.800000 -4.000000
    endloop
  endfacet
  facet normal 0.130526 0.000000 0.991445
    outer loop
      vertex 7.564724 1.800000 -3.863703
      vertex 8.600000 11.800000 -4.000000
      vertex 7.564724 11.800000 -3.863703
    endloop
  endfacet
  facet normal 0.000000 -1.000000 0.000000
    outer loop
      vertex 8.600000 11.800000 0.000000
      vertex 8.600000 11.800000 -4.000000
      vertex 9.635276 11.800000 -3.863703
    endloop
  endfacet
  facet normal 0.000000 1.000000 0.000000
    outer loop
      vertex 8.600000 1.800000 0.000000
      vertex 9.635276 1.800000 -3.863703
      vertex 8.600000 1.800000 -4.000000
    endloop
  endfacet
  facet normal -0.130526 0.000000 0.991445
    outer loop
      vertex 8.600000 1.800000 -4.000000
      vertex 9.635276 1.800000 -3.863703
      vertex 9.635276 11.800000 -3.863703
    endloop
  endfacet
  facet normal -0.130526 0.000000 0.991445
    outer loop
      vertex 8.600000 1.800000 -4.000000
      vertex 9.635276 11.800000 -3.863703
      vertex 8.600000 11.800000 -4.000000
    endloop
  endfacet
  facet normal 0.000000 -1.000000 0.000000
    outer loop
      vertex 8.600000 11.800000 0.000000
      vertex 9.635276 11.800000 -3.863703
      vertex 10.600000 11.800000 -3.464102
    endloop
  endfacet
  facet normal 0.000000 1.000000 0.000000
    outer loop
      vertex 8.600000 1.800000 0.000000
      vertex 10.600000 1.800000 -3.464102
      vertex 9.635276 1.800000 -3.863703
    endloop
  endfacet
  facet normal -0.382683 0.000000 0.923880
    outer loop
      vertex 9.635276 1.800000 -3.863703
      vertex 10.600000 1.800000 -3.464102
      vertex 10.600000 11.800000 -3.464102
    endloop
  endfacet
  facet normal -0.382683 0.000000 0.923880
    outer loop
      vertex 9.635276 1.800000 -3.863703
      vertex 10.600000 11.800000 -3.464102
      vertex 9.635276 11.800000 -3.863703
    endloop
  endfacet
  facet normal 0.000000 -1.000000 0.000000
    outer loop
      vertex 8.600000 11.800000 0.000000
      vertex 10.600000 11.800000 -3.464102
      vertex 11.428427 11.800000 -2.828427
    endloop
  endfacet
  facet normal 0.000000 1.000000 0.000000
    outer loop
      vertex 8.600000 1.800000 0.000000
      vertex 11.428427 1.800000 -2.828427
      vertex 10.600000 1.800000 -3.464102
    endloop
  endfacet
  facet normal -0.608761 0.000000 0.793353
    outer loop
      vertex 10.600000 1.800000 -3.464102
      vertex 11.428427 1.800000 -2.828427
      vertex 11.428427 11.800000 -2.828427
    endloop
  endfacet
  facet normal -0.608761 0.000000 0.793353
    outer loop
      vertex 10.600000 1.800000 -3.464102
      vertex 11.428427 11.800000 -2.828427
      vertex 10.600000 11.800000 -3.464102
    endloop
  endfacet
  facet normal 0.000000 -1.000000 0.000000
    outer loop
      vertex 8.600000 11.800000 0.000000
      vertex 11.428427 11.800000 -2.828427
      vertex 12.064102 11.800000 -2.000000
    endloop
  endfacet
  facet normal 0.000000 1.000000 0.000000
    outer loop
      vertex 8.600000 1.800000 0.000000
      vertex 12.064102 1.800000 -2.000000
      vertex 11.428427 1.800000 -2.828427
    endloop
  endfacet
  facet normal -0.793353 0.000000 0.608761
    outer loop
      vertex 11.428427 1.800000 -2.828427
      vertex 12.064102 1.800000 -2.000000
      vertex 12.064102 11.800000 -2.000000
    endloop
  endfacet
  facet normal -0.793353 0.000000 0.608761
    outer loop
      vertex 11.428427 1.800000 -2.828427
      vertex 12.064102 11.800000 -2.000000
      vertex 11.428427 11.800000 -2.828427
    endloop
  endfacet
  facet normal 0.000000 -1.000000 0.000000
    outer loop
      vertex 8.600000 11.800000 0.000000
      vertex 12.064102 11.800000 -2.000000
      vertex 12.463703 11.800000 -1.035276
    endloop
  endfacet
  facet normal 0.000000 1.000000 0.000000
    outer loop
      vertex 8.600000 1.800000 0.000000
      vertex 12.463703 1.800000 -1.035276
      vertex 12.064102 1.800000 -2.000000
    endloop
  endfacet
  facet normal -0.923880 0.000000 0.382683
    outer loop
      vertex 12.064102 1.800000 -2.000000
      vertex 12.463703 1.800000 -1.035276
      vertex 12.463703 11.800000 -1.035276
    endloop
  endfacet
  facet normal -0.923880 0.000000 0.382683
    outer loop
      vertex 12.064102 1.800000 -2.000000
      vertex 12.463703 11.800000 -1.035276
      vertex 12.064102 11.800000 -2.000000
    endloop
  endfacet
  facet normal 0.000000 -1.000000 0.000000
    outer loop
      vertex 8.600000 11.800000 0.000000
      vertex 12.463703 11.800000 -1.035276
      vertex 12.600000 11.800000 0.000000
    endloop
  endfacet
  facet normal 0.000000 1.000000 0.000000
    outer loop
      vertex 8.600000 1.800000 0.000000
      vertex 12.600000 1.800000 0.000000
      vertex 12.463703 1.800000 -1.035276
    endloop
  endfacet
  facet normal -0.991445 0.000000 0.130526
    outer loop
      vertex 12.463703 1.800000 -1.035276
      vertex 12.600000 1.800000 0.000000
      vertex 12.600000 11.800000 0.000000
    endloop
  endfacet
  facet normal -0.991445 0.000000 0.130526
    outer loop
      vertex 12.463703 1.800000 -1.035276
      vertex 12.600000 11.800000 0.000000
      vertex 12.463703 11.800000 -1.035276
    endloop
  endfacet
endsolid diode_1n4148