solid regulator_ams1117_3v3
  facet normal 0.000000 -1.000000 0.000000
    outer loop
      vertex -8.000000 1.600000 -6.000000
      vertex 8.000000 1.600000 -6.000000
      vertex 8.000000 1.600000 6.000000
    endloop
  endfacet
  facet normal 0.000000 -1.000000 0.000000
    outer loop
      vertex -8.000000 1.600000 -6.000000
      vertex 8.000000 1.600000 6.000000
      vertex -8.000000 1.600000 6.000000
    endloop
  endfacet
  facet normal 0.000000 1.000000 0.000000
    outer loop
      vertex -8.000000 0.000000 6.000000
      vertex 8.000000 0.000000 6.000000
      vertex 8.000000 0.000000 -6.000000
    endloop
  endfacet
  facet normal 0.000000 1.000000 0.000000
    outer loop
      vertex -8.000000 0.000000 6.000000
      vertex 8.000000 0.000000 -6.000000
      vertex -8.000000 0.000000 -6.000000
    endloop
  endfacet
  facet normal 0.000000 0.000000 -1.000000
    outer loop
      vertex -8.000000 1.600000 6.000000
      vertex 8.000000 1.600000 6.000000
      vertex 8.000000 0.000000 6.000000
    endloop
  endfacet
  facet normal 0.000000 0.000000 -1.000000
    outer loop
      vertex -8.000000 1.600000 6.000000
      vertex 8.000000 0.000000 6.000000
      vertex -8.000000 0.000000 6.000000
    endloop
  endfacet
  facet normal 0.000000 0.000000 1.000000
    outer loop
      vertex 8.000000 0.000000 -6.000000
      vertex 8.000000 1.600000 -6.000000
      vertex -8.000000 1.600000 -6.000000
    endloop
  endfacet
  facet normal 0.000000 0.000000 1.000000
    outer loop
      vertex 8.000000 0.000000 -6.000000
      vertex -8.000000 1.600000 -6.000000
      vertex -8.000000 0.000000 -6.000000
    endloop
  endfacet
  facet normal -1.000000 0.000000 0.000000
    outer loop
      vertex 8.000000 0.000000 6.000000
      vertex 8.000000 1.600000 6.000000
      vertex 8.000000 1.600000 -6.000000
    endloop
  endfacet
  facet normal -1.000000 0.000000 0.000000
    outer loop
      vertex 8.000000 0.000000 6.000000
      vertex 8.000000 1.600000 -6.000000
      vertex 8.000000 0.000000 -6.000000
    endloop
  endfacet
  facet normal 1.000000 0.000000 0.000000
    outer loop
      vertex -8.000000 0.000000 -6.000000
      vertex -8.000000 1.600000 -6.000000
      vertex -8.000000 1.600000 6.000000
    endloop
  endfacet
  facet normal 1.000000 0.000000 0.000000
    outer loop
      vertex -8.000000 0.000000 -6.000000
      vertex -8.000000 1.600000 6.000000
      vertex -8.000000 0.000000 6.000000
    endloop
  endfacet
  facet normal 0.000000 -1.000000 0.000000
    outer loop
      vertex -3.640000 7.225000 -4.560000
      vertex -1.440000 7.225000 -4.560000
      vertex -1.440000 7.225000 -2.360000
    endloop
  endfacet
  facet normal 0.000000 -1.000000 0.000000
    outer loop
      vertex -3.640000 7.225000 -4.560000
      vertex -1.440000 7.225000 -2.360000
      vertex -3.640000 7.225000 -2.360000
    endloop
  endfacet
  facet normal 0.000000 1.000000 0.000000
    outer loop
      vertex -3.640000 5.675000 -2.360000
      vertex -1.440000 5.675000 -2.360000
      vertex -1.440000 5.675000 -4.560000
    endloop
  endfacet
  facet normal 0.000000 1.000000 0.000000
    outer loop
      vertex -3.640000 5.675000 -2.360000
      vertex -1.440000 5.675000 -4.560000
      vertex -3.640000 5.675000 -4.560000
    endloop
  endfacet
  facet normal 0.000000 0.000000 -1.000000
    outer loop
      vertex -3.640000 7.225000 -2.360000
      vertex -1.440000 7.225000 -2.360000
      vertex -1.440000 5.675000 -2.360000
    endloop
  endfacet
  facet normal 0.000000 0.000000 -1.000000
    outer loop
      vertex -3.640000 7.225000 -2.360000
      vertex -1.440000 5.675000 -2.360000
      vertex -3.640000 5.675000 -2.360000
    endloop
  endfacet
  facet normal 0.000000 0.000000 1.000000
    outer loop
      vertex -1.440000 5.675000 -4.560000
      vertex -1.440000 7.225000 -4.560000
      vertex -3.640000 7.225000 -4.560000
    endloop
  endfacet
  facet normal 0.000000 0.000000 1.000000
    outer loop
      vertex -1.440000 5.675000 -4.560000
      vertex -3.640000 7.225000 -4.560000
      vertex -3.640000 5.675000 -4.560000
    endloop
  endfacet
  facet normal -1.000000 0.000000 0.000000
    outer loop
      vertex -1.440000 5.675000 -2.360000
      vertex -1.440000 7.225000 -2.360000
      vertex -1.440000 7.225000 -4.560000
    endloop
  endfacet
  facet normal -1.000000 0.000000 0.000000
    outer loop
      vertex -1.440000 5.675000 -2.360000
      vertex -1.440000 7.225000 -4.560000
      vertex -1.440000 5.675000 -4.560000
    endloop
  endfacet
  facet normal 1.000000 0.000000 0.000000
    outer loop
      vertex -3.640000 5.675000 -4.560000
      vertex -3.640000 7.225000 -4.560000
      vertex -3.640000 7.225000 -2.360000
    endloop
  endfacet
  facet normal 1.000000 0.000000 0.000000
    outer loop
      vertex -3.640000 5.675000 -4.560000
      vertex -3.640000 7.225000 -2.360000
      vertex -3.640000 5.675000 -2.360000
    endloop
  endfacet
  facet normal 0.000000 -1.000000 0.000000
    outer loop
      vertex -2.870000 11.200000 -3.790000
      vertex -2.210000 11.200000 -3.790000
      vertex -2.210000 11.200000 -3.130000
    endloop
  endfacet
  facet normal 0.000000 -1.000000 0.000000
    outer loop
      vertex -2.870000 11.200000 -3.790000
      vertex -2.210000 11.200000 -3.130000
      vertex -2.870000 11.200000 -3.130000
    endloop
  endfacet
  facet normal 0.000000 1.000000 0.000000
    outer loop
      vertex -2.870000 6.000000 -3.130000
      vertex -2.210000 6.000000 -3.130000
      vertex -2.210000 6.000000 -3.790000
    endloop
  endfacet
  facet normal 0.000000 1.000000 0.000000
    outer loop
      vertex -2.870000 6.000000 -3.130000
      vertex -2.210000 6.000000 -3.790000
      vertex -2.870000 6.000000 -3.790000
    endloop
  endfacet
  facet normal 0.000000 0.000000 -1.000000
    outer loop
      vertex -2.870000 11.200000 -3.130000
      vertex -2.210000 11.200000 -3.130000
      vertex -2.210000 6.000000 -3.130000
    endloop
  endfacet
  facet normal 0.000000 0.000000 -1.000000
    outer loop
      vertex -2.870000 11.200000 -3.130000
      vertex -2.210000 6.000000 -3.130000
      vertex -2.870000 6.000000 -3.130000
    endloop
  endfacet
  facet normal 0.000000 0.000000 1.000000
    outer loop
      vertex -2.210000 6.000000 -3.790000
      vertex -2.210000 11.200000 -3.790000
      vertex -2.870000 11.200000 -3.790000
    endloop
  endfacet
  facet normal 0.000000 0.000000 1.000000
    outer loop
      vertex -2.210000 6.000000 -3.790000
      vertex -2.870000 11.200000 -3.790000
      vertex -2.870000 6.000000 -3.790000
    endloop
  endfacet
  facet normal -1.000000 0.000000 0.000000
    outer loop
      vertex -2.210000 6.000000 -3.130000
      vertex -2.210000 11.200000 -3.130000
      vertex -2.210000 11.200000 -3.790000
    endloop
  endfacet
  facet normal -1.000000 0.000000 0.000000
    outer loop
      vertex -2.210000 6.000000 -3.130000
      vertex -2.210000 11.200000 -3.790000
      vertex -2.210000 6.000000 -3.790000
    endloop
  endfacet
  facet normal 1.000000 0.000000 0.000000
    outer loop
      vertex -2.870000 6.000000 -3.790000
      vertex -2.870000 11.200000 -3.790000
      vertex -2.870000 11.200000 -3.130000
    endloop
  endfacet
  facet normal 1.000000 0.000000 0.000000
    outer loop
      vertex -2.870000 6.000000 -3.790000
      vertex -2.870000 11.200000 -3.130000
      vertex -2.870000 6.000000 -3.130000
    endloop
  endfacet
  facet normal 0.000000 -1.000000 0.000000
    outer loop
      vertex -1.100000 7.225000 -4.560000
      vertex 1.100000 7.225000 -4.560000
      vertex 1.100000 7.225000 -2.360000
    endloop
  endfacet
  facet normal 0.000000 -1.000000 0.000000
    outer loop
      vertex -1.100000 7.225000 -4.560000
      vertex 1.100000 7.225000 -2.360000
      vertex -1.100000 7.225000 -2.360000
    endloop
  endfacet
  facet normal 0.000000 1.000000 0.000000
    outer loop
      vertex -1.100000 5.675000 -2.360000
      vertex 1.100000 5.675000 -2.360000
      vertex 1.100000 5.675000 -4.560000
    endloop
  endfacet
  facet normal 0.000000 1.000000 0.000000
    outer loop
      vertex -1.100000 5.675000 -2.360000
      vertex 1.100000 5.675000 -4.560000
      vertex -1.100000 5.675000 -4.560000
    endloop
  endfacet
  facet normal 0.000000 0.000000 -1.000000
    outer loop
      vertex -1.100000 7.225000 -2.360000
      vertex 1.100000 7.225000 -2.360000
      vertex 1.100000 5.675000 -2.360000
    endloop
  endfacet
  facet normal 0.000000 0.000000 -1.000000
    outer loop
      vertex -1.100000 7.225000 -2.360000
      vertex 1.100000 5.675000 -2.360000
      vertex -1.100000 5.675000 -2.360000
    endloop
  endfacet
  facet normal 0.000000 0.000000 1.000000
    outer loop
      vertex 1.100000 5.675000 -4.560000
      vertex 1.100000 7.225000 -4.560000
      vertex -1.100000 7.225000 -4.560000
    endloop
  endfacet
  facet normal 0.000000 0.000000 1.000000
    outer loop
      vertex 1.100000 5.675000 -4.560000
      vertex -1.100000 7.225000 -4.560000
      vertex -1.100000 5.675000 -4.560000
    endloop
  endfacet
  facet normal -1.000000 0.000000 0.000000
    outer loop
      vertex 1.100000 5.675000 -2.360000
      vertex 1.100000 7.225000 -2.360000
      vertex 1.100000 7.225000 -4.560000
    endloop
  endfacet
  facet normal -1.000000 0.000000 0.000000
    outer loop
      vertex 1.100000 5.675000 -2.360000
      vertex 1.100000 7.225000 -4.560000
      vertex 1.100000 5.675000 -4.560000
    endloop
  endfacet
  facet normal 1.000000 0.000000 0.000000
    outer loop
      vertex -1.100000 5.675000 -4.560000
      vertex -1.100000 7.225000 -4.560000
      vertex -1.100000 7.225000 -2.360000
    endloop
  endfacet
  facet normal 1.000000 0.000000 0.000000
    outer loop
      vertex -1.100000 5.675000 -4.560000
      vertex -1.100000 7.225000 -2.360000
      vertex -1.100000 5.675000 -2.360000
    endloop
  endfacet
  facet normal 0.000000 -1.000000 0.000000
    outer loop
      vertex -0.330000 11.200000 -3.790000
      vertex 0.330000 11.200000 -3.790000
      vertex 0.330000 11.200000 -3.130000
    endloop
  endfacet
  facet normal 0.000000 -1.000000 0.000000
    outer loop
      vertex -0.330000 11.200000 -3.790000
      vertex 0.330000 11.200000 -3.130000
      vertex -0.330000 11.200000 -3.130000
    endloop
  endfacet
  facet normal 0.000000 1.000000 0.000000
    outer loop
      vertex -0.330000 6.000000 -3.130000
      vertex 0.330000 6.000000 -3.130000
      vertex 0.330000 6.000000 -3.790000
    endloop
  endfacet
  facet normal 0.000000 1.000000 0.000000
    outer loop
      vertex -0.330000 6.000000 -3.130000
      vertex 0.330000 6.000000 -3.790000
      vertex -0.330000 6.000000 -3.790000
    endloop
  endfacet
  facet normal 0.000000 0.000000 -1.000000
    outer loop
      vertex -0.330000 11.200000 -3.130000
      vertex 0.330000 11.200000 -3.130000
      vertex 0.330000 6.000000 -3.130000
    endloop
  endfacet
  facet normal 0.000000 0.000000 -1.000000
    outer loop
      vertex -0.330000 11.200000 -3.130000
      vertex 0.330000 6.000000 -3.130000
      vertex -0.330000 6.000000 -3.130000
    endloop
  endfacet
  facet normal 0.000000 0.000000 1.000000
    outer loop
      vertex 0.330000 6.000000 -3.790000
      vertex 0.330000 11.200000 -3.790000
      vertex -0.330000 11.200000 -3.790000
    endloop
  endfacet
  facet normal 0.000000 0.000000 1.000000
    outer loop
      vertex 0.330000 6.000000 -3.790000
      vertex -0.330000 11.200000 -3.790000
      vertex -0.330000 6.000000 -3.790000
    endloop
  endfacet
  facet normal -1.000000 0.000000 0.000000
    outer loop
      vertex 0.330000 6.000000 -3.130000
      vertex 0.330000 11.200000 -3.130000
      vertex 0.330000 11.200000 -3.790000
    endloop
  endfacet
  facet normal -1.000000 0.000000 0.000000
    outer loop
      vertex 0.330000 6.000000 -3.130000
      vertex 0.330000 11.200000 -3.790000
      vertex 0.330000 6.000000 -3.790000
    endloop
  endfacet
  facet normal 1.000000 0.000000 0.000000
    outer loop
      vertex -0.330000 6.000000 -3.790000
      vertex -0.330000 11.200000 -3.790000
      vertex -0.330000 11.200000 -3.130000
    endloop
  endfacet
  facet normal 1.000000 0.000000 0.000000
    outer loop
      vertex -0.330000 6.000000 -3.790000
      vertex -0.330000 11.200000 -3.130000
      vertex -0.330000 6.000000 -3.130000
    endloop
  endfacet
  facet normal 0.000000 -1.000000 0.000000
    outer loop
      vertex 1.440000 7.225000 -4.560000
      vertex 3.640000 7.225000 -4.560000
      vertex 3.640000 7.225000 -2.360000
    endloop
  endfacet
  facet normal 0.000000 -1.000000 0.000000
    outer loop
      vertex 1.440000 7.225000 -4.560000
      vertex 3.640000 7.225000 -2.360000
      vertex 1.440000 7.225000 -2.360000
    endloop
  endfacet
  facet normal 0.000000 1.000000 0.000000
    outer loop
      vertex 1.440000 5.675000 -2.360000
      vertex 3.640000 5.675000 -2.360000
      vertex 3.640000 5.675000 -4.560000
    endloop
  endfacet
  facet normal 0.000000 1.000000 0.000000
    outer loop
      vertex 1.440000 5.675000 -2.360000
      vertex 3.640000 5.675000 -4.560000
      vertex 1.440000 5.675000 -4.560000
    endloop
  endfacet
  facet normal 0.000000 0.000000 -1.000000
    outer loop
      vertex 1.440000 7.225000 -2.360000
      vertex 3.640000 7.225000 -2.360000
      vertex 3.640000 5.675000 -2.360000
    endloop
  endfacet
  facet normal 0.000000 0.000000 -1.000000
    outer loop
      vertex 1.440000 7.225000 -2.360000
      vertex 3.640000 5.675000 -2.360000
      vertex 1.440000 5.675000 -2.360000
    endloop
  endfacet
  facet normal 0.000000 0.000000 1.000000
    outer loop
      vertex 3.640000 5.675000 -4.560000
      vertex 3.640000 7.225000 -4.560000
      vertex 1.440000 7.225000 -4.560000
    endloop
  endfacet
  facet normal 0.000000 0.000000 1.000000
    outer loop
      vertex 3.640000 5.675000 -4.560000
      vertex 1.440000 7.225000 -4.560000
      vertex 1.440000 5.675000 -4.560000
    endloop
  endfacet
  facet normal -1.000000 0.000000 0.000000
    outer loop
      vertex 3.640000 5.675000 -2.360000
      vertex 3.640000 7.225000 -2.360000
      vertex 3.640000 7.225000 -4.560000
    endloop
  endfacet
  facet normal -1.000000 0.000000 0.000000
    outer loop
      vertex 3.640000 5.675000 -2.360000
      vertex 3.640000 7.225000 -4.560000
      vertex 3.640000 5.675000 -4.560000
    endloop
  endfacet
  facet normal 1.000000 0.000000 0.000000
    outer loop
      vertex 1.440000 5.675000 -4.560000
      vertex 1.440000 7.225000 -4.560000
      vertex 1.440000 7.225000 -2.360000
    endloop
  endfacet
  facet normal 1.000000 0.000000 0.000000
    outer loop
      vertex 1.440000 5.675000 -4.560000
      vertex 1.440000 7.225000 -2.360000
      vertex 1.440000 5.675000 -2.360000
    endloop
  endfacet
  facet normal 0.000000 -1.000000 0.000000
    outer loop
      vertex 2.210000 11.200000 -3.790000
      vertex 2.870000 11.200000 -3.790000
      vertex 2.870000 11.200000 -3.130000
    endloop
  endfacet
  facet normal 0.000000 -1.000000 0.000000
    outer loop
      vertex 2.210000 11.200000 -3.790000
      vertex 2.870000 11.200000 -3.130000
      vertex 2.210000 11.200000 -3.130000
    endloop
  endfacet
  facet normal 0.000000 1.000000 0.000000
    outer loop
      vertex 2.210000 6.000000 -3.130000
      vertex 2.870000 6.000000 -3.130000
      vertex 2.870000 6.000000 -3.790000
    endloop
  endfacet
  facet normal 0.000000 1.000000 0.000000
    outer loop
      vertex 2.210000 6.000000 -3.130000
      vertex 2.870000 6.000000 -3.790000
      vertex 2.210000 6.000000 -3.790000
    endloop
  endfacet
  facet normal 0.000000 0.000000 -1.000000
    outer loop
      vertex 2.210000 11.200000 -3.130000
      vertex 2.870000 11.200000 -3.130000
      vertex 2.870000 6.000000 -3.130000
    endloop
  endfacet
  facet normal 0.000000 0.000000 -1.000000
    outer loop
      vertex 2.210000 11.200000 -3.130000
      vertex 2.870000 6.000000 -3.130000
      vertex 2.210000 6.000000 -3.130000
    endloop
  endfacet
  facet normal 0.000000 0.000000 1.000000
    outer loop
      vertex 2.870000 6.000000 -3.790000
      vertex 2.870000 11.200000 -3.790000
      vertex 2.210000 11.200000 -3.790000
    endloop
  endfacet
  facet normal 0.000000 0.000000 1.000000
    outer loop
      vertex 2.870000 6.000000 -3.790000
      vertex 2.210000 11.200000 -3.790000
      vertex 2.210000 6.000000 -3.790000
    endloop
  endfacet
  facet normal -1.000000 0.000000 0.000000
    outer loop
      vertex 2.870000 6.000000 -3.130000
      vertex 2.870000 11.200000 -3.130000
      vertex 2.870000 11.200000 -3.790000
    endloop
  endfacet
  facet normal -1.000000 0.000000 0.000000
    outer loop
      vertex 2.870000 6.000000 -3.130000
      vertex 2.870000 11.200000 -3.790000
      vertex 2.870000 6.000000 -3.790000
    endloop
  endfacet
  facet normal 1.000000 0.000000 0.000000
    outer loop
      vertex 2.210000 6.000000 -3.790000
      vertex 2.210000 11.200000 -3.790000
      vertex 2.210000 11.200000 -3.130000
    endloop
  endfacet
  facet normal 1.000000 0.000000 0.000000
    outer loop
      vertex 2.210000 6.000000 -3.790000
      vertex 2.210000 11.200000 -3.130000
      vertex 2.210000 6.000000 -3.130000
    endloop
  endfacet
  facet normal 0.000000 -1.000000 0.000000
    outer loop
      vertex -1.600000 3.250000 -0.100000
      vertex 1.600000 3.250000 -0.100000
      vertex 1.600000 3.250000 3.100000
    endloop
  endfacet
  facet normal 0.000000 -1.000000 0.000000
    outer loop
      vertex -1.600000 3.250000 -0.100000
      vertex 1.600000 3.250000 3.100000
      vertex -1.600000 3.250000 3.100000
    endloop
  endfacet
  facet normal 0.000000 1.000000 0.000000
    outer loop
      vertex -1.600000 2.150000 3.100000
      vertex 1.600000 2.150000 3.100000
      vertex 1.600000 2.150000 -0.100000
    endloop
  endfacet
  facet normal 0.000000 1.000000 0.000000
    outer loop
      vertex -1.600000 2.150000 3.100000
      vertex 1.600000 2.150000 -0.100000
      vertex -1.600000 2.150000 -0.100000
    endloop
  endfacet
  facet normal 0.000000 0.000000 -1.000000
    outer loop
      vertex -1.600000 3.250000 3.100000
      vertex 1.600000 3.250000 3.100000
      vertex 1.600000 2.150000 3.100000
    endloop
  endfacet
  facet normal 0.000000 0.000000 -1.000000
    outer loop
      vertex -1.600000 3.250000 3.100000
      vertex 1.600000 2.150000 3.100000
      vertex -1.600000 2.150000 3.100000
    endloop
  endfacet
  facet normal 0.000000 0.000000 1.000000
    outer loop
      vertex 1.600000 2.150000 -0.100000
      vertex 1.600000 3.250000 -0.100000
      vertex -1.600000 3.250000 -0.100000
    endloop
  endfacet
  facet normal 0.000000 0.000000 1.000000
    outer loop
      vertex 1.600000 2.150000 -0.100000
      vertex -1.600000 3.250000 -0.100000
      vertex -1.600000 2.150000 -0.100000
    endloop
  endfacet
  facet normal -1.000000 0.000000 0.000000
    outer loop
      vertex 1.600000 2.150000 3.100000
      vertex 1.600000 3.250000 3.100000
      vertex 1.600000 3.250000 -0.100000
    endloop
  endfacet
  facet normal -1.000000 0.000000 0.000000
    outer loop
      vertex 1.600000 2.150000 3.100000
      vertex 1.600000 3.250000 -0.100000
      vertex 1.600000 2.150000 -0.100000
    endloop
  endfacet
  facet normal 1.000000 0.000000 0.000000
    outer loop
      vertex -1.600000 2.150000 -0.100000
      vertex -1.600000 3.250000 -0.100000
      vertex -1.600000 3.250000 3.100000
    endloop
  endfacet
  facet normal 1.000000 0.000000 0.000000
    outer loop
      vertex -1.600000 2.150000 -0.100000
      vertex -1.600000 3.250000 3.100000
      vertex -1.600000 2.150000 3.100000
    endloop
  endfacet
  facet normal 0.000000 -1.000000 0.000000
    outer loop
      vertex -3.810000 4.050000 -4.710000
      vertex 3.810000 4.050000 -4.710000
      vertex 3.810000 4.050000 -2.210000
    endloop
  endfacet
  facet normal 0.000000 -1.000000 0.000000
    outer loop
      vertex -3.810000 4.050000 -4.710000
      vertex 3.810000 4.050000 -2.210000
      vertex -3.810000 4.050000 -2.210000
    endloop
  endfacet
  facet normal 0.000000 1.000000 0.000000
    outer loop
      vertex -3.810000 1.550000 -2.210000
      vertex 3.810000 1.550000 -2.210000
      vertex 3.810000 1.550000 -4.710000
    endloop
  endfacet
  facet normal 0.000000 1.000000 0.000000
    outer loop
      vertex -3.810000 1.550000 -2.210000
      vertex 3.810000 1.550000 -4.710000
      vertex -3.810000 1.550000 -4.710000
    endloop
  endfacet
  facet normal 0.000000 0.000000 -1.000000
    outer loop
      vertex -3.810000 4.050000 -2.210000
      vertex 3.810000 4.050000 -2.210000
      vertex 3.810000 1.550000 -2.210000
    endloop
  endfacet
  facet normal 0.000000 0.000000 -1.000000
    outer loop
      vertex -3.810000 4.050000 -2.210000
      vertex 3.810000 1.550000 -2.210000
      vertex -3.810000 1.550000 -2.210000
    endloop
  endfacet
  facet normal 0.000000 0.000000 1.000000
    outer loop
      vertex 3.810000 1.550000 -4.710000
      vertex 3.810000 4.050000 -4.710000
      vertex -3.810000 4.050000 -4.710000
    endloop
  endfacet
  facet normal 0.000000 0.000000 1.000000
    outer loop
      vertex 3.810000 1.550000 -4.710000
      vertex -3.810000 4.050000 -4.710000
      vertex -3.810000 1.550000 -4.710000
    endloop
  endfacet
  facet normal -1.000000 0.000000 0.000000
    outer loop
      vertex 3.810000 1.550000 -2.210000
      vertex 3.810000 4.050000 -2.210000
      vertex 3.810000 4.050000 -4.710000
    endloop
  endfacet
  facet normal -1.000000 0.000000 0.000000
    outer loop
      vertex 3.810000 1.550000 -2.210000
      vertex 3.810000 4.050000 -4.710000
      vertex 3.810000 1.550000 -4.710000
    endloop
  endfacet
  facet normal 1.000000 0.000000 0.000000
    outer loop
      vertex -3.810000 1.550000 -4.710000
      vertex -3.810000 4.050000 -4.710000
      vertex -3.810000 4.050000 -2.210000
    endloop
  endfacet
  facet normal 1.000000 0.000000 0.000000
    outer loop
      vertex -3.810000 1.550000 -4.710000
      vertex -3.810000 4.050000 -2.210000
      vertex -3.810000 1.550000 -2.210000
    endloop
  endfacet
endsolid regulator_ams1117_3v3