solid joystick_module_2axis
  facet normal 0.000000 -1.000000 0.000000
    outer loop
      vertex -13.000000 1.600000 -17.000000
      vertex 13.000000 1.600000 -17.000000
      vertex 13.000000 1.600000 17.000000
    endloop
  endfacet
  facet normal 0.000000 -1.000000 0.000000
    outer loop
      vertex -13.000000 1.600000 -17.000000
      vertex 13.000000 1.600000 17.000000
      vertex -13.000000 1.600000 17.000000
    endloop
  endfacet
  facet normal 0.000000 1.000000 0.000000
    outer loop
      vertex -13.000000 0.000000 17.000000
      vertex 13.000000 0.000000 17.000000
      vertex 13.000000 0.000000 -17.000000
    endloop
  endfacet
  facet normal 0.000000 1.000000 0.000000
    outer loop
      vertex -13.000000 0.000000 17.000000
      vertex 13.000000 0.000000 -17.000000
      vertex -13.000000 0.000000 -17.000000
    endloop
  endfacet
  facet normal 0.000000 0.000000 -1.000000
    outer loop
      vertex -13.000000 1.600000 17.000000
      vertex 13.000000 1.600000 17.000000
      vertex 13.000000 0.000000 17.000000
    endloop
  endfacet
  facet normal 0.000000 0.000000 -1.000000
    outer loop
      vertex -13.000000 1.600000 17.000000
      vertex 13.000000 0.000000 17.000000
      vertex -13.000000 0.000000 17.000000
    endloop
  endfacet
  facet normal 0.000000 0.000000 1.000000
    outer loop
      vertex 13.000000 0.000000 -17.000000
      vertex 13.000000 1.600000 -17.000000
      vertex -13.000000 1.600000 -17.000000
    endloop
  endfacet
  facet normal 0.000000 0.000000 1.000000
    outer loop
      vertex 13.000000 0.000000 -17.000000
      vertex -13.000000 1.600000 -17.000000
      vertex -13.000000 0.000000 -17.000000
    endloop
  endfacet
  facet normal -1.000000 0.000000 0.000000
    outer loop
      vertex 13.000000 0.000000 17.000000
      vertex 13.000000 1.600000 17.000000
      vertex 13.000000 1.600000 -17.000000
    endloop
  endfacet
  facet normal -1.000000 0.000000 0.000000
    outer loop
      vertex 13.000000 0.000000 17.000000
      vertex 13.000000 1.600000 -17.000000
      vertex 13.000000 0.000000 -17.000000
    endloop
  endfacet
  facet normal 1.000000 0.000000 0.000000
    outer loop
      vertex -13.000000 0.000000 -17.000000
      vertex -13.000000 1.600000 -17.000000
      vertex -13.000000 1.600000 17.000000
    endloop
  endfacet
  facet normal 1.000000 0.000000 0.000000
    outer loop
      vertex -13.000000 0.000000 -17.000000
      vertex -13.000000 1.600000 17.000000
      vertex -13.000000 0.000000 17.000000
    endloop
  endfacet
  facet normal 0.000000 -1.000000 0.000000
    outer loop
      vertex -6.180000 7.225000 -15.560000
      vertex -3.980000 7.225000 -15.560000
      vertex -3.980000 7.225000 -13.360000
    endloop
  endfacet
  facet normal 0.000000 -1.000000 0.000000
    outer loop
      vertex -6.180000 7.225000 -15.560000
      vertex -3.980000 7.225000 -13.360000
      vertex -6.180000 7.225000 -13.360000
    endloop
  endfacet
  facet normal 0.000000 1.000000 0.000000
    outer loop
      vertex -6.180000 5.675000 -13.360000
      vertex -3.980000 5.675000 -13.360000
      vertex -3.980000 5.675000 -15.560000
    endloop
  endfacet
  facet normal 0.000000 1.000000 0.000000
    outer loop
      vertex -6.180000 5.675000 -13.360000
      vertex -3.980000 5.675000 -15.560000
      vertex -6.180000 5.675000 -15.560000
    endloop
  endfacet
  facet normal 0.000000 0.000000 -1.000000
    outer loop
      vertex -6.180000 7.225000 -13.360000
      vertex -3.980000 7.225000 -13.360000
      vertex -3.980000 5.675000 -13.360000
    endloop
  endfacet
  facet normal 0.000000 0.000000 -1.000000
    outer loop
      vertex -6.180000 7.225000 -13.360000
      vertex -3.980000 5.675000 -13.360000
      vertex -6.180000 5.675000 -13.360000
    endloop
  endfacet
  facet normal 0.000000 0.000000 1.000000
    outer loop
      vertex -3.980000 5.675000 -15.560000
      vertex -3.980000 7.225000 -15.560000
      vertex -6.180000 7.225000 -15.560000
    endloop
  endfacet
  facet normal 0.000000 0.000000 1.000000
    outer loop
      vertex -3.980000 5.675000 -15.560000
      vertex -6.180000 7.225000 -15.560000
      vertex -6.180000 5.675000 -15.560000
    endloop
  endfacet
  facet normal -1.000000 0.000000 0.000000
    outer loop
      vertex -3.980000 5.675000 -13.360000
      vertex -3.980000 7.225000 -13.360000
      vertex -3.980000 7.225000 -15.560000
    endloop
  endfacet
  facet normal -1.000000 0.000000 0.000000
    outer loop
      vertex -3.980000 5.675000 -13.360000
      vertex -3.980000 7.225000 -15.560000
      vertex -3.980000 5.675000 -15.560000
    endloop
  endfacet
  facet normal 1.000000 0.000000 0.000000
    outer loop
      vertex -6.180000 5.675000 -15.560000
      vertex -6.180000 7.225000 -15.560000
      vertex -6.180000 7.225000 -13.360000
    endloop
  endfacet
  facet normal 1.000000 0.000000 0.000000
    outer loop
      vertex -6.180000 5.675000 -15.560000
      vertex -6.180000 7.225000 -13.360000
      vertex -6.180000 5.675000 -13.360000
    endloop
  endfacet
  facet normal 0.000000 -1.000000 0.000000
    outer loop
      vertex -5.410000 11.200000 -14.790000
      vertex -4.750000 11.200000 -14.790000
      vertex -4.750000 11.200000 -14.130000
    endloop
  endfacet
  facet normal 0.000000 -1.000000 0.000000
    outer loop
      vertex -5.410000 11.200000 -14.790000
      vertex -4.750000 11.200000 -14.130000
      vertex -5.410000 11.200000 -14.130000
    endloop
  endfacet
  facet normal 0.000000 1.000000 0.000000
    outer loop
      vertex -5.410000 6.000000 -14.130000
      vertex -4.750000 6.000000 -14.130000
      vertex -4.750000 6.000000 -14.790000
    endloop
  endfacet
  facet normal 0.000000 1.000000 0.000000
    outer loop
      vertex -5.410000 6.000000 -14.130000
      vertex -4.750000 6.000000 -14.790000
      vertex -5.410000 6.000000 -14.790000
    endloop
  endfacet
  facet normal 0.000000 0.000000 -1.000000
    outer loop
      vertex -5.410000 11.200000 -14.130000
      vertex -4.750000 11.200000 -14.130000
      vertex -4.750000 6.000000 -14.130000
    endloop
  endfacet
  facet normal 0.000000 0.000000 -1.000000
    outer loop
      vertex -5.410000 11.200000 -14.130000
      vertex -4.750000 6.000000 -14.130000
      vertex -5.410000 6.000000 -14.130000
    endloop
  endfacet
  facet normal 0.000000 0.000000 1.000000
    outer loop
      vertex -4.750000 6.000000 -14.790000
      vertex -4.750000 11.200000 -14.790000
      vertex -5.410000 11.200000 -14.790000
    endloop
  endfacet
  facet normal 0.000000 0.000000 1.000000
    outer loop
      vertex -4.750000 6.000000 -14.790000
      vertex -5.410000 11.200000 -14.790000
      vertex -5.410000 6.000000 -14.790000
    endloop
  endfacet
  facet normal -1.000000 0.000000 0.000000
    outer loop
      vertex -4.750000 6.000000 -14.130000
      vertex -4.750000 11.200000 -14.130000
      vertex -4.750000 11.200000 -14.790000
    endloop
  endfacet
  facet normal -1.000000 0.000000 0.000000
    outer loop
      vertex -4.750000 6.000000 -14.130000
      vertex -4.750000 11.200000 -14.790000
      vertex -4.750000 6.000000 -14.790000
    endloop
  endfacet
  facet normal 1.000000 0.000000 0.000000
    outer loop
      vertex -5.410000 6.000000 -14.790000
      vertex -5.410000 11.200000 -14.790000
      vertex -5.410000 11.200000 -14.130000
    endloop
  endfacet
  facet normal 1.000000 0.000000 0.000000
    outer loop
      vertex -5.410000 6.000000 -14.790000
      vertex -5.410000 11.200000 -14.130000
      vertex -5.410000 6.000000 -14.130000
    endloop
  endfacet
  facet normal 0.000000 -1.000000 0.000000
    outer loop
      vertex -3.640000 7.225000 -15.560000
      vertex -1.440000 7.225000 -15.560000
      vertex -1.440000 7.225000 -13.360000
    endloop
  endfacet
  facet normal 0.000000 -1.000000 0.000000
    outer loop
      vertex -3.640000 7.225000 -15.560000
      vertex -1.440000 7.225000 -13.360000
      vertex -3.640000 7.225000 -13.360000
    endloop
  endfacet
  facet normal 0.000000 1.000000 0.000000
    outer loop
      vertex -3.640000 5.675000 -13.360000
      vertex -1.440000 5.675000 -13.360000
      vertex -1.440000 5.675000 -15.560000
    endloop
  endfacet
  facet normal 0.000000 1.000000 0.000000
    outer loop
      vertex -3.640000 5.675000 -13.360000
      vertex -1.440000 5.675000 -15.560000
      vertex -3.640000 5.675000 -15.560000
    endloop
  endfacet
  facet normal 0.000000 0.000000 -1.000000
    outer loop
      vertex -3.640000 7.225000 -13.360000
      vertex -1.440000 7.225000 -13.360000
      vertex -1.440000 5.675000 -13.360000
    endloop
  endfacet
  facet normal 0.000000 0.000000 -1.000000
    outer loop
      vertex -3.640000 7.225000 -13.360000
      vertex -1.440000 5.675000 -13.360000
      vertex -3.640000 5.675000 -13.360000
    endloop
  endfacet
  facet normal 0.000000 0.000000 1.000000
    outer loop
      vertex -1.440000 5.675000 -15.560000
      vertex -1.440000 7.225000 -15.560000
      vertex -3.640000 7.225000 -15.560000
    endloop
  endfacet
  facet normal 0.000000 0.000000 1.000000
    outer loop
      vertex -1.440000 5.675000 -15.560000
      vertex -3.640000 7.225000 -15.560000
      vertex -3.640000 5.675000 -15.560000
    endloop
  endfacet
  facet normal -1.000000 0.000000 0.000000
    outer loop
      vertex -1.440000 5.675000 -13.360000
      vertex -1.440000 7.225000 -13.360000
      vertex -1.440000 7.225000 -15.560000
    endloop
  endfacet
  facet normal -1.000000 0.000000 0.000000
    outer loop
      vertex -1.440000 5.675000 -13.360000
      vertex -1.440000 7.225000 -15.560000
      vertex -1.440000 5.675000 -15.560000
    endloop
  endfacet
  facet normal 1.000000 0.000000 0.000000
    outer loop
      vertex -3.640000 5.675000 -15.560000
      vertex -3.640000 7.225000 -15.560000
      vertex -3.640000 7.225000 -13.360000
    endloop
  endfacet
  facet normal 1.000000 0.000000 0.000000
    outer loop
      vertex -3.640000 5.675000 -15.560000
      vertex -3.640000 7.225000 -13.360000
      vertex -3.640000 5.675000 -13.360000
    endloop
  endfacet
  facet normal 0.000000 -1.000000 0.000000
    outer loop
      vertex -2.870000 11.200000 -14.790000
      vertex -2.210000 11.200000 -14.790000
      vertex -2.210000 11.200000 -14.130000
    endloop
  endfacet
  facet normal 0.000000 -1.000000 0.000000
    outer loop
      vertex -2.870000 11.200000 -14.790000
      vertex -2.210000 11.200000 -14.130000
      vertex -2.870000 11.200000 -14.130000
    endloop
  endfacet
  facet normal 0.000000 1.000000 0.000000
    outer loop
      vertex -2.870000 6.000000 -14.130000
      vertex -2.210000 6.000000 -14.130000
      vertex -2.210000 6.000000 -14.790000
    endloop
  endfacet
  facet normal 0.000000 1.000000 0.000000
    outer loop
      vertex -2.870000 6.000000 -14.130000
      vertex -2.210000 6.000000 -14.790000
      vertex -2.870000 6.000000 -14.790000
    endloop
  endfacet
  facet normal 0.000000 0.000000 -1.000000
    outer loop
      vertex -2.870000 11.200000 -14.130000
      vertex -2.210000 11.200000 -14.130000
      vertex -2.210000 6.000000 -14.130000
    endloop
  endfacet
  facet normal 0.000000 0.000000 -1.000000
    outer loop
      vertex -2.870000 11.200000 -14.130000
      vertex -2.210000 6.000000 -14.130000
      vertex -2.870000 6.000000 -14.130000
    endloop
  endfacet
  facet normal 0.000000 0.000000 1.000000
    outer loop
      vertex -2.210000 6.000000 -14.790000
      vertex -2.210000 11.200000 -14.790000
      vertex -2.870000 11.200000 -14.790000
    endloop
  endfacet
  facet normal 0.000000 0.000000 1.000000
    outer loop
      vertex -2.210000 6.000000 -14.790000
      vertex -2.870000 11.200000 -14.790000
      vertex -2.870000 6.000000 -14.790000
    endloop
  endfacet
  facet normal -1.000000 0.000000 0.000000
    outer loop
      vertex -2.210000 6.000000 -14.130000
      vertex -2.210000 11.200000 -14.130000
      vertex -2.210000 11.200000 -14.790000
    endloop
  endfacet
  facet normal -1.000000 0.000000 0.000000
    outer loop
      vertex -2.210000 6.000000 -14.130000
      vertex -2.210000 11.200000 -14.790000
      vertex -2.210000 6.000000 -14.790000
    endloop
  endfacet
  facet normal 1.000000 0.000000 0.000000
    outer loop
      vertex -2.870000 6.000000 -14.790000
      vertex -2.870000 11.200000 -14.790000
      vertex -2.870000 11.200000 -14.130000
    endloop
  endfacet
  facet normal 1.000000 0.000000 0.000000
    outer loop
      vertex -2.870000 6.000000 -14.790000
      vertex -2.870000 11.200000 -14.130000
      vertex -2.870000 6.000000 -14.130000
    endloop
  endfacet
  facet normal 0.000000 -1.000000 0.000000
    outer loop
      vertex -1.100000 7.225000 -15.560000
      vertex 1.100000 7.225000 -15.560000
      vertex 1.100000 7.225000 -13.360000
    endloop
  endfacet
  facet normal 0.000000 -1.000000 0.000000
    outer loop
      vertex -1.100000 7.225000 -15.560000
      vertex 1.100000 7.225000 -13.360000
      vertex -1.100000 7.225000 -13.360000
    endloop
  endfacet
  facet normal 0.000000 1.000000 0.000000
    outer loop
      vertex -1.100000 5.675000 -13.360000
      vertex 1.100000 5.675000 -13.360000
      vertex 1.100000 5.675000 -15.560000
    endloop
  endfacet
  facet normal 0.000000 1.000000 0.000000
    outer loop
      vertex -1.100000 5.675000 -13.360000
      vertex 1.100000 5.675000 -15.560000
      vertex -1.100000 5.675000 -15.560000
    endloop
  endfacet
  facet normal 0.000000 0.000000 -1.000000
    outer loop
      vertex -1.100000 7.225000 -13.360000
      vertex 1.100000 7.225000 -13.360000
      vertex 1.100000 5.675000 -13.360000
    endloop
  endfacet
  facet normal 0.000000 0.000000 -1.000000
    outer loop
      vertex -1.100000 7.225000 -13.360000
      vertex 1.100000 5.675000 -13.360000
      vertex -1.100000 5.675000 -13.360000
    endloop
  endfacet
  facet normal 0.000000 0.000000 1.000000
    outer loop
      vertex 1.100000 5.675000 -15.560000
      vertex 1.100000 7.225000 -15.560000
      vertex -1.100000 7.225000 -15.560000
    endloop
  endfacet
  facet normal 0.000000 0.000000 1.000000
    outer loop
      vertex 1.100000 5.675000 -15.560000
      vertex -1.100000 7.225000 -15.560000
      vertex -1.100000 5.675000 -15.560000
    endloop
  endfacet
  facet normal -1.000000 0.000000 0.000000
    outer loop
      vertex 1.100000 5.675000 -13.360000
      vertex 1.100000 7.225000 -13.360000
      vertex 1.100000 7.225000 -15.560000
    endloop
  endfacet
  facet normal -1.000000 0.000000 0.000000
    outer loop
      vertex 1.100000 5.675000 -13.360000
      vertex 1.100000 7.225000 -15.560000
      vertex 1.100000 5.675000 -15.560000
    endloop
  endfacet
  facet normal 1.000000 0.000000 0.000000
    outer loop
      vertex -1.100000 5.675000 -15.560000
      vertex -1.100000 7.225000 -15.560000
      vertex -1.100000 7.225000 -13.360000
    endloop
  endfacet
  facet normal 1.000000 0.000000 0.000000
    outer loop
      vertex -1.100000 5.675000 -15.560000
      vertex -1.100000 7.225000 -13.360000
      vertex -1.100000 5.675000 -13.360000
    endloop
  endfacet
  facet normal 0.000000 -1.000000 0.000000
    outer loop
      vertex -0.330000 11.200000 -14.790000
      vertex 0.330000 11.200000 -14.790000
      vertex 0.330000 11.200000 -14.130000
    endloop
  endfacet
  facet normal 0.000000 -1.000000 0.000000
    outer loop
      vertex -0.330000 11.200000 -14.790000
      vertex 0.330000 11.200000 -14.130000
      vertex -0.330000 11.200000 -14.130000
    endloop
  endfacet
  facet normal 0.000000 1.000000 0.000000
    outer loop
      vertex -0.330000 6.000000 -14.130000
      vertex 0.330000 6.000000 -14.130000
      vertex 0.330000 6.000000 -14.790000
    endloop
  endfacet
  facet normal 0.000000 1.000000 0.000000
    outer loop
      vertex -0.330000 6.000000 -14.130000
      vertex 0.330000 6.000000 -14.790000
      vertex -0.330000 6.000000 -14.790000
    endloop
  endfacet
  facet normal 0.000000 0.000000 -1.000000
    outer loop
      vertex -0.330000 11.200000 -14.130000
      vertex 0.330000 11.200000 -14.130000
      vertex 0.330000 6.000000 -14.130000
    endloop
  endfacet
  facet normal 0.000000 0.000000 -1.000000
    outer loop
      vertex -0.330000 11.200000 -14.130000
      vertex 0.330000 6.000000 -14.130000
      vertex -0.330000 6.000000 -14.130000
    endloop
  endfacet
  facet normal 0.000000 0.000000 1.000000
    outer loop
      vertex 0.330000 6.000000 -14.790000
      vertex 0.330000 11.200000 -14.790000
      vertex -0.330000 11.200000 -14.790000
    endloop
  endfacet
  facet normal 0.000000 0.000000 1.000000
    outer loop
      vertex 0.330000 6.000000 -14.790000
      vertex -0.330000 11.200000 -14.790000
      vertex -0.330000 6.000000 -14.790000
    endloop
  endfacet
  facet normal -1.000000 0.000000 0.000000
    outer loop
      vertex 0.330000 6.000000 -14.130000
      vertex 0.330000 11.200000 -14.130000
      vertex 0.330000 11.200000 -14.790000
    endloop
  endfacet
  facet normal -1.000000 0.000000 0.000000
    outer loop
      vertex 0.330000 6.000000 -14.130000
      vertex 0.330000 11.200000 -14.790000
      vertex 0.330000 6.000000 -14.790000
    endloop
  endfacet
  facet normal 1.000000 0.000000 0.000000
    outer loop
      vertex -0.330000 6.000000 -14.790000
      vertex -0.330000 11.200000 -14.790000
      vertex -0.330000 11.200000 -14.130000
    endloop
  endfacet
  facet normal 1.000000 0.000000 0.000000
    outer loop
      vertex -0.330000 6.000000 -14.790000
      vertex -0.330000 11.200000 -14.130000
      vertex -0.330000 6.000000 -14.130000
    endloop
  endfacet
  facet normal 0.000000 -1.000000 0.000000
    outer loop
      vertex 1.440000 7.225000 -15.560000
      vertex 3.640000 7.225000 -15.560000
      vertex 3.640000 7.225000 -13.360000
    endloop
  endfacet
  facet normal 0.000000 -1.000000 0.000000
    outer loop
      vertex 1.440000 7.225000 -15.560000
      vertex 3.640000 7.225000 -13.360000
      vertex 1.440000 7.225000 -13.360000
    endloop
  endfacet
  facet normal 0.000000 1.000000 0.000000
    outer loop
      vertex 1.440000 5.675000 -13.360000
      vertex 3.640000 5.675000 -13.360000
      vertex 3.640000 5.675000 -15.560000
    endloop
  endfacet
  facet normal 0.000000 1.000000 0.000000
    outer loop
      vertex 1.440000 5.675000 -13.360000
      vertex 3.640000 5.675000 -15.560000
      vertex 1.440000 5.675000 -15.560000
    endloop
  endfacet
  facet normal 0.000000 0.000000 -1.000000
    outer loop
      vertex 1.440000 7.225000 -13.360000
      vertex 3.640000 7.225000 -13.360000
      vertex 3.640000 5.675000 -13.360000
    endloop
  endfacet
  facet normal 0.000000 0.000000 -1.000000
    outer loop
      vertex 1.440000 7.225000 -13.360000
      vertex 3.640000 5.675000 -13.360000
      vertex 1.440000 5.675000 -13.360000
    endloop
  endfacet
  facet normal 0.000000 0.000000 1.000000
    outer loop
      vertex 3.640000 5.675000 -15.560000
      vertex 3.640000 7.225000 -15.560000
      vertex 1.440000 7.225000 -15.560000
    endloop
  endfacet
  facet normal 0.000000 0.000000 1.000000
    outer loop
      vertex 3.640000 5.675000 -15.560000
      vertex 1.440000 7.225000 -15.560000
      vertex 1.440000 5.675000 -15.560000
    endloop
  endfacet
  facet normal -1.000000 0.000000 0.000000
    outer loop
      vertex 3.640000 5.675000 -13.360000
      vertex 3.640000 7.225000 -13.360000
      vertex 3.640000 7.225000 -15.560000
    endloop
  endfacet
  facet normal -1.000000 0.000000 0.000000
    outer loop
      vertex 3.640000 5.675000 -13.360000
      vertex 3.640000 7.225000 -15.560000
      vertex 3.640000 5.675000 -15.560000
    endloop
  endfacet
  facet normal 1.000000 0.000000 0.000000
    outer loop
      vertex 1.440000 5.675000 -15.560000
      vertex 1.440000 7.225000 -15.560000
      vertex 1.440000 7.225000 -13.360000
    endloop
  endfacet
  facet normal 1.000000 0.000000 0.000000
    outer loop
      vertex 1.440000 5.675000 -15.560000
      vertex 1.440000 7.225000 -13.360000
      vertex 1.440000 5.675000 -13.360000
    endloop
  endfacet
  facet normal 0.000000 -1.000000 0.000000
    outer loop
      vertex 2.210000 11.200000 -14.790000
      vertex 2.870000 11.200000 -14.790000
      vertex 2.870000 11.200000 -14.130000
    endloop
  endfacet
  facet normal 0.000000 -1.000000 0.000000
    outer loop
      vertex 2.210000 11.200000 -14.790000
      vertex 2.870000 11.200000 -14.130000
      vertex 2.210000 11.200000 -14.130000
    endloop
  endfacet
  facet normal 0.000000 1.000000 0.000000
    outer loop
      vertex 2.210000 6.000000 -14.130000
      vertex 2.870000 6.000000 -14.130000
      vertex 2.870000 6.000000 -14.790000
    endloop
  endfacet
  facet normal 0.000000 1.000000 0.000000
    outer loop
      vertex 2.210000 6.000000 -14.130000
      vertex 2.870000 6.000000 -14.790000
      vertex 2.210000 6.000000 -14.790000
    endloop
  endfacet
  facet normal 0.000000 0.000000 -1.000000
    outer loop
      vertex 2.210000 11.200000 -14.130000
      vertex 2.870000 11.200000 -14.130000
      vertex 2.870000 6.000000 -14.130000
    endloop
  endfacet
  facet normal 0.000000 0.000000 -1.000000
    outer loop
      vertex 2.210000 11.200000 -14.130000
      vertex 2.870000 6.000000 -14.130000
      vertex 2.210000 6.000000 -14.130000
    endloop
  endfacet
  facet normal 0.000000 0.000000 1.000000
    outer loop
      vertex 2.870000 6.000000 -14.790000
      vertex 2.870000 11.200000 -14.790000
      vertex 2.210000 11.200000 -14.790000
    endloop
  endfacet
  facet normal 0.000000 0.000000 1.000000
    outer loop
      vertex 2.870000 6.000000 -14.790000
      vertex 2.210000 11.200000 -14.790000
      vertex 2.210000 6.000000 -14.790000
    endloop
  endfacet
  facet normal -1.000000 0.000000 0.000000
    outer loop
      vertex 2.870000 6.000000 -14.130000
      vertex 2.870000 11.200000 -14.130000
      vertex 2.870000 11.200000 -14.790000
    endloop
  endfacet
  facet normal -1.000000 0.000000 0.000000
    outer loop
      vertex 2.870000 6.000000 -14.130000
      vertex 2.870000 11.200000 -14.790000
      vertex 2.870000 6.000000 -14.790000
    endloop
  endfacet
  facet normal 1.000000 0.000000 0.000000
    outer loop
      vertex 2.210000 6.000000 -14.790000
      vertex 2.210000 11.200000 -14.790000
      vertex 2.210000 11.200000 -14.130000
    endloop
  endfacet
  facet normal 1.000000 0.000000 0.000000
    outer loop
      vertex 2.210000 6.000000 -14.790000
      vertex 2.210000 11.200000 -14.130000
      vertex 2.210000 6.000000 -14.130000
    endloop
  endfacet
  facet normal 0.000000 -1.000000 0.000000
    outer loop
      vertex 3.980000 7.225000 -15.560000
      vertex 6.180000 7.225000 -15.560000
      vertex 6.180000 7.225000 -13.360000
    endloop
  endfacet
  facet normal 0.000000 -1.000000 0.000000
    outer loop
      vertex 3.980000 7.225000 -15.560000
      vertex 6.180000 7.225000 -13.360000
      vertex 3.980000 7.225000 -13.360000
    endloop
  endfacet
  facet normal 0.000000 1.000000 0.000000
    outer loop
      vertex 3.980000 5.675000 -13.360000
      vertex 6.180000 5.675000 -13.360000
      vertex 6.180000 5.675000 -15.560000
    endloop
  endfacet
  facet normal 0.000000 1.000000 0.000000
    outer loop
      vertex 3.980000 5.675000 -13.360000
      vertex 6.180000 5.675000 -15.560000
      vertex 3.980000 5.675000 -15.560000
    endloop
  endfacet
  facet normal 0.000000 0.000000 -1.000000
    outer loop
      vertex 3.980000 7.225000 -13.360000
      vertex 6.180000 7.225000 -13.360000
      vertex 6.180000 5.675000 -13.360000
    endloop
  endfacet
  facet normal 0.000000 0.000000 -1.000000
    outer loop
      vertex 3.980000 7.225000 -13.360000
      vertex 6.180000 5.675000 -13.360000
      vertex 3.980000 5.675000 -13.360000
    endloop
  endfacet
  facet normal 0.000000 0.000000 1.000000
    outer loop
      vertex 6.180000 5.675000 -15.560000
      vertex 6.180000 7.225000 -15.560000
      vertex 3.980000 7.225000 -15.560000
    endloop
  endfacet
  facet normal 0.000000 0.000000 1.000000
    outer loop
      vertex 6.180000 5.675000 -15.560000
      vertex 3.980000 7.225000 -15.560000
      vertex 3.980000 5.675000 -15.560000
    endloop
  endfacet
  facet normal -1.000000 0.000000 0.000000
    outer loop
      vertex 6.180000 5.675000 -13.360000
      vertex 6.180000 7.225000 -13.360000
      vertex 6.180000 7.225000 -15.560000
    endloop
  endfacet
  facet normal -1.000000 0.000000 0.000000
    outer loop
      vertex 6.180000 5.675000 -13.360000
      vertex 6.180000 7.225000 -15.560000
      vertex 6.180000 5.675000 -15.560000
    endloop
  endfacet
  facet normal 1.000000 0.000000 0.000000
    outer loop
      vertex 3.980000 5.675000 -15.560000
      vertex 3.980000 7.225000 -15.560000
      vertex 3.980000 7.225000 -13.360000
    endloop
  endfacet
  facet normal 1.000000 0.000000 0.000000
    outer loop
      vertex 3.980000 5.675000 -15.560000
      vertex 3.980000 7.225000 -13.360000
      vertex 3.980000 5.675000 -13.360000
    endloop
  endfacet
  facet normal 0.000000 -1.000000 0.000000
    outer loop
      vertex 4.750000 11.200000 -14.790000
      vertex 5.410000 11.200000 -14.790000
      vertex 5.410000 11.200000 -14.130000
    endloop
  endfacet
  facet normal 0.000000 -1.000000 0.000000
    outer loop
      vertex 4.750000 11.200000 -14.790000
      vertex 5.410000 11.200000 -14.130000
      vertex 4.750000 11.200000 -14.130000
    endloop
  endfacet
  facet normal 0.000000 1.000000 0.000000
    outer loop
      vertex 4.750000 6.000000 -14.130000
      vertex 5.410000 6.000000 -14.130000
      vertex 5.410000 6.000000 -14.790000
    endloop
  endfacet
  facet normal 0.000000 1.000000 0.000000
    outer loop
      vertex 4.750000 6.000000 -14.130000
      vertex 5.410000 6.000000 -14.790000
      vertex 4.750000 6.000000 -14.790000
    endloop
  endfacet
  facet normal 0.000000 0.000000 -1.000000
    outer loop
      vertex 4.750000 11.200000 -14.130000
      vertex 5.410000 11.200000 -14.130000
      vertex 5.410000 6.000000 -14.130000
    endloop
  endfacet
  facet normal 0.000000 0.000000 -1.000000
    outer loop
      vertex 4.750000 11.200000 -14.130000
      vertex 5.410000 6.000000 -14.130000
      vertex 4.750000 6.000000 -14.130000
    endloop
  endfacet
  facet normal 0.000000 0.000000 1.000000
    outer loop
      vertex 5.410000 6.000000 -14.790000
      vertex 5.410000 11.200000 -14.790000
      vertex 4.750000 11.200000 -14.790000
    endloop
  endfacet
  facet normal 0.000000 0.000000 1.000000
    outer loop
      vertex 5.410000 6.000000 -14.790000
      vertex 4.750000 11.200000 -14.790000
      vertex 4.750000 6.000000 -14.790000
    endloop
  endfacet
  facet normal -1.000000 0.000000 0.000000
    outer loop
      vertex 5.410000 6.000000 -14.130000
      vertex 5.410000 11.200000 -14.130000
      vertex 5.410000 11.200000 -14.790000
    endloop
  endfacet
  facet normal -1.000000 0.000000 0.000000
    outer loop
      vertex 5.410000 6.000000 -14.130000
      vertex 5.410000 11.200000 -14.790000
      vertex 5.410000 6.000000 -14.790000
    endloop
  endfacet
  facet normal 1.000000 0.000000 0.000000
    outer loop
      vertex 4.750000 6.000000 -14.790000
      vertex 4.750000 11.200000 -14.790000
      vertex 4.750000 11.200000 -14.130000
    endloop
  endfacet
  facet normal 1.000000 0.000000 0.000000
    outer loop
      vertex 4.750000 6.000000 -14.790000
      vertex 4.750000 11.200000 -14.130000
      vertex 4.750000 6.000000 -14.130000
    endloop
  endfacet
  facet normal 0.000000 -1.000000 0.000000
    outer loop
      vertex -8.500000 11.600000 -4.500000
      vertex 8.500000 11.600000 -4.500000
      vertex 8.500000 11.600000 12.500000
    endloop
  endfacet
  facet normal 0.000000 -1.000000 0.000000
    outer loop
      vertex -8.500000 11.600000 -4.500000
      vertex 8.500000 11.600000 12.500000
      vertex -8.500000 11.600000 12.500000
    endloop
  endfacet
  facet normal 0.000000 1.000000 0.000000
    outer loop
      vertex -8.500000 2.600000 12.500000
      vertex 8.500000 2.600000 12.500000
      vertex 8.500000 2.600000 -4.500000
    endloop
  endfacet
  facet normal 0.000000 1.000000 0.000000
    outer loop
      vertex -8.500000 2.600000 12.500000
      vertex 8.500000 2.600000 -4.500000
      vertex -8.500000 2.600000 -4.500000
    endloop
  endfacet
  facet normal 0.000000 0.000000 -1.000000
    outer loop
      vertex -8.500000 11.600000 12.500000
      vertex 8.500000 11.600000 12.500000
      vertex 8.500000 2.600000 12.500000
    endloop
  endfacet
  facet normal 0.000000 0.000000 -1.000000
    outer loop
      vertex -8.500000 11.600000 12.500000
      vertex 8.500000 2.600000 12.500000
      vertex -8.500000 2.600000 12.500000
    endloop
  endfacet
  facet normal 0.000000 0.000000 1.000000
    outer loop
      vertex 8.500000 2.600000 -4.500000
      vertex 8.500000 11.600000 -4.500000
      vertex -8.500000 11.600000 -4.500000
    endloop
  endfacet
  facet normal 0.000000 0.000000 1.000000
    outer loop
      vertex 8.500000 2.600000 -4.500000
      vertex -8.500000 11.600000 -4.500000
      vertex -8.500000 2.600000 -4.500000
    endloop
  endfacet
  facet normal -1.000000 0.000000 0.000000
    outer loop
      vertex 8.500000 2.600000 12.500000
      vertex 8.500000 11.600000 12.500000
      vertex 8.500000 11.600000 -4.500000
    endloop
  endfacet
  facet normal -1.000000 0.000000 0.000000
    outer loop
      vertex 8.500000 2.600000 12.500000
      vertex 8.500000 11.600000 -4.500000
      vertex 8.500000 2.600000 -4.500000
    endloop
  endfacet
  facet normal 1.000000 0.000000 0.000000
    outer loop
      vertex -8.500000 2.600000 -4.500000
      vertex -8.500000 11.600000 -4.500000
      vertex -8.500000 11.600000 12.500000
    endloop
  endfacet
  facet normal 1.000000 0.000000 0.000000
    outer loop
      vertex -8.500000 2.600000 -4.500000
      vertex -8.500000 11.600000 12.500000
      vertex -8.500000 2.600000 12.500000
    endloop
  endfacet
  facet normal 0.000000 -1.000000 0.000000
    outer loop
      vertex 0.000000 28.600000 4.000000
      vertex 4.000000 28.600000 4.000000
      vertex 3.863703 28.600000 5.035276
    endloop
  endfacet
  facet normal 0.000000 1.000000 0.000000
    outer loop
      vertex 0.000000 10.600000 4.000000
      vertex 3.863703 10.600000 5.035276
      vertex 4.000000 10.600000 4.000000
    endloop
  endfacet
  facet normal -0.991445 0.000000 -0.130526
    outer loop
      vertex 4.000000 10.600000 4.000000
      vertex 3.863703 10.600000 5.035276
      vertex 3.863703 28.600000 5.035276
    endloop
  endfacet
  facet normal -0.991445 0.000000 -0.130526
    outer loop
      vertex 4.000000 10.600000 4.000000
      vertex 3.863703 28.600000 5.035276
      vertex 4.000000 28.600000 4.000000
    endloop
  endfacet
  facet normal 0.000000 -1.000000 0.000000
    outer loop
      vertex 0.000000 28.600000 4.000000
      vertex 3.863703 28.600000 5.035276
      vertex 3.464102 28.600000 6.000000
    endloop
  endfacet
  facet normal 0.000000 1.000000 0.000000
    outer loop
      vertex 0.000000 10.600000 4.000000
      vertex 3.464102 10.600000 6.000000
      vertex 3.863703 10.600000 5.035276
    endloop
  endfacet
  facet normal -0.923880 0.000000 -0.382683
    outer loop
      vertex 3.863703 10.600000 5.035276
      vertex 3.464102 10.600000 6.000000
      vertex 3.464102 28.600000 6.000000
    endloop
  endfacet
  facet normal -0.923880 0.000000 -0.382683
    outer loop
      vertex 3.863703 10.600000 5.035276
      vertex 3.464102 28.600000 6.000000
      vertex 3.863703 28.600000 5.035276
    endloop
  endfacet
  facet normal 0.000000 -1.000000 0.000000
    outer loop
      vertex 0.000000 28.600000 4.000000
      vertex 3.464102 28.600000 6.000000
      vertex 2.828427 28.600000 6.828427
    endloop
  endfacet
  facet normal 0.000000 1.000000 0.000000
    outer loop
      vertex 0.000000 10.600000 4.000000
      vertex 2.828427 10.600000 6.828427
      vertex 3.464102 10.600000 6.000000
    endloop
  endfacet
  facet normal -0.793353 0.000000 -0.608761
    outer loop
      vertex 3.464102 10.600000 6.000000
      vertex 2.828427 10.600000 6.828427
      vertex 2.828427 28.600000 6.828427
    endloop
  endfacet
  facet normal -0.793353 0.000000 -0.608761
    outer loop
      vertex 3.464102 10.600000 6.000000
      vertex 2.828427 28.600000 6.828427
      vertex 3.464102 28.600000 6.000000
    endloop
  endfacet
  facet normal 0.000000 -1.000000 0.000000
    outer loop
      vertex 0.000000 28.600000 4.000000
      vertex 2.828427 28.600000 6.828427
      vertex 2.000000 28.600000 7.464102
    endloop
  endfacet
  facet normal 0.000000 1.000000 0.000000
    outer loop
      vertex 0.000000 10.600000 4.000000
      vertex 2.000000 10.600000 7.464102
      vertex 2.828427 10.600000 6.828427
    endloop
  endfacet
  facet normal -0.608761 0.000000 -0.793353
    outer loop
      vertex 2.828427 10.600000 6.828427
      vertex 2.000000 10.600000 7.464102
      vertex 2.000000 28.600000 7.464102
    endloop
  endfacet
  facet normal -0.608761 0.000000 -0.793353
    outer loop
      vertex 2.828427 10.600000 6.828427
      vertex 2.000000 28.600000 7.464102
      vertex 2.828427 28.600000 6.828427
    endloop
  endfacet
  facet normal 0.000000 -1.000000 0.000000
    outer loop
      vertex 0.000000 28.600000 4.000000
      vertex 2.000000 28.600000 7.464102
      vertex 1.035276 28.600000 7.863703
    endloop
  endfacet
  facet normal 0.000000 1.000000 0.000000
    outer loop
      vertex 0.000000 10.600000 4.000000
      vertex 1.035276 10.600000 7.863703
      vertex 2.000000 10.600000 7.464102
    endloop
  endfacet
  facet normal -0.382683 0.000000 -0.923880
    outer loop
      vertex 2.000000 10.600000 7.464102
      vertex 1.035276 10.600000 7.863703
      vertex 1.035276 28.600000 7.863703
    endloop
  endfacet
  facet normal -0.382683 0.000000 -0.923880
    outer loop
      vertex 2.000000 10.600000 7.464102
      vertex 1.035276 28.600000 7.863703
      vertex 2.000000 28.600000 7.464102
    endloop
  endfacet
  facet normal 0.000000 -1.000000 0.000000
    outer loop
      vertex 0.000000 28.600000 4.000000
      vertex 1.035276 28.600000 7.863703
      vertex 0.000000 28.600000 8.000000
    endloop
  endfacet
  facet normal 0.000000 1.000000 0.000000
    outer loop
      vertex 0.000000 10.600000 4.000000
      vertex 0.000000 10.600000 8.000000
      vertex 1.035276 10.600000 7.863703
    endloop
  endfacet
  facet normal -0.130526 0.000000 -0.991445
    outer loop
      vertex 1.035276 10.600000 7.863703
      vertex 0.000000 10.600000 8.000000
      vertex 0.000000 28.600000 8.000000
    endloop
  endfacet
  facet normal -0.130526 0.000000 -0.991445
    outer loop
      vertex 1.035276 10.600000 7.863703
      vertex 0.000000 28.600000 8.000000
      vertex 1.035276 28.600000 7.863703
    endloop
  endfacet
  facet normal 0.000000 -1.000000 0.000000
    outer loop
      vertex 0.000000 28.600000 4.000000
      vertex 0.000000 28.600000 8.000000
      vertex -1.035276 28.600000 7.863703
    endloop
  endfacet
  facet normal 0.000000 1.000000 0.000000
    outer loop
      vertex 0.000000 10.600000 4.000000
      vertex -1.035276 10.600000 7.863703
      vertex 0.000000 10.600000 8.000000
    endloop
  endfacet
  facet normal 0.130526 0.000000 -0.991445
    outer loop
      vertex 0.000000 10.600000 8.000000
      vertex -1.035276 10.600000 7.863703
      vertex -1.035276 28.600000 7.863703
    endloop
  endfacet
  facet normal 0.130526 0.000000 -0.991445
    outer loop
      vertex 0.000000 10.600000 8.000000
      vertex -1.035276 28.600000 7.863703
      vertex 0.000000 28.600000 8.000000
    endloop
  endfacet
  facet normal 0.000000 -1.000000 0.000000
    outer loop
      vertex 0.000000 28.600000 4.000000
      vertex -1.035276 28.600000 7.863703
      vertex -2.000000 28.600000 7.464102
    endloop
  endfacet
  facet normal 0.000000 1.000000 0.000000
    outer loop
      vertex 0.000000 10.600000 4.000000
      vertex -2.000000 10.600000 7.464102
      vertex -1.035276 10.600000 7.863703
    endloop
  endfacet
  facet normal 0.382683 0.000000 -0.923880
    outer loop
      vertex -1.035276 10.600000 7.863703
      vertex -2.000000 10.600000 7.464102
      vertex -2.000000 28.600000 7.464102
    endloop
  endfacet
  facet normal 0.382683 0.000000 -0.923880
    outer loop
      vertex -1.035276 10.600000 7.863703
      vertex -2.000000 28.600000 7.464102
      vertex -1.035276 28.600000 7.863703
    endloop
  endfacet
  facet normal 0.000000 -1.000000 0.000000
    outer loop
      vertex 0.000000 28.600000 4.000000
      vertex -2.000000 28.600000 7.464102
      vertex -2.828427 28.600000 6.828427
    endloop
  endfacet
  facet normal 0.000000 1.000000 0.000000
    outer loop
      vertex 0.000000 10.600000 4.000000
      vertex -2.828427 10.600000 6.828427
      vertex -2.000000 10.600000 7.464102
    endloop
  endfacet
  facet normal 0.608761 0.000000 -0.793353
    outer loop
      vertex -2.000000 10.600000 7.464102
      vertex -2.828427 10.600000 6.828427
      vertex -2.828427 28.600000 6.828427
    endloop
  endfacet
  facet normal 0.608761 0.000000 -0.793353
    outer loop
      vertex -2.000000 10.600000 7.464102
      vertex -2.828427 28.600000 6.828427
      vertex -2.000000 28.600000 7.464102
    endloop
  endfacet
  facet normal 0.000000 -1.000000 0.000000
    outer loop
      vertex 0.000000 28.600000 4.000000
      vertex -2.828427 28.600000 6.828427
      vertex -3.464102 28.600000 6.000000
    endloop
  endfacet
  facet normal 0.000000 1.000000 0.000000
    outer loop
      vertex 0.000000 10.600000 4.000000
      vertex -3.464102 10.600000 6.000000
      vertex -2.828427 10.600000 6.828427
    endloop
  endfacet
  facet normal 0.793353 0.000000 -0.608761
    outer loop
      vertex -2.828427 10.600000 6.828427
      vertex -3.464102 10.600000 6.000000
      vertex -3.464102 28.600000 6.000000
    endloop
  endfacet
  facet normal 0.793353 0.000000 -0.608761
    outer loop
      vertex -2.828427 10.600000 6.828427
      vertex -3.464102 28.600000 6.000000
      vertex -2.828427 28.600000 6.828427
    endloop
  endfacet
  facet normal 0.000000 -1.000000 0.000000
    outer loop
      vertex 0.000000 28.600000 4.000000
      vertex -3.464102 28.600000 6.000000
      vertex -3.863703 28.600000 5.035276
    endloop
  endfacet
  facet normal 0.000000 1.000000 0.000000
    outer loop
      vertex 0.000000 10.600000 4.000000
      vertex -3.863703 10.600000 5.035276
      vertex -3.464102 10.600000 6.000000
    endloop
  endfacet
  facet normal 0.923880 0.000000 -0.382683
    outer loop
      vertex -3.464102 10.600000 6.000000
      vertex -3.863703 10.600000 5.035276
      vertex -3.863703 28.600000 5.035276
    endloop
  endfacet
  facet normal 0.923880 0.000000 -0.382683
    outer loop
      vertex -3.464102 10.600000 6.000000
      vertex -3.863703 28.600000 5.035276
      vertex -3.464102 28.600000 6.000000
    endloop
  endfacet
  facet normal 0.000000 -1.000000 0.000000
    outer loop
      vertex 0.000000 28.600000 4.000000
      vertex -3.863703 28.600000 5.035276
      vertex -4.000000 28.600000 4.000000
    endloop
  endfacet
  facet normal 0.000000 1.000000 0.000000
    outer loop
      vertex 0.000000 10.600000 4.000000
      vertex -4.000000 10.600000 4.000000
      vertex -3.863703 10.600000 5.035276
    endloop
  endfacet
  facet normal 0.991445 0.000000 -0.130526
    outer loop
      vertex -3.863703 10.600000 5.035276
      vertex -4.000000 10.600000 4.000000
      vertex -4.000000 28.600000 4.000000
    endloop
  endfacet
  facet normal 0.991445 0.000000 -0.130526
    outer loop
      vertex -3.863703 10.600000 5.035276
      vertex -4.000000 28.600000 4.000000
      vertex -3.863703 28.600000 5.035276
    endloop
  endfacet
  facet normal 0.000000 -1.000000 0.000000
    outer loop
      vertex 0.000000 28.600000 4.000000
      vertex -4.000000 28.600000 4.000000
      vertex -3.863703 28.600000 2.964724
    endloop
  endfacet
  facet normal 0.000000 1.000000 0.000000
    outer loop
      vertex 0.000000 10.600000 4.000000
      vertex -3.863703 10.600000 2.964724
      vertex -4.000000 10.600000 4.000000
    endloop
  endfacet
  facet normal 0.991445 0.000000 0.130526
    outer loop
      vertex -4.000000 10.600000 4.000000
      vertex -3.863703 10.600000 2.964724
      vertex -3.863703 28.600000 2.964724
    endloop
  endfacet
  facet normal 0.991445 0.000000 0.130526
    outer loop
      vertex -4.000000 10.600000 4.000000
      vertex -3.863703 28.600000 2.964724
      vertex -4.000000 28.600000 4.000000
    endloop
  endfacet
  facet normal 0.000000 -1.000000 0.000000
    outer loop
      vertex 0.000000 28.600000 4.000000
      vertex -3.863703 28.600000 2.964724
      vertex -3.464102 28.600000 2.000000
    endloop
  endfacet
  facet normal 0.000000 1.000000 0.000000
    outer loop
      vertex 0.000000 10.600000 4.000000
      vertex -3.464102 10.600000 2.000000
      vertex -3.863703 10.600000 2.964724
    endloop
  endfacet
  facet normal 0.923880 0.000000 0.382683
    outer loop
      vertex -3.863703 10.600000 2.964724
      vertex -3.464102 10.600000 2.000000
      vertex -3.464102 28.600000 2.000000
    endloop
  endfacet
  facet normal 0.923880 0.000000 0.382683
    outer loop
      vertex -3.863703 10.600000 2.964724
      vertex -3.464102 28.600000 2.000000
      vertex -3.863703 28.600000 2.964724
    endloop
  endfacet
  facet normal 0.000000 -1.000000 0.000000
    outer loop
      vertex 0.000000 28.600000 4.000000
      vertex -3.464102 28.600000 2.000000
      vertex -2.828427 28.600000 1.171573
    endloop
  endfacet
  facet normal 0.000000 1.000000 0.000000
    outer loop
      vertex 0.000000 10.600000 4.000000
      vertex -2.828427 10.600000 1.171573
      vertex -3.464102 10.600000 2.000000
    endloop
  endfacet
  facet normal 0.793353 0.000000 0.608761
    outer loop
      vertex -3.464102 10.600000 2.000000
      vertex -2.828427 10.600000 1.171573
      vertex -2.828427 28.600000 1.171573
    endloop
  endfacet
  facet normal 0.793353 0.000000 0.608761
    outer loop
      vertex -3.464102 10.600000 2.000000
      vertex -2.828427 28.600000 1.171573
      vertex -3.464102 28.600000 2.000000
    endloop
  endfacet
  facet normal 0.000000 -1.000000 0.000000
    outer loop
      vertex 0.000000 28.600000 4.000000
      vertex -2.828427 28.600000 1.171573
      vertex -2.000000 28.600000 0.535898
    endloop
  endfacet
  facet normal 0.000000 1.000000 0.000000
    outer loop
      vertex 0.000000 10.600000 4.000000
      vertex -2.000000 10.600000 0.535898
      vertex -2.828427 10.600000 1.171573
    endloop
  endfacet
  facet normal 0.608761 0.000000 0.793353
    outer loop
      vertex -2.828427 10.600000 1.171573
      vertex -2.000000 10.600000 0.535898
      vertex -2.000000 28.600000 0.535898
    endloop
  endfacet
  facet normal 0.608761 0.000000 0.793353
    outer loop
      vertex -2.828427 10.600000 1.171573
      vertex -2.000000 28.600000 0.535898
      vertex -2.828427 28.600000 1.171573
    endloop
  endfacet
  facet normal 0.000000 -1.000000 0.000000
    outer loop
      vertex 0.000000 28.600000 4.000000
      vertex -2.000000 28.600000 0.535898
      vertex -1.035276 28.600000 0.136297
    endloop
  endfacet
  facet normal 0.000000 1.000000 0.000000
    outer loop
      vertex 0.000000 10.600000 4.000000
      vertex -1.035276 10.600000 0.136297
      vertex -2.000000 10.600000 0.535898
    endloop
  endfacet
  facet normal 0.382683 0.000000 0.923880
    outer loop
      vertex -2.000000 10.600000 0.535898
      vertex -1.035276 10.600000 0.136297
      vertex -1.035276 28.600000 0.136297
    endloop
  endfacet
  facet normal 0.382683 0.000000 0.923880
    outer loop
      vertex -2.000000 10.600000 0.535898
      vertex -1.035276 28.600000 0.136297
      vertex -2.000000 28.600000 0.535898
    endloop
  endfacet
  facet normal 0.000000 -1.000000 0.000000
    outer loop
      vertex 0.000000 28.600000 4.000000
      vertex -1.035276 28.600000 0.136297
      vertex -0.000000 28.600000 0.000000
    endloop
  endfacet
  facet normal 0.000000 1.000000 0.000000
    outer loop
      vertex 0.000000 10.600000 4.000000
      vertex -0.000000 10.600000 0.000000
      vertex -1.035276 10.600000 0.136297
    endloop
  endfacet
  facet normal 0.130526 0.000000 0.991445
    outer loop
      vertex -1.035276 10.600000 0.136297
      vertex -0.000000 10.600000 0.000000
      vertex -0.000000 28.600000 0.000000
    endloop
  endfacet
  facet normal 0.130526 0.000000 0.991445
    outer loop
      vertex -1.035276 10.600000 0.136297
      vertex -0.000000 28.600000 0.000000
      vertex -1.035276 28.600000 0.136297
    endloop
  endfacet
  facet normal 0.000000 -1.000000 0.000000
    outer loop
      vertex 0.000000 28.600000 4.000000
      vertex -0.000000 28.600000 0.000000
      vertex 1.035276 28.600000 0.136297
    endloop
  endfacet
  facet normal 0.000000 1.000000 0.000000
    outer loop
      vertex 0.000000 10.600000 4.000000
      vertex 1.035276 10.600000 0.136297
      vertex -0.000000 10.600000 0.000000
    endloop
  endfacet
  facet normal -0.130526 0.000000 0.991445
    outer loop
      vertex -0.000000 10.600000 0.000000
      vertex 1.035276 10.600000 0.136297
      vertex 1.035276 28.600000 0.136297
    endloop
  endfacet
  facet normal -0.130526 0.000000 0.991445
    outer loop
      vertex -0.000000 10.600000 0.000000
      vertex 1.035276 28.600000 0.136297
      vertex -0.000000 28.600000 0.000000
    endloop
  endfacet
  facet normal 0.000000 -1.000000 0.000000
    outer loop
      vertex 0.000000 28.600000 4.000000
      vertex 1.035276 28.600000 0.136297
      vertex 2.000000 28.600000 0.535898
    endloop
  endfacet
  facet normal 0.000000 1.000000 0.000000
    outer loop
      vertex 0.000000 10.600000 4.000000
      vertex 2.000000 10.600000 0.535898
      vertex 1.035276 10.600000 0.136297
    endloop
  endfacet
  facet normal -0.382683 0.000000 0.923880
    outer loop
      vertex 1.035276 10.600000 0.136297
      vertex 2.000000 10.600000 0.535898
      vertex 2.000000 28.600000 0.535898
    endloop
  endfacet
  facet normal -0.382683 0.000000 0.923880
    outer loop
      vertex 1.035276 10.600000 0.136297
      vertex 2.000000 28.600000 0.535898
      vertex 1.035276 28.600000 0.136297
    endloop
  endfacet
  facet normal 0.000000 -1.000000 0.000000
    outer loop
      vertex 0.000000 28.600000 4.000000
      vertex 2.000000 28.600000 0.535898
      vertex 2.828427 28.600000 1.171573
    endloop
  endfacet
  facet normal 0.000000 1.000000 0.000000
    outer loop
      vertex 0.000000 10.600000 4.000000
      vertex 2.828427 10.600000 1.171573
      vertex 2.000000 10.600000 0.535898
    endloop
  endfacet
  facet normal -0.608761 0.000000 0.793353
    outer loop
      vertex 2.000000 10.600000 0.535898
      vertex 2.828427 10.600000 1.171573
      vertex 2.828427 28.600000 1.171573
    endloop
  endfacet
  facet normal -0.608761 0.000000 0.793353
    outer loop
      vertex 2.000000 10.600000 0.535898
      vertex 2.828427 28.600000 1.171573
      vertex 2.000000 28.600000 0.535898
    endloop
  endfacet
  facet normal 0.000000 -1.000000 0.000000
    outer loop
      vertex 0.000000 28.600000 4.000000
      vertex 2.828427 28.600000 1.171573
      vertex 3.464102 28.600000 2.000000
    endloop
  endfacet
  facet normal 0.000000 1.000000 0.000000
    outer loop
      vertex 0.000000 10.600000 4.000000
      vertex 3.464102 10.600000 2.000000
      vertex 2.828427 10.600000 1.171573
    endloop
  endfacet
  facet normal -0.793353 0.000000 0.608761
    outer loop
      vertex 2.828427 10.600000 1.171573
      vertex 3.464102 10.600000 2.000000
      vertex 3.464102 28.600000 2.000000
    endloop
  endfacet
  facet normal -0.793353 0.000000 0.608761
    outer loop
      vertex 2.828427 10.600000 1.171573
      vertex 3.464102 28.600000 2.000000
      vertex 2.828427 28.600000 1.171573
    endloop
  endfacet
  facet normal 0.000000 -1.000000 0.000000
    outer loop
      vertex 0.000000 28.600000 4.000000
      vertex 3.464102 28.600000 2.000000
      vertex 3.863703 28.600000 2.964724
    endloop
  endfacet
  facet normal 0.000000 1.000000 0.000000
    outer loop
      vertex 0.000000 10.600000 4.000000
      vertex 3.863703 10.600000 2.964724
      vertex 3.464102 10.600000 2.000000
    endloop
  endfacet
  facet normal -0.923880 0.000000 0.382683
    outer loop
      vertex 3.464102 10.600000 2.000000
      vertex 3.863703 10.600000 2.964724
      vertex 3.863703 28.600000 2.964724
    endloop
  endfacet
  facet normal -0.923880 0.000000 0.382683
    outer loop
      vertex 3.464102 10.600000 2.000000
      vertex 3.863703 28.600000 2.964724
      vertex 3.464102 28.600000 2.000000
    endloop
  endfacet
  facet normal 0.000000 -1.000000 0.000000
    outer loop
      vertex 0.000000 28.600000 4.000000
      vertex 3.863703 28.600000 2.964724
      vertex 4.000000 28.600000 4.000000
    endloop
  endfacet
  facet normal 0.000000 1.000000 0.000000
    outer loop
      vertex 0.000000 10.600000 4.000000
      vertex 4.000000 10.600000 4.000000
      vertex 3.863703 10.600000 2.964724
    endloop
  endfacet
  facet normal -0.991445 0.000000 0.130526
    outer loop
      vertex 3.863703 10.600000 2.964724
      vertex 4.000000 10.600000 4.000000
      vertex 4.000000 28.600000 4.000000
    endloop
  endfacet
  facet normal -0.991445 0.000000 0.130526
    outer loop
      vertex 3.863703 10.600000 2.964724
      vertex 4.000000 28.600000 4.000000
      vertex 3.863703 28.600000 2.964724
    endloop
  endfacet
  facet normal 0.000000 -1.000000 0.000000
    outer loop
      vertex -6.350000 4.050000 -15.710000
      vertex 6.350000 4.050000 -15.710000
      vertex 6.350000 4.050000 -13.210000
    endloop
  endfacet
  facet normal 0.000000 -1.000000 0.000000
    outer loop
      vertex -6.350000 4.050000 -15.710000
      vertex 6.350000 4.050000 -13.210000
      vertex -6.350000 4.050000 -13.210000
    endloop
  endfacet
  facet normal 0.000000 1.000000 0.000000
    outer loop
      vertex -6.350000 1.550000 -13.210000
      vertex 6.350000 1.550000 -13.210000
      vertex 6.350000 1.550000 -15.710000
    endloop
  endfacet
  facet normal 0.000000 1.000000 0.000000
    outer loop
      vertex -6.350000 1.550000 -13.210000
      vertex 6.350000 1.550000 -15.710000
      vertex -6.350000 1.550000 -15.710000
    endloop
  endfacet
  facet normal 0.000000 0.000000 -1.000000
    outer loop
      vertex -6.350000 4.050000 -13.210000
      vertex 6.350000 4.050000 -13.210000
      vertex 6.350000 1.550000 -13.210000
    endloop
  endfacet
  facet normal 0.000000 0.000000 -1.000000
    outer loop
      vertex -6.350000 4.050000 -13.210000
      vertex 6.350000 1.550000 -13.210000
      vertex -6.350000 1.550000 -13.210000
    endloop
  endfacet
  facet normal 0.000000 0.000000 1.000000
    outer loop
      vertex 6.350000 1.550000 -15.710000
      vertex 6.350000 4.050000 -15.710000
      vertex -6.350000 4.050000 -15.710000
    endloop
  endfacet
  facet normal 0.000000 0.000000 1.000000
    outer loop
      vertex 6.350000 1.550000 -15.710000
      vertex -6.350000 4.050000 -15.710000
      vertex -6.350000 1.550000 -15.710000
    endloop
  endfacet
  facet normal -1.000000 0.000000 0.000000
    outer loop
      vertex 6.350000 1.550000 -13.210000
      vertex 6.350000 4.050000 -13.210000
      vertex 6.350000 4.050000 -15.710000
    endloop
  endfacet
  facet normal -1.000000 0.000000 0.000000
    outer loop
      vertex 6.350000 1.550000 -13.210000
      vertex 6.350000 4.050000 -15.710000
      vertex 6.350000 1.550000 -15.710000
    endloop
  endfacet
  facet normal 1.000000 0.000000 0.000000
    outer loop
      vertex -6.350000 1.550000 -15.710000
      vertex -6.350000 4.050000 -15.710000
      vertex -6.350000 4.050000 -13.210000
    endloop
  endfacet
  facet normal 1.000000 0.000000 0.000000
    outer loop
      vertex -6.350000 1.550000 -15.710000
      vertex -6.350000 4.050000 -13.210000
      vertex -6.350000 1.550000 -13.210000
    endloop
  endfacet
  facet normal 0.000000 -1.000000 0.000000
    outer loop
      vertex -3.000000 6.600000 -1.500000
      vertex 3.000000 6.600000 -1.500000
      vertex 3.000000 6.600000 4.500000
    endloop
  endfacet
  facet normal 0.000000 -1.000000 0.000000
    outer loop
      vertex -3.000000 6.600000 -1.500000
      vertex 3.000000 6.600000 4.500000
      vertex -3.000000 6.600000 4.500000
    endloop
  endfacet
  facet normal 0.000000 1.000000 0.000000
    outer loop
      vertex -3.000000 2.600000 4.500000
      vertex 3.000000 2.600000 4.500000
      vertex 3.000000 2.600000 -1.500000
    endloop
  endfacet
  facet normal 0.000000 1.000000 0.000000
    outer loop
      vertex -3.000000 2.600000 4.500000
      vertex 3.000000 2.600000 -1.500000
      vertex -3.000000 2.600000 -1.500000
    endloop
  endfacet
  facet normal 0.000000 0.000000 -1.000000
    outer loop
      vertex -3.000000 6.600000 4.500000
      vertex 3.000000 6.600000 4.500000
      vertex 3.000000 2.600000 4.500000
    endloop
  endfacet
  facet normal 0.000000 0.000000 -1.000000
    outer loop
      vertex -3.000000 6.600000 4.500000
      vertex 3.000000 2.600000 4.500000
      vertex -3.000000 2.600000 4.500000
    endloop
  endfacet
  facet normal 0.000000 0.000000 1.000000
    outer loop
      vertex 3.000000 2.600000 -1.500000
      vertex 3.000000 6.600000 -1.500000
      vertex -3.000000 6.600000 -1.500000
    endloop
  endfacet
  facet normal 0.000000 0.000000 1.000000
    outer loop
      vertex 3.000000 2.600000 -1.500000
      vertex -3.000000 6.600000 -1.500000
      vertex -3.000000 2.600000 -1.500000
    endloop
  endfacet
  facet normal -1.000000 0.000000 0.000000
    outer loop
      vertex 3.000000 2.600000 4.500000
      vertex 3.000000 6.600000 4.500000
      vertex 3.000000 6.600000 -1.500000
    endloop
  endfacet
  facet normal -1.000000 0.000000 0.000000
    outer loop
      vertex 3.000000 2.600000 4.500000
      vertex 3.000000 6.600000 -1.500000
      vertex 3.000000 2.600000 -1.500000
    endloop
  endfacet
  facet normal 1.000000 0.000000 0.000000
    outer loop
      vertex -3.000000 2.600000 -1.500000
      vertex -3.000000 6.600000 -1.500000
      vertex -3.000000 6.600000 4.500000
    endloop
  endfacet
  facet normal 1.000000 0.000000 0.000000
    outer loop
      vertex -3.000000 2.600000 -1.500000
      vertex -3.000000 6.600000 4.500000
      vertex -3.000000 2.600000 4.500000
    endloop
  endfacet
endsolid joystick_module_2axis